<?xml version="1.0" encoding="UTF-8" standalone="no"?>
<svg
   height="6756px"
   version="1.1"
   width="5103px"
   id="svg50254"
   sodipodi:docname="Gomez-Marin_2012_surface_558_p2_red.svg"
   inkscape:version="1.1.1 (eb90963e84, 2021-10-02)"
   xmlns:inkscape="http://www.inkscape.org/namespaces/inkscape"
   xmlns:sodipodi="http://sodipodi.sourceforge.net/DTD/sodipodi-0.dtd"
   xmlns:xlink="http://www.w3.org/1999/xlink"
   xmlns="http://www.w3.org/2000/svg"
   xmlns:svg="http://www.w3.org/2000/svg">
  <sodipodi:namedview
     id="namedview50256"
     pagecolor="#ffffff"
     bordercolor="#666666"
     borderopacity="1.0"
     inkscape:pageshadow="2"
     inkscape:pageopacity="0.0"
     inkscape:pagecheckerboard="0"
     showgrid="false"
     inkscape:zoom="0.57271881"
     inkscape:cx="1285.9714"
     inkscape:cy="907.07689"
     inkscape:window-width="1848"
     inkscape:window-height="898"
     inkscape:window-x="72"
     inkscape:window-y="27"
     inkscape:window-maximized="1"
     inkscape:current-layer="svg50254" />
  <defs
     id="defs50250" />
  <image
     height="6756px"
     sodipodi:insensitive="true"
     width="5103px"
     x="0"
     xlink:href="Gomez-Marin_2012_surface_558_p2.png"
     y="0"
     id="image50252" />
  <g
     id="g64402">
    <path
       style="fill:none;stroke:#000000;stroke-width:1px;stroke-linecap:butt;stroke-linejoin:miter;stroke-opacity:1"
       d="M 630.20435,563.58552 287.01568,674.69016"
       id="path50291" />
    <text
       xml:space="preserve"
       style="font-size:85.3333px;line-height:1.25;font-family:sans-serif"
       x="45.105312"
       y="743.8382"
       id="text55215"><tspan
         sodipodi:role="line"
         id="tspan55213"
         x="45.105312"
         y="743.8382">y2: 250 uA/cm2</tspan></text>
  </g>
  <g
     id="g64407">
    <path
       style="fill:none;stroke:#000000;stroke-width:1px;stroke-linecap:butt;stroke-linejoin:miter;stroke-opacity:1"
       d="M 630.20435,1709.3158 296.85414,1659.9035"
       id="path50293" />
    <text
       xml:space="preserve"
       style="font-size:85.3333px;line-height:1.25;font-family:sans-serif"
       x="94.297646"
       y="1630.2999"
       id="text57331"><tspan
         sodipodi:role="line"
         id="tspan57329"
         x="94.297646"
         y="1630.2999">y1: -150 uA/cm2</tspan></text>
  </g>
  <g
     id="g64412">
    <path
       style="fill:none;stroke:#000000;stroke-width:1px;stroke-linecap:butt;stroke-linejoin:miter;stroke-opacity:1"
       d="m 630.20435,1874.7303 -192.57338,66.6628"
       id="path53207" />
    <text
       xml:space="preserve"
       style="font-size:85.3333px;line-height:1.25;font-family:sans-serif"
       x="111.65964"
       y="2000.6732"
       id="text59633"><tspan
         sodipodi:role="line"
         id="tspan59631"
         x="111.65964"
         y="2000.6732">x1: 0 V vs RHE</tspan></text>
  </g>
  <g
     id="g64417">
    <path
       style="fill:none;stroke:#000000;stroke-width:1px;stroke-linecap:butt;stroke-linejoin:miter;stroke-opacity:1"
       d="m 2185.8384,1874.7303 98.6739,74.082"
       id="path53209" />
    <text
       xml:space="preserve"
       style="font-size:85.3333px;line-height:1.25;font-family:sans-serif"
       x="2151.259"
       y="1980.9009"
       id="text62529"><tspan
         sodipodi:role="line"
         id="tspan62527"
         x="2151.259"
         y="1980.9009">x2: 1.6 V vs RHE</tspan></text>
  </g>
  <text
     xml:space="preserve"
     style="font-size:85.3333px;line-height:1.25;font-family:sans-serif"
     x="1432.3934"
     y="706.23914"
     id="text67447"><tspan
       sodipodi:role="line"
       id="tspan67445"
       x="1432.3934"
       y="706.23914">scan rate: 50 mV/s</tspan></text>
  <g
     id="g69050">
    <text
       xml:space="preserve"
       style="font-size:85.3333px;line-height:1.25;font-family:sans-serif"
       x="730.57074"
       y="451.32327"
       id="text66543"><tspan
         sodipodi:role="line"
         id="tspan66541"
         x="730.57074"
         y="451.32327">curve: Pt_(111)_0.1M_HClO4</tspan></text>
    <path
       style="fill:none;stroke:#000000;stroke-width:1px;stroke-linecap:butt;stroke-linejoin:miter;stroke-opacity:1"
       d="m 686.36982,1409.2623 c 0,0 -0.72468,-32.5861 -0.86962,-48.8821 -0.16564,-18.6235 -0.27274,-37.2505 0,-55.8727 0.2899,-19.7935 -0.50581,-39.6936 1.73921,-59.3615 1.34667,-11.7977 2.80649,-23.8207 7.008,-34.9269 2.26179,-5.9788 4.22805,-13.1528 9.61682,-16.5912 8.12589,-5.1848 19.18093,-1.9778 28.79927,-2.6102 28.47182,-1.872 56.99733,-3.1321 85.52823,-3.5017 19.50701,-0.2527 39.07746,-0.734 58.51933,0.8787 9.67629,0.8026 19.51166,1.5364 28.79929,4.3675 11.0752,3.3759 21.46137,8.9077 31.4081,14.8339 10.55887,6.2909 19.72332,14.6738 29.72001,21.8244 6.62539,4.7391 13.16561,9.6171 20.05206,13.9682 5.95821,3.7646 11.93004,7.6024 18.36398,10.4793 5.0383,2.2529 10.3052,4.1009 15.7041,5.2462 14.8631,3.1531 30.2683,2.7116 45.373,4.3545 9.6137,1.0456 19.1582,2.7481 28.7992,3.5018 16.5504,1.2938 33.195,2.6325 49.7721,1.7444 12.3324,-0.6607 24.6695,-2.357 36.6769,-5.2462 10.4622,-2.5174 20.604,-6.3313 30.5385,-10.4664 23.666,-9.8505 44.7326,-25.6574 68.9546,-34.0482 14.6233,-5.0657 30.2056,-6.7901 45.4241,-9.6007 11.0006,-2.0316 22.7473,-1.1252 33.1472,-5.2461 7.2097,-2.8568 13.49,-7.8789 19.2337,-13.0896 5.0497,-4.5811 9.776,-9.757 13.0952,-15.7125 4.9295,-8.8449 7.4566,-18.9223 9.6168,-28.815 2.8725,-13.155 4.0686,-26.6981 4.3481,-40.1601 0.091,-4.3718 -0.8235,-8.717 -0.8696,-13.0895 -0.2705,-25.6363 2.3439,-51.2219 3.4783,-76.8346 0.2964,-6.6931 0.8697,-20.08006 0.8697,-20.08006 0,0 1.7372,32.59686 2.6088,48.89506 1.463,27.355 3.0011,54.7062 4.3991,82.0646 0.6096,11.9294 1.0704,23.8664 1.7393,35.7926 0.7674,13.6814 0.7732,27.4464 2.6088,41.0258 1.1545,8.5409 2.6313,17.1082 5.2688,25.3133 1.7529,5.4531 3.7996,10.9334 6.9568,15.7126 3.2926,4.9841 7.4876,9.4646 12.2256,13.1024 3.9231,3.0121 8.3212,5.6845 13.0953,6.9776 14.3296,3.8814 29.6602,1.4644 44.5033,1.7573 13.3825,0.2641 26.781,0.5383 40.1553,0 18.101,-0.7285 36.421,-0.7474 54.1713,-4.3674 4.5086,-0.9195 9.2291,-1.8721 13.0952,-4.3675 4.663,-3.0098 8.2816,-7.5695 11.3049,-12.2238 3.6236,-5.5785 5.8778,-11.9912 7.8776,-18.3356 4.736,-15.0248 7.1308,-30.7158 9.6168,-46.272 2.8645,-17.9248 4.3489,-36.0465 6.0872,-54.1153 1.7615,-18.3097 2.9175,-36.6726 4.3992,-55.007 1.4345,-17.751 3.2733,-35.4731 4.348,-53.2495 1.3358,-22.0941 1.4324,-44.24891 2.6089,-66.35207 1.3796,-25.91943 3.9878,-51.76639 5.2176,-77.69335 0.5243,-11.05265 -0.2676,-22.18139 0.9208,-33.18247 0.6681,-6.18491 3.4783,-18.33566 3.4783,-18.33566 5.0473,-0.56643 5.051,8.99603 6.0874,13.96817 1.7226,8.26445 -0.3265,16.89045 0,25.3262 0.7337,18.95536 3.2416,37.80418 4.3991,56.73839 1.582,25.87668 1.9787,51.81557 3.4784,77.69714 1.1815,20.39025 2.4676,40.78115 4.3481,61.11885 2.3728,25.6621 4.3958,51.4168 8.7472,76.8184 1.9663,11.4782 4.0381,23.0362 7.8263,34.0482 3.1342,9.1109 6.1954,18.6775 12.2258,26.1919 2.9874,3.7225 6.8366,7.1868 11.3559,8.7221 5.231,1.777 11.082,0.6018 16.5737,0 10.6758,-1.1699 20.9354,-4.8122 31.4545,-6.9776 6.1029,-1.2563 12.1793,-2.733 18.3641,-3.4889 10.4081,-1.2721 20.9571,-0.8942 31.4081,-1.7444 8.1702,-0.6647 16.7681,0.2342 24.4512,-2.623 8.6285,-3.2088 15.1559,-10.454 22.712,-15.7126 8.7472,-6.0875 18.026,-11.4864 26.1905,-18.3356 9.1433,-7.6704 16.3821,-17.4055 25.3209,-25.3133 8.8493,-7.8286 17.4924,-16.2873 27.9297,-21.8245 8.3729,-4.4421 17.5825,-8.6121 27.06,-8.7349 10.3085,-0.1336 19.9116,5.4065 29.6689,8.7349 5.3163,1.8135 10.5308,3.9233 15.704,6.1119 7.081,2.9957 13.7348,7.0071 20.9728,9.6007 9.6308,3.451 19.524,6.5359 29.6689,7.8563 6.6451,0.8649 13.5187,1.2439 20.1033,0 7.0539,-1.3325 13.6868,-4.5369 20.052,-7.8563 3.7249,-1.9425 13.982,-9.3207 10.4865,-6.9905 -10.4865,6.9905 2.602,23.3021 1.7392,34.9269 -0.9884,13.3179 -3.8437,26.5507 -7.8776,39.2814 -4.1315,13.0388 -10.0958,25.4906 -16.5737,37.537 -4.5872,8.5304 -8.9946,17.4623 -15.7041,24.4475 -4.9184,5.1205 -11.1122,9.0102 -17.4432,12.2238 -12.8814,6.5386 -26.9892,10.55 -41.0249,13.9682 -15.1624,3.6926 -30.7815,5.2738 -46.2937,6.9776 -29.2904,3.2171 -58.8117,3.8102 -88.1882,6.1119 -29.9811,2.3491 -59.8921,5.5457 -89.8762,7.8563 -34.8948,2.6891 -70.0334,2.6535 -104.7619,6.9905 -25.5469,3.1904 -50.8887,8.1262 -75.9625,13.9682 -17.6736,4.1178 -35.3972,8.4415 -52.381,14.8338 -6.3441,2.3877 -12.0952,6.1562 -18.364,8.735 -5.7079,2.3481 -11.9783,3.3117 -17.4771,6.1147 -8.1892,4.1744 -15.3124,10.1908 -22.6608,15.7125 -9.5917,7.2073 -19.6374,14.0324 -27.9297,22.7032 -5.7587,6.0215 -9.957,13.3622 -14.8856,20.08 -7.0214,9.5703 -14.8254,18.6304 -20.9217,28.815 -5.1463,8.5975 -8.8301,17.9908 -13.0952,27.0577 -4.7673,10.1344 -10.0147,20.0795 -13.9649,30.5594 -3.2142,8.5272 -4.9109,17.5626 -7.8775,26.179 -3.6604,10.6313 -8.3224,20.8934 -12.2257,31.438 -3.9609,10.7003 -7.6226,21.5091 -11.356,32.2909 -4.4267,12.784 -8.6456,25.6396 -13.0952,38.4157 -2.8448,8.1682 -2.5993,18.3124 -8.6961,24.4476 -2.4037,2.4188 -6.227,3.86 -9.6168,3.4888 -3.7757,-0.4134 -7.2978,-3.1038 -9.6168,-6.1119 -13.4261,-17.4162 -14.0041,-41.7078 -20.0521,-62.8503 -6.5235,-22.805 -10.4273,-46.3326 -17.4944,-68.9751 -6.1982,-19.8588 -13.496,-39.4046 -21.7913,-58.4828 -3.8922,-8.9515 -7.8305,-17.9724 -13.0952,-26.192 -5.0287,-7.8512 -10.4458,-15.7214 -17.4944,-21.8244 -4.3382,-3.7562 -9.26,-7.3731 -14.8345,-8.7349 -5.3743,-1.3129 -11.4791,-1.2784 -16.5736,0.8786 -5.1196,2.1676 -7.6585,8.175 -12.2257,11.3451 -2.6647,1.8496 -5.5628,3.5281 -8.696,4.3675 -4.8009,1.2862 -9.9584,1.5184 -14.8856,0.8657 -6.3782,-0.8449 -12.9676,-2.5179 -18.3129,-6.0989 -7.027,-4.7077 -12.3433,-11.89 -16.5736,-19.2143 -3.5457,-6.1389 -4.5895,-13.4161 -7.008,-20.0801 -5.6234,-15.4947 -9.4087,-31.8792 -17.4433,-46.272 -3.9424,-7.0622 -8.1801,-14.6038 -14.8344,-19.2013 -9.0203,-6.2323 -20.6342,-7.8618 -31.4593,-9.6008 -12.9327,-2.0775 -26.1928,-1.2632 -39.2856,-0.8786 -10.79,0.3169 -21.7595,0.1956 -32.2777,2.6231 -7.0103,1.6179 -13.65648,4.6623 -20.10324,7.8563 -7.01435,3.4752 -13.89707,7.387 -20.05209,12.2237 -6.80145,5.3447 -12.33355,12.1341 -18.36403,18.3356 -5.02156,5.164 -8.57184,12.1541 -14.83443,15.7126 -2.32388,1.3205 -5.15389,1.7066 -7.82646,1.7444 -9.18623,0.1298 -17.87809,-4.9245 -27.06005,-5.2332 -7.0409,-0.2367 -14.21752,0.6112 -20.97284,2.6102 -10.23078,3.0274 -19.47801,8.777 -28.79929,13.9681 -9.02875,5.0282 -17.40614,11.1473 -26.19046,16.5913 -9.54185,5.9135 -20.3598,10.0549 -28.79927,17.457 -7.00945,6.1479 -12.74484,13.8013 -17.49441,21.8244 -3.85308,6.5087 -5.99987,13.8918 -8.69605,20.9587 -4.7238,12.3814 -10.29393,24.5847 -13.09523,37.5371 -1.35852,6.2814 -1.73921,19.2013 -1.73921,19.2013"
       id="path68832"
       sodipodi:nodetypes="csssssssssssssssssssssssssssscssssssssssssssssssssssssssssssssssssssssssssssssssssssssssssssssssssssssssssssssssssssssssssssssssssssssssc" />
  </g>
</svg>
