<?xml version="1.0" encoding="UTF-8" standalone="no"?>
<svg
   height="6756px"
   version="1.1"
   width="5103px"
   id="svg50254"
   sodipodi:docname="gomez-marin_2012_surface_558_f2_blue.svg"
   inkscape:version="1.1.2 (b8e25be833, 2022-02-05)"
   xmlns:inkscape="http://www.inkscape.org/namespaces/inkscape"
   xmlns:sodipodi="http://sodipodi.sourceforge.net/DTD/sodipodi-0.dtd"
   xmlns:xlink="http://www.w3.org/1999/xlink"
   xmlns="http://www.w3.org/2000/svg"
   xmlns:svg="http://www.w3.org/2000/svg"
   xmlns:rdf="http://www.w3.org/1999/02/22-rdf-syntax-ns#"
   xmlns:cc="http://creativecommons.org/ns#"
   xmlns:dc="http://purl.org/dc/elements/1.1/">
  <metadata
     id="metadata28">
    <rdf:RDF>
      <cc:Work
         rdf:about="">
        <dc:format>image/svg+xml</dc:format>
        <dc:type
           rdf:resource="http://purl.org/dc/dcmitype/StillImage" />
      </cc:Work>
    </rdf:RDF>
  </metadata>
  <sodipodi:namedview
     id="namedview50256"
     pagecolor="#ffffff"
     bordercolor="#666666"
     borderopacity="1.0"
     inkscape:pageshadow="2"
     inkscape:pageopacity="0.0"
     inkscape:pagecheckerboard="0"
     showgrid="false"
     inkscape:zoom="0.28635941"
     inkscape:cx="1707.6443"
     inkscape:cy="1540.0227"
     inkscape:window-width="1920"
     inkscape:window-height="1017"
     inkscape:window-x="-8"
     inkscape:window-y="32"
     inkscape:window-maximized="1"
     inkscape:current-layer="svg50254" />
  <defs
     id="defs50250" />
  <image
     xlink:href="gomez-marin_2012_surface_558_p2.png"
     id="image50252"
     y="0"
     x="0"
     width="5103px"
     sodipodi:insensitive="true"
     height="6756px" />
  <g
     id="g842">
    <path
       style="fill:none;stroke:#000000;stroke-width:1px;stroke-linecap:butt;stroke-linejoin:miter;stroke-opacity:1"
       d="M 630.20435,563.58552 287.01568,674.69016"
       id="path50291"
       inkscape:connector-curvature="0" />
    <text
       xml:space="preserve"
       style="font-size:85.3333px;line-height:1.25;font-family:sans-serif"
       x="-443.81573"
       y="694.45221"
       id="text55215"><tspan
         sodipodi:role="line"
         id="tspan55213"
         x="-443.81573"
         y="694.45221">j2: 250 uA / cm2</tspan></text>
  </g>
  <g
     id="g850">
    <path
       style="fill:none;stroke:#000000;stroke-width:1px;stroke-linecap:butt;stroke-linejoin:miter;stroke-opacity:1"
       d="M 630.20435,1709.3158 296.85414,1659.9035"
       id="path50293"
       inkscape:connector-curvature="0" />
    <text
       xml:space="preserve"
       style="font-size:85.3333px;line-height:1.25;font-family:sans-serif"
       x="-453.88657"
       y="1684.6245"
       id="text57331"><tspan
         sodipodi:role="line"
         id="tspan57329"
         x="-453.88657"
         y="1684.6245">j1: -150 uA / cm2</tspan></text>
  </g>
  <g
     id="g843">
    <path
       sodipodi:nodetypes="cc"
       style="fill:none;stroke:#000000;stroke-width:1px;stroke-linecap:butt;stroke-linejoin:miter;stroke-opacity:1"
       d="m 630.20435,1874.7303 29.66346,269.1453"
       id="path53207"
       inkscape:connector-curvature="0" />
    <text
       xml:space="preserve"
       style="font-size:85.3333px;line-height:1.25;font-family:sans-serif"
       x="22.764894"
       y="2163.647"
       id="text59633"><tspan
         sodipodi:role="line"
         id="tspan59631"
         x="22.764894"
         y="2163.647">E1: 0 V vs RHE</tspan></text>
  </g>
  <g
     id="g866">
    <path
       style="fill:none;stroke:#000000;stroke-width:1px;stroke-linecap:butt;stroke-linejoin:miter;stroke-opacity:1"
       d="m 2185.8384,1874.7303 98.6739,74.082"
       id="path53209"
       inkscape:connector-curvature="0" />
    <text
       xml:space="preserve"
       style="font-size:85.3333px;line-height:1.25;font-family:sans-serif"
       x="2299.417"
       y="1985.8395"
       id="text62529"><tspan
         sodipodi:role="line"
         id="tspan62527"
         x="2299.417"
         y="1985.8395">E2: 1.6 V vs RHE</tspan></text>
  </g>
  <text
     xml:space="preserve"
     style="font-size:85.3333px;line-height:1.25;font-family:sans-serif"
     x="1432.3934"
     y="706.23914"
     id="text67447"><tspan
       sodipodi:role="line"
       id="tspan67445"
       x="1432.3934"
       y="706.23914">scan rate: 50 mV / s</tspan></text>
  <g
     id="g17663">
    <text
       xml:space="preserve"
       style="font-size:85.3333px;line-height:1.25;font-family:sans-serif"
       x="730.57074"
       y="451.32327"
       id="text66543"><tspan
         sodipodi:role="line"
         id="tspan66541"
         x="730.57074"
         y="451.32327">curve: blue</tspan></text>
    <path
       style="fill:none;stroke:#000000;stroke-width:1px;stroke-linecap:butt;stroke-linejoin:miter;stroke-opacity:1"
       d="m 691.65674,1217.0382 c 3.33435,-5.5022 10.33823,-22.4531 19.76864,-22.8476 59.92292,-2.5065 88.72216,-6.4779 145.97853,-6.8313 16.66823,-0.1029 25.59844,3.0985 53.57666,4.7092 10.75461,0.6191 69.64762,50.1165 103.12293,65.9786 17.3635,8.2275 68.3213,9.9314 87.4747,11.4578 25.0407,1.9956 48.3035,4.2676 69.6678,2.7433 42.6888,-3.0458 57.5999,-11.0275 96.9928,-41.0166 28.5631,-21.7446 44.8358,-43.3383 78.1047,-52.1144 14.2213,-3.7515 35.3044,9.6563 46.5929,7.0495 22.2719,-5.143 23.7498,-75.8593 27.0903,-74.4327 5.111,2.1828 1.7299,83.3975 12.2891,120.5036 11.0832,38.9476 66.0411,30.5542 124.7831,27.3915 5.594,-0.3012 17.7738,-2.8011 25.0084,-12.8095 15.2319,-21.0718 17.1124,-45.389 23.9644,-72.6681 6.9801,-27.7891 12.6291,-110.5301 26.3349,-112.0621 13.1504,-1.4699 38.8269,53.9691 51.4323,77.7732 13.7143,25.8981 20.9626,64.1185 49.4093,67.9054 10.7031,1.4248 26.7096,-2.8096 39.9351,-6.1765 24.3973,-6.211 53.6089,-2.3641 75.3077,-9.0808 55.5958,-17.2094 75.6496,-72.967 126.8197,-84.4517 30.0197,-6.7377 55.8231,17.6524 81.8135,20.6932 17.595,2.0586 29.9887,2.9359 39.4986,1.2426 9.4378,-1.6805 27.3281,-11.9788 27.28,-7.5514 -0.483,44.5406 -11.8641,84.3517 -34.5205,119.2439 -12.8554,19.7982 -59.1908,36.9369 -106.336,41.387 -197.3739,18.6304 -235.3849,18.6146 -352.2264,33.0471 -100.0735,12.3612 -157.3292,62.6434 -204.587,134.8708 -40.1658,61.3882 -71.3256,212.5138 -92.8743,198.6972 -17.9214,-11.4908 -48.8252,-147.7016 -62.6602,-177.7188 -12.4423,-26.9954 -16.1147,-45.3791 -32.871,-45.6662 -5.3525,-0.092 -19.2921,5.5163 -23.4806,2.1826 -19.6312,-15.6247 -44.624,-34.9079 -63.8901,-62.6872 -18.7185,-26.9899 -19.3634,-56.5777 -49.17,-66.3784 -26.3032,-8.6487 -53.4391,-6.452 -82.4818,-3.994 -49.32188,4.1742 -53.15721,44.89 -90.05789,60.8559 -8.41612,3.6414 -25.65573,-9.5306 -32.40819,-8.8626 -34.34358,3.3974 -68.02829,28.3331 -90.4316,40.3157 -34.629,18.5216 -51.4535,86.9748 -57.44294,89.1863 -5.88379,2.1725 -13.08873,-35.9288 -17.28964,-48.1514 -3.42893,-9.9765 -7.40811,-15.9925 -16.05982,-22.2209"
       id="path69370"
       sodipodi:nodetypes="csssssssssssssssssssssssssssssssssssssssc"
       inkscape:connector-curvature="0" />
  </g>
  <text
     xml:space="preserve"
     style="font-size:85.3333px;line-height:1.25;font-family:sans-serif"
     x="267.84201"
     y="221.08562"
     id="text25"><tspan
       sodipodi:role="line"
       id="tspan23"
       x="267.84201"
       y="221.08562">comment: Focus on Pt oxidation, surface defects (at steps), and sulfate vs. perchlorate adsorption.</tspan></text>
  <text
     xml:space="preserve"
     style="font-size:80px;line-height:1.25;font-family:sans-serif;-inkscape-font-specification:sans-serif;letter-spacing:0px;word-spacing:0px"
     x="-577.8158"
     y="943.27191"
     id="text2014"><tspan
       sodipodi:role="line"
       id="tspan2012"
       x="-577.8158"
       y="943.27191">Figure: 2</tspan></text>
  <text
     xml:space="preserve"
     style="font-size:80px;line-height:1.25;font-family:sans-serif;-inkscape-font-specification:sans-serif;letter-spacing:0px;word-spacing:0px"
     x="-563"
     y="1106.2456"
     id="text3140"><tspan
       sodipodi:role="line"
       id="tspan3138"
       x="-563"
       y="1106.2456">Tags: BCV</tspan></text>
</svg>
