<?xml version="1.0" encoding="UTF-8" standalone="no"?>
<svg
   height="6756px"
   version="1.1"
   width="5103px"
   id="svg50254"
   sodipodi:docname="Gomez-Marin_2012_surface_558_p2_blue.svg"
   inkscape:version="1.1.1 (eb90963e84, 2021-10-02)"
   xmlns:inkscape="http://www.inkscape.org/namespaces/inkscape"
   xmlns:sodipodi="http://sodipodi.sourceforge.net/DTD/sodipodi-0.dtd"
   xmlns:xlink="http://www.w3.org/1999/xlink"
   xmlns="http://www.w3.org/2000/svg"
   xmlns:svg="http://www.w3.org/2000/svg">
  <sodipodi:namedview
     id="namedview50256"
     pagecolor="#ffffff"
     bordercolor="#666666"
     borderopacity="1.0"
     inkscape:pageshadow="2"
     inkscape:pageopacity="0.0"
     inkscape:pagecheckerboard="0"
     showgrid="false"
     inkscape:zoom="0.28635941"
     inkscape:cx="1286.8444"
     inkscape:cy="1332.2419"
     inkscape:window-width="1848"
     inkscape:window-height="898"
     inkscape:window-x="72"
     inkscape:window-y="27"
     inkscape:window-maximized="1"
     inkscape:current-layer="svg50254" />
  <defs
     id="defs50250" />
  <image
     height="6756px"
     sodipodi:insensitive="true"
     width="5103px"
     x="0"
     xlink:href="Gomez-Marin_2012_surface_558_p2.png"
     y="0"
     id="image50252" />
  <g
     id="g64402">
    <path
       style="fill:none;stroke:#000000;stroke-width:1px;stroke-linecap:butt;stroke-linejoin:miter;stroke-opacity:1"
       d="M 630.20435,563.58552 287.01568,674.69016"
       id="path50291" />
    <text
       xml:space="preserve"
       style="font-size:85.3333px;line-height:1.25;font-family:sans-serif"
       x="45.105312"
       y="743.8382"
       id="text55215"><tspan
         sodipodi:role="line"
         id="tspan55213"
         x="45.105312"
         y="743.8382">y2: 250 uA / cm2</tspan></text>
  </g>
  <g
     id="g64407">
    <path
       style="fill:none;stroke:#000000;stroke-width:1px;stroke-linecap:butt;stroke-linejoin:miter;stroke-opacity:1"
       d="M 630.20435,1709.3158 296.85414,1659.9035"
       id="path50293" />
    <text
       xml:space="preserve"
       style="font-size:85.3333px;line-height:1.25;font-family:sans-serif"
       x="94.297646"
       y="1630.2999"
       id="text57331"><tspan
         sodipodi:role="line"
         id="tspan57329"
         x="94.297646"
         y="1630.2999">y1: -150 uA / cm2</tspan></text>
  </g>
  <g
     id="g64412">
    <path
       style="fill:none;stroke:#000000;stroke-width:1px;stroke-linecap:butt;stroke-linejoin:miter;stroke-opacity:1"
       d="m 630.20435,1874.7303 -192.57338,66.6628"
       id="path53207" />
    <text
       xml:space="preserve"
       style="font-size:85.3333px;line-height:1.25;font-family:sans-serif"
       x="111.65964"
       y="2000.6732"
       id="text59633"><tspan
         sodipodi:role="line"
         id="tspan59631"
         x="111.65964"
         y="2000.6732">x1: 0 V vs RHE</tspan></text>
  </g>
  <g
     id="g64417">
    <path
       style="fill:none;stroke:#000000;stroke-width:1px;stroke-linecap:butt;stroke-linejoin:miter;stroke-opacity:1"
       d="m 2185.8384,1874.7303 98.6739,74.082"
       id="path53209" />
    <text
       xml:space="preserve"
       style="font-size:85.3333px;line-height:1.25;font-family:sans-serif"
       x="2151.259"
       y="1980.9009"
       id="text62529"><tspan
         sodipodi:role="line"
         id="tspan62527"
         x="2151.259"
         y="1980.9009">x2: 1.6 V vs RHE</tspan></text>
  </g>
  <text
     xml:space="preserve"
     style="font-size:85.3333px;line-height:1.25;font-family:sans-serif"
     x="1432.3934"
     y="706.23914"
     id="text67447"><tspan
       sodipodi:role="line"
       id="tspan67445"
       x="1432.3934"
       y="706.23914">scan rate: 50 mV / s</tspan></text>
  <g
     id="g73990">
    <text
       xml:space="preserve"
       style="font-size:85.3333px;line-height:1.25;font-family:sans-serif"
       x="730.57074"
       y="451.32327"
       id="text66543"><tspan
         sodipodi:role="line"
         id="tspan66541"
         x="730.57074"
         y="451.32327">curve: Pt_(111)_0.005M_HClO4</tspan></text>
    <path
       style="fill:none;stroke:#000000;stroke-width:1px;stroke-linecap:butt;stroke-linejoin:miter;stroke-opacity:1"
       d="m 687.98671,1278.1404 c 0,0 0.51598,-28.9199 2.45962,-43.2175 1.30382,-9.591 1.1326,-20.1013 6.14901,-28.3792 3.33435,-5.5022 8.8298,-10.0316 14.83004,-12.3531 8.82429,-3.4141 18.91228,-0.6915 28.35793,-1.2426 16.89576,-0.9858 33.74188,-2.7311 50.63911,-3.6913 20.14347,-1.1447 40.30168,-2.4259 60.47761,-2.467 11.12397,-0.023 22.34249,-0.3846 33.34951,1.2244 11.36303,1.661 22.86643,3.9548 33.34947,8.6435 10.84355,4.8499 19.6806,13.3107 29.66006,19.7539 9.77369,6.3103 19.84718,12.15 29.58772,18.5114 9.18537,5.9988 17.08556,14.2815 27.20041,18.5296 11.6081,4.8752 24.6629,5.0876 37.0389,7.4009 18.887,3.5304 37.7307,7.4377 56.7882,9.8861 9.8161,1.2611 19.7068,1.907 29.5877,2.467 13.5605,0.7686 27.1715,2.0548 40.7284,1.2243 10.8119,-0.6623 21.698,-1.9802 32.1197,-4.9339 11.1833,-3.1696 21.9286,-7.9867 32.1196,-13.5774 12.7111,-6.9733 24.2286,-15.9649 35.8091,-24.6879 11.9135,-8.9738 22.7415,-19.3241 34.5793,-28.3975 5.6217,-4.3089 11.1163,-8.8804 17.2896,-12.3531 5.4639,-3.0736 11.5165,-4.9572 17.2897,-7.4009 4.9109,-2.0787 9.4402,-5.7736 14.7577,-6.1765 5.0811,-0.385 9.8659,2.5592 14.83,3.7096 5.7409,1.3304 11.4072,3.3363 17.2896,3.6913 4.5435,0.2742 9.8085,1.2938 13.6003,-1.2244 5.8255,-3.8688 7.2938,-12.0158 9.8385,-18.5296 3.5589,-9.1099 5.8293,-18.7342 7.4511,-28.3792 0.8904,-5.2956 0.018,-10.8314 1.2299,-16.0627 0.5002,-2.1589 0.2517,-6.3672 2.4595,-6.1765 0,0 4.095,15.5149 4.9193,23.4635 0.8488,8.1854 -0.5094,16.4744 0,24.6879 0.8214,13.2456 3.5565,26.3071 4.9192,39.508 1.06,10.2681 -0.9358,21.1416 2.532,30.8644 2.1844,6.1244 6.3971,11.5395 11.0683,16.0627 4.9214,4.7655 10.8586,8.7499 17.2896,11.1105 5.8463,2.1459 12.3054,2.0548 18.5194,2.4669 13.1373,0.8711 26.3388,0.4106 39.4986,0 13.1854,-0.4114 26.5216,-0.096 39.4985,-2.4669 5.5108,-1.007 11.3601,-1.9034 16.0599,-4.9522 7.3412,-4.7623 13.1571,-12.0407 17.2896,-19.754 9.6626,-18.0353 11.7863,-39.2343 16.0598,-59.2436 4.4381,-20.7803 6.5741,-41.9863 9.9108,-62.9716 2.0296,-12.7644 0.9229,-26.4625 6.1491,-38.2835 2.1266,-4.8102 4.6335,-11.581 9.8385,-12.3348 4.9783,-0.721 8.7951,5.1049 12.3703,8.6434 7.5493,7.4717 13.0937,16.7993 18.5194,25.9306 8.1772,13.7618 14.1705,28.7114 20.9791,43.1992 6.3461,13.5036 11.122,27.7931 18.5195,40.7506 4.9811,8.7249 8.8294,19.2694 17.2897,24.6879 3.8798,2.4849 9.0025,2.168 13.6001,2.4669 8.2156,0.5341 16.5775,0.2977 24.6686,-1.2243 5.1218,-0.9635 9.7525,-3.7775 14.83,-4.9522 6.0674,-1.4038 12.3054,-2.0549 18.5194,-2.467 9.865,-0.6542 19.7836,0.4481 29.6601,0 9.0707,-0.4116 18.4413,0.176 27.1282,-2.4669 9.858,-2.9992 18.5645,-9.0896 27.1281,-14.8201 9.2486,-6.1889 17.5319,-13.7237 25.9705,-20.9783 9.7129,-8.35 18.8217,-17.3793 28.3579,-25.9305 6.9569,-6.2384 13.1356,-13.5462 21.0515,-18.5114 7.1833,-4.5057 15.1845,-7.9448 23.4387,-9.8861 6.4209,-1.5101 13.2226,-2.1972 19.7493,-1.2426 8.2396,1.2051 15.634,5.7403 23.4387,8.6435 13.1801,4.9028 25.662,12.3098 39.4985,14.8201 7.284,1.3215 14.8106,-0.2655 22.2088,0 5.7744,0.2072 11.6115,2.3118 17.2898,1.2426 9.4207,-1.7739 25.9705,-12.3531 25.9705,-12.3531 0,0 -0.069,23.915 -1.2298,35.7983 -1.0128,10.3725 -2.2519,20.8092 -4.9915,30.8645 -2.6706,9.8021 -6.9462,19.1119 -11.0683,28.3975 -4.4825,10.0975 -8.1237,20.8608 -14.8301,29.6401 -6.3649,8.3323 -14.2142,15.9934 -23.4386,20.9783 -11.242,6.0752 -24.6087,6.9232 -37.039,9.8861 -15.556,3.708 -31.1423,7.4458 -46.9497,9.8678 -29.4322,4.5096 -59.2375,6.1408 -88.9078,8.6435 -28.7633,2.4262 -57.5895,4.0411 -86.3759,6.1766 -32.102,2.3815 -64.2301,4.4703 -96.2866,7.4009 -27.2152,2.488 -54.6955,3.4651 -81.5291,8.6435 -19.3156,3.7275 -38.1175,9.8662 -56.7881,16.0626 -14.2115,4.7165 -28.5627,9.3531 -41.9582,16.0444 -15.2128,7.5992 -29.7754,16.7013 -43.188,27.1549 -10.3397,8.0586 -20.0324,17.1069 -28.4302,27.1731 -12.9438,15.5153 -23.4961,32.9782 -33.3495,50.6184 -9.9632,17.8369 -17.7227,36.8286 -25.8983,55.5524 -8.7155,19.9602 -17.0388,40.1046 -24.6685,60.5045 -7.6157,20.3624 -11.0147,42.4445 -21.0514,61.7289 -3.5283,6.7793 -7.4389,13.8927 -13.5279,18.5113 -2.8104,2.1317 -6.4279,4.2682 -9.9108,3.7096 -2.5948,-0.4161 -4.5193,-2.8724 -6.149,-4.9339 -5.3693,-6.792 -8.189,-15.3242 -11.1406,-23.4636 -8.9837,-24.7732 -12.4806,-51.2194 -19.7493,-76.5489 -7.1442,-24.8957 -14.1839,-49.8914 -23.4387,-74.0819 -5.0014,-13.0727 -8.0716,-27.7327 -17.2896,-38.2654 -2.5636,-2.9292 -6.2204,-4.938 -9.9108,-6.1765 -4.2925,-1.4405 -9.0048,-1.02 -13.5279,-1.2243 -5.3478,-0.2415 -10.9815,1.6935 -16.0598,0 -7.8078,-2.6037 -13.4652,-9.5049 -19.7493,-14.8201 -8.6646,-7.3288 -17.0514,-15.0513 -24.6685,-23.4636 -6.2992,-6.9568 -10.6844,-15.554 -17.2897,-22.2209 -1.8629,-1.8802 -4.6247,-2.823 -6.2213,-4.934 -9.6812,-12.7998 -7.674,-32.6123 -18.5195,-44.4418 -7.2077,-7.8616 -18.2905,-11.298 -28.3579,-14.82 -12.2649,-4.2907 -25.3175,-6.3682 -38.2687,-7.4192 -13.9704,-1.1337 -28.1802,-0.908 -42.0305,1.2426 -11.8217,1.8356 -23.70456,4.7268 -34.50696,9.8679 -9.0843,4.3234 -17.48734,10.3154 -24.74083,17.287 -9.31392,8.952 -13.25357,22.9177 -23.43867,30.8644 -2.48097,1.9357 -5.54413,3.4597 -8.68097,3.7096 -6.76398,0.539 -13.01462,-4.1054 -19.74927,-4.9339 -7.34758,-0.9039 -14.87007,-0.9723 -22.20891,0 -10.9683,1.4532 -21.72585,4.6581 -32.0473,8.6434 -16.83419,6.5 -33.30648,14.4688 -48.17954,24.688 -8.64525,5.9401 -16.73787,12.9266 -23.43866,20.9966 -8.60822,10.3672 -16.07779,22.0035 -20.97909,34.5557 -3.81737,9.7762 -0.77284,21.8945 -6.22136,30.8645 -1.36626,2.2493 -3.59939,5.6042 -6.14906,4.9521 -7.33731,-1.8765 -6.08745,-13.8811 -8.68097,-20.9966 -3.25174,-8.9214 -5.20925,-18.2886 -8.60867,-27.1548 -1.77865,-4.639 -3.18427,-9.5906 -6.14902,-13.5774 -2.61577,-3.5175 -9.9108,-8.6435 -9.9108,-8.6435"
       id="path69370"
       sodipodi:nodetypes="cssssssssssssssssssssssssssssssssssssssssssssssssssssssssssssssssscssssssssssssssssssssssssssssssssssssssssssssssssssssc" />
  </g>
</svg>
