<?xml version="1.0" encoding="UTF-8" standalone="no"?>
<svg
   height="6756px"
   version="1.1"
   width="5103px"
   id="svg233"
   sodipodi:docname="gomez-marin_2012_surface_558_f1_red.svg"
   inkscape:version="1.1.2 (b8e25be833, 2022-02-05)"
   xmlns:inkscape="http://www.inkscape.org/namespaces/inkscape"
   xmlns:sodipodi="http://sodipodi.sourceforge.net/DTD/sodipodi-0.dtd"
   xmlns:xlink="http://www.w3.org/1999/xlink"
   xmlns="http://www.w3.org/2000/svg"
   xmlns:svg="http://www.w3.org/2000/svg"
   xmlns:rdf="http://www.w3.org/1999/02/22-rdf-syntax-ns#"
   xmlns:cc="http://creativecommons.org/ns#"
   xmlns:dc="http://purl.org/dc/elements/1.1/">
  <metadata
     id="metadata32">
    <rdf:RDF>
      <cc:Work
         rdf:about="">
        <dc:format>image/svg+xml</dc:format>
        <dc:type
           rdf:resource="http://purl.org/dc/dcmitype/StillImage" />
      </cc:Work>
    </rdf:RDF>
  </metadata>
  <sodipodi:namedview
     id="namedview235"
     pagecolor="#ffffff"
     bordercolor="#666666"
     borderopacity="1.0"
     inkscape:pageshadow="2"
     inkscape:pageopacity="0.0"
     inkscape:pagecheckerboard="0"
     showgrid="false"
     inkscape:zoom="0.57271879"
     inkscape:cx="2980.5203"
     inkscape:cy="689.69276"
     inkscape:window-width="1920"
     inkscape:window-height="1017"
     inkscape:window-x="-8"
     inkscape:window-y="32"
     inkscape:window-maximized="1"
     inkscape:current-layer="svg233" />
  <defs
     id="defs229" />
  <image
     xlink:href="gomez-marin_2012_surface_558_p1.png"
     height="6756px"
     sodipodi:insensitive="true"
     width="5103px"
     x="0"
     y="0"
     id="image231" />
  <g
     id="g866">
    <path
       style="fill:none;stroke:#000000;stroke-width:1px;stroke-linecap:butt;stroke-linejoin:miter;stroke-opacity:1"
       d="m 4677.2036,1963.6247 202.4113,118.5238"
       id="path276"
       inkscape:connector-curvature="0" />
    <text
       xml:space="preserve"
       style="font-size:85.3333px;line-height:1.25;font-family:sans-serif"
       x="4889.6934"
       y="2126.6487"
       id="text10393"><tspan
         sodipodi:role="line"
         id="tspan10391"
         x="4889.6934"
         y="2126.6487">E2: 0.9 V vs RHE</tspan></text>
  </g>
  <g
     id="g858">
    <path
       style="fill:none;stroke:#000000;stroke-width:1px;stroke-linecap:butt;stroke-linejoin:miter;stroke-opacity:1"
       d="m 3111.6377,1963.6247 -125.8739,148.164"
       id="path274"
       inkscape:connector-curvature="0" />
    <text
       xml:space="preserve"
       style="font-size:85.3333px;line-height:1.25;font-family:sans-serif"
       x="2247.8909"
       y="2159.2344"
       id="text12551"><tspan
         sodipodi:role="line"
         id="tspan12549"
         x="2247.8909"
         y="2159.2344">E1: 0.1 V vs RHE</tspan></text>
  </g>
  <g
     id="g850">
    <path
       style="fill:none;stroke:#000000;stroke-width:1px;stroke-linecap:butt;stroke-linejoin:miter;stroke-opacity:1"
       d="m 2970.8612,1911.7637 -234.5315,46.9271"
       id="path272"
       inkscape:connector-curvature="0" />
    <text
       xml:space="preserve"
       style="font-size:85.3333px;line-height:1.25;font-family:sans-serif"
       x="2010.8287"
       y="1986.4338"
       id="text14271"><tspan
         sodipodi:role="line"
         id="tspan14269"
         x="2010.8287"
         y="1986.4338">j1: -125 uA / cm2</tspan></text>
  </g>
  <g
     id="g842">
    <path
       style="fill:none;stroke:#000000;stroke-width:1px;stroke-linecap:butt;stroke-linejoin:miter;stroke-opacity:1"
       d="m 2973.3208,649.99476 -180.2756,88.92028"
       id="path270"
       inkscape:connector-curvature="0" />
    <text
       xml:space="preserve"
       style="font-size:85.3333px;line-height:1.25;font-family:sans-serif"
       x="2084.8267"
       y="776.51019"
       id="text18949"><tspan
         sodipodi:role="line"
         id="tspan18947"
         x="2084.8267"
         y="776.51019">j2: 125 uA / cm2</tspan></text>
  </g>
  <text
     xml:space="preserve"
     style="font-size:85.3333px;line-height:1.25;font-family:sans-serif"
     x="3353.8955"
     y="1872.8066"
     id="text32401"><tspan
       sodipodi:role="line"
       id="tspan32399"
       x="3353.8955"
       y="1872.8066">scan rate: 50 mV / s</tspan></text>
  <text
     xml:space="preserve"
     style="font-size:85.3333px;line-height:1.25;font-family:sans-serif"
     x="1151.2814"
     y="114.64114"
     id="text25"><tspan
       sodipodi:role="line"
       id="tspan23"
       x="1151.2814"
       y="114.64114">comment: Focus on Pt oxidation, surface defects (at steps), and sulfate vs. perchlorate adsorption.</tspan></text>
  <g
     id="g7718">
    <text
       xml:space="preserve"
       style="font-size:85.5804px;line-height:1.25;font-family:sans-serif;stroke-width:1.0029"
       x="3446.5271"
       y="477.21753"
       id="text1306"><tspan
         sodipodi:role="line"
         id="tspan1304"
         x="3446.5271"
         y="477.21753"
         style="stroke-width:1.0029">curve: red</tspan></text>
    <path
       style="fill:none;stroke:#00ff00;stroke-width:1px;stroke-linecap:butt;stroke-linejoin:miter;stroke-opacity:1"
       d="m 3032.4472,1655.9293 c 0,0 -0.4822,-90.5432 0,-135.8109 0.627,-58.8577 3.1348,-117.6854 3.7618,-176.5431 0.5743,-53.9107 0,-107.8276 0,-161.7414 0,-36.6268 -1.049,-70.0316 0,-109.8803 0.2813,-10.6874 4.5843,-30.0819 14.0443,-30.4948 15.7132,-0.686 35.4938,43.8287 58.8036,37.914 9.817,-2.852 15.3878,-14.2177 19.7493,-23.4636 11.6026,-24.5961 13.9157,-53.3256 17.8135,-80.2402 5.0421,-34.81547 5.5956,-69.8559 8.0848,-104.9464 3.2347,-45.59947 2.7753,-91.39016 4.9194,-137.05391 2.011,-42.82813 10.0704,-129.71949 10.0704,-129.71949 6.3816,60.43284 5.0815,119.67858 5.9893,170.45176 0.8554,41.99031 1.3765,84.00775 3.6895,125.94303 2.251,40.81007 3.9436,81.78094 9.9107,122.21511 2.2742,15.4104 4.0678,31.2156 9.8386,45.6845 18.333,45.0903 55.1351,41.8676 96.0021,46.4053 18.967,2.1594 37.4065,4.4741 55.9152,9.147 23.4774,5.9274 46.0813,15.34 67.8566,25.9306 17.2715,8.4001 33.2565,19.2497 49.4091,29.64 25.6308,16.4873 48.5169,37.316 75.3076,51.8428 13.2976,7.2104 27.455,12.9892 41.9582,17.287 19.2654,5.7091 39.2867,8.8074 59.2478,11.1105 18.4156,2.1248 37.0293,1.9077 55.5586,2.4669 25.938,0.7827 51.8897,1.1949 77.8395,1.2427 33.7377,0.062 67.4686,-1.0356 101.2057,-1.2427 28.4056,-0.1744 56.8383,1.2136 85.2185,0 28.8711,-1.2346 57.6519,-4.2398 86.376,-7.4009 21.4764,-2.3635 43.146,-3.9645 64.2394,-8.6435 20.1998,-4.4808 40.242,-10.333 59.2478,-18.5114 14.7194,-6.3339 27.8514,-15.8619 41.9579,-23.4635 21.2368,-11.4439 42.1861,-23.5531 64.2394,-33.3314 14.0411,-6.2257 28.313,-12.2354 43.188,-16.0626 18.9352,-4.8718 38.5672,-6.6395 58.018,-8.6253 7.3762,-0.753 14.8976,-0.01 22.2089,-1.2426 14.7794,-2.4929 29.2835,-6.8743 43.2344,-12.3531 38.4657,-15.1063 53.6135,-42.4214 79.2365,-55.9888 8.825,-4.6728 15.4384,12.2032 20.812,22.6574 7.859,14.7896 15.0115,29.9686 23.4388,44.4419 6.1459,10.5551 11.6967,21.6807 19.7492,30.8644 6.7363,7.6826 14.5282,14.754 23.4388,19.754 6.8067,3.8195 14.4543,6.5324 22.2089,7.4191 8.6396,0.9879 17.8019,0.5146 25.9707,-2.4669 6.1149,-2.2318 0,0 16.0598,-11.1105 0,0 -0.6291,25.5178 -1.2298,38.2654 -0.6407,13.5946 1.1191,27.6397 -2.532,40.7505 -2.6139,9.3865 -7.2932,18.4243 -13.5278,25.9122 -10.6915,12.8408 -27.4985,20.1102 -39.4985,31.7375 -11.5495,11.1907 -21.5346,23.1062 -30.8901,36.1866 -12.8941,18.0279 -24.5448,37.0319 -34.5792,56.7949 -8.4867,17.0477 -14.274,39.918 -30.8897,44.4418 -6.7853,1.8474 -13.7151,-3.8077 -19.7493,-7.4191 -11.2493,-6.7326 -18.0952,-19.604 -29.5879,-25.9122 -15.4179,-8.4627 -33.2804,-11.9908 -50.639,-14.8201 -21.1261,-3.4433 -42.8117,-1.0134 -64.1671,-2.4669 -16.9211,-1.1517 -34.1091,-1.1572 -50.6393,-4.9523 -19.668,-4.5155 -38.5677,-12.3043 -56.7881,-20.9783 -23.3316,-11.1073 -43.2276,-28.6987 -66.6988,-39.5079 -17.3777,-8.003 -35.5179,-15.0212 -54.3288,-18.5113 -31.5804,-5.8593 -64.3045,-0.743 -96.2866,-3.7096 -25.2658,-2.3436 -50.1206,-8.0337 -75.3076,-11.1105 -25.4429,-3.108 -50.9464,-5.9696 -76.5374,-7.4191 -24.6564,-1.3965 -49.4288,0.2983 -74.0777,-1.2244 -23.1411,-1.4296 -45.9854,-6.678 -69.1588,-7.4192 -28.8037,-0.9213 -57.6234,1.7576 -86.3757,3.7096 -17.7351,1.2041 -35.7582,1.025 -53.0989,4.934 -17.5342,3.9527 -41.3561,13.0666 -57.6232,20.7122 -25.8697,12.1588 -41.0985,28.5009 -65.3475,43.6357 -23.922,14.9307 -47.0241,31.4764 -72.1346,44.308 -23.0765,11.7922 -48.0089,19.7655 -72.8479,27.1549 -16.1577,4.8068 -32.658,8.6643 -49.3372,11.1105 -17.5549,2.5746 -36.253,-1.8607 -53.0986,3.7096 -11.6041,3.8371 -23.3298,10.1506 -30.8899,19.7539 -7.0024,8.8949 -8.1769,21.162 -11.0683,32.107 -4.5976,17.4038 -7.6757,35.2238 -9.9108,53.0854 -3.1748,25.3707 -3.584,51.014 -4.937,76.5468 -2.6157,49.3612 -4.0789,98.7768 -6.1488,148.1639 -1.2418,29.6284 -2.0437,59.2791 -3.7618,88.8837 -1.2913,22.25 -4.9193,66.6811 -4.9193,66.6811 -4.1817,-77.3219 -10.0669,-157.099 -13.6001,-224.7128 -2.3828,-45.5991 -5.6811,-90.7822 -11.0685,-130.8587 -2.9383,-21.7166 -12.4929,-87.3032 -35.9685,-83.5133 -29.8572,4.8201 -47.4467,71.5599 -55.3988,99.5577 -4.9707,17.802 -11.1697,54.3121 -11.1697,54.3121 z"
       id="path34797"
       sodipodi:nodetypes="cssssscssssccssccsssssssssssssssssssscssssssssssscsssssssssssssssssssssssssssscscscc" />
  </g>
  <text
     xml:space="preserve"
     style="font-size:80px;line-height:1.25;font-family:sans-serif;-inkscape-font-specification:sans-serif;letter-spacing:0px;word-spacing:0px"
     x="5289.2373"
     y="938.33337"
     id="text2102"><tspan
       sodipodi:role="line"
       id="tspan2100"
       x="5289.2373"
       y="938.33337">Figure: 1</tspan></text>
  <text
     xml:space="preserve"
     style="font-size:80px;line-height:1.25;font-family:sans-serif;-inkscape-font-specification:sans-serif;letter-spacing:0px;word-spacing:0px"
     x="5304.0527"
     y="1106.2457"
     id="text3184"><tspan
       sodipodi:role="line"
       id="tspan3182"
       x="5304.0527"
       y="1106.2457">Tags: BCV</tspan></text>
</svg>
