<?xml version="1.0" encoding="UTF-8" standalone="no"?>
<svg
   xmlns:dc="http://purl.org/dc/elements/1.1/"
   xmlns:cc="http://creativecommons.org/ns#"
   xmlns:rdf="http://www.w3.org/1999/02/22-rdf-syntax-ns#"
   xmlns:svg="http://www.w3.org/2000/svg"
   xmlns="http://www.w3.org/2000/svg"
   xmlns:xlink="http://www.w3.org/1999/xlink"
   xmlns:sodipodi="http://sodipodi.sourceforge.net/DTD/sodipodi-0.dtd"
   xmlns:inkscape="http://www.inkscape.org/namespaces/inkscape"
   height="6756px"
   version="1.1"
   width="5103px"
   id="svg50254"
   sodipodi:docname="gomez-marin_2012_surface_558_p2_f2_pink.svg"
   inkscape:version="0.92.2 (5c3e80d, 2017-08-06)">
  <metadata
     id="metadata28">
    <rdf:RDF>
      <cc:Work
         rdf:about="">
        <dc:format>image/svg+xml</dc:format>
        <dc:type
           rdf:resource="http://purl.org/dc/dcmitype/StillImage" />
      </cc:Work>
    </rdf:RDF>
  </metadata>
  <sodipodi:namedview
     id="namedview50256"
     pagecolor="#ffffff"
     bordercolor="#666666"
     borderopacity="1.0"
     inkscape:pageshadow="2"
     inkscape:pageopacity="0.0"
     inkscape:pagecheckerboard="0"
     showgrid="false"
     inkscape:zoom="0.10124334"
     inkscape:cx="-218.91627"
     inkscape:cy="2971.2777"
     inkscape:window-width="1920"
     inkscape:window-height="1017"
     inkscape:window-x="-8"
     inkscape:window-y="32"
     inkscape:window-maximized="1"
     inkscape:current-layer="svg50254" />
  <defs
     id="defs50250" />
  <image
     sodipodi:absref="F:\Github\echemdb\website\literature\gomez-marin_2012_surface_558\Gomez-Marin_2012_surface_558_p2.png"
     xlink:href="Gomez-Marin_2012_surface_558_p2.png"
     id="image50252"
     y="0"
     x="0"
     width="5103px"
     sodipodi:insensitive="true"
     height="6756px" />
  <g
     id="g64402">
    <path
       style="fill:none;stroke:#000000;stroke-width:1px;stroke-linecap:butt;stroke-linejoin:miter;stroke-opacity:1"
       d="M 630.20435,563.58552 287.01568,674.69016"
       id="path50291" />
    <text
       xml:space="preserve"
       style="font-size:85.3333px;line-height:1.25;font-family:sans-serif"
       x="45.105312"
       y="743.8382"
       id="text55215"><tspan
         sodipodi:role="line"
         id="tspan55213"
         x="45.105312"
         y="743.8382">y2: 250 uA / cm2</tspan></text>
  </g>
  <g
     id="g64407">
    <path
       style="fill:none;stroke:#000000;stroke-width:1px;stroke-linecap:butt;stroke-linejoin:miter;stroke-opacity:1"
       d="M 630.20435,1709.3158 296.85414,1659.9035"
       id="path50293" />
    <text
       xml:space="preserve"
       style="font-size:85.3333px;line-height:1.25;font-family:sans-serif"
       x="94.297646"
       y="1630.2999"
       id="text57331"><tspan
         sodipodi:role="line"
         id="tspan57329"
         x="94.297646"
         y="1630.2999">y1: -150 uA / cm2</tspan></text>
  </g>
  <g
     id="g64412">
    <path
       style="fill:none;stroke:#000000;stroke-width:1px;stroke-linecap:butt;stroke-linejoin:miter;stroke-opacity:1"
       d="m 630.20435,1874.7303 -192.57338,66.6628"
       id="path53207" />
    <text
       xml:space="preserve"
       style="font-size:85.3333px;line-height:1.25;font-family:sans-serif"
       x="111.65964"
       y="2000.6732"
       id="text59633"><tspan
         sodipodi:role="line"
         id="tspan59631"
         x="111.65964"
         y="2000.6732">x1: 0 V vs RHE</tspan></text>
  </g>
  <g
     id="g64417">
    <path
       style="fill:none;stroke:#000000;stroke-width:1px;stroke-linecap:butt;stroke-linejoin:miter;stroke-opacity:1"
       d="m 2185.8384,1874.7303 98.6739,74.082"
       id="path53209" />
    <text
       xml:space="preserve"
       style="font-size:85.3333px;line-height:1.25;font-family:sans-serif"
       x="2151.259"
       y="1980.9009"
       id="text62529"><tspan
         sodipodi:role="line"
         id="tspan62527"
         x="2151.259"
         y="1980.9009">x2: 1.6 V vs RHE</tspan></text>
  </g>
  <text
     xml:space="preserve"
     style="font-size:85.3333px;line-height:1.25;font-family:sans-serif"
     x="1432.3934"
     y="706.23914"
     id="text67447"><tspan
       sodipodi:role="line"
       id="tspan67445"
       x="1432.3934"
       y="706.23914">scan rate: 50 mV / s</tspan></text>
  <g
     id="g75221">
    <text
       xml:space="preserve"
       style="font-size:85.3333px;line-height:1.25;font-family:sans-serif"
       x="730.57074"
       y="451.32327"
       id="text66543"><tspan
         sodipodi:role="line"
         id="tspan66541"
         x="730.57074"
         y="451.32327">curve: Pt_(111)_0.022M_HClO4</tspan></text>
    <path
       style="fill:none;stroke:#000000;stroke-width:1px;stroke-linecap:butt;stroke-linejoin:miter;stroke-opacity:1"
       d="m 691.67611,1238.6325 c 0,0 1.71503,-21.3573 6.14906,-30.8645 2.23136,-4.7843 5.36778,-9.6642 9.9108,-12.353 6.11041,-3.6165 13.90551,-3.0738 20.97905,-3.6914 14.34143,-1.2521 28.80115,0.5138 43.18797,0 17.32276,-0.6186 34.54618,-3.0909 51.86894,-3.7095 11.51909,-0.4114 23.06721,-0.575 34.57929,0 12.3926,0.619 24.64627,3.0905 37.03887,3.7095 3.68484,0.1841 7.49544,-0.9201 11.06829,0 13.20138,3.3998 24.46112,12.2003 35.80912,19.754 12.68159,8.4413 23.03384,20.0986 35.80912,28.3975 8.19184,5.3215 16.75978,10.3239 25.97058,13.5774 17.8079,6.2902 36.7641,9.2497 55.5584,11.1105 7.3669,0.7294 14.8147,-0.3594 22.2089,0 16.9396,0.8233 33.7178,3.7947 50.6391,4.9339 11.0751,0.7456 22.1771,1.2501 33.2772,1.2426 10.7145,-0.01 21.6389,0.9835 32.1196,-1.2426 10.8453,-2.3036 21.2518,-6.8546 30.8899,-12.3348 13.5241,-7.6897 24.4797,-19.216 37.0389,-28.3975 9.2998,-6.7987 18.4544,-13.8692 28.3579,-19.754 7.1162,-4.2285 14.3166,-8.6141 22.2089,-11.1104 7.9509,-2.5149 16.499,-2.4395 24.7408,-3.7096 7.8179,-1.2047 15.5529,-3.0894 23.4387,-3.7096 3.7021,-0.2912 7.6498,1.2667 11.1406,0 6.0267,-2.187 11.1102,-7.0622 14.7577,-12.3348 5.7038,-8.2451 7.7772,-18.6014 9.9108,-28.3975 2.8148,-12.9236 2.6718,-26.3205 3.6894,-39.5079 1.5545,-20.1457 2.8291,-40.3172 3.6895,-60.5045 0.7187,-16.8625 1.2297,-50.61846 1.2297,-50.61846 0,0 3.2912,73.25526 4.9916,109.88036 1.204,25.9317 0.4572,52.0339 3.6895,77.7915 1.7784,14.1717 4.8966,28.1828 8.6086,41.9749 2.0304,7.5439 2.5827,16.1111 7.4512,22.2209 5.4072,6.7859 13.9664,10.8666 22.2089,13.5775 9.0134,2.9645 18.8785,2.0554 28.3579,2.467 12.3347,0.5355 24.7004,0.4396 37.0389,0 11.5484,-0.4114 23.2816,-0.038 34.5792,-2.467 8.1633,-1.755 16.1534,-4.6957 23.5111,-8.6435 6.7449,-3.619 14.0138,-7.3895 18.5195,-13.5774 9.9551,-13.6717 12.1295,-31.6853 15.9874,-48.1515 4.74,-20.2309 6.0913,-41.1121 8.6811,-61.7289 2.7872,-22.1883 4.9046,-44.4557 7.3788,-66.6811 2.0616,-18.5188 4.4986,-36.9989 6.2214,-55.5523 1.0301,-11.09295 -2.1723,-23.19924 2.4596,-33.33138 0.9656,-2.11216 2.6548,-5.44993 4.9192,-4.93392 9.7751,2.22761 7.3313,18.70926 9.9108,28.3975 5.1703,19.419 7.437,39.4972 11.0683,59.2619 5.4405,29.612 7.1559,60.1228 16.0599,88.8837 3.8679,12.4936 8.4865,25.1356 16.0598,35.7984 5.8993,8.3058 12.846,16.981 22.2089,20.9966 7.1904,3.0839 15.7198,2.5202 23.4386,1.2426 6.5609,-1.086 12.0955,-5.7002 18.5196,-7.4192 8.4475,-2.2604 17.3003,-2.5712 25.9706,-3.7095 10.2579,-1.3468 20.5809,-2.1911 30.8175,-3.6914 9.5167,-1.3948 19.3395,-1.7918 28.4302,-4.9339 11.4917,-3.972 22.1434,-10.3367 32.1198,-17.287 15.3077,-10.6645 28.094,-24.5572 41.958,-37.041 9.9511,-8.9604 18.0478,-20.3802 29.5877,-27.1731 4.4897,-2.6428 9.6428,-4.451 14.8301,-4.9339 9.1113,-0.8481 18.3016,1.5771 27.2004,3.7096 9.733,2.3324 19.1731,5.8914 28.3579,9.8678 8.9671,3.8821 16.6614,10.6264 25.9707,13.5957 8.6945,2.7732 18.0229,3.0747 27.1281,3.6913 9.0461,0.6126 18.4442,2.353 27.2004,0 8.7198,-2.3432 23.4388,-13.5774 23.4388,-13.5774 0,0 1.0892,29.8048 -1.2299,44.4418 -2.2826,14.4069 -7.5926,28.193 -12.3704,41.9749 -4.3564,12.5661 -6.8813,26.3778 -14.83,37.041 -7.5229,10.0919 -18.5518,17.4096 -29.5877,23.4636 -9.9326,5.4488 -21.136,8.3347 -32.1197,11.1104 -19.8042,5.0048 -40.2122,7.3233 -60.4776,9.8862 -36.4858,4.6142 -73.2533,6.6315 -109.887,9.8678 -37.8539,3.3441 -75.705,6.7255 -113.5762,9.8679 -31.2659,2.5944 -62.8191,2.6458 -93.8272,7.4192 -27.1486,4.1792 -54.3026,9.6404 -80.2992,18.5113 -15.8509,5.4088 -31.432,12.1407 -45.6475,20.9966 -19.3699,12.0669 -37.7456,26.3331 -53.0987,43.2175 -13.9748,15.3686 -24.3477,33.765 -34.5793,51.8427 -12.3335,21.7914 -23.2344,44.4954 -32.1197,67.9055 -6.2366,16.4315 -9.5196,33.8419 -14.7577,50.6184 -6.594,21.1193 -12.7036,42.4527 -20.9791,62.9715 -3.582,8.8816 -6.088,18.7025 -12.3704,25.9305 -1.9542,2.2483 -4.5553,4.2358 -7.4512,4.9339 -3.6092,0.87 -8.193,1.1061 -11.0682,-1.2426 -10.3815,-8.4806 -8.3936,-25.4637 -12.3705,-38.2653 -7.2617,-23.3757 -14.1214,-46.875 -20.9791,-70.3724 -6.7158,-23.011 -11.0638,-46.8058 -19.7492,-69.148 -6.6663,-17.1482 -13.9069,-34.4531 -24.6685,-49.3758 -3.7469,-5.1957 -8.2923,-9.9912 -13.6002,-13.5775 -2.6074,-1.7617 -5.544,-3.4619 -8.681,-3.7096 -5.0565,-0.3992 -10.2122,1.4587 -14.7577,3.7096 -4.7269,2.3408 -7.2736,8.5095 -12.3704,9.8679 -5.2334,1.3948 -11.2285,-0.019 -16.0598,-2.467 -8.3057,-4.2083 -12.6001,-13.7888 -19.7493,-19.754 -4.9981,-4.1704 -11.5751,-6.3923 -16.0599,-11.1104 -7.0047,-7.369 -11.4482,-16.8696 -16.0598,-25.9306 -4.4336,-8.7113 -6.9633,-18.2839 -11.0683,-27.1548 -4.8706,-10.5252 -7.462,-23.081 -16.0598,-30.8644 -8.2211,-7.4424 -20.1479,-9.5989 -30.8899,-12.3531 -16.4488,-4.2174 -33.5883,-6.4593 -50.5668,-6.1766 -13.3481,0.2222 -27.2115,1.1299 -39.5708,6.1766 -16.38132,6.689 -30.16265,18.8881 -43.18797,30.8644 -7.94964,7.3094 -10.79477,21.0958 -20.97909,24.6879 -8.28763,2.9232 -17.13122,-4.3277 -25.89832,-4.9339 -8.23767,-0.5696 -16.75445,-0.8553 -24.74083,1.2426 -12.46368,3.2741 -23.32265,11.0139 -34.57926,17.287 -14.35906,8.002 -28.94735,15.8657 -41.95813,25.9123 -9.44325,7.2918 -19.09118,14.9077 -25.89832,24.7061 -7.15154,10.2942 -10.42661,22.8201 -14.83003,34.5557 -4.7113,12.5561 -12.37042,38.2837 -12.37042,38.2837 0,0 -7.71421,-36.1467 -14.83003,-53.0854 -3.49659,-8.3234 -5.94652,-18.5618 -13.52787,-23.4636 -3.48015,-2.2501 -8.46686,-2.6343 -12.37041,-1.2426 -6.58275,2.3469 -9.89303,9.8737 -14.83004,14.8201 -2.05232,2.0562 -6.14905,6.1765 -6.14905,6.1765"
       id="path74195"
       sodipodi:nodetypes="cssssssssssssssssssssssssssscssssssssssssssssssssssssssssssssssscsssssssssssssssssssssssssssssssssssssssssssscssssc" />
  </g>
  <text
     xml:space="preserve"
     style="font-size:85.33329773px;line-height:1.25;font-family:sans-serif"
     x="109.80683"
     y="230.96278"
     id="text25"><tspan
       sodipodi:role="line"
       id="tspan23"
       x="109.80683"
       y="230.96278">comment: Focus on Pt oxidation, surface defects (at steps), and sulfate vs. perchlorate adsorption.</tspan></text>
</svg>
