<?xml version="1.0" encoding="UTF-8" standalone="no"?>
<svg
   xmlns:dc="http://purl.org/dc/elements/1.1/"
   xmlns:cc="http://creativecommons.org/ns#"
   xmlns:rdf="http://www.w3.org/1999/02/22-rdf-syntax-ns#"
   xmlns:svg="http://www.w3.org/2000/svg"
   xmlns="http://www.w3.org/2000/svg"
   xmlns:xlink="http://www.w3.org/1999/xlink"
   xmlns:sodipodi="http://sodipodi.sourceforge.net/DTD/sodipodi-0.dtd"
   xmlns:inkscape="http://www.inkscape.org/namespaces/inkscape"
   height="6756px"
   version="1.1"
   width="5103px"
   id="svg233"
   sodipodi:docname="gomez-marin_2012_surface_558_f1_black.svg"
   inkscape:version="0.92.2 (5c3e80d, 2017-08-06)">
  <metadata
     id="metadata32">
    <rdf:RDF>
      <cc:Work
         rdf:about="">
        <dc:format>image/svg+xml</dc:format>
        <dc:type
           rdf:resource="http://purl.org/dc/dcmitype/StillImage" />
      </cc:Work>
    </rdf:RDF>
  </metadata>
  <sodipodi:namedview
     id="namedview235"
     pagecolor="#ffffff"
     bordercolor="#666666"
     borderopacity="1.0"
     inkscape:pageshadow="2"
     inkscape:pageopacity="0.0"
     inkscape:pagecheckerboard="0"
     showgrid="false"
     inkscape:zoom="0.57271882"
     inkscape:cx="4475.0012"
     inkscape:cy="4315.4201"
     inkscape:window-width="1920"
     inkscape:window-height="1027"
     inkscape:window-x="-8"
     inkscape:window-y="22"
     inkscape:window-maximized="1"
     inkscape:current-layer="svg233" />
  <defs
     id="defs229" />
  <image
     sodipodi:absref="E:\Github\echemdb\website\literature\gomez-marin_2012_surface_558\Gomez-Marin_2012_surface_558_p1.png"
     xlink:href="Gomez-Marin_2012_surface_558_p1.png"
     height="6756px"
     sodipodi:insensitive="true"
     width="5103px"
     x="0"
     y="0"
     id="image231" />
  <g
     id="g865">
    <path
       style="fill:none;stroke:#000000;stroke-width:1px;stroke-linecap:butt;stroke-linejoin:miter;stroke-opacity:1"
       d="m 4677.2036,1963.6247 202.4113,118.5238"
       id="path276"
       inkscape:connector-curvature="0" />
    <text
       xml:space="preserve"
       style="font-size:85.33329773px;line-height:1.25;font-family:sans-serif"
       x="4902.0449"
       y="2118.115"
       id="text10393"><tspan
         sodipodi:role="line"
         id="tspan10391"
         x="4902.0449"
         y="2118.115">E2: 0.9 V vs RHE</tspan></text>
  </g>
  <g
     id="g844">
    <path
       sodipodi:nodetypes="cc"
       style="fill:none;stroke:#000000;stroke-width:1px;stroke-linecap:butt;stroke-linejoin:miter;stroke-opacity:1"
       d="m 3111.6377,1963.6247 -57.7777,209.276"
       id="path274"
       inkscape:connector-curvature="0" />
    <text
       xml:space="preserve"
       style="font-size:85.33329773px;line-height:1.25;font-family:sans-serif"
       x="2346.0459"
       y="2201.4395"
       id="text12551"><tspan
         sodipodi:role="line"
         id="tspan12549"
         x="2346.0459"
         y="2201.4395">E1: 0.1 V vs RHE</tspan></text>
  </g>
  <g
     id="g27547">
    <path
       style="fill:none;stroke:#000000;stroke-width:1px;stroke-linecap:butt;stroke-linejoin:miter;stroke-opacity:1"
       d="m 2970.8612,1911.7637 -122.7838,3.2757"
       id="path272"
       inkscape:connector-curvature="0"
       sodipodi:nodetypes="cc" />
    <text
       xml:space="preserve"
       style="font-size:85.33329773px;line-height:1.25;font-family:sans-serif"
       x="2114.5393"
       y="1946.925"
       id="text14271"><tspan
         sodipodi:role="line"
         id="tspan14269"
         x="2114.5393"
         y="1946.925">j1: -125 uA / cm2</tspan></text>
  </g>
  <g
     id="g857">
    <path
       style="fill:none;stroke:#000000;stroke-width:1px;stroke-linecap:butt;stroke-linejoin:miter;stroke-opacity:1"
       d="m 2973.3208,649.99476 -180.2756,88.92028"
       id="path270"
       inkscape:connector-curvature="0" />
    <text
       xml:space="preserve"
       style="font-size:85.33329773px;line-height:1.25;font-family:sans-serif"
       x="2098.033"
       y="760.99249"
       id="text18949"><tspan
         sodipodi:role="line"
         id="tspan18947"
         x="2098.033"
         y="760.99249">j2: 125 uA / cm2</tspan></text>
  </g>
  <text
     xml:space="preserve"
     style="font-size:85.3333px;line-height:1.25;font-family:sans-serif"
     x="3353.8955"
     y="1872.8066"
     id="text32401"><tspan
       sodipodi:role="line"
       id="tspan32399"
       x="3353.8955"
       y="1872.8066">scan rate: 50 mV / s</tspan></text>
  <text
     xml:space="preserve"
     style="font-size:85.33329773px;line-height:1.25;font-family:sans-serif"
     x="3353.8955"
     y="2490.1311"
     id="text25"><tspan
       sodipodi:role="line"
       id="tspan23"
       x="3353.8955"
       y="2490.1311">comment: Focus on Pt oxidation, surface defects (at steps), and sulfate vs. perchlorate adsorption.</tspan></text>
  <g
     id="g34553">
    <text
       xml:space="preserve"
       style="font-size:85.58039856px;line-height:1.25;font-family:sans-serif;stroke-width:1.0029"
       x="3446.5271"
       y="477.21753"
       id="text1306"><tspan
         sodipodi:role="line"
         id="tspan1304"
         x="3446.5271"
         y="477.21753"
         style="stroke-width:1.0029">curve: Pt_(111)_0.1M_HClO4</tspan></text>
    <path
       style="fill:none;stroke:#000000;stroke-width:1px;stroke-linecap:butt;stroke-linejoin:miter;stroke-opacity:1"
       d="m 3027.9259,1526.4366 6.957,-169.3495 1.7392,-144.9278 7.0593,-27.9364 8.6957,-22.6902 15.6532,-19.2014 29.7712,-8.7349 54.1201,-1.7573 73.2513,-3.4888 118.7779,-3.4889 66.2948,-1.7573 47.1632,7.0035 50.6416,13.9552 45.4244,24.4475 57.5981,34.914 40.2067,22.716 33.1473,13.9553 55.8594,10.4664 59.3378,3.5146 76.8321,5.2204 57.5986,3.4888 82.1521,-8.7092 52.3808,-12.2237 57.5986,-22.716 59.3378,-22.6902 64.5556,-22.6902 117.0383,-20.9587 43.6851,-12.2238 24.3489,-22.6902 17.4942,-26.2049 10.5377,-40.16 10.4355,-69.82794 3.478,-62.85029 6.957,-85.56636 7.0592,66.3391 3.4785,52.38386 5.2177,87.29783 6.9565,82.0775 14.0162,62.8503 15.6527,36.6713 12.277,19.2014 50.6416,17.4698 55.8594,5.2204 22.712,-1.7316 -5.3201,24.4476 -33.1469,5.2203 -55.8594,8.735 -38.3651,19.2014 -19.2335,20.9586 -14.0162,27.9364 -6.9569,40.1601 -5.2173,55.8727 -8.6962,87.2977 -7.0592,90.7867 -3.4785,89.0551 -5.2173,59.3615 -3.4785,-104.7677 -3.4784,-90.7866 -1.7393,-48.895 -7.0592,-29.6679 -3.4785,-27.9364 -10.435,-20.9586 -17.4947,-26.1791 -24.4512,-19.2272 -38.3651,-15.7126 -43.6847,-6.9776 -52.3808,-6.9776 -43.6852,-10.4664 -34.8861,-8.735 -59.3379,-24.4475 -41.9458,-19.2014 -36.6255,-12.2238 -43.6851,-6.9776 -50.6416,-1.7573 h -59.3379 l -69.8751,-1.7573 h -41.8435 l -38.467,5.2462 -47.0613,3.4888 -34.9889,12.2237 -45.3217,15.7126 -36.7281,31.4251 -48.9024,29.6937 -45.3216,15.7126 -41.9459,13.9552 -41.9455,7.0034 h -54.1201 -73.354 l -82.0498,-3.4888 -69.7728,-1.7573 -40.2066,1.7573 -17.392,6.9777 -22.712,19.2014 -14.0162,26.179 z"
       id="path34468"
       inkscape:connector-curvature="0" />
  </g>
</svg>
