<?xml version="1.0" encoding="UTF-8" standalone="no"?>
<svg
   xmlns:dc="http://purl.org/dc/elements/1.1/"
   xmlns:cc="http://creativecommons.org/ns#"
   xmlns:rdf="http://www.w3.org/1999/02/22-rdf-syntax-ns#"
   xmlns:svg="http://www.w3.org/2000/svg"
   xmlns="http://www.w3.org/2000/svg"
   xmlns:xlink="http://www.w3.org/1999/xlink"
   xmlns:sodipodi="http://sodipodi.sourceforge.net/DTD/sodipodi-0.dtd"
   xmlns:inkscape="http://www.inkscape.org/namespaces/inkscape"
   height="6756px"
   version="1.1"
   width="5103px"
   id="svg233"
   sodipodi:docname="gomez-marin_2012_surface_558_p1_f1_blue.svg"
   inkscape:version="0.92.2 (5c3e80d, 2017-08-06)">
  <metadata
     id="metadata32">
    <rdf:RDF>
      <cc:Work
         rdf:about="">
        <dc:format>image/svg+xml</dc:format>
        <dc:type
           rdf:resource="http://purl.org/dc/dcmitype/StillImage" />
      </cc:Work>
    </rdf:RDF>
  </metadata>
  <sodipodi:namedview
     id="namedview235"
     pagecolor="#ffffff"
     bordercolor="#666666"
     borderopacity="1.0"
     inkscape:pageshadow="2"
     inkscape:pageopacity="0.0"
     inkscape:pagecheckerboard="0"
     showgrid="false"
     inkscape:zoom="0.40497336"
     inkscape:cx="3737.3933"
     inkscape:cy="4431.093"
     inkscape:window-width="1920"
     inkscape:window-height="1027"
     inkscape:window-x="-8"
     inkscape:window-y="22"
     inkscape:window-maximized="1"
     inkscape:current-layer="svg233" />
  <defs
     id="defs229" />
  <image
     sodipodi:absref="E:\Github\echemdb\website\literature\gomez-marin_2012_surface_558\Gomez-Marin_2012_surface_558_p1.png"
     xlink:href="Gomez-Marin_2012_surface_558_p1.png"
     height="6756px"
     sodipodi:insensitive="true"
     width="5103px"
     x="0"
     y="0"
     id="image231" />
  <g
     id="g866">
    <path
       style="fill:none;stroke:#000000;stroke-width:1px;stroke-linecap:butt;stroke-linejoin:miter;stroke-opacity:1"
       d="m 4677.2036,1963.6247 202.4113,118.5238"
       id="path276"
       inkscape:connector-curvature="0" />
    <text
       xml:space="preserve"
       style="font-size:85.33329773px;line-height:1.25;font-family:sans-serif"
       x="4877.3467"
       y="2111.8328"
       id="text10393"><tspan
         sodipodi:role="line"
         id="tspan10391"
         x="4877.3467"
         y="2111.8328">E2: 0.9 V vs RHE</tspan></text>
  </g>
  <g
     id="g858">
    <path
       style="fill:none;stroke:#000000;stroke-width:1px;stroke-linecap:butt;stroke-linejoin:miter;stroke-opacity:1"
       d="m 3111.6377,1963.6247 -125.8739,148.164"
       id="path274"
       inkscape:connector-curvature="0" />
    <text
       xml:space="preserve"
       style="font-size:85.33329773px;line-height:1.25;font-family:sans-serif"
       x="2282.4609"
       y="2144.4187"
       id="text12551"><tspan
         sodipodi:role="line"
         id="tspan12549"
         x="2282.4609"
         y="2144.4187">E1: 0.1 V vs RHE</tspan></text>
  </g>
  <g
     id="g850">
    <path
       style="fill:none;stroke:#000000;stroke-width:1px;stroke-linecap:butt;stroke-linejoin:miter;stroke-opacity:1"
       d="m 2970.8612,1911.7637 -234.5315,46.9271"
       id="path272"
       inkscape:connector-curvature="0" />
    <text
       xml:space="preserve"
       style="font-size:85.33329773px;line-height:1.25;font-family:sans-serif"
       x="2000.9515"
       y="1991.3724"
       id="text14271"><tspan
         sodipodi:role="line"
         id="tspan14269"
         x="2000.9515"
         y="1991.3724">j1: -125 uA / cm2</tspan></text>
  </g>
  <g
     id="g842">
    <path
       style="fill:none;stroke:#000000;stroke-width:1px;stroke-linecap:butt;stroke-linejoin:miter;stroke-opacity:1"
       d="m 2973.3208,649.99476 -180.2756,88.92028"
       id="path270"
       inkscape:connector-curvature="0" />
    <text
       xml:space="preserve"
       style="font-size:85.33329773px;line-height:1.25;font-family:sans-serif"
       x="2079.8879"
       y="774.04089"
       id="text18949"><tspan
         sodipodi:role="line"
         id="tspan18947"
         x="2079.8879"
         y="774.04089">j2: 125 uA / cm2</tspan></text>
  </g>
  <text
     xml:space="preserve"
     style="font-size:85.3333px;line-height:1.25;font-family:sans-serif"
     x="3353.8955"
     y="1872.8066"
     id="text32401"><tspan
       sodipodi:role="line"
       id="tspan32399"
       x="3353.8955"
       y="1872.8066">scan rate: 50 mV / s</tspan></text>
  <text
     xml:space="preserve"
     style="font-size:85.33329773px;line-height:1.25;font-family:sans-serif"
     x="3294.6323"
     y="2386.4207"
     id="text25"><tspan
       sodipodi:role="line"
       id="tspan23"
       x="3294.6323"
       y="2386.4207">comment: Focus on Pt oxidation, surface defects (at steps), and sulfate vs. perchlorate adsorption.</tspan></text>
  <g
     id="g50118">
    <path
       style="fill:none;stroke:#000000;stroke-width:1px;stroke-linecap:butt;stroke-linejoin:miter;stroke-opacity:1"
       d="m 3026.3273,1581.8477 c 0,0 0.8199,-111.9331 1.2298,-167.8996 0.4099,-55.9665 0.047,-111.9441 1.2298,-167.8996 0.496,-23.4666 -0.326,-47.0665 2.4597,-70.3724 1.9448,-16.2711 4.7721,-32.5911 9.9106,-48.1515 2.1356,-6.4671 3.7129,-13.7952 8.6088,-18.5296 10.602,-10.2524 26.9816,-11.9447 40.7284,-17.287 19.5491,-7.5972 39.1226,-15.3262 59.3201,-20.9783 9.7024,-2.7151 19.5153,-6.414 29.5876,-6.1766 24.6505,0.5811 47.6675,12.6513 71.6183,18.5114 21.323,5.2172 42.9049,9.3593 64.1668,14.82 21.9674,5.6419 43.3752,13.4063 65.4693,18.5297 8.9535,2.0762 18.2069,7.1445 27.1282,4.9339 7.1127,-1.7625 12.8249,-7.7667 17.2896,-13.5774 7.6404,-9.9438 11.5763,-22.4634 14.83,-34.5741 8.066,-30.0224 7.8382,-61.6821 11.1405,-92.59326 4.2151,-39.45533 7.1665,-79.0363 11.0684,-118.52383 3.1331,-31.70691 9.9106,-95.06881 9.9106,-95.06881 0,0 3.7236,43.59678 4.9193,65.43844 1.3053,23.84395 1.5985,47.7326 2.4597,71.59672 1.1735,32.51726 1.5346,65.07854 3.6895,97.54554 2.0257,30.5203 4.2247,61.0896 8.6808,91.3507 3.3631,22.8384 5.544,46.2722 13.6004,67.9054 4.9522,13.2976 12.3908,25.7454 20.9791,37.041 8.4467,11.1094 18.2676,21.4595 29.5876,29.6218 14.1911,10.2325 30.2782,18.1579 46.9498,23.4636 25.7832,8.2055 53.2628,10.1074 80.2269,12.353 30.3534,2.5278 60.9094,1.4155 91.3673,1.2244 31.6957,-0.1988 63.3633,-2.0558 95.0569,-2.467 25.5103,-0.331 51.0352,0.7242 76.5374,0 36.2629,-1.0298 72.651,-1.7475 108.6572,-6.1765 17.4681,-2.1487 34.7594,-5.7427 51.8689,-9.8679 24.1845,-5.831 48.3987,-12.0666 71.6183,-20.9965 23.8851,-9.1858 46.1339,-22.1626 69.1585,-33.3315 16.8764,-8.1865 33.1086,-17.8292 50.5669,-24.6878 13.2044,-5.1874 27.6369,-6.8866 40.7281,-12.3532 15.1351,-6.3201 30.3522,-13.3262 43.2603,-23.4452 14.4462,-11.3248 23.6953,-28.1454 37.0389,-40.7506 8.076,-7.6291 15.7846,-16.381 25.8984,-20.9783 8.7572,-3.9807 18.8205,-4.523 28.4304,-4.9522 9.8869,-0.4416 20.7102,-1.9077 29.5876,2.467 5.496,2.7084 8.2736,9.0398 12.3706,13.5957 6.6262,7.3684 13.4416,14.578 19.7492,22.2209 5.6056,6.7922 13.2337,12.6375 16.0598,20.9783 6.0753,17.9304 0,37.8633 0,56.795 0,69.9643 14.7184,141.4942 0,209.8928 -1.8993,8.8264 -7.3494,16.4941 -11.1408,24.6879 -4.0173,8.6819 -7.3516,17.7422 -12.2979,25.9305 -4.2573,7.0476 -7.0245,17.1331 -14.83,19.7539 -5.6831,1.9082 -11.9337,-2.2589 -17.2896,-4.9521 -7.8653,-3.955 -13.3641,-11.6266 -20.9791,-16.0444 -7.3325,-4.2539 -14.9944,-9.1236 -23.4387,-9.8679 -9.2604,-0.8163 -18.8487,2.0757 -27.2006,6.1583 -10.5049,5.1351 -18.4601,14.3912 -27.1279,22.2392 -5.6094,5.0789 -8.6474,14.5234 -16.0601,16.0444 -8.6996,1.7851 -16.9983,-5.5355 -24.7406,-9.8861 -8.9625,-5.0363 -15.691,-13.502 -24.6686,-18.5114 -10.8136,-6.0338 -24.4436,-6.4632 -34.5792,-13.5774 -14.8008,-10.3887 -23.1213,-27.8663 -35.8093,-40.7506 -12.4678,-12.6607 -24.4144,-26.4065 -39.4986,-35.7984 -21.8005,-13.5737 -46.9287,-21.3303 -71.618,-28.3974 -22.103,-6.3267 -45.0952,-9.115 -67.8566,-12.3531 -27.8635,-3.9639 -55.9505,-6.2019 -83.9884,-8.6435 -28.7563,-2.5042 -57.5672,-4.357 -86.376,-6.1583 -38.2734,-2.3931 -76.5322,-5.7957 -114.8784,-6.1765 -24.2954,-0.2413 -48.5898,1.1023 -72.848,2.467 -36.6601,2.0625 -74.1616,-0.1359 -109.8147,8.6434 -15.2299,3.7502 -29.6804,10.6629 -43.2604,18.5114 -14.2519,8.2369 -28.5094,17.3844 -39.4985,29.6401 -8.6214,9.6151 -14.2838,21.6306 -19.7492,33.3314 -9.4195,20.1662 -17.2093,41.2826 -22.2089,62.9715 -4.093,17.756 -4.6708,36.1542 -6.2212,54.3097 -1.8589,21.7683 -2.2589,43.6379 -3.6895,65.4385 -2.6265,40.0257 -6.022,79.9973 -8.9845,119.9995 -2.0688,27.9347 -6.1385,83.809 -6.1385,83.809 0,0 -5.3925,-52.9443 -7.8263,-79.4415 -3.7664,-41.0061 -5.679,-82.1932 -10.4864,-123.0904 -2.7483,-23.3803 -4.93,-46.9648 -10.4864,-69.8409 -3.628,-14.9367 -5.0544,-31.8035 -14.8344,-43.6618 -5.9724,-7.2415 -15.3006,-11.8773 -24.4514,-13.9682 -12.2308,-2.7946 -25.1367,0.7791 -37.5464,2.6231 -14.1713,2.1057 -28.1258,5.6411 -41.8946,9.6007 -13.6198,3.9167 -26.7095,9.4904 -40.1552,13.9682 -19.1166,6.3664 -38.1659,13.0114 -57.5986,18.3356 -11.2399,3.0795 -22.4888,6.5385 -34.0682,7.8563 -8.9621,1.02 -18.1666,1.5058 -27.06,0 -13.0682,-2.2126 -24.6205,-10.1578 -37.5464,-13.0895 -10.2729,-2.33 -20.9646,-4.8644 -31.4082,-3.4888 -7.133,0.9395 -13.9981,4.0496 -20.1031,7.8563 -8.0323,5.0084 -15.4818,11.4549 -20.9218,19.2013 -7.7949,11.0996 -12.0294,24.4812 -15.7041,37.5371 -3.4846,12.3806 -5.861,38.1373 -5.861,38.1373 z"
       id="path36934"
       sodipodi:nodetypes="csssssssssssssssscsssssssssssssssssssssssssssssssssssssssssssssssssssssssscssssssssssssssssc" />
    <text
       xml:space="preserve"
       style="font-size:85.3333px;line-height:1.25;font-family:sans-serif"
       x="3695.1521"
       y="503.68719"
       id="text48527"><tspan
         sodipodi:role="line"
         id="tspan48525"
         x="3695.1521"
         y="503.68719">curve: Pt_(544)_0.1M_HClO4</tspan></text>
  </g>
</svg>
