<?xml version="1.0" encoding="UTF-8" standalone="no"?>
<svg
   height="6756px"
   version="1.1"
   width="5103px"
   id="svg233"
   sodipodi:docname="gomez-marin_2012_surface_558_f1_black.svg"
   inkscape:version="1.1.2 (b8e25be833, 2022-02-05)"
   xmlns:inkscape="http://www.inkscape.org/namespaces/inkscape"
   xmlns:sodipodi="http://sodipodi.sourceforge.net/DTD/sodipodi-0.dtd"
   xmlns:xlink="http://www.w3.org/1999/xlink"
   xmlns="http://www.w3.org/2000/svg"
   xmlns:svg="http://www.w3.org/2000/svg"
   xmlns:rdf="http://www.w3.org/1999/02/22-rdf-syntax-ns#"
   xmlns:cc="http://creativecommons.org/ns#"
   xmlns:dc="http://purl.org/dc/elements/1.1/">
  <metadata
     id="metadata32">
    <rdf:RDF>
      <cc:Work
         rdf:about="">
        <dc:format>image/svg+xml</dc:format>
        <dc:type
           rdf:resource="http://purl.org/dc/dcmitype/StillImage" />
      </cc:Work>
    </rdf:RDF>
  </metadata>
  <sodipodi:namedview
     id="namedview235"
     pagecolor="#ffffff"
     bordercolor="#666666"
     borderopacity="1.0"
     inkscape:pageshadow="2"
     inkscape:pageopacity="0.0"
     inkscape:pagecheckerboard="0"
     showgrid="false"
     inkscape:zoom="0.20248668"
     inkscape:cx="2597.7017"
     inkscape:cy="1733.4474"
     inkscape:window-width="1920"
     inkscape:window-height="1017"
     inkscape:window-x="-8"
     inkscape:window-y="32"
     inkscape:window-maximized="1"
     inkscape:current-layer="svg233" />
  <defs
     id="defs229" />
  <image
     xlink:href="gomez-marin_2012_surface_558_p1.png"
     height="6756px"
     sodipodi:insensitive="true"
     width="5103px"
     x="0"
     y="0"
     id="image231" />
  <g
     id="g865">
    <path
       style="fill:none;stroke:#000000;stroke-width:1px;stroke-linecap:butt;stroke-linejoin:miter;stroke-opacity:1"
       d="m 4677.2036,1963.6247 202.4113,118.5238"
       id="path276"
       inkscape:connector-curvature="0" />
    <text
       xml:space="preserve"
       style="font-size:85.3333px;line-height:1.25;font-family:sans-serif"
       x="4902.0449"
       y="2118.115"
       id="text10393"><tspan
         sodipodi:role="line"
         id="tspan10391"
         x="4902.0449"
         y="2118.115">E2: 0.9 V vs RHE</tspan></text>
  </g>
  <g
     id="g844">
    <path
       sodipodi:nodetypes="cc"
       style="fill:none;stroke:#000000;stroke-width:1px;stroke-linecap:butt;stroke-linejoin:miter;stroke-opacity:1"
       d="m 3111.6377,1963.6247 -57.7777,209.276"
       id="path274"
       inkscape:connector-curvature="0" />
    <text
       xml:space="preserve"
       style="font-size:85.3333px;line-height:1.25;font-family:sans-serif"
       x="2346.0459"
       y="2201.4395"
       id="text12551"><tspan
         sodipodi:role="line"
         id="tspan12549"
         x="2346.0459"
         y="2201.4395">E1: 0.1 V vs RHE</tspan></text>
  </g>
  <g
     id="g27547">
    <path
       style="fill:none;stroke:#000000;stroke-width:1px;stroke-linecap:butt;stroke-linejoin:miter;stroke-opacity:1"
       d="m 2970.8612,1911.7637 -122.7838,3.2757"
       id="path272"
       inkscape:connector-curvature="0"
       sodipodi:nodetypes="cc" />
    <text
       xml:space="preserve"
       style="font-size:85.3333px;line-height:1.25;font-family:sans-serif"
       x="2114.5393"
       y="1946.925"
       id="text14271"><tspan
         sodipodi:role="line"
         id="tspan14269"
         x="2114.5393"
         y="1946.925">j1: -125 uA / cm2</tspan></text>
  </g>
  <g
     id="g857">
    <path
       style="fill:none;stroke:#000000;stroke-width:1px;stroke-linecap:butt;stroke-linejoin:miter;stroke-opacity:1"
       d="m 2973.3208,649.99476 -180.2756,88.92028"
       id="path270"
       inkscape:connector-curvature="0" />
    <text
       xml:space="preserve"
       style="font-size:85.3333px;line-height:1.25;font-family:sans-serif"
       x="2098.033"
       y="760.99249"
       id="text18949"><tspan
         sodipodi:role="line"
         id="tspan18947"
         x="2098.033"
         y="760.99249">j2: 125 uA / cm2</tspan></text>
  </g>
  <text
     xml:space="preserve"
     style="font-size:85.3333px;line-height:1.25;font-family:sans-serif"
     x="3353.8955"
     y="1872.8066"
     id="text32401"><tspan
       sodipodi:role="line"
       id="tspan32399"
       x="3353.8955"
       y="1872.8066">scan rate: 50 mV / s</tspan></text>
  <text
     xml:space="preserve"
     style="font-size:85.3333px;line-height:1.25;font-family:sans-serif"
     x="3353.8955"
     y="2490.1311"
     id="text25"><tspan
       sodipodi:role="line"
       id="tspan23"
       x="3353.8955"
       y="2490.1311">comment: Focus on Pt oxidation, surface defects (at steps), and sulfate vs. perchlorate adsorption.</tspan></text>
  <g
     id="g852">
    <text
       xml:space="preserve"
       style="font-size:85.5804px;line-height:1.25;font-family:sans-serif;stroke-width:1.0029"
       x="3446.5271"
       y="477.21753"
       id="text1306"><tspan
         sodipodi:role="line"
         id="tspan1304"
         x="3446.5271"
         y="477.21753"
         style="stroke-width:1.0029">curve: black</tspan></text>
    <path
       style="fill:none;stroke:#00ff00;stroke-width:1px;stroke-linecap:butt;stroke-linejoin:miter;stroke-opacity:1"
       d="m 3027.9259,1526.4366 c -3.881,-9.9469 1.6036,-114.6643 4.3379,-171.0956 2.6969,-55.6588 3.8784,-103.7078 9.0168,-171.1181 0.6795,-8.9151 8.2158,-14.1844 11.2327,-25.8549 4.2107,-16.2883 23.2234,-22.8798 45.2882,-24.7716 43.0018,-3.6869 88.6584,-6.5077 128.6809,-8.3017 72.6286,-3.2556 125.0451,-5.455 183.7632,-2.1906 74.7725,3.6379 141.6584,40.556 211.351,89.9408 57.4825,40.7326 117.3009,38.8613 179.7736,42.7778 75.7768,4.7504 165.2432,5.7198 214.8367,-1.7461 86.7201,-16.4124 156.7926,-59.5709 233.8728,-80.3201 38.3257,-10.0969 78.4326,-16.3217 117.4748,-23.1413 41.2295,-9.3282 68.8464,-23.5823 85.0917,-58.9363 11.2408,-29.4579 14.6292,-56.0451 21.1216,-86.8345 3.5696,-16.92806 0.052,-41.76737 4.2026,-83.82116 1.9502,-28.54971 6.1447,-93.49172 7.8301,-83.8203 12.0756,100.81831 7.4046,192.91336 20.9658,284.16966 1.9403,16.8522 1.3852,27.685 9.2145,46.2628 9.53,22.6131 2.3947,27.4858 11.7241,40.1634 9.5469,12.9731 12.8562,24.9777 24.9359,30.9873 30.8762,20.6679 68.7292,23.6404 102.5724,23.9997 7.5924,0.065 14.0162,-0.9105 24.8946,-1.2951 -0.3392,22.2566 -7.1904,25.0047 -12.1943,26.0121 -18.4754,3.7196 -66.1462,6.6492 -84.0964,12.3908 -49.9725,16.6742 -69.6904,47.409 -78.79,107.82 -2.7861,18.4966 -6.7708,34.6087 -8.2729,53.2536 -4.1673,51.7269 -10.0002,115.2524 -12.2633,151.8936 -3.302,53.463 -4.9962,184.4409 -10.4418,175.917 -7.0085,-86.2256 -3.3934,-133.5385 -5.6474,-194.2448 -0.6021,-16.2975 -1.5665,-27.3596 -2.1758,-43.6568 -0.4909,-13.1291 -5.2519,-22.2836 -7.0592,-32.287 -1.6684,-9.2345 -1.6419,-18.5156 -3.042,-30.5555 -0.9014,-7.752 -8.4587,-13.4087 -10.435,-20.9586 -3.5193,-13.4443 -10.3653,-18.4766 -17.4947,-26.1791 -29.2363,-34.8101 -71.4739,-37.3775 -106.501,-41.9174 -42.3199,-5.4851 -84.313,-8.7228 -126.587,-27.4885 -33.4867,-14.4366 -71.3892,-30.9854 -102.5932,-43.6489 -26.2349,-11.0173 -57.1312,-15.4123 -83.3662,-17.8919 -73.6588,-6.8134 -153.3585,-7.0365 -221.6981,-3.5146 -29.237,1.5068 -57.4845,3.6757 -84.6553,8.735 -24.2335,4.5123 -60.4317,16.7703 -77.255,28.8093 -43.4842,32.1156 -81.9825,59.6466 -130.5156,73.7758 -13.9525,4.7394 -28.0809,11.7148 -42.3824,15.2648 -13.7579,3.415 -29.5551,5.081 -43.6915,6.1303 -99.4378,7.3809 -195.6638,-3.4475 -281.4793,-3.5 -13.4144,0.1241 -30.2623,-0.1998 -46.3178,5.2494 -19.7747,6.7115 -20.7717,13.9961 -31.8102,24.4331 -17.6578,16.6954 -21.4165,61.1042 -21.4165,61.1042 z"
       id="path34468"
       inkscape:connector-curvature="0"
       sodipodi:nodetypes="cssssscssccccscccsscccscsssccsssscscccssccsscssc" />
  </g>
  <text
     xml:space="preserve"
     style="font-size:80px;line-height:1.25;font-family:sans-serif;-inkscape-font-specification:sans-serif;letter-spacing:0px;word-spacing:0px"
     x="5335.9517"
     y="942.87103"
     id="text3224"><tspan
       sodipodi:role="line"
       id="tspan3222"
       x="5335.9517"
       y="942.87103">Figure: 1</tspan></text>
  <text
     xml:space="preserve"
     style="font-size:80px;line-height:1.25;font-family:sans-serif;-inkscape-font-specification:sans-serif;letter-spacing:0px;word-spacing:0px"
     x="5363.8887"
     y="1110.4926"
     id="text6198"><tspan
       sodipodi:role="line"
       id="tspan6196"
       x="5363.8887"
       y="1110.4926">Tags: BCV</tspan></text>
</svg>
