<?xml version="1.0" encoding="UTF-8" standalone="no"?>
<svg
   height="6756px"
   version="1.1"
   width="5103px"
   id="svg233"
   sodipodi:docname="Gomez-Marin_2012_surface_558_p1_1_red.svg"
   inkscape:version="1.1.1 (eb90963e84, 2021-10-02)"
   xmlns:inkscape="http://www.inkscape.org/namespaces/inkscape"
   xmlns:sodipodi="http://sodipodi.sourceforge.net/DTD/sodipodi-0.dtd"
   xmlns:xlink="http://www.w3.org/1999/xlink"
   xmlns="http://www.w3.org/2000/svg"
   xmlns:svg="http://www.w3.org/2000/svg">
  <sodipodi:namedview
     id="namedview235"
     pagecolor="#ffffff"
     bordercolor="#666666"
     borderopacity="1.0"
     inkscape:pageshadow="2"
     inkscape:pageopacity="0.0"
     inkscape:pagecheckerboard="0"
     showgrid="false"
     inkscape:zoom="0.40497336"
     inkscape:cx="3837.2895"
     inkscape:cy="1113.6535"
     inkscape:window-width="1920"
     inkscape:window-height="933"
     inkscape:window-x="1920"
     inkscape:window-y="0"
     inkscape:window-maximized="1"
     inkscape:current-layer="g34882" />
  <defs
     id="defs229" />
  <image
     height="6756px"
     sodipodi:insensitive="true"
     width="5103px"
     x="0"
     xlink:href="Gomez-Marin_2012_surface_558_p1.png"
     y="0"
     id="image231" />
  <g
     id="g34433">
    <path
       style="fill:none;stroke:#000000;stroke-width:1px;stroke-linecap:butt;stroke-linejoin:miter;stroke-opacity:1"
       d="m 4677.2036,1963.6247 202.4113,118.5238"
       id="path276" />
    <text
       xml:space="preserve"
       style="font-size:85.3333px;line-height:1.25;font-family:sans-serif"
       x="4311.8774"
       y="2180.9731"
       id="text10393"><tspan
         sodipodi:role="line"
         id="tspan10391"
         x="4311.8774"
         y="2180.9731">x2: 0.9 V vs RHE</tspan></text>
  </g>
  <g
     id="g27552">
    <path
       style="fill:none;stroke:#000000;stroke-width:1px;stroke-linecap:butt;stroke-linejoin:miter;stroke-opacity:1"
       d="m 3111.6377,1963.6247 -125.8739,148.164"
       id="path274" />
    <text
       xml:space="preserve"
       style="font-size:85.3333px;line-height:1.25;font-family:sans-serif"
       x="2702.2417"
       y="2154.2959"
       id="text12551"><tspan
         sodipodi:role="line"
         id="tspan12549"
         x="2702.2417"
         y="2154.2959">x1: 0.1 V vs RHE</tspan></text>
  </g>
  <g
     id="g27547">
    <path
       style="fill:none;stroke:#000000;stroke-width:1px;stroke-linecap:butt;stroke-linejoin:miter;stroke-opacity:1"
       d="m 2970.8612,1911.7637 -234.5315,46.9271"
       id="path272" />
    <text
       xml:space="preserve"
       style="font-size:85.3333px;line-height:1.25;font-family:sans-serif"
       x="2114.5393"
       y="1946.925"
       id="text14271"><tspan
         sodipodi:role="line"
         id="tspan14269"
         x="2114.5393"
         y="1946.925">y1: -125 uA/cm2</tspan></text>
  </g>
  <g
     id="g27542">
    <path
       style="fill:none;stroke:#000000;stroke-width:1px;stroke-linecap:butt;stroke-linejoin:miter;stroke-opacity:1"
       d="m 2973.3208,649.99476 -180.2756,88.92028"
       id="path270" />
    <text
       xml:space="preserve"
       style="font-size:85.3333px;line-height:1.25;font-family:sans-serif"
       x="2356.4495"
       y="830.83478"
       id="text18949"><tspan
         sodipodi:role="line"
         id="tspan18947"
         x="2356.4495"
         y="830.83478">y2: 125 uA/cm2</tspan></text>
  </g>
  <text
     xml:space="preserve"
     style="font-size:85.3333px;line-height:1.25;font-family:sans-serif"
     x="3353.8955"
     y="1872.8066"
     id="text32401"><tspan
       sodipodi:role="line"
       id="tspan32399"
       x="3353.8955"
       y="1872.8066">scan rate: 50 mV/s</tspan></text>
  <g
     id="g34882">
    <text
       xml:space="preserve"
       style="font-size:85.5804px;line-height:1.25;font-family:sans-serif;stroke-width:1.0029"
       x="3446.5271"
       y="477.21753"
       id="text1306"><tspan
         sodipodi:role="line"
         id="tspan1304"
         x="3446.5271"
         y="477.21753"
         style="stroke-width:1.0029">curve: Pt_(554)_0.1M_HClO4</tspan></text>
    <path
       style="fill:none;stroke:#000000;stroke-width:1px;stroke-linecap:butt;stroke-linejoin:miter;stroke-opacity:1"
       d="m 3032.4472,1655.9293 c 0,0 -0.4822,-90.5432 0,-135.8109 0.627,-58.8577 3.1348,-117.6854 3.7618,-176.5431 0.5743,-53.9107 0,-107.8276 0,-161.7414 0,-36.6268 -7.1602,-73.9602 0,-109.8803 2.09,-10.4848 2.2254,-26.0387 12.2982,-29.6218 5.7278,-2.0375 11.182,5.0151 16.0598,8.6435 7.9349,5.9025 12.5251,15.847 20.9791,20.9783 7.0251,4.264 15.6192,9.7118 23.5108,7.4192 9.817,-2.852 15.3878,-14.2177 19.7493,-23.4636 11.6026,-24.5961 10.8601,-53.3256 14.7579,-80.2402 5.0421,-34.81547 8.6512,-69.8559 11.1404,-104.9464 3.2347,-45.59947 2.7753,-91.39016 4.9194,-137.05391 2.011,-42.82813 7.4513,-128.40995 7.4513,-128.40995 0,0 6.0282,41.06237 7.3786,61.74715 2.3323,35.72465 0.5006,71.60179 1.2298,107.39507 0.8554,41.99031 1.3765,84.00775 3.6895,125.94303 2.251,40.81007 3.9436,81.78094 9.9107,122.21511 2.2742,15.4104 4.0678,31.2156 9.8386,45.6845 4.1056,10.2937 9.2674,20.7516 17.2896,28.3975 7.4742,7.1237 17.3303,11.7884 27.2005,14.82 16.2121,4.9795 33.7883,3.0155 50.639,4.9339 18.967,2.1594 38.2795,2.728 56.7882,7.4009 23.4774,5.9274 46.0813,15.34 67.8566,25.9306 17.2715,8.4001 33.2565,19.2497 49.4091,29.64 25.6308,16.4873 48.5169,37.316 75.3076,51.8428 13.2976,7.2104 27.455,12.9892 41.9582,17.287 19.2654,5.7091 39.2867,8.8074 59.2478,11.1105 18.4156,2.1248 37.0293,1.9077 55.5586,2.4669 25.938,0.7827 51.8897,1.1949 77.8395,1.2427 33.7377,0.062 67.4686,-1.0356 101.2057,-1.2427 28.4056,-0.1744 56.8383,1.2136 85.2185,0 28.8711,-1.2346 57.6519,-4.2398 86.376,-7.4009 21.4764,-2.3635 43.146,-3.9645 64.2394,-8.6435 20.1998,-4.4808 40.242,-10.333 59.2478,-18.5114 14.7194,-6.3339 27.8514,-15.8619 41.9579,-23.4635 21.2368,-11.4439 42.1861,-23.5531 64.2394,-33.3314 14.0411,-6.2257 28.313,-12.2354 43.188,-16.0626 18.9352,-4.8718 38.5672,-6.6395 58.018,-8.6253 7.3762,-0.753 14.8976,-0.01 22.2089,-1.2426 14.7794,-2.4929 29.0506,-7.5089 43.2344,-12.3531 10.4922,-3.5834 21.5719,-6.3266 30.8901,-12.3348 12.4793,-8.0463 21.5276,-20.4583 32.1195,-30.8644 4.1448,-4.0721 6.7003,-10.7963 12.2983,-12.3531 4.9093,-1.3653 10.8113,0.5766 14.83,3.7096 5.5199,4.3033 6.6263,12.3306 9.9106,18.5113 7.859,14.7896 15.0115,29.9686 23.4388,44.4419 6.1459,10.5551 11.6967,21.6807 19.7492,30.8644 6.7363,7.6826 14.5282,14.754 23.4388,19.754 6.8067,3.8195 14.4543,6.5324 22.2089,7.4191 8.6396,0.9879 17.8019,0.5146 25.9707,-2.4669 6.1149,-2.2318 0,0 16.0598,-11.1105 0,0 -0.6291,25.5178 -1.2298,38.2654 -0.6407,13.5946 1.1191,27.6397 -2.532,40.7505 -2.6139,9.3865 -7.2932,18.4243 -13.5278,25.9122 -10.6915,12.8408 -27.4985,19.2372 -39.4985,30.8645 -11.5495,11.1907 -21.5346,23.9792 -30.8901,37.0596 -12.8941,18.0279 -24.5448,37.0319 -34.5792,56.7949 -5.8475,11.5167 -6.1695,26.2159 -14.83,35.7984 -4.0763,4.5102 -9.9941,8.2352 -16.0597,8.6434 -7.0164,0.4722 -13.7151,-3.8077 -19.7493,-7.4191 -11.2493,-6.7326 -18.0952,-19.604 -29.5879,-25.9122 -15.4179,-8.4627 -33.2804,-11.9908 -50.639,-14.8201 -21.1261,-3.4433 -42.8117,-1.0134 -64.1671,-2.4669 -16.9211,-1.1517 -34.1091,-1.1572 -50.6393,-4.9523 -19.668,-4.5155 -38.5677,-12.3043 -56.7881,-20.9783 -23.3316,-11.1073 -43.2276,-28.6987 -66.6988,-39.5079 -17.3777,-8.003 -35.5179,-15.0212 -54.3288,-18.5113 -31.5804,-5.8593 -64.3045,-0.743 -96.2866,-3.7096 -25.2658,-2.3436 -50.1206,-8.0337 -75.3076,-11.1105 -25.4429,-3.108 -50.9464,-5.9696 -76.5374,-7.4191 -24.6564,-1.3965 -49.4288,0.2983 -74.0777,-1.2244 -23.1411,-1.4296 -45.9854,-6.678 -69.1588,-7.4192 -28.8037,-0.9213 -57.6234,1.7576 -86.3757,3.7096 -17.7351,1.2041 -35.7582,1.025 -53.0989,4.934 -17.5342,3.9527 -34.3719,10.884 -50.639,18.5296 -25.8697,12.1588 -49.8288,28.0644 -74.0778,43.1992 -23.922,14.9307 -45.278,34.0955 -70.3885,46.9271 -23.0765,11.7922 -48.0089,19.7655 -72.8479,27.1549 -16.1577,4.8068 -32.658,8.6643 -49.3372,11.1105 -17.5549,2.5746 -36.253,-1.8607 -53.0986,3.7096 -11.6041,3.8371 -23.3298,10.1506 -30.8899,19.7539 -7.0024,8.8949 -8.1769,21.162 -11.0683,32.107 -4.5976,17.4038 -7.6757,35.2238 -9.9108,53.0854 -3.1748,25.3707 -3.584,51.014 -4.937,76.5468 -2.6157,49.3612 -4.0789,98.7768 -6.1488,148.1639 -1.2418,29.6284 -2.0437,59.2791 -3.7618,88.8837 -1.2913,22.25 -4.9193,66.6811 -4.9193,66.6811 0,0 -6.3215,-75.687 -8.6085,-113.5899 -2.2332,-37.011 -2.9511,-74.1008 -4.9916,-111.1229 -1.3844,-25.1175 -2.715,-50.2475 -4.9193,-75.3063 -1.6325,-18.5589 -3.5405,-37.1054 -6.1492,-55.5524 -2.0469,-14.4743 -3.137,-29.2502 -7.451,-43.2175 -3.2034,-10.3715 -7.1006,-20.8745 -13.5281,-29.6218 -3.2819,-4.4663 -6.9019,-10.2074 -12.3703,-11.1105 -6.1852,-1.0215 -12.4035,3.4733 -17.2896,7.4009 -5.5227,4.4393 -8.9836,11.0631 -12.3703,17.287 -6.9758,12.8197 -10.9371,27.0663 -16.0601,40.7323 -4.2936,11.4537 -9.0083,22.7926 -12.2979,34.574 -4.9707,17.802 -11.1697,54.3121 -11.1697,54.3121 z"
       id="path34797"
       sodipodi:nodetypes="csssssssssssscssssssssssssssssssssssssssssssssssssssssssssssssssssssssssssssssssssssssscsssssssssssc" />
  </g>
</svg>
