<?xml version="1.0" encoding="UTF-8" standalone="no"?>
<svg
   height="6756px"
   version="1.1"
   width="5103px"
   id="svg50254"
   sodipodi:docname="gomez-marin_2012_surface_558_f2_red.svg"
   inkscape:version="1.1.2 (b8e25be833, 2022-02-05)"
   xmlns:inkscape="http://www.inkscape.org/namespaces/inkscape"
   xmlns:sodipodi="http://sodipodi.sourceforge.net/DTD/sodipodi-0.dtd"
   xmlns:xlink="http://www.w3.org/1999/xlink"
   xmlns="http://www.w3.org/2000/svg"
   xmlns:svg="http://www.w3.org/2000/svg"
   xmlns:rdf="http://www.w3.org/1999/02/22-rdf-syntax-ns#"
   xmlns:cc="http://creativecommons.org/ns#"
   xmlns:dc="http://purl.org/dc/elements/1.1/">
  <metadata
     id="metadata28">
    <rdf:RDF>
      <cc:Work
         rdf:about="">
        <dc:format>image/svg+xml</dc:format>
        <dc:type
           rdf:resource="http://purl.org/dc/dcmitype/StillImage" />
      </cc:Work>
    </rdf:RDF>
  </metadata>
  <sodipodi:namedview
     id="namedview50256"
     pagecolor="#ffffff"
     bordercolor="#666666"
     borderopacity="1.0"
     inkscape:pageshadow="2"
     inkscape:pageopacity="0.0"
     inkscape:pagecheckerboard="0"
     showgrid="false"
     inkscape:zoom="0.57271882"
     inkscape:cx="874.77482"
     inkscape:cy="902.71174"
     inkscape:window-width="1920"
     inkscape:window-height="1017"
     inkscape:window-x="-8"
     inkscape:window-y="32"
     inkscape:window-maximized="1"
     inkscape:current-layer="svg50254" />
  <defs
     id="defs50250" />
  <image
     xlink:href="gomez-marin_2012_surface_558_p2.png"
     height="6756px"
     sodipodi:insensitive="true"
     width="5103px"
     x="0"
     y="0"
     id="image50252" />
  <g
     id="g842">
    <path
       style="fill:none;stroke:#000000;stroke-width:1px;stroke-linecap:butt;stroke-linejoin:miter;stroke-opacity:1"
       d="M 630.20435,563.58552 287.01568,674.69016"
       id="path50291"
       inkscape:connector-curvature="0" />
    <text
       xml:space="preserve"
       style="font-size:85.3333px;line-height:1.25;font-family:sans-serif"
       x="-409.24557"
       y="699.39081"
       id="text55215"><tspan
         sodipodi:role="line"
         id="tspan55213"
         x="-409.24557"
         y="699.39081">j2: 250 uA / cm2</tspan></text>
  </g>
  <g
     id="g850">
    <path
       style="fill:none;stroke:#000000;stroke-width:1px;stroke-linecap:butt;stroke-linejoin:miter;stroke-opacity:1"
       d="M 630.20435,1709.3158 296.85414,1659.9035"
       id="path50293"
       inkscape:connector-curvature="0" />
    <text
       xml:space="preserve"
       style="font-size:85.3333px;line-height:1.25;font-family:sans-serif"
       x="-458.82516"
       y="1689.5631"
       id="text57331"><tspan
         sodipodi:role="line"
         id="tspan57329"
         x="-458.82516"
         y="1689.5631">j1: -150 uA / cm2</tspan></text>
  </g>
  <g
     id="g858">
    <path
       style="fill:none;stroke:#000000;stroke-width:1px;stroke-linecap:butt;stroke-linejoin:miter;stroke-opacity:1"
       d="m 630.20435,1874.7303 -192.57338,66.6628"
       id="path53207"
       inkscape:connector-curvature="0" />
    <text
       xml:space="preserve"
       style="font-size:85.3333px;line-height:1.25;font-family:sans-serif"
       x="-258.73511"
       y="1980.9188"
       id="text59633"><tspan
         sodipodi:role="line"
         id="tspan59631"
         x="-258.73511"
         y="1980.9188">E1: 0 V vs RHE</tspan></text>
  </g>
  <g
     id="g866">
    <path
       style="fill:none;stroke:#000000;stroke-width:1px;stroke-linecap:butt;stroke-linejoin:miter;stroke-opacity:1"
       d="m 2185.8384,1874.7303 98.6739,74.082"
       id="path53209"
       inkscape:connector-curvature="0" />
    <text
       xml:space="preserve"
       style="font-size:85.3333px;line-height:1.25;font-family:sans-serif"
       x="2304.3555"
       y="1975.9623"
       id="text62529"><tspan
         sodipodi:role="line"
         id="tspan62527"
         x="2304.3555"
         y="1975.9623">E2: 1.6 V vs RHE</tspan></text>
  </g>
  <text
     xml:space="preserve"
     style="font-size:85.3333px;line-height:1.25;font-family:sans-serif"
     x="1432.3934"
     y="706.23914"
     id="text67447"><tspan
       sodipodi:role="line"
       id="tspan67445"
       x="1432.3934"
       y="706.23914">scan rate: 50 mV / s</tspan></text>
  <text
     xml:space="preserve"
     style="font-size:85.3333px;line-height:1.25;font-family:sans-serif;stroke:#00ff00"
     x="730.57074"
     y="451.32327"
     id="text66543"><tspan
       sodipodi:role="line"
       id="tspan66541"
       x="730.57074"
       y="451.32327">curve: red</tspan></text>
  <path
     style="fill:none;stroke:#00ff00;stroke-width:1px;stroke-linecap:butt;stroke-linejoin:miter;stroke-opacity:1"
     d="m 686.36982,1409.2623 c 0.15778,-69.2835 -4.45883,-127.8911 7.87759,-199.0432 2.98701,-17.228 17.11981,-18.3257 38.41609,-19.2014 50.25436,-2.0664 97.33902,-2.6942 144.04756,-2.623 41.98945,0.064 35.33263,8.5424 60.20739,19.2014 33.92118,14.5355 50.74405,46.9305 83.84015,51.5181 42.9784,5.9574 83.6444,10.4128 123.9443,9.6007 54.1522,-1.0912 94.5018,-31.1975 136.17,-49.7608 47.0424,-20.9575 79.624,-9.0242 97.805,-27.9364 12.1047,-12.5916 23.9533,-35.3728 25.4305,-89.5594 1.0925,-40.076 4.0442,-76.3782 5.6536,-103.93195 0.9606,-16.4444 6.1281,136.79755 11.2469,206.57765 4.2794,58.3372 30.9604,64.7709 81.6133,62.8632 19.772,-0.7446 89.3195,6.2849 108.7313,-11.7905 33.5525,-31.2424 28.6951,-87.3583 33.577,-127.8911 13.1247,-108.969 13.9535,-281.10317 20.9728,-303.82005 5.6721,-18.35666 11.5241,115.31625 13.9649,173.7299 2.9252,70.00505 9.3926,178.42815 44.5033,206.89945 9.1009,7.3799 45.0621,-7.2254 66.3923,-10.4665 17.3973,-2.6435 46.0275,2.7054 60.2244,-3.4944 51.1467,-22.3355 82.5779,-79.0199 116.9767,-87.2972 24.6594,-5.9337 58.971,28.0673 123.9892,28.8071 5.259,0.06 34.5359,-18.2099 33.5941,-12.2277 -7.9597,50.5573 -8.5033,101.1317 -43.2179,133.5737 -28.4508,26.5883 -68.405,29.0577 -103.0157,33.1696 -128.5189,15.2685 -255.7445,11.1219 -358.7888,34.9269 -88.0783,20.3476 -127.6496,52.2841 -153.6982,88.1792 -71.3991,98.3885 -92.1208,252.1775 -110.4126,244.4382 -22.0521,-9.3304 -34.0844,-102.0362 -47.5998,-139.6834 -15.2084,-42.3628 -37.7488,-107.2038 -67.2154,-115.2341 -19.6178,-5.3463 -22.5196,13.9304 -37.4953,16.5912 -24.566,4.3648 -38.9951,-4.2679 -49.7721,-24.4475 -13.4334,-25.1537 -18.6396,-72.9724 -42.3413,-85.9899 -27.646,-15.1838 -70.7828,-8.796 -99.967,-7.4198 -41.8531,1.9737 -60.21587,55.2928 -81.18025,55.8726 -9.18364,0.254 -18.01197,-6.8256 -27.06005,-5.2332 -38.22389,6.7273 -75.82553,29.3173 -104.76186,50.6266 -25.07701,18.4672 -36.24966,81.7653 -42.59518,93.455 -2.26873,4.1794 -4.76067,-12.4164 -8.03304,-27.9816"
     id="path68832"
     sodipodi:nodetypes="csssssssssssssssssssssssssssssssssssssc" />
  <text
     xml:space="preserve"
     style="font-size:85.3333px;line-height:1.25;font-family:sans-serif"
     x="80.48671"
     y="172.45992"
     id="text25"><tspan
       sodipodi:role="line"
       id="tspan23"
       x="80.48671"
       y="172.45992">comment: Focus on Pt oxidation, surface defects (at steps), and sulfate vs. perchlorate adsorption.</tspan></text>
  <text
     xml:space="preserve"
     style="font-size:80px;line-height:1.25;font-family:sans-serif;-inkscape-font-specification:sans-serif;letter-spacing:0px;word-spacing:0px"
     x="-649.53339"
     y="1012.7134"
     id="text1442"><tspan
       sodipodi:role="line"
       id="tspan1440"
       x="-649.53339"
       y="1012.7134">Figure: 2</tspan></text>
  <text
     xml:space="preserve"
     style="font-size:80px;line-height:1.25;font-family:sans-serif;-inkscape-font-specification:sans-serif;letter-spacing:0px;word-spacing:0px"
     x="-656.51764"
     y="1169.8585"
     id="text2480"><tspan
       sodipodi:role="line"
       id="tspan2478"
       x="-656.51764"
       y="1169.8585">tags: BCV</tspan></text>
</svg>
