<?xml version="1.0" encoding="UTF-8" standalone="no"?>
<svg
   xmlns:dc="http://purl.org/dc/elements/1.1/"
   xmlns:cc="http://creativecommons.org/ns#"
   xmlns:rdf="http://www.w3.org/1999/02/22-rdf-syntax-ns#"
   xmlns:svg="http://www.w3.org/2000/svg"
   xmlns="http://www.w3.org/2000/svg"
   xmlns:xlink="http://www.w3.org/1999/xlink"
   xmlns:sodipodi="http://sodipodi.sourceforge.net/DTD/sodipodi-0.dtd"
   xmlns:inkscape="http://www.inkscape.org/namespaces/inkscape"
   height="6601px"
   version="1.1"
   width="5100px"
   id="svg8903"
   sodipodi:docname="wang_1996_ordered_6672_p1_f2a.svg"
   inkscape:version="0.92.2 (5c3e80d, 2017-08-06)">
  <metadata
     id="metadata28">
    <rdf:RDF>
      <cc:Work
         rdf:about="">
        <dc:format>image/svg+xml</dc:format>
        <dc:type
           rdf:resource="http://purl.org/dc/dcmitype/StillImage" />
      </cc:Work>
    </rdf:RDF>
  </metadata>
  <sodipodi:namedview
     id="namedview8905"
     pagecolor="#ffffff"
     bordercolor="#666666"
     borderopacity="1.0"
     inkscape:pageshadow="2"
     inkscape:pageopacity="0.0"
     inkscape:pagecheckerboard="0"
     showgrid="false"
     inkscape:zoom="0.073270873"
     inkscape:cx="5130.9626"
     inkscape:cy="2953.0672"
     inkscape:window-width="1920"
     inkscape:window-height="1017"
     inkscape:window-x="-8"
     inkscape:window-y="32"
     inkscape:window-maximized="1"
     inkscape:current-layer="svg8903" />
  <defs
     id="defs8899" />
  <image
     sodipodi:absref="F:\Github\echemdb\website\literature\wang_1996_ordered_6672\Wang_1996_Ordered_6672_p1.png"
     xlink:href="Wang_1996_Ordered_6672_p1.png"
     id="image8901"
     y="0"
     x="0"
     width="5100px"
     sodipodi:insensitive="true"
     height="6601px" />
  <text
     xml:space="preserve"
     style="font-size:85.3333px;line-height:1.25;font-family:sans-serif"
     x="4249.5503"
     y="828.37524"
     id="text13423"><tspan
       sodipodi:role="line"
       id="tspan13421"
       x="4249.5503"
       y="828.37524">scan rate: 20 mV / s</tspan></text>
  <g
     id="g19945"
     transform="translate(2243.2408,-3.94751)">
    <path
       style="fill:none;stroke:#000000;stroke-width:1px;stroke-linecap:butt;stroke-linejoin:miter;stroke-opacity:1"
       d="m 939.04375,391.40649 -277.49716,2.42826"
       id="path13934" />
    <text
       xml:space="preserve"
       style="font-size:85.3333px;line-height:1.25;font-family:sans-serif"
       x="70.645744"
       y="427.57983"
       id="text15154"><tspan
         sodipodi:role="line"
         id="tspan15152"
         x="70.645744"
         y="427.57983">j2: 6 uA / cm2</tspan></text>
  </g>
  <g
     id="g19950"
     transform="translate(2241.4159,-74.23672)">
    <path
       style="fill:none;stroke:#000000;stroke-width:1px;stroke-linecap:butt;stroke-linejoin:miter;stroke-opacity:1"
       d="m 939.04375,1103.1245 -328.10538,-4.8208"
       id="path13936" />
    <text
       xml:space="preserve"
       style="font-size:85.3333px;line-height:1.25;font-family:sans-serif"
       x="-6.8215709"
       y="1122.443"
       id="text16334"><tspan
         sodipodi:role="line"
         id="tspan16332"
         x="-6.8215709"
         y="1122.443">j1: -6 uA / cm2</tspan></text>
  </g>
  <g
     id="g19955"
     transform="translate(2247.893,-80.757081)">
    <path
       style="fill:none;stroke:#000000;stroke-width:1px;stroke-linecap:butt;stroke-linejoin:miter;stroke-opacity:1"
       d="m 980.0393,1139.2978 -183.34889,77.2031"
       id="path13938" />
    <text
       xml:space="preserve"
       style="font-size:85.3333px;line-height:1.25;font-family:sans-serif"
       x="-115.99248"
       y="1283.1074"
       id="text17844"><tspan
         sodipodi:role="line"
         id="tspan17842"
         x="-115.99248"
         y="1283.1074">E1: -0.6 V vs Ag/AgCl</tspan></text>
  </g>
  <g
     id="g19960"
     transform="translate(2148.6412,-74.374151)">
    <path
       style="fill:none;stroke:#000000;stroke-width:1px;stroke-linecap:butt;stroke-linejoin:miter;stroke-opacity:1"
       d="m 1961.9526,1132.0845 197.7678,79.5956"
       id="path13940" />
    <text
       xml:space="preserve"
       style="font-size:85.3333px;line-height:1.25;font-family:sans-serif"
       x="2169.4746"
       y="1274.4209"
       id="text18826"><tspan
         sodipodi:role="line"
         id="tspan18824"
         x="2169.4746"
         y="1274.4209">E2: 0.3 V vs Ag/AgCl</tspan></text>
  </g>
  <g
     id="g45189">
    <text
       xml:space="preserve"
       style="font-size:85.3333px;line-height:1.25;font-family:sans-serif"
       x="3159.9238"
       y="314.81326"
       id="text10845"><tspan
         sodipodi:role="line"
         id="tspan10843"
         x="3159.9238"
         y="314.81326">curve: solid</tspan></text>
    <path
       style="fill:none;stroke:#000000;stroke-width:1px;stroke-linecap:butt;stroke-linejoin:miter;stroke-opacity:1"
       d="m 3238.4962,837.9229 c 0,0 1.0013,-25.72968 1.2016,-38.60153 0.1908,-12.26161 -1.4631,-24.61378 0,-36.78928 0.9136,-7.60271 0.4759,-16.48995 5.4425,-22.31819 2.6861,-3.15202 7.5036,-3.56658 11.4504,-4.82073 9.8064,-3.11613 20.1258,-4.30215 30.1459,-6.64188 16.3413,-3.81575 32.9391,-6.80763 48.8765,-12.06077 7.4423,-2.45305 15.1869,-4.68524 21.6994,-9.0433 4.9668,-3.32371 8.9985,-7.96594 12.6874,-12.66783 4.7882,-6.10296 8.2209,-13.16234 12.0512,-19.90781 1.6856,-2.96855 1.8804,-7.28485 4.8064,-9.04332 0.8684,-0.52186 2.0445,0.19191 3.0393,0 4.2493,-0.81978 8.5127,-2.33818 12.0513,-4.82965 5.7083,-4.0192 9.0561,-10.63819 13.889,-15.67629 5.0157,-5.22867 9.1825,-11.82408 15.656,-15.07818 3.2864,-1.65201 7.2089,-1.93936 10.885,-1.81222 4.3331,0.14986 8.4217,2.06788 12.6521,3.01741 3.8058,0.85423 7.6415,3.25003 11.4505,2.41036 1.967,-0.43361 3.8266,-1.87582 4.8417,-3.61555 3.9838,-6.82751 2.0027,-15.68223 3.004,-23.52335 1.0013,-7.84113 0.789,-15.93526 3.004,-23.52338 1.0595,-3.62943 1.0933,-10.75226 4.8417,-10.25742 0,0 4.0732,20.03998 5.4425,30.16525 1.4876,11.00007 1.5164,22.16474 3.004,33.16481 1.3693,10.12527 2.2176,20.47012 5.4425,30.16526 2.2694,6.82244 4.3957,14.38184 9.6481,19.29184 1.9031,1.77905 4.9991,1.63868 7.2095,3.01742 3.6264,2.26197 6.1938,5.92822 9.6481,8.44519 2.8424,2.07106 5.7405,4.23061 9.0473,5.42779 8.6093,3.11685 18.0439,3.19217 27.1418,4.22261 11.2189,1.27066 22.5004,2.07497 33.786,2.41036 16.8867,0.50185 33.7896,-0.1927 50.6789,-0.59812 16.6871,-0.40056 33.3782,-0.85809 50.0428,-1.81224 20.5387,-1.17597 40.9998,-3.48172 61.5286,-4.82073 19.2814,-1.25765 38.68,-0.92313 57.8885,-3.01743 8.5125,-0.92812 17.4487,-0.89692 25.3395,-4.22261 3.4459,-1.45232 7.0515,-3.47061 9.0473,-6.63293 4.0415,-6.40385 2.9832,-14.85085 4.2409,-22.3182 2.0586,-12.2227 3.7368,-24.50752 5.4072,-36.7893 2.84,-20.88131 5.4576,-41.79413 7.8456,-62.73195 1.3281,-11.64528 3.6048,-34.97705 3.6048,-34.97705 0,0 6.1382,23.9599 7.8457,36.18223 1.7563,12.57177 1.3812,25.35367 2.4385,38.00342 0.9762,11.68005 2.335,23.32527 3.6048,34.97705 1.1404,10.46367 -0.018,21.48803 3.6048,31.37044 1.7461,4.7627 4.9588,8.97537 8.4465,12.65886 2.0747,2.19114 4.5001,4.17412 7.2448,5.4278 4.3094,1.96836 9.1883,2.42711 13.8891,3.01742 5.5907,0.70206 11.2584,0.5805 16.8929,0.60703 7.6363,0.036 15.2928,0.0474 22.901,-0.60703 8.3031,-0.71426 16.4604,-2.65445 24.7386,-3.61554 11.6263,-1.3498 23.2812,-2.78562 34.9833,-3.01743 8.6544,-0.17144 17.2844,1.26412 25.9403,1.20518 10.0665,-0.0685 20.2079,-0.20638 30.1457,-1.81224 6.162,-0.99573 12.0344,-3.32592 18.0947,-4.82073 4.41,-1.08775 13.2882,-3.01741 13.2882,-3.01741 0,0 4.5037,15.97115 4.2055,24.13042 -0.2725,7.45599 -1.5322,15.35696 -5.4425,21.71113 -3.0611,4.9743 -8.0947,8.72255 -13.2528,11.46261 -6.8101,3.61763 -14.7182,4.82501 -22.3355,6.02591 -12.1284,1.9121 -24.5312,1.12147 -36.79,1.81224 -12.6692,0.7139 -25.335,1.49826 -37.9915,2.41037 -12.4717,0.8988 -24.9686,1.58754 -37.3907,3.01742 -8.0824,0.93034 -16.1325,2.16515 -24.1379,3.61555 -9.5048,1.72207 -18.9175,3.92318 -28.3434,6.03482 -3.4246,0.7672 -7.2742,0.5482 -10.2489,2.41036 -5.9319,3.71333 -7.1453,12.86671 -13.2529,16.28334 -2.6552,1.48533 -6.0056,1.27182 -9.0473,1.20518 -5.7182,-0.12529 -11.2251,-2.24084 -16.893,-3.00848 -8.6057,-1.16553 -17.2568,-2.29707 -25.9402,-2.41927 -6.2443,-0.0879 -14.0894,-3.00297 -18.6954,1.21409 0,0 -4.5814,26.0598 -6.0433,39.19965 -3.2311,29.04225 -4.0841,58.30016 -6.0124,87.45791 -1.263,19.09817 -2.3291,38.20923 -3.6401,57.30417 -0.7456,10.85951 -2.4032,32.56668 -2.4032,32.56668 0,0 -3.3912,-34.1649 -4.8417,-51.26932 -1.8057,-21.29312 -2.9285,-42.64133 -4.8064,-63.92821 -1.0479,-11.87891 -2.2807,-23.74174 -3.6048,-35.59305 -1.844,-16.50562 -2.0578,-33.33406 -6.0432,-49.45709 -1.4964,-6.05383 -3.1083,-12.35182 -6.6442,-17.48852 -1.3691,-1.989 -3.138,-3.99486 -5.4071,-4.82073 -6.2462,-2.27344 -13.2853,0.5733 -19.9323,0.59812 -8.8492,0.033 -17.6923,-0.68645 -26.5411,-0.59812 -9.4559,0.0944 -18.8979,0.75204 -28.3434,1.20518 -11.2533,0.53987 -22.5064,1.10038 -33.7507,1.8033 -11.2688,0.70445 -22.5577,1.23163 -33.7859,2.4193 -11.5101,1.21749 -23.0106,2.68779 -34.3867,4.82072 -6.8995,1.2936 -13.7047,3.06034 -20.4978,4.82966 -7.0779,1.84352 -14.2484,3.46257 -21.0986,6.02591 -6.664,2.49369 -13.1175,5.58607 -19.3315,9.05226 -6.087,3.39535 -12.9159,6.19793 -17.4937,11.4537 -5.5528,6.37512 -8.1209,14.92338 -10.8497,22.92522 -2.7234,7.98601 -3.9312,16.42106 -5.4072,24.72856 -2.5915,14.58561 -3.7927,29.38724 -6.0433,44.02932 -1.6422,10.68403 -5.4425,31.96856 -5.4425,31.96856 0,0 -2.6464,-20.13336 -4.2056,-30.16526 -1.2844,-8.26398 -2.027,-16.66372 -4.2409,-24.72856 -1.4814,-5.3964 -3.1697,-10.85336 -6.0079,-15.67627 -0.7997,-1.3589 -1.4801,-3.39045 -3.0394,-3.62449 -4.0259,-0.60426 -6.8142,4.45655 -10.2489,6.64188 -3.1991,2.03544 -5.9122,5.37724 -9.648,6.02591 -4.6565,0.80852 -9.5322,-1.10383 -13.8537,-3.01739 -4.7488,-2.10277 -8.8057,-5.59301 -12.6874,-9.04334 -10.955,-9.73758 -19.6833,-21.72325 -29.545,-32.56671 -6.2234,-6.84297 -10.4944,-16.22797 -18.6954,-20.50595 -4.1292,-2.15395 -9.2062,-1.50953 -13.8536,-1.8122 -6.0188,-0.39199 -12.1026,-0.68988 -18.0946,0 -6.1529,0.70841 -12.0991,2.66854 -18.0946,4.22257 -5.6685,1.46927 -11.4071,2.77253 -16.893,4.82073 -6.2357,2.32812 -11.996,5.77841 -18.0945,8.44521 -4.3839,1.917 -9.2177,2.91307 -13.2882,5.4278 -3.6361,2.24636 -5.74,6.71477 -9.6481,8.44518 -4.8115,2.13043 -15.6826,1.80591 -15.6826,1.80591 z"
       id="path44813"
       sodipodi:nodetypes="cssssssssssssssssssssssssssssssssssssssscsssssssssssssscsssssssssssssssssscssssssssssssssssssscsssssssssssssssssc" />
  </g>
  <text
     xml:space="preserve"
     style="font-style:normal;font-variant:normal;font-weight:normal;font-stretch:normal;font-size:80px;line-height:1.25;font-family:sans-serif;-inkscape-font-specification:sans-serif;letter-spacing:0px;word-spacing:0px;fill:#000000;fill-opacity:1;stroke:none"
     x="-648.25134"
     y="198.53978"
     id="text837"><tspan
       sodipodi:role="line"
       id="tspan835"
       x="-648.25134"
       y="198.53978">Focus on variation of counterion Cs+, K+, Na+, Li+.</tspan></text>
</svg>
