<?xml version="1.0" encoding="UTF-8" standalone="no"?>
<svg
   xmlns:dc="http://purl.org/dc/elements/1.1/"
   xmlns:cc="http://creativecommons.org/ns#"
   xmlns:rdf="http://www.w3.org/1999/02/22-rdf-syntax-ns#"
   xmlns:svg="http://www.w3.org/2000/svg"
   xmlns="http://www.w3.org/2000/svg"
   xmlns:xlink="http://www.w3.org/1999/xlink"
   xmlns:sodipodi="http://sodipodi.sourceforge.net/DTD/sodipodi-0.dtd"
   xmlns:inkscape="http://www.inkscape.org/namespaces/inkscape"
   height="6601px"
   version="1.1"
   width="5100px"
   id="svg8903"
   sodipodi:docname="wang_1996_ordered_6672_p1_f2b.svg"
   inkscape:version="0.92.2 (5c3e80d, 2017-08-06)">
  <metadata
     id="metadata28">
    <rdf:RDF>
      <cc:Work
         rdf:about="">
        <dc:format>image/svg+xml</dc:format>
        <dc:type
           rdf:resource="http://purl.org/dc/dcmitype/StillImage" />
      </cc:Work>
    </rdf:RDF>
  </metadata>
  <sodipodi:namedview
     id="namedview8905"
     pagecolor="#ffffff"
     bordercolor="#666666"
     borderopacity="1.0"
     inkscape:pageshadow="2"
     inkscape:pageopacity="0.0"
     inkscape:pagecheckerboard="0"
     showgrid="false"
     inkscape:zoom="0.073270873"
     inkscape:cx="7353.702"
     inkscape:cy="2945.9782"
     inkscape:window-width="1920"
     inkscape:window-height="1017"
     inkscape:window-x="-8"
     inkscape:window-y="32"
     inkscape:window-maximized="1"
     inkscape:current-layer="svg8903" />
  <defs
     id="defs8899" />
  <image
     sodipodi:absref="F:\Github\echemdb\website\literature\wang_1996_ordered_6672\Wang_1996_Ordered_6672_p1.png"
     xlink:href="Wang_1996_Ordered_6672_p1.png"
     id="image8901"
     y="0"
     x="0"
     width="5100px"
     sodipodi:insensitive="true"
     height="6601px" />
  <text
     xml:space="preserve"
     style="font-size:85.3333px;line-height:1.25;font-family:sans-serif"
     x="4775.4233"
     y="1716.2104"
     id="text13423"><tspan
       sodipodi:role="line"
       id="tspan13421"
       x="4775.4233"
       y="1716.2104">scan rate: 20 mV / s</tspan></text>
  <g
     id="g19945"
     transform="translate(2239.0993,738.37199)">
    <path
       style="fill:none;stroke:#000000;stroke-width:1px;stroke-linecap:butt;stroke-linejoin:miter;stroke-opacity:1"
       d="m 939.04375,391.40649 -277.49716,2.42826"
       id="path13934" />
    <text
       xml:space="preserve"
       style="font-size:85.3333px;line-height:1.25;font-family:sans-serif"
       x="70.645744"
       y="427.57983"
       id="text15154"><tspan
         sodipodi:role="line"
         id="tspan15152"
         x="70.645744"
         y="427.57983">j2: 6 uA / cm2</tspan></text>
  </g>
  <g
     id="g19950"
     transform="translate(2237.2744,668.08278)">
    <path
       style="fill:none;stroke:#000000;stroke-width:1px;stroke-linecap:butt;stroke-linejoin:miter;stroke-opacity:1"
       d="m 939.04375,1103.1245 -328.10538,-4.8208"
       id="path13936" />
    <text
       xml:space="preserve"
       style="font-size:85.3333px;line-height:1.25;font-family:sans-serif"
       x="-6.8215709"
       y="1122.443"
       id="text16334"><tspan
         sodipodi:role="line"
         id="tspan16332"
         x="-6.8215709"
         y="1122.443">j1: -6 uA / cm2</tspan></text>
  </g>
  <g
     id="g19955"
     transform="translate(2245.0866,657.49271)">
    <path
       style="fill:none;stroke:#000000;stroke-width:1px;stroke-linecap:butt;stroke-linejoin:miter;stroke-opacity:1"
       d="m 980.0393,1139.2978 -183.34889,77.2031"
       id="path13938" />
    <text
       xml:space="preserve"
       style="font-size:85.3333px;line-height:1.25;font-family:sans-serif"
       x="-115.99248"
       y="1283.1074"
       id="text17844"><tspan
         sodipodi:role="line"
         id="tspan17842"
         x="-115.99248"
         y="1283.1074">E1: -0.6 V vs Ag/AgCl</tspan></text>
  </g>
  <g
     id="g19960"
     transform="translate(2145.8348,663.87564)">
    <path
       style="fill:none;stroke:#000000;stroke-width:1px;stroke-linecap:butt;stroke-linejoin:miter;stroke-opacity:1"
       d="m 1961.9526,1132.0845 197.7678,79.5956"
       id="path13940" />
    <text
       xml:space="preserve"
       style="font-size:85.3333px;line-height:1.25;font-family:sans-serif"
       x="2169.4746"
       y="1274.4209"
       id="text18826"><tspan
         sodipodi:role="line"
         id="tspan18824"
         x="2169.4746"
         y="1274.4209">E2: 0.3 V vs Ag/AgCl</tspan></text>
  </g>
  <g
     id="g41409">
    <text
       xml:space="preserve"
       style="font-size:85.3333px;line-height:1.25;font-family:sans-serif"
       x="4339.605"
       y="1482.5005"
       id="text10845"><tspan
         sodipodi:role="line"
         id="tspan10843"
         x="4339.605"
         y="1482.5005">curve: solid</tspan></text>
    <path
       style="fill:none;stroke:#000000;stroke-width:1px;stroke-linecap:butt;stroke-linejoin:miter;stroke-opacity:1"
       d="m 3236.4268,1584.2142 c -9.1714,-4.5427 -0.142,-20.4705 0,-30.7042 0.15,-10.8102 -2.1236,-22.0413 0.8997,-32.4212 0.9257,-3.178 2.6357,-6.3096 5.0979,-8.5219 6.0597,-5.4447 14.5135,-7.515 22.191,-10.239 14.0966,-5.0016 28.8218,-8.1182 43.4823,-11.0848 20.576,-4.1636 41.4635,-6.6356 62.2747,-9.393 9.9239,-1.3149 20.0467,-1.324 29.8378,-3.4088 5.5364,-1.1789 11.2591,-2.3393 16.1934,-5.1131 7.9089,-4.446 14.5087,-11.0944 20.4917,-17.915 6.0826,-6.9342 11.6314,-14.5842 15.3437,-23.0281 6.2452,-14.2051 8.4551,-29.9193 11.0955,-45.2104 2.3824,-13.7973 3.1143,-27.8335 4.2483,-41.789 1.1538,-14.1996 1.7273,-28.4404 2.5989,-42.6601 0.7713,-12.5847 1.9398,-25.1509 2.328,-37.7532 0.291,-9.4465 -0.3033,-18.9069 0,-28.353 0.2004,-6.2409 1.2016,-18.6937 1.2016,-18.6937 0,0 -2.7921,16.5826 3.0393,19.9078 1.8755,1.0694 3.9718,-3.1368 6.008,-2.4193 1.9557,0.6891 2.3009,3.4901 3.0393,5.4278 1.9807,5.1975 2.5979,10.8221 3.6048,16.2923 2.5014,13.59 4.0314,27.3409 6.0433,41.0119 1.8047,12.2628 1.545,25.0116 5.4072,36.7893 1.2061,3.6779 1.59,10.6313 5.4425,10.2574 4.8095,-0.4667 2.7693,-9.2592 4.2055,-13.873 1.3807,-4.4353 2.7426,-8.8778 4.2409,-13.2748 0.7585,-2.226 0.052,-6.619 2.4033,-6.633 5.1563,-0.031 4.0832,9.506 5.4425,14.48 1.8295,6.6947 2.4428,13.6638 3.6047,20.506 1.671,9.8402 3.078,19.7252 4.8417,29.5492 1.8463,10.2838 3.1776,20.7059 6.008,30.7634 2.0339,7.2271 4.5631,14.3608 7.8457,21.113 1.8549,3.8155 3.6578,7.8421 6.6441,10.8556 2.669,2.6933 6.3779,4.1067 9.6481,6.0259 3.9546,2.3209 7.6647,5.2973 12.0512,6.633 6.573,2.0016 13.6688,1.5099 20.5332,1.8122 14.4522,0.6365 28.9361,0.3288 43.3986,0 13.2867,-0.3021 26.5533,-1.1979 39.8293,-1.8122 17.0821,-0.7904 34.1646,-1.5714 51.2444,-2.4104 15.693,-0.7708 31.4159,-1.1121 47.0741,-2.4103 12.3016,-1.0199 24.5025,-3.0443 36.79,-4.2227 7.8222,-0.7502 15.7774,-0.3836 23.5046,-1.8122 7.6371,-1.4119 15.3999,-3.1378 22.3355,-6.633 1.7903,-0.9022 3.5981,-2.0157 4.8063,-3.6155 3.3767,-4.4713 4.2149,-10.3889 6.0434,-15.6852 3.3617,-9.7371 6.5689,-19.5508 9.0472,-29.5493 2.0686,-8.3455 2.5166,-17.0579 4.8417,-25.3356 2.3222,-8.2675 9.2597,-22.6286 9.2597,-22.6286 6.2003,3.5085 4.4108,5.2087 6.3964,8.7556 2.7238,4.8656 5.4093,9.8129 7.2449,15.0782 2.1044,6.0362 3.3757,12.369 4.2409,18.7026 1.117,8.1766 0.072,16.5537 1.2016,24.7286 0.7338,5.3114 2.236,10.4921 3.6047,15.6763 0.5359,2.0299 0.4306,4.4457 1.8025,6.0348 2.1748,2.5191 5.8341,3.3556 9.0472,4.2226 4.294,1.1587 8.848,0.949 13.2882,1.2052 8.0233,0.4629 16.0679,0.7748 24.1026,0.5981 5.8437,-0.1285 11.6582,-0.8729 17.4938,-1.2052 4.4267,-0.2521 8.8592,-0.3904 13.2882,-0.5981 8.2352,-0.3862 16.4615,-1.0043 24.7033,-1.2052 6.0297,-0.147 12.0665,0.2056 18.0945,0 8.8625,-0.3022 17.7274,-0.8361 26.5411,-1.8122 5.2597,-0.5825 10.5002,-1.3836 15.6914,-2.4104 6.6952,-1.3243 13.1686,-3.6858 19.8969,-4.8296 1.9957,-0.3393 4.5432,-1.9573 6.0434,-0.5982 4.9158,4.4532 1.0626,13.3516 0,19.8989 -1.4262,8.7872 -3.9909,17.6287 -8.4465,25.3356 -2.423,4.1911 -5.7528,7.981 -9.6481,10.8556 -3.9057,2.8823 -8.5539,4.8174 -13.2528,6.0348 -4.8849,1.2656 -10.0727,0.671 -15.0906,1.2052 -6.0507,0.6442 -12.0285,1.9344 -18.0947,2.4104 -8.2233,0.6452 -16.4943,0.3326 -24.7386,0.5981 -5.0317,0.162 -10.0597,0.4242 -15.0906,0.6071 -6.2309,0.2265 -12.4978,-0.076 -18.6953,0.607 -7.5199,0.829 -14.8959,2.6692 -22.3002,4.2226 -5.2531,1.1021 -10.4122,2.6456 -15.6914,3.6155 -5.7895,1.0636 -11.718,1.2748 -17.4938,2.4104 -7.9361,1.5604 -15.9875,3.0426 -23.5017,6.0349 -7.6977,3.0654 -15.4754,6.6319 -21.7347,12.0607 -5.5255,4.7924 -9.0697,11.4885 -13.2529,17.4885 -3.4126,4.8947 -6.0426,10.3237 -9.648,15.0782 -1.465,1.9318 -2.4433,5.0731 -4.8417,5.4278 -4.1933,0.6202 -7.8073,-3.6814 -10.8497,-6.633 -4.4809,-4.3471 -5.5235,-11.5962 -10.2488,-15.6763 -2.1805,-1.8828 -4.9796,-3.3343 -7.8458,-3.6244 -3.4916,-0.3535 -7.4165,0.338 -10.2488,2.4103 -1.891,1.3836 -2.5306,3.9524 -3.6048,6.0348 -1.6109,3.1227 -3.3123,6.2616 -4.2409,9.6504 -2.1945,8.0082 -2.1174,16.4726 -3.004,24.7286 -1.8543,17.2677 -3.548,34.5568 -4.8417,51.8755 -1.065,14.2574 -1.2938,28.57 -2.4032,42.8241 -0.7839,10.0714 -2.0662,20.0981 -3.004,30.1564 -1.0867,11.6553 -3.0393,34.9859 -3.0393,34.9859 0,0 -3.5971,-20.4552 -4.8064,-30.7633 -1.5038,-12.8191 -2.1903,-25.7225 -3.0393,-38.6016 -0.9932,-15.0667 -1.7343,-30.1499 -2.4032,-45.2345 -0.4992,-11.2563 -0.7936,-22.5208 -1.2016,-33.7808 -0.3933,-10.8558 -0.5517,-21.7232 -1.2016,-32.5667 -0.2896,-4.8316 -0.414,-9.6953 -1.2016,-14.4711 -0.5394,-3.2708 -0.9454,-6.673 -2.4032,-9.6503 -1.5751,-3.2169 -3.6834,-6.4293 -6.6441,-8.4452 -3.4767,-2.3672 -7.9758,-2.7342 -12.0866,-3.6245 -4.3573,-0.9437 -8.8282,-1.2563 -13.2528,-1.8033 -10.8459,-1.3409 -21.6786,-2.9211 -32.5844,-3.6245 -11.0288,-0.7113 -22.0984,-0.6855 -33.1498,-0.5981 -11.8692,0.094 -23.7309,0.6686 -35.5883,1.2052 -10.6674,0.4828 -21.3405,0.9464 -31.9836,1.8122 -9.4696,0.7704 -19.0293,1.1341 -28.3435,3.0085 -6.1733,1.2423 -12.4905,2.556 -18.0946,5.4278 -5.8726,3.0093 -10.9735,7.456 -15.6913,12.0696 -5.7203,5.5939 -10.8048,11.9154 -15.0553,18.6937 -4.4901,7.1603 -8.001,14.9593 -10.8497,22.9164 -2.7948,7.8067 -4.1575,16.0558 -6.0433,24.1304 -2.8074,12.0204 -5.1966,24.1348 -7.8457,36.1911 -1.989,9.0519 3.1481,25.9506 -6.0433,27.1389 -6.9569,0.8995 -7.0843,-12.173 -9.648,-18.7026 -1.907,-4.857 -1.2097,-10.806 -4.2056,-15.0782 -1.9857,-2.8317 -5.1235,-6.9847 -8.4465,-6.0259 -4.5923,1.325 -4.0928,8.6809 -5.4425,13.266 -2.4827,8.4339 -3.3819,17.2581 -4.8064,25.9337 -2.0735,12.6279 -4.3249,25.2553 -5.4425,38.0034 -1.0716,12.2228 -0.8523,24.5246 -1.2016,36.7893 -0.2347,8.2419 0.3082,16.5335 -0.6008,24.7285 -0.678,6.1128 -3.6048,18.0953 -3.6048,18.0953 0,0 -5.7653,-34.9114 -7.8456,-52.4745 -2.4452,-20.6433 -3.7414,-41.407 -5.4426,-62.1249 -1.5016,-18.287 -2.5744,-36.6089 -4.2055,-54.8849 -1.2396,-13.8896 -2.2062,-27.8233 -4.241,-41.6189 -1.0757,-7.2927 -0.3235,-15.4446 -4.2055,-21.7112 -2.2649,-3.6562 -6.3224,-6.0831 -10.2489,-7.8381 -3.9301,-1.7566 -8.4159,-1.8765 -12.6874,-2.4104 -6.5934,-0.8241 -13.2554,-1.4171 -19.897,-1.2141 -9.9175,0.3032 -19.7733,1.9033 -29.545,3.6245 -7.9295,1.3967 -15.7541,3.3653 -23.5371,5.4278 -10.141,2.6873 -20.1146,5.9715 -30.1458,9.0433 -9.673,2.9621 -19.5852,5.2695 -28.9677,9.0522 -5.8388,2.354 -11.485,5.2225 -16.893,8.4452 -4.2138,2.5111 -8.091,5.5508 -12.0513,8.4452 -3.5579,2.6003 -6.5674,9.9674 -10.5163,8.0115 z"
       id="path40193"
       sodipodi:nodetypes="sssssssssssssssscssssssssssssssssssssssssssssssssssssssssssssssssssssssssssssssssssssssssssscsssssssssssssssssssssssssssssscsssssssssssssss" />
  </g>
  <text
     xml:space="preserve"
     style="font-style:normal;font-variant:normal;font-weight:normal;font-stretch:normal;font-size:80px;line-height:1.25;font-family:sans-serif;-inkscape-font-specification:sans-serif;letter-spacing:0px;word-spacing:0px;fill:#000000;fill-opacity:1;stroke:none"
     x="2094.9944"
     y="335.01971"
     id="text837"><tspan
       sodipodi:role="line"
       id="tspan835"
       x="2094.9944"
       y="335.01971">Focus on variation of counterion Cs+, K+, Na+, Li+.</tspan></text>
</svg>
