<?xml version="1.0" encoding="UTF-8" standalone="no"?>
<svg
   height="6601px"
   version="1.1"
   width="5100px"
   id="svg8903"
   sodipodi:docname="Wang_1996_Ordered_6672_p1_1.svg"
   inkscape:version="1.1.1 (eb90963e84, 2021-10-02)"
   xmlns:inkscape="http://www.inkscape.org/namespaces/inkscape"
   xmlns:sodipodi="http://sodipodi.sourceforge.net/DTD/sodipodi-0.dtd"
   xmlns:xlink="http://www.w3.org/1999/xlink"
   xmlns="http://www.w3.org/2000/svg"
   xmlns:svg="http://www.w3.org/2000/svg">
  <sodipodi:namedview
     id="namedview8905"
     pagecolor="#ffffff"
     bordercolor="#666666"
     borderopacity="1.0"
     inkscape:pageshadow="2"
     inkscape:pageopacity="0.0"
     inkscape:pagecheckerboard="0"
     showgrid="false"
     inkscape:zoom="0.2930835"
     inkscape:cx="1649.7005"
     inkscape:cy="571.50948"
     inkscape:window-width="1848"
     inkscape:window-height="898"
     inkscape:window-x="72"
     inkscape:window-y="27"
     inkscape:window-maximized="1"
     inkscape:current-layer="svg8903" />
  <defs
     id="defs8899" />
  <image
     height="6601px"
     sodipodi:insensitive="true"
     width="5100px"
     x="0"
     xlink:href="Wang_1996_Ordered_6672_p1.png"
     y="0"
     id="image8901" />
  <text
     xml:space="preserve"
     style="font-size:85.3333px;line-height:1.25;font-family:sans-serif"
     x="2066.5261"
     y="733.62622"
     id="text13423"><tspan
       sodipodi:role="line"
       id="tspan13421"
       x="2066.5261"
       y="733.62622">scan rate: 5 mV / s</tspan></text>
  <g
     id="g19945"
     transform="translate(-2.4385265)">
    <path
       style="fill:none;stroke:#000000;stroke-width:1px;stroke-linecap:butt;stroke-linejoin:miter;stroke-opacity:1"
       d="m 939.04375,391.40649 -277.49716,2.42826"
       id="path13934" />
    <text
       xml:space="preserve"
       style="font-size:85.3333px;line-height:1.25;font-family:sans-serif"
       x="70.645744"
       y="427.57983"
       id="text15154"><tspan
         sodipodi:role="line"
         id="tspan15152"
         x="70.645744"
         y="427.57983">y2: 2 uA / cm2</tspan></text>
  </g>
  <g
     id="g19950"
     transform="translate(-1.2015925,1.8033367)">
    <path
       style="fill:none;stroke:#000000;stroke-width:1px;stroke-linecap:butt;stroke-linejoin:miter;stroke-opacity:1"
       d="m 939.04375,1103.1245 -328.10538,-4.8208"
       id="path13936" />
    <text
       xml:space="preserve"
       style="font-size:85.3333px;line-height:1.25;font-family:sans-serif"
       x="-6.8215709"
       y="1122.443"
       id="text16334"><tspan
         sodipodi:role="line"
         id="tspan16332"
         x="-6.8215709"
         y="1122.443">y1: -3 uA / cm2</tspan></text>
  </g>
  <g
     id="g19955"
     transform="translate(-2.403185,1.2140909)">
    <path
       style="fill:none;stroke:#000000;stroke-width:1px;stroke-linecap:butt;stroke-linejoin:miter;stroke-opacity:1"
       d="m 980.0393,1139.2978 -183.34889,77.2031"
       id="path13938" />
    <text
       xml:space="preserve"
       style="font-size:85.3333px;line-height:1.25;font-family:sans-serif"
       x="290.04245"
       y="1286.4908"
       id="text17844"><tspan
         sodipodi:role="line"
         id="tspan17842"
         x="290.04245"
         y="1286.4908">x1: -0.8 V vs Ag/AgCl</tspan></text>
  </g>
  <g
     id="g19960"
     transform="translate(2.403185,3.0174276)">
    <path
       style="fill:none;stroke:#000000;stroke-width:1px;stroke-linecap:butt;stroke-linejoin:miter;stroke-opacity:1"
       d="m 1961.9526,1132.0845 197.7678,79.5956"
       id="path13940" />
    <text
       xml:space="preserve"
       style="font-size:85.3333px;line-height:1.25;font-family:sans-serif"
       x="2169.4746"
       y="1274.4209"
       id="text18826"><tspan
         sodipodi:role="line"
         id="tspan18824"
         x="2169.4746"
         y="1274.4209">x2: 0.4 V vs Ag/AgCl</tspan></text>
  </g>
  <g
     id="g20492">
    <text
       xml:space="preserve"
       style="font-size:85.3333px;line-height:1.25;font-family:sans-serif"
       x="941.58838"
       y="319.02423"
       id="text10845"><tspan
         sodipodi:role="line"
         id="tspan10843"
         x="941.58838"
         y="319.02423">curve: Au(110)_0.01M_KI</tspan></text>
    <path
       style="fill:none;stroke:#000000;stroke-width:1px;stroke-linecap:butt;stroke-linejoin:miter;stroke-opacity:1"
       d="m 993.03164,903.80813 c 0,0 2.00249,-30.53934 2.40315,-45.83262 0.33699,-12.86276 -3.51157,-26.22279 0,-38.60153 1.67758,-5.91369 5.38391,-11.30091 9.68341,-15.69413 5.6925,-5.81664 13.4745,-9.15353 20.4978,-13.26594 7.4463,-4.36013 15.8085,-7.15471 22.9009,-12.06964 7.9566,-5.5138 14.2279,-13.1456 21.6994,-19.30076 6.6534,-5.48123 14.2895,-9.76987 20.5685,-15.67631 5.8024,-5.4581 11.122,-11.51235 15.6206,-18.08664 4.3716,-6.38873 7.9419,-13.3549 10.885,-20.51489 4.7893,-11.65164 7.0383,-24.19531 10.8851,-36.19117 4.9287,-15.36956 11.1576,-30.32148 15.6207,-45.83262 3.8841,-13.49883 6.9874,-27.22652 9.6834,-41.01189 2.4994,-12.77998 3.4987,-25.82348 6.0079,-38.60153 1.3544,-6.89715 3.0331,-13.73218 4.8771,-20.51486 1.4338,-5.27409 4.8063,-15.67631 4.8063,-15.67631 3.2195,-0.35544 3.7508,5.38301 4.8064,8.44522 3.5762,10.37404 3.3414,21.69176 4.8064,32.56668 1.352,10.03585 2.2053,20.13713 3.6755,30.15634 1.7174,11.70442 4.2972,23.27163 6.0079,34.97704 1.9332,13.22772 2.3671,26.67185 4.8064,39.81566 1.513,8.15266 2.7243,16.53836 6.0786,24.12149 2.3436,5.29827 6.1545,9.83198 9.6128,14.48004 1.8706,2.51421 2.9517,6.5385 6.008,7.23109 5.6167,1.27282 10.3646,-5.04195 15.6914,-7.23109 4.3582,-1.79105 8.6474,-4.00496 13.2881,-4.82073 2.7614,-0.48542 5.7636,-0.92244 8.4112,0 2.4421,0.85082 3.4937,4.89829 6.0786,4.82073 10.2441,-0.30739 15.2897,-13.65174 22.901,-20.51489 8.885,-8.01158 17.1421,-16.76474 26.5764,-24.1215 5.7148,-4.45632 11.6493,-8.73865 18.0945,-12.05182 4.1624,-2.13968 8.7697,-3.27309 13.13,-4.97339 2.0104,-0.78393 3.8767,-2.0724 6.0079,-2.41036 2.9852,-0.4734 6.6256,2.41575 9.0473,0.60706 2.9737,-2.22102 1.9076,-7.19107 2.4386,-10.86449 0.8645,-5.98001 0.7018,-12.06519 1.2015,-18.08666 0.5014,-6.04094 1.8024,-18.09558 1.8024,-18.09558 0,0 2.4573,22.16528 4.2056,33.17374 1.3481,8.48872 3.0427,16.92194 4.8417,25.32667 0.9083,4.24358 1.9011,8.4706 3.004,12.66781 0.7447,2.83386 0.6196,6.14805 2.4385,8.4452 2.2907,2.89295 6.1409,4.28061 9.6481,5.42778 4.8042,1.5714 10.013,1.45755 15.0552,1.81224 9.6264,0.67717 19.2985,0.30795 28.9443,0.59812 15.2959,0.46014 30.5699,1.85316 45.8726,1.81224 13.4784,-0.036 26.9225,-1.40061 40.3947,-1.81224 12.2592,-0.37457 24.5301,-0.24276 36.7899,-0.59812 14.4845,-0.41985 28.9814,-0.76496 43.4341,-1.81224 11.6939,-0.84737 23.4952,-1.29297 34.9875,-3.61555 4.732,-0.95633 10.2356,-1.02642 13.8537,-4.22259 2.9694,-2.62315 3.6761,-7.0688 4.8417,-10.85557 3.6664,-11.91079 4.4214,-24.52935 6.6087,-36.79822 1.8272,-10.24917 3.676,-20.49464 5.4425,-30.75445 1.4529,-8.43853 4.2409,-25.3356 4.2409,-25.3356 0,0 1.713,35.00199 3.0041,52.4745 0.4908,6.64201 0.8239,13.31104 1.8023,19.8989 0.7242,4.87597 1.2447,9.8752 3.004,14.48004 1.5761,4.1255 3.3848,8.48253 6.6441,11.46261 2.4552,2.24489 5.7992,3.49439 9.0473,4.21368 3.531,0.78194 7.2356,0.13468 10.8497,0 8.0705,-0.30076 16.0907,-1.50256 24.1612,-1.80332 6.6277,-0.24699 13.2656,0.11502 19.8969,0 5.8339,-0.10119 11.678,-0.13673 17.4938,-0.60704 11.103,-0.89787 22.1781,-2.29808 33.1498,-4.22261 9.953,-1.74584 19.688,-4.57105 29.5804,-6.63296 5.2029,-1.08446 10.4492,-1.95189 15.656,-3.01743 4.6409,-0.94972 9.7759,-0.65854 13.889,-3.00848 6.4204,-3.66822 10.8475,-10.21178 15.0553,-16.29228 4.6068,-6.6571 7.3298,-14.43787 10.885,-21.71113 2.2494,-4.60188 6.6087,-13.87297 6.6087,-13.87297 0,0 3.0322,31.86556 1.237,47.65377 -0.8208,7.21835 -3.1977,14.19474 -5.4425,21.10409 -2.5385,7.81327 -3.8496,16.5632 -9.0473,22.92523 -3.0318,3.71098 -7.5848,6.10194 -12.0512,7.83814 -4.5636,1.774 -9.73,1.26246 -14.4898,2.41036 -4.5072,1.08698 -8.7179,3.25785 -13.2529,4.22261 -5.3446,1.137 -10.841,1.43471 -16.2922,1.81223 -7.2303,0.50074 -14.5189,-0.0805 -21.7347,0.59814 -6.2847,0.59102 -12.4719,1.96154 -18.6954,3.01741 -9.0599,1.53709 -18.2938,2.34804 -27.1418,4.82965 -7.4722,2.09575 -14.6429,5.20635 -21.6994,8.43627 -3.5164,1.60952 -6.5594,4.27773 -10.2489,5.4367 -7.9251,2.48953 -16.7356,0.78208 -24.7386,3.00852 -6.1572,1.71293 -11.6823,5.18767 -17.4938,7.84707 -3.0263,1.38485 -5.7982,3.50173 -9.0473,4.22261 -6.6704,1.47998 -13.6651,0 -20.4977,0 -3.216,0 -6.8345,-1.55779 -9.6481,0 -3.3205,1.83847 -4.7402,6.08558 -6.0433,9.65036 -1.4633,4.00311 -1.2332,8.43487 -1.8024,12.65888 -1.2723,9.44174 -2.602,18.87885 -3.6048,28.35301 -0.7645,7.22258 -1.1086,14.48489 -1.8377,21.71113 -0.6908,6.84733 -1.8011,13.65024 -2.4032,20.50595 -0.599,6.82079 -1.0012,13.66183 -1.2016,20.50594 -0.1353,4.62235 0,13.87298 0,13.87298 0,0 -2.7758,-30.15893 -4.2056,-45.23447 -1.583,-16.69102 -2.6965,-33.43606 -4.8417,-50.06417 -0.9638,-7.47095 0.024,-15.70794 -3.6047,-22.30925 -1.1684,-2.12555 -3.2233,-3.85097 -5.4426,-4.82964 -3.5116,-1.54856 -7.6136,-1.29642 -11.4504,-1.20518 -5.2903,0.12581 -10.4453,1.71638 -15.6914,2.41037 -7.2148,0.95442 -14.4763,1.52141 -21.6994,2.41036 -7.4565,0.91767 -14.8831,2.06606 -22.3354,3.01739 -10.0395,1.28161 -20.1153,2.27459 -30.1459,3.62449 -9.4667,1.27402 -18.9038,2.76126 -28.3434,4.22261 -11.2721,1.74504 -22.5876,3.2593 -33.786,5.42776 -8.9067,1.7247 -17.6618,4.16474 -26.541,6.0259 -5.213,1.09269 -10.575,1.5368 -15.6914,3.01743 -4.7642,1.37872 -10.1906,2.08408 -13.8537,5.42779 -3.3211,3.03158 -4.2256,7.94778 -6.0433,12.06073 -2.2649,5.12488 -4.2075,10.39145 -6.0433,15.68522 -1.9992,5.76498 -3.5679,11.67057 -5.4072,17.48856 -1.9749,6.24684 -6.0432,18.70261 -6.0432,18.70261 0,0 -0.6897,-18.62219 -2.4032,-27.74595 -0.6576,-3.50153 -1.6242,-6.9727 -3.004,-10.25743 -0.8031,-1.91178 -1.0174,-4.96746 -3.0393,-5.42779 -2.3867,-0.54341 -3.8226,3.11999 -6.008,4.22261 -2.8383,1.43201 -5.8964,2.5955 -9.0473,3.01739 -3.6018,0.48226 -7.2666,-0.27109 -10.885,-0.60703 -4.6369,-0.4305 -9.3292,-0.70079 -13.8537,-1.80333 -4.5789,-1.1158 -8.7985,-3.39637 -13.2882,-4.82964 -5.7513,-1.83603 -11.611,-3.3186 -17.4584,-4.82073 -4.2104,-1.0816 -8.341,-2.93961 -12.6874,-3.01742 -3.0752,-0.055 -5.9745,1.67964 -9.0473,1.81224 -3.6358,0.15689 -7.2793,-0.51002 -10.8497,-1.21413 -2.8726,-0.5665 -5.5982,-3.08825 -8.4465,-2.41036 -3.4619,0.82392 -4.8561,5.30972 -7.8456,7.24004 -6.0529,3.9083 -13.0441,6.22026 -19.897,8.44518 -5.1052,1.65749 -10.4231,2.58809 -15.6914,3.61554 -4.9883,0.97286 -10.4066,0.35597 -15.0552,2.41037 -3.5411,1.56496 -6.3182,4.52948 -9.0783,7.24434 -4.2747,4.20469 -8.4965,8.65506 -11.4505,13.87299 -5.0434,8.90872 -7.3758,19.12535 -10.2489,28.95115 -4.2291,14.4632 -7.2789,29.2561 -10.2489,44.02932 -4.2607,21.193 -7.7227,42.54742 -10.8496,63.93711 -3.3402,22.84873 -5.3719,45.87191 -8.4465,68.75791 -2.597,19.3314 -6.2923,38.5166 -8.4465,57.9023 -0.5789,5.2096 -1.2016,15.6789 -1.2016,15.6789 0,0 -4.8613,-15.5729 -6.6441,-23.5233 -1.8729,-8.3523 -3.2774,-16.8213 -4.2409,-25.3267 -1.1335,-10.006 -1.3996,-20.0943 -1.8024,-30.1563 -0.3942,-9.8469 -0.042,-19.7193 -0.6008,-29.55823 -0.7326,-12.90238 -2.4257,-25.73226 -3.6048,-38.60152 -0.8287,-9.04487 0.035,-18.39944 -2.4385,-27.13892 -1.5906,-5.61998 -4.8451,-10.65313 -7.8103,-15.68522 -1.9827,-3.36478 -3.8626,-6.90891 -6.6442,-9.65039 -3.0966,-3.05198 -6.8157,-5.61785 -10.8496,-7.24001 -5.3066,-2.13396 -11.1867,-2.61807 -16.893,-3.0085 -5.0224,-0.34364 -10.1561,-0.39847 -15.0906,0.59813 -6.7339,1.36001 -12.6321,5.5709 -19.2961,7.24002 -6.2629,1.56865 -19.20096,2.54707 -19.20096,2.54707 z"
       id="path20059"
       sodipodi:nodetypes="cssssssssssssssssssssssssssssssssssscsssssssssssssssscssssssssssssssscssssssssssssssssssssssscssssssssssssssssscsssssssssssssssssssssssscssssssssssssc" />
  </g>
</svg>
