<?xml version="1.0" encoding="UTF-8" standalone="no"?>
<svg
   height="7176px"
   version="1.1"
   width="5825px"
   id="svg40641"
   sodipodi:docname="Jovic_1999_Cyclic_247_p4_7_solid.svg"
   inkscape:version="1.1 (ce6663b3b7, 2021-05-25)"
   xmlns:inkscape="http://www.inkscape.org/namespaces/inkscape"
   xmlns:sodipodi="http://sodipodi.sourceforge.net/DTD/sodipodi-0.dtd"
   xmlns:xlink="http://www.w3.org/1999/xlink"
   xmlns="http://www.w3.org/2000/svg"
   xmlns:svg="http://www.w3.org/2000/svg">
  <sodipodi:namedview
     id="namedview40643"
     pagecolor="#ffffff"
     bordercolor="#666666"
     borderopacity="1.0"
     inkscape:pageshadow="2"
     inkscape:pageopacity="0.0"
     inkscape:pagecheckerboard="0"
     showgrid="false"
     inkscape:zoom="0.59359131"
     inkscape:cx="1395.7415"
     inkscape:cy="1963.4721"
     inkscape:window-width="1608"
     inkscape:window-height="986"
     inkscape:window-x="72"
     inkscape:window-y="27"
     inkscape:window-maximized="1"
     inkscape:current-layer="svg40641" />
  <defs
     id="defs40637" />
  <image
     height="7176px"
     sodipodi:insensitive="true"
     width="5825px"
     x="0"
     xlink:href="Jovic_1999_Cyclic_247_p4.png"
     y="0"
     id="image40639" />
  <g
     id="g55594">
    <path
       style="fill:none;stroke:#000000;stroke-width:1.2507px;stroke-linecap:butt;stroke-linejoin:miter;stroke-opacity:1"
       d="M 832.06157,936.44025 467.44462,799.44421"
       id="path40678" />
    <text
       xml:space="preserve"
       style="font-size:85.3333px;line-height:1.25;font-family:sans-serif"
       x="243.39091"
       y="772.32739"
       id="text43020"><tspan
         sodipodi:role="line"
         id="tspan43018"
         x="243.39091"
         y="772.32739">y2: 20 uA/cm2</tspan></text>
  </g>
  <g
     id="g55589">
    <path
       style="fill:none;stroke:#000000;stroke-width:1.65717px;stroke-linecap:butt;stroke-linejoin:miter;stroke-opacity:1"
       d="M 840.45262,2038.611 302.39911,1936.9807"
       id="path40680" />
    <text
       xml:space="preserve"
       style="font-size:85.3333px;line-height:1.25;font-family:sans-serif"
       x="202.96954"
       y="1914.5226"
       id="text45652"><tspan
         sodipodi:role="line"
         id="tspan45650"
         x="202.96954"
         y="1914.5226">y1: -20 uA/cm2</tspan></text>
  </g>
  <g
     id="g55584">
    <path
       style="fill:none;stroke:#000000;stroke-width:1.1177px;stroke-linecap:butt;stroke-linejoin:miter;stroke-opacity:1"
       d="M 961.8853,2174.8362 307.34801,2333.9715"
       id="path40682" />
    <text
       xml:space="preserve"
       style="font-size:85.3333px;line-height:1.25;font-family:sans-serif"
       x="209.70644"
       y="2406.4023"
       id="text47702"><tspan
         sodipodi:role="line"
         id="tspan47700"
         x="209.70644"
         y="2406.4023">x1: -1.1 V vs SCE</tspan></text>
  </g>
  <g
     id="g55579">
    <path
       style="fill:none;stroke:#000000;stroke-width:1px;stroke-linecap:butt;stroke-linejoin:miter;stroke-opacity:1"
       d="m 2423.2947,2169.7473 104.4218,448.1006"
       id="path40684" />
    <text
       xml:space="preserve"
       style="font-size:85.3333px;line-height:1.25;font-family:sans-serif"
       x="2524.3481"
       y="2674.2856"
       id="text52062"><tspan
         sodipodi:role="line"
         id="tspan52060"
         x="2524.3481"
         y="2674.2856">x2: 0.1 V vs SCE</tspan></text>
  </g>
  <text
     xml:space="preserve"
     style="font-size:85.3333px;line-height:1.25;font-family:sans-serif"
     x="1055.3203"
     y="2019.0104"
     id="text59700"><tspan
       sodipodi:role="line"
       id="tspan59698"
       x="1055.3203"
       y="2019.0104">scan rate: 50 mV/s</tspan></text>
  <g
     id="g75317">
    <text
       xml:space="preserve"
       style="font-size:85.3333px;line-height:1.25;font-family:sans-serif"
       x="1331.6194"
       y="704.98877"
       id="text63766"><tspan
         sodipodi:role="line"
         id="tspan63764"
         x="1331.6194"
         y="704.98877">curve: Ag(111)_0.1M_NaOH</tspan></text>
    <path
       style="fill:none;stroke:#000000;stroke-width:1px;stroke-linecap:butt;stroke-linejoin:miter;stroke-opacity:1"
       d="m 865.36494,1487.2062 c -0.45369,-11.1395 -4.25324,-24.4019 2.38189,-33.3612 6.58141,-8.8867 20.17782,-9.4707 30.96404,-11.9092 10.09762,-2.2829 20.63552,-1.7025 30.96412,-2.4049 13.5093,-0.9187 27.03651,-1.5524 40.55252,-2.3664 12.70465,-0.7652 25.38804,-1.9721 38.10959,-2.3667 11.9036,-0.3693 23.8238,0.3504 35.7279,0 27.0294,-0.7956 53.992,-3.1246 80.9829,-4.7713 12.7049,-0.7751 25.398,-1.7514 38.1097,-2.4047 19.8585,-1.0206 39.7677,-1.0275 59.6073,-2.3666 16.7106,-1.1279 33.3083,-3.6432 50.0189,-4.7714 19.8193,-1.3381 39.7707,-0.4899 59.5463,-2.3666 15.9863,-1.5171 31.9737,-3.6368 47.637,-7.176 18.6156,-4.2063 36.8795,-10.0309 54.7826,-16.6424 13.0081,-4.8038 25.6308,-10.6336 38.1096,-16.6807 12.1667,-5.8959 24.9263,-11.036 35.789,-19.0853 10.827,-8.0229 19.308,-18.8134 28.5822,-28.5899 7.3513,-7.7494 15.7476,-14.7781 21.4366,-23.8185 7.7755,-12.356 11.8283,-26.7275 16.6731,-40.4992 4.6696,-13.2738 8.623,-26.8169 11.9091,-40.4991 3.0172,-12.5623 -0.3055,-19.6903 2.9352,-32.1968 2.5197,-9.724 7.9187,-18.6743 9.5274,-28.5899 0.6378,-3.9311 3.9208,-9.9681 6.7368,-12.7841 2.807,-2.807 6.1899,1.0015 9.3828,3.3603 0,0 5.5086,12.5398 9.5275,22.5735 5.9401,14.8303 12.6928,29.4953 21.4367,42.8657 6.7889,10.3811 13.1602,22.2451 23.8186,28.5899 6.9577,4.1418 16.0222,2.5843 23.8184,4.7713 8.9492,2.5105 17.3119,6.8248 26.2003,9.5427 9.4097,2.8773 19.4588,3.6072 28.6433,7.1379 12.5972,4.8427 23.4912,13.3547 35.7279,19.0472 11.6324,5.4114 24.4289,8.2369 35.7278,14.314 11.0583,5.9477 19.66,15.9858 30.9641,21.4519 17.1816,8.3082 36.4587,11.3067 54.7825,16.6424 14.244,4.1477 28.4902,8.3112 42.8733,11.9474 17.366,4.3904 34.6001,9.912 52.4008,11.9093 11.8552,1.3302 23.8618,-0.2468 35.7889,0 19.067,0.3945 38.0974,1.9721 57.1644,2.3666 14.2881,0.2956 28.7458,2.156 42.8734,0 13.1567,-2.0078 26.3174,-5.7389 38.1096,-11.9092 8.0221,-4.1976 14.6491,-10.6887 21.4366,-16.6807 6.7326,-5.9435 13.2687,-12.1788 19.0548,-19.0471 10.6456,-12.6367 20.5668,-26.0505 28.5823,-40.4992 7.9424,-14.3169 12.6478,-30.2037 19.0548,-45.2704 7.1045,-16.7068 12.8436,-34.0825 21.4977,-50.0418 6.8229,-12.5823 15.4799,-24.0945 23.8186,-35.7278 7.5851,-10.582 14.8622,-21.5067 23.8185,-30.9564 5.0388,-5.3164 12.8256,-8.0809 16.6729,-14.314 1.722,-2.7899 1.6778,-6.3407 2.3819,-9.5427 3.6439,-16.5718 5.7789,-33.4551 9.5274,-50.0036 3.4472,-15.2181 3.3185,-18.2733 6.8351,-33.4755 0.9123,-3.9442 3.4247,-16.58642 7.4561,-16.95654 l 8.6853,22.13164 c 5.0078,12.7607 6.1746,21.8505 7.9876,35.4383 2.3199,17.3874 3.9689,34.8849 4.7637,52.4084 1.2596,27.7725 0,55.602 0,83.403 v 88.1361 109.5882 c 0,31.758 -0.4808,63.5197 0,95.2741 0.397,26.2195 1.5879,52.421 2.3818,78.6315 0.794,26.2106 2.2762,52.4093 2.3819,78.6317 0.1441,35.7363 -0.6152,71.4905 -2.3819,107.1834 -0.5123,10.3493 -0.2553,20.8531 -2.3818,30.9946 -3.4525,16.4655 -12.8298,31.2584 -16.673,47.6371 -2.9262,12.4709 -2.8716,25.4633 -4.7636,38.1324 -2.7373,18.3292 -2.1831,37.7599 -9.5274,54.775 -1.5748,3.6485 -3.3542,8.3527 -7.1457,9.5427 -2.3939,0.7513 -5.6097,-0.3825 -7.1455,-2.3666 -7.3138,-9.4484 -1.0521,-23.8918 -2.3819,-35.766 -1.7002,-15.182 -4.352,-30.251 -7.1455,-45.2704 -2.0773,-11.1686 -3.8332,-22.4565 -7.1455,-33.323 -1.2466,-4.0898 -1.811,-8.8171 -4.7638,-11.9093 -6.6253,-6.9381 -19.0465,-5.5174 -26.2003,-11.9092 -3.4604,-3.0918 -4.8661,-7.9056 -7.1456,-11.9475 -7.5078,-13.3126 -14.3186,-27.0064 -21.4977,-40.4991 -6.34,-11.9155 -13.0231,-23.6534 -19.0549,-35.7278 -5.8732,-11.7568 -10.6299,-24.0572 -16.6729,-35.7277 -5.8886,-11.3724 -10.6874,-23.6663 -19.0548,-33.3613 -9.2339,-10.699 -21.2261,-18.9157 -33.346,-26.185 -18.5993,-11.1555 -38.5474,-20.7984 -59.5462,-26.2233 -16.9816,-4.3871 -34.9189,-3.3553 -52.4008,-4.7714 -11.1069,-0.8997 -22.2223,-3.029 -33.3459,-2.3666 -21.0038,1.2507 -41.3236,7.9529 -61.9893,11.9093 -16.6709,3.1916 -33.4561,5.8305 -50.0189,9.5427 -24.8028,5.5591 -49.3081,12.3841 -73.8374,19.0472 -16.7324,4.5451 -33.7452,8.2926 -50.0189,14.2758 -18.0081,6.6209 -36.0469,13.7845 -52.4007,23.8186 -13.0143,7.9851 -23.1091,20.0833 -35.7888,28.5898 -13.5815,9.1114 -29.4205,14.5565 -42.8734,23.8567 -11.1189,7.6866 -21.9665,16.0975 -30.9641,26.185 -7.6234,8.5468 -13.6729,18.4807 -19.0548,28.59 -6.8604,12.8865 -11.5051,26.8454 -16.673,40.499 -7.7353,20.4368 -7.9093,26.307 -15.5419,46.7823 -1.4934,4.0063 -6.5748,25.8114 -10.6584,27.0781 -2.7354,0.8485 -5.5239,-14.6471 -6.3034,-17.403 0,0 -7.8638,-25.3886 -10.3695,-44.5481 -2.1712,-16.602 -2.2122,-33.4558 -4.7638,-50.0036 -3.4663,-22.4796 -6.2231,-45.4562 -14.2911,-66.7224 -7.4436,-19.6203 -17.1111,-39.0506 -30.9641,-54.8131 -7.8588,-8.9421 -19.4295,-13.8013 -28.5822,-21.4137 -10.8122,-8.9927 -19.9731,-19.8939 -31.0252,-28.59 -9.0033,-7.084 -18.2333,-14.1717 -28.5822,-19.0853 -9.7532,-4.6308 -20.3799,-7.3734 -30.9641,-9.5045 -23.4661,-4.7249 -47.5209,-7.4784 -71.4555,-7.1379 -24.8131,0.353 -49.0728,7.9171 -73.8375,9.5044 -15.8668,1.017 -31.8207,0.8347 -47.6981,0 -15.1477,-0.7963 -30.2995,-2.238 -45.2551,-4.7713 -13.6693,-2.3155 -26.8367,-7.1053 -40.4916,-9.5045 -13.3855,-2.3518 -26.9087,-4.3117 -40.4914,-4.7713 -15.8895,-0.5377 -31.7418,2.6938 -47.637,2.3666 -17.5355,-0.361 -34.89727,-3.6535 -52.4008,-4.7713 -21.42788,-1.3684 -43.06394,0.2851 -64.37111,-2.3666 -11.2801,-1.4038 -23.36239,-1.7029 -33.34593,-7.138 -3.94776,-2.1492 -7.49719,-5.5325 -9.52741,-9.5427 -4.7156,-9.3146 -4.33885,-20.5248 -4.76371,-30.9564 z"
       id="path73617"
       sodipodi:nodetypes="sssssssssssssssssssssssssssssssssssssssssssssssssssssssssssssssssssssssssssssssssssssssssssssssssssssssssssssssssss" />
  </g>
</svg>
