<?xml version="1.0" encoding="UTF-8" standalone="no"?>
<svg
   height="7176px"
   version="1.1"
   width="5825px"
   id="svg40641"
   sodipodi:docname="jovic_1999_cyclic_247_f7_solid.svg"
   inkscape:version="1.1.2 (b8e25be833, 2022-02-05)"
   xmlns:inkscape="http://www.inkscape.org/namespaces/inkscape"
   xmlns:sodipodi="http://sodipodi.sourceforge.net/DTD/sodipodi-0.dtd"
   xmlns:xlink="http://www.w3.org/1999/xlink"
   xmlns="http://www.w3.org/2000/svg"
   xmlns:svg="http://www.w3.org/2000/svg"
   xmlns:rdf="http://www.w3.org/1999/02/22-rdf-syntax-ns#"
   xmlns:cc="http://creativecommons.org/ns#"
   xmlns:dc="http://purl.org/dc/elements/1.1/">
  <metadata
     id="metadata28">
    <rdf:RDF>
      <cc:Work
         rdf:about="">
        <dc:format>image/svg+xml</dc:format>
        <dc:type
           rdf:resource="http://purl.org/dc/dcmitype/StillImage" />
      </cc:Work>
    </rdf:RDF>
  </metadata>
  <sodipodi:namedview
     id="namedview40643"
     pagecolor="#ffffff"
     bordercolor="#666666"
     borderopacity="1.0"
     inkscape:pageshadow="2"
     inkscape:pageopacity="0.0"
     inkscape:pagecheckerboard="0"
     showgrid="false"
     inkscape:zoom="0.29679566"
     inkscape:cx="1789.1097"
     inkscape:cy="1826.1723"
     inkscape:window-width="1920"
     inkscape:window-height="1017"
     inkscape:window-x="-8"
     inkscape:window-y="32"
     inkscape:window-maximized="1"
     inkscape:current-layer="svg40641" />
  <defs
     id="defs40637" />
  <image
     xlink:href="jovic_1999_cyclic_247_p4.png"
     id="image40639"
     y="0"
     x="0"
     width="5825px"
     sodipodi:insensitive="true"
     height="7176px" />
  <g
     id="g55594">
    <path
       style="fill:none;stroke:#000000;stroke-width:1.2507px;stroke-linecap:butt;stroke-linejoin:miter;stroke-opacity:1"
       d="M 832.06157,936.44025 467.44462,799.44421"
       id="path40678" />
    <text
       xml:space="preserve"
       style="font-size:85.3333px;line-height:1.25;font-family:sans-serif"
       x="243.39091"
       y="772.32739"
       id="text43020"><tspan
         sodipodi:role="line"
         id="tspan43018"
         x="243.39091"
         y="772.32739">j2: 20 uA / cm2</tspan></text>
  </g>
  <g
     id="g55589">
    <path
       style="fill:none;stroke:#000000;stroke-width:1.65717px;stroke-linecap:butt;stroke-linejoin:miter;stroke-opacity:1"
       d="M 840.45262,2038.611 302.39911,1936.9807"
       id="path40680" />
    <text
       xml:space="preserve"
       style="font-size:85.3333px;line-height:1.25;font-family:sans-serif"
       x="202.96954"
       y="1914.5226"
       id="text45652"><tspan
         sodipodi:role="line"
         id="tspan45650"
         x="202.96954"
         y="1914.5226">j1: -20 uA / cm2</tspan></text>
  </g>
  <g
     id="g55584">
    <path
       style="fill:none;stroke:#000000;stroke-width:1.1177px;stroke-linecap:butt;stroke-linejoin:miter;stroke-opacity:1"
       d="M 961.8853,2174.8362 307.34801,2333.9715"
       id="path40682" />
    <text
       xml:space="preserve"
       style="font-size:85.3333px;line-height:1.25;font-family:sans-serif"
       x="209.70644"
       y="2406.4023"
       id="text47702"><tspan
         sodipodi:role="line"
         id="tspan47700"
         x="209.70644"
         y="2406.4023">E1: -1.1 V vs SCE</tspan></text>
  </g>
  <g
     id="g55579">
    <path
       style="fill:none;stroke:#000000;stroke-width:1px;stroke-linecap:butt;stroke-linejoin:miter;stroke-opacity:1"
       d="m 2423.2947,2169.7473 104.4218,448.1006"
       id="path40684" />
    <text
       xml:space="preserve"
       style="font-size:85.3333px;line-height:1.25;font-family:sans-serif"
       x="2524.3481"
       y="2674.2856"
       id="text52062"><tspan
         sodipodi:role="line"
         id="tspan52060"
         x="2524.3481"
         y="2674.2856">E2: 0.1 V vs SCE</tspan></text>
  </g>
  <text
     xml:space="preserve"
     style="font-size:85.3333px;line-height:1.25;font-family:sans-serif"
     x="1055.3203"
     y="2019.0104"
     id="text59700"><tspan
       sodipodi:role="line"
       id="tspan59698"
       x="1055.3203"
       y="2019.0104">scan rate: 50 mV / s</tspan></text>
  <g
     id="g7080">
    <text
       xml:space="preserve"
       style="font-size:85.3333px;line-height:1.25;font-family:sans-serif"
       x="1331.6194"
       y="704.98877"
       id="text63766"><tspan
         sodipodi:role="line"
         id="tspan63764"
         x="1331.6194"
         y="704.98877">curve: solid</tspan></text>
    <path
       style="fill:none;stroke:#00ff00;stroke-width:1px;stroke-linecap:butt;stroke-linejoin:miter;stroke-opacity:1"
       d="m 884.20895,1445.6046 c 30.75014,-12.3106 54.92086,-8.6791 85.73448,-9.8525 88.25467,-3.3609 129.27097,-5.4588 217.07447,-9.789 66.4287,-3.276 146.1148,-9.2877 197.7732,-19.6925 80.6271,-16.2395 124.3125,-43.7256 164.8713,-92.2863 37.6794,-45.1132 45.2952,-164.0975 59.2909,-164.2245 12.4252,-0.1128 19.8878,48.4346 36.5391,69.9346 29.9579,38.6814 37.177,34.7592 61.1712,38.5728 29.7845,4.7339 49.0692,15.0812 70.6834,26.4399 75.5152,39.6847 124.4157,59.6608 194.455,74.1675 71.7721,14.8656 115.59,13.5312 170.593,8.3721 24.9345,-2.3387 64.7833,-27.7222 82.4463,-55.9938 32.8368,-52.559 54.3549,-116.7106 88.8958,-172.4222 19.259,-31.0632 30.6046,-24.4861 39.734,-42.1165 16.7684,-32.3824 10.6012,-105.34892 21.5093,-105.43587 3.6407,-0.029 16.2148,39.66397 18.6159,64.40837 3.8546,39.7223 9.5464,579.2933 3.2548,706.4685 -1.1498,23.2405 -10.3617,35.2272 -18.9524,74.7567 -6.9285,31.8811 -10.2407,92.2948 -18.1101,92.4458 -12.0102,0.2304 -11.5845,-65.2135 -19.7948,-98.1315 -8.9537,-35.8986 -13.1007,-33.7033 -26.9546,-43.8011 -29.0799,-21.1957 -49.9878,-78.1211 -75.8097,-128.0343 -14.6008,-28.2231 -34.293,-51.5695 -62.7536,-65.7018 -43.8239,-21.7611 -92.5551,-27.2306 -146.1444,-21.9005 -83.8241,8.3373 -96.4371,19.7589 -144.8808,30.3239 -30.236,6.5941 -62.4786,10.9516 -90.1294,24.8488 -36.3705,18.2795 -120.6816,68.8288 -156.2522,109.5029 -18.8533,21.5583 -24.9746,46.4394 -34.9567,73.2827 -6.2203,16.7273 -12.286,54.1516 -19.3736,55.1727 -10.7832,1.5535 -22.1535,-123.6742 -32.8509,-166.7815 -7.9154,-31.8966 -28.8285,-61.1669 -57.2784,-84.6541 -30.0805,-24.8334 -75.1413,-52.8592 -99.3951,-59.3844 -35.794,-9.63 -72.4465,3.3333 -109.5029,4.2117 -34.8247,0.8255 -61.3806,6.9959 -96.0257,3.3693 -32.7808,-3.4315 -57.0384,-19.5428 -102.3431,-19.7947 -84.7921,-0.4715 -163.69856,-8.3911 -200.87827,-10.9204 -21.26333,-1.4465 -19.26992,-77.7486 -0.25548,-85.3608 z"
       id="path2161"
       sodipodi:nodetypes="sssssssssssssssssssssssssssssssssssss" />
  </g>
  <text
     xml:space="preserve"
     style="font-size:80px;line-height:1.25;font-family:sans-serif;-inkscape-font-specification:sans-serif;letter-spacing:0px;word-spacing:0px"
     x="70.755753"
     y="1031.0125"
     id="text7964"><tspan
       sodipodi:role="line"
       id="tspan7962"
       x="70.755753"
       y="1031.0125">Figure: 7</tspan></text>
  <text
     xml:space="preserve"
     style="font-size:80px;line-height:1.25;font-family:sans-serif;-inkscape-font-specification:sans-serif;letter-spacing:0px;word-spacing:0px"
     x="84.23304"
     y="1175.8932"
     id="text9200"><tspan
       sodipodi:role="line"
       id="tspan9198"
       x="84.23304"
       y="1175.8932">Tags: BCV</tspan></text>
</svg>
