<?xml version="1.0" encoding="UTF-8" standalone="no"?>
<svg
   height="7176px"
   version="1.1"
   width="5825px"
   id="svg40641"
   sodipodi:docname="jovic_1999_cyclic_247_f7_dashed.svg"
   inkscape:version="1.1.2 (b8e25be833, 2022-02-05)"
   xmlns:inkscape="http://www.inkscape.org/namespaces/inkscape"
   xmlns:sodipodi="http://sodipodi.sourceforge.net/DTD/sodipodi-0.dtd"
   xmlns:xlink="http://www.w3.org/1999/xlink"
   xmlns="http://www.w3.org/2000/svg"
   xmlns:svg="http://www.w3.org/2000/svg"
   xmlns:rdf="http://www.w3.org/1999/02/22-rdf-syntax-ns#"
   xmlns:cc="http://creativecommons.org/ns#"
   xmlns:dc="http://purl.org/dc/elements/1.1/">
  <metadata
     id="metadata28">
    <rdf:RDF>
      <cc:Work
         rdf:about="">
        <dc:format>image/svg+xml</dc:format>
        <dc:type
           rdf:resource="http://purl.org/dc/dcmitype/StillImage" />
      </cc:Work>
    </rdf:RDF>
  </metadata>
  <sodipodi:namedview
     id="namedview40643"
     pagecolor="#ffffff"
     bordercolor="#666666"
     borderopacity="1.0"
     inkscape:pageshadow="2"
     inkscape:pageopacity="0.0"
     inkscape:pagecheckerboard="0"
     showgrid="false"
     inkscape:zoom="0.20986622"
     inkscape:cx="1338.9482"
     inkscape:cy="1562.9004"
     inkscape:window-width="1920"
     inkscape:window-height="1017"
     inkscape:window-x="-8"
     inkscape:window-y="32"
     inkscape:window-maximized="1"
     inkscape:current-layer="svg40641" />
  <defs
     id="defs40637" />
  <image
     xlink:href="jovic_1999_cyclic_247_p4.png"
     height="7176px"
     sodipodi:insensitive="true"
     width="5825px"
     x="0"
     y="0"
     id="image40639" />
  <g
     id="g55594">
    <path
       style="fill:none;stroke:#000000;stroke-width:1.2507px;stroke-linecap:butt;stroke-linejoin:miter;stroke-opacity:1"
       d="M 832.06157,936.44025 467.44462,799.44421"
       id="path40678" />
    <text
       xml:space="preserve"
       style="font-size:85.3333px;line-height:1.25;font-family:sans-serif"
       x="243.39091"
       y="772.32739"
       id="text43020"><tspan
         sodipodi:role="line"
         id="tspan43018"
         x="243.39091"
         y="772.32739">j2: 20 uA / cm2</tspan></text>
  </g>
  <g
     id="g55589">
    <path
       style="fill:none;stroke:#000000;stroke-width:1.65717px;stroke-linecap:butt;stroke-linejoin:miter;stroke-opacity:1"
       d="M 840.45262,2038.611 302.39911,1936.9807"
       id="path40680" />
    <text
       xml:space="preserve"
       style="font-size:85.3333px;line-height:1.25;font-family:sans-serif"
       x="202.96954"
       y="1914.5226"
       id="text45652"><tspan
         sodipodi:role="line"
         id="tspan45650"
         x="202.96954"
         y="1914.5226">j1: -20 uA / cm2</tspan></text>
  </g>
  <g
     id="g55584">
    <path
       style="fill:none;stroke:#000000;stroke-width:1.1177px;stroke-linecap:butt;stroke-linejoin:miter;stroke-opacity:1"
       d="M 961.8853,2174.8362 307.34801,2333.9715"
       id="path40682" />
    <text
       xml:space="preserve"
       style="font-size:85.3333px;line-height:1.25;font-family:sans-serif"
       x="209.70644"
       y="2406.4023"
       id="text47702"><tspan
         sodipodi:role="line"
         id="tspan47700"
         x="209.70644"
         y="2406.4023">E1: -1.1 V vs SCE</tspan></text>
  </g>
  <g
     id="g55579">
    <path
       style="fill:none;stroke:#000000;stroke-width:1px;stroke-linecap:butt;stroke-linejoin:miter;stroke-opacity:1"
       d="m 2423.2947,2169.7473 104.4218,448.1006"
       id="path40684" />
    <text
       xml:space="preserve"
       style="font-size:85.3333px;line-height:1.25;font-family:sans-serif"
       x="2524.3481"
       y="2674.2856"
       id="text52062"><tspan
         sodipodi:role="line"
         id="tspan52060"
         x="2524.3481"
         y="2674.2856">E2: 0.1 V vs SCE</tspan></text>
  </g>
  <text
     xml:space="preserve"
     style="font-size:85.3333px;line-height:1.25;font-family:sans-serif"
     x="1055.3203"
     y="2019.0104"
     id="text59700"><tspan
       sodipodi:role="line"
       id="tspan59698"
       x="1055.3203"
       y="2019.0104">scan rate: 50 mV / s</tspan></text>
  <g
     id="g858">
    <text
       id="text63766"
       y="704.98877"
       x="1331.6194"
       style="font-size:85.3333px;line-height:1.25;font-family:sans-serif"
       xml:space="preserve"><tspan
         y="704.98877"
         x="1331.6194"
         id="tspan63764"
         sodipodi:role="line">curve: dashed</tspan></text>
    <path
       style="fill:none;stroke:#00ff00;stroke-width:1px;stroke-linecap:butt;stroke-linejoin:miter;stroke-opacity:1"
       d="m 882.70517,1448.5418 c 28.1842,-8.8824 51.164,-8.747 76.23904,-8.9342 75.08399,-0.5606 134.26939,-3.5217 202.50999,-6.5518 50.11,-2.225 100.8641,-5.4537 155.4562,-10.7212 33.2539,-3.2086 45.8166,-38.0135 62.5398,-64.3266 35.8988,-56.485 53.1474,-187.5359 62.242,-186.4284 7.9657,0.9701 14.756,57.7996 24.1225,90.5339 10.3411,36.1402 18.2995,66.8315 57.7749,89.9383 64.9354,38.0098 149.9092,48.3604 225.1434,49.4362 75.5194,1.0799 113.5185,-9.8986 215.018,-33.9502 60.574,-14.3538 103.3668,-63.885 161.4123,-95.2988 18.2965,-9.9019 26.9657,-18.9373 53.6056,-26.2071 42.8734,-11.6998 67.1687,-41.7368 97.6813,-66.7092 33.8989,-27.7438 60.7506,-51.7867 94.1075,-91.7251 11.5332,-13.8088 20.4451,-65.3076 21.4422,-45.267 9.2751,186.403 5.903,398.5934 2.9782,559.8805 -0.3132,17.2691 -13.363,36.2074 -32.759,50.6275 -24.5058,18.2191 -42.2531,7.1146 -80.4083,20.8466 -55.1043,19.8319 -84.4372,50.2648 -123.2929,52.4144 -36.7352,2.0323 -68.0402,-26.1884 -103.0418,-37.5239 -26.164,-8.4733 -53.4761,-12.8964 -80.4084,-18.4642 -39.0795,-8.079 -80.3799,-8.5155 -119.1235,-15.486 -50.1947,-9.0307 -135.1401,-14.8291 -202.51,-9.5299 -35.1688,2.7663 -70.7757,8.6124 -103.6374,21.4422 -15.0976,5.8944 -25.3778,17.8325 -39.9063,25.016 -15.4862,7.6569 -29.4404,-2.9555 -39.3108,4.1693 -28.3031,11.8696 -34.9264,88.2837 -51.6699,89.7894 -15.457,-1.7497 -32.2165,-60.3204 -50.1807,-90.385 -35.9669,-60.1936 -76.9424,-84.2898 -126.2709,-110.7849 -49.3037,-26.4818 -98.4633,-37.2693 -160.8168,-41.991 -67.8465,-5.1377 -177.86637,-3.0801 -204.89241,-15.1883 -14.16394,-6.3457 -8.59897,-74.0343 5.95618,-78.6215 z"
       id="path2668"
       sodipodi:nodetypes="sssssssssssssssssssssssssccsssss" />
  </g>
  <text
     xml:space="preserve"
     style="font-size:80px;line-height:1.25;font-family:sans-serif;-inkscape-font-specification:sans-serif;letter-spacing:0px;word-spacing:0px"
     x="23.824701"
     y="1000.6374"
     id="text8289"><tspan
       sodipodi:role="line"
       id="tspan8287"
       x="23.824701"
       y="1000.6374">Figure: 7</tspan></text>
  <text
     xml:space="preserve"
     style="font-size:80px;line-height:1.25;font-family:sans-serif;-inkscape-font-specification:sans-serif;letter-spacing:0px;word-spacing:0px"
     x="33.35458"
     y="1153.1155"
     id="text9591"><tspan
       sodipodi:role="line"
       id="tspan9589"
       x="33.35458"
       y="1153.1155">Tags: BCV</tspan></text>
</svg>
