<?xml version="1.0" encoding="UTF-8" standalone="no"?>
<svg
   height="7176px"
   version="1.1"
   width="5825px"
   id="svg53"
   sodipodi:docname="jovic_1999_cyclic_247_f1_solid.svg"
   inkscape:version="1.1.2 (b8e25be833, 2022-02-05)"
   xmlns:inkscape="http://www.inkscape.org/namespaces/inkscape"
   xmlns:sodipodi="http://sodipodi.sourceforge.net/DTD/sodipodi-0.dtd"
   xmlns:xlink="http://www.w3.org/1999/xlink"
   xmlns="http://www.w3.org/2000/svg"
   xmlns:svg="http://www.w3.org/2000/svg">
  <sodipodi:namedview
     id="namedview55"
     pagecolor="#ffffff"
     bordercolor="#666666"
     borderopacity="1.0"
     inkscape:pageshadow="2"
     inkscape:pageopacity="0.0"
     inkscape:pagecheckerboard="0"
     showgrid="false"
     inkscape:zoom="0.409699"
     inkscape:cx="4144.5061"
     inkscape:cy="1647.551"
     inkscape:window-width="1920"
     inkscape:window-height="1017"
     inkscape:window-x="-8"
     inkscape:window-y="32"
     inkscape:window-maximized="1"
     inkscape:current-layer="svg53" />
  <defs
     id="defs49" />
  <image
     height="7176px"
     sodipodi:insensitive="true"
     width="5825px"
     x="0"
     xlink:href="jovic_1999_cyclic_247_p1.png"
     y="0"
     id="image51" />
  <g
     id="g23015">
    <path
       style="fill:none;stroke:#000000;stroke-width:1.77851px;stroke-linecap:butt;stroke-linejoin:miter;stroke-opacity:1"
       d="M 3029.4866,937.23304 2709.0646,743.75501"
       id="path170" />
    <text
       xml:space="preserve"
       style="font-size:85.3333px;line-height:1.25;font-family:sans-serif"
       x="2310.4441"
       y="713.95587"
       id="text2908"><tspan
         sodipodi:role="line"
         id="tspan2906"
         x="2310.4441"
         y="713.95587">j2: 20 uA / cm2</tspan></text>
  </g>
  <g
     id="g23010">
    <path
       style="fill:none;stroke:#000000;stroke-width:1px;stroke-linecap:butt;stroke-linejoin:miter;stroke-opacity:1"
       d="m 3031.8667,2045.5209 -321.026,-13.7706"
       id="path172" />
    <text
       xml:space="preserve"
       style="font-size:85.3333px;line-height:1.25;font-family:sans-serif"
       x="2052.5754"
       y="2066.0752"
       id="text7004"><tspan
         sodipodi:role="line"
         id="tspan7002"
         x="2052.5754"
         y="2066.0752">j1: -20 uA / cm2</tspan></text>
  </g>
  <g
     id="g23005">
    <path
       style="fill:none;stroke:#000000;stroke-width:0.790046px;stroke-linecap:butt;stroke-linejoin:miter;stroke-opacity:1"
       d="m 3154.0707,2181.3943 -19.2343,114.4514"
       id="path174" />
    <text
       xml:space="preserve"
       style="font-size:85.3333px;line-height:1.25;font-family:sans-serif"
       x="2775.9773"
       y="2365.2722"
       id="text9252"><tspan
         sodipodi:role="line"
         id="tspan9250"
         x="2775.9773"
         y="2365.2722">E1: -1.1 V vs SCE</tspan></text>
  </g>
  <g
     id="g23000">
    <path
       id="path176"
       style="fill:none;stroke:#000000;stroke-width:1.2113px;stroke-linecap:butt;stroke-linejoin:miter;stroke-opacity:1"
       d="m 4619.7317,2181.179 116.4008,157.7523 z" />
    <text
       xml:space="preserve"
       style="font-size:85.3333px;line-height:1.25;font-family:sans-serif"
       x="4740.0928"
       y="2396.2974"
       id="text12082"><tspan
         sodipodi:role="line"
         id="tspan12080"
         x="4740.0928"
         y="2396.2974">E2: 0.1 V vs SCE</tspan></text>
  </g>
  <text
     xml:space="preserve"
     style="font-size:85.3333px;line-height:1.25;font-family:sans-serif"
     x="4047.3762"
     y="2043.5024"
     id="text27793"><tspan
       sodipodi:role="line"
       id="tspan27791"
       x="4047.3762"
       y="2043.5024">scan rate: 50 mV / s</tspan></text>
  <g
     id="g849">
    <text
       xml:space="preserve"
       style="font-size:85.3333px;line-height:1.25;font-family:sans-serif"
       x="3346.9185"
       y="934.11884"
       id="text35624"><tspan
         sodipodi:role="line"
         id="tspan35622"
         x="3346.9185"
         y="934.11884">curve: solid</tspan></text>
    <path
       style="fill:none;stroke:#00ff00;stroke-width:1px;stroke-linecap:butt;stroke-linejoin:miter;stroke-opacity:1"
       d="m 3073.2123,1453.87 c 16.2962,-12.7969 50.1611,-10.6458 82.6283,-13.8074 39.4418,-3.8407 75.2817,0.4817 137.642,-4.5305 90.0851,-7.2406 183.3215,-4.0397 296.8579,-25.0258 37.777,-6.9827 68.3351,-19.5988 94.2876,-36.674 25.9525,-17.0753 47.2994,-38.6097 66.6541,-63.4292 11.612,-14.8906 24.3605,-53.3545 32.9556,-89.0354 8.5951,-35.681 13.0396,-68.5196 20.1165,-68.8861 15.5614,-0.806 16.95,79.0775 74.2144,103.1236 12.6784,5.3238 29.8084,3.588 70.0587,21.2894 28.3486,12.4673 46.8428,27.9949 91.7461,46.8843 74.213,31.219 139.0224,51.4157 233.4304,51.7776 70.2618,0.2693 102.1235,3.19 152.7437,-68.6052 24.8101,-35.1884 46.0644,-113.1193 79.8237,-162.6678 12.8353,-18.8385 38.3869,-28.787 46.5998,-50.0516 11.1835,-28.956 8.2695,-99.6219 19.4166,-99.67179 4.9784,-0.0223 17.7347,50.05209 18.4706,69.63799 8.0184,213.4031 6.154,691.6359 -0.4315,714.0985 -23.3917,79.7871 -28.0477,157.0183 -36.2922,157.4495 -14.5757,0.7625 -4.8856,-82.4717 -27.9153,-123.101 -10.1953,-17.9867 -24.5287,-0.875 -64.7218,-81.9811 -21.1411,-42.6607 -32.1351,-84.5464 -65.5849,-111.7531 -34.5858,-28.1307 -73.9314,-38.9556 -125.992,-40.5591 -45.1501,-1.3906 -88.6255,6.5545 -132.8957,15.5333 -44.0687,8.9379 -63.1368,16.9007 -131.1698,33.6554 -16.2484,4.0016 -109.7128,58.5205 -159.6473,103.1236 -30.0318,26.8254 -36.3386,52.6688 -49.2365,82.4649 -9.1998,21.253 -9.0865,58.1652 -20.053,57.5565 -12.5095,-0.6944 -11.8893,-140.1383 -49.25,-199.2822 -32.4463,-51.3643 -86.1451,-88.328 -139.4853,-108.6282 -41.8734,-15.9362 -130.6779,11.0019 -196.1444,5.3693 -34.7571,-2.9904 -81.6099,-21.1087 -102.4393,-21.7221 -51.1361,-1.5059 -196.5207,-0.1556 -218.3287,-14.886 -11.5609,-7.8089 -8.5298,-69.4434 1.9417,-77.6663 z"
       id="path2121"
       sodipodi:nodetypes="ssssssssssssssssssssssssssssssssss" />
  </g>
  <text
     xml:space="preserve"
     style="font-size:80px;line-height:1.25;font-family:sans-serif;-inkscape-font-specification:sans-serif;letter-spacing:0px;word-spacing:0px"
     x="4774.2368"
     y="1178.9143"
     id="text9185"><tspan
       sodipodi:role="line"
       id="tspan9183"
       x="4774.2368"
       y="1178.9143">Figure: 1</tspan></text>
  <text
     xml:space="preserve"
     style="font-size:80px;line-height:1.25;font-family:sans-serif;-inkscape-font-specification:sans-serif;letter-spacing:0px;word-spacing:0px"
     x="4784"
     y="1318.0408"
     id="text10311"><tspan
       sodipodi:role="line"
       id="tspan10309"
       x="4784"
       y="1318.0408">tags: BCV</tspan></text>
</svg>
