<?xml version="1.0" encoding="UTF-8" standalone="no"?>
<svg
   height="7176px"
   version="1.1"
   width="5825px"
   id="svg20603"
   sodipodi:docname="Jovic_1999_Cyclic_247_p3_6_dashed.svg"
   inkscape:version="1.1 (ce6663b3b7, 2021-05-25)"
   xmlns:inkscape="http://www.inkscape.org/namespaces/inkscape"
   xmlns:sodipodi="http://sodipodi.sourceforge.net/DTD/sodipodi-0.dtd"
   xmlns:xlink="http://www.w3.org/1999/xlink"
   xmlns="http://www.w3.org/2000/svg"
   xmlns:svg="http://www.w3.org/2000/svg">
  <sodipodi:namedview
     id="namedview20605"
     pagecolor="#ffffff"
     bordercolor="#666666"
     borderopacity="1.0"
     inkscape:pageshadow="2"
     inkscape:pageopacity="0.0"
     inkscape:pagecheckerboard="0"
     showgrid="false"
     inkscape:zoom="0.14839783"
     inkscape:cx="3817.4413"
     inkscape:cy="3460.2932"
     inkscape:window-width="1608"
     inkscape:window-height="986"
     inkscape:window-x="72"
     inkscape:window-y="27"
     inkscape:window-maximized="1"
     inkscape:current-layer="svg20603" />
  <defs
     id="defs20599" />
  <image
     height="7176px"
     sodipodi:insensitive="true"
     width="5825px"
     x="0"
     xlink:href="Jovic_1999_Cyclic_247_p3.png"
     y="0"
     id="image20601" />
  <g
     id="g40553">
    <path
       style="fill:none;stroke:#000000;stroke-width:1.14398px;stroke-linecap:butt;stroke-linejoin:miter;stroke-opacity:1"
       d="m 3029.0715,3480.6204 -176.1678,-214.314"
       id="path20640" />
    <text
       xml:space="preserve"
       style="font-size:85.3333px;line-height:1.25;font-family:sans-serif"
       x="2597.8938"
       y="3250.8208"
       id="text22982"><tspan
         sodipodi:role="line"
         id="tspan22980"
         x="2597.8938"
         y="3250.8208">y2: 25 uA / cm2</tspan></text>
  </g>
  <g
     id="g40396">
    <path
       style="fill:none;stroke:#000000;stroke-width:1px;stroke-linecap:butt;stroke-linejoin:miter;stroke-opacity:1"
       d="m 3037.4678,4624.2412 -209.603,71.4555"
       id="path20642" />
    <text
       xml:space="preserve"
       style="font-size:85.3333px;line-height:1.25;font-family:sans-serif"
       x="2202.3848"
       y="4770.7021"
       id="text24900"><tspan
         sodipodi:role="line"
         id="tspan24898"
         x="2202.3848"
         y="4770.7021">y1: -25 uA / cm2</tspan></text>
  </g>
  <g
     id="g40391">
    <path
       style="fill:none;stroke:#000000;stroke-width:1px;stroke-linecap:butt;stroke-linejoin:miter;stroke-opacity:1"
       d="m 3183.9518,4736.215 -57.1644,562.178"
       id="path20644" />
    <text
       xml:space="preserve"
       style="font-size:85.3333px;line-height:1.25;font-family:sans-serif"
       x="3102.9688"
       y="5351.9658"
       id="text27478"><tspan
         sodipodi:role="line"
         id="tspan27476"
         x="3102.9688"
         y="5351.9658">x1: -1.1 V vs SCE</tspan></text>
  </g>
  <g
     id="g40386">
    <path
       style="fill:none;stroke:#000000;stroke-width:1px;stroke-linecap:butt;stroke-linejoin:miter;stroke-opacity:1"
       d="m 4533.6373,4729.0771 452.674,319.2597"
       id="path20646" />
    <text
       xml:space="preserve"
       style="font-size:85.3333px;line-height:1.25;font-family:sans-serif"
       x="4985.1206"
       y="5080.4956"
       id="text30056"><tspan
         sodipodi:role="line"
         id="tspan30054"
         x="4985.1206"
         y="5080.4956">x2: -0.2 V vs SCE</tspan></text>
  </g>
  <text
     xml:space="preserve"
     style="font-size:85.3333px;line-height:1.25;font-family:sans-serif"
     x="3045.7715"
     y="4685.1021"
     id="text36132"><tspan
       sodipodi:role="line"
       id="tspan36130"
       x="3045.7715"
       y="4685.1021">scan rate: 100 mV / s</tspan></text>
  <g
     id="g80302">
    <text
       xml:space="preserve"
       style="font-size:85.3333px;line-height:1.25;font-family:sans-serif"
       x="3369.948"
       y="3293.7034"
       id="text38914"><tspan
         sodipodi:role="line"
         id="tspan38912"
         x="3369.948"
         y="3293.7034">curve: Ag(111)_0.1M_NaOH_after_cycling</tspan></text>
    <path
       style="fill:none;stroke:#000000;stroke-width:1px;stroke-linecap:butt;stroke-linejoin:miter;stroke-opacity:1"
       d="m 3069.8417,4048.6119 c -0.9699,-21.9417 4.6487,-43.736 5.0526,-65.6955 0.2583,-14.044 -9.0978,-30.1749 -1.6842,-42.1056 5.8381,-9.3953 19.7757,-10.1405 30.3161,-13.4954 19.0948,-6.0777 39.2545,-8.0904 58.9478,-11.795 28.586,-5.3775 57.5367,-8.864 85.9386,-15.1418 25.5304,-5.6431 50.5203,-13.5015 75.7901,-20.2161 19.0974,-5.0745 38.3745,-9.509 57.3067,-15.1688 6.8049,-2.0343 13.2845,-5.1754 20.2107,-6.7477 13.2415,-3.006 26.8691,-4.2045 40.4214,-5.0473 19.6114,-1.2197 39.3024,0.3902 58.9478,0 14.0435,-0.279 28.0647,-1.2837 42.1056,-1.6734 35.9351,-0.9973 72.0635,1.8821 107.8335,-1.7004 24.4322,-2.4469 48.3513,-8.6165 72.4216,-13.4684 25.9207,-5.2249 52.261,-9.0138 77.5176,-16.8422 15.6359,-4.8464 30.5198,-11.8839 45.474,-18.5427 17.6621,-7.8646 36.7393,-13.6689 52.2109,-25.2634 12.7259,-9.5369 22.79,-22.4207 32.0003,-35.3849 8.153,-11.476 14.7333,-24.1086 20.2539,-37.0583 4.3881,-10.2931 5.9052,-21.6398 10.1053,-32.011 1.8843,-4.6527 1.7489,-12.9048 6.7369,-13.4684 12.2869,-1.3883 16.8421,18.2686 23.5792,28.6372 7.5246,11.5805 11.2119,25.344 18.5264,37.0583 6.3642,10.1923 13.5785,19.9641 21.8949,28.6372 6.0694,6.3298 13.0408,11.7928 20.2107,16.8423 9.0567,6.3783 18.5894,12.1942 28.6318,16.8692 9.1743,4.2709 18.7952,7.7176 28.6318,10.0945 12.1302,2.9311 24.6319,4.4333 37.0961,5.0473 15.1499,0.7463 30.3632,-0.3549 45.4741,-1.6734 16.3733,-1.4286 32.7202,-3.5544 48.8425,-6.7477 15.3612,-3.0425 30.325,-7.829 45.474,-11.795 19.1137,-5.004 38.5501,-8.9325 57.3068,-15.1418 11.4829,-3.8014 22.3363,-9.3088 33.6844,-13.4954 41.1406,-15.1776 83.1109,-28.004 124.6326,-42.1056 23.0447,-7.8265 45.7544,-16.7008 69.0964,-23.5899 11.1003,-3.2761 22.3264,-6.1971 33.6844,-8.4211 11.6871,-2.2884 24.82,-10.5743 35.3688,-5.0473 4.4464,2.3297 5.2399,8.677 6.7368,13.4684 3.5531,11.3725 4.0942,23.5089 5.0527,35.3849 2.349,29.1058 1.123,58.39 1.6843,87.585 0.5615,29.204 1.5622,58.4029 1.6842,87.612 0.2158,51.6629 -2.4941,103.324 -1.6842,154.981 0.6255,39.896 4.4394,79.6999 5.0525,119.5961 0.7507,48.8508 -0.3429,97.7218 -1.6842,146.5599 -0.355,12.9269 1.0365,26.1164 -1.6841,38.7587 -1.2721,5.9112 -1.865,13.261 -6.7369,16.8423 -5.8981,4.3357 -14.5779,1.9192 -21.8949,1.7004 -16.4282,-0.4912 -32.5499,-4.5855 -48.8426,-6.7477 -30.8704,-4.0967 -62.1003,-5.8856 -92.6755,-11.795 -26.2045,-5.0646 -51.5031,-14.0653 -77.4742,-20.216 -34.0858,-8.0724 -68.4095,-15.1356 -102.7808,-21.8896 -27.987,-5.4994 -55.8411,-12.2277 -84.2112,-15.1688 -19.5524,-2.027 -39.2969,-1.179 -58.9479,-1.6734 -25.8372,-0.6501 -51.8332,-4.5816 -77.5174,-1.7004 -13.8032,1.5484 -27.6481,4.6655 -40.4214,10.1215 -16.4734,7.0364 -32.0786,16.744 -45.474,28.6372 -11.3407,10.069 -20.6582,22.4576 -28.6319,35.3579 -7.134,11.5419 -11.2465,24.6972 -16.8423,37.0583 -5.0836,11.2297 -11.7894,23.6169 -11.7894,23.6169 -1.5861,3.1774 -10.7715,8.9731 -13.5171,6.7207 -7.0011,-5.7435 -9.2476,-15.581 -13.4738,-23.5899 -10.1947,-19.3197 -17.6283,-40.0772 -28.6318,-58.9479 -9.9637,-17.0874 -20.0829,-34.4918 -33.6845,-48.8532 -10.7339,-11.3336 -23.2797,-21.291 -37.0528,-28.6373 -17.2323,-9.1914 -36.3411,-15.1784 -55.5795,-18.5425 -22.6945,-3.9684 -46.071,-0.8823 -69.0963,-1.6735 -25.2734,-0.8685 -50.5079,-2.8114 -75.79,-3.3738 -23.0264,-0.5123 -46.0687,0.4521 -69.0964,0 -28.6484,-0.5624 -57.4419,0.01 -85.8954,-3.3739 -14.2131,-1.6897 -28.2049,-5.0097 -42.1056,-8.4211 -13.6312,-3.3453 -26.7492,-8.6212 -40.4214,-11.795 -12.7812,-2.967 -25.8714,-4.3983 -38.7804,-6.7477 -11.8065,-2.1488 -23.4459,-5.3567 -35.3686,-6.7207 -27.9109,-3.1932 -56.1239,-2.8114 -84.2112,-3.3738 -23.5888,-0.4723 -47.1933,0.5409 -70.7806,0 -12.3607,-0.2835 -24.6912,-1.9358 -37.0529,-1.7004 -6.7595,0.1287 -13.6916,3.4917 -20.2107,1.7004 -4.6568,-1.2796 -9.4032,-4.2225 -11.7896,-8.4211 -3.3413,-5.8788 -1.6442,-13.4542 -1.6842,-20.2161 -0.093,-15.7664 3.3492,-31.4132 3.3684,-47.1798 0.02,-16.3231 -1.4634,-32.6418 -3.3684,-48.8534 -1.5946,-13.5698 -6.1335,-26.7823 -6.7369,-40.4321 z"
       id="path80046"
       sodipodi:nodetypes="ssssssssssssssssssssssssssssssssssssssssssssssssssssssssssssssssssssssssssssssssss" />
  </g>
</svg>
