<?xml version="1.0" encoding="UTF-8" standalone="no"?>
<svg
   height="7176px"
   version="1.1"
   width="5825px"
   id="svg53"
   sodipodi:docname="Jovic_1999_Cyclic_247_f1_solid.svg"
   inkscape:version="1.1 (ce6663b3b7, 2021-05-25)"
   xmlns:inkscape="http://www.inkscape.org/namespaces/inkscape"
   xmlns:sodipodi="http://sodipodi.sourceforge.net/DTD/sodipodi-0.dtd"
   xmlns:xlink="http://www.w3.org/1999/xlink"
   xmlns="http://www.w3.org/2000/svg"
   xmlns:svg="http://www.w3.org/2000/svg">
  <sodipodi:namedview
     id="namedview55"
     pagecolor="#ffffff"
     bordercolor="#666666"
     borderopacity="1.0"
     inkscape:pageshadow="2"
     inkscape:pageopacity="0.0"
     inkscape:pagecheckerboard="0"
     showgrid="false"
     inkscape:zoom="0.57940188"
     inkscape:cx="3806.5117"
     inkscape:cy="1498.9596"
     inkscape:window-width="1608"
     inkscape:window-height="986"
     inkscape:window-x="72"
     inkscape:window-y="27"
     inkscape:window-maximized="1"
     inkscape:current-layer="svg53" />
  <defs
     id="defs49" />
  <image
     height="7176px"
     sodipodi:insensitive="true"
     width="5825px"
     x="0"
     xlink:href="Jovic_1999_Cyclic_247_p1.png"
     y="0"
     id="image51" />
  <g
     id="g23015">
    <path
       style="fill:none;stroke:#000000;stroke-width:1.77851px;stroke-linecap:butt;stroke-linejoin:miter;stroke-opacity:1"
       d="M 3029.4866,937.23304 2709.0646,743.75501"
       id="path170" />
    <text
       xml:space="preserve"
       style="font-size:85.3333px;line-height:1.25;font-family:sans-serif"
       x="2310.4441"
       y="713.95587"
       id="text2908"><tspan
         sodipodi:role="line"
         id="tspan2906"
         x="2310.4441"
         y="713.95587">y2: 20 uA / cm2</tspan></text>
  </g>
  <g
     id="g23010">
    <path
       style="fill:none;stroke:#000000;stroke-width:1px;stroke-linecap:butt;stroke-linejoin:miter;stroke-opacity:1"
       d="m 3031.8667,2045.5209 -321.026,-13.7706"
       id="path172" />
    <text
       xml:space="preserve"
       style="font-size:85.3333px;line-height:1.25;font-family:sans-serif"
       x="2052.5754"
       y="2066.0752"
       id="text7004"><tspan
         sodipodi:role="line"
         id="tspan7002"
         x="2052.5754"
         y="2066.0752">y1: -20 uA / cm2</tspan></text>
  </g>
  <g
     id="g23005">
    <path
       style="fill:none;stroke:#000000;stroke-width:0.790046px;stroke-linecap:butt;stroke-linejoin:miter;stroke-opacity:1"
       d="m 3154.0707,2181.3943 -19.2343,114.4514"
       id="path174" />
    <text
       xml:space="preserve"
       style="font-size:85.3333px;line-height:1.25;font-family:sans-serif"
       x="2775.9773"
       y="2365.2722"
       id="text9252"><tspan
         sodipodi:role="line"
         id="tspan9250"
         x="2775.9773"
         y="2365.2722">x1: -1.1 V vs SCE</tspan></text>
  </g>
  <g
     id="g23000">
    <path
       id="path176"
       style="fill:none;stroke:#000000;stroke-width:1.2113px;stroke-linecap:butt;stroke-linejoin:miter;stroke-opacity:1"
       d="m 4619.7317,2181.179 116.4008,157.7523 z" />
    <text
       xml:space="preserve"
       style="font-size:85.3333px;line-height:1.25;font-family:sans-serif"
       x="4740.0928"
       y="2396.2974"
       id="text12082"><tspan
         sodipodi:role="line"
         id="tspan12080"
         x="4740.0928"
         y="2396.2974">x2: 0.1 V vs SCE</tspan></text>
  </g>
  <text
     xml:space="preserve"
     style="font-size:85.3333px;line-height:1.25;font-family:sans-serif"
     x="4047.3762"
     y="2043.5024"
     id="text27793"><tspan
       sodipodi:role="line"
       id="tspan27791"
       x="4047.3762"
       y="2043.5024">scan rate: 50 mV / s</tspan></text>
  <g
     id="g37887">
    <path
       style="fill:none;stroke:#000000;stroke-width:1px;stroke-linecap:butt;stroke-linejoin:miter;stroke-opacity:1"
       d="m 3062.1635,1489.8575 c 1.1255,-9.139 0.8025,-17.8236 4.3247,-26.3313 2.8013,-6.7662 9.4544,-10.4296 15.9496,-13.812 8.8059,-4.5858 19.8884,-4.159 29.7644,-5.1779 14.8548,-1.5324 20.1774,-2.3489 32.8281,-3.014 10.9734,-0.5769 21.7987,-1.0304 32.784,-1.2997 10.366,-0.2541 20.6935,-0.7052 31.0585,-0.4147 10.3487,0.29 20.7127,0.3833 31.0584,0 15.5612,-0.5765 31.0556,-2.3443 46.5877,-3.4564 16.6913,-1.1951 33.3687,-2.6428 50.0829,-3.4565 20.1148,-0.9792 40.2923,-0.4539 60.3914,-1.7144 17.8788,-1.1213 35.6452,-3.6224 53.4896,-5.1986 14.3683,-1.2692 28.752,-2.3608 43.1367,-3.4288 16.6881,-1.2391 33.4785,-1.3782 50.0829,-3.4565 19.143,-2.3961 38.4155,-4.9829 56.9406,-10.3694 19.0751,-5.5464 37.251,-13.9453 55.215,-22.4256 14.1956,-6.7013 28.6547,-13.2772 41.4113,-22.4255 8.9424,-6.413 16.4788,-14.6135 24.2008,-22.4533 10.8599,-11.0257 22.6371,-21.5254 31.0585,-34.5094 6.1686,-9.5107 9.7055,-20.5113 13.8037,-31.0806 4.6015,-11.8672 8.1493,-24.1173 12.0783,-36.2238 3.5386,-10.9036 7.7691,-21.6265 10.3528,-32.795 2.6216,-11.3325 2.2585,-23.2495 5.1765,-34.5094 1.2345,-4.7637 2.5123,-9.6883 5.1764,-13.8258 1.3204,-2.0506 2.7422,-5.3236 5.1763,-5.171 6.5479,0.4105 8.8527,9.8273 12.0783,15.5404 3.9377,6.9744 5.3959,15.0971 8.6274,22.4255 4.6728,10.5969 9.6294,21.1146 15.5292,31.0806 4.6319,7.8243 8.5891,16.5513 15.5293,22.4256 8.2476,6.9809 18.9668,10.7486 29.3329,13.7982 8.3642,2.4606 17.4322,1.4911 25.9264,3.4565 7.0891,1.6403 13.922,4.2807 20.7056,6.913 10.5612,4.0982 21.0424,8.5054 31.0584,13.7982 12.5587,6.6364 23.5541,16.0255 36.2349,22.4255 16.5913,8.3735 34.8102,13.0987 51.7641,20.7112 16.439,7.3813 31.3898,18.0993 48.3574,24.1677 12.2182,4.3698 25.2219,6.155 37.9604,8.6273 17.7295,3.4409 35.7337,5.3254 53.4895,8.6274 10.98,2.0419 21.6516,6.0174 32.7839,6.9129 12.0529,0.9696 24.1436,-1.8284 36.2349,-1.7144 8.6459,0.082 17.2406,1.4285 25.8822,1.7144 9.787,0.3238 19.6037,0.6078 29.3772,0 13.8841,-0.8635 28.1453,-0.9841 41.4113,-5.1709 10.552,-3.3302 20.22,-9.2639 29.3328,-15.5402 10.0726,-6.9373 19.8648,-14.7002 27.6075,-24.1677 8.8047,-10.7661 14.5064,-23.7739 20.7058,-36.2238 5.8597,-11.7677 10.1419,-24.2602 15.5292,-36.2515 4.4292,-9.8586 9.0167,-19.6486 13.8038,-29.3385 8.3221,-16.8452 17.6695,-33.1724 25.9263,-50.0497 3.6218,-7.4032 5.9018,-15.5168 10.3527,-22.4532 5.7252,-8.9223 13.8329,-16.0685 20.7058,-24.14 6.3536,-7.4616 11.2748,-16.3974 18.98,-22.4533 3.0329,-2.3837 8.0607,-2.0683 10.353,-5.1708 4.1592,-5.629 2.276,-13.8116 3.4508,-20.7112 2.2536,-13.2349 4.2644,-26.5166 6.902,-39.6803 2.5515,-12.7338 4.2512,-25.7661 8.6272,-37.9935 1.299,-3.6296 1.3341,-10.65248 5.1765,-10.34178 9.6153,0.77749 6.4309,18.23078 8.6273,27.62408 2.5177,10.7675 3.9045,21.7829 5.1765,32.7674 1.7925,15.4793 2.8754,31.0486 3.451,46.6208 0.701,18.9654 -0.271,37.9587 0,56.9351 0.5752,40.2825 2.438,80.5366 3.4508,120.8105 0.6655,26.4606 1.7528,52.9192 1.7255,79.3882 -0.025,24.1745 -1.9309,48.3294 -1.7255,72.503 0.2397,28.2088 3.0994,56.3515 3.4509,84.5591 0.4516,36.244 -0.7545,72.4929 -1.7254,108.7267 -0.8173,30.5014 -3.3838,60.9597 -3.451,91.472 -0.038,17.2735 3.2289,34.5838 1.7255,51.7918 -0.9715,11.1197 -2.8274,17.1976 -6.9018,27.5895 -2.4512,6.252 -6.0069,15.6761 -8.196,22.0246 -4.5331,13.1461 -7.4287,26.2922 -9.0587,40.1021 -1.8329,15.5279 -4.3684,26.5264 -7.3334,41.8785 -2.0372,10.5481 -3.8822,22.8541 -3.8822,22.8541 -1.2101,1.23 -4.6792,15.7312 -6.0392,14.6693 -11.2176,-8.759 -7.7125,-27.4372 -10.3528,-41.4223 -3.3362,-17.671 -2.7362,-36.0121 -6.9018,-53.5062 -2.4022,-10.0885 -4.8215,-20.5663 -10.3529,-29.3385 -3.9025,-6.189 -10.0558,-10.6572 -15.5293,-15.5126 -7.6632,-6.7978 -18.0143,-10.7987 -24.1565,-18.9968 -7.4319,-9.9195 -8.48,-23.3374 -13.848,-34.5094 -6.5837,-13.7023 -15.1753,-26.3494 -22.4311,-39.7079 -7.1209,-13.1101 -12.7925,-27.0326 -20.7057,-39.6803 -10.2551,-16.3907 -19.7898,-34.0846 -34.5093,-46.6209 -14.2964,-12.1759 -32.4534,-19.2947 -50.0388,-25.882 -24.9636,-9.3511 -51.0566,-17.8435 -77.6903,-18.9692 -18.6117,-0.7866 -36.7559,6.1225 -55.215,8.6274 -14.9164,2.0242 -29.9641,3.0166 -44.8622,5.1709 -13.2896,1.9217 -26.5896,3.9478 -39.6859,6.913 -14.5776,3.3006 -28.7796,8.0832 -43.1809,12.0838 -16.6708,4.6311 -33.4861,8.7611 -50.0387,13.7982 -17.4002,5.2951 -34.9605,10.2944 -51.7641,17.2547 -11.8819,4.9217 -23.528,10.5605 -34.5094,17.2547 -15.8165,9.6417 -29.6193,22.2698 -44.8622,32.7949 -13.0063,8.9808 -27.1981,16.2505 -39.73,25.8822 -12.2744,9.4337 -20.3873,18.7628 -29.7644,31.0805 -7.0101,9.2085 -15.5736,20.4774 -20.2743,31.0529 -5.7726,12.987 -10.5757,26.3869 -15.5292,39.7079 -3.6146,9.7202 -3.6747,16.331 -6.4705,26.3176 -5.3192,19.0005 -13.8038,29.7534 -13.8038,29.7534 l -8.196,-18.9968 c 0,0 -3.2624,-15.7758 -6.0391,-33.6177 -3.5788,-22.9959 -5.5047,-46.2842 -10.3528,-69.0464 -4.4778,-21.0234 -10.131,-41.8534 -17.2548,-62.1336 -4.3567,-12.4029 -7.7231,-25.6742 -15.5292,-36.2514 -8.9722,-12.1573 -23.015,-19.5835 -34.5537,-29.3385 -10.9084,-9.222 -21.2067,-19.2294 -32.7839,-27.5964 -14.2335,-10.2868 -28.495,-21.258 -44.8621,-27.6242 -14.1923,-5.5203 -29.6424,-8.1266 -44.8623,-8.6273 -13.9034,-0.4573 -27.541,4.1074 -41.4113,5.1708 -20.0946,1.5407 -40.3099,0.6836 -60.4357,1.7422 -14.977,0.7878 -29.8754,2.8568 -44.8622,3.4287 -12.6442,0.4825 -25.4136,1.6403 -37.9603,0 -8.8521,-1.1573 -17.2275,-4.6952 -25.8821,-6.8852 -14.3506,-3.6313 -28.5238,-8.2978 -43.181,-10.3694 -12.5417,-1.7726 -25.302,-1.2648 -37.9603,-1.7145 -22.4245,-0.7966 -44.8566,-1.4516 -67.2934,-1.742 -10.9271,-0.1414 -21.8678,0.5096 -32.7839,0 -18.4801,-0.8628 -36.8813,-3.0476 -55.2593,-5.1709 -16.7254,-1.9323 -32.9115,-0.6544 -45.2936,-12.0631 -7.8047,-7.1912 -9.1996,-17.448 -9.0587,-28.0596 0.063,-4.7407 0.2832,-6.936 0.8627,-11.6415 z"
       id="path32402"
       sodipodi:nodetypes="ssssssssssssssssssssssssssssssssssssssssssssssssssssssssssssssssssssssssssssssssssssssssssssssssssccsssssssssssssssssssss" />
    <text
       xml:space="preserve"
       style="font-size:85.3333px;line-height:1.25;font-family:sans-serif"
       x="3346.9185"
       y="934.11884"
       id="text35624"><tspan
         sodipodi:role="line"
         id="tspan35622"
         x="3346.9185"
         y="934.11884">curve: Ag(111)_0.1M_NaOH</tspan></text>
  </g>
</svg>
