<?xml version="1.0" encoding="UTF-8" standalone="no"?>
<svg
   height="7176px"
   version="1.1"
   width="5825px"
   id="svg20603"
   sodipodi:docname="jovic_1999_cyclic_247_f6_dashed.svg"
   inkscape:version="1.1.2 (b8e25be833, 2022-02-05)"
   xmlns:inkscape="http://www.inkscape.org/namespaces/inkscape"
   xmlns:sodipodi="http://sodipodi.sourceforge.net/DTD/sodipodi-0.dtd"
   xmlns:xlink="http://www.w3.org/1999/xlink"
   xmlns="http://www.w3.org/2000/svg"
   xmlns:svg="http://www.w3.org/2000/svg"
   xmlns:rdf="http://www.w3.org/1999/02/22-rdf-syntax-ns#"
   xmlns:cc="http://creativecommons.org/ns#"
   xmlns:dc="http://purl.org/dc/elements/1.1/">
  <metadata
     id="metadata28">
    <rdf:RDF>
      <cc:Work
         rdf:about="">
        <dc:format>image/svg+xml</dc:format>
        <dc:type
           rdf:resource="http://purl.org/dc/dcmitype/StillImage" />
      </cc:Work>
    </rdf:RDF>
  </metadata>
  <sodipodi:namedview
     id="namedview20605"
     pagecolor="#ffffff"
     bordercolor="#666666"
     borderopacity="1.0"
     inkscape:pageshadow="2"
     inkscape:pageopacity="0.0"
     inkscape:pagecheckerboard="0"
     showgrid="false"
     inkscape:zoom="0.41973245"
     inkscape:cx="3792.8924"
     inkscape:cy="3909.6334"
     inkscape:window-width="1920"
     inkscape:window-height="1017"
     inkscape:window-x="-8"
     inkscape:window-y="32"
     inkscape:window-maximized="1"
     inkscape:current-layer="svg20603" />
  <defs
     id="defs20599" />
  <image
     xlink:href="jovic_1999_cyclic_247_p3.png"
     id="image20601"
     y="0"
     x="0"
     width="5825px"
     sodipodi:insensitive="true"
     height="7176px" />
  <g
     id="g40553">
    <path
       style="fill:none;stroke:#000000;stroke-width:1.14398px;stroke-linecap:butt;stroke-linejoin:miter;stroke-opacity:1"
       d="m 3029.0715,3480.6204 -176.1678,-214.314"
       id="path20640" />
    <text
       xml:space="preserve"
       style="font-size:85.3333px;line-height:1.25;font-family:sans-serif"
       x="2597.8938"
       y="3250.8208"
       id="text22982"><tspan
         sodipodi:role="line"
         id="tspan22980"
         x="2597.8938"
         y="3250.8208">j2: 25 uA / cm2</tspan></text>
  </g>
  <g
     id="g40396">
    <path
       style="fill:none;stroke:#000000;stroke-width:1px;stroke-linecap:butt;stroke-linejoin:miter;stroke-opacity:1"
       d="m 3037.4678,4624.2412 -209.603,71.4555"
       id="path20642" />
    <text
       xml:space="preserve"
       style="font-size:85.3333px;line-height:1.25;font-family:sans-serif"
       x="2202.3848"
       y="4770.7021"
       id="text24900"><tspan
         sodipodi:role="line"
         id="tspan24898"
         x="2202.3848"
         y="4770.7021">j1: -25 uA / cm2</tspan></text>
  </g>
  <g
     id="g40391">
    <path
       style="fill:none;stroke:#000000;stroke-width:1px;stroke-linecap:butt;stroke-linejoin:miter;stroke-opacity:1"
       d="m 3183.9518,4736.215 -57.1644,562.178"
       id="path20644" />
    <text
       xml:space="preserve"
       style="font-size:85.3333px;line-height:1.25;font-family:sans-serif"
       x="3102.9688"
       y="5351.9658"
       id="text27478"><tspan
         sodipodi:role="line"
         id="tspan27476"
         x="3102.9688"
         y="5351.9658">E1: -1.1 V vs SCE</tspan></text>
  </g>
  <g
     id="g40386">
    <path
       style="fill:none;stroke:#000000;stroke-width:1px;stroke-linecap:butt;stroke-linejoin:miter;stroke-opacity:1"
       d="m 4533.6373,4729.0771 452.674,319.2597"
       id="path20646" />
    <text
       xml:space="preserve"
       style="font-size:85.3333px;line-height:1.25;font-family:sans-serif"
       x="4985.1206"
       y="5080.4956"
       id="text30056"><tspan
         sodipodi:role="line"
         id="tspan30054"
         x="4985.1206"
         y="5080.4956">E2: -0.2 V vs SCE</tspan></text>
  </g>
  <text
     xml:space="preserve"
     style="font-size:85.3333px;line-height:1.25;font-family:sans-serif"
     x="3045.7715"
     y="4685.1021"
     id="text36132"><tspan
       sodipodi:role="line"
       id="tspan36130"
       x="3045.7715"
       y="4685.1021">scan rate: 100 mV / s</tspan></text>
  <text
     xml:space="preserve"
     style="font-style:normal;font-variant:normal;font-weight:normal;font-stretch:normal;font-size:80px;line-height:1.25;font-family:sans-serif;-inkscape-font-specification:sans-serif;letter-spacing:0px;word-spacing:0px;fill:#000000;fill-opacity:1;stroke:none"
     x="5283.0962"
     y="3995.3606"
     id="text837"><tspan
       sodipodi:role="line"
       id="tspan835"
       x="5283.0962"
       y="3995.3606">comment: CV was obtained after cycling between 0.2 and 0.5V vs. SCE..</tspan></text>
  <text
     xml:space="preserve"
     style="font-size:80px;line-height:1.25;font-family:sans-serif;-inkscape-font-specification:sans-serif;letter-spacing:0px;word-spacing:0px"
     x="5323.5278"
     y="3386.1682"
     id="text6006"><tspan
       sodipodi:role="line"
       id="tspan6004"
       x="5323.5278"
       y="3386.1682">Figure: 6</tspan></text>
  <text
     xml:space="preserve"
     style="font-size:80px;line-height:1.25;font-family:sans-serif;-inkscape-font-specification:sans-serif;letter-spacing:0px;word-spacing:0px"
     x="5330.2666"
     y="3524.3103"
     id="text6888"><tspan
       sodipodi:role="line"
       id="tspan6886"
       x="5330.2666"
       y="3524.3103">tags: BCV</tspan></text>
  <g
     id="g10364">
    <text
       xml:space="preserve"
       style="font-size:85.3333px;line-height:1.25;font-family:sans-serif"
       x="3369.948"
       y="3293.7034"
       id="text38914"><tspan
         sodipodi:role="line"
         id="tspan38912"
         x="3369.948"
         y="3293.7034">curve: dashed</tspan></text>
    <path
       style="fill:none;stroke:#00ff00;stroke-width:1px;stroke-linecap:butt;stroke-linejoin:miter;stroke-opacity:1"
       d="m 3084.6138,3932.8405 c 42.19,-9.7378 110.613,-17.5867 165.0968,-30.3239 58.8488,-13.7577 116.8449,-38.1382 176.4682,-48.0128 41.5067,-6.8743 190.94,6.1406 291.0251,-16.8466 63.9315,-14.6835 131.9604,-27.6027 182.7857,-69.0711 47.0094,-38.355 61.981,-110.1401 70.7558,-110.7664 12.7263,-0.9084 37.4244,95.2082 106.1336,127.613 56.8835,26.8276 107.0557,17.7488 159.2005,7.581 124.2522,-24.2282 208.1877,-64.959 322.6125,-104.449 27.0671,-9.3413 55.9696,-11.8962 84.233,-16.8466 17.3549,-3.0397 24.1531,698.3625 2.527,700.1872 -11.9564,1.0088 -60.567,-1.9742 -93.4986,-6.107 -47.0976,-5.9106 -93.4152,-17.0006 -139.8269,-26.9545 -46.5462,-9.9828 -91.8142,-26.4347 -138.9845,-32.8509 -65.4284,-8.8997 -155.3328,-15.7503 -197.9476,-7.581 -31.2006,5.9812 -60.9802,21.1021 -84.2331,42.7483 -31.1913,29.0361 -47.423,102.0259 -58.1208,101.2902 -10.9638,-0.754 -28.6122,-49.6854 -42.1165,-74.9674 -16.3238,-30.5605 -34.7187,-73.5238 -81.8083,-90.2827 -101.7917,-36.227 -191.4045,-25.885 -307.3483,-25.9589 -81.7903,-0.052 -119.1549,-20.2048 -180.1054,-29.0393 -82.1738,-11.9107 -158.9049,-6.1887 -234.9529,-6.3385 -17.9736,-0.035 -14.7446,-280.0574 -1.8953,-283.0231 z"
       id="path7669"
       sodipodi:nodetypes="sssssssssssssssssssssss" />
  </g>
</svg>
