<?xml version="1.0" encoding="UTF-8" standalone="no"?>
<svg
   xmlns:dc="http://purl.org/dc/elements/1.1/"
   xmlns:cc="http://creativecommons.org/ns#"
   xmlns:rdf="http://www.w3.org/1999/02/22-rdf-syntax-ns#"
   xmlns:svg="http://www.w3.org/2000/svg"
   xmlns="http://www.w3.org/2000/svg"
   xmlns:xlink="http://www.w3.org/1999/xlink"
   xmlns:sodipodi="http://sodipodi.sourceforge.net/DTD/sodipodi-0.dtd"
   xmlns:inkscape="http://www.inkscape.org/namespaces/inkscape"
   height="7176px"
   version="1.1"
   width="5825px"
   id="svg20603"
   sodipodi:docname="jovic_1999_cyclic_247_f6_solid.svg"
   inkscape:version="0.92.2 (5c3e80d, 2017-08-06)">
  <metadata
     id="metadata28">
    <rdf:RDF>
      <cc:Work
         rdf:about="">
        <dc:format>image/svg+xml</dc:format>
        <dc:type
           rdf:resource="http://purl.org/dc/dcmitype/StillImage" />
      </cc:Work>
    </rdf:RDF>
  </metadata>
  <sodipodi:namedview
     id="namedview20605"
     pagecolor="#ffffff"
     bordercolor="#666666"
     borderopacity="1.0"
     inkscape:pageshadow="2"
     inkscape:pageopacity="0.0"
     inkscape:pagecheckerboard="0"
     showgrid="false"
     inkscape:zoom="0.14839783"
     inkscape:cx="2904.2873"
     inkscape:cy="3512.1237"
     inkscape:window-width="1920"
     inkscape:window-height="1017"
     inkscape:window-x="-8"
     inkscape:window-y="32"
     inkscape:window-maximized="1"
     inkscape:current-layer="svg20603" />
  <defs
     id="defs20599" />
  <image
     sodipodi:absref="F:\Github\echemdb\website\literature\jovic_1999_cyclic_247\Jovic_1999_Cyclic_247_p3.png"
     xlink:href="Jovic_1999_Cyclic_247_p3.png"
     id="image20601"
     y="0"
     x="0"
     width="5825px"
     sodipodi:insensitive="true"
     height="7176px" />
  <g
     id="g40553">
    <path
       style="fill:none;stroke:#000000;stroke-width:1.14398px;stroke-linecap:butt;stroke-linejoin:miter;stroke-opacity:1"
       d="m 3029.0715,3480.6204 -176.1678,-214.314"
       id="path20640" />
    <text
       xml:space="preserve"
       style="font-size:85.3333px;line-height:1.25;font-family:sans-serif"
       x="2597.8938"
       y="3250.8208"
       id="text22982"><tspan
         sodipodi:role="line"
         id="tspan22980"
         x="2597.8938"
         y="3250.8208">y2: 25 uA / cm2</tspan></text>
  </g>
  <g
     id="g40396">
    <path
       style="fill:none;stroke:#000000;stroke-width:1px;stroke-linecap:butt;stroke-linejoin:miter;stroke-opacity:1"
       d="m 3037.4678,4624.2412 -209.603,71.4555"
       id="path20642" />
    <text
       xml:space="preserve"
       style="font-size:85.3333px;line-height:1.25;font-family:sans-serif"
       x="2202.3848"
       y="4770.7021"
       id="text24900"><tspan
         sodipodi:role="line"
         id="tspan24898"
         x="2202.3848"
         y="4770.7021">y1: -25 uA / cm2</tspan></text>
  </g>
  <g
     id="g40391">
    <path
       style="fill:none;stroke:#000000;stroke-width:1px;stroke-linecap:butt;stroke-linejoin:miter;stroke-opacity:1"
       d="m 3183.9518,4736.215 -57.1644,562.178"
       id="path20644" />
    <text
       xml:space="preserve"
       style="font-size:85.3333px;line-height:1.25;font-family:sans-serif"
       x="3102.9688"
       y="5351.9658"
       id="text27478"><tspan
         sodipodi:role="line"
         id="tspan27476"
         x="3102.9688"
         y="5351.9658">x1: -1.1 V vs SCE</tspan></text>
  </g>
  <g
     id="g40386">
    <path
       style="fill:none;stroke:#000000;stroke-width:1px;stroke-linecap:butt;stroke-linejoin:miter;stroke-opacity:1"
       d="m 4533.6373,4729.0771 452.674,319.2597"
       id="path20646" />
    <text
       xml:space="preserve"
       style="font-size:85.3333px;line-height:1.25;font-family:sans-serif"
       x="4985.1206"
       y="5080.4956"
       id="text30056"><tspan
         sodipodi:role="line"
         id="tspan30054"
         x="4985.1206"
         y="5080.4956">x2: -0.2 V vs SCE</tspan></text>
  </g>
  <text
     xml:space="preserve"
     style="font-size:85.3333px;line-height:1.25;font-family:sans-serif"
     x="4742.1392"
     y="4261.0356"
     id="text36132"><tspan
       sodipodi:role="line"
       id="tspan36130"
       x="4742.1392"
       y="4261.0356">scan rate: 100 mV / s</tspan></text>
  <g
     id="g40381">
    <text
       xml:space="preserve"
       style="font-size:85.3333px;line-height:1.25;font-family:sans-serif"
       x="3369.948"
       y="3293.7034"
       id="text38914"><tspan
         sodipodi:role="line"
         id="tspan38912"
         x="3369.948"
         y="3293.7034">curve: Ag(111)_0.1M_NaOH_before_cycling</tspan></text>
    <path
       style="fill:none;stroke:#000000;stroke-width:1px;stroke-linecap:butt;stroke-linejoin:miter;stroke-opacity:1"
       d="m 3078.2628,4055.3503 c 2.2342,-19.0349 -4.8079,-38.1103 -5.0527,-57.2743 -0.1149,-8.9957 -3.3964,-19.5123 1.6842,-26.9368 4.5407,-6.6356 13.9998,-8.6001 21.895,-10.1216 10.4883,-2.0213 21.3225,1.3945 32.0002,1.6735 20.2182,0.5283 40.452,0.2715 60.6752,0 20.7777,-0.2789 41.5937,-0.1351 62.3163,-1.6735 23.1246,-1.7167 45.9949,-5.9695 69.0532,-8.4211 18.5127,-1.9683 37.1311,-2.8889 55.6226,-5.0473 19.7149,-2.3011 39.2247,-6.1911 58.9478,-8.4211 13.4351,-1.519 26.9319,-2.4567 40.4214,-3.3739 31.985,-2.1748 64.1676,-1.6311 96.0439,-5.0472 20.9245,-2.2424 41.6499,-6.1512 62.3163,-10.1215 20.3315,-3.9059 40.7765,-7.6048 60.6321,-13.4684 20.118,-5.9411 39.9361,-13.1451 58.991,-21.9166 15.7514,-7.2508 31.0324,-15.6654 45.474,-25.2633 16.6505,-11.0659 32.2036,-23.7899 47.1583,-37.0583 8.9084,-7.9039 18.6759,-15.3419 25.2633,-25.2634 9.0544,-13.6372 12.3099,-30.3364 18.5265,-45.4794 6.6927,-16.3027 14.9753,-32.026 20.2107,-48.8533 4.778,-15.3572 6.6503,-31.4721 10.1053,-47.1799 3.8339,-17.4304 7.8812,-34.8132 11.7896,-52.2271 3.4015,-15.1556 7.7274,-30.1366 10.1485,-45.4794 2.8128,-17.8251 2.3666,-36.056 5.0527,-53.9006 2.0492,-13.6132 5.9955,-26.8809 8.4211,-40.4321 2.0004,-11.1762 0.9674,-23.0912 5.0527,-33.6845 1.4583,-3.7814 2.6844,-10.1793 6.7369,-10.1216 5.2942,0.075 6.3734,8.5856 8.4211,13.4684 5.5854,13.3187 7.5886,27.9111 10.1053,42.1326 2.5598,14.4651 2.952,29.2401 5.0528,43.779 1.8753,12.9785 4.0228,25.9294 6.7369,38.7588 3.3551,15.8592 7.7168,31.4896 11.7895,47.1798 3.797,14.6281 5.4335,30.0677 11.7895,43.779 3.7357,8.0588 9.7561,14.8654 15.1581,21.9166 5.8133,7.5881 11.1574,15.8006 18.5264,21.8894 7.9462,6.5658 18.0368,9.9872 26.9476,15.1689 8.4912,4.9377 16.8383,10.119 25.2633,15.1688 8.4316,5.0538 16.8,10.2153 25.3066,15.1418 13.9217,8.0626 28.1173,15.6435 42.1056,23.5899 18.5895,10.5603 36.4096,22.5452 55.5794,32.0111 13.0879,6.4627 26.8291,11.5214 40.4213,16.8422 16.7187,6.5447 33.5759,12.7501 50.5699,18.5427 10.5868,3.6086 21.1672,7.3112 32.0003,10.0945 13.8629,3.5617 27.9986,6.0003 42.1056,8.4211 11.7387,2.0144 23.5611,3.5136 35.3687,5.0743 18.5005,2.4454 36.9184,6.5918 55.5794,6.7207 15.8232,0.1093 31.4713,-3.331 47.2015,-5.0473 20.2155,-2.2057 40.5921,-3.2934 60.632,-6.7477 9.6609,-1.6653 18.8616,-5.9157 28.6318,-6.7207 8.4111,-0.693 19.1092,-4.1018 25.2633,1.6735 9.5006,8.9158 4.0284,25.7701 5.0528,38.7587 1.5894,20.1523 1.4035,40.4083 1.6842,60.6212 0.2184,15.7251 -0.1268,31.4538 0,47.1799 0.2807,34.8215 0.8422,69.6419 1.6841,104.4543 0.4211,17.413 2.8891,34.8507 1.6842,52.2271 -1.1431,16.485 0.9994,35.2769 -8.421,48.8533 -4.4468,6.4086 -12.805,9.3457 -20.2108,11.795 -14.4797,4.7889 -30.292,3.5969 -45.4739,5.0473 -14.0164,1.3391 -28.0765,2.1753 -42.1056,3.3738 -18.5495,1.5847 -37.0246,4.2051 -55.6226,5.0472 -14.0209,0.6348 -28.084,-0.6168 -42.1057,0 -19.1434,0.842 -38.2138,2.9776 -57.2636,5.0473 -17.4457,1.8954 -35.0835,2.9271 -52.2109,6.7477 -16.1272,3.5974 -31.5948,9.7139 -47.2014,15.1418 -13.5926,4.7275 -27.1889,9.5108 -40.4213,15.1688 -15.4717,6.6155 -30.1233,15.0254 -45.4742,21.9166 -13.3163,5.9779 -27.2282,10.597 -40.4213,16.8422 -17.2625,8.1715 -35.107,15.7267 -50.5699,26.9367 -15.754,11.421 -27.3393,27.76 -42.1056,40.4322 -9.1208,7.8273 -20.5452,13.0248 -28.6318,21.9165 -14.2549,15.6741 -23.4355,35.3577 -33.6845,53.9006 -9.963,18.0255 -19.2757,36.4875 -26.9476,55.6009 -6.8105,16.9675 -12.521,34.4349 -16.8422,52.2003 -3.2292,13.2761 -4.0772,27.0303 -6.7369,40.4321 -2.9171,14.6988 -6.5053,29.2594 -10.1054,43.806 -2.6515,10.7138 -4.9975,21.5326 -8.4642,32.0111 -0.9496,2.8703 -0.3826,7.9473 -3.3685,8.4211 -4.3278,0.6868 -6.5747,-6.1206 -8.4211,-10.0946 -8.1687,-17.5813 -6.5208,-38.2222 -10.1053,-57.2743 -3.1774,-16.8883 -7.4153,-33.581 -10.1054,-50.5537 -3.0093,-18.9861 -3.3651,-38.3494 -6.7369,-57.2745 -2.5317,-14.21 -6.9588,-28.019 -10.1053,-42.1056 -3.6251,-16.2292 -5.7861,-32.7948 -10.1054,-48.8532 -4.1528,-15.4395 -9.9712,-30.383 -15.1579,-45.5065 -6.5677,-19.1503 -10.866,-39.3148 -20.2107,-57.2744 -8.9159,-17.1354 -21.345,-32.2918 -33.6845,-47.1529 -12.9382,-15.5823 -25.4902,-32.2244 -42.1056,-43.806 -16.0988,-11.2215 -35.1258,-18.0062 -53.9384,-23.5899 -13.0942,-3.8864 -26.8675,-5.0312 -40.4213,-6.7208 -13.4168,-1.6725 -26.9457,-2.2718 -40.4214,-3.3738 -28.081,-2.2964 -56.0803,-6.5612 -84.2544,-6.7477 -16.8794,-0.1118 -33.6563,2.8113 -50.5267,3.3739 -13.4663,0.4491 -26.9476,0 -40.4214,0 -13.4738,0 -26.9583,0.538 -40.4213,0 -14.0833,-0.5628 -28.2484,-1.0426 -42.1488,-3.3739 -17.7258,-2.9728 -34.6727,-9.5375 -52.211,-13.4683 -11.7116,-2.6249 -23.5431,-4.6964 -35.3687,-6.7477 -17.9155,-3.1077 -35.8492,-6.1921 -53.8951,-8.4212 -12.3085,-1.5204 -24.6637,-2.8109 -37.053,-3.3738 -15.1568,-0.6886 -30.3545,0.5417 -45.5172,0 -15.7495,-0.5627 -31.4087,-2.8112 -47.1582,-3.3739 -6.1716,-0.2205 -12.6979,2.0407 -18.5265,0 -3.3896,-1.1868 -6.5794,-3.6374 -8.4211,-6.7206 -3.2216,-5.3931 -2.6747,-12.2991 -3.3685,-18.5427 -1.4897,-13.4066 -3.5668,-27.0751 -1.6842,-40.4322 0.9913,-7.0335 5.9089,-13.1615 6.7369,-20.2161 z"
       id="path40277"
       sodipodi:nodetypes="ssssssssssssssssssssssssssssssssssssssssssssssssssssssssssssssssssssssssssssssssssssssssssssssssssssssssss" />
  </g>
  <text
     xml:space="preserve"
     style="font-style:normal;font-variant:normal;font-weight:normal;font-stretch:normal;font-size:80px;line-height:1.25;font-family:sans-serif;-inkscape-font-specification:sans-serif;letter-spacing:0px;word-spacing:0px;fill:#000000;fill-opacity:1;stroke:none"
     x="5269.6191"
     y="3638.2124"
     id="text837"><tspan
       sodipodi:role="line"
       id="tspan835"
       x="5269.6191"
       y="3638.2124">comment: CV was obtained before cycling between 0.2 V and 0.5 V.</tspan></text>
</svg>
