<?xml version="1.0" encoding="UTF-8" standalone="no"?>
<svg
   height="7176px"
   version="1.1"
   width="5825px"
   id="svg40641"
   sodipodi:docname="Jovic_1999_Cyclic_247_p4_7_dashed.svg"
   inkscape:version="1.1 (ce6663b3b7, 2021-05-25)"
   xmlns:inkscape="http://www.inkscape.org/namespaces/inkscape"
   xmlns:sodipodi="http://sodipodi.sourceforge.net/DTD/sodipodi-0.dtd"
   xmlns:xlink="http://www.w3.org/1999/xlink"
   xmlns="http://www.w3.org/2000/svg"
   xmlns:svg="http://www.w3.org/2000/svg">
  <sodipodi:namedview
     id="namedview40643"
     pagecolor="#ffffff"
     bordercolor="#666666"
     borderopacity="1.0"
     inkscape:pageshadow="2"
     inkscape:pageopacity="0.0"
     inkscape:pagecheckerboard="0"
     showgrid="false"
     inkscape:zoom="0.83946488"
     inkscape:cx="1937.5438"
     inkscape:cy="1443.1813"
     inkscape:window-width="1608"
     inkscape:window-height="986"
     inkscape:window-x="72"
     inkscape:window-y="27"
     inkscape:window-maximized="1"
     inkscape:current-layer="g86309" />
  <defs
     id="defs40637" />
  <image
     height="7176px"
     sodipodi:insensitive="true"
     width="5825px"
     x="0"
     xlink:href="Jovic_1999_Cyclic_247_p4.png"
     y="0"
     id="image40639" />
  <g
     id="g55594">
    <path
       style="fill:none;stroke:#000000;stroke-width:1.2507px;stroke-linecap:butt;stroke-linejoin:miter;stroke-opacity:1"
       d="M 832.06157,936.44025 467.44462,799.44421"
       id="path40678" />
    <text
       xml:space="preserve"
       style="font-size:85.3333px;line-height:1.25;font-family:sans-serif"
       x="243.39091"
       y="772.32739"
       id="text43020"><tspan
         sodipodi:role="line"
         id="tspan43018"
         x="243.39091"
         y="772.32739">y2: 20 uA / cm2</tspan></text>
  </g>
  <g
     id="g55589">
    <path
       style="fill:none;stroke:#000000;stroke-width:1.65717px;stroke-linecap:butt;stroke-linejoin:miter;stroke-opacity:1"
       d="M 840.45262,2038.611 302.39911,1936.9807"
       id="path40680" />
    <text
       xml:space="preserve"
       style="font-size:85.3333px;line-height:1.25;font-family:sans-serif"
       x="202.96954"
       y="1914.5226"
       id="text45652"><tspan
         sodipodi:role="line"
         id="tspan45650"
         x="202.96954"
         y="1914.5226">y1: -20 uA / cm2</tspan></text>
  </g>
  <g
     id="g55584">
    <path
       style="fill:none;stroke:#000000;stroke-width:1.1177px;stroke-linecap:butt;stroke-linejoin:miter;stroke-opacity:1"
       d="M 961.8853,2174.8362 307.34801,2333.9715"
       id="path40682" />
    <text
       xml:space="preserve"
       style="font-size:85.3333px;line-height:1.25;font-family:sans-serif"
       x="209.70644"
       y="2406.4023"
       id="text47702"><tspan
         sodipodi:role="line"
         id="tspan47700"
         x="209.70644"
         y="2406.4023">x1: -1.1 V vs SCE</tspan></text>
  </g>
  <g
     id="g55579">
    <path
       style="fill:none;stroke:#000000;stroke-width:1px;stroke-linecap:butt;stroke-linejoin:miter;stroke-opacity:1"
       d="m 2423.2947,2169.7473 104.4218,448.1006"
       id="path40684" />
    <text
       xml:space="preserve"
       style="font-size:85.3333px;line-height:1.25;font-family:sans-serif"
       x="2524.3481"
       y="2674.2856"
       id="text52062"><tspan
         sodipodi:role="line"
         id="tspan52060"
         x="2524.3481"
         y="2674.2856">x2: 0.1 V vs SCE</tspan></text>
  </g>
  <text
     xml:space="preserve"
     style="font-size:85.3333px;line-height:1.25;font-family:sans-serif"
     x="1055.3203"
     y="2019.0104"
     id="text59700"><tspan
       sodipodi:role="line"
       id="tspan59698"
       x="1055.3203"
       y="2019.0104">scan rate: 50 mV / s</tspan></text>
  <g
     id="g86309">
    <text
       xml:space="preserve"
       style="font-size:85.3333px;line-height:1.25;font-family:sans-serif"
       x="1331.6194"
       y="704.98877"
       id="text63766"><tspan
         sodipodi:role="line"
         id="tspan63764"
         x="1331.6194"
         y="704.98877">curve: Ag(100)_0.1M_NaOH</tspan></text>
    <path
       style="fill:none;stroke:#000000;stroke-width:1px;stroke-linecap:butt;stroke-linejoin:miter;stroke-opacity:1"
       d="m 866.30144,1489.6224 c -0.55497,-10.1129 -2.72028,-21.2174 1.68424,-30.3376 2.93938,-6.0864 8.93411,-10.8325 15.15799,-13.4684 20.73623,-8.7821 44.87835,-3.9115 67.36895,-5.0472 21.32801,-1.077 42.71853,-0.5413 64.04368,-1.6735 14.0604,-0.7465 28.0611,-2.3716 42.1056,-3.3738 17.9546,-1.2812 35.9223,-2.383 53.8952,-3.3739 23.5845,-1.3002 47.1773,-2.4763 70.7806,-3.3738 19.643,-0.7469 39.3212,-0.5766 58.9478,-1.6734 13.4996,-0.7544 26.9322,-2.4528 40.4214,-3.3739 10.657,-0.7277 21.644,0.9167 32.0002,-1.7004 11.441,-2.8912 22.8107,-7.7386 32.0003,-15.1418 7.1817,-5.7856 11.6588,-14.3183 16.8854,-21.9165 6.711,-9.7561 13.0432,-19.8154 18.5265,-30.3107 7.1043,-13.5979 13.4862,-27.6421 18.5264,-42.1325 4.3835,-12.6022 6.1108,-26.001 10.1054,-38.7318 3.4043,-10.8494 8.4921,-21.1286 11.7895,-32.011 4.1856,-13.8135 1.8075,-17.1374 4.1507,-31.3796 1.0075,-6.1241 7.6389,-20.9284 7.6389,-20.9284 2.402,-4.1897 18.5264,-11.7141 11.7895,-16.7614 -2.2456,-1.6824 -4.229,1.4357 -2.7905,3.8449 0,0 12.7217,23.7042 14.5802,34.9138 2.0536,12.3862 4.2983,24.7422 6.7369,37.0584 3.1221,15.7684 4.2719,32.1741 10.1053,47.1528 4.0188,10.3193 9.5351,20.3158 16.8422,28.6372 4.2243,4.8107 10.2689,7.6617 15.158,11.795 6.982,5.9026 12.4529,13.7046 20.2107,18.5426 11.7779,7.3451 25.7286,10.4445 38.7804,15.1689 16.6933,6.0425 33.3683,12.2848 50.5266,16.8422 19.3672,5.1441 39.097,9.057 58.9478,11.7949 21.7678,3.0023 43.7553,4.8258 65.728,5.0473 29.8006,0.3004 59.6359,-1.8291 89.2638,-5.0473 17.5255,-1.9036 35.0107,-4.559 52.211,-8.421 21.6848,-4.8689 43.0266,-11.3164 64.0437,-18.5427 14.295,-4.915 28.2712,-10.7502 42.1056,-16.8423 15.3996,-6.7814 30.8176,-13.6506 45.474,-21.9164 13.4275,-7.5727 25.8659,-16.7794 38.7371,-25.2634 11.8422,-7.8057 23.6564,-15.6543 35.4119,-23.59 10.7114,-7.2308 20.3863,-16.2209 32.0004,-21.8894 11.6483,-5.6852 25.1625,-6.6351 37.0528,-11.795 14.7581,-6.4044 28.7619,-14.6031 42.1057,-23.59 14.908,-10.0404 28.0711,-22.4553 42.1056,-33.6844 8.4215,-6.7381 16.8762,-13.4351 25.2633,-20.2161 6.2152,-5.025 12.4403,-10.0392 18.5695,-15.1688 7.9394,-6.6446 16.282,-12.8721 23.5793,-20.2161 6.7377,-6.7808 12.329,-14.6116 18.5264,-21.8895 6.7132,-7.8836 13.8995,-15.3811 20.2107,-23.59 6.6421,-8.6394 13.3153,-17.3658 18.5264,-26.9367 3.4907,-6.4113 1.126,-20.4811 8.4212,-20.2161 5.3173,0.1932 4.1995,9.8898 5.0526,15.1418 3.8718,23.8353 -0.1857,48.2962 0,72.4432 0.2807,36.5038 1.4035,72.9978 1.6842,109.5016 0.3541,46.0449 -0.3069,92.0935 0,138.1387 0.2807,42.1174 2.2803,84.2297 1.6843,126.3438 -0.3818,26.9755 1.0312,54.2474 -3.3685,80.8644 -1.6227,9.8167 -5.2696,19.1995 -8.4211,28.6371 -3.0402,9.1042 -3.8806,19.6575 -10.1053,26.9638 -2.9336,3.4433 -7.5913,5.0363 -11.7895,6.7207 -10.7415,4.3095 -22.4062,5.8231 -33.6846,8.4211 -10.6231,2.447 -21.5088,3.7861 -32.0001,6.7477 -8.0451,2.2711 -15.7723,5.5478 -23.6225,8.4211 -9.0106,3.298 -18.1532,6.2838 -26.9476,10.1215 -11.5056,5.0209 -22.7501,10.6752 -33.6843,16.8423 -10.9896,6.1983 -20.0524,16.1619 -32.0004,20.216 -11.7444,3.985 -24.6656,3.9796 -37.0528,3.3739 -11.9879,-0.5861 -23.9722,-2.983 -35.3687,-6.7477 -17.1802,-5.6753 -31.992,-17.1118 -48.8858,-23.5899 -16.9218,-6.4889 -34.6072,-10.8603 -52.2109,-15.1688 -22.2441,-5.4443 -44.7125,-10.1326 -67.3689,-13.4684 -23.4477,-3.4523 -47.1921,-4.4467 -70.7806,-6.7477 -22.4612,-2.191 -44.9983,-3.7439 -67.3689,-6.7207 -16.9254,-2.2522 -33.5104,-7.0128 -50.5268,-8.4211 -18.4777,-1.5293 -37.0835,-0.2558 -55.6226,0 -20.2164,0.2789 -40.4648,0.2356 -60.632,1.6734 -14.656,1.0449 -29.372,2.2155 -43.7898,5.0473 -14.3022,2.8091 -28.9409,5.5393 -42.1056,11.795 -10.563,5.0194 -19.7313,12.6807 -28.675,20.216 -3.646,3.0718 -5.8025,8.0685 -10.1053,10.1216 -9.6795,4.6186 -21.2899,2.7883 -32.0003,3.3469 -6.1671,0.3216 -13.1065,-2.9598 -18.5265,0 -8.2032,4.4797 -10.8443,15.2981 -15.1579,23.5898 -6.1594,11.8399 -9.6442,24.9045 -15.1581,37.0584 -3.1125,6.8607 -4.9303,14.7412 -10.1054,20.2161 -3.1104,3.2906 -7.4553,8.0583 -11.7895,6.7477 -6.0081,-1.8168 -5.8276,-11.1264 -8.4211,-16.8423 -5.5145,-12.1536 -9.4278,-25.0049 -15.158,-37.0583 -6.0412,-12.7075 -12.2978,-25.4238 -20.2107,-37.0583 -9.8703,-14.5125 -22.2036,-27.1947 -33.7276,-40.4322 -5.4826,-6.2978 -10.7773,-12.8035 -16.8423,-18.5427 -8.4057,-7.9542 -17.2974,-15.5021 -26.9476,-21.8895 -9.0064,-5.9613 -19.0293,-10.2247 -28.6318,-15.1688 -13.3939,-6.8961 -26.6785,-14.0448 -40.4214,-20.216 -11.0313,-4.9536 -22.297,-9.3998 -33.6844,-13.4685 -10.5483,-3.7689 -21.084,-7.8065 -32.0435,-10.1215 -19.8954,-4.2025 -40.3424,-5.3712 -60.632,-6.7207 -25.214,-1.677 -50.5713,-0.097 -75.7901,-1.7004 -21.42186,-1.362 -42.64299,-5.0589 -64.04368,-6.7207 -11.20871,-0.8704 -22.45865,-1.089 -33.68447,-1.7004 -9.54608,-0.5199 -19.24492,0.1387 -28.63183,-1.6735 -5.23165,-1.01 -10.7893,-2.0238 -15.15799,-5.0742 -2.94738,-2.058 -5.27099,-5.1388 -6.7369,-8.4211 -1.39112,-3.1148 -1.12321,-6.7296 -1.68425,-10.0945 -1.12356,-6.7386 -2.9941,-13.3948 -3.36844,-20.2162 z"
       id="path80842"
       sodipodi:nodetypes="sssssssssssssssssssssssssssssssssssssssssssssssssssssssssssssssssssssssssssssssssssssssssssssssssssssss" />
  </g>
</svg>
