<?xml version="1.0" encoding="UTF-8" standalone="no"?>
<svg
   height="7176px"
   version="1.1"
   width="5825px"
   id="svg53"
   sodipodi:docname="Jovic_1999_Cyclic_247_f1_dashed.svg"
   inkscape:version="1.1 (ce6663b3b7, 2021-05-25)"
   xmlns:inkscape="http://www.inkscape.org/namespaces/inkscape"
   xmlns:sodipodi="http://sodipodi.sourceforge.net/DTD/sodipodi-0.dtd"
   xmlns:xlink="http://www.w3.org/1999/xlink"
   xmlns="http://www.w3.org/2000/svg"
   xmlns:svg="http://www.w3.org/2000/svg">
  <sodipodi:namedview
     id="namedview55"
     pagecolor="#ffffff"
     bordercolor="#666666"
     borderopacity="1.0"
     inkscape:pageshadow="2"
     inkscape:pageopacity="0.0"
     inkscape:pagecheckerboard="0"
     showgrid="false"
     inkscape:zoom="0.67573976"
     inkscape:cx="3852.8146"
     inkscape:cy="1412.526"
     inkscape:window-width="1608"
     inkscape:window-height="986"
     inkscape:window-x="72"
     inkscape:window-y="27"
     inkscape:window-maximized="1"
     inkscape:current-layer="g41494" />
  <defs
     id="defs49" />
  <image
     height="7176px"
     sodipodi:insensitive="true"
     width="5825px"
     x="0"
     xlink:href="Jovic_1999_Cyclic_247_p1.png"
     y="0"
     id="image51" />
  <g
     id="g23015">
    <path
       style="fill:none;stroke:#000000;stroke-width:1.77851px;stroke-linecap:butt;stroke-linejoin:miter;stroke-opacity:1"
       d="M 3029.4866,937.23304 2709.0646,743.75501"
       id="path170" />
    <text
       xml:space="preserve"
       style="font-size:85.3333px;line-height:1.25;font-family:sans-serif"
       x="2310.4441"
       y="713.95587"
       id="text2908"><tspan
         sodipodi:role="line"
         id="tspan2906"
         x="2310.4441"
         y="713.95587">y2: 20 uA / cm2</tspan></text>
  </g>
  <g
     id="g23010">
    <path
       style="fill:none;stroke:#000000;stroke-width:1px;stroke-linecap:butt;stroke-linejoin:miter;stroke-opacity:1"
       d="m 3031.8667,2045.5209 -321.026,-13.7706"
       id="path172" />
    <text
       xml:space="preserve"
       style="font-size:85.3333px;line-height:1.25;font-family:sans-serif"
       x="2052.5754"
       y="2066.0752"
       id="text7004"><tspan
         sodipodi:role="line"
         id="tspan7002"
         x="2052.5754"
         y="2066.0752">y1: -20 uA / cm2</tspan></text>
  </g>
  <g
     id="g23005">
    <path
       style="fill:none;stroke:#000000;stroke-width:0.790046px;stroke-linecap:butt;stroke-linejoin:miter;stroke-opacity:1"
       d="m 3154.0707,2181.3943 -19.2343,114.4514"
       id="path174" />
    <text
       xml:space="preserve"
       style="font-size:85.3333px;line-height:1.25;font-family:sans-serif"
       x="2775.9773"
       y="2365.2722"
       id="text9252"><tspan
         sodipodi:role="line"
         id="tspan9250"
         x="2775.9773"
         y="2365.2722">x1: -1.1 V vs SCE</tspan></text>
  </g>
  <g
     id="g23000">
    <path
       id="path176"
       style="fill:none;stroke:#000000;stroke-width:1.2113px;stroke-linecap:butt;stroke-linejoin:miter;stroke-opacity:1"
       d="m 4619.7317,2181.179 116.4008,157.7523 z" />
    <text
       xml:space="preserve"
       style="font-size:85.3333px;line-height:1.25;font-family:sans-serif"
       x="4740.0928"
       y="2396.2974"
       id="text12082"><tspan
         sodipodi:role="line"
         id="tspan12080"
         x="4740.0928"
         y="2396.2974">x2: 0.1 V vs SCE</tspan></text>
  </g>
  <text
     xml:space="preserve"
     style="font-size:85.3333px;line-height:1.25;font-family:sans-serif"
     x="4047.3762"
     y="2043.5024"
     id="text27793"><tspan
       sodipodi:role="line"
       id="tspan27791"
       x="4047.3762"
       y="2043.5024">scan rate: 50 mV / s</tspan></text>
  <g
     id="g41494">
    <text
       xml:space="preserve"
       style="font-size:85.3333px;line-height:1.25;font-family:sans-serif"
       x="3346.9185"
       y="934.11884"
       id="text35624"><tspan
         sodipodi:role="line"
         id="tspan35622"
         x="3346.9185"
         y="934.11884">curve: Ag(111)_0.01M_NaOH</tspan></text>
    <path
       style="fill:none;stroke:#000000;stroke-width:1px;stroke-linecap:butt;stroke-linejoin:miter;stroke-opacity:1"
       d="m 3063.8971,1493.2928 c 0.4575,-9.1874 -5.155,-19.9777 0,-27.5964 3.4722,-5.1317 11.2129,-5.5391 17.2547,-6.913 8.431,-1.9172 17.2405,-1.4285 25.882,-1.7144 14.9459,-0.4945 29.9494,1.1097 44.8622,0 11.614,-0.8642 23.001,-3.6982 34.5537,-5.1709 10.9003,-1.3896 21.8341,-2.5342 32.7839,-3.4565 9.1883,-0.7739 18.4173,-0.9921 27.6076,-1.742 11.5224,-0.9403 22.9631,-2.8797 34.5094,-3.4565 9.191,-0.4591 18.405,0 27.6075,0 12.6534,0 25.3069,0 37.9603,0 13.2434,0 26.4931,0.4106 39.7301,0 9.2158,-0.2859 18.3917,-1.4285 27.6075,-1.7144 10.3479,-0.321 20.7216,0.5734 31.0585,0 10.4007,-0.577 20.7094,-2.2709 31.0584,-3.4565 9.7813,-1.1206 19.494,-3.1049 29.333,-3.4565 12.6587,-0.4523 25.3002,2.1525 37.9603,1.7421 10.4259,-0.338 20.706,-2.6077 31.1028,-3.4565 10.9066,-0.8904 21.9126,-0.4643 32.7839,-1.7143 16.252,-1.8687 32.8562,-3.2696 48.3131,-8.6274 9.2417,-3.2034 17.2291,-9.2657 25.8821,-13.8259 14.3368,-7.5556 29.3711,-13.8734 43.1367,-22.4256 18.1861,-11.2985 35.8189,-23.7277 51.8084,-37.9659 8.2083,-7.3093 16.6814,-14.8004 22.4311,-24.1676 6.0942,-9.9283 8.0923,-21.8487 12.0783,-32.795 5.229,-14.3598 10.1049,-28.8495 15.5292,-43.1367 3.3011,-8.6949 6.7925,-17.3177 10.3529,-25.9097 1.6742,-4.0403 1.1154,-10.4325 5.1763,-12.0562 4.0665,-1.626 9.5281,11.9715 12.0783,15.5319 4.3656,6.0952 -0.6155,4.9421 1.7255,12.0645 3.39,10.3139 9.3355,20.1976 17.2548,27.6242 6.195,5.8096 14.2812,9.6943 22.431,12.0838 7.1959,2.1098 14.9829,0.8446 22.4311,1.7144 11.0029,1.2849 21.9541,3.0572 32.8282,5.1709 7.5342,1.4645 15.2682,2.4415 22.4311,5.1985 5.5264,2.1271 10.3529,5.7516 15.5293,8.6274 5.1764,2.8758 10.1808,6.0857 15.5292,8.6273 8.3913,3.9876 17.2192,6.9846 25.882,10.3418 9.166,3.5522 18.2717,7.2913 27.6076,10.3694 7.9518,2.6217 16.0967,4.6173 24.1565,6.8853 10.3431,2.9105 20.5764,6.2656 31.0585,8.6273 13.1136,2.9546 26.4259,4.9905 39.73,6.913 14.8984,2.1529 29.922,3.3314 44.8623,5.1708 13.2416,1.6303 26.3725,4.3303 39.6858,5.1986 14.9224,0.9732 29.9433,1.0248 44.8622,0 16.813,-1.1549 33.5377,-3.7094 50.083,-6.913 13.9705,-2.7051 28.359,-4.7011 41.4113,-10.3694 10.6803,-4.6382 20.5264,-11.3514 29.3328,-18.9691 9.2512,-8.0025 17.5296,-17.3427 24.1567,-27.6241 7.5312,-11.684 11.9616,-25.1121 17.2545,-37.9659 6.3061,-15.3143 10.8718,-31.3108 17.2548,-46.5932 3.6693,-8.7851 8.7127,-16.9763 12.0783,-25.8821 3.6035,-9.5354 4.7119,-19.9269 8.6274,-29.3385 5.0459,-12.1285 12.47,-23.1274 18.9801,-34.537 7.2884,-12.7736 15.849,-24.8368 22.4755,-37.9659 7.3147,-14.4926 12.8658,-29.8126 18.98,-44.8511 9.5358,-23.4542 20.8906,-46.34958 27.6075,-70.76093 2.7864,-10.12654 3.7332,-20.67731 5.1765,-31.08056 1.4312,-10.31589 1.2183,-20.88036 3.451,-31.05293 1.9514,-8.89113 0.369,-22.08069 8.6273,-25.9097 2.8106,-1.30314 6.3484,1.35784 8.6273,3.45647 8.5192,7.84545 11.8678,20.09317 15.5292,31.08058 2.0318,6.0972 0.7873,13.12027 3.451,18.96911 3.0528,6.70319 9.836,11.04911 13.8038,17.25467 1.3874,2.16986 2.6437,4.46725 3.451,6.91295 3.1127,9.4301 4.1203,19.46428 5.1762,29.33854 1.5918,14.8858 1.4379,29.9109 1.7255,44.8788 0.5416,28.1812 0,56.3727 0,84.5591 0,15.5311 -0.1617,31.063 0,46.5932 0.2876,27.6194 0.9928,55.2335 1.7255,82.8447 0.4734,17.8384 1.4379,35.6638 1.7255,53.5062 0.2503,15.529 0,31.0621 0,46.5932 0,23.0155 0,46.031 0,69.0465 0,18.9875 0.226,37.9764 0,56.9626 -0.2876,24.1636 -1.6747,48.3101 -1.7255,72.4753 -0.062,29.3441 1.0191,58.6799 1.7255,88.0155 0.485,20.1421 1.4379,40.2732 1.7255,60.4191 0.2874,20.1284 1.0733,40.2896 0,60.3914 -0.864,16.1809 0.179,33.042 -5.1765,48.3353 -2.4775,7.0748 -7.7772,12.8298 -12.0782,18.9692 -5.4159,7.7308 -13.4272,13.8249 -17.2548,22.4532 -5.2158,11.7577 -4.5367,25.3224 -6.9018,37.9658 -2.7994,14.9649 -4.6473,30.1562 -8.6272,44.8513 -2.7133,10.0183 -5.9145,26.4025 -5.9145,26.4025 0,0 -16.7775,-17.335 -21.6931,-28.117 -5.586,-12.2525 -7.7256,-25.9499 -13.8037,-37.9659 -3.7448,-7.4033 -8.5457,-14.2936 -13.8038,-20.7111 -5.6731,-6.924 -13.3033,-12.076 -18.9802,-18.9968 -9.2095,-11.2275 -17.4355,-23.3746 -24.2008,-36.2238 -7.219,-13.7108 -10.7349,-29.1077 -17.2547,-43.1644 -8.7699,-18.9078 -19.7852,-36.6935 -29.3331,-55.2206 -4.7155,-9.1501 -7.6845,-19.3467 -13.8037,-27.6241 -9.9153,-13.4124 -23.341,-23.9285 -36.2348,-34.5094 -14.6807,-12.0473 -29.5445,-24.4172 -46.5878,-32.7949 -15.6843,-7.7097 -32.7458,-13.307 -50.0828,-15.5127 -11.9951,-1.5261 -24.1697,0.9127 -36.2349,1.7144 -20.1597,1.3395 -40.3177,2.8795 -60.3915,5.1709 -20.2036,2.3062 -40.525,4.2877 -60.3914,8.6274 -15.8393,3.46 -31.0158,9.4683 -46.632,13.8259 -24.0516,6.7114 -48.2595,12.8544 -72.4697,18.969 -21.2354,5.3633 -22.1271,4.8942 -43.1298,11.1067 -11.7007,3.461 -43.6137,12.8975 -55.2662,16.5174 -12.5242,3.8907 -25.9447,5.0866 -37.9604,10.3418 -9.9427,4.3485 -20.0058,9.5099 -27.6075,17.2547 -7.0532,7.186 -10.4417,17.2205 -15.5293,25.9097 -4.6835,7.9991 -10.1188,15.6346 -13.8037,24.14 -3.1127,7.1847 0.2255,10.344 -6.9019,13.5859 -5.1577,2.3459 -11.6001,6.037 -15.5292,1.9544 -6.4433,-6.695 -6.5468,-17.4053 -10.3528,-25.882 -6.3229,-14.082 -12.5929,-28.2898 -20.7057,-41.4224 -6.0479,-9.7901 -12.4337,-19.6241 -20.7056,-27.6241 -10.0996,-9.7677 -23.1528,-15.9284 -34.5537,-24.14 -18.0185,-12.978 -37.3524,-24.4537 -53.4895,-39.7079 -9.7923,-9.2566 -14.7967,-23.3921 -25.882,-31.053 -13.0194,-8.9975 -29.4252,-12.0541 -44.8623,-15.5403 -20.336,-4.5926 -41.345,-5.759 -62.1612,-6.9129 -14.9311,-0.8277 -29.9459,-1.0617 -44.8622,0 -16.2273,1.1551 -32.1499,5.0661 -48.3131,6.9129 -20.0735,2.2936 -40.1956,4.5946 -60.3915,5.1709 -20.1451,0.5748 -40.2844,-1.4286 -60.4357,-1.7144 -14.3775,-0.2039 -28.7807,0.8113 -43.1367,0 -30.6298,-1.731 -60.8487,-8.1915 -91.45,-10.3694 -19.529,-1.3899 -39.1449,-0.9994 -58.7102,-1.7145 -13.2325,-0.4836 -26.6031,0.3012 -39.6858,-1.742 -6.4788,-1.0118 -14.1551,-0.7305 -18.9802,-5.1709 -4.9511,-4.5564 -5.1914,-12.4616 -6.9019,-18.9691 -1.7792,-6.769 -3.2214,-13.716 -3.4509,-20.7111 -0.1898,-5.7863 1.4376,-11.5001 1.7255,-17.2824 z"
       id="path41409"
       sodipodi:nodetypes="ssssssssssssssssssssssssssssssssssssssssssssssssssssssssssssssssssssssssssssssssssscssssssssssssssssssssssssssssssssssssssssssss" />
  </g>
</svg>
