<?xml version="1.0" encoding="UTF-8" standalone="no"?>
<svg
   height="7176px"
   version="1.1"
   width="5825px"
   id="svg53"
   sodipodi:docname="jovic_1999_cyclic_247_f1_dashed.svg"
   inkscape:version="1.1.2 (b8e25be833, 2022-02-05)"
   xmlns:inkscape="http://www.inkscape.org/namespaces/inkscape"
   xmlns:sodipodi="http://sodipodi.sourceforge.net/DTD/sodipodi-0.dtd"
   xmlns:xlink="http://www.w3.org/1999/xlink"
   xmlns="http://www.w3.org/2000/svg"
   xmlns:svg="http://www.w3.org/2000/svg">
  <sodipodi:namedview
     id="namedview55"
     pagecolor="#ffffff"
     bordercolor="#666666"
     borderopacity="1.0"
     inkscape:pageshadow="2"
     inkscape:pageopacity="0.0"
     inkscape:pagecheckerboard="0"
     showgrid="false"
     inkscape:zoom="0.33786988"
     inkscape:cx="3563.502"
     inkscape:cy="1402.9069"
     inkscape:window-width="1920"
     inkscape:window-height="1017"
     inkscape:window-x="-8"
     inkscape:window-y="32"
     inkscape:window-maximized="1"
     inkscape:current-layer="svg53" />
  <defs
     id="defs49" />
  <image
     height="7176"
     sodipodi:insensitive="true"
     width="5825"
     x="0"
     xlink:href="jovic_1999_cyclic_247_p1.png"
     y="0"
     id="image51"
     style="display:inline" />
  <g
     id="g23015">
    <path
       style="fill:none;stroke:#000000;stroke-width:1.77851px;stroke-linecap:butt;stroke-linejoin:miter;stroke-opacity:1"
       d="M 3029.4866,937.23304 2709.0646,743.75501"
       id="path170" />
    <text
       xml:space="preserve"
       style="font-size:85.3333px;line-height:1.25;font-family:sans-serif"
       x="2310.4441"
       y="713.95587"
       id="text2908"><tspan
         sodipodi:role="line"
         id="tspan2906"
         x="2310.4441"
         y="713.95587">j2: 20 uA / cm2</tspan></text>
  </g>
  <g
     id="g23010">
    <path
       style="fill:none;stroke:#000000;stroke-width:1px;stroke-linecap:butt;stroke-linejoin:miter;stroke-opacity:1"
       d="m 3031.8667,2045.5209 -321.026,-13.7706"
       id="path172" />
    <text
       xml:space="preserve"
       style="font-size:85.3333px;line-height:1.25;font-family:sans-serif"
       x="2052.5754"
       y="2066.0752"
       id="text7004"><tspan
         sodipodi:role="line"
         id="tspan7002"
         x="2052.5754"
         y="2066.0752">j1: -20 uA / cm2</tspan></text>
  </g>
  <g
     id="g23005">
    <path
       style="fill:none;stroke:#000000;stroke-width:0.790046px;stroke-linecap:butt;stroke-linejoin:miter;stroke-opacity:1"
       d="m 3154.0707,2181.3943 -19.2343,114.4514"
       id="path174" />
    <text
       xml:space="preserve"
       style="font-size:85.3333px;line-height:1.25;font-family:sans-serif"
       x="2775.9773"
       y="2365.2722"
       id="text9252"><tspan
         sodipodi:role="line"
         id="tspan9250"
         x="2775.9773"
         y="2365.2722">E1: -1.1 V vs SCE</tspan></text>
  </g>
  <g
     id="g23000">
    <path
       id="path176"
       style="fill:none;stroke:#000000;stroke-width:1.2113px;stroke-linecap:butt;stroke-linejoin:miter;stroke-opacity:1"
       d="m 4619.7317,2181.179 116.4008,157.7523 z" />
    <text
       xml:space="preserve"
       style="font-size:85.3333px;line-height:1.25;font-family:sans-serif"
       x="4740.0928"
       y="2396.2974"
       id="text12082"><tspan
         sodipodi:role="line"
         id="tspan12080"
         x="4740.0928"
         y="2396.2974">E2: 0.1 V vs SCE</tspan></text>
  </g>
  <text
     xml:space="preserve"
     style="font-size:85.3333px;line-height:1.25;font-family:sans-serif"
     x="4047.3762"
     y="2043.5024"
     id="text27793"><tspan
       sodipodi:role="line"
       id="tspan27791"
       x="4047.3762"
       y="2043.5024">scan rate: 50 mV / s</tspan></text>
  <text
     xml:space="preserve"
     style="font-size:80px;line-height:1.25;font-family:sans-serif;-inkscape-font-specification:sans-serif;letter-spacing:0px;word-spacing:0px"
     x="4812.5034"
     y="873.11719"
     id="text2517"><tspan
       sodipodi:role="line"
       id="tspan2515"
       x="4812.5034"
       y="873.11719">Figure: 1</tspan></text>
  <text
     xml:space="preserve"
     style="font-size:80px;line-height:1.25;font-family:sans-serif;-inkscape-font-specification:sans-serif;letter-spacing:0px;word-spacing:0px"
     x="4836.1812"
     y="1012.224"
     id="text3709"><tspan
       sodipodi:role="line"
       id="tspan3707"
       x="4836.1812"
       y="1012.224">Tags: BCV</tspan></text>
  <g
     id="g10160">
    <text
       xml:space="preserve"
       style="font-size:85.3333px;line-height:1.25;font-family:sans-serif"
       x="3346.9185"
       y="934.11884"
       id="text35624"><tspan
         sodipodi:role="line"
         id="tspan35622"
         x="3346.9185"
         y="934.11884">curve: dashed</tspan></text>
    <path
       style="fill:none;stroke:#00ff00;stroke-width:1px;stroke-linecap:butt;stroke-linejoin:miter;stroke-opacity:1"
       d="m 3074.0384,1459.1416 c 13.5305,-2.0376 74.3356,-2.3038 111.3595,-5.5495 20.6776,-1.8127 41.0678,-6.4718 61.7841,-7.7692 39.2627,-2.4589 79.7513,0.3762 119.0652,-1.0464 34.1037,-1.234 67.0291,-3.8592 101.0639,-6.3529 26.6391,-1.9518 53.2194,-4.9549 79.9125,-5.9195 35.3707,-1.2782 71.5762,12.2894 142.0665,-23.6777 48.752,-24.8753 75.6609,-47.1294 103.5902,-78.4326 24.9536,-27.9681 39.8339,-129.8797 53.7981,-126.9166 6.8385,1.4512 10.0486,51.0677 36.8433,68.4622 23.9371,15.5394 58.1528,4.5111 83.982,16.6484 40.1083,18.8472 83.2616,47.8022 175.3634,61.0442 65.8378,9.4658 122.07,16.2825 191.6418,2.9597 67.0615,-12.8421 69.4549,-23.4837 93.2312,-62.1541 24.1479,-39.2747 33.3869,-73.3356 54.7548,-119.8686 21.3678,-46.5328 34.8907,-70.4809 54.5906,-110.1226 34.9824,-70.39436 43.1388,-182.8575 55.8756,-184.62339 11.1177,-1.54143 12.1969,42.06841 26.0246,66.48851 3.3059,5.83841 18.6715,11.41166 18.8944,18.11739 9.1888,276.39059 9.7239,827.61249 2.9597,836.12069 -31.5081,39.6316 -28.2013,68.4969 -39.9562,103.5902 -6.8437,20.4314 -7.664,54.359 -18.608,55.0459 -5.7909,0.3635 -13.9507,-60.4604 -37.2567,-83.5332 -27.8395,-27.561 -30.6525,-37.3106 -44.7657,-57.3446 -37.8103,-53.6727 -47.3195,-125.9922 -98.4107,-167.2241 -34.7188,-28.0189 -68.7582,-42.8002 -128.0079,-44.3958 -64.3583,-1.7332 -199.6656,35.7352 -297.4517,62.1541 -34.6361,9.3577 -73.8189,11.9728 -102.1104,34.0368 -26.7606,20.87 -39.108,80.4426 -52.905,77.6926 -10.5827,-2.1094 -21.4625,-48.4213 -47.7254,-79.5424 -15.3236,-18.1582 -32.3025,-33.6613 -49.9453,-49.5754 -37.0025,-33.3769 -73.1381,-71.5157 -120.9785,-85.4619 -58.8167,-17.146 -121.5056,5.679 -182.7627,6.6594 -42.6266,0.5734 -81.8919,3.0112 -121.7184,2.2198 -51.629,-1.1676 -96.3444,-13.9335 -147.986,-13.6887 -15.9078,0.075 -51.8548,3.1291 -66.9636,-1.8498 -13.5866,-4.4773 -18.3444,-10.9459 -19.9781,-25.1576 -1.8388,-15.9953 -1.9278,-69.1273 10.7289,-71.0333 z"
       id="path6271"
       sodipodi:nodetypes="ssssssssssssssssssssssssssssssssccssss" />
  </g>
</svg>
