<?xml version="1.0" encoding="UTF-8" standalone="no"?>
<svg
   height="6612px"
   version="1.1"
   width="4931px"
   id="svg53"
   sodipodi:docname="pajkossy_1996_impedance_209_f1B_dotted.svg"
   inkscape:version="1.1.2 (b8e25be833, 2022-02-05)"
   xmlns:inkscape="http://www.inkscape.org/namespaces/inkscape"
   xmlns:sodipodi="http://sodipodi.sourceforge.net/DTD/sodipodi-0.dtd"
   xmlns:xlink="http://www.w3.org/1999/xlink"
   xmlns="http://www.w3.org/2000/svg"
   xmlns:svg="http://www.w3.org/2000/svg"
   xmlns:rdf="http://www.w3.org/1999/02/22-rdf-syntax-ns#"
   xmlns:cc="http://creativecommons.org/ns#"
   xmlns:dc="http://purl.org/dc/elements/1.1/">
  <metadata
     id="metadata28">
    <rdf:RDF>
      <cc:Work
         rdf:about="">
        <dc:format>image/svg+xml</dc:format>
        <dc:type
           rdf:resource="http://purl.org/dc/dcmitype/StillImage" />
      </cc:Work>
    </rdf:RDF>
  </metadata>
  <sodipodi:namedview
     id="namedview55"
     pagecolor="#ffffff"
     bordercolor="#666666"
     borderopacity="1.0"
     inkscape:pageshadow="2"
     inkscape:pageopacity="0.0"
     inkscape:pagecheckerboard="0"
     showgrid="false"
     inkscape:zoom="0.15720614"
     inkscape:cx="-209.91547"
     inkscape:cy="1539.3801"
     inkscape:window-width="1920"
     inkscape:window-height="1017"
     inkscape:window-x="-8"
     inkscape:window-y="32"
     inkscape:window-maximized="1"
     inkscape:current-layer="svg53" />
  <defs
     id="defs49" />
  <image
     xlink:href="Pajkossy_1996_Impedance_209_p2.png"
     id="image51"
     y="0"
     x="0"
     width="4931px"
     sodipodi:insensitive="true"
     height="6612px" />
  <g
     id="g10864"
     transform="translate(1303.2639,5.6210077)">
    <path
       style="fill:none;stroke:#000000;stroke-width:1px;stroke-linecap:butt;stroke-linejoin:miter;stroke-opacity:1"
       d="M 1282.4373,4943.7898 882.10748,4889.8139"
       id="path208" />
    <text
       xml:space="preserve"
       style="font-size:85.3333px;line-height:1.25;font-family:sans-serif"
       x="309.27679"
       y="4898.8232"
       id="text6060"><tspan
         sodipodi:role="line"
         id="tspan6058"
         x="309.27679"
         y="4898.8232">j2: 2 uA / cm2</tspan></text>
  </g>
  <g
     id="g10859"
     transform="translate(1303.2639,5.6210077)">
    <path
       style="fill:none;stroke:#000000;stroke-width:1px;stroke-linecap:butt;stroke-linejoin:miter;stroke-opacity:1"
       d="m 1284.6857,5359.8151 -355.36194,24.7541"
       id="path206" />
    <text
       xml:space="preserve"
       style="font-size:85.3333px;line-height:1.25;font-family:sans-serif"
       x="337.89426"
       y="5420.3677"
       id="text7120"><tspan
         sodipodi:role="line"
         id="tspan7118"
         x="337.89426"
         y="5420.3677">j1: 0 uA / cm2</tspan></text>
  </g>
  <g
     id="g10854"
     transform="translate(1304.3678,5.159378)">
    <path
       style="fill:none;stroke:#000000;stroke-width:1px;stroke-linecap:butt;stroke-linejoin:miter;stroke-opacity:1"
       d="m 1426.3346,5568.981 -258.6232,110.1857"
       id="path210" />
    <text
       xml:space="preserve"
       style="font-size:85.3333px;line-height:1.25;font-family:sans-serif"
       x="706.82245"
       y="5744.8105"
       id="text8186"><tspan
         sodipodi:role="line"
         id="tspan8184"
         x="706.82245"
         y="5744.8105">E1: -0.6 V vs SCE</tspan></text>
  </g>
  <g
     id="g10849"
     transform="translate(1304.3678,5.159378)">
    <path
       style="fill:none;stroke:#000000;stroke-width:1.20835px;stroke-linecap:butt;stroke-linejoin:miter;stroke-opacity:1"
       d="m 2287.1741,5568.9824 -9.7229,173.1486"
       id="path212" />
    <text
       xml:space="preserve"
       style="font-size:85.3333px;line-height:1.25;font-family:sans-serif"
       x="2093.5029"
       y="5814.6724"
       id="text9510"><tspan
         sodipodi:role="line"
         id="tspan9508"
         x="2093.5029"
         y="5814.6724">E2: 0.6 V vs SCE</tspan></text>
  </g>
  <text
     xml:space="preserve"
     style="font-size:85.3333px;line-height:1.25;font-family:sans-serif"
     x="2627.7407"
     y="4836.3364"
     id="text26380"><tspan
       sodipodi:role="line"
       id="tspan26378"
       x="2627.7407"
       y="4836.3364">scan rate: 10 mV / s</tspan></text>
  <g
     id="g12282">
    <text
       xml:space="preserve"
       style="font-size:85.3333px;line-height:1.25;font-family:sans-serif"
       x="2596.0459"
       y="4638.2798"
       id="text12342"><tspan
         sodipodi:role="line"
         id="tspan12340"
         x="2596.0459"
         y="4638.2798">curve: dotted</tspan></text>
    <path
       style="fill:none;stroke:#000000;stroke-width:1px;stroke-linecap:butt;stroke-linejoin:miter;stroke-opacity:1"
       d="m 2903.6927,5433.7803 c 0,0 0.3692,-35.2515 1.1242,-52.8589 0.4986,-11.6278 -1.3149,-23.7633 2.2484,-34.8429 1.0836,-3.3693 2.6385,-7.1023 5.621,-9.008 7.6375,-4.88 17.9883,-2.2369 26.9808,-3.3691 23.6112,-2.9727 47.1516,-6.5562 70.8244,-8.99 14.2187,-1.4618 28.667,-0.9149 42.7484,-3.3689 12.6281,-2.2007 24.6971,-6.8818 37.0985,-10.125 13.4537,-3.5184 26.9107,-7.0432 40.4711,-10.125 16.4208,-3.7318 33.082,-6.353 49.4936,-10.125 17.7158,-4.0718 34.9178,-10.4411 52.8373,-13.494 21.1466,-3.6028 42.7975,-3.168 64.1081,-5.621 23.6909,-2.727 47.1158,-7.5391 70.8245,-10.1069 20.1827,-2.1859 40.4486,-3.7528 60.7355,-4.504 13.4812,-0.4992 27.186,2.3441 40.4712,0 4.3202,-0.7623 8.7027,-2.0906 12.3661,-4.504 7.3061,-4.8133 14.1938,-11.231 17.9872,-19.115 5.7443,-11.9388 5.5915,-25.9187 8.0059,-38.9457 2.4527,-13.2344 3.9454,-28.4241 5.8138,-41.7535 0.99,-7.0637 1.0539,-12.3032 1.9478,-19.3797 0.7184,-5.6871 3.3727,-16.8629 3.3727,-16.8629 l 6.7451,-3.3691 c 0,0 0.5393,12.0156 1.1243,17.9981 0.5518,5.6438 1.5915,11.2304 2.2484,16.8629 3.0544,26.1906 5.6187,52.44 7.8694,78.7119 0.4491,5.2428 0.2087,10.5642 1.1242,15.746 0.9487,5.3696 1.8555,10.9576 4.4967,15.728 2.442,4.4106 5.6341,8.9369 10.1178,11.2419 3.0183,1.5516 6.7293,0.9455 10.1178,1.135 5.2381,0.2929 10.5318,0.6413 15.7387,0 10.7347,-1.3221 21.1711,-4.5934 31.4777,-7.8729 6.897,-2.1946 22.6204,-9.0641 22.6204,-9.0641 0,0 -0.5114,23.6683 -0.1365,34.935 0.5235,15.7313 0.143,31.4806 0,47.2199 -0.1874,20.6189 -2.0774,41.2513 -1.1241,61.849 0.3137,6.7782 0.261,22.2192 0.261,22.2192 0,0 -12.034,3.9548 -19.3724,5.8857 -15.7884,4.1543 -32.1632,5.6762 -48.3406,7.873 -20.5532,2.7911 -41.5169,2.6887 -61.8597,6.738 -24.8893,4.9543 -48.6792,14.3693 -73.0729,21.367 -23.9577,6.8726 -47.3199,16.616 -71.9775,20.2499 -20.0227,2.9509 -40.4832,0.3223 -60.7066,1.117 -31.1448,1.2238 -62.4407,1.5111 -93.3374,5.621 -11.0012,1.4634 -21.5057,6.5394 -32.6017,6.756 -13.6839,0.2672 -27.2167,-3.458 -40.4999,-6.756 -6.8998,-1.7131 -13.637,-4.0922 -20.2356,-6.738 -13.8477,-5.5525 -26.4095,-14.1291 -40.4712,-19.115 -17.8179,-6.3177 -36.5799,-9.6303 -55.0857,-13.4939 -19.3681,-4.0437 -38.8946,-7.3671 -58.4871,-10.125 -17.17,-2.4169 -51.7131,-5.621 -51.7131,-5.621 z"
       id="path11179"
       sodipodi:nodetypes="csssssssssssssssssssccssssssssscssscsssssssssssssc" />
  </g>
  <text
     xml:space="preserve"
     style="font-size:80px;line-height:1.25;font-family:sans-serif;-inkscape-font-specification:sans-serif;letter-spacing:0px;word-spacing:0px"
     x="-1202.243"
     y="4548.1685"
     id="text3890"><tspan
       sodipodi:role="line"
       id="tspan3888"
       x="-1202.243"
       y="4548.1685">Figure: 1b</tspan></text>
  <text
     xml:space="preserve"
     style="font-size:80px;line-height:1.25;font-family:sans-serif;-inkscape-font-specification:sans-serif;letter-spacing:0px;word-spacing:0px"
     x="-1192.7015"
     y="4688.1123"
     id="text4554"><tspan
       sodipodi:role="line"
       id="tspan4552"
       x="-1192.7015"
       y="4688.1123">Tags: BCV</tspan></text>
</svg>
