<?xml version="1.0" encoding="UTF-8" standalone="no"?>
<svg
   xmlns:dc="http://purl.org/dc/elements/1.1/"
   xmlns:cc="http://creativecommons.org/ns#"
   xmlns:rdf="http://www.w3.org/1999/02/22-rdf-syntax-ns#"
   xmlns:svg="http://www.w3.org/2000/svg"
   xmlns="http://www.w3.org/2000/svg"
   xmlns:xlink="http://www.w3.org/1999/xlink"
   xmlns:sodipodi="http://sodipodi.sourceforge.net/DTD/sodipodi-0.dtd"
   xmlns:inkscape="http://www.inkscape.org/namespaces/inkscape"
   height="6612px"
   version="1.1"
   width="4931px"
   id="svg14147"
   sodipodi:docname="pajkossy_1996_impedance_209_f3A_b.svg"
   inkscape:version="0.92.2 (5c3e80d, 2017-08-06)">
  <metadata
     id="metadata28">
    <rdf:RDF>
      <cc:Work
         rdf:about="">
        <dc:format>image/svg+xml</dc:format>
        <dc:type
           rdf:resource="http://purl.org/dc/dcmitype/StillImage" />
      </cc:Work>
    </rdf:RDF>
  </metadata>
  <sodipodi:namedview
     id="namedview14149"
     pagecolor="#ffffff"
     bordercolor="#666666"
     borderopacity="1.0"
     inkscape:pageshadow="2"
     inkscape:pageopacity="0.0"
     inkscape:pagecheckerboard="0"
     showgrid="false"
     inkscape:zoom="0.11116153"
     inkscape:cx="3840.7894"
     inkscape:cy="4706.9587"
     inkscape:window-width="1920"
     inkscape:window-height="1017"
     inkscape:window-x="-8"
     inkscape:window-y="32"
     inkscape:window-maximized="1"
     inkscape:current-layer="svg14147" />
  <defs
     id="defs14143" />
  <image
     sodipodi:absref="F:\Github\echemdb\website\literature\pajkossy_1996_impedance_209\Pajkossy_1996_Impedance_209_p3.png"
     xlink:href="Pajkossy_1996_Impedance_209_p3.png"
     id="image14145"
     y="0"
     x="0"
     width="4931px"
     sodipodi:insensitive="true"
     height="6612px" />
  <g
     id="g19913">
    <path
       style="fill:none;stroke:#000000;stroke-width:1px;stroke-linecap:butt;stroke-linejoin:miter;stroke-opacity:1"
       d="M 2973.6315,715.6836 2753.231,621.24376"
       id="path14264" />
    <text
       xml:space="preserve"
       style="font-size:85.3333px;line-height:1.25;font-family:sans-serif"
       x="2256.2778"
       y="614.5058"
       id="text17460"><tspan
         sodipodi:role="line"
         id="tspan17458"
         x="2256.2778"
         y="614.5058">y2: 6 uA / cm2</tspan></text>
  </g>
  <g
     id="g19918">
    <path
       style="fill:none;stroke:#000000;stroke-width:1px;stroke-linecap:butt;stroke-linejoin:miter;stroke-opacity:1"
       d="m 2975.88,1408.3627 -166.3814,29.2219"
       id="path14266" />
    <text
       xml:space="preserve"
       style="font-size:85.3333px;line-height:1.25;font-family:sans-serif"
       x="2348.4622"
       y="1514.0443"
       id="text19048"><tspan
         sodipodi:role="line"
         id="tspan19046"
         x="2348.4622"
         y="1514.0443">y1: -2 uA / cm2</tspan></text>
  </g>
  <g
     id="g25786">
    <path
       style="fill:none;stroke:#000000;stroke-width:1px;stroke-linecap:butt;stroke-linejoin:miter;stroke-opacity:1"
       d="m 3158.0577,1581.5323 -281.1072,128.1659"
       id="path19953" />
    <text
       xml:space="preserve"
       style="font-size:85.3333px;line-height:1.25;font-family:sans-serif"
       x="2496.9111"
       y="1763.6741"
       id="text21522"><tspan
         sodipodi:role="line"
         id="tspan21520"
         x="2496.9111"
         y="1763.6741">x1: -0.6 V vs SCE</tspan></text>
  </g>
  <g
     id="g25781">
    <path
       style="fill:none;stroke:#000000;stroke-width:1px;stroke-linecap:butt;stroke-linejoin:miter;stroke-opacity:1"
       d="m 4239.8217,1577.0283 56.2099,155.1899"
       id="path19990" />
    <text
       xml:space="preserve"
       style="font-size:85.3333px;line-height:1.25;font-family:sans-serif"
       x="4222.8984"
       y="1805.3923"
       id="text24004"><tspan
         sodipodi:role="line"
         id="tspan24002"
         x="4222.8984"
         y="1805.3923">x2: 0.6 V vs SCE</tspan></text>
  </g>
  <text
     xml:space="preserve"
     style="font-size:85.3333px;line-height:1.25;font-family:sans-serif"
     x="3253.0259"
     y="509.28476"
     id="text31607"><tspan
       sodipodi:role="line"
       id="tspan31605"
       x="3253.0259"
       y="509.28476">scan rate: 10 mV / s</tspan></text>
  <g
     id="g34810">
    <text
       xml:space="preserve"
       style="font-size:85.3333px;line-height:1.25;font-family:sans-serif"
       x="2913.4695"
       y="282.061"
       id="text32589"><tspan
         sodipodi:role="line"
         id="tspan32587"
         x="2913.4695"
         y="282.061">curve: Au(111)_0.05M_KClO4_50mM_NaBr</tspan></text>
    <path
       style="fill:none;stroke:#000000;stroke-width:1px;stroke-linecap:butt;stroke-linejoin:miter;stroke-opacity:1"
       d="m 2978.3332,1262.3636 0.5621,-37.1039 c 0,0 13.8553,-2.0306 20.8121,-2.8105 10.4687,-1.1736 20.9682,-2.0864 31.4776,-2.8105 11.6077,-0.7998 23.2402,-1.1908 34.8645,-1.6935 14.8035,-0.6402 29.6211,-0.9479 44.4202,-1.6845 12.1869,-0.6066 24.3551,-1.5438 36.5365,-2.252 13.6798,-0.7953 27.3474,-1.9706 41.0476,-2.243 12.5524,-0.2496 25.1115,0.1764 37.6606,0.5585 12.1909,0.3712 24.3576,1.4037 36.5509,1.6845 9.3658,0.2157 18.7369,0.07 28.105,0 12.372,-0.093 24.7462,-0.1841 37.1129,-0.5585 16.5025,-0.4996 32.9986,-1.2634 49.4791,-2.252 17.6343,-1.0578 35.4104,-1.1279 52.8517,-3.9365 11.4406,-1.8423 23.159,-3.6755 33.726,-8.4315 7.2551,-3.2654 13.8288,-8.1114 19.6878,-13.4939 9.8071,-9.0094 19.2724,-19.0467 25.2945,-30.9245 7.789,-15.3629 9.3289,-33.1861 12.9283,-50.0304 2.1054,-9.8525 3.7342,-19.811 5.0589,-29.7985 1.8073,-13.6265 2.5952,-27.369 3.9347,-41.0494 1.2848,-13.1213 2.5231,-26.2477 3.9347,-39.35594 0.5249,-4.87447 1.4042,-9.71645 1.6863,-14.61098 0.766,-13.28955 -0.3693,-26.62863 0.01,-39.93483 0.4707,-16.51052 2.2578,-32.96394 2.8106,-49.47192 0.6148,-18.35797 0.1049,-36.73935 0.562,-55.10192 0.4714,-18.93777 2.0557,-37.84376 2.2484,-56.78642 0.1983,-19.4929 -1.7469,-38.98695 -1.1242,-58.47091 0.3604,-11.27818 1.7259,-22.50327 2.8106,-33.73495 1.6491,-17.07531 5.6209,-51.15641 5.6209,-51.15641 0,0 5.4943,27.26391 7.3073,41.04043 1.7179,13.05418 2.704,26.2062 3.3726,39.35594 0.5902,11.60683 0.163,23.24598 0.5621,34.86095 0.4898,14.25294 1.3109,28.49443 2.2484,42.72493 1.4088,21.38444 4.1242,42.68213 5.0733,64.0919 0.8632,19.47209 -0.166,38.99332 0.5621,58.47093 0.6454,17.26586 2.326,34.47773 3.3726,51.72392 1.0119,16.67541 0.9416,33.43818 2.8105,50.03938 1.1272,10.0127 -0.9418,21.7066 5.0576,29.8018 2.9962,4.0429 8.7307,5.1563 13.5048,6.747 13.912,4.6355 28.8485,5.2813 43.2816,7.873 14.8008,2.6577 29.8254,4.2511 44.4202,7.8729 10.7019,2.6558 21.8151,4.839 31.492,10.1251 7.2421,3.9561 12.7347,10.4988 19.1114,15.7369 13.4821,11.0748 26.3328,22.9727 40.4855,33.1765 11.6808,8.4216 24.0904,15.8085 36.5365,23.0514 13.0444,7.5911 25.4322,17.1406 39.9234,21.358 7.2165,2.1002 15.0194,0.8166 22.4839,1.6935 14.1403,1.6611 28.0545,4.9347 42.1758,6.7497 7.6601,0.9845 15.3588,1.6682 23.0605,2.243 17.9616,1.3406 35.9577,3.3384 53.9615,2.8105 11.8765,-0.3482 23.5453,-3.8719 35.4267,-3.9365 11.3028,-0.062 22.4616,2.6378 33.7403,3.378 11.9716,0.7857 23.9813,1.4452 35.9744,1.126 11.0951,-0.2953 22.1478,-1.5782 33.1782,-2.8105 6.7678,-0.7561 13.4419,-2.341 20.2356,-2.8105 3.1776,-0.2196 9.5556,0 9.5556,0 0,0 0.064,18.0119 -0.562,26.988 -0.5516,7.9063 0.1705,16.2664 -2.8106,23.6099 -3.0168,7.4316 -8.4973,13.9276 -14.6145,19.115 -7.6107,6.4539 -16.7661,11.5777 -26.4331,14.0525 -14.5222,3.7178 -29.9837,0.1322 -44.9679,0.5675 -8.254,0.2398 -17.1566,-2.1258 -24.7468,1.126 -5.7247,2.4525 -7.2824,12.4277 -13.4903,12.9264 -6.5793,0.5285 -10.0612,-9.0895 -16.3009,-11.2419 -11.7163,-4.0416 -24.72,-2.3925 -37.113,-2.252 -13.5364,0.1534 -26.961,2.5212 -40.4711,3.378 -12.9193,0.8193 -25.9385,0.2074 -38.7992,1.6845 -12.1255,1.3927 -24.3112,3.1969 -35.9888,6.747 -12.2874,3.7355 -23.8166,9.6579 -35.4123,15.1784 -11.2797,5.37 -22.6712,10.6724 -33.1782,17.4305 -15.9543,10.2619 -29.9676,23.2664 -44.9771,34.8664 -8.9881,6.9464 -17.7313,14.2252 -26.9951,20.7995 -8.3914,5.9552 -16.628,12.3118 -25.8566,16.863 -9.6199,4.7442 -19.8834,8.3529 -30.3533,10.6835 -9.1948,2.0467 -18.7705,1.6568 -28.1194,2.8105 -12.7857,1.5779 -25.5018,3.678 -38.2371,5.621 -7.126,1.0872 -14.9367,0.1062 -21.3598,3.378 -3.5416,1.804 -5.1133,6.2434 -8.4315,8.4314 -4.2118,2.7772 -9.4644,3.5228 -14.0524,5.621 -5.5633,2.5442 -11.2776,4.9401 -16.3009,8.4315 -2.2918,1.5929 -3.524,4.8286 -6.1975,5.63 -5.8129,1.7424 -12.2322,-0.8854 -17.9872,-2.8105 -3.0218,-1.0108 -5.2454,-4.461 -8.4315,-4.504 -2.0946,-0.028 -4.2983,1.186 -5.621,2.8105 -7.8364,9.6246 -1.4922,36.9599 -9.5556,35.987 -8.1214,-0.9799 -10.8906,-15.9128 -14.6146,-24.736 -4.4559,-10.5574 -6.4096,-22.0157 -9.008,-33.1765 -3.3336,-14.319 -5.8177,-28.8247 -8.4315,-43.2924 -1.8239,-10.0951 -2.313,-20.4727 -5.0589,-30.3569 -2.5896,-9.3218 -5.992,-18.5248 -10.6799,-26.988 -4.2863,-7.7381 -9.7056,-14.8977 -15.7388,-21.367 -3.3546,-3.597 -7.086,-6.9268 -11.2419,-9.5575 -5.3889,-3.4112 -11.2466,-6.3448 -17.4386,-7.8729 -9.1164,-2.2498 -18.7315,-1.4867 -28.1194,-1.6845 -10.6792,-0.225 -21.3626,0.2559 -32.0396,0.5674 -23.0601,0.6727 -46.086,2.4186 -69.1526,2.8106 -28.4858,0.484 -57.0145,0.875 -85.4679,-0.5675 -7.8999,-0.4005 -15.7895,-1.1514 -23.6239,-2.2431 -7.1705,-0.9992 -14.1451,-3.3327 -21.3597,-3.9364 -12.1426,-1.0161 -24.3662,0.4653 -36.5509,0.5584 -11.8037,0.09 -23.6081,0 -35.4122,0 -11.2468,0 -22.4942,0.1161 -33.7404,0 -18.1833,-0.1877 -54.5412,-1.1261 -54.5412,-1.1261 z"
       id="path45005"
       sodipodi:nodetypes="ccsssssssssssssssssssssssssscsssssssssssssssssssssssssscssssssssssssssssssssssssssssssssssssssssssssssc" />
  </g>
  <text
     xml:space="preserve"
     style="font-style:normal;font-variant:normal;font-weight:normal;font-stretch:normal;font-size:80px;line-height:1.25;font-family:sans-serif;-inkscape-font-specification:sans-serif;letter-spacing:0px;word-spacing:0px;fill:#000000;fill-opacity:1;stroke:none"
     x="-738.62207"
     y="318.93579"
     id="text837"><tspan
       sodipodi:role="line"
       id="tspan835"
       x="-738.62207"
       y="318.93579">comment: Some peak currents were cut-off in the CV plots.</tspan></text>
</svg>
