<?xml version="1.0" encoding="UTF-8" standalone="no"?>
<svg
   xmlns:dc="http://purl.org/dc/elements/1.1/"
   xmlns:cc="http://creativecommons.org/ns#"
   xmlns:rdf="http://www.w3.org/1999/02/22-rdf-syntax-ns#"
   xmlns:svg="http://www.w3.org/2000/svg"
   xmlns="http://www.w3.org/2000/svg"
   xmlns:xlink="http://www.w3.org/1999/xlink"
   xmlns:sodipodi="http://sodipodi.sourceforge.net/DTD/sodipodi-0.dtd"
   xmlns:inkscape="http://www.inkscape.org/namespaces/inkscape"
   height="6612px"
   version="1.1"
   width="4931px"
   id="svg47954"
   sodipodi:docname="pajkossy_1996_impedance_209_p6_8A_a.svg"
   inkscape:version="0.92.2 (5c3e80d, 2017-08-06)">
  <metadata
     id="metadata28">
    <rdf:RDF>
      <cc:Work
         rdf:about="">
        <dc:format>image/svg+xml</dc:format>
        <dc:type
           rdf:resource="http://purl.org/dc/dcmitype/StillImage" />
      </cc:Work>
    </rdf:RDF>
  </metadata>
  <sodipodi:namedview
     id="namedview47956"
     pagecolor="#ffffff"
     bordercolor="#666666"
     borderopacity="1.0"
     inkscape:pageshadow="2"
     inkscape:pageopacity="0.0"
     inkscape:pagecheckerboard="0"
     showgrid="false"
     inkscape:zoom="0.080528039"
     inkscape:cx="2820.2307"
     inkscape:cy="3980.9588"
     inkscape:window-width="1920"
     inkscape:window-height="1017"
     inkscape:window-x="-8"
     inkscape:window-y="32"
     inkscape:window-maximized="1"
     inkscape:current-layer="svg47954" />
  <defs
     id="defs47950" />
  <image
     sodipodi:absref="F:\Github\echemdb\website\literature\pajkossy_1996_impedance_209\Pajkossy_1996_Impedance_209_p6.png"
     xlink:href="Pajkossy_1996_Impedance_209_p6.png"
     id="image47952"
     y="0"
     x="0"
     width="4931px"
     sodipodi:insensitive="true"
     height="6612px" />
  <g
     id="g58784"
     transform="translate(4.6555788,3.0838549)">
    <path
       style="fill:none;stroke:#000000;stroke-width:1px;stroke-linecap:butt;stroke-linejoin:miter;stroke-opacity:1"
       d="M 678.19777,721.6372 498.18307,423.6021"
       id="path48032" />
    <text
       xml:space="preserve"
       style="font-size:85.3333px;line-height:1.25;font-family:sans-serif"
       x="187.65356"
       y="336.6586"
       id="text49708"><tspan
         sodipodi:role="line"
         id="tspan49706"
         x="187.65356"
         y="336.6586">y2: 7.5 uA / cm2</tspan></text>
  </g>
  <g
     id="g58779"
     transform="translate(0,-1.5419274)">
    <path
       style="fill:none;stroke:#000000;stroke-width:1px;stroke-linecap:butt;stroke-linejoin:miter;stroke-opacity:1"
       d="M 684.40527,1466.725 572.67195,1814.3996"
       id="path47991" />
    <text
       xml:space="preserve"
       style="font-size:85.3333px;line-height:1.25;font-family:sans-serif"
       x="274.55725"
       y="1845.4364"
       id="text52946"><tspan
         sodipodi:role="line"
         id="tspan52944"
         x="274.55725"
         y="1845.4364">y1: -2.5 uA / cm2</tspan></text>
  </g>
  <g
     id="g58774"
     transform="translate(-4.6555313)">
    <path
       style="fill:none;stroke:#000000;stroke-width:1px;stroke-linecap:butt;stroke-linejoin:miter;stroke-opacity:1"
       d="m 864.41997,1640.5126 -31.03713,403.5809"
       id="path47993" />
    <text
       xml:space="preserve"
       style="font-size:85.3333px;line-height:1.25;font-family:sans-serif"
       x="833.38281"
       y="2044.0935"
       id="text54006"><tspan
         sodipodi:role="line"
         id="tspan54004"
         x="833.38281"
         y="2044.0935">x1: -0.8 V vs SCE</tspan></text>
  </g>
  <g
     id="g58769"
     transform="translate(1.5518754,3.1086773)">
    <path
       style="fill:none;stroke:#000000;stroke-width:1px;stroke-linecap:butt;stroke-linejoin:miter;stroke-opacity:1"
       d="m 2068.9754,1640.5126 198.637,229.7932"
       id="path47995" />
    <text
       xml:space="preserve"
       style="font-size:85.3333px;line-height:1.25;font-family:sans-serif"
       x="2267.6123"
       y="1870.3058"
       id="text55726"><tspan
         sodipodi:role="line"
         id="tspan55724"
         x="2267.6123"
         y="1870.3058">x2: 0.6 V vs SCE</tspan></text>
  </g>
  <text
     xml:space="preserve"
     style="font-size:85.3333px;line-height:1.25;font-family:sans-serif"
     x="761.27502"
     y="525.37915"
     id="text65744"><tspan
       sodipodi:role="line"
       id="tspan65742"
       x="761.27502"
       y="525.37915">scan rate: 10 mV / s</tspan></text>
  <g
     id="g69334">
    <text
       xml:space="preserve"
       style="font-size:85.3333px;line-height:1.25;font-family:sans-serif"
       x="568.76593"
       y="444.70267"
       id="text60130"><tspan
         sodipodi:role="line"
         id="tspan60128"
         x="568.76593"
         y="444.70267">curve: Au(100)_0.1M_HClO4_0.15mM_NaBr </tspan></text>
    <path
       style="fill:none;stroke:#000000;stroke-width:1px;stroke-linecap:butt;stroke-linejoin:miter;stroke-opacity:1"
       d="m 944.20379,1314.0808 c 0,0 -5.96317,-23.7188 0,-32.9373 4.35631,-6.7345 14.30837,-7.418 21.94649,-9.8654 14.21005,-4.5531 29.05863,-7.181 43.89302,-8.7927 19.2854,-2.0952 38.7951,-0.5454 58.1863,-1.0902 29.271,-0.8224 58.5663,-1.3714 87.786,-3.2885 23.4714,-1.54 46.9036,-3.7833 70.2569,-6.5945 12.48,-1.5023 25.0381,-2.7609 37.3091,-5.4867 11.1828,-2.4841 21.6161,-8.0067 32.9197,-9.8653 10.4825,-1.7236 21.2637,-0.2293 31.8506,-1.1079 13.9712,-1.1594 29.4304,1.2985 41.6984,-5.4866 12.0505,-6.6648 18.1611,-20.7477 26.3358,-31.8295 7.5292,-10.2067 13.5905,-21.4285 20.8491,-31.8294 8.0851,-11.5852 19.9077,-20.9559 25.2666,-34.0276 7.9866,-19.4811 6.8811,-41.5821 8.7786,-62.5511 2.4094,-26.6259 2.4396,-53.4153 3.292,-80.13635 1.0267,-32.18483 1.1396,-64.39475 2.1947,-96.57866 0.8399,-25.61984 2.2507,-51.21787 3.2919,-76.83032 1.1599,-28.53266 2.3298,-57.06538 3.292,-85.60539 0.8511,-25.24328 1.1878,-50.50353 2.1947,-75.74108 0.8618,-21.59962 2.7431,-43.15697 3.2919,-64.7668 0.4829,-19.01534 -12.0572,-42.35246 0,-57.06441 2.3646,-2.88526 8.088,-4.56276 10.9733,-2.19815 12.7307,10.43343 -0.098,32.92004 0,49.37962 0.1829,30.73494 0.704,61.46695 1.0973,92.19991 0.3418,26.70657 -0.2105,53.44204 1.0973,80.11876 1.2767,26.04067 5.7224,51.88052 6.584,77.93822 0.6651,20.11582 -1.0542,40.2437 -1.0973,60.37047 -0.056,26.33944 0.9144,52.67201 1.0973,79.01087 0.053,7.6846 -0.2556,15.37383 0,23.05436 0.549,16.49315 2.4636,32.91575 3.2919,49.39725 1.0839,21.5682 0.05,43.2605 2.1947,64.7492 0.6632,6.6464 -0.2353,14.0938 3.292,19.7659 7.6118,12.24 22.6026,18.0786 35.1144,25.2349 14.9345,8.542 31.7861,13.2396 47.2131,20.8562 15.7074,7.755 30.4921,17.2749 46.0876,25.2526 7.5742,3.8745 15.52,14.9448 23.0438,10.9732 10.4777,-5.5309 4.3589,-23.3237 5.4867,-35.1178 2.9274,-30.6133 3.0567,-61.448 3.2919,-92.2 0.1371,-17.9344 -19.0184,-53.0902 -1.0973,-53.7935 31.4949,-1.2361 3.3256,62.9531 5.4867,94.398 1.5853,23.0666 2.7677,46.185 5.4866,69.1456 0.8276,6.9893 0.4688,14.4091 3.292,20.8562 3.5549,8.1179 10.2113,14.6 16.488,20.8562 4.6115,4.5964 9.4854,9.2612 15.3625,12.0635 7.45,3.5523 15.957,4.4358 24.1411,5.5043 10.1619,1.3267 20.4776,1.2012 30.7252,1.0902 12.8316,-0.139 25.99,-0.2291 38.8224,-0.2583 23.43,-0.053 46.3832,1.1387 69.8052,1.7546 8.7907,0.2312 18.0181,-0.479 26.7693,0.3855 10.4985,1.0371 20.5025,5.6285 31.0371,6.1924 11.4234,0.6115 22.3592,-3.0843 33.7925,-3.4692 8.7371,-0.2941 18.1626,3.9876 26.2193,0.5946 4.8909,-2.0597 8.3282,-6.9765 10.863,-11.6389 3.5651,-6.5576 4.3586,-14.3369 5.4314,-21.7234 1.7119,-11.7876 1.2932,-23.7916 1.5519,-35.7001 0.2416,-11.1223 1.469,-22.32 2.7157,-33.3748 1.0412,-9.2314 3.4917,-27.1698 3.4917,-27.1698 0,0 3.5391,22.1978 4.6555,33.3748 0.8502,8.5118 -0.3228,17.2693 1.5519,25.6155 1.5268,6.7972 4.849,13.0777 7.7791,19.3981 2.0928,4.5143 3.8218,9.351 6.9833,13.1933 4.4405,5.3966 9.8884,10.3999 16.2945,13.1932 5.0292,2.1929 10.8497,1.65 16.2945,2.3253 9.8077,1.2164 19.6696,1.9571 29.4851,3.1086 12.2821,1.4409 24.4298,4.4753 36.7929,4.7551 8.8069,0.1993 26.3358,-2.1981 26.3358,-2.1981 0,0 -1.2697,14.2717 -1.646,27.987 -0.1317,4.7993 -5.2422,8.4529 -9.3273,10.9753 -7.2091,4.4514 -16.7355,3.1224 -24.6898,6.0405 -6.9144,2.5366 -13.4252,6.1274 -19.7659,9.8742 -5.5482,3.2785 -9.7586,9.065 -15.9112,10.9821 -5.9367,1.8499 -12.5652,-1.259 -18.6546,0 -8.5842,1.7748 -15.7838,7.7835 -24.1411,10.4281 -4.279,1.354 -9.1992,0.6741 -13.1819,2.7433 -7.1186,3.6985 -12.5098,10.2246 -17.5572,16.4598 -6.4544,7.9734 -11.364,17.1474 -15.9113,26.3429 -2.8764,5.8165 -0.6448,18.2294 -7.1326,18.1129 -9.8912,-0.1776 -7.9381,-18.2859 -9.8759,-27.9871 -2.6201,-13.1172 -0.5246,-26.7983 -2.2087,-40.0682 -0.7044,-5.5507 -0.3321,-11.7116 -3.292,-16.4598 -2.0713,-3.3227 -5.653,-5.7869 -9.3272,-7.1397 -6.5306,-2.4045 -13.8909,-0.9741 -20.8492,-1.0903 -29.0849,-0.4858 -58.1671,1.1235 -87.2514,1.6443 -21.5897,0.3866 -43.1834,0.5768 -64.7703,1.099 -23.2361,0.5621 -46.55,0.051 -69.6942,2.1894 -9.5816,0.8854 -19.0441,2.7843 -28.5305,4.3964 -7.8905,1.3409 -16.7764,0.2153 -23.6065,4.3875 -4.3396,2.6509 -7.1478,7.4778 -9.3273,12.0723 -4.5071,9.5009 -5.3726,20.363 -7.1326,30.7304 -1.4166,8.3448 -2.248,16.7942 -2.7433,25.2438 -1.2311,21.0039 0.081,42.0872 -0.5583,63.1175 -0.4282,14.0983 -1.1463,28.1917 -2.1946,42.2575 -0.9835,13.1969 -3.1997,26.2963 -3.8406,39.5143 -0.6289,12.9715 0.1944,25.975 0,38.9603 -0.1537,10.2635 -0.9218,30.7802 -0.9218,30.7802 0,0 -2.7322,-64.1403 -3.1037,-96.2322 -0.3294,-28.4582 1.0068,-56.9176 0.776,-85.3768 -0.1658,-20.4402 -1.5519,-61.3031 -1.5519,-61.3031 -1.0943,-2.5249 -2.7429,-5.6307 -5.4315,-6.2173 -5.5427,-1.2093 -10.416,4.5086 -15.5185,6.9883 -11.5493,5.6126 -22.6641,12.084 -34.1407,17.8438 -13.8607,6.9563 -27.5154,14.4354 -41.9199,20.1815 -13.3716,5.334 -27.5181,8.4894 -41.1241,13.1933 -16.1718,5.591 -31.5107,13.7729 -48.1273,17.8562 -13.9258,3.4221 -28.3951,4.1309 -42.6759,5.434 -18.5802,1.6954 -37.2353,3.5741 -55.8866,3.0962 -14.5681,-0.3733 -29.04,-2.6186 -43.4705,-4.6506 -10.4069,-1.4654 -20.5752,-4.6694 -31.0569,-5.4339 -9.29,-0.6776 -18.6187,0.7966 -27.9333,0.7709 -15.527,-0.043 -31.141,0.323 -46.5556,-1.5419 -9.9782,-1.2072 -19.9335,-3.15 -29.505,-6.2174 -8.6036,-2.7572 -16.7898,-6.7466 -24.8297,-10.8679 -7.2229,-3.7025 -14.4907,-7.4949 -20.95,-12.4098 -7.4265,-5.6509 -13.66,-12.7285 -20.1741,-19.4106 -5.6257,-5.7708 -10.6485,-12.1123 -16.3143,-17.8438 -7.7195,-7.809 -14.6956,-16.7626 -24.0537,-22.5068 -7.7404,-4.7512 -16.9208,-6.6562 -25.6056,-9.3137 -11.2238,-3.4345 -22.5333,-6.9381 -34.1606,-8.5426 -8.71499,-1.2026 -17.69196,-2.1456 -26.38147,-0.7709 -7.5955,1.2016 -14.56097,4.9665 -21.72592,7.7592 -4.8881,1.9053 -14.49462,6.1333 -14.49462,6.1333 z"
       id="path68293"
       sodipodi:nodetypes="csssssssssssssssssssssssssssssssssssssssssssssssssssssssscsssssssscsssssssssssssssssssssssssssscsssssssssssssssssssssssssc" />
  </g>
  <text
     xml:space="preserve"
     style="font-style:normal;font-variant:normal;font-weight:normal;font-stretch:normal;font-size:80px;line-height:1.25;font-family:sans-serif;-inkscape-font-specification:sans-serif;letter-spacing:0px;word-spacing:0px;fill:#000000;fill-opacity:1;stroke:none"
     x="2512.1565"
     y="474.72501"
     id="text837"><tspan
       sodipodi:role="line"
       id="tspan835"
       x="2512.1565"
       y="474.72501">comment: Some peak currents were cut-off in the CV plots.</tspan></text>
</svg>
