<?xml version="1.0" encoding="UTF-8" standalone="no"?>
<svg
   height="6612px"
   version="1.1"
   width="4931px"
   id="svg14147"
   sodipodi:docname="Pajkossy_1996_Impedance_209_p3_A_a.svg"
   inkscape:version="1.1 (ce6663b3b7, 2021-05-25)"
   xmlns:inkscape="http://www.inkscape.org/namespaces/inkscape"
   xmlns:sodipodi="http://sodipodi.sourceforge.net/DTD/sodipodi-0.dtd"
   xmlns:xlink="http://www.w3.org/1999/xlink"
   xmlns="http://www.w3.org/2000/svg"
   xmlns:svg="http://www.w3.org/2000/svg">
  <sodipodi:namedview
     id="namedview14149"
     pagecolor="#ffffff"
     bordercolor="#666666"
     borderopacity="1.0"
     inkscape:pageshadow="2"
     inkscape:pageopacity="0.0"
     inkscape:pagecheckerboard="0"
     showgrid="false"
     inkscape:zoom="0.22232305"
     inkscape:cx="3555.6367"
     inkscape:cy="1086.2571"
     inkscape:window-width="1608"
     inkscape:window-height="986"
     inkscape:window-x="72"
     inkscape:window-y="27"
     inkscape:window-maximized="1"
     inkscape:current-layer="svg14147" />
  <defs
     id="defs14143" />
  <image
     height="6612px"
     sodipodi:insensitive="true"
     width="4931px"
     x="0"
     xlink:href="Pajkossy_1996_Impedance_209_p3.png"
     y="0"
     id="image14145" />
  <g
     id="g19913">
    <path
       style="fill:none;stroke:#000000;stroke-width:1px;stroke-linecap:butt;stroke-linejoin:miter;stroke-opacity:1"
       d="M 2973.6315,715.6836 2753.231,621.24376"
       id="path14264" />
    <text
       xml:space="preserve"
       style="font-size:85.3333px;line-height:1.25;font-family:sans-serif"
       x="2256.2778"
       y="614.5058"
       id="text17460"><tspan
         sodipodi:role="line"
         id="tspan17458"
         x="2256.2778"
         y="614.5058">y2: 6 uA / cm2</tspan></text>
  </g>
  <g
     id="g19918">
    <path
       style="fill:none;stroke:#000000;stroke-width:1px;stroke-linecap:butt;stroke-linejoin:miter;stroke-opacity:1"
       d="m 2975.88,1408.3627 -166.3814,29.2219"
       id="path14266" />
    <text
       xml:space="preserve"
       style="font-size:85.3333px;line-height:1.25;font-family:sans-serif"
       x="2348.4622"
       y="1514.0443"
       id="text19048"><tspan
         sodipodi:role="line"
         id="tspan19046"
         x="2348.4622"
         y="1514.0443">y1: -2 uA / cm2</tspan></text>
  </g>
  <g
     id="g25786">
    <path
       style="fill:none;stroke:#000000;stroke-width:1px;stroke-linecap:butt;stroke-linejoin:miter;stroke-opacity:1"
       d="m 3158.0577,1581.5323 -281.1072,128.1659"
       id="path19953" />
    <text
       xml:space="preserve"
       style="font-size:85.3333px;line-height:1.25;font-family:sans-serif"
       x="2496.9111"
       y="1763.6741"
       id="text21522"><tspan
         sodipodi:role="line"
         id="tspan21520"
         x="2496.9111"
         y="1763.6741">x1: -0.6 V vs SCE</tspan></text>
  </g>
  <g
     id="g25781">
    <path
       style="fill:none;stroke:#000000;stroke-width:1px;stroke-linecap:butt;stroke-linejoin:miter;stroke-opacity:1"
       d="m 4239.8217,1577.0283 56.2099,155.1899"
       id="path19990" />
    <text
       xml:space="preserve"
       style="font-size:85.3333px;line-height:1.25;font-family:sans-serif"
       x="4222.8984"
       y="1805.3923"
       id="text24004"><tspan
         sodipodi:role="line"
         id="tspan24002"
         x="4222.8984"
         y="1805.3923">x2: 0.6 V vs SCE</tspan></text>
  </g>
  <text
     xml:space="preserve"
     style="font-size:85.3333px;line-height:1.25;font-family:sans-serif"
     x="3253.0259"
     y="509.28476"
     id="text31607"><tspan
       sodipodi:role="line"
       id="tspan31605"
       x="3253.0259"
       y="509.28476">scan rate: 10 mV / s</tspan></text>
  <g
     id="g43617">
    <path
       id="path42712"
       style="fill:none;stroke:#000000;stroke-width:1px;stroke-linecap:butt;stroke-linejoin:miter;stroke-opacity:1"
       d="m 3685.6152,911.41211 c 0,0 -4.63,14.66632 -5.5644,22.25586 -0.7451,6.05215 0.35,12.20517 0,18.29297 -0.7962,13.84814 -3.1147,27.56595 -4.7696,41.33789 -2.0396,16.97427 -3.5239,34.03497 -6.3593,50.89457 -2.3361,13.8908 -4.6374,27.8699 -8.7637,41.3378 -2.6824,8.7556 -4.9512,18.0455 -10.334,25.4532 -3.8684,5.3237 -10.5299,7.9832 -15.1035,12.7148 -6.5596,6.7861 -10.6644,15.7473 -17.4883,22.2676 -8.2402,7.8735 -18.8403,12.86 -27.8242,19.873 -7.4141,5.7876 -13.7758,12.901 -21.4824,18.293 -7.4867,5.2382 -15.3528,10.1521 -23.8477,13.5176 -9.381,3.7165 -19.552,5.015 -29.4121,7.1582 -19.2524,4.1847 -38.4644,8.9903 -58.0508,11.1211 -19.237,2.0928 -38.7037,0.6125 -58.0293,1.5937 -14.3363,0.7279 -28.6022,2.6524 -42.9472,3.1836 -5.2959,0.1961 -15.8985,0 -15.8985,0 v 43.7344 c 0,0 13.2473,1.1534 19.8809,1.5898 15.3627,1.0114 30.7861,1.0591 46.125,2.3829 17.5511,1.5147 34.9663,4.3402 52.4668,6.3574 16.9542,1.9543 34.3371,1.4291 50.8945,5.5664 13.8453,3.4596 28.288,7.4076 39.7481,15.9121 8.175,6.0666 13.5606,15.2925 19.0781,23.8477 9.1887,14.2476 15.8631,29.9816 23.0723,45.3261 6.2604,13.3249 8.6943,28.7562 17.5078,40.5489 2.4778,3.3154 5.4554,7.2743 9.539,7.9492 3.6413,0.6018 6.6534,-3.7014 10.334,-3.9746 2.4365,-0.1808 4.8519,0.7745 7.1543,1.5918 5.0242,1.7835 9.1196,5.9226 14.3086,7.1464 7.737,1.8247 15.9823,1.1518 23.8477,0 5.4805,-0.8026 10.5431,-3.4255 15.9179,-4.7636 3.9331,-0.9792 7.8924,-1.9644 11.9239,-2.3828 27.6819,-2.8726 55.6599,-0.4496 83.4882,-0.8028 16.6942,-0.2119 34.0881,4.0068 50.0801,-0.789 9.9291,-2.9776 17.8024,-10.6718 26.2344,-16.7012 12.4268,-8.886 23.861,-19.0824 35.791,-28.625 6.6248,-5.299 13.4055,-10.4086 19.8731,-15.8984 8.1539,-6.9212 15.1357,-15.2628 23.8476,-21.4668 9.3769,-6.6775 19.8062,-11.8134 30.2285,-16.7012 10.5594,-4.9521 21.3702,-9.5487 32.5918,-12.7266 8.551,-2.4216 17.4037,-3.7458 26.2324,-4.7636 15.8208,-1.8238 31.792,-2.2704 47.7168,-2.3829 14.8478,-0.1049 29.8338,-0.6217 44.5157,1.5938 10.0487,1.5164 20.8488,2.5077 29.4316,7.9492 5.8742,3.7243 13.5156,15.8984 13.5156,15.8984 1.8008,-0.5204 7.9494,-13.5239 7.9494,-13.5239 0,0 11.3937,-9.5352 7.9491,-5.5606 0,0 8.9859,-1.6943 15.8984,-3.183 11.8935,-2.5613 23.767,-5.2939 35.791,-7.1485 16.8603,-2.6006 34.0201,-2.931 50.875,-5.5664 13.099,-2.0481 26.2315,-4.2831 38.9727,-7.9492 10.8798,-3.1305 21.4204,-7.41 31.7969,-11.9375 9.2324,-4.0283 20.7795,-5.6143 27.0273,-13.5156 2.8708,-3.6306 2.5973,-8.924 3.1797,-13.5156 1.5675,-12.3585 0.7949,-37.3653 0.7949,-37.3653 0,0 -32.8597,1.2054 -49.2851,0.791 -23.8998,-0.603 -47.8171,-2.0038 -71.5645,-4.7656 -16.0166,-1.8627 -31.7664,-5.5722 -47.7148,-7.9492 -10.0449,-1.4971 -21.0987,0.5175 -30.2071,-3.9746 -4.0335,-1.9893 -5.5971,-7.3759 -9.539,-9.541 -2.1414,-1.1762 -4.7182,-1.7773 -7.1543,-1.5918 -5.1031,0.3887 -9.632,3.492 -14.3106,5.5664 -5.4165,2.4016 -10.218,6.2642 -15.8984,7.9492 -11.256,3.3389 -23.2684,3.4207 -34.9961,3.9746 -14.2953,0.6752 -28.7059,0.8109 -42.9258,-0.8027 -10.2306,-1.1609 -20.0778,-4.6325 -30.2285,-6.3575 -6.0629,-1.03 -12.3231,-0.9114 -18.2949,-2.3808 -10.4205,-2.564 -20.5885,-6.3745 -30.2071,-11.1328 -14.6288,-7.2369 -28.3297,-16.3845 -41.3359,-26.2442 -16.7555,-12.7019 -30.3229,-29.2523 -46.9355,-42.1406 -3.7742,-2.9281 -7.9644,-5.2769 -11.9239,-7.9492 -10.9061,-7.3607 -20.0206,-18.3831 -32.5918,-22.2676 -7.0951,-2.1924 -14.8536,-0.078 -22.2793,0 -12.7209,0.1338 -25.4376,0.5252 -38.1562,0.8028 -11.6592,0.254 -23.3185,1.0887 -34.9766,0.789 -7.1784,-0.1846 -15.0462,1.5884 -21.4844,-1.5918 -2.859,-1.4123 -4.5966,-4.4892 -6.3593,-7.1465 -3.4082,-5.1378 -5.6451,-10.9823 -7.9492,-16.7011 -3.1314,-7.7722 -5.857,-15.7338 -7.9493,-23.8477 -1.818,-7.0504 -2.2636,-14.4015 -3.9746,-21.47851 -1.9503,-8.06687 -4.6161,-15.94601 -7.1543,-23.84766 -2.9996,-9.33819 -7.29,-18.28913 -9.539,-27.83594 -2.7583,-11.70894 -4.7696,-35.77148 -4.7696,-35.77148 z"
       sodipodi:nodetypes="cssssssssssssssscccssssssssssssssssssssssssssscsssssssscsssssssssssssssssssssssssssc" />
    <text
       xml:space="preserve"
       style="font-size:85.3333px;line-height:1.25;font-family:sans-serif"
       x="2893.4695"
       y="222.061"
       id="text32589"><tspan
         sodipodi:role="line"
         id="tspan32587"
         x="2893.4695"
         y="222.061">curve: Au(111)_0.1M_HClO4_0.15mM_NaBr</tspan></text>
  </g>
</svg>
