<?xml version="1.0" encoding="UTF-8" standalone="no"?>
<svg
   height="6612px"
   version="1.1"
   width="4931px"
   id="svg53"
   sodipodi:docname="Pajkossy_1996_Impedance_209_p2_1a_dotted.svg"
   inkscape:version="1.1 (ce6663b3b7, 2021-05-25)"
   xmlns:inkscape="http://www.inkscape.org/namespaces/inkscape"
   xmlns:sodipodi="http://sodipodi.sourceforge.net/DTD/sodipodi-0.dtd"
   xmlns:xlink="http://www.w3.org/1999/xlink"
   xmlns="http://www.w3.org/2000/svg"
   xmlns:svg="http://www.w3.org/2000/svg">
  <sodipodi:namedview
     id="namedview55"
     pagecolor="#ffffff"
     bordercolor="#666666"
     borderopacity="1.0"
     inkscape:pageshadow="2"
     inkscape:pageopacity="0.0"
     inkscape:pagecheckerboard="0"
     showgrid="false"
     inkscape:zoom="0.22232305"
     inkscape:cx="1868.902"
     inkscape:cy="5246.8694"
     inkscape:window-width="1608"
     inkscape:window-height="986"
     inkscape:window-x="72"
     inkscape:window-y="27"
     inkscape:window-maximized="1"
     inkscape:current-layer="g10854" />
  <defs
     id="defs49" />
  <image
     height="6612px"
     sodipodi:insensitive="true"
     width="4931px"
     x="0"
     xlink:href="Pajkossy_1996_Impedance_209_p2.png"
     y="0"
     id="image51" />
  <g
     id="g10864">
    <path
       style="fill:none;stroke:#000000;stroke-width:1px;stroke-linecap:butt;stroke-linejoin:miter;stroke-opacity:1"
       d="M 1282.4373,4943.7898 882.10748,4889.8139"
       id="path208" />
    <text
       xml:space="preserve"
       style="font-size:85.3333px;line-height:1.25;font-family:sans-serif"
       x="309.27679"
       y="4898.8232"
       id="text6060"><tspan
         sodipodi:role="line"
         id="tspan6058"
         x="309.27679"
         y="4898.8232">y2: 2 uA/cm2</tspan></text>
  </g>
  <g
     id="g10859">
    <path
       style="fill:none;stroke:#000000;stroke-width:1px;stroke-linecap:butt;stroke-linejoin:miter;stroke-opacity:1"
       d="m 1284.6857,5359.8151 -355.36194,24.7541"
       id="path206" />
    <text
       xml:space="preserve"
       style="font-size:85.3333px;line-height:1.25;font-family:sans-serif"
       x="337.89426"
       y="5420.3677"
       id="text7120"><tspan
         sodipodi:role="line"
         id="tspan7118"
         x="337.89426"
         y="5420.3677">y1: 0 uA/cm2</tspan></text>
  </g>
  <g
     id="g10854">
    <path
       style="fill:none;stroke:#000000;stroke-width:1px;stroke-linecap:butt;stroke-linejoin:miter;stroke-opacity:1"
       d="m 1426.3346,5568.981 -258.6232,110.1857"
       id="path210" />
    <text
       xml:space="preserve"
       style="font-size:85.3333px;line-height:1.25;font-family:sans-serif"
       x="706.82245"
       y="5744.8105"
       id="text8186"><tspan
         sodipodi:role="line"
         id="tspan8184"
         x="706.82245"
         y="5744.8105">x1: -0.6 V vs SCE</tspan></text>
  </g>
  <g
     id="g10849">
    <path
       style="fill:none;stroke:#000000;stroke-width:1px;stroke-linecap:butt;stroke-linejoin:miter;stroke-opacity:1"
       d="m 2283.999,5571.2148 -6.7452,170.9358"
       id="path212" />
    <text
       xml:space="preserve"
       style="font-size:85.3333px;line-height:1.25;font-family:sans-serif"
       x="2093.5029"
       y="5814.6724"
       id="text9510"><tspan
         sodipodi:role="line"
         id="tspan9508"
         x="2093.5029"
         y="5814.6724">x2: 0.6 V vs SCE</tspan></text>
  </g>
  <text
     xml:space="preserve"
     style="font-size:85.3333px;line-height:1.25;font-family:sans-serif"
     x="1354.9177"
     y="4827.3286"
     id="text26380"><tspan
       sodipodi:role="line"
       id="tspan26378"
       x="1354.9177"
       y="4827.3286">scan rate: 10 mV/s</tspan></text>
  <g
     id="g28996">
    <text
       xml:space="preserve"
       style="font-size:85.3333px;line-height:1.25;font-family:sans-serif"
       x="1314.229"
       y="4669.772"
       id="text12342"><tspan
         sodipodi:role="line"
         id="tspan12340"
         x="1314.229"
         y="4669.772">curve: Au(111)_0.1mM_HClO4_0.1M_KClO4</tspan></text>
    <path
       style="fill:none;stroke:#000000;stroke-width:1px;stroke-linecap:butt;stroke-linejoin:miter;stroke-opacity:1"
       d="m 1288.2998,5341.0979 c 0,0 20.1278,1.3163 30.2072,1.5797 9.5427,0.2493 19.0922,0.079 28.6378,0 15.9002,-0.1316 31.8605,0.6529 47.6957,-0.7898 8.0257,-0.7312 15.826,-3.2023 23.8478,-3.9747 9.7693,-0.9406 19.6183,-0.8059 29.4328,-0.7898 8.7482,0.014 17.5043,1.3793 26.2326,0.7898 4.8242,-0.3258 9.4951,-1.926 14.3087,-2.3822 11.0893,-1.051 22.3042,0.09 33.4074,-0.8026 13.5967,-1.0934 26.9941,-3.9734 40.5413,-5.567 13.4856,-1.5864 27.1359,-1.8132 40.5413,-3.9747 8.3204,-1.3416 16.2872,-4.6334 24.6632,-5.567 8.4271,-0.9393 16.9788,-0.5865 25.4377,0 9.6082,0.6662 19.0019,3.4367 28.6174,3.9874 11.1208,0.6369 22.2707,-0.5751 33.4074,-0.8026 15.6325,-0.3194 31.2884,0.067 46.9007,-0.7898 11.4329,-0.6276 22.8101,-2.0353 34.2023,-3.1848 12.1988,-1.2309 24.4351,-2.2 36.5667,-3.9747 10.1308,-1.482 20.1584,-3.6051 30.2073,-5.567 16.7357,-3.2673 33.6649,-5.7909 50.1009,-10.3315 23.2707,-6.4288 45.8158,-15.2857 68.3841,-23.8606 13.6611,-5.1906 27.3748,-10.3474 40.5414,-16.6884 9.8388,-4.7384 18.8331,-11.1026 28.6377,-15.9113 10.8706,-5.3315 22.033,-10.1012 33.387,-14.3062 9.1231,-3.3788 18.4413,-6.2507 27.843,-8.7518 8.3882,-2.2315 16.8953,-4.0283 25.4377,-5.5671 3.6875,-0.6643 7.3937,-1.8742 11.129,-1.5796 7.1856,0.5666 14.3153,2.9518 20.6682,6.3568 6.6381,3.5579 11.4069,9.8633 17.4884,14.3062 5.1098,3.733 10.0019,8.1002 15.9189,10.3442 10.0209,3.8004 21.1647,3.4178 31.7971,4.7645 15.3284,1.9415 30.6562,4.5774 46.1058,4.7773 3.4616,0.045 10.3545,-0.8027 10.3545,-0.8027 1.5035,0.3541 3.309,0.9885 3.9747,2.3823 0,0 -0.7834,73.6888 -1.5899,110.5256 -0.3947,18.0252 0.014,36.1072 -1.5899,54.0653 -0.4771,5.3417 0.2566,11.2438 -2.3847,15.9113 -3.895,6.883 -11.7279,10.7023 -18.3037,15.096 -7.9838,5.3344 -17.4392,8.2039 -25.4377,13.5163 -7.6902,5.1076 -14.6966,11.2234 -21.4631,17.5037 -5.0817,4.7166 -8.9194,10.7343 -14.3088,15.096 -8.6965,7.0382 -18.2984,13.2299 -28.6377,17.5037 -6.2955,2.6023 -13.0653,4.5256 -19.8732,4.7645 -8.054,0.2826 -15.9122,-2.5704 -23.8479,-3.9747 -4.2473,-0.7516 -8.4772,-1.5988 -12.7188,-2.3822 -5.8268,-1.0762 -11.5631,-3.1742 -17.4885,-3.1848 -7.5433,-0.014 -14.7459,3.569 -22.2783,3.9746 -7.6915,0.4141 -15.4358,-2.7367 -23.0529,-1.5924 -3.6498,0.5483 -6.8008,2.9084 -10.3341,3.9747 -4.6779,1.4117 -9.4241,3.3117 -14.3087,3.1848 -4.9485,-0.1285 -9.7481,-2.0499 -14.3087,-3.9747 -6.7891,-2.8654 -12.5253,-7.8034 -19.0987,-11.134 -5.9281,-3.0036 -12.4394,-4.7851 -18.2833,-7.9494 -11.4393,-6.194 -21.1798,-15.2219 -32.5921,-21.4655 -4.5802,-2.5058 -9.5415,-4.2412 -14.3087,-6.3696 -7.6949,-3.4355 -15.2986,-7.0809 -23.0733,-10.3316 -9.4435,-3.9484 -19.2594,-6.9872 -28.6174,-11.1341 -3.2495,-1.44 -6.1371,-3.7353 -9.5391,-4.7645 -14.32,-4.3324 -29.689,-3.727 -44.5364,-5.567 -15.1017,-1.8716 -30.1292,-4.5281 -45.3109,-5.567 -18.2494,-1.2488 -36.5919,-0.087 -54.8704,-0.7899 -16.9791,-0.6533 -33.9013,-2.413 -50.8754,-3.1848 -9.2751,-0.4217 -18.5606,-0.5774 -27.8429,-0.7898 -15.3669,-0.3517 -30.7355,-0.6688 -46.1058,-0.8026 -14.8449,-0.1292 -29.6916,-0.1362 -44.5364,0 -14.5755,0.1338 -29.2539,2.5819 -43.721,0.8026 -7.0815,-0.871 -13.5948,-4.6311 -20.6681,-5.567 -10.2515,-1.3565 -20.6817,0 -31.0226,0 -6.8894,0 -13.7787,0 -20.6681,0 -10.5991,0 -21.1983,0.058 -31.7972,0 -24.39,-0.1338 -48.7766,-0.6688 -73.1666,-0.8026 -16.6932,-0.092 -33.387,0 -50.0805,0 -2.3916,0 -7.2726,2.3896 -7.1747,0 z"
       id="path28225"
       sodipodi:nodetypes="cssssssssssssssssssssssssssssssssssssssssssssssssssssssssssssssssssssssssc" />
  </g>
</svg>
