<?xml version="1.0" encoding="UTF-8" standalone="no"?>
<svg
   xmlns:dc="http://purl.org/dc/elements/1.1/"
   xmlns:cc="http://creativecommons.org/ns#"
   xmlns:rdf="http://www.w3.org/1999/02/22-rdf-syntax-ns#"
   xmlns:svg="http://www.w3.org/2000/svg"
   xmlns="http://www.w3.org/2000/svg"
   xmlns:xlink="http://www.w3.org/1999/xlink"
   xmlns:sodipodi="http://sodipodi.sourceforge.net/DTD/sodipodi-0.dtd"
   xmlns:inkscape="http://www.inkscape.org/namespaces/inkscape"
   height="6612px"
   version="1.1"
   width="4931px"
   id="svg53"
   sodipodi:docname="pajkossy_1996_impedance_209_p2_1A_solid.svg"
   inkscape:version="0.92.2 (5c3e80d, 2017-08-06)">
  <metadata
     id="metadata28">
    <rdf:RDF>
      <cc:Work
         rdf:about="">
        <dc:format>image/svg+xml</dc:format>
        <dc:type
           rdf:resource="http://purl.org/dc/dcmitype/StillImage" />
      </cc:Work>
    </rdf:RDF>
  </metadata>
  <sodipodi:namedview
     id="namedview55"
     pagecolor="#ffffff"
     bordercolor="#666666"
     borderopacity="1.0"
     inkscape:pageshadow="2"
     inkscape:pageopacity="0.0"
     inkscape:pagecheckerboard="0"
     showgrid="false"
     inkscape:zoom="0.22232305"
     inkscape:cx="2169.7631"
     inkscape:cy="4940.6968"
     inkscape:window-width="1920"
     inkscape:window-height="1017"
     inkscape:window-x="-8"
     inkscape:window-y="32"
     inkscape:window-maximized="1"
     inkscape:current-layer="svg53" />
  <defs
     id="defs49" />
  <image
     sodipodi:absref="F:\Github\echemdb\website\literature\pajkossy_1996_impedance_209\Pajkossy_1996_Impedance_209_p2.png"
     xlink:href="Pajkossy_1996_Impedance_209_p2.png"
     id="image51"
     y="0"
     x="0"
     width="4931px"
     sodipodi:insensitive="true"
     height="6612px" />
  <g
     id="g10864">
    <path
       style="fill:none;stroke:#000000;stroke-width:1px;stroke-linecap:butt;stroke-linejoin:miter;stroke-opacity:1"
       d="M 1282.4373,4943.7898 882.10748,4889.8139"
       id="path208" />
    <text
       xml:space="preserve"
       style="font-size:85.3333px;line-height:1.25;font-family:sans-serif"
       x="309.27679"
       y="4898.8232"
       id="text6060"><tspan
         sodipodi:role="line"
         id="tspan6058"
         x="309.27679"
         y="4898.8232">y2: 2 uA / cm2</tspan></text>
  </g>
  <g
     id="g10859">
    <path
       style="fill:none;stroke:#000000;stroke-width:1px;stroke-linecap:butt;stroke-linejoin:miter;stroke-opacity:1"
       d="m 1284.6857,5359.8151 -355.36194,24.7541"
       id="path206" />
    <text
       xml:space="preserve"
       style="font-size:85.3333px;line-height:1.25;font-family:sans-serif"
       x="337.89426"
       y="5420.3677"
       id="text7120"><tspan
         sodipodi:role="line"
         id="tspan7118"
         x="337.89426"
         y="5420.3677">y1: 0 uA / cm2</tspan></text>
  </g>
  <g
     id="g10854">
    <path
       style="fill:none;stroke:#000000;stroke-width:1px;stroke-linecap:butt;stroke-linejoin:miter;stroke-opacity:1"
       d="m 1426.3346,5568.981 -258.6232,110.1857"
       id="path210" />
    <text
       xml:space="preserve"
       style="font-size:85.3333px;line-height:1.25;font-family:sans-serif"
       x="706.82245"
       y="5744.8105"
       id="text8186"><tspan
         sodipodi:role="line"
         id="tspan8184"
         x="706.82245"
         y="5744.8105">x1: -0.6 V vs SCE</tspan></text>
  </g>
  <g
     id="g10849">
    <path
       style="fill:none;stroke:#000000;stroke-width:1px;stroke-linecap:butt;stroke-linejoin:miter;stroke-opacity:1"
       d="m 2283.999,5571.2148 -6.7452,170.9358"
       id="path212" />
    <text
       xml:space="preserve"
       style="font-size:85.3333px;line-height:1.25;font-family:sans-serif"
       x="2093.5029"
       y="5814.6724"
       id="text9510"><tspan
         sodipodi:role="line"
         id="tspan9508"
         x="2093.5029"
         y="5814.6724">x2: 0.6 V vs SCE</tspan></text>
  </g>
  <text
     xml:space="preserve"
     style="font-size:85.3333px;line-height:1.25;font-family:sans-serif"
     x="1354.9177"
     y="4827.3286"
     id="text26380"><tspan
       sodipodi:role="line"
       id="tspan26378"
       x="1354.9177"
       y="4827.3286">scan rate: 10 mV / s</tspan></text>
  <g
     id="g27921">
    <text
       xml:space="preserve"
       style="font-size:85.3333px;line-height:1.25;font-family:sans-serif"
       x="1314.229"
       y="4669.772"
       id="text12342"><tspan
         sodipodi:role="line"
         id="tspan12340"
         x="1314.229"
         y="4669.772">curve: Au(111)_0.1M_KClO4</tspan></text>
    <path
       style="fill:none;stroke:#000000;stroke-width:1px;stroke-linecap:butt;stroke-linejoin:miter;stroke-opacity:1"
       d="m 1289.9142,5340.8954 c 0,0 26.9892,0.5182 40.4856,0.5585 23.8009,0.071 47.6288,0.6143 71.4009,-0.5585 12.407,-0.6121 24.6917,-3.5221 37.113,-3.378 6.6002,0.077 13.0729,2.2358 19.6735,2.252 13.7643,0.034 27.3182,-3.5155 41.0476,-4.495 11.2197,-0.8005 22.5317,-0.024 33.7259,-1.126 12.6655,-1.2464 25.0815,-4.3532 37.6751,-6.1885 20.5642,-2.9968 41.0697,-7.3802 61.8453,-7.8729 11.8379,-0.2807 23.571,2.8339 35.4122,2.8105 15.7982,-0.031 31.5117,-2.3581 47.2308,-3.9365 22.3426,-2.2435 44.6025,-5.2449 66.9042,-7.864 33.5478,-3.9399 67.39,-5.8842 100.6446,-11.8095 10.097,-1.7991 19.8997,-4.9863 29.9162,-7.1897 14.9382,-3.286 30.4462,-4.275 44.9967,-8.99 9.4105,-3.0494 18.3771,-7.477 26.9808,-12.3589 6.33,-3.5918 12.3073,-7.8263 17.9871,-12.377 5.5865,-4.476 10.7789,-9.4493 15.7388,-14.611 4.7888,-4.9836 8.0024,-11.5445 13.4903,-15.746 6.9207,-5.2985 15.993,-7.0018 23.6082,-11.2419 5.4502,-3.0346 10.3178,-7.0384 15.7388,-10.125 8.0187,-4.5657 16.4684,-8.3304 24.7612,-12.377 7.8332,-3.8224 15.7245,-7.5247 23.6081,-11.242 5.6109,-2.6457 10.9022,-6.1546 16.8629,-7.873 5.8061,-1.6738 11.9564,-1.8759 17.9872,-2.252 5.2361,-0.3265 10.5462,0.7478 15.7389,0 6.5725,-0.9465 12.5389,-4.6745 19.1114,-5.621 5.1927,-0.7478 10.5599,0.8384 15.7387,0 7.0269,-1.1376 13.9442,-3.4627 20.2644,-6.738 7.8535,-4.0699 15.2988,-9.3034 21.3597,-15.7459 5.1999,-5.5273 9.3446,-12.1537 12.3663,-19.115 2.4622,-5.6724 2.5364,-12.1332 4.4967,-17.998 3.3531,-10.0314 8.6315,-19.3263 12.3662,-29.222 2.0941,-5.5487 3.6582,-11.2844 5.6209,-16.8809 2.5099,-7.157 4.0357,-9.4685 6.677,-16.5782 1.1166,-3.0055 4.5651,-13.7788 4.5651,-13.7788 0,0 2.0264,49.4736 2.2484,74.2259 0.2723,30.3581 -0.9368,60.7122 -1.1242,91.0709 -0.2152,34.8603 1.0551,69.7378 0,104.5828 -0.3749,12.382 -1.8736,24.713 -2.2485,37.095 -0.3404,11.2428 1.1645,22.5564 0,33.7439 -0.7535,7.2392 -2.4842,14.3724 -4.4967,21.367 -2.0986,7.2941 -5.2805,14.2321 -7.8693,21.3669 -1.8989,5.2336 -4.4885,10.277 -5.6211,15.728 -1.1473,5.5215 1.0443,11.6751 -1.1242,16.881 -3.2672,7.8434 -11.2104,12.7713 -16.863,19.115 -3.354,3.764 -6.1066,8.188 -10.1178,11.242 -5.3331,4.0604 -11.4999,7.3038 -17.9872,8.9899 -7.9964,2.0783 -16.5047,1.4235 -24.7611,1.117 -9.4289,-0.3501 -18.6864,-2.8065 -28.105,-3.369 -6.7332,-0.4021 -13.6285,-1.3582 -20.2356,0 -5.5922,1.1495 -10.608,4.252 -15.7387,6.756 -7.6858,3.751 -14.7862,8.6325 -22.4839,12.359 -6.9551,3.367 -13.7859,7.4763 -21.3598,9.008 -8.4572,1.7104 -17.3465,1.2403 -25.8854,0 -10.4443,-1.5171 -20.4516,-5.3553 -30.3533,-9.008 -10.3883,-3.8322 -20.831,-7.8437 -30.3534,-13.494 -6.8962,-4.092 -12.3433,-10.3102 -19.1113,-14.6109 -8.9117,-5.6628 -18.6022,-10.0085 -28.105,-14.611 -7.4054,-3.5866 -14.6199,-7.7997 -22.5128,-10.125 -11.9975,-3.5346 -24.7283,-3.7743 -37.0986,-5.621 -12.7368,-1.9014 -25.471,-3.8224 -38.2227,-5.621 -13.8634,-1.9554 -27.7192,-3.9862 -41.6241,-5.6209 -14.9613,-1.7589 -29.9316,-3.5864 -44.968,-4.504 -16.8358,-1.0275 -33.7477,-0.1829 -50.5889,-1.1171 -16.9132,-0.9382 -33.7022,-3.6079 -50.6177,-4.504 -22.0815,-1.1698 -44.216,-0.9457 -66.3277,-1.1349 -19.495,-0.1668 -37.8044,2.8431 -57.2947,2.3822 -15.752,-0.3724 -32.6534,-4.4347 -48.4087,-4.6163 -15.3676,-0.1771 -30.7238,1.183 -46.0922,1.1171 -22.8804,-0.098 -45.7246,-2.139 -68.6049,-2.252 -16.4924,-0.081 -32.9732,0.9457 -49.4647,1.1349 -12.375,0.1419 -24.757,0.367 -37.1274,0 -6.3788,-0.1892 -19.1113,-1.1349 -19.1113,-1.1349 z"
       id="path27551"
       sodipodi:nodetypes="csssssssssssssssssssssssssssssssssscssssssssssssssssssssssssssssssssssssscc" />
  </g>
  <text
     xml:space="preserve"
     style="font-style:normal;font-variant:normal;font-weight:normal;font-stretch:normal;font-size:80px;line-height:1.25;font-family:sans-serif;-inkscape-font-specification:sans-serif;letter-spacing:0px;word-spacing:0px;fill:#000000;fill-opacity:1;stroke:none"
     x="350.84082"
     y="386.82446"
     id="text837"><tspan
       sodipodi:role="line"
       id="tspan835"
       x="350.84082"
       y="386.82446">comment: Some peak currents were cut-off in the CV plots.</tspan></text>
</svg>
