<?xml version="1.0" encoding="UTF-8" standalone="no"?>
<svg
   xmlns:dc="http://purl.org/dc/elements/1.1/"
   xmlns:cc="http://creativecommons.org/ns#"
   xmlns:rdf="http://www.w3.org/1999/02/22-rdf-syntax-ns#"
   xmlns:svg="http://www.w3.org/2000/svg"
   xmlns="http://www.w3.org/2000/svg"
   xmlns:xlink="http://www.w3.org/1999/xlink"
   xmlns:sodipodi="http://sodipodi.sourceforge.net/DTD/sodipodi-0.dtd"
   xmlns:inkscape="http://www.inkscape.org/namespaces/inkscape"
   height="6612px"
   version="1.1"
   width="4931px"
   id="svg53"
   sodipodi:docname="pajkossy_1996_impedance_209_p2_f1B_solid.svg"
   inkscape:version="0.92.2 (5c3e80d, 2017-08-06)">
  <metadata
     id="metadata28">
    <rdf:RDF>
      <cc:Work
         rdf:about="">
        <dc:format>image/svg+xml</dc:format>
        <dc:type
           rdf:resource="http://purl.org/dc/dcmitype/StillImage" />
      </cc:Work>
    </rdf:RDF>
  </metadata>
  <sodipodi:namedview
     id="namedview55"
     pagecolor="#ffffff"
     bordercolor="#666666"
     borderopacity="1.0"
     inkscape:pageshadow="2"
     inkscape:pageopacity="0.0"
     inkscape:pagecheckerboard="0"
     showgrid="false"
     inkscape:zoom="0.22232305"
     inkscape:cx="2703.2734"
     inkscape:cy="4999.4816"
     inkscape:window-width="1920"
     inkscape:window-height="1017"
     inkscape:window-x="-8"
     inkscape:window-y="32"
     inkscape:window-maximized="1"
     inkscape:current-layer="svg53" />
  <defs
     id="defs49" />
  <image
     sodipodi:absref="F:\Github\echemdb\website\literature\pajkossy_1996_impedance_209\Pajkossy_1996_Impedance_209_p2.png"
     xlink:href="Pajkossy_1996_Impedance_209_p2.png"
     id="image51"
     y="0"
     x="0"
     width="4931px"
     sodipodi:insensitive="true"
     height="6612px" />
  <g
     id="g10864"
     transform="translate(1303.2639,5.6210077)">
    <path
       style="fill:none;stroke:#000000;stroke-width:1px;stroke-linecap:butt;stroke-linejoin:miter;stroke-opacity:1"
       d="M 1282.4373,4943.7898 882.10748,4889.8139"
       id="path208" />
    <text
       xml:space="preserve"
       style="font-size:85.3333px;line-height:1.25;font-family:sans-serif"
       x="309.27679"
       y="4898.8232"
       id="text6060"><tspan
         sodipodi:role="line"
         id="tspan6058"
         x="309.27679"
         y="4898.8232">j2: 2 uA / cm2</tspan></text>
  </g>
  <g
     id="g10859"
     transform="translate(1303.2639,5.6210077)">
    <path
       style="fill:none;stroke:#000000;stroke-width:1px;stroke-linecap:butt;stroke-linejoin:miter;stroke-opacity:1"
       d="m 1284.6857,5359.8151 -355.36194,24.7541"
       id="path206" />
    <text
       xml:space="preserve"
       style="font-size:85.3333px;line-height:1.25;font-family:sans-serif"
       x="337.89426"
       y="5420.3677"
       id="text7120"><tspan
         sodipodi:role="line"
         id="tspan7118"
         x="337.89426"
         y="5420.3677">j1: 0 uA / cm2</tspan></text>
  </g>
  <g
     id="g10854"
     transform="translate(1304.3678,5.159378)">
    <path
       style="fill:none;stroke:#000000;stroke-width:1px;stroke-linecap:butt;stroke-linejoin:miter;stroke-opacity:1"
       d="m 1426.3346,5568.981 -258.6232,110.1857"
       id="path210" />
    <text
       xml:space="preserve"
       style="font-size:85.3333px;line-height:1.25;font-family:sans-serif"
       x="706.82245"
       y="5744.8105"
       id="text8186"><tspan
         sodipodi:role="line"
         id="tspan8184"
         x="706.82245"
         y="5744.8105">E1: -0.6 V vs SCE</tspan></text>
  </g>
  <g
     id="g10849"
     transform="translate(1304.3678,5.159378)">
    <path
       style="fill:none;stroke:#000000;stroke-width:1.20835px;stroke-linecap:butt;stroke-linejoin:miter;stroke-opacity:1"
       d="m 2287.1741,5568.9824 -9.7229,173.1486"
       id="path212" />
    <text
       xml:space="preserve"
       style="font-size:85.3333px;line-height:1.25;font-family:sans-serif"
       x="2093.5029"
       y="5814.6724"
       id="text9510"><tspan
         sodipodi:role="line"
         id="tspan9508"
         x="2093.5029"
         y="5814.6724">E2: 0.6 V vs SCE</tspan></text>
  </g>
  <text
     xml:space="preserve"
     style="font-size:85.3333px;line-height:1.25;font-family:sans-serif"
     x="2627.7407"
     y="4836.3364"
     id="text26380"><tspan
       sodipodi:role="line"
       id="tspan26378"
       x="2627.7407"
       y="4836.3364">scan rate: 10 mV / s</tspan></text>
  <g
     id="g11076">
    <path
       style="fill:none;stroke:#000000;stroke-width:1px;stroke-linecap:butt;stroke-linejoin:miter;stroke-opacity:1"
       d="m 1288.8324,5349.7869 c 0,0 30.3771,-0.8214 45.5444,-1.6845 19.5169,-1.1106 39.0055,-2.7158 58.4728,-4.495 15.9488,-1.4577 31.854,-3.3587 47.7784,-5.0625 13.8714,-1.4841 27.6839,-3.664 41.6097,-4.495 16.2778,-0.9714 32.6264,0.1575 48.917,-0.5675 24.2236,-1.0781 48.3954,-3.2339 72.5252,-5.621 31.1851,-3.0851 62.4183,-6.1387 93.3373,-11.2419 33.2529,-5.4884 65.707,-15.224 98.9439,-20.8085 17.698,-2.9737 35.6736,-4.0364 53.4138,-6.747 11.9531,-1.8263 23.92,-3.7011 35.7048,-6.4083 17.1754,-3.9455 33.5654,-11.1093 50.8958,-14.3061 17.2694,-3.1855 35.2303,-1.4098 52.4652,-4.7772 12.5101,-2.4442 24.9846,-5.843 36.5871,-11.1214 15.9297,-7.247 30.3146,-17.6081 44.516,-27.8352 11.1539,-8.0325 20.1701,-18.9316 31.8175,-26.2301 5.9288,-3.7151 13.6324,-4.3592 19.0782,-8.7519 9.2826,-7.4874 16.4296,-17.8133 21.4631,-28.625 6.4304,-13.8122 7.287,-29.5957 10.3341,-44.5236 3.6599,-17.9304 6.7728,-35.9755 9.5392,-54.0653 2.182,-14.2685 4.0934,-28.5848 5.5644,-42.944 1.4356,-14.0137 1.6953,-28.1328 3.1798,-42.1414 1.8605,-17.5567 4.8825,-34.9712 7.1725,-52.477 2.2175,-16.9519 3.8545,-33.9814 6.3594,-50.8932 1.3786,-9.3079 3.0518,-18.5712 4.7696,-27.8225 0.74,-3.9853 2.3848,-11.924 2.3848,-11.924 1.4214,-2.0563 6.3594,-3.9746 6.3594,-3.9746 0,0 3.7295,5.5877 4.7696,8.7391 3.0192,9.1479 3.4012,19.0089 3.9746,28.6251 0.8362,14.0247 -1.4044,28.105 -0.7949,42.1414 0.763,17.5725 4.1398,34.9417 5.5645,52.4729 1.1396,14.0233 0.8745,28.153 2.3847,42.1413 0.7205,6.6741 -0.4479,14.2378 3.1798,19.886 1.5484,2.4108 4.3114,5.1203 7.1544,4.7644 3.5417,-0.4434 4.9458,-5.1612 7.1746,-7.9492 10.3302,-12.9218 19.6618,-26.6392 28.6175,-40.549 6.8158,-10.5863 11.9183,-22.2431 19.0783,-32.5997 4.0724,-5.8906 13.5138,-16.7011 13.5138,-16.7011 0,0 -2.2149,16.9332 -2.3849,25.453 -0.2966,14.8595 2.11,29.6637 2.3849,44.5236 0.5932,32.0678 -2.0216,64.1363 -1.5899,96.2067 0.2464,18.3006 2.1372,36.5545 2.3848,54.8551 0.2188,16.171 4.2383,33.1416 -0.7949,48.511 -5.9178,18.0708 -9.0382,57.0224 -13.813,85.4915 -1.4473,8.6294 -2.3744,17.3732 -4.4968,25.8619 -3.7809,15.1215 -7.0051,30.8152 -14.6146,44.4185 -4.6736,8.3548 -12.2869,14.6848 -18.5493,21.9254 -11.2925,13.0564 -20.9598,27.8447 -34.3024,38.7975 -10.0628,8.2605 -22.0708,13.9016 -33.7404,19.6735 -15.4393,7.6364 -31.4246,14.2752 -47.7784,19.6824 -14.5015,4.7947 -29.8061,6.8026 -44.4202,11.242 -11.2323,3.4121 -22.3975,7.1639 -33.1783,11.8095 -9.4654,4.0788 -17.7444,10.8552 -27.5428,14.0525 -14.6171,4.7697 -30.1864,6.5725 -45.5445,7.3055 -17.6329,0.8416 -35.2657,-1.8325 -52.8517,-3.3691 -16.9023,-1.4769 -33.8486,-2.8583 -50.5889,-5.6209 -17.2296,-2.8433 -33.8297,-9.1494 -51.1654,-11.251 -14.8897,-1.805 -30.1159,0.8703 -44.9824,-1.117 -10.9006,-1.4572 -21.3423,-5.3206 -32.0396,-7.873 -17.781,-4.2425 -35.7553,-7.6927 -53.4274,-12.368 -10.7787,-2.8516 -21.4608,-6.0795 -32.054,-9.5575 -14.758,-4.8453 -28.887,-11.6062 -43.8582,-15.746 -13.9896,-3.8683 -28.3323,-6.5128 -42.7195,-8.4314 -13.2237,-1.7634 -26.5974,-2.1846 -39.9234,-2.8105 -23.7807,-1.117 -47.5953,-1.9318 -71.401,-1.6845 -25.3228,0.263 -50.5764,2.9924 -75.8978,3.369 -25.6787,0.3819 -51.4117,0.5819 -77.0364,-1.126 -7.9074,-0.527 -23.6082,-2.8105 -23.6082,-2.8105 z"
       id="path10705"
       sodipodi:nodetypes="cssssssssssssssssssssssssscsssssssssscssssssssssssssssssssssssssssscc"
       transform="translate(1304.3678,5.159378)" />
    <text
       xml:space="preserve"
       style="font-size:85.3333px;line-height:1.25;font-family:sans-serif"
       x="2596.0459"
       y="4638.2798"
       id="text12342"><tspan
         sodipodi:role="line"
         id="tspan12340"
         x="2596.0459"
         y="4638.2798">curve: Au(100)_0.1M_KClO4</tspan></text>
  </g>
  <text
     xml:space="preserve"
     style="font-style:normal;font-variant:normal;font-weight:normal;font-stretch:normal;font-size:80px;line-height:1.25;font-family:sans-serif;-inkscape-font-specification:sans-serif;letter-spacing:0px;word-spacing:0px;fill:#000000;fill-opacity:1;stroke:none"
     x="-608.18121"
     y="291.94791"
     id="text837"><tspan
       sodipodi:role="line"
       id="tspan835"
       x="-608.18121"
       y="291.94791">comment: Some peak currents were cut-off in the CV plots.</tspan></text>
</svg>
