<?xml version="1.0" encoding="UTF-8" standalone="no"?>
<svg
   xmlns:dc="http://purl.org/dc/elements/1.1/"
   xmlns:cc="http://creativecommons.org/ns#"
   xmlns:rdf="http://www.w3.org/1999/02/22-rdf-syntax-ns#"
   xmlns:svg="http://www.w3.org/2000/svg"
   xmlns="http://www.w3.org/2000/svg"
   xmlns:xlink="http://www.w3.org/1999/xlink"
   xmlns:sodipodi="http://sodipodi.sourceforge.net/DTD/sodipodi-0.dtd"
   xmlns:inkscape="http://www.inkscape.org/namespaces/inkscape"
   height="6612px"
   version="1.1"
   width="4931px"
   id="svg47954"
   sodipodi:docname="pajkossy_1996_impedance_209_p6_f8A_b.svg"
   inkscape:version="0.92.2 (5c3e80d, 2017-08-06)">
  <metadata
     id="metadata28">
    <rdf:RDF>
      <cc:Work
         rdf:about="">
        <dc:format>image/svg+xml</dc:format>
        <dc:type
           rdf:resource="http://purl.org/dc/dcmitype/StillImage" />
      </cc:Work>
    </rdf:RDF>
  </metadata>
  <sodipodi:namedview
     id="namedview47956"
     pagecolor="#ffffff"
     bordercolor="#666666"
     borderopacity="1.0"
     inkscape:pageshadow="2"
     inkscape:pageopacity="0.0"
     inkscape:pagecheckerboard="0"
     showgrid="false"
     inkscape:zoom="0.11388385"
     inkscape:cx="673.9136"
     inkscape:cy="4084.0988"
     inkscape:window-width="1920"
     inkscape:window-height="1017"
     inkscape:window-x="-8"
     inkscape:window-y="32"
     inkscape:window-maximized="1"
     inkscape:current-layer="svg47954" />
  <defs
     id="defs47950" />
  <image
     sodipodi:absref="F:\Github\echemdb\website\literature\pajkossy_1996_impedance_209\Pajkossy_1996_Impedance_209_p6.png"
     xlink:href="Pajkossy_1996_Impedance_209_p6.png"
     id="image47952"
     y="0"
     x="0"
     width="4931px"
     sodipodi:insensitive="true"
     height="6612px" />
  <g
     id="g58784"
     transform="translate(4.6555788,3.0838549)">
    <path
       style="fill:none;stroke:#000000;stroke-width:1px;stroke-linecap:butt;stroke-linejoin:miter;stroke-opacity:1"
       d="M 678.19777,721.6372 498.18307,423.6021"
       id="path48032" />
    <text
       xml:space="preserve"
       style="font-size:85.3333px;line-height:1.25;font-family:sans-serif"
       x="187.65356"
       y="336.6586"
       id="text49708"><tspan
         sodipodi:role="line"
         id="tspan49706"
         x="187.65356"
         y="336.6586">y2: 7.5 uA / cm2</tspan></text>
  </g>
  <g
     id="g58779"
     transform="translate(0,-1.5419274)">
    <path
       style="fill:none;stroke:#000000;stroke-width:1px;stroke-linecap:butt;stroke-linejoin:miter;stroke-opacity:1"
       d="M 684.40527,1466.725 572.67195,1814.3996"
       id="path47991" />
    <text
       xml:space="preserve"
       style="font-size:85.3333px;line-height:1.25;font-family:sans-serif"
       x="274.55725"
       y="1845.4364"
       id="text52946"><tspan
         sodipodi:role="line"
         id="tspan52944"
         x="274.55725"
         y="1845.4364">y1: -2.5 uA / cm2</tspan></text>
  </g>
  <g
     id="g58774"
     transform="translate(-4.6555313)">
    <path
       style="fill:none;stroke:#000000;stroke-width:1px;stroke-linecap:butt;stroke-linejoin:miter;stroke-opacity:1"
       d="m 864.41997,1640.5126 -31.03713,403.5809"
       id="path47993" />
    <text
       xml:space="preserve"
       style="font-size:85.3333px;line-height:1.25;font-family:sans-serif"
       x="833.38281"
       y="2044.0935"
       id="text54006"><tspan
         sodipodi:role="line"
         id="tspan54004"
         x="833.38281"
         y="2044.0935">x1: -0.8 V vs SCE</tspan></text>
  </g>
  <g
     id="g58769"
     transform="translate(1.5518754,3.1086773)">
    <path
       style="fill:none;stroke:#000000;stroke-width:1px;stroke-linecap:butt;stroke-linejoin:miter;stroke-opacity:1"
       d="m 2068.9754,1640.5126 198.637,229.7932"
       id="path47995" />
    <text
       xml:space="preserve"
       style="font-size:85.3333px;line-height:1.25;font-family:sans-serif"
       x="2267.6123"
       y="1870.3058"
       id="text55726"><tspan
         sodipodi:role="line"
         id="tspan55724"
         x="2267.6123"
         y="1870.3058">x2: 0.6 V vs SCE</tspan></text>
  </g>
  <text
     xml:space="preserve"
     style="font-size:85.3333px;line-height:1.25;font-family:sans-serif"
     x="761.27502"
     y="525.37915"
     id="text65744"><tspan
       sodipodi:role="line"
       id="tspan65742"
       x="761.27502"
       y="525.37915">scan rate: 10 mV / s</tspan></text>
  <g
     id="g71830">
    <text
       xml:space="preserve"
       style="font-size:85.3333px;line-height:1.25;font-family:sans-serif"
       x="568.76593"
       y="444.70267"
       id="text60130"><tspan
         sodipodi:role="line"
         id="tspan60128"
         x="568.76593"
         y="444.70267">curve: Au(100)_0.05M_KClO4_0.50mM_NaBr </tspan></text>
    <path
       style="fill:none;stroke:#000000;stroke-width:1px;stroke-linecap:butt;stroke-linejoin:miter;stroke-opacity:1"
       d="m 770.10137,1283.1032 c -3.87065,-4.18 -2.53408,-12.4363 0.77592,-17.0729 0,0 29.4829,-4.153 44.22778,-6.2049 7.50609,-1.0446 14.95425,-2.7016 22.52174,-3.1087 8.785,-0.4726 17.58558,0.9615 26.38148,0.7834 14.77593,-0.2992 29.47191,-2.2826 44.22776,-3.1087 12.41281,-0.695 24.85063,-0.8757 37.26434,-1.5543 15.27194,-0.8348 30.50036,-2.4086 45.77963,-3.0962 11.63668,-0.5237 23.30728,-0.1154 34.93658,-0.7834 14.0033,-0.8043 27.9739,-2.2056 41.9,-3.8797 14.0246,-1.686 27.8795,-4.6566 41.9199,-6.2049 14.177,-1.5634 28.4635,-1.9083 42.6759,-3.1087 13.47,-1.1377 26.9256,-2.4523 40.368,-3.8796 11.134,-1.1822 22.4443,-1.4091 33.3649,-3.8796 10.9298,-2.4725 22.2517,-5.0235 31.8129,-10.868 9.213,-5.6316 17.6628,-13.2959 23.2977,-22.5068 6.4912,-10.6107 8.5734,-23.4738 10.8629,-35.7 1.9096,-10.1975 0.3591,-20.8508 2.3278,-31.037 2.1115,-10.9248 7.1158,-21.0975 10.087,-31.8205 1.4916,-5.3829 1.8162,-11.1113 3.8797,-16.3019 2.8688,-7.2164 8.6645,-13.008 11.6388,-20.1815 5.3349,-12.867 8.8726,-26.5645 10.863,-40.3507 1.5534,-10.7594 0.1716,-21.74958 0.776,-32.60376 0.8232,-14.78278 2.8808,-29.47535 3.8796,-44.2473 1.1008,-16.27906 1.5519,-32.59554 2.3278,-48.89331 1.0346,-21.73172 2.6984,-43.4426 3.1037,-65.19516 0.4675,-25.09022 -0.8055,-50.18518 -0.776,-75.27974 0.024,-20.44013 0.4575,-40.87787 0.776,-61.31553 0.2177,-13.96902 0.6466,-27.93485 0.7759,-41.90497 0.2443,-26.38532 -0.2586,-52.77417 0,-79.15936 0.1293,-13.19513 0.7759,-39.57968 0.7759,-39.57968 2.1352,-2.27673 7.0335,-2.89613 9.331,-0.78339 0,0 -0.068,18.62744 0,27.94079 0.1293,17.5924 0.7372,35.18008 0.7759,52.77291 0.055,25.09451 -0.6466,50.18548 -0.7759,75.27972 -0.087,16.81565 0,33.63175 0,50.44762 0,29.49512 0,58.99025 0,88.48537 0,22.50683 0,45.01367 0,67.5205 0,16.55474 0,33.10949 0,49.66423 0,17.07286 -0.2133,34.14705 0,51.21857 0.1293,10.35229 0.2842,20.70809 0.7759,31.04949 0.7021,14.7671 2.4842,29.4719 3.1037,44.2427 0.6981,16.6447 0.4504,33.3157 0.6896,49.9733 0.1245,8.6671 -4.2943,18.7065 0.388,26.001 1.6248,2.5313 5.2132,3.2167 8.1472,3.8796 3.2797,0.741 6.7309,-0.2049 10.087,0 6.3756,0.3893 12.6882,1.491 19.0202,2.3315 6.3455,0.8423 12.8697,0.9089 19.0102,2.717 5.0515,1.4874 9.5913,4.3515 14.3546,6.5966 7.7986,3.6757 15.4713,7.6158 23.2877,11.2534 8.607,4.0055 17.252,7.9359 25.9935,11.6389 7.0567,2.9893 14.3493,5.4133 21.3479,8.5364 9.386,4.1885 18.1148,9.8067 27.642,13.6631 6.294,2.5477 13.5454,9.6599 19.3981,6.2174 4.5505,-2.6766 2.513,-10.2848 3.1037,-15.531 1.0713,-9.5139 0.4728,-19.1424 0.776,-28.7117 0.451,-14.2317 0.9376,-28.4628 1.5518,-42.6884 0.4468,-10.349 1.1886,-20.6848 1.5519,-31.037 0.8984,-25.6008 1.5518,-76.8341 1.5518,-76.8341 0,0 2.1217,64.1531 3.1038,96.2322 0.5465,17.8512 1.0755,35.7031 1.5518,53.5563 0.283,10.6062 -0.9793,21.3566 0.7759,31.8204 0.988,5.8897 2.5481,11.8431 5.4315,17.0729 3.1025,5.6272 7.3287,10.8205 12.4148,14.7476 4.7664,3.6802 10.867,5.1922 16.3143,7.7592 3.8731,1.8252 7.4304,4.6461 11.6389,5.434 7.6438,1.431 15.5031,-1.7261 23.2778,-1.5544 4.6832,0.1034 9.5282,0.057 13.9667,1.5544 4.2857,1.4459 7.2608,5.8394 11.6388,6.9758 7.7711,2.0172 16.0458,-0.8858 24.0737,-0.7709 8.55,0.1223 17.08,0.8965 25.6055,1.5543 8.2881,0.6395 16.5228,2.0123 24.8297,2.3253 14.2242,0.5359 28.4637,-0.5207 42.6958,-0.771 15.2597,-0.2683 30.518,-0.6527 45.7795,-0.7833 4.1381,-0.035 8.402,-1.0112 12.4148,0 7.4125,1.8679 12.5714,11.4428 20.194,10.8679 2.5806,-0.1946 4.1705,-3.0666 6.2074,-4.663 2.8921,-2.2666 6.9196,-3.6757 8.5353,-6.9759 4.5525,-9.2984 -0.01,-20.7262 0.7759,-31.0494 0.9302,-12.2203 3.4427,-24.2756 4.6555,-36.4711 0.3594,-3.614 0.776,-10.8679 0.776,-10.8679 0,0 3.4284,19.6176 4.6555,29.4951 0.7045,5.6708 -0.8716,11.8978 1.5519,17.0729 2.6374,5.6318 8.0966,9.6263 13.1907,13.1932 5.0143,3.511 10.9365,5.5471 16.6442,7.759 8.5767,3.3236 17.2561,6.7676 26.3358,8.2387 9.9356,1.6097 20.1342,0.1244 30.1905,0.5452 11.1704,0.4674 22.2889,2.0746 33.4684,2.1981 8.425,0.093 19.1667,-6.9257 25.2525,-1.099 5.4175,5.1868 2.6895,15.4991 0,22.5004 -1.7657,4.5966 -5.7902,8.2457 -9.8899,10.9732 -6.4533,4.2933 -14.6737,5.0043 -21.9465,7.6848 -5.7046,2.1025 -11.2333,4.6861 -17.0086,6.5857 -9.9085,3.2592 -20.0523,5.7771 -30.1905,8.23 -9.4483,2.286 -19.18,3.3822 -28.5304,6.0405 -9.3525,2.6589 -19.6444,4.0729 -27.4472,9.8742 -4.9319,3.6668 -7.9137,9.4858 -10.9733,14.8157 -3.4684,6.0421 -5.7268,12.7103 -8.2299,19.2119 -2.4313,6.315 -4.8195,12.6704 -6.584,19.2032 -1.7029,6.3048 -3.8406,19.212 -3.8406,19.212 0,0 -4.2755,-24.073 -5.4866,-36.2258 -1.1258,-11.2969 -1.3716,-22.6693 -1.646,-34.0188 -0.1238,-5.1217 1.5201,-10.4771 0,-15.3696 -1.0533,-3.3902 -3.9905,-5.8731 -6.0353,-8.7751 -2.34,-3.321 -3.5592,-7.95 -7.1326,-9.8829 -10.4712,-5.6642 -23.773,-1.7891 -35.6771,-1.6443 -15.5876,0.1896 -31.0808,2.5173 -46.6504,3.2885 -12.7917,0.6336 -25.6245,0.2909 -38.4064,1.0991 -9.3579,0.5917 -18.6482,2.0063 -27.9958,2.7433 -17.2067,1.3567 -34.5156,1.3513 -51.688,3.0887 -10.0112,1.0128 -19.9062,2.9633 -29.8831,4.2713 -8.6552,1.1347 -17.6071,0.7149 -26.0035,3.1025 -5.899,1.6775 -12.2636,3.5064 -16.6824,7.7592 -4.0857,3.9323 -5.7475,9.8375 -7.7592,15.1393 -1.6579,4.3695 -2.8087,8.9554 -3.4917,13.5787 -1.3622,9.2216 -0.8576,18.6242 -1.1639,27.9408 -0.3528,10.7326 -0.3366,21.4765 -0.7759,32.2059 -0.8461,20.666 -2.9844,41.2717 -3.5816,61.9464 -0.4595,15.9081 -0.051,31.8295 0,47.7442 0.091,28.7202 0.5487,86.1593 0.5487,86.1593 0,0 -3.6576,-63.2642 -4.3893,-94.9344 -0.9,-38.9528 0.9682,-77.9385 0,-116.8897 -0.4597,-18.4935 0.3424,-37.1914 -2.7574,-55.429 -0.5433,-3.1965 0.1285,-7.8437 -2.7536,-9.329 -4.9869,-2.5701 -10.6175,3.629 -15.9112,5.4866 -12.8314,4.5026 -25.8068,8.6355 -38.4204,13.7165 -14.8828,5.995 -28.8783,14.1007 -43.893,19.7572 -13.4308,5.0598 -27.7392,7.5501 -41.1638,12.6262 -12.0242,4.5466 -23.9905,9.496 -35.1284,15.9148 -6.8155,3.9278 -12.1994,10.1352 -19.2032,13.7165 -8.2045,4.1953 -17.0692,7.5628 -26.1965,8.8299 -10.3881,1.4421 -21.1899,0.7399 -31.425,-1.5481 -9.2847,-2.0756 -18.276,-5.9028 -26.3915,-10.868 -11.0351,-6.7515 -20.1289,-16.3002 -29.4951,-25.2238 -9.0089,-8.5833 -16.6974,-18.4758 -25.6055,-27.1636 -10.8203,-10.5528 -20.9831,-22.1965 -33.7628,-30.2661 -10.7863,-6.8109 -23.2694,-10.5464 -35.3145,-14.7475 -6.7306,-2.3475 -13.5561,-4.5914 -20.5778,-5.8191 -10.855,-1.8979 -21.9657,-1.8955 -32.9768,-2.3315 -14.9934,-0.5937 -30.0101,-0.1714 -45.0137,-0.3855 -19.4067,-0.2769 -38.80889,-0.8082 -58.21428,-1.1626 -15.65069,-0.2858 -31.30604,-0.3483 -46.95346,-0.7772 -20.31395,-0.5568 -40.62361,-1.3227 -60.92013,-2.3315 -12.68479,-0.6304 -25.35562,-1.5168 -38.03031,-2.3253 -21.05759,-1.3432 -63.16195,-4.1958 -63.16195,-4.1958 z"
       id="path71118"
       sodipodi:nodetypes="sssssssssssssssssssssssssssssssssssssssssssssssssssssssssscssssssssssssssssssssscsssssssssssssssssscssssssssssssssssssscsssssssssssssssssssssssss" />
  </g>
  <text
     xml:space="preserve"
     style="font-style:normal;font-variant:normal;font-weight:normal;font-stretch:normal;font-size:80px;line-height:1.25;font-family:sans-serif;-inkscape-font-specification:sans-serif;letter-spacing:0px;word-spacing:0px;fill:#000000;fill-opacity:1;stroke:none"
     x="2710.2913"
     y="575.26544"
     id="text837"><tspan
       sodipodi:role="line"
       id="tspan835"
       x="2710.2913"
       y="575.26544">comment: Some peak currents were cut-off in the CV plots.</tspan></text>
</svg>
