<?xml version="1.0" encoding="UTF-8" standalone="no"?>
<svg
   height="6601px"
   version="1.1"
   width="5100px"
   id="svg53"
   sodipodi:docname="Li_2000_Chronocoulometric_95_p1_dotted.svg"
   inkscape:version="1.1.1 (eb90963e84, 2021-10-02)"
   xmlns:inkscape="http://www.inkscape.org/namespaces/inkscape"
   xmlns:sodipodi="http://sodipodi.sourceforge.net/DTD/sodipodi-0.dtd"
   xmlns:xlink="http://www.w3.org/1999/xlink"
   xmlns="http://www.w3.org/2000/svg"
   xmlns:svg="http://www.w3.org/2000/svg">
  <sodipodi:namedview
     id="namedview55"
     pagecolor="#ffffff"
     bordercolor="#666666"
     borderopacity="1.0"
     inkscape:pageshadow="2"
     inkscape:pageopacity="0.0"
     inkscape:pagecheckerboard="0"
     showgrid="false"
     inkscape:zoom="0.39206182"
     inkscape:cx="1355.6536"
     inkscape:cy="4788.7856"
     inkscape:window-width="1848"
     inkscape:window-height="898"
     inkscape:window-x="72"
     inkscape:window-y="27"
     inkscape:window-maximized="1"
     inkscape:current-layer="svg53" />
  <defs
     id="defs49" />
  <image
     height="6601px"
     sodipodi:insensitive="true"
     width="5100px"
     x="0"
     xlink:href="Li_2000_Chronocoulometric_95_p1.png"
     y="0"
     id="image51" />
  <g
     id="g12701">
    <path
       style="fill:none;stroke:#000000;stroke-width:1px;stroke-linecap:butt;stroke-linejoin:miter;stroke-opacity:1"
       d="M 633.03063,4354.5067 434.11533,4331.554"
       id="path170" />
    <text
       xml:space="preserve"
       style="font-size:85.3333px;line-height:1.25;font-family:sans-serif"
       x="51.528511"
       y="4270.3218"
       id="text4030"><tspan
         sodipodi:role="line"
         id="tspan4028"
         x="51.528511"
         y="4270.3218">y2: 40 uA/cm2</tspan></text>
  </g>
  <g
     id="g12706">
    <path
       style="fill:none;stroke:#000000;stroke-width:1px;stroke-linecap:butt;stroke-linejoin:miter;stroke-opacity:1"
       d="m 622.86817,5310.9708 -257.64833,-56.136"
       id="path172" />
    <text
       xml:space="preserve"
       style="font-size:85.3333px;line-height:1.25;font-family:sans-serif"
       x="74.543465"
       y="5224.2188"
       id="text6794"><tspan
         sodipodi:role="line"
         id="tspan6792"
         x="74.543465"
         y="5224.2188">y1: -40 uA/cm2</tspan></text>
  </g>
  <g
     id="g12711">
    <path
       style="fill:none;stroke:#000000;stroke-width:1px;stroke-linecap:butt;stroke-linejoin:miter;stroke-opacity:1"
       d="M 780.98424,5428.2638 559.05391,5553.2579"
       id="path174" />
    <text
       xml:space="preserve"
       style="font-size:85.3333px;line-height:1.25;font-family:sans-serif"
       x="273.45877"
       y="5606.8271"
       id="text9468"><tspan
         sodipodi:role="line"
         id="tspan9466"
         x="273.45877"
         y="5606.8271">x1: -400 mV vs SCE</tspan></text>
  </g>
  <g
     id="g12716">
    <path
       style="fill:none;stroke:#000000;stroke-width:1px;stroke-linecap:butt;stroke-linejoin:miter;stroke-opacity:1"
       d="m 2002.7217,5433.3602 196.3745,132.6576"
       id="path176" />
    <text
       xml:space="preserve"
       style="font-size:85.3333px;line-height:1.25;font-family:sans-serif"
       x="2076.6982"
       y="5611.9233"
       id="text11506"><tspan
         sodipodi:role="line"
         id="tspan11504"
         x="2076.6982"
         y="5611.9233">x2: 400 mV vs SCE</tspan></text>
  </g>
  <text
     xml:space="preserve"
     style="font-size:85.3333px;line-height:1.25;font-family:sans-serif"
     x="906.05859"
     y="5339.3735"
     id="text23029"><tspan
       sodipodi:role="line"
       id="tspan23027"
       x="906.05859"
       y="5339.3735">scan rate: 20 mV/s </tspan></text>
  <g
     id="g566">
    <text
       xml:space="preserve"
       style="font-size:85.3333px;line-height:1.25;font-family:sans-serif"
       x="548.89136"
       y="4165.7886"
       id="text13996"><tspan
         sodipodi:role="line"
         id="tspan13994"
         x="548.89136"
         y="4165.7886">curve: Pt_(111)_0.1M_KClO4_0.001M_HClO4_0.001M_KCl</tspan></text>
    <path
       style="fill:none;stroke:#000000;stroke-width:1px;stroke-linecap:butt;stroke-linejoin:miter;stroke-opacity:1"
       d="m 850.93099,4832.4259 2.54062,-80.3345 1.27033,-43.3573 11.43275,-28.0491 26.82594,-11.4952 25.48088,-6.3611 24.21056,-16.5917 17.85907,-53.55 8.96686,-51.0207 10.16247,-20.4046 h 3.8109 l 3.88563,38.2609 11.43279,44.6407 14.04811,35.7127 20.3996,19.1209 17.8591,3.8318 22.9402,-10.2117 21.67,-25.5009 16.5888,-22.9528 12.7777,-1.2835 6.3516,17.8563 5.0812,31.8809 6.4263,29.3327 7.6218,21.688 30.6369,30.5973 56.1177,38.2609 36.9884,28.0491 48.4212,3.8318 49.7661,-11.4764 66.2802,-24.2362 42.0697,-14.0246 52.3067,-3.8318 45.8806,2.5671 48.4959,5.0964 51.0365,5.0964 42.0696,1.2836 67.5504,11.4763 57.3882,6.3611 58.6583,3.8317 47.2255,6.38 47.1509,3.8318 22.9402,-6.38 14.0481,-26.7845 2.5407,-31.8809 3.8855,-85.4498 5.0813,-91.8108 5.0812,-66.31 2.5407,-44.6408 3.8109,-16.5728 8.9669,36.9773 -1.2703,47.189 3.811,75.2381 5.0811,77.7864 2.5407,54.8335 12.7778,39.5444 20.3997,26.7845 22.9401,11.4764 33.1775,3.8128 11.5075,1.2836 -3.8857,53.5689 -26.7511,8.9093 -30.6369,12.7599 -33.1027,21.688 -22.9403,36.9774 -15.3184,71.4063 -11.5075,66.3288 -7.6218,54.8336 -6.4264,51.0019 -8.8921,-34.4291 -3.8108,-95.6426 v -93.0945 -53.5689 l -15.3185,-17.8563 h -31.9072 l -53.577,5.1153 h -25.481 -53.5771 l -56.1176,8.9281 -58.6584,11.4764 -58.6584,7.6446 -30.5621,5.0964 -33.1774,-1.2646 -45.8806,-1.2836 -52.3068,-1.2646 -52.3067,-11.4764 -44.6103,-19.1399 -54.8474,-15.3081 h -36.9884 l -47.1508,10.2117 -21.67,12.7411 -44.6849,28.068 -30.5621,26.7844 -24.2854,25.501 -5.0812,38.2608 -3.8109,36.9773 -10.2372,5.0964 -22.9403,-14.0246 -33.1775,-21.6692 -30.5621,-6.3799 -14.0481,12.741 -21.66994,22.9527 -7.62181,24.2363 -7.69661,31.8809 v 22.9527 l -3.81091,11.4764 -14.04809,-31.8809 -15.31842,-48.4536 -16.51402,-31.881 -28.09623,-15.308 -24.21059,11.4763 -15.31842,12.7599 -10.16247,10.1928 -2.61534,-118.5953 z"
       id="path481" />
  </g>
</svg>
