<?xml version="1.0" encoding="UTF-8" standalone="no"?>
<svg
   xmlns:dc="http://purl.org/dc/elements/1.1/"
   xmlns:cc="http://creativecommons.org/ns#"
   xmlns:rdf="http://www.w3.org/1999/02/22-rdf-syntax-ns#"
   xmlns:svg="http://www.w3.org/2000/svg"
   xmlns="http://www.w3.org/2000/svg"
   xmlns:xlink="http://www.w3.org/1999/xlink"
   xmlns:sodipodi="http://sodipodi.sourceforge.net/DTD/sodipodi-0.dtd"
   xmlns:inkscape="http://www.inkscape.org/namespaces/inkscape"
   height="6601px"
   version="1.1"
   width="5100px"
   id="svg53"
   sodipodi:docname="li_2000_chronocoulometric_95_f1_solid.svg"
   inkscape:version="0.92.2 (5c3e80d, 2017-08-06)">
  <metadata
     id="metadata28">
    <rdf:RDF>
      <cc:Work
         rdf:about="">
        <dc:format>image/svg+xml</dc:format>
        <dc:type
           rdf:resource="http://purl.org/dc/dcmitype/StillImage" />
      </cc:Work>
    </rdf:RDF>
  </metadata>
  <sodipodi:namedview
     id="namedview55"
     pagecolor="#ffffff"
     bordercolor="#666666"
     borderopacity="1.0"
     inkscape:pageshadow="2"
     inkscape:pageopacity="0.0"
     inkscape:pagecheckerboard="0"
     showgrid="false"
     inkscape:zoom="0.1960309"
     inkscape:cx="-277.70364"
     inkscape:cy="7.0730958"
     inkscape:window-width="1920"
     inkscape:window-height="1017"
     inkscape:window-x="-8"
     inkscape:window-y="32"
     inkscape:window-maximized="1"
     inkscape:current-layer="svg53" />
  <defs
     id="defs49" />
  <image
     sodipodi:absref="F:\Github\echemdb\website\literature\li_2000_chronocoulometric_95\Li_2000_Chronocoulometric_95_p1.png"
     xlink:href="Li_2000_Chronocoulometric_95_p1.png"
     id="image51"
     y="0"
     x="0"
     width="5100px"
     sodipodi:insensitive="true"
     height="6601px" />
  <g
     id="g12701">
    <path
       style="fill:none;stroke:#000000;stroke-width:1px;stroke-linecap:butt;stroke-linejoin:miter;stroke-opacity:1"
       d="M 633.03063,4354.5067 434.11533,4331.554"
       id="path170" />
    <text
       xml:space="preserve"
       style="font-size:85.3333px;line-height:1.25;font-family:sans-serif"
       x="51.528511"
       y="4270.3218"
       id="text4030"><tspan
         sodipodi:role="line"
         id="tspan4028"
         x="51.528511"
         y="4270.3218">y2: 40 uA / cm2</tspan></text>
  </g>
  <g
     id="g12706">
    <path
       style="fill:none;stroke:#000000;stroke-width:1px;stroke-linecap:butt;stroke-linejoin:miter;stroke-opacity:1"
       d="m 622.86817,5310.9708 -257.64833,-56.136"
       id="path172" />
    <text
       xml:space="preserve"
       style="font-size:85.3333px;line-height:1.25;font-family:sans-serif"
       x="74.543465"
       y="5224.2188"
       id="text6794"><tspan
         sodipodi:role="line"
         id="tspan6792"
         x="74.543465"
         y="5224.2188">y1: -40 uA / cm2</tspan></text>
  </g>
  <g
     id="g12711">
    <path
       style="fill:none;stroke:#000000;stroke-width:1px;stroke-linecap:butt;stroke-linejoin:miter;stroke-opacity:1"
       d="M 780.98424,5428.2638 559.05391,5553.2579"
       id="path174" />
    <text
       xml:space="preserve"
       style="font-size:85.3333px;line-height:1.25;font-family:sans-serif"
       x="273.45877"
       y="5606.8271"
       id="text9468"><tspan
         sodipodi:role="line"
         id="tspan9466"
         x="273.45877"
         y="5606.8271">x1: -400 mV vs SCE</tspan></text>
  </g>
  <g
     id="g12716">
    <path
       style="fill:none;stroke:#000000;stroke-width:1px;stroke-linecap:butt;stroke-linejoin:miter;stroke-opacity:1"
       d="m 2002.7217,5433.3602 196.3745,132.6576"
       id="path176" />
    <text
       xml:space="preserve"
       style="font-size:85.3333px;line-height:1.25;font-family:sans-serif"
       x="2076.6982"
       y="5611.9233"
       id="text11506"><tspan
         sodipodi:role="line"
         id="tspan11504"
         x="2076.6982"
         y="5611.9233">x2: 400 mV vs SCE</tspan></text>
  </g>
  <g
     id="g21575">
    <text
       xml:space="preserve"
       style="font-size:85.3333px;line-height:1.25;font-family:sans-serif"
       x="548.89136"
       y="4165.7886"
       id="text13996"><tspan
         sodipodi:role="line"
         id="tspan13994"
         x="548.89136"
         y="4165.7886">curve: Pt_(111)_0.1M_KClO4_0.001M_HClO4</tspan></text>
    <path
       style="fill:none;stroke:#000000;stroke-width:1px;stroke-linecap:butt;stroke-linejoin:miter;stroke-opacity:1"
       d="m 850.87159,4836.2595 v -89.2627 l 5.15596,-48.4726 13.9734,-20.4044 25.55561,-8.9282 29.29179,-6.3799 24.21056,-17.8375 14.04817,-28.068 11.50744,-57.3818 8.89221,-49.7372 5.08124,-21.6881 5.15595,16.5917 3.81091,30.5973 6.35157,49.7372 11.5074,43.3572 12.7779,26.7845 21.6699,12.7599 61.199,21.6692 31.9071,12.7599 36.9137,19.121 17.8591,5.1152 23.0149,3.813 8.8921,6.3799 17.8591,21.6881 17.859,24.2173 40.7993,29.3327 68.8956,8.9281 h 65.0099 l 108.4245,-6.3798 75.2471,-8.9282 47.1508,-7.6446 42.0697,-20.4046 49.7661,-43.3572 39.529,-33.1645 24.2106,-22.9526 26.8259,-15.3081 40.7993,-8.9093 29.2918,-12.76 14.0482,-6.3799 h 19.1293 l 14.0482,-22.9527 6.3514,12.7599 10.1625,25.5009 14.0482,31.8809 35.718,38.2609 24.2106,16.5727 43.4145,16.5728 17.8592,-2.5482 20.3996,-10.1929 20.3997,-17.8562 12.703,-2.5482 v 79.0698 l -8.8922,49.7183 -12.7777,14.0434 -31.8324,12.7411 -42.1444,10.2117 -29.2918,12.741 -25.5556,24.2363 -31.8325,49.7372 -19.1293,48.4536 -6.4262,21.6881 -13.9735,-22.9528 -16.5886,-5.0964 -17.859,8.9093 -26.7513,16.5917 -34.4477,11.4763 -36.9885,-5.0964 -24.2105,-16.5917 -34.4478,-51.0018 -40.7993,-48.4725 -51.0365,-26.7656 -45.8806,-12.7599 -23.0149,-5.0964 -36.9136,-14.0246 -77.8625,-11.4764 -71.3614,-11.4952 -51.0365,1.2836 -56.1177,7.6446 -31.9072,19.1398 -30.5621,21.6692 -21.67,35.7127 -10.2372,12.7598 h -26.7511 l -29.3666,11.4764 -72.6317,29.3327 -56.1177,25.5009 -19.1294,19.1209 -15.31843,51.0208 -4.67377,42.2554 -3.59298,34.2619 -7.23878,9.9169 -6.28775,-17.1243 -7.23878,-48.7034 -11.72999,-52.2938 -16.22122,-25.2527 -19.81419,-11.7187 -27.95121,0.8943 -18.07055,8.115 -13.5265,17.1376 -8.98244,10.8245 v -80.2559 z"
       id="path21391"
       sodipodi:nodetypes="cccccccccccccccccccccccccccccccccccccccccccccccccccccccccccccccccccccccccccccccccccccccccccccccccccccc" />
  </g>
  <text
     xml:space="preserve"
     style="font-size:85.3333px;line-height:1.25;font-family:sans-serif"
     x="906.05859"
     y="5339.3735"
     id="text23029"><tspan
       sodipodi:role="line"
       id="tspan23027"
       x="906.05859"
       y="5339.3735">scan rate: 20 mV / s </tspan></text>
  <text
     xml:space="preserve"
     style="font-style:normal;font-variant:normal;font-weight:normal;font-stretch:normal;font-size:80px;line-height:1.25;font-family:sans-serif;-inkscape-font-specification:sans-serif;letter-spacing:0px;word-spacing:0px;fill:#000000;fill-opacity:1;stroke:none"
     x="-1446.1195"
     y="6123.1489"
     id="text837"><tspan
       sodipodi:role="line"
       id="tspan835"
       x="-1446.1195"
       y="6123.1489">comment: The scan rate is not given in the publication. It was manually determined from the charge integration as 20 mV / s.</tspan></text>
</svg>
