<?xml version="1.0" encoding="UTF-8" standalone="no"?>
<svg
   xmlns:dc="http://purl.org/dc/elements/1.1/"
   xmlns:cc="http://creativecommons.org/ns#"
   xmlns:rdf="http://www.w3.org/1999/02/22-rdf-syntax-ns#"
   xmlns:svg="http://www.w3.org/2000/svg"
   xmlns="http://www.w3.org/2000/svg"
   xmlns:xlink="http://www.w3.org/1999/xlink"
   xmlns:sodipodi="http://sodipodi.sourceforge.net/DTD/sodipodi-0.dtd"
   xmlns:inkscape="http://www.inkscape.org/namespaces/inkscape"
   height="6601px"
   version="1.1"
   width="5100px"
   id="svg53"
   sodipodi:docname="li_2000_chronocoulometric_95_p1_f1_dash-dotted.svg"
   inkscape:version="0.92.2 (5c3e80d, 2017-08-06)">
  <metadata
     id="metadata28">
    <rdf:RDF>
      <cc:Work
         rdf:about="">
        <dc:format>image/svg+xml</dc:format>
        <dc:type
           rdf:resource="http://purl.org/dc/dcmitype/StillImage" />
      </cc:Work>
    </rdf:RDF>
  </metadata>
  <sodipodi:namedview
     id="namedview55"
     pagecolor="#ffffff"
     bordercolor="#666666"
     borderopacity="1.0"
     inkscape:pageshadow="2"
     inkscape:pageopacity="0.0"
     inkscape:pagecheckerboard="0"
     showgrid="false"
     inkscape:zoom="0.13861478"
     inkscape:cx="35.323503"
     inkscape:cy="2426.8314"
     inkscape:window-width="1920"
     inkscape:window-height="1017"
     inkscape:window-x="-8"
     inkscape:window-y="32"
     inkscape:window-maximized="1"
     inkscape:current-layer="svg53" />
  <defs
     id="defs49" />
  <image
     sodipodi:absref="F:\Github\echemdb\website\literature\li_2000_chronocoulometric_95\Li_2000_Chronocoulometric_95_p1.png"
     xlink:href="Li_2000_Chronocoulometric_95_p1.png"
     id="image51"
     y="0"
     x="0"
     width="5100px"
     sodipodi:insensitive="true"
     height="6601px" />
  <g
     id="g12701">
    <path
       style="fill:none;stroke:#000000;stroke-width:1px;stroke-linecap:butt;stroke-linejoin:miter;stroke-opacity:1"
       d="M 633.03063,4354.5067 434.11533,4331.554"
       id="path170" />
    <text
       xml:space="preserve"
       style="font-size:85.3333px;line-height:1.25;font-family:sans-serif"
       x="51.528511"
       y="4270.3218"
       id="text4030"><tspan
         sodipodi:role="line"
         id="tspan4028"
         x="51.528511"
         y="4270.3218">y2: 40 uA / cm2</tspan></text>
  </g>
  <g
     id="g12706">
    <path
       style="fill:none;stroke:#000000;stroke-width:1px;stroke-linecap:butt;stroke-linejoin:miter;stroke-opacity:1"
       d="m 622.86817,5310.9708 -257.64833,-56.136"
       id="path172" />
    <text
       xml:space="preserve"
       style="font-size:85.3333px;line-height:1.25;font-family:sans-serif"
       x="74.543465"
       y="5224.2188"
       id="text6794"><tspan
         sodipodi:role="line"
         id="tspan6792"
         x="74.543465"
         y="5224.2188">y1: -40 uA / cm2</tspan></text>
  </g>
  <g
     id="g12711">
    <path
       style="fill:none;stroke:#000000;stroke-width:1px;stroke-linecap:butt;stroke-linejoin:miter;stroke-opacity:1"
       d="M 780.98424,5428.2638 559.05391,5553.2579"
       id="path174" />
    <text
       xml:space="preserve"
       style="font-size:85.3333px;line-height:1.25;font-family:sans-serif"
       x="273.45877"
       y="5606.8271"
       id="text9468"><tspan
         sodipodi:role="line"
         id="tspan9466"
         x="273.45877"
         y="5606.8271">x1: -400 mV vs SCE</tspan></text>
  </g>
  <g
     id="g12716">
    <path
       style="fill:none;stroke:#000000;stroke-width:1px;stroke-linecap:butt;stroke-linejoin:miter;stroke-opacity:1"
       d="m 2002.7217,5433.3602 196.3745,132.6576"
       id="path176" />
    <text
       xml:space="preserve"
       style="font-size:85.3333px;line-height:1.25;font-family:sans-serif"
       x="2076.6982"
       y="5611.9233"
       id="text11506"><tspan
         sodipodi:role="line"
         id="tspan11504"
         x="2076.6982"
         y="5611.9233">x2: 400 mV vs SCE</tspan></text>
  </g>
  <text
     xml:space="preserve"
     style="font-size:85.3333px;line-height:1.25;font-family:sans-serif"
     x="906.05859"
     y="5339.3735"
     id="text23029"><tspan
       sodipodi:role="line"
       id="tspan23027"
       x="906.05859"
       y="5339.3735">scan rate: 20 mV / s </tspan></text>
  <g
     id="g4106">
    <text
       xml:space="preserve"
       style="font-size:85.3333px;line-height:1.25;font-family:sans-serif"
       x="548.89136"
       y="4165.7886"
       id="text13996"><tspan
         sodipodi:role="line"
         id="tspan13994"
         x="548.89136"
         y="4165.7886">curve: Pt_(111)_0.1M_KClO4_0.001M_HClO4_0.001M_KCl</tspan></text>
    <path
       style="fill:none;stroke:#000000;stroke-width:1px;stroke-linecap:butt;stroke-linejoin:miter;stroke-opacity:1"
       d="m 850.90509,4860.4836 1.27033,-87.9791 1.27029,-70.1417 12.77781,-22.9527 17.85903,-7.6635 19.12937,-5.0964 15.24369,-12.7599 17.85904,-29.3327 14.04809,-48.4536 10.23719,-38.2609 5.08123,-20.4045 5.08124,19.1399 10.23718,45.9054 12.70308,42.0737 15.31844,22.9716 16.5887,2.5482 25.4809,-10.2117 17.8591,-19.1209 15.3184,-14.0246 14.0481,-6.38 11.4328,20.4046 8.9668,31.8808 14.0482,35.7126 33.1027,33.1456 33.1774,19.1399 35.7181,22.9527 31.9072,14.0245 33.1027,3.8318 33.1775,-1.2836 48.4958,-12.7599 49.6915,-7.6446 34.4478,-8.9281 h 61.1989 l 39.529,1.2835 58.6583,6.3611 57.3881,10.2117 73.9768,11.4763 49.7661,8.9282 36.9884,1.2835 20.3996,-5.1153 16.5889,6.38 22.9401,8.9282 34.4478,6.3799 40.7993,3.8318 54.8475,-1.2836 34.373,-7.6446 31.9071,-26.7845 11.5075,-49.7371 6.3515,-68.8582 5.0813,-57.4007 8.9669,-26.7845 7.6218,5.1153 6.3516,31.8809 6.4262,62.4782 v 29.3327 l 7.6219,43.3572 6.3516,16.5917 11.5075,10.1928 1.2702,49.7372 -2.5405,39.5254 -14.0482,16.5918 -20.3996,20.4044 -19.1294,33.1456 -16.5886,53.5689 -10.1625,44.6408 -6.4264,38.2419 -10.1624,8.9282 -7.6218,-52.2854 -3.8857,-77.7863 -2.5405,-54.8336 -8.8923,-19.1399 -14.0481,-6.361 h -17.859 l -45.8806,1.2646 -104.6136,16.5916 -38.2587,-1.2834 -70.0911,7.6446 -84.2139,16.5916 -70.0911,10.1928 -57.3881,6.38 -54.8474,1.2835 -42.0696,-5.1153 -51.0365,-8.9281 -49.7662,-12.7411 -39.529,-7.6634 h -21.67 l -35.718,6.3799 -38.2587,22.9527 -33.1775,17.8563 -29.2918,16.5728 -28.0215,28.068 -24.2853,25.501 -10.1624,29.3326 -15.3185,24.2363 -17.859,6.361 -17.859,-14.0245 -21.67,-17.8563 -22.9403,-5.0964 -15.31837,16.5728 -15.31842,44.6408 -5.08123,38.2608 -12.77781,19.1209 -6.35156,-22.9527 -12.7778,-54.8336 -12.70308,-29.3327 -19.12933,-17.8563 -12.7778,-5.0964 -24.2106,10.2117 -12.77781,19.121 z"
       id="path329"
       sodipodi:nodetypes="cccccccccccccccccccccccccccccccccccccccccccccccccccccccccccccccccccccccccccccccccccccccccccccccccccccccccccccc" />
  </g>
  <text
     xml:space="preserve"
     style="font-style:normal;font-variant:normal;font-weight:normal;font-stretch:normal;font-size:80px;line-height:1.25;font-family:sans-serif;-inkscape-font-specification:sans-serif;letter-spacing:0px;word-spacing:0px;fill:#000000;fill-opacity:1;stroke:none"
     x="432.85428"
     y="6132.0747"
     id="text837"><tspan
       sodipodi:role="line"
       id="tspan835"
       x="432.85428"
       y="6132.0747">comment: The scan rate is not given in the publication. It was manually determined from the charge integration as 20 mV / s.</tspan></text>
</svg>
