<?xml version="1.0" encoding="UTF-8" standalone="no"?>
<svg
   height="6601px"
   version="1.1"
   width="5100px"
   id="svg53"
   sodipodi:docname="Li_2000_Chronocoulometric_95_p1_dashed.svg"
   inkscape:version="1.1.1 (eb90963e84, 2021-10-02)"
   xmlns:inkscape="http://www.inkscape.org/namespaces/inkscape"
   xmlns:sodipodi="http://sodipodi.sourceforge.net/DTD/sodipodi-0.dtd"
   xmlns:xlink="http://www.w3.org/1999/xlink"
   xmlns="http://www.w3.org/2000/svg"
   xmlns:svg="http://www.w3.org/2000/svg">
  <sodipodi:namedview
     id="namedview55"
     pagecolor="#ffffff"
     bordercolor="#666666"
     borderopacity="1.0"
     inkscape:pageshadow="2"
     inkscape:pageopacity="0.0"
     inkscape:pagecheckerboard="0"
     showgrid="false"
     inkscape:zoom="0.39206181"
     inkscape:cx="1615.8166"
     inkscape:cy="4565.6066"
     inkscape:window-width="1920"
     inkscape:window-height="933"
     inkscape:window-x="1920"
     inkscape:window-y="0"
     inkscape:window-maximized="1"
     inkscape:current-layer="svg53" />
  <defs
     id="defs49" />
  <image
     height="6601px"
     sodipodi:insensitive="true"
     width="5100px"
     x="0"
     xlink:href="Li_2000_Chronocoulometric_95_p1.png"
     y="0"
     id="image51" />
  <g
     id="g12701">
    <path
       style="fill:none;stroke:#000000;stroke-width:1px;stroke-linecap:butt;stroke-linejoin:miter;stroke-opacity:1"
       d="M 633.03063,4354.5067 434.11533,4331.554"
       id="path170" />
    <text
       xml:space="preserve"
       style="font-size:85.3333px;line-height:1.25;font-family:sans-serif"
       x="51.528511"
       y="4270.3218"
       id="text4030"><tspan
         sodipodi:role="line"
         id="tspan4028"
         x="51.528511"
         y="4270.3218">y2: 40 uA/cm2</tspan></text>
  </g>
  <g
     id="g12706">
    <path
       style="fill:none;stroke:#000000;stroke-width:1px;stroke-linecap:butt;stroke-linejoin:miter;stroke-opacity:1"
       d="m 622.86817,5310.9708 -257.64833,-56.136"
       id="path172" />
    <text
       xml:space="preserve"
       style="font-size:85.3333px;line-height:1.25;font-family:sans-serif"
       x="74.543465"
       y="5224.2188"
       id="text6794"><tspan
         sodipodi:role="line"
         id="tspan6792"
         x="74.543465"
         y="5224.2188">y1: -40 uA/cm2</tspan></text>
  </g>
  <g
     id="g12711">
    <path
       style="fill:none;stroke:#000000;stroke-width:1px;stroke-linecap:butt;stroke-linejoin:miter;stroke-opacity:1"
       d="M 780.98424,5428.2638 559.05391,5553.2579"
       id="path174" />
    <text
       xml:space="preserve"
       style="font-size:85.3333px;line-height:1.25;font-family:sans-serif"
       x="273.45877"
       y="5606.8271"
       id="text9468"><tspan
         sodipodi:role="line"
         id="tspan9466"
         x="273.45877"
         y="5606.8271">x1: -400 mV vs SCE</tspan></text>
  </g>
  <g
     id="g12716">
    <path
       style="fill:none;stroke:#000000;stroke-width:1px;stroke-linecap:butt;stroke-linejoin:miter;stroke-opacity:1"
       d="m 2002.7217,5433.3602 196.3745,132.6576"
       id="path176" />
    <text
       xml:space="preserve"
       style="font-size:85.3333px;line-height:1.25;font-family:sans-serif"
       x="2076.6982"
       y="5611.9233"
       id="text11506"><tspan
         sodipodi:role="line"
         id="tspan11504"
         x="2076.6982"
         y="5611.9233">x2: 400 mV vs SCE</tspan></text>
  </g>
  <text
     xml:space="preserve"
     style="font-size:85.3333px;line-height:1.25;font-family:sans-serif"
     x="906.05859"
     y="5339.3735"
     id="text23029"><tspan
       sodipodi:role="line"
       id="tspan23027"
       x="906.05859"
       y="5339.3735">scan rate: 20 mV/s </tspan></text>
  <g
     id="g33628">
    <text
       xml:space="preserve"
       style="font-size:85.3333px;line-height:1.25;font-family:sans-serif"
       x="548.89136"
       y="4165.7886"
       id="text13996"><tspan
         sodipodi:role="line"
         id="tspan13994"
         x="548.89136"
         y="4165.7886">curve: Pt_(111)_0.1M_KClO4_0.001M_HClO4_0.0001M_KCl</tspan></text>
    <path
       style="fill:none;stroke:#000000;stroke-width:1px;stroke-linecap:butt;stroke-linejoin:miter;stroke-opacity:1"
       d="m 848.3848,4838.8073 3.81092,-110.9508 5.08123,-39.5255 20.39964,-19.1209 30.63684,-3.8318 22.94027,-7.6635 28.0215,-26.7656 14.04813,-62.4971 8.96686,-59.93 h 6.35156 l 5.08123,36.9773 16.58872,80.3346 11.5075,22.9716 22.9403,16.5727 38.2587,11.4764 14.0481,-1.2836 29.2918,-17.8563 14.0481,-30.5973 12.7031,-15.3081 10.2372,17.8563 2.5406,38.2608 7.6965,39.5255 16.5141,39.5444 49.7662,38.2608 17.859,12.741 40.7993,14.0246 43.3399,6.3799 h 34.4478 l 71.4361,-16.5727 40.7993,-15.3081 68.8208,-24.2174 28.0963,-6.3799 42.0696,-2.5483 51.0365,2.5483 76.5174,3.8128 63.7395,1.2836 68.8955,3.8317 25.481,-8.9281 19.1293,-16.5917 8.8921,-34.4291 5.1561,-73.9546 5.0811,-107.1378 3.811,-80.3346 3.8108,-34.4284 2.6154,-10.2116 10.1625,42.0925 1.2703,45.9055 7.6965,84.1662 2.5407,53.569 15.2436,87.9791 21.7447,57.4007 33.1028,25.501 40.7993,6.3799 42.1443,-1.2835 22.9404,2.5482 h 22.9401 l -10.1625,34.4479 -24.2852,28.0492 -39.5289,-2.5482 -36.9885,10.1928 -47.1508,17.8562 -28.0962,39.5444 -20.3996,70.1229 -11.4328,68.877 -8.9669,80.3345 -6.3516,58.6737 -8.9669,66.3099 -6.3515,-53.5689 -3.811,-72.69 1.2704,-71.4063 -3.811,-79.0699 -1.2702,-58.6654 -12.7778,-19.1209 -33.1775,-10.2117 -90.4908,2.5482 -67.6252,5.1153 -68.8955,7.6446 h -49.6915 l -66.3549,-11.4763 -47.1508,-20.4046 -65.01,-20.4045 -48.4958,-15.3081 -51.0365,-2.5482 -43.34,10.2117 -30.5621,12.741 -36.9883,25.5198 -38.2587,38.242 -15.3185,62.4971 -12.7778,34.4291 -3.8109,21.688 -21.67,-39.5444 -21.6699,-24.2173 -39.529,-2.5671 -38.2587,21.688 -19.1293,26.7845 -17.85906,51.0019 -8.9669,45.9243 -8.89214,-21.6881 -14.04813,-63.7618 -26.75118,-31.8808 -36.9884,-7.6635 -31.90713,19.1399 -6.35154,10.1928 z"
       id="path33486"
       sodipodi:nodetypes="cccccccccccccccccccccccccccccccccccccccccccccccccccccccccccccccccccccccccccccccccccccccccccccccccccccccc" />
  </g>
</svg>
