<?xml version="1.0" encoding="UTF-8" standalone="no"?>
<svg
   xmlns:dc="http://purl.org/dc/elements/1.1/"
   xmlns:cc="http://creativecommons.org/ns#"
   xmlns:rdf="http://www.w3.org/1999/02/22-rdf-syntax-ns#"
   xmlns:svg="http://www.w3.org/2000/svg"
   xmlns="http://www.w3.org/2000/svg"
   xmlns:xlink="http://www.w3.org/1999/xlink"
   xmlns:sodipodi="http://sodipodi.sourceforge.net/DTD/sodipodi-0.dtd"
   xmlns:inkscape="http://www.inkscape.org/namespaces/inkscape"
   height="6726px"
   version="1.1"
   width="5042px"
   id="svg18141"
   sodipodi:docname="shi_1996_chloride_225_f1_solid.svg"
   inkscape:version="0.92.2 (5c3e80d, 2017-08-06)">
  <metadata
     id="metadata28">
    <rdf:RDF>
      <cc:Work
         rdf:about="">
        <dc:format>image/svg+xml</dc:format>
        <dc:type
           rdf:resource="http://purl.org/dc/dcmitype/StillImage" />
      </cc:Work>
    </rdf:RDF>
  </metadata>
  <sodipodi:namedview
     id="namedview18143"
     pagecolor="#ffffff"
     bordercolor="#666666"
     borderopacity="1.0"
     inkscape:pageshadow="2"
     inkscape:pageopacity="0.0"
     inkscape:pagecheckerboard="0"
     showgrid="false"
     inkscape:zoom="0.11195362"
     inkscape:cx="2411.1797"
     inkscape:cy="4092.8783"
     inkscape:window-width="1920"
     inkscape:window-height="1017"
     inkscape:window-x="-8"
     inkscape:window-y="32"
     inkscape:window-maximized="1"
     inkscape:current-layer="svg18141" />
  <defs
     id="defs18137" />
  <image
     sodipodi:absref="F:\Github\echemdb\website\literature\shi_1996_chloride_225\Shi_1996_Chloride_225_p1.png"
     xlink:href="Shi_1996_Chloride_225_p1.png"
     id="image18139"
     y="0"
     x="0"
     width="5042px"
     sodipodi:insensitive="true"
     height="6726px" />
  <g
     id="g27724"
     transform="translate(9.4716464)">
    <path
       style="fill:none;stroke:#000000;stroke-width:1px;stroke-linecap:butt;stroke-linejoin:miter;stroke-opacity:1"
       d="m 1732.0274,2445.7997 -915.91638,366.318"
       id="path19740" />
    <text
       xml:space="preserve"
       style="font-size:85.3333px;line-height:1.25;font-family:sans-serif"
       x="159.24829"
       y="2862.6128"
       id="text22146"><tspan
         sodipodi:role="line"
         id="tspan22144"
         x="159.24829"
         y="2862.6128">y2: 80 uA / cm2</tspan></text>
  </g>
  <g
     id="g27719"
     transform="translate(7.8930146,7.8930628)">
    <path
       style="fill:none;stroke:#000000;stroke-width:1px;stroke-linecap:butt;stroke-linejoin:miter;stroke-opacity:1"
       d="M 1725.7129,5452.1368 955.19041,5174.2613"
       id="path19738" />
    <text
       xml:space="preserve"
       style="font-size:85.3333px;line-height:1.25;font-family:sans-serif"
       x="405.67291"
       y="5136.3135"
       id="text23866"><tspan
         sodipodi:role="line"
         id="tspan23864"
         x="405.67291"
         y="5136.3135">y1: -80 uA / cm2</tspan></text>
  </g>
  <g
     id="g27709"
     transform="translate(-1.5785836,6.3245504)">
    <path
       style="fill:none;stroke:#000000;stroke-width:1px;stroke-linecap:butt;stroke-linejoin:miter;stroke-opacity:1"
       d="m 1902.517,5458.5118 -511.6309,239.9281"
       id="path19742" />
    <text
       xml:space="preserve"
       style="font-size:85.3333px;line-height:1.25;font-family:sans-serif"
       x="986.60059"
       y="5793.1562"
       id="text24992"><tspan
         sodipodi:role="line"
         id="tspan24990"
         x="986.60059"
         y="5793.1562">x1: -0.8 V vs SCE</tspan></text>
  </g>
  <g
     id="g27714"
     transform="translate(0,-3.1622752)">
    <path
       style="fill:none;stroke:#000000;stroke-width:1px;stroke-linecap:butt;stroke-linejoin:miter;stroke-opacity:1"
       d="m 3576.1651,5464.7859 536.8882,157.8608"
       id="path19744" />
    <text
       xml:space="preserve"
       style="font-size:85.3333px;line-height:1.25;font-family:sans-serif"
       x="4113.0532"
       y="5622.6465"
       id="text26304"><tspan
         sodipodi:role="line"
         id="tspan26302"
         x="4113.0532"
         y="5622.6465">x2: 1.2 V vs SCE</tspan></text>
  </g>
  <text
     xml:space="preserve"
     style="font-size:85.3333px;line-height:1.25;font-family:sans-serif"
     x="2092.0698"
     y="2407.9453"
     id="text33854"><tspan
       sodipodi:role="line"
       id="tspan33852"
       x="2092.0698"
       y="2407.9453">scan rate: 20 mV / s</tspan></text>
  <g
     id="g35642">
    <text
       xml:space="preserve"
       style="font-size:85.3333px;line-height:1.25;font-family:sans-serif"
       x="1365.7482"
       y="2300.4788"
       id="text29056"><tspan
         sodipodi:role="line"
         id="tspan29054"
         x="1365.7482"
         y="2300.4788">curve: Au(111)_0.1M_KClO4_0.001M_KCl</tspan></text>
    <path
       style="fill:none;stroke:#000000;stroke-width:1px;stroke-linecap:butt;stroke-linejoin:miter;stroke-opacity:1"
       d="m 1904.6619,3984.2181 v -28.4099 c 0,0 40.9502,5.549 61.5656,6.2992 17.8867,0.6509 35.7842,-0.9679 53.6727,-1.5684 41.59,-1.3962 83.151,-3.6546 124.7505,-4.7308 38.4171,-0.9939 76.8593,-0.6975 115.2788,-1.5938 32.1069,-0.7491 64.1892,-2.3695 96.2951,-3.1623 31.5804,-0.7799 63.1708,-1.0798 94.757,-1.5685 36.3209,-0.562 72.706,0.6334 108.9644,-1.5684 29.582,-1.7963 59.1689,-4.6135 88.402,-9.4869 11.7101,-1.9522 24.5475,-1.7884 34.7294,-7.893 8.9581,-5.3709 14.798,-14.9423 20.5219,-23.6791 7.3553,-11.2268 13.4074,-23.5033 17.3646,-36.3283 4.0802,-13.2237 2.773,-27.6556 6.3145,-41.0336 3.0286,-11.4404 0.8684,-34.0575 12.6693,-33.166 12.3485,0.9328 5.3638,24.1803 7.8931,36.3029 3.2898,15.7675 0.6297,33.9205 9.4716,47.3836 4.5683,6.9559 12.6988,11.3798 20.5219,14.2176 10.9269,3.9636 23.1109,2.7939 34.7294,3.137 16.8393,0.4972 33.8187,0.6733 50.5155,-1.5686 13.4094,-1.8005 26.6483,-5.1526 39.4651,-9.4868 4.9191,-1.6635 9.1322,-5.4083 14.248,-6.2992 14.5523,-2.5344 29.4438,3.8081 44.201,3.1622 13.3102,-0.5826 26.3428,-4.0218 39.4652,-6.3245 11.0803,-1.9444 21.9033,-6.5419 33.1508,-6.3246 14.0393,0.2712 27.9804,4.3365 41.0437,9.4869 10.7567,4.241 18.8088,14.5824 30.0341,17.3546 12.7815,3.1565 26.3261,-0.7358 39.4652,-1.5686 12.1242,-0.7685 24.4122,-0.6973 36.308,-3.1622 8.1469,-1.6881 15.5021,-6.357 23.6791,-7.8931 10.3559,-1.9455 21.2668,0.6291 31.5721,-1.5685 9.9521,-2.1223 20.024,-5.3579 28.4554,-11.0553 9.5651,-6.4635 16.8623,-15.9562 23.6791,-25.2729 8.9031,-12.1681 16.8282,-25.3397 22.1005,-39.4652 5.4503,-14.6024 6.1572,-30.5599 9.4718,-45.7897 4.0193,-18.468 8.4183,-36.8513 12.6288,-55.2766 4.2087,-18.4173 9.0493,-36.7014 12.6289,-55.2512 1.9185,-9.9416 3.0983,-20.0119 4.7357,-30.0037 8.635,-52.6939 18.5582,-105.1752 26.8344,-157.9266 12.6107,-80.379 25.361,-160.7813 34.7698,-241.5977 6.1708,-53.0041 9.7673,-106.2776 14.2075,-159.4547 3.3825,-40.5095 6.4244,-81.047 9.4716,-121.5831 2.7297,-36.3125 5.4698,-72.6251 7.8932,-108.9593 2.8776,-43.143 4.3896,-86.3795 7.8929,-129.4762 2.5286,-31.1068 4.2687,-62.3753 9.4716,-93.148 1.8945,-11.205 7.8932,-33.1659 7.8932,-33.1659 0,0 7.4137,33.511 9.4716,50.5205 3.4197,28.2644 3.9463,56.8206 4.7359,85.2802 0.8756,31.56 -0.8637,63.1561 0,94.7165 1.0528,38.4712 5.2615,76.8127 6.3143,115.2839 0.8351,30.515 -1.0156,61.0698 0,91.5794 1.3162,39.5393 5.3688,78.9403 7.893,118.4209 1.6484,25.7829 0.8785,51.8159 4.7359,77.3619 2.9919,19.8142 6.0002,40.1325 14.2075,58.4135 6.8169,15.1841 18.5763,27.6341 28.415,41.059 15.7498,21.4908 32.3561,42.3455 48.9773,63.1697 11.8936,14.9012 21.4046,32.3048 36.3079,44.1959 6.4388,5.1374 14.3099,8.3801 22.1005,11.0553 5.0757,1.7429 11.7849,-0.4141 15.7861,3.1623 10.298,9.2047 10.4986,25.8183 12.6289,39.4652 1.787,11.4479 0.1034,23.1736 0,34.7597 -0.2631,29.476 0.1283,58.9896 -1.5787,88.4173 -1.868,32.2041 -5.1662,64.3405 -9.4716,96.3102 -2.495,18.5268 -6.4839,36.8228 -9.4716,55.2766 -5.0211,31.0128 -6.2827,62.7722 -14.2075,93.1729 -3.403,13.0545 -7.5955,26.1373 -14.2075,37.8967 -9.186,16.3374 -20.9678,31.4967 -34.7293,44.2213 -12.5447,11.5994 -27.0148,21.5504 -42.6629,28.4098 -18.3522,8.0448 -38.7056,10.5684 -58.4085,14.2177 -20.3439,3.768 -41.2145,4.1655 -61.5658,7.893 -24.4946,4.4864 -49.6541,7.8403 -72.6564,17.3799 -14.8372,6.1533 -28.9041,14.7296 -41.0439,25.2476 -9.3222,8.0768 -16.9298,18.111 -23.679,28.4351 -10.3021,15.7588 -18.1589,33.0826 -25.2578,50.5205 -10.4188,25.5929 -19.1379,52.0095 -25.2577,78.9557 -6.8247,30.0501 -8.2023,61.0837 -12.6289,91.5795 -7.0359,48.472 -14.5572,96.873 -22.1409,145.2623 -12.2992,78.4768 -37.8866,235.2733 -37.8866,235.2733 0,0 -16.4707,-72.7268 -25.2577,-108.9594 -9.5971,-39.5729 -18.0224,-79.5002 -29.9935,-118.4208 -10.8654,-35.3258 -17.6718,-73.2625 -37.8866,-104.2033 -17.5158,-26.8097 -40.5705,-52.5955 -69.4992,-66.332 -7.6648,-3.6395 -16.8312,-4.1558 -25.2578,-3.1622 -8.9316,1.0532 -9.5473,6.1713 -15.7861,12.6491 -10.3899,10.7879 -19.1093,25.2018 -23.6791,39.4652 -8.7378,27.2726 -18.4229,54.3073 -25.2577,82.1179 -8.9432,36.3895 -14.1792,73.5963 -20.5219,110.5279 -6.8538,39.9076 -11.7264,80.1458 -18.9433,119.9893 -4.6913,25.9 -11.0249,51.4822 -15.8265,77.3619 -3.5043,18.8873 1.9404,41.3929 -9.4717,56.8451 -3.4951,4.7324 0,0 -15.786,7.893 0,0 -8.9307,-45.1608 -12.6289,-67.875 -7.943,-48.7853 -14.9409,-97.7445 -20.5219,-146.8561 -3.4008,-29.9262 -3.0773,-60.2797 -7.8931,-90.011 -5.4498,-33.6455 -15.705,-66.3345 -23.6791,-99.4726 -9.3763,-38.9654 -12.3245,-80.1212 -28.4149,-116.827 -2.2863,-5.2155 -3.7776,-14.141 -9.4717,-14.2176 -10.9499,-0.1473 -14.6185,16.7805 -18.9433,26.8413 -6.3578,14.7901 -6.0897,31.6188 -9.4716,47.3583 -6.9218,32.2138 -13.5992,64.513 -22.141,96.3356 -3.71,13.8217 1.6545,40.1448 -12.6289,41.0336 -11.5182,0.7167 -13.5495,-20.0504 -14.2075,-31.5721 -6.3191,-110.6512 -7.4707,-188.5429 -14.2074,-282.6315 -1.6234,-22.6731 4.1296,-47.7106 -6.3144,-67.9004 -4.4585,-8.6189 -14.2291,-13.2734 -22.1005,-18.9483 -9.9562,-7.1779 -19.9154,-15.1054 -31.5722,-18.9484 -15.5643,-5.1312 -32.5788,-3.734 -48.9368,-4.7307 -41.5199,-2.5299 -83.1927,-1.361 -124.7505,-3.1623 -34.2489,-1.4845 -68.4508,-3.9326 -102.65,-6.2993 -41.0672,-2.8419 -81.9964,-7.9045 -123.1314,-9.4868 -18.417,-0.7084 -36.8612,0 -55.2918,0 -35.7818,0 -71.5635,0 -107.3453,0 -24.2188,0 -48.4519,-0.8324 -72.6564,0 -15.2863,0.5257 -45.7776,3.1525 -45.7776,3.1525 z"
       id="path34930"
       sodipodi:nodetypes="ccssssssssssssssssssssssssssssssssssssssssssscssssssssssssssssssssssssssssssscsssssssssssscssssssssssssssssssssssc" />
  </g>
  <text
     xml:space="preserve"
     style="font-style:normal;font-variant:normal;font-weight:normal;font-stretch:normal;font-size:80px;line-height:1.25;font-family:sans-serif;-inkscape-font-specification:sans-serif;letter-spacing:0px;word-spacing:0px;fill:#000000;fill-opacity:1;stroke:none"
     x="-6.8056874"
     y="441.88718"
     id="text837"><tspan
       sodipodi:role="line"
       id="tspan835"
       x="-6.8056874"
       y="441.88718">comment: Contains differential capacitance data.</tspan></text>
</svg>
