<?xml version="1.0" encoding="UTF-8" standalone="no"?>
<svg
   xmlns:dc="http://purl.org/dc/elements/1.1/"
   xmlns:cc="http://creativecommons.org/ns#"
   xmlns:rdf="http://www.w3.org/1999/02/22-rdf-syntax-ns#"
   xmlns:svg="http://www.w3.org/2000/svg"
   xmlns="http://www.w3.org/2000/svg"
   xmlns:xlink="http://www.w3.org/1999/xlink"
   xmlns:sodipodi="http://sodipodi.sourceforge.net/DTD/sodipodi-0.dtd"
   xmlns:inkscape="http://www.inkscape.org/namespaces/inkscape"
   height="6726px"
   version="1.1"
   width="5042px"
   id="svg18141"
   sodipodi:docname="shi_1996_chloride_225_p1_f1_dotted.svg"
   inkscape:version="0.92.2 (5c3e80d, 2017-08-06)">
  <metadata
     id="metadata28">
    <rdf:RDF>
      <cc:Work
         rdf:about="">
        <dc:format>image/svg+xml</dc:format>
        <dc:type
           rdf:resource="http://purl.org/dc/dcmitype/StillImage" />
      </cc:Work>
    </rdf:RDF>
  </metadata>
  <sodipodi:namedview
     id="namedview18143"
     pagecolor="#ffffff"
     bordercolor="#666666"
     borderopacity="1.0"
     inkscape:pageshadow="2"
     inkscape:pageopacity="0.0"
     inkscape:pagecheckerboard="0"
     showgrid="false"
     inkscape:zoom="0.15832632"
     inkscape:cx="1888.5047"
     inkscape:cy="4563.3601"
     inkscape:window-width="1920"
     inkscape:window-height="1017"
     inkscape:window-x="-8"
     inkscape:window-y="32"
     inkscape:window-maximized="1"
     inkscape:current-layer="svg18141" />
  <defs
     id="defs18137" />
  <image
     sodipodi:absref="F:\Github\echemdb\website\literature\shi_1996_chloride_225\Shi_1996_Chloride_225_p1.png"
     xlink:href="Shi_1996_Chloride_225_p1.png"
     id="image18139"
     y="0"
     x="0"
     width="5042px"
     sodipodi:insensitive="true"
     height="6726px" />
  <g
     id="g27724"
     transform="translate(9.4716464)">
    <path
       style="fill:none;stroke:#000000;stroke-width:1px;stroke-linecap:butt;stroke-linejoin:miter;stroke-opacity:1"
       d="m 1732.0274,2445.7997 -915.91638,366.318"
       id="path19740" />
    <text
       xml:space="preserve"
       style="font-size:85.3333px;line-height:1.25;font-family:sans-serif"
       x="159.24829"
       y="2862.6128"
       id="text22146"><tspan
         sodipodi:role="line"
         id="tspan22144"
         x="159.24829"
         y="2862.6128">y2: 80 uA / cm2</tspan></text>
  </g>
  <g
     id="g27719"
     transform="translate(7.8930146,7.8930628)">
    <path
       style="fill:none;stroke:#000000;stroke-width:1px;stroke-linecap:butt;stroke-linejoin:miter;stroke-opacity:1"
       d="M 1725.7129,5452.1368 955.19041,5174.2613"
       id="path19738" />
    <text
       xml:space="preserve"
       style="font-size:85.3333px;line-height:1.25;font-family:sans-serif"
       x="405.67291"
       y="5136.3135"
       id="text23866"><tspan
         sodipodi:role="line"
         id="tspan23864"
         x="405.67291"
         y="5136.3135">y1: -80 uA / cm2</tspan></text>
  </g>
  <g
     id="g27709"
     transform="translate(-1.5785836,6.3245504)">
    <path
       style="fill:none;stroke:#000000;stroke-width:1px;stroke-linecap:butt;stroke-linejoin:miter;stroke-opacity:1"
       d="m 1902.517,5458.5118 -511.6309,239.9281"
       id="path19742" />
    <text
       xml:space="preserve"
       style="font-size:85.3333px;line-height:1.25;font-family:sans-serif"
       x="986.60059"
       y="5793.1562"
       id="text24992"><tspan
         sodipodi:role="line"
         id="tspan24990"
         x="986.60059"
         y="5793.1562">x1: -0.8 V vs SCE</tspan></text>
  </g>
  <g
     id="g27714"
     transform="translate(0,-3.1622752)">
    <path
       style="fill:none;stroke:#000000;stroke-width:1px;stroke-linecap:butt;stroke-linejoin:miter;stroke-opacity:1"
       d="m 3576.1651,5464.7859 536.8882,157.8608"
       id="path19744" />
    <text
       xml:space="preserve"
       style="font-size:85.3333px;line-height:1.25;font-family:sans-serif"
       x="4113.0532"
       y="5622.6465"
       id="text26304"><tspan
         sodipodi:role="line"
         id="tspan26302"
         x="4113.0532"
         y="5622.6465">x2: 1.2 V vs SCE</tspan></text>
  </g>
  <text
     xml:space="preserve"
     style="font-size:85.3333px;line-height:1.25;font-family:sans-serif"
     x="2092.0698"
     y="2407.9453"
     id="text33854"><tspan
       sodipodi:role="line"
       id="tspan33852"
       x="2092.0698"
       y="2407.9453">scan rate: 20 mV / s</tspan></text>
  <g
     id="g37982">
    <text
       xml:space="preserve"
       style="font-size:85.3333px;line-height:1.25;font-family:sans-serif"
       x="1365.7482"
       y="2300.4788"
       id="text29056"><tspan
         sodipodi:role="line"
         id="tspan29054"
         x="1365.7482"
         y="2300.4788">curve: Au(111)_0.1M_KClO4</tspan></text>
    <path
       style="fill:none;stroke:#000000;stroke-width:1px;stroke-linecap:butt;stroke-linejoin:miter;stroke-opacity:1"
       d="m 1906.2495,3971.5748 c -5.1312,-4.007 -8.8182,-13.8769 -4.7358,-18.9483 0,0 35.7743,1.4714 53.6727,1.5937 33.1677,0.2267 66.327,-1.1712 99.4928,-1.5937 55.2627,-0.704 110.536,-0.5692 165.7942,-1.5685 39.4728,-0.7138 78.9198,-2.6352 118.3956,-3.1623 32.109,-0.4287 64.2245,0.2216 96.3356,0 37.8893,-0.2614 75.8051,0.072 113.6598,-1.5685 50.6156,-2.1931 100.9986,-8.3004 151.5868,-11.0554 14.7349,-0.8024 29.8914,1.8465 44.2415,-1.5937 15.796,-3.7868 30.7745,-11.3746 44.201,-20.5168 12.6135,-8.5886 20.7675,-22.6548 33.1507,-31.5722 8.2149,-5.9157 16.7416,-13.4572 26.8363,-14.2176 11.1191,-0.8376 20.8325,8.0562 31.5722,11.0553 9.8412,2.7482 19.8731,4.9181 29.9935,6.3246 15.1634,2.1073 30.5359,2.2632 45.8201,3.137 11.5698,0.6614 23.2416,0.068 34.7295,1.5937 9.6171,1.277 18.7537,5.4143 28.4148,6.2993 14.6815,1.3448 29.4602,-1.8149 44.2011,-1.5685 15.3076,0.2559 30.8894,6.5478 45.8201,3.1622 13.5611,-3.0751 24.8888,-12.6071 36.3079,-20.5421 10.7318,-7.4574 22.1598,-14.7874 29.9936,-25.2476 8.6153,-11.5037 12.736,-25.8588 17.3647,-39.4652 11.3469,-33.3551 17.3768,-68.2952 25.2577,-102.6348 7.3441,-32.0004 11.2284,-64.8459 20.5219,-96.3355 3.3463,-11.3383 7.4055,-22.5354 12.6288,-33.1407 3.5514,-7.2107 4.6254,-21.2851 12.6289,-20.5421 26.384,2.4492 20.2164,49.0409 28.4555,74.2249 5.5961,17.1051 7.4587,35.405 14.2075,52.089 4.5067,11.1412 8.0427,24.012 17.3645,31.5975 5.5503,4.5164 13.6108,8.1535 20.522,6.2992 9.7061,-2.6042 14.6623,-13.9211 20.5219,-22.0853 8.3763,-11.6707 15.742,-24.3498 20.522,-37.8967 6.7676,-19.1798 7.2146,-40.0335 11.0502,-60.0073 5.0615,-26.3579 11.1276,-52.5236 15.786,-78.9557 6.6539,-37.7543 10.586,-75.958 17.3647,-113.6901 5.5128,-30.6856 11.5503,-61.3044 18.9434,-91.592 4.1491,-16.998 7.4112,-34.4144 14.2478,-50.5205 2.8569,-6.7305 4.3502,-16.0211 11.0504,-18.9484 4.4459,-1.9424 10.7092,-0.1996 14.2073,3.1623 13.3461,12.8263 9.5953,35.7563 14.2075,53.6828 9.7331,37.8304 18.7603,75.8396 28.415,113.6901 9.8121,38.4674 15.483,78.3064 29.9936,115.2586 5.6812,14.4676 13.1931,28.3215 22.1005,41.059 7.2617,10.3842 13.509,23.6632 25.2577,28.4099 6.3735,2.575 14.3747,1.4257 20.5623,-1.5685 8.3788,-4.0546 13.8599,-12.7193 18.9434,-20.5168 7.2107,-11.0604 9.6976,-24.6126 15.7861,-36.3283 5.1181,-9.8483 6.6604,-31.3432 17.3646,-28.4099 0,0 3.0566,76.8639 1.5786,115.2586 -1.3416,34.8518 -4.6248,69.6641 -9.4716,104.2033 -4.6905,33.4259 -11.0374,66.6581 -18.9434,99.4726 -5.2665,21.8588 -6.6487,45.9129 -18.9432,64.7381 -9.4017,14.3958 -25.2384,23.5703 -39.5057,33.1659 -17.7751,11.9548 -36.2637,24.0115 -56.8299,30.0036 -24.8366,7.2363 -51.5369,4.6216 -77.3517,6.2993 -32.6078,2.1191 -65.8151,-1.3595 -97.9143,4.7561 -25.6626,4.8893 -51.1236,12.9916 -74.1945,25.2476 -16.9258,8.9915 -33.3981,20.139 -45.82,34.7344 -12.3637,14.5271 -19.3225,33.0119 -26.8364,50.5458 -12.4574,29.0696 -21.7852,59.471 -29.9935,90.0137 -8.787,32.6957 -15.0799,66.057 -20.5219,99.4726 -2.1297,13.0772 -0.704,26.8441 -4.7358,39.4652 -2.0077,6.2848 -4.9029,12.6199 -9.4717,17.3798 -4.2482,4.4259 -9.9839,11.4541 -15.7861,9.4615 -16.5478,-5.683 -12.5329,-32.6721 -18.9432,-48.952 -9.3456,-23.7345 -16.4846,-48.5126 -28.4555,-71.0374 -8.3587,-15.728 -18.9769,-30.2258 -29.9935,-44.2212 -9.6777,-12.2944 -19.8298,-24.394 -31.5722,-34.7345 -9.6424,-8.4911 -19.5268,-17.64 -31.5721,-22.1105 -9.9158,-3.6802 -21.6668,-6.8705 -31.5722,-3.1623 -11.5115,4.3095 -18.5896,16.5409 -25.2577,26.8667 -8.9608,13.876 -14.0429,30.0155 -18.9433,45.7897 -7.5027,24.151 -11.13,49.35 -15.8266,74.1996 -9.609,50.8413 -18.9594,101.7987 -25.2577,153.1553 -6.3634,51.8869 -8.1933,104.2305 -12.6289,156.3177 -3.0042,35.279 -6.9882,70.4775 -9.4716,105.797 -7.9477,113.0352 -10.0407,226.4217 -17.3647,339.499 -3.4804,53.735 -7.316,107.4635 -12.6288,161.0483 -5.2306,52.7559 -18.9433,157.9114 -18.9433,157.9114 0,0 -13.2256,-118.8147 -17.3648,-178.4282 -3.5031,-50.4513 -4.4006,-101.0503 -6.3144,-151.5868 -1.7536,-46.3063 -3.3207,-92.6199 -4.7358,-138.9377 -1.7848,-58.4161 -1.9766,-116.8878 -4.7358,-175.266 -1.8431,-38.996 -4.6976,-77.9438 -7.8931,-116.8524 -1.3419,-16.3385 -0.7834,-33.0421 -4.7358,-48.952 -2.3327,-9.3903 -2.1385,-23.0732 -11.0502,-26.8414 -5.2326,-2.2126 -11.7336,2.3847 -15.8266,6.3246 -7.4664,7.1871 -2.7477,25.2852 -12.6289,28.4099 -5.8493,1.8497 -12.4262,-4.3286 -15.786,-9.4616 -9.0104,-13.7659 -4.8315,-32.5664 -6.3144,-48.952 -7.2684,-80.3143 -9.9035,-161.0013 -12.6289,-241.5978 -2.3127,-68.3933 10.6367,-138.2451 -3.1572,-205.2729 -1.9503,-9.4771 -6.8004,-18.149 -11.0503,-26.8414 -3.7281,-7.6251 -5.4825,-17.5312 -12.6288,-22.1106 -15.1219,-9.6902 -35.8623,-2.4159 -53.6728,-4.7308 -15.369,-1.9976 -30.3223,-7.7528 -45.82,-7.893 -20.762,-0.1879 -40.8142,8.7769 -61.5658,9.4615 -24.283,0.8011 -48.3811,-4.5728 -72.6159,-6.2993 -28.4006,-2.0233 -56.8237,-3.963 -85.2853,-4.756 -27.8779,-0.7767 -55.7781,-0.1804 -83.6662,0 -41.0599,0.2656 -82.1145,1.0701 -123.1719,1.5938 -41.5834,0.5305 -83.1645,1.309 -124.7504,1.5685 -34.7287,0.2167 -104.1882,-0.01 -104.1882,-0.01 z"
       id="path35908"
       sodipodi:nodetypes="ssssssssssssssssssssssssssssssssssssssssssssssssssssssssssssssssssssssssssssssscssssssssssssssssssssssss" />
  </g>
  <text
     xml:space="preserve"
     style="font-style:normal;font-variant:normal;font-weight:normal;font-stretch:normal;font-size:80px;line-height:1.25;font-family:sans-serif;-inkscape-font-specification:sans-serif;letter-spacing:0px;word-spacing:0px;fill:#000000;fill-opacity:1;stroke:none"
     x="1193.7371"
     y="504.67181"
     id="text837"><tspan
       sodipodi:role="line"
       id="tspan835"
       x="1193.7371"
       y="504.67181">comment: Contains differential capacitance data.</tspan></text>
</svg>
