<?xml version="1.0" encoding="UTF-8" standalone="no"?>
<svg
   xmlns:dc="http://purl.org/dc/elements/1.1/"
   xmlns:cc="http://creativecommons.org/ns#"
   xmlns:rdf="http://www.w3.org/1999/02/22-rdf-syntax-ns#"
   xmlns:svg="http://www.w3.org/2000/svg"
   xmlns="http://www.w3.org/2000/svg"
   xmlns:xlink="http://www.w3.org/1999/xlink"
   xmlns:sodipodi="http://sodipodi.sourceforge.net/DTD/sodipodi-0.dtd"
   xmlns:inkscape="http://www.inkscape.org/namespaces/inkscape"
   height="6601px"
   version="1.1"
   width="4800px"
   id="svg6"
   sodipodi:docname="nishihara_1994_underpotential_75_p2_f2b.svg"
   inkscape:version="1.0.2-2 (e86c870879, 2021-01-15)">
  <metadata
     id="metadata10">
    <rdf:RDF>
      <cc:Work
         rdf:about="">
        <dc:format>image/svg+xml</dc:format>
        <dc:type
           rdf:resource="http://purl.org/dc/dcmitype/StillImage" />
      </cc:Work>
    </rdf:RDF>
  </metadata>
  <sodipodi:namedview
     pagecolor="#ffffff"
     bordercolor="#666666"
     borderopacity="1"
     objecttolerance="10"
     gridtolerance="10"
     guidetolerance="10"
     inkscape:pageopacity="0"
     inkscape:pageshadow="2"
     inkscape:window-width="1920"
     inkscape:window-height="991"
     id="namedview8"
     showgrid="false"
     inkscape:zoom="0.25147705"
     inkscape:cx="965.01143"
     inkscape:cy="4803.9236"
     inkscape:window-x="-9"
     inkscape:window-y="-9"
     inkscape:window-maximized="1"
     inkscape:current-layer="svg6"
     inkscape:document-rotation="0" />
  <defs
     id="defs2" />
  <image
     sodipodi:absref="C:\Users\tobia\ownCloud3\PPS\digitizer\push\nishihara_1994_underpotential_75\Nishihara_1994_underpotential_75_p2.png"
     xlink:href="Nishihara_1994_underpotential_75_p2.png"
     id="image4"
     y="0"
     x="0"
     width="4800px"
     sodipodi:insensitive="true"
     height="6601px" />
  <g
     id="g878">
    <text
       xml:space="preserve"
       style="font-style:italic;font-weight:bold;font-size:48px;line-height:1.25;font-family:sans-serif;-inkscape-font-specification:'sans-serif Bold Italic';letter-spacing:0px"
       x="497.06326"
       y="5960.7827"
       id="text841"><tspan
         sodipodi:role="line"
         id="tspan839"
         x="497.06326"
         y="5960.7827">j1: 0.0 V vs RHE</tspan></text>
    <path
       style="fill:none;stroke:#000000;stroke-width:1px;stroke-linecap:butt;stroke-linejoin:miter;stroke-opacity:1"
       d="m 514.21056,5698.8448 -22.14304,247.4397"
       id="path851" />
  </g>
  <g
     id="g883">
    <text
       xml:space="preserve"
       style="font-style:italic;font-weight:bold;font-size:48px;line-height:1.25;font-family:sans-serif;-inkscape-font-specification:'sans-serif Bold Italic';letter-spacing:0px"
       x="2002.1708"
       y="6036.3364"
       id="text837"><tspan
         sodipodi:role="line"
         id="tspan835"
         x="2002.1708"
         y="6036.3364">j2: 0.8 vs RHE</tspan></text>
    <path
       style="fill:none;stroke:#000000;stroke-width:1px;stroke-linecap:butt;stroke-linejoin:miter;stroke-opacity:1"
       d="m 2033.9962,5706.4016 -36.905,315.8018"
       id="path853" />
  </g>
  <g
     id="g868">
    <text
       xml:space="preserve"
       style="font-style:italic;font-weight:bold;font-size:48px;line-height:1.25;font-family:sans-serif;-inkscape-font-specification:'sans-serif Bold Italic';letter-spacing:0px"
       x="592.68207"
       y="4705.6333"
       id="text849"><tspan
         sodipodi:role="line"
         id="tspan847"
         x="592.68207"
         y="4705.6333">j2: 35.6 nA / cm2</tspan></text>
    <path
       style="fill:none;stroke:#000000;stroke-width:1px;stroke-linecap:butt;stroke-linejoin:miter;stroke-opacity:1"
       d="m 584.85739,4692.2152 373.85336,211.4381"
       id="path861" />
  </g>
  <g
     id="g873">
    <text
       xml:space="preserve"
       style="font-style:italic;font-weight:bold;font-size:48px;line-height:1.25;font-family:sans-serif;-inkscape-font-specification:'sans-serif Bold Italic';letter-spacing:0px"
       x="538.81653"
       y="5225.1289"
       id="text845"><tspan
         sodipodi:role="line"
         id="tspan843"
         x="538.81653"
         y="5225.1289">j1: -64.4 nA / cm2</tspan></text>
    <path
       style="fill:none;stroke:#000000;stroke-width:1px;stroke-linecap:butt;stroke-linejoin:miter;stroke-opacity:1"
       d="m 958.47723,5052.6547 -428.6078,161.5388"
       id="path863" />
  </g>
  <text
     xml:space="preserve"
     style="font-style:italic;font-weight:bold;font-size:48px;line-height:1.25;font-family:sans-serif;-inkscape-font-specification:'sans-serif Bold Italic';letter-spacing:0px"
     x="1232.9166"
     y="3982.5586"
     id="text891"><tspan
       sodipodi:role="line"
       id="tspan889"
       x="1232.9166"
       y="3982.5586">scan rate: 20 mV / s</tspan><tspan
       sodipodi:role="line"
       x="1232.9166"
       y="4042.5586"
       id="tspan893" /></text>
  <g
     id="g874">
    <text
       xml:space="preserve"
       style="font-style:italic;font-weight:bold;font-size:48px;line-height:1.25;font-family:sans-serif;-inkscape-font-specification:'sans-serif Bold Italic';letter-spacing:0px"
       x="1322.2125"
       y="4901.252"
       id="text887"><tspan
         sodipodi:role="line"
         id="tspan885"
         x="1322.2125"
         y="4901.252">curve: solid)</tspan></text>
    <path
       style="fill:none;stroke:#15c700;stroke-width:1px;stroke-linecap:butt;stroke-linejoin:miter;stroke-opacity:1"
       d="m 991.39266,5552.9421 4.7221,-215.9739 c 1.7193,-78.6353 -0.65799,-158.1354 12.92364,-235.608 9.8297,-56.0706 30.0031,-109.9459 49.2093,-163.5338 10.7245,-29.9228 24.6533,-58.5988 36.7826,-87.9802 14.4058,-34.8959 26.6391,-102.5857 42.7475,-104.8804 6.6197,-0.943 29.4666,46.4497 53.1858,57.1623 27.9454,12.6214 62.0211,9.1265 91.9567,2.4853 13.3827,-2.9689 27.1785,-8.6101 36.7826,-18.3913 31.2576,-31.834 36.5177,-81.4994 57.6594,-120.7864 17.0471,-31.6781 32,-87.0747 55.6711,-92.4538 18.6414,-4.2362 29.4415,37.4171 47.718,31.8121 31.173,-9.5601 34.3531,-69.8292 45.7299,-106.8686 21.7055,-70.6668 23.0325,-215.3579 42.2503,-217.7137 11.6615,-1.4295 31.1622,118.5122 44.2387,175.9604 13.4465,59.0738 29.199,166.5021 49.2092,174.9662 23.9729,10.1403 51.0116,-14.2452 72.5713,-28.8296 29.8987,-20.2254 51.1088,-51.0939 74.5594,-78.536 16.3512,-19.1343 35.5327,-59.8226 45.9857,-59.8888 18.1408,-0.1149 26.016,127.9317 45.474,190.1193 15.6656,50.0669 23.4074,106.4751 57.1623,146.6337 17.6984,21.056 70.4926,38.7746 70.5829,42.7474 l 1.4912,65.6124 -57.6593,33.3032 c -32.6904,18.8815 -62.7487,87.3851 -83.0096,136.6924 -11.135,27.0982 -10.7974,57.8095 -20.3796,85.4949 -16.2942,47.078 -29.4888,127.3987 -62.6299,135.6983 -13.987,3.5028 -57.8795,-37.6924 -83.5067,-60.6417 -19.4613,-17.4277 -53.8988,-38.815 -78.0389,-25.8473 -20.868,11.21 -42.6291,82.5958 -59.6476,125.757 -22.8346,57.9117 -40.0867,178.0375 -56.6652,177.9486 -23.1774,-0.1243 -25.2663,-215.8939 -77.0448,-239.0874 -14.8748,-6.663 -30.9427,18.4904 -46.7239,14.4148 -41.6718,-10.7621 -74.4257,-115.09 -99.4127,-124.7628 -41.5755,-16.0944 -95.4989,-11.8445 -133.2129,11.9295 -36.8264,23.2145 -48.7785,104.8403 -66.6065,112.3363 -12.5327,5.2696 -29.0371,-8.378 -40.7592,-1.4912 -31.1144,18.2799 -44.0159,60.719 -49.2093,96.4302 z"
       id="path895"
       sodipodi:nodetypes="csaaasaaaassasssaasaascsaasssassssasasc" />
  </g>
  <text
     xml:space="preserve"
     style="font-style:italic;font-weight:bold;font-size:48px;line-height:1.25;font-family:sans-serif;-inkscape-font-specification:'sans-serif Bold Italic';letter-spacing:0px"
     x="1225.951"
     y="4065.8835"
     id="text855"><tspan
       sodipodi:role="line"
       id="tspan853"
       x="1225.951"
       y="4065.8835">comment: Imprecise y-axis labeling and broad CV line.</tspan></text>
  <text
     xml:space="preserve"
     style="font-style:italic;font-weight:bold;font-size:48px;line-height:1.25;font-family:sans-serif;-inkscape-font-specification:'sans-serif Bold Italic';letter-spacing:0px"
     x="1273.752"
     y="3798.7612"
     id="text878"><tspan
       sodipodi:role="line"
       id="tspan876"
       x="1273.752"
       y="3798.7612">tags: BCV</tspan></text>
  <text
     xml:space="preserve"
     style="font-style:italic;font-weight:bold;font-size:48px;line-height:1.25;font-family:sans-serif;-inkscape-font-specification:'sans-serif Bold Italic';letter-spacing:0px"
     x="1270.9401"
     y="3888.7393"
     id="text882"><tspan
       sodipodi:role="line"
       id="tspan880"
       x="1270.9401"
       y="3888.7393">Figure: 2b</tspan></text>
</svg>
