<?xml version="1.0" encoding="UTF-8" standalone="no"?>
<svg
   height="6601px"
   version="1.1"
   width="4800px"
   id="svg6"
   sodipodi:docname="nishihara_1994_underpotential_75_f2a_solid.svg"
   inkscape:version="1.2 (dc2aedaf03, 2022-05-15)"
   xmlns:inkscape="http://www.inkscape.org/namespaces/inkscape"
   xmlns:sodipodi="http://sodipodi.sourceforge.net/DTD/sodipodi-0.dtd"
   xmlns:xlink="http://www.w3.org/1999/xlink"
   xmlns="http://www.w3.org/2000/svg"
   xmlns:svg="http://www.w3.org/2000/svg"
   xmlns:rdf="http://www.w3.org/1999/02/22-rdf-syntax-ns#"
   xmlns:cc="http://creativecommons.org/ns#"
   xmlns:dc="http://purl.org/dc/elements/1.1/">
  <metadata
     id="metadata10">
    <rdf:RDF>
      <cc:Work
         rdf:about="">
        <dc:format>image/svg+xml</dc:format>
        <dc:type
           rdf:resource="http://purl.org/dc/dcmitype/StillImage" />
      </cc:Work>
    </rdf:RDF>
  </metadata>
  <sodipodi:namedview
     pagecolor="#ffffff"
     bordercolor="#666666"
     borderopacity="1"
     objecttolerance="10"
     gridtolerance="10"
     guidetolerance="10"
     inkscape:pageopacity="0"
     inkscape:pageshadow="2"
     inkscape:window-width="3456"
     inkscape:window-height="2036"
     id="namedview8"
     showgrid="false"
     inkscape:zoom="0.35564226"
     inkscape:cx="1272.346"
     inkscape:cy="4539.6743"
     inkscape:window-x="-12"
     inkscape:window-y="-12"
     inkscape:window-maximized="1"
     inkscape:current-layer="svg6"
     inkscape:document-rotation="0"
     inkscape:showpageshadow="2"
     inkscape:pagecheckerboard="0"
     inkscape:deskcolor="#d1d1d1" />
  <defs
     id="defs2" />
  <image
     xlink:href="nishihara_1994_underpotential_75_p2.png"
     height="6601px"
     sodipodi:insensitive="true"
     width="4800px"
     x="0"
     y="0"
     id="image4" />
  <g
     id="g878">
    <text
       xml:space="preserve"
       style="font-style:italic;font-weight:bold;font-size:48px;line-height:1.25;font-family:sans-serif;-inkscape-font-specification:'sans-serif Bold Italic';letter-spacing:0px"
       x="497.06326"
       y="5960.7827"
       id="text841"><tspan
         sodipodi:role="line"
         id="tspan839"
         x="497.06326"
         y="5960.7827">E1: 0.0 V vs RHE</tspan></text>
    <path
       style="fill:none;stroke:#000000;stroke-width:1px;stroke-linecap:butt;stroke-linejoin:miter;stroke-opacity:1"
       d="m 514.21056,5698.8448 -22.14304,247.4397"
       id="path851" />
  </g>
  <g
     id="g883">
    <text
       xml:space="preserve"
       style="font-style:italic;font-weight:bold;font-size:48px;line-height:1.25;font-family:sans-serif;-inkscape-font-specification:'sans-serif Bold Italic';letter-spacing:0px"
       x="2002.1708"
       y="6036.3364"
       id="text837"><tspan
         sodipodi:role="line"
         id="tspan835"
         x="2002.1708"
         y="6036.3364">E2: 0.8 V vs RHE</tspan></text>
    <path
       style="fill:none;stroke:#000000;stroke-width:1px;stroke-linecap:butt;stroke-linejoin:miter;stroke-opacity:1"
       d="m 2033.9962,5706.4016 -36.905,315.8018"
       id="path853" />
  </g>
  <text
     xml:space="preserve"
     style="font-style:italic;font-weight:bold;font-size:48px;line-height:1.25;font-family:sans-serif;-inkscape-font-specification:'sans-serif Bold Italic';letter-spacing:0px"
     x="1273.2954"
     y="2466.1914"
     id="text891"><tspan
       sodipodi:role="line"
       id="tspan889"
       x="1273.2954"
       y="2466.1914">scan rate: 20 mV / s</tspan><tspan
       sodipodi:role="line"
       x="1273.2954"
       y="2526.1914"
       id="tspan893" /></text>
  <text
     xml:space="preserve"
     style="font-style:italic;font-weight:bold;font-size:48px;line-height:1.25;font-family:sans-serif;-inkscape-font-specification:'sans-serif Bold Italic';letter-spacing:0px"
     x="1266.3298"
     y="2549.5164"
     id="text855"><tspan
       sodipodi:role="line"
       id="tspan853"
       x="1266.3298"
       y="2549.5164">comment: Imprecise y-axis labeling.</tspan></text>
  <text
     xml:space="preserve"
     style="font-style:italic;font-weight:bold;font-size:48px;line-height:1.25;font-family:sans-serif;-inkscape-font-specification:'sans-serif Bold Italic';letter-spacing:0px"
     x="1314.1307"
     y="2282.394"
     id="text878"><tspan
       sodipodi:role="line"
       id="tspan876"
       x="1314.1307"
       y="2282.394">tags: BCV</tspan></text>
  <text
     xml:space="preserve"
     style="font-style:italic;font-weight:bold;font-size:48px;line-height:1.25;font-family:sans-serif;-inkscape-font-specification:'sans-serif Bold Italic';letter-spacing:0px"
     x="1311.3188"
     y="2372.3721"
     id="text882"><tspan
       sodipodi:role="line"
       id="tspan880"
       x="1311.3188"
       y="2372.3721">Figure: 2a</tspan></text>
  <g
     id="g265">
    <path
       style="fill:none;stroke:#00ff00;stroke-width:1px;stroke-linecap:butt;stroke-linejoin:miter;stroke-opacity:1"
       d="m 628.28794,3344.2415 c -0.0512,-46.2043 2.08568,-138.5974 2.08568,-138.5974 3.21213,-10.9555 15.48533,-37.1008 26.56413,-62.5229 6.64723,-15.2531 20.14132,-23.6642 29.57208,-35.4384 26.43786,-33.0075 57.53078,-83.9739 69.86822,-83.928 16.45151,0.061 35.92183,48.3193 82.07711,96.3168 37.29108,38.7795 98.21992,78.9731 117.39746,78.5304 43.3137,-0.9998 48.67588,-203.0349 48.43878,-253.9865 -0.182,-39.1408 12.0724,-435.8245 14.3988,-635.4076 2.1693,-186.1116 5.5176,-328.1098 8.1492,-328.109 4.429,0 -1.0665,579.5867 14.4766,965.4332 7.3133,181.5473 3.3781,292.5041 45.0988,336.0854 26.3219,27.4957 94.7504,24.8207 143.3197,27.3266 122.421,6.3162 205.6348,-42.3952 269.9053,-43.2445 51.1091,-0.6754 136.0728,40.732 451.3334,42.2504 l -0.497,38.7709 c -40.6764,8.0036 -121.8523,20.8921 -183.4164,21.8708 -104.0724,1.6544 -182.5614,34.2151 -274.8759,33.8003 -57.95,-0.2604 -130.1809,-29.8491 -245.5493,-37.7768 -95.2647,-6.5463 -101.0404,-4.3693 -148.1248,10.9354 -34.9168,11.3496 -47.1846,69.726 -51.3393,149.4328 -4.3065,82.6181 -10.6887,327.9786 -12.5121,420.7257 -2.0598,104.7682 -8.7519,652.8039 -10.2111,652.6171 -3.1636,-0.405 -6.9772,-261.2737 -11.1327,-531.3652 -2.2017,-143.0981 -8.8394,-289.7226 -11.3733,-400.5786 -2.3747,-103.8943 -17.63128,-189.972 -49.56812,-190.425 -32.53939,-0.4615 -69.57663,38.7013 -108.50517,77.2175 -40.70909,40.2778 -70.67481,105.3179 -86.34363,106.6959 -21.6281,1.9021 -45.73198,-64.62 -77.0448,-57.6593 -31.91031,7.0935 -39.80006,59.363 -46.22688,86.489 0,0 -5.83709,-230.2889 -5.96476,-345.459 z"
       id="path859"
       sodipodi:nodetypes="scssssssssssssccssssssssssssscs" />
    <text
       xml:space="preserve"
       style="font-style:italic;font-weight:bold;font-size:48px;line-height:1.25;font-family:sans-serif;-inkscape-font-specification:'sans-serif Bold Italic';letter-spacing:0px"
       x="1290.6228"
       y="3087.3721"
       id="text863"><tspan
         sodipodi:role="line"
         id="tspan861"
         x="1290.6228"
         y="3087.3721">curve: solid</tspan></text>
  </g>
  <g
     id="g894">
    <text
       xml:space="preserve"
       style="font-style:italic;font-weight:bold;font-size:48px;line-height:1.25;font-family:sans-serif;-inkscape-font-specification:'sans-serif Bold Italic';letter-spacing:0px"
       x="1394.6599"
       y="2690.9062"
       id="text871"><tspan
         sodipodi:role="line"
         id="tspan869"
         x="1394.6599"
         y="2690.9062">j2: 43.9 uA / cm2</tspan></text>
    <path
       style="fill:none;stroke:#000000;stroke-width:1px;stroke-linecap:butt;stroke-linejoin:miter;stroke-opacity:1"
       d="m 1273.476,2707.1307 108.1793,-30.2835"
       id="path877" />
  </g>
  <g
     id="g866">
    <text
       xml:space="preserve"
       style="font-style:italic;font-weight:bold;font-size:48px;line-height:1.25;font-family:sans-serif;-inkscape-font-specification:'sans-serif Bold Italic';letter-spacing:0px"
       x="1379.6188"
       y="3212.8289"
       id="text875"><tspan
         sodipodi:role="line"
         id="tspan873"
         x="1379.6188"
         y="3212.8289">j1: 0 uA / cm2</tspan></text>
    <path
       style="fill:none;stroke:#000000;stroke-width:1px;stroke-linecap:butt;stroke-linejoin:miter;stroke-opacity:1"
       d="m 1275.2779,3343.8436 90.6519,-142.7563"
       id="path858" />
  </g>
</svg>
