<?xml version="1.0" encoding="UTF-8" standalone="no"?>
<svg
   xmlns:dc="http://purl.org/dc/elements/1.1/"
   xmlns:cc="http://creativecommons.org/ns#"
   xmlns:rdf="http://www.w3.org/1999/02/22-rdf-syntax-ns#"
   xmlns:svg="http://www.w3.org/2000/svg"
   xmlns="http://www.w3.org/2000/svg"
   xmlns:xlink="http://www.w3.org/1999/xlink"
   xmlns:sodipodi="http://sodipodi.sourceforge.net/DTD/sodipodi-0.dtd"
   xmlns:inkscape="http://www.inkscape.org/namespaces/inkscape"
   height="6601px"
   version="1.1"
   width="4800px"
   id="svg6"
   sodipodi:docname="nishihara_1994_underpotential_75_p4_f7b.svg"
   inkscape:version="1.0.2-2 (e86c870879, 2021-01-15)">
  <metadata
     id="metadata10">
    <rdf:RDF>
      <cc:Work
         rdf:about="">
        <dc:format>image/svg+xml</dc:format>
        <dc:type
           rdf:resource="http://purl.org/dc/dcmitype/StillImage" />
      </cc:Work>
    </rdf:RDF>
  </metadata>
  <sodipodi:namedview
     pagecolor="#ffffff"
     bordercolor="#666666"
     borderopacity="1"
     objecttolerance="10"
     gridtolerance="10"
     guidetolerance="10"
     inkscape:pageopacity="0"
     inkscape:pageshadow="2"
     inkscape:window-width="1920"
     inkscape:window-height="991"
     id="namedview8"
     showgrid="false"
     inkscape:zoom="0.25147705"
     inkscape:cx="3669.501"
     inkscape:cy="2393.9232"
     inkscape:window-x="-9"
     inkscape:window-y="-9"
     inkscape:window-maximized="1"
     inkscape:current-layer="svg6"
     inkscape:document-rotation="0" />
  <defs
     id="defs2" />
  <image
     sodipodi:absref="C:\Users\tobia\ownCloud3\PPS\digitizer\push\nishihara_1994_underpotential_75\Nishihara_1994_underpotential_75_p4.png"
     xlink:href="Nishihara_1994_underpotential_75_p4.png"
     height="6601px"
     sodipodi:insensitive="true"
     width="4800px"
     x="0"
     y="0"
     id="image4" />
  <g
     id="g854"
     transform="translate(2216.7037,22.708977)">
    <text
       xml:space="preserve"
       style="font-style:italic;font-weight:bold;font-size:48px;line-height:1.25;font-family:sans-serif;-inkscape-font-specification:'sans-serif Bold Italic';letter-spacing:0px"
       x="2063.8718"
       y="4040.5774"
       id="text837"><tspan
         sodipodi:role="line"
         id="tspan835"
         x="2063.8718"
         y="4040.5774">E1: 0.8 V vs RHE</tspan></text>
    <path
       style="fill:none;stroke:#000000;stroke-width:1px;stroke-linecap:butt;stroke-linejoin:miter;stroke-opacity:1"
       d="m 2042.6074,3728.6416 14.9378,296.4707"
       id="path851" />
  </g>
  <g
     id="g859"
     transform="translate(2216.7623,11.934323)">
    <text
       xml:space="preserve"
       style="font-style:italic;font-weight:bold;font-size:48px;line-height:1.25;font-family:sans-serif;-inkscape-font-specification:'sans-serif Bold Italic';letter-spacing:0px"
       x="483.63208"
       y="3989.9646"
       id="text841"><tspan
         sodipodi:role="line"
         id="tspan839"
         x="483.63208"
         y="3989.9646">E2: 0.0 V vs RHE</tspan></text>
    <path
       style="fill:none;stroke:#000000;stroke-width:1px;stroke-linecap:butt;stroke-linejoin:miter;stroke-opacity:1"
       d="m 534.77195,3728.1144 -57.46646,246.3852"
       id="path853" />
  </g>
  <g
     id="g870"
     transform="matrix(1.0175192,0,0,1.0533351,2199.5178,-236.56558)">
    <text
       xml:space="preserve"
       style="font-style:italic;font-weight:bold;font-size:48px;line-height:1.25;font-family:sans-serif;-inkscape-font-specification:'sans-serif Bold Italic';letter-spacing:0px"
       x="885.72156"
       y="2533.4448"
       id="text845"><tspan
         sodipodi:role="line"
         id="tspan843"
         x="885.72156"
         y="2533.4448">j1: 0 nA / cm2</tspan></text>
    <path
       style="fill:none;stroke:#000000;stroke-width:1px;stroke-linecap:butt;stroke-linejoin:miter;stroke-opacity:1"
       d="m 878.80783,2519.1166 497.57527,176.9545"
       id="path859" />
  </g>
  <text
     xml:space="preserve"
     style="font-style:italic;font-weight:bold;font-size:48px;line-height:1.25;font-family:sans-serif;-inkscape-font-specification:'sans-serif Bold Italic';letter-spacing:0px"
     x="2811.3899"
     y="3079.804"
     id="text883"><tspan
       sodipodi:role="line"
       x="2811.3899"
       y="3079.804"
       id="tspan885">scan rate: 20 mV / s</tspan></text>
  <g
     id="g892"
     transform="translate(2227.4981,-70.612245)">
    <text
       xml:space="preserve"
       style="font-style:italic;font-weight:bold;font-size:48px;line-height:1.25;font-family:sans-serif;-inkscape-font-specification:'sans-serif Bold Italic';letter-spacing:0px"
       x="766.81097"
       y="2965.5085"
       id="text879"><tspan
         sodipodi:role="line"
         id="tspan877"
         x="766.81097"
         y="2965.5085">curve: solid</tspan></text>
    <path
       style="fill:none;stroke:#21c000;stroke-width:1px;stroke-linecap:butt;stroke-linejoin:miter;stroke-opacity:1"
       d="m 1514.6753,2695.2651 c -1.0299,-2.0963 0.6956,-18.1044 2.4603,-23.7246 2.4227,-7.716 8.6812,-14.0777 15.1135,-18.9798 5.7328,-4.369 14.9691,-2.7664 31.2815,-16.8709 15.0781,-13.0373 24.1099,-32.366 31.2814,-50.9641 11.8799,-30.8088 14.504,-64.5554 18.2768,-97.3591 6.3176,-54.9305 5.7175,-110.4487 7.2053,-165.7213 6.3185,-234.7346 5.166,-704.131 7.3061,-704.4208 1.9136,-0.2593 7.8755,792.1702 10.5626,792.0703 3.2294,-0.1201 15.0279,-737.6394 16.6516,-737.6419 2.4744,0 0.1829,418.8122 4.3493,628.1637 1.8732,94.1232 -3.7386,254.6356 9.2827,282.273 5.277,11.2003 9.9921,23.1349 18.2768,32.3359 4.1875,4.6507 15.2892,10.8958 15.2892,10.8958 l -0.5573,58.8811 c -0.019,1.9842 -17.9214,18.401 -24.0461,29.5153 -9.2446,16.7758 -14.8039,35.642 -18.2767,54.4789 -18.4214,99.9195 -10.1923,202.9769 -12.4775,304.5546 -3.5877,159.4729 0.527,478.4751 -1.9331,478.5357 -3.2355,0.08 -3.4305,-293.7037 -9.8413,-440.4005 -1.5951,-36.5007 0.458,-84.7795 -2.1413,-133.3742 -5.185,-96.9344 -7.9299,-195.1783 -19.181,-194.1773 -12.2848,1.093 -8.6542,134.3031 -10.8379,201.5471 -6.2144,191.3673 -3.1948,574.6116 -6.435,574.3686 -3.5159,-0.2636 -4.8524,-377.5548 -9.5572,-566.2846 -1.9485,-78.1632 -2.6595,-213.1479 -7.7325,-234.435 -3.7471,-15.7236 -10.2056,-32.0484 -21.7915,-43.3196 -11.2232,-10.9184 -40.7298,-16.2847 -42.5287,-19.9463 z"
       id="path887"
       sodipodi:nodetypes="ssssaaasssasacsaaassssasasas" />
  </g>
  <g
     id="g891">
    <text
       xml:space="preserve"
       style="font-style:italic;font-weight:bold;font-size:48px;line-height:1.25;font-family:sans-serif;-inkscape-font-specification:'sans-serif Bold Italic';letter-spacing:0px"
       x="3231.3157"
       y="1894.8459"
       id="text849"><tspan
         sodipodi:role="line"
         id="tspan847"
         x="3231.3157"
         y="1894.8459">j2: 1781 nA / cm2</tspan></text>
    <path
       style="fill:none;stroke:#000000;stroke-width:1px;stroke-linecap:butt;stroke-linejoin:miter;stroke-opacity:1"
       d="M 3225.6922,1883.5988 3600.014,2044.889"
       id="path861" />
  </g>
  <text
     xml:space="preserve"
     style="font-style:italic;font-weight:bold;font-size:48px;line-height:1.25;font-family:sans-serif;-inkscape-font-specification:'sans-serif Bold Italic';letter-spacing:0px"
     x="636.24097"
     y="3475.4663"
     id="text878"><tspan
       sodipodi:role="line"
       id="tspan876"
       x="636.24097"
       y="3475.4663">scan rate: 20 mV / s</tspan><tspan
       sodipodi:role="line"
       x="636.24097"
       y="3535.4663"
       id="tspan880">comment: broad line, small figure section</tspan></text>
  <g
     id="g887">
    <text
       xml:space="preserve"
       style="font-style:italic;font-weight:bold;font-size:48px;line-height:1.25;font-family:sans-serif;-inkscape-font-specification:'sans-serif Bold Italic';letter-spacing:0px"
       x="711.79456"
       y="2926.7085"
       id="text874"><tspan
         sodipodi:role="line"
         id="tspan872"
         x="711.79456"
         y="2926.7085">curve: f6b_Pt(41,39,39)</tspan></text>
    <path
       style="fill:none;stroke:#43a501;stroke-width:1px;stroke-linecap:butt;stroke-linejoin:miter;stroke-opacity:1"
       d="m 1380.3447,2725.025 -0.8699,-28.5811 c -0.1195,-3.9261 74.186,-12.9363 83.7231,-14.6759 10.983,-2.0034 70.81,-11.6466 87.2266,-28.4306 37.8936,-38.7418 36.8874,-53.8292 45.9831,-94.5863 12.3491,-55.3356 8.875,-113.0911 10.5443,-169.7633 2.1973,-74.5982 -0.6232,-149.2601 -0.7029,-223.8907 -0.1244,-116.5732 -3.5354,-349.6923 0.3514,-349.7195 5.2807,-0.037 17.3778,429.2432 20.7372,429.1532 3.874,-0.1037 1.6883,-392.4112 6.3266,-392.2481 4.8835,0.1717 15.3799,571.5542 23.1974,679.0532 2.3598,32.4499 4.3811,80.7513 19.6827,95.6017 15.2682,14.818 39.8971,17.4367 61.157,18.2768 29.5388,1.1673 53.5441,0.1177 80.1367,2.8118 22.4587,2.2753 44.3531,8.6822 66.7806,11.2473 19.1251,2.1874 57.4634,-0.094 57.6422,3.5147 l 1.0544,21.2821 c 0.2287,4.6154 -38.4339,11.8435 -58.1694,15.4472 -31.8012,5.8069 -64.5016,5.1094 -96.4804,9.8414 -28.2188,4.1756 -58.5056,3.5523 -84.0029,16.3437 -14.7894,7.4195 -28.0877,19.2802 -36.7294,33.3903 -13.7306,22.4194 -16.5324,50.1432 -20.7371,76.0947 -8.6608,53.4542 -7.225,108.0831 -8.9626,162.2065 -4.6015,143.3345 1.2631,430.1063 -3.8663,430.2076 -4.7989,0.095 -21.1798,-472.1435 -27.4152,-471.6818 -7.5009,0.5554 -9.1396,344.4034 -17.5738,344.4472 -5.8305,0.03 -1.6253,-274.1688 -14.0591,-410.5249 -4.1949,-46.0036 0.8436,-112.7087 -20.3856,-137.0759 -18.4481,-21.175 -52.4393,-21.3664 -80.1368,-26.0093 -31.056,-5.2059 -94.3762,0.7551 -94.4519,-1.732 z"
       id="path882"
       sodipodi:nodetypes="sssssaassssssaassaaaaaasssasas" />
  </g>
  <path
     style="fill:none;stroke:#000000;stroke-width:1px;stroke-linecap:butt;stroke-linejoin:miter;stroke-opacity:1"
     d="M 3595.2561,2202.3536 V 2045.5949"
     id="path875" />
  <text
     xml:space="preserve"
     style="font-style:italic;font-weight:bold;font-size:48px;line-height:1.25;font-family:sans-serif;-inkscape-font-specification:'sans-serif Bold Italic';letter-spacing:0px"
     x="2787.5308"
     y="3161.3223"
     id="text868"><tspan
       sodipodi:role="line"
       id="tspan866"
       x="2787.5308"
       y="3161.3223">comment: Imprecise y-axis labeling.</tspan></text>
  <text
     xml:space="preserve"
     style="font-style:italic;font-weight:bold;font-size:48px;line-height:1.25;font-family:sans-serif;-inkscape-font-specification:'sans-serif Bold Italic';letter-spacing:0px"
     x="2867.0608"
     y="3272.6643"
     id="text895"><tspan
       sodipodi:role="line"
       id="tspan893"
       x="2867.0608"
       y="3272.6643">tags: BCV</tspan></text>
  <text
     xml:space="preserve"
     style="font-style:italic;font-weight:bold;font-size:48px;line-height:1.25;font-family:sans-serif;-inkscape-font-specification:'sans-serif Bold Italic';letter-spacing:0px"
     x="2877.0022"
     y="3350.2063"
     id="text899"><tspan
       sodipodi:role="line"
       id="tspan897"
       x="2877.0022"
       y="3350.2063">Figure: 7b</tspan></text>
</svg>
