<?xml version="1.0" encoding="UTF-8" standalone="no"?>
<svg
   xmlns:dc="http://purl.org/dc/elements/1.1/"
   xmlns:cc="http://creativecommons.org/ns#"
   xmlns:rdf="http://www.w3.org/1999/02/22-rdf-syntax-ns#"
   xmlns:svg="http://www.w3.org/2000/svg"
   xmlns="http://www.w3.org/2000/svg"
   xmlns:xlink="http://www.w3.org/1999/xlink"
   xmlns:sodipodi="http://sodipodi.sourceforge.net/DTD/sodipodi-0.dtd"
   xmlns:inkscape="http://www.inkscape.org/namespaces/inkscape"
   height="6601px"
   version="1.1"
   width="4800px"
   id="svg6"
   sodipodi:docname="nishihara_1994_underpotential_75_p4_f6a.svg"
   inkscape:version="1.0.2-2 (e86c870879, 2021-01-15)">
  <metadata
     id="metadata10">
    <rdf:RDF>
      <cc:Work
         rdf:about="">
        <dc:format>image/svg+xml</dc:format>
        <dc:type
           rdf:resource="http://purl.org/dc/dcmitype/StillImage" />
      </cc:Work>
    </rdf:RDF>
  </metadata>
  <sodipodi:namedview
     pagecolor="#ffffff"
     bordercolor="#666666"
     borderopacity="1"
     objecttolerance="10"
     gridtolerance="10"
     guidetolerance="10"
     inkscape:pageopacity="0"
     inkscape:pageshadow="2"
     inkscape:window-width="1920"
     inkscape:window-height="991"
     id="namedview8"
     showgrid="false"
     inkscape:zoom="0.35564226"
     inkscape:cx="684.72456"
     inkscape:cy="1378.1018"
     inkscape:window-x="-9"
     inkscape:window-y="-9"
     inkscape:window-maximized="1"
     inkscape:current-layer="svg6"
     inkscape:document-rotation="0" />
  <defs
     id="defs2" />
  <image
     sodipodi:absref="C:\Users\tobia\ownCloud3\PPS\digitizer\push\nishihara_1994_underpotential_75\Nishihara_1994_underpotential_75_p4.png"
     xlink:href="Nishihara_1994_underpotential_75_p4.png"
     height="6601px"
     sodipodi:insensitive="true"
     width="4800px"
     x="0"
     y="0"
     id="image4" />
  <g
     id="g854">
    <text
       xml:space="preserve"
       style="font-style:italic;font-weight:bold;font-size:48px;line-height:1.25;font-family:sans-serif;-inkscape-font-specification:'sans-serif Bold Italic';letter-spacing:0px"
       x="2063.8718"
       y="4040.5774"
       id="text837"><tspan
         sodipodi:role="line"
         id="tspan835"
         x="2063.8718"
         y="4040.5774">E1: 0.8 V vs RHE</tspan></text>
    <path
       style="fill:none;stroke:#000000;stroke-width:1px;stroke-linecap:butt;stroke-linejoin:miter;stroke-opacity:1"
       d="m 2042.6074,3728.6416 14.9378,296.4707"
       id="path851" />
  </g>
  <g
     id="g859">
    <text
       xml:space="preserve"
       style="font-style:italic;font-weight:bold;font-size:48px;line-height:1.25;font-family:sans-serif;-inkscape-font-specification:'sans-serif Bold Italic';letter-spacing:0px"
       x="483.63208"
       y="3989.9646"
       id="text841"><tspan
         sodipodi:role="line"
         id="tspan839"
         x="483.63208"
         y="3989.9646">E2: 0.0 V vs RHE</tspan></text>
    <path
       style="fill:none;stroke:#000000;stroke-width:1px;stroke-linecap:butt;stroke-linejoin:miter;stroke-opacity:1"
       d="m 534.77195,3728.1144 -57.46646,246.3852"
       id="path853" />
  </g>
  <text
     xml:space="preserve"
     style="font-style:italic;font-weight:bold;font-size:48px;line-height:1.25;font-family:sans-serif;-inkscape-font-specification:'sans-serif Bold Italic';letter-spacing:0px"
     x="627.80554"
     y="1940.8636"
     id="text878"><tspan
       sodipodi:role="line"
       x="627.80554"
       y="1940.8636"
       id="tspan880">scan rate: 20 mV / s</tspan></text>
  <g
     id="g887">
    <text
       xml:space="preserve"
       style="font-style:italic;font-weight:bold;font-size:48px;line-height:1.25;font-family:sans-serif;-inkscape-font-specification:'sans-serif Bold Italic';letter-spacing:0px"
       x="711.79456"
       y="2926.7085"
       id="text874"><tspan
         sodipodi:role="line"
         id="tspan872"
         x="711.79456"
         y="2926.7085">curve: f6b_Pt(41,39,39)</tspan></text>
    <path
       style="fill:none;stroke:#43a501;stroke-width:1px;stroke-linecap:butt;stroke-linejoin:miter;stroke-opacity:1"
       d="m 1380.3447,2725.025 -0.8699,-28.5811 c -0.1195,-3.9261 74.186,-12.9363 83.7231,-14.6759 10.983,-2.0034 70.81,-11.6466 87.2266,-28.4306 37.8936,-38.7418 36.8874,-53.8292 45.9831,-94.5863 12.3491,-55.3356 8.875,-113.0911 10.5443,-169.7633 2.1973,-74.5982 -0.6232,-149.2601 -0.7029,-223.8907 -0.1244,-116.5732 -3.5354,-349.6923 0.3514,-349.7195 5.2807,-0.037 17.3778,429.2432 20.7372,429.1532 3.874,-0.1037 1.6883,-392.4112 6.3266,-392.2481 4.8835,0.1717 15.3799,571.5542 23.1974,679.0532 2.3598,32.4499 4.3811,80.7513 19.6827,95.6017 15.2682,14.818 39.8971,17.4367 61.157,18.2768 29.5388,1.1673 53.5441,0.1177 80.1367,2.8118 22.4587,2.2753 44.3531,8.6822 66.7806,11.2473 19.1251,2.1874 57.4634,-0.094 57.6422,3.5147 l 1.0544,21.2821 c 0.2287,4.6154 -38.4339,11.8435 -58.1694,15.4472 -31.8012,5.8069 -64.5016,5.1094 -96.4804,9.8414 -28.2188,4.1756 -58.5056,3.5523 -84.0029,16.3437 -14.7894,7.4195 -28.0877,19.2802 -36.7294,33.3903 -13.7306,22.4194 -16.5324,50.1432 -20.7371,76.0947 -8.6608,53.4542 -7.225,108.0831 -8.9626,162.2065 -4.6015,143.3345 1.2631,430.1063 -3.8663,430.2076 -4.7989,0.095 -21.1798,-472.1435 -27.4152,-471.6818 -7.5009,0.5554 -9.1396,344.4034 -17.5738,344.4472 -5.8305,0.03 -1.6253,-274.1688 -14.0591,-410.5249 -4.1949,-46.0036 0.8436,-112.7087 -20.3856,-137.0759 -18.4481,-21.175 -52.4393,-21.3664 -80.1368,-26.0093 -31.056,-5.2059 -94.3762,0.7551 -94.4519,-1.732 z"
       id="path882"
       sodipodi:nodetypes="sssssaassssssaassaaaaaasssasas" />
  </g>
  <text
     xml:space="preserve"
     style="font-style:italic;font-weight:bold;font-size:48px;line-height:1.25;font-family:sans-serif;-inkscape-font-specification:'sans-serif Bold Italic';letter-spacing:0px"
     x="538.5097"
     y="2040.9585"
     id="text858"><tspan
       sodipodi:role="line"
       id="tspan856"
       x="538.5097"
       y="2040.9585">comment: Imprecise y-axis labeling.</tspan></text>
  <text
     xml:space="preserve"
     style="font-style:italic;font-weight:bold;font-size:48px;line-height:1.25;font-family:sans-serif;-inkscape-font-specification:'sans-serif Bold Italic';letter-spacing:0px"
     x="661.60583"
     y="1724.1439"
     id="text862"><tspan
       sodipodi:role="line"
       id="tspan860"
       x="661.60583"
       y="1724.1439">tags: BCV</tspan></text>
  <text
     xml:space="preserve"
     style="font-style:italic;font-weight:bold;font-size:48px;line-height:1.25;font-family:sans-serif;-inkscape-font-specification:'sans-serif Bold Italic';letter-spacing:0px"
     x="659.61755"
     y="1829.5214"
     id="text866"><tspan
       sodipodi:role="line"
       id="tspan864"
       x="659.61755"
       y="1829.5214">Figure: 6a</tspan></text>
  <g
     id="g890">
    <text
       xml:space="preserve"
       style="font-style:italic;font-weight:bold;font-size:48px;line-height:1.25;font-family:sans-serif;-inkscape-font-specification:'sans-serif Bold Italic';letter-spacing:0px"
       x="1788.2726"
       y="981.98499"
       id="text865"><tspan
         sodipodi:role="line"
         id="tspan863"
         x="1788.2726"
         y="981.98499">j1: 0 uA / cm2</tspan></text>
    <path
       style="fill:none;stroke:#000000;stroke-width:1px;stroke-linecap:butt;stroke-linejoin:miter;stroke-opacity:1"
       d="M 1657.4574,1074.8061 1778.4726,965.85822"
       id="path867" />
  </g>
  <g
     id="g885">
    <text
       xml:space="preserve"
       style="font-style:italic;font-weight:bold;font-size:48px;line-height:1.25;font-family:sans-serif;-inkscape-font-specification:'sans-serif Bold Italic';letter-spacing:0px"
       x="1776.3636"
       y="559.55103"
       id="text873"><tspan
         sodipodi:role="line"
         id="tspan871"
         x="1776.3636"
         y="559.55103">j2: 32 uA / cm2</tspan></text>
    <path
       style="fill:none;stroke:#000000;stroke-width:1px;stroke-linecap:butt;stroke-linejoin:miter;stroke-opacity:1"
       d="m 1657.6085,571.98454 113.6588,-22.62632"
       id="path875" />
  </g>
  <g
     id="g899">
    <path
       style="fill:none;stroke:#00ff00;stroke-width:1px;stroke-linecap:butt;stroke-linejoin:miter;stroke-opacity:1"
       d="m 642.49957,943.18797 c 0.51136,-22.2718 13.86491,-58.73636 23.19747,-66.78059 13.65747,-11.7721 32.4729,-7.45162 49.03101,-22.84599 15.54573,-14.45314 25.1515,-56.9008 29.87553,-56.23629 3.71599,0.52272 21.35687,41.49074 30.47928,51.97979 6.11709,7.0335 32.18,16.89834 55.28106,16.38245 47.22976,-1.05474 111.60616,7.72998 141.64515,4.74493 34.56933,-3.43524 38.55263,-93.75771 45.69193,-93.66856 5.7839,0.0722 15.4084,86.39728 27.2479,110.84825 10.9219,22.5558 24.8905,39.71375 40.7629,50.30386 20.4453,13.64112 50.6912,32.45479 65.5504,31.80865 14.6289,-0.63613 22.3744,-18.1871 63.3956,-40.20695 18.3646,-9.85801 45.8908,-22.39881 88.4424,-23.58609 14.5225,-0.40521 32.0204,9.14759 43.5831,0.35148 7.3619,-5.60046 1.8829,-71.56904 11.0715,-72.22848 7.5694,-0.54324 11.8744,74.1592 47.0593,113.48587 31.101,34.76215 59.0727,65.0606 121.6496,79.8264 70.0953,16.5398 161.9018,21.7035 215.107,14.6364 36.9362,-4.9062 74.3555,-25.9582 110.712,-27.2896 17.0586,-0.6247 10.4312,26.9457 58.6733,27.1099 37.391,0.1273 82.4727,2.3456 112.1444,5.226 0.6555,8.6559 0.6425,27.9303 0.703,33.0388 -39.1003,12.7358 -150.0806,29.1726 -152.1895,30.227 -2.1088,1.0544 -37.8553,-0.5828 -53.7759,8.0839 -12.831,6.9848 -18.391,32.7267 -28.9969,32.8631 -10.4334,0.1341 -12.6702,-18.8605 -40.9014,-27.6951 -33.5587,-10.5018 -85.0271,-11.9985 -119.1962,-12.0217 -62.869,-0.043 -143.9094,15.0176 -183.1195,45.1647 -15.7593,12.1167 -40.2799,41.477 -49.9471,59.0888 -8.9142,16.2399 -13.8259,29.577 -21.0748,50.7398 -6.1855,18.0585 -10.2243,120.3967 -12.4538,120.3887 -7.03,-0.025 -1.9079,-132.8473 -14.5863,-143.4025 -5.0269,-4.1851 -49.1575,14.0036 -98.1042,-8.0814 -55.2418,-24.9254 -81.7387,-56.0578 -100.3044,-56.2389 -15.2282,-0.1486 -33.0461,15.0759 -52.5094,26.1729 -23.9002,13.6268 -41.1482,35.0849 -45.7256,47.1267 -18.5655,48.8399 -17.1424,108.9558 -24.7819,108.9412 -8.1311,-0.016 -13.6521,-76.6689 -43.58313,-85.0574 -14.13418,-3.9613 -147.99593,4.435 -187.19547,19.4373 -35.18396,13.4655 -30.81604,66.5276 -45.6579,66.1473 -5.65043,-0.1448 -23.03527,-58.8484 -47.80085,-57.115 -33.04639,2.3129 -47.29336,60.7048 -52.54578,84.3544 -2.79211,-24.1009 -10.26686,-297.371 -6.8538,-446.02403 z"
       id="path859"
       sodipodi:nodetypes="ssssssssssssssssssssccssssssssssssssssssscs" />
    <text
       xml:space="preserve"
       style="font-style:italic;font-weight:bold;font-size:48px;line-height:1.25;font-family:sans-serif;-inkscape-font-specification:'sans-serif Bold Italic';letter-spacing:0px"
       x="1507.1324"
       y="1355.2946"
       id="text894"><tspan
         sodipodi:role="line"
         id="tspan892"
         x="1507.1324"
         y="1355.2946">curve: solid</tspan></text>
  </g>
</svg>
