<?xml version="1.0" encoding="UTF-8" standalone="no"?>
<svg
   height="6601px"
   version="1.1"
   width="4800px"
   id="svg6"
   sodipodi:docname="nishihara_1994_underpotential_75_f4a_solid.svg"
   inkscape:version="1.2 (dc2aedaf03, 2022-05-15)"
   xmlns:inkscape="http://www.inkscape.org/namespaces/inkscape"
   xmlns:sodipodi="http://sodipodi.sourceforge.net/DTD/sodipodi-0.dtd"
   xmlns:xlink="http://www.w3.org/1999/xlink"
   xmlns="http://www.w3.org/2000/svg"
   xmlns:svg="http://www.w3.org/2000/svg"
   xmlns:rdf="http://www.w3.org/1999/02/22-rdf-syntax-ns#"
   xmlns:cc="http://creativecommons.org/ns#"
   xmlns:dc="http://purl.org/dc/elements/1.1/">
  <metadata
     id="metadata10">
    <rdf:RDF>
      <cc:Work
         rdf:about="">
        <dc:format>image/svg+xml</dc:format>
        <dc:type
           rdf:resource="http://purl.org/dc/dcmitype/StillImage" />
      </cc:Work>
    </rdf:RDF>
  </metadata>
  <sodipodi:namedview
     pagecolor="#ffffff"
     bordercolor="#666666"
     borderopacity="1"
     objecttolerance="10"
     gridtolerance="10"
     guidetolerance="10"
     inkscape:pageopacity="0"
     inkscape:pageshadow="2"
     inkscape:window-width="3456"
     inkscape:window-height="2036"
     id="namedview8"
     showgrid="false"
     inkscape:zoom="0.35564226"
     inkscape:cx="1286.4051"
     inkscape:cy="4629.6523"
     inkscape:window-x="-12"
     inkscape:window-y="-12"
     inkscape:window-maximized="1"
     inkscape:current-layer="svg6"
     inkscape:document-rotation="0"
     inkscape:showpageshadow="2"
     inkscape:pagecheckerboard="0"
     inkscape:deskcolor="#d1d1d1" />
  <defs
     id="defs2" />
  <image
     xlink:href="nishihara_1994_underpotential_75_p3.png"
     height="6601px"
     sodipodi:insensitive="true"
     width="4800px"
     x="0"
     y="0"
     id="image4" />
  <g
     id="g928">
    <text
       xml:space="preserve"
       style="font-style:italic;font-weight:bold;font-size:48px;line-height:1.25;font-family:sans-serif;-inkscape-font-specification:'sans-serif Bold Italic';letter-spacing:0px"
       x="395.66235"
       y="5966.7471"
       id="text841"><tspan
         sodipodi:role="line"
         id="tspan839"
         x="395.66235"
         y="5966.7471">E1: 0.0 V vs RHE</tspan></text>
    <path
       style="fill:none;stroke:#000000;stroke-width:1px;stroke-linecap:butt;stroke-linejoin:miter;stroke-opacity:1"
       d="M 572.61687,5698.8302 387.70934,5949.8471"
       id="path916" />
  </g>
  <g
     id="g923">
    <text
       xml:space="preserve"
       style="font-style:italic;font-weight:bold;font-size:48px;line-height:1.25;font-family:sans-serif;-inkscape-font-specification:'sans-serif Bold Italic';letter-spacing:0px"
       x="1936.5583"
       y="6034.3477"
       id="text837"><tspan
         sodipodi:role="line"
         id="tspan835"
         x="1936.5583"
         y="6034.3477">E2: 0.8 V vs RHE</tspan></text>
    <path
       style="fill:none;stroke:#000000;stroke-width:1px;stroke-linecap:butt;stroke-linejoin:miter;stroke-opacity:1"
       d="m 1927.6113,6015.4595 151.7254,-320.4809"
       id="path918" />
  </g>
  <text
     xml:space="preserve"
     style="font-style:italic;font-weight:bold;font-size:48px;line-height:1.25;font-family:sans-serif;-inkscape-font-specification:'sans-serif Bold Italic';letter-spacing:0px"
     x="84.852776"
     y="3149.0691"
     id="text936"><tspan
       sodipodi:role="line"
       x="84.852776"
       y="3149.0691"
       id="tspan938">scan rate: 20 mV / s</tspan></text>
  <text
     xml:space="preserve"
     style="font-style:italic;font-weight:bold;font-size:48px;line-height:1.25;font-family:sans-serif;-inkscape-font-specification:'sans-serif Bold Italic';letter-spacing:0px"
     x="81.542595"
     y="3236.3982"
     id="text857"><tspan
       sodipodi:role="line"
       id="tspan855"
       x="81.542595"
       y="3236.3982">comment: Imprecise y-axis labeling and broad CV line.</tspan></text>
  <text
     xml:space="preserve"
     style="font-style:italic;font-weight:bold;font-size:48px;line-height:1.25;font-family:sans-serif;-inkscape-font-specification:'sans-serif Bold Italic';letter-spacing:0px"
     x="118.09618"
     y="3003.0178"
     id="text861"><tspan
       sodipodi:role="line"
       id="tspan859"
       x="118.09618"
       y="3003.0178">tags: BCV</tspan></text>
  <text
     xml:space="preserve"
     style="font-style:italic;font-weight:bold;font-size:48px;line-height:1.25;font-family:sans-serif;-inkscape-font-specification:'sans-serif Bold Italic';letter-spacing:0px"
     x="92.789787"
     y="3076.1248"
     id="text865"><tspan
       sodipodi:role="line"
       id="tspan863"
       x="92.789787"
       y="3076.1248">Figure: 4a</tspan></text>
  <g
     id="g867">
    <path
       style="fill:none;stroke:#00ff00;stroke-width:1px;stroke-linecap:butt;stroke-linejoin:miter;stroke-opacity:1"
       d="m 692.40914,2546.2066 c 5.37306,-25.8064 18.50354,-71 45.72982,-79.7786 6.34499,-2.0458 23.93238,-4.3669 38.2579,-10.3341 24.13713,-10.0541 31.53351,-24.3215 35.05893,-28.9339 2.09342,4.4332 4.16292,13.5772 125.75701,45.7298 32.22661,8.5215 84.4752,22.0631 99.1641,12.9236 24.3456,-15.148 25.5566,-176.6818 30.8179,-265.6803 2.5992,-43.9665 5.8606,-465.1363 10.4331,-465.0336 3.3319,0.075 4.0575,411.7573 3.8662,438.9945 -0.1549,22.0509 4.7292,215.4648 11.9758,266.8217 8.8789,62.9253 8.0759,82.0868 59.374,119.8028 28.024,20.6041 77.991,38.1368 98.0621,35.6749 28.0495,-3.4405 78.2029,-101.7937 140.5907,-99.1165 85.4468,3.6666 106.1079,89.414 232.409,108.7084 142.0939,21.7071 388.2636,15.2618 430.8296,18.5156 l 1.4912,30.1966 c -17.024,3.5627 -102.2217,12.5558 -153.9217,13.8185 -31.7504,0.7754 -67.6355,11.7289 -83.3018,12.0288 -84.6778,1.621 -182.5457,-8.2942 -247.9017,13.2077 -20.7198,6.8167 -56.3349,24.0417 -63.7719,31.087 -45.1214,42.7454 -65.9975,56.9176 -106.1037,62.7602 -34.2179,4.9848 -49.5331,0.27 -92.8824,-44.1111 -24.8207,-25.4114 -48.7483,-53.9085 -75.0784,-53.4301 -24.8794,0.4521 -57.6495,19.5434 -85.4596,38.3536 -40.6766,27.5128 -58.6569,86.3569 -56.6272,159.0043 0.2843,10.1766 -3.9005,58.0281 -5.1066,123.0038 -3.3734,181.7289 -7.4257,497.4123 -10.0363,497.4302 -2.766,0.019 -8.2432,-426.058 -11.5235,-484.8279 -5.9501,-106.6037 -7.2548,-199.8888 -40.084,-207.5686 -16.6705,-3.8997 -69.73991,13.4049 -108.4937,23.6951 -65.41885,17.3704 -100.80273,33.9134 -102.71306,44.6046 -7.69949,-15.4747 -40.87749,-35.2772 -61.44861,-28.1933 -48.73645,16.7828 -61.89574,168.4088 -61.89574,168.4088 0,0 -4.36709,-497.2527 2.53255,-497.7625 z"
       id="path858"
       sodipodi:nodetypes="csscssssssssssccsssssssssssssscscc" />
    <text
       xml:space="preserve"
       style="font-style:italic;font-weight:bold;font-size:48px;line-height:1.25;font-family:sans-serif;-inkscape-font-specification:'sans-serif Bold Italic';letter-spacing:0px"
       x="1346.8591"
       y="2437.8433"
       id="text862"><tspan
         sodipodi:role="line"
         id="tspan860"
         x="1346.8591"
         y="2437.8433">curve: solid</tspan></text>
  </g>
  <g
     id="g888">
    <text
       xml:space="preserve"
       style="font-style:italic;font-weight:bold;font-size:48px;line-height:1.25;font-family:sans-serif;-inkscape-font-specification:'sans-serif Bold Italic';letter-spacing:0px"
       x="1458.6288"
       y="2152.4441"
       id="text875"><tspan
         sodipodi:role="line"
         id="tspan873"
         x="1458.6288"
         y="2152.4441">j2: 32.0 uA / cm2</tspan></text>
    <path
       style="fill:none;stroke:#000000;stroke-width:1px;stroke-linecap:butt;stroke-linejoin:miter;stroke-opacity:1"
       d="m 1292.8616,2187.2027 154.8714,-47.4119"
       id="path881" />
  </g>
  <g
     id="g870">
    <text
       xml:space="preserve"
       style="font-style:italic;font-weight:bold;font-size:48px;line-height:1.25;font-family:sans-serif;-inkscape-font-specification:'sans-serif Bold Italic';letter-spacing:0px"
       x="1344.2871"
       y="2893.3464"
       id="text879"><tspan
         sodipodi:role="line"
         id="tspan877"
         x="1344.2871"
         y="2893.3464">j1: 0 uA / cm2</tspan></text>
    <path
       style="fill:none;stroke:#000000;stroke-width:1px;stroke-linecap:butt;stroke-linejoin:miter;stroke-opacity:1"
       d="m 1294.4012,2669.1149 33.8297,211.589"
       id="path862" />
  </g>
</svg>
