<?xml version="1.0" encoding="UTF-8" standalone="no"?>
<svg
   xmlns:dc="http://purl.org/dc/elements/1.1/"
   xmlns:cc="http://creativecommons.org/ns#"
   xmlns:rdf="http://www.w3.org/1999/02/22-rdf-syntax-ns#"
   xmlns:svg="http://www.w3.org/2000/svg"
   xmlns="http://www.w3.org/2000/svg"
   xmlns:xlink="http://www.w3.org/1999/xlink"
   xmlns:sodipodi="http://sodipodi.sourceforge.net/DTD/sodipodi-0.dtd"
   xmlns:inkscape="http://www.inkscape.org/namespaces/inkscape"
   height="6601px"
   version="1.1"
   width="4800px"
   id="svg6"
   sodipodi:docname="nishihara_1994_underpotential_75_p2_f3a.svg"
   inkscape:version="1.0.2-2 (e86c870879, 2021-01-15)">
  <metadata
     id="metadata10">
    <rdf:RDF>
      <cc:Work
         rdf:about="">
        <dc:format>image/svg+xml</dc:format>
        <dc:type
           rdf:resource="http://purl.org/dc/dcmitype/StillImage" />
      </cc:Work>
    </rdf:RDF>
  </metadata>
  <sodipodi:namedview
     pagecolor="#ffffff"
     bordercolor="#666666"
     borderopacity="1"
     objecttolerance="10"
     gridtolerance="10"
     guidetolerance="10"
     inkscape:pageopacity="0"
     inkscape:pageshadow="2"
     inkscape:window-width="1920"
     inkscape:window-height="991"
     id="namedview8"
     showgrid="false"
     inkscape:zoom="0.71814025"
     inkscape:cx="3347.1076"
     inkscape:cy="1417.4393"
     inkscape:window-x="-9"
     inkscape:window-y="-9"
     inkscape:window-maximized="1"
     inkscape:current-layer="svg6"
     inkscape:document-rotation="0" />
  <defs
     id="defs2" />
  <image
     sodipodi:absref="C:\Users\tobia\ownCloud3\PPS\digitizer\push\nishihara_1994_underpotential_75\Nishihara_1994_underpotential_75_p2.png"
     xlink:href="Nishihara_1994_underpotential_75_p2.png"
     id="image4"
     y="0"
     x="0"
     width="4800px"
     sodipodi:insensitive="true"
     height="6601px" />
  <text
     xml:space="preserve"
     style="font-style:italic;font-weight:bold;font-size:48px;line-height:1.25;font-family:sans-serif;-inkscape-font-specification:'sans-serif Bold Italic';letter-spacing:0px"
     x="3615.9529"
     y="1639.4106"
     id="text891"><tspan
       sodipodi:role="line"
       id="tspan889"
       x="3615.9529"
       y="1639.4106">scan rate: 20 mV / s</tspan></text>
  <text
     xml:space="preserve"
     style="font-style:italic;font-weight:bold;font-size:48px;line-height:1.25;font-family:sans-serif;-inkscape-font-specification:'sans-serif Bold Italic';letter-spacing:0px"
     x="3458.6021"
     y="1718.7823"
     id="text895"><tspan
       sodipodi:role="line"
       id="tspan893"
       x="3458.6021"
       y="1718.7823">comment: imprecise Y-axis labelling. </tspan></text>
  <text
     xml:space="preserve"
     style="font-style:italic;font-weight:bold;font-size:48px;line-height:1.25;font-family:sans-serif;-inkscape-font-specification:'sans-serif Bold Italic';letter-spacing:0px"
     x="4035.4102"
     y="432.38449"
     id="text899"><tspan
       sodipodi:role="line"
       id="tspan897"
       x="4035.4102"
       y="432.38449">Figure: 3a</tspan></text>
  <text
     xml:space="preserve"
     style="font-style:italic;font-weight:bold;font-size:48px;line-height:1.25;font-family:sans-serif;-inkscape-font-specification:'sans-serif Bold Italic';letter-spacing:0px"
     x="4037.3794"
     y="316.19745"
     id="text903"><tspan
       sodipodi:role="line"
       id="tspan901"
       x="4037.3794"
       y="316.19745">tags: BCV</tspan></text>
  <g
     id="g889">
    <text
       xml:space="preserve"
       style="font-style:italic;font-weight:bold;font-size:48px;line-height:1.25;font-family:sans-serif;-inkscape-font-specification:'sans-serif Bold Italic';letter-spacing:0px"
       x="3495.8352"
       y="874.48096"
       id="text871"><tspan
         sodipodi:role="line"
         id="tspan869"
         x="3495.8352"
         y="874.48096">j2: 42.8 uA / cm2</tspan></text>
    <path
       style="fill:none;stroke:#000000;stroke-width:1px;stroke-linecap:butt;stroke-linejoin:miter;stroke-opacity:1"
       d="M 3490.0424,859.3411 3372.078,950.71957"
       id="path877" />
  </g>
  <g
     id="g911">
    <text
       xml:space="preserve"
       style="font-style:italic;font-weight:bold;font-size:48px;line-height:1.25;font-family:sans-serif;-inkscape-font-specification:'sans-serif Bold Italic';letter-spacing:0px"
       x="2660.4866"
       y="4554.9263"
       id="text893"><tspan
         sodipodi:role="line"
         id="tspan891"
         x="2660.4866"
         y="4554.9263">E1: 0.0 V vs RHE</tspan></text>
    <path
       style="fill:none;stroke:#000000;stroke-width:1px;stroke-linecap:butt;stroke-linejoin:miter;stroke-opacity:1"
       d="m 2706.5183,4319.3522 c -0.9846,-0.2462 -49.9703,216.6199 -49.9703,216.6199"
       id="path899" />
  </g>
  <g
     id="g906">
    <text
       xml:space="preserve"
       style="font-style:italic;font-weight:bold;font-size:48px;line-height:1.25;font-family:sans-serif;-inkscape-font-specification:'sans-serif Bold Italic';letter-spacing:0px"
       x="4235.9043"
       y="4598.2505"
       id="text897"><tspan
         sodipodi:role="line"
         id="tspan895"
         x="4235.9043"
         y="4598.2505">E2: 0.8 V vs RHE</tspan></text>
    <path
       style="fill:none;stroke:#000000;stroke-width:1px;stroke-linecap:butt;stroke-linejoin:miter;stroke-opacity:1"
       d="m 4221.8732,4338.0602 7.1386,238.5281"
       id="path901" />
  </g>
  <g
     id="g874">
    <path
       style="fill:none;stroke:#07e900;stroke-width:1px;stroke-linecap:butt;stroke-linejoin:miter;stroke-opacity:1"
       d="m 2855.9368,1362.244 c 11.7527,-55.3661 16.5788,-83.3976 42.8317,-95.0174 51.5864,-22.8326 75.3666,-64.3038 80.2478,-64.0014 3.3017,0.2045 25.5824,28.015 64.275,52.7422 48.6857,31.1132 117.4568,57.2149 142.7448,57.5371 34.8278,0.4437 41.3418,-167.556 44.8009,-221.7893 5.3993,-84.6524 13.8026,-501.42702 16.4926,-501.91822 2.7823,-0.50803 5.1856,268.23344 5.9079,320.7452 0.8896,64.67291 0.8378,234.40492 6.154,301.79092 13.4817,170.8892 35.7726,197.6233 86.4018,214.4045 64.6481,21.4277 123.1116,7.0634 174.7729,-16.9849 34.9231,-16.2566 54.1149,-39.6305 108.5561,-39.6316 30.5532,-6e-4 79.5294,20.7048 140.0172,37.1782 44.1806,12.0323 98.1773,20.1992 137.404,24.3615 103.3931,10.9708 272.4226,8.8643 311.6373,13.2926 l 1.9693,29.2929 c -34.1612,12.1593 -223.0635,21.5899 -334.5301,29.2929 -48.6529,3.3622 -99.2145,14.1426 -142.0336,25.4036 -62.0883,16.3287 -79.7659,32.1789 -130.4645,33.6746 -53.5661,1.5802 -90.5476,-74.4101 -224.0046,-70.1553 -27.8841,0.889 -75.5555,14.8671 -93.0467,35.1679 -25.8173,29.9645 -26.6145,73.9061 -30.7713,108.5889 -6.1832,51.5908 -7.2212,149.1648 -10.5849,223.7586 -1.3842,30.6967 -5.2755,111.8781 -6.368,194.9972 -1.4953,113.7698 -3.6168,231.4742 -6.216,231.3651 -4.6284,-0.1943 -4.8451,-114.2637 -6.8943,-227.5461 -1.6932,-93.5993 -4.9385,-187.1521 -6.1222,-214.3242 -3.4789,-79.8576 -4.9589,-232.5035 -54.155,-233.6049 -17.2182,-0.3855 -61.2286,20.7252 -80.4617,29.2435 -10.784,4.7763 -53.8795,27.2545 -65.6355,37.7272 -24.0884,21.4589 -47.6864,49.8064 -52.0608,49.7086 -16.5527,-0.3702 -27.4225,-40.519 -58.4736,-39.7335 -45.0589,1.1398 -56.8347,105.046 -63.6213,141.8895 z"
       id="path913"
       sodipodi:nodetypes="csssssssssssssccsssssssssssssssscc" />
    <text
       xml:space="preserve"
       style="font-style:italic;font-weight:bold;font-size:48px;line-height:1.25;font-family:sans-serif;-inkscape-font-specification:'sans-serif Bold Italic';letter-spacing:0px"
       x="3455.0879"
       y="1216.0255"
       id="text917"><tspan
         sodipodi:role="line"
         id="tspan915"
         x="3455.0879"
         y="1216.0255">curve: solid</tspan></text>
  </g>
  <g
     id="g869">
    <text
       xml:space="preserve"
       style="font-style:italic;font-weight:bold;font-size:48px;line-height:1.25;font-family:sans-serif;-inkscape-font-specification:'sans-serif Bold Italic';letter-spacing:0px"
       x="3472.7141"
       y="1353.5355"
       id="text875"><tspan
         sodipodi:role="line"
         id="tspan873"
         x="3472.7141"
         y="1353.5355">j1: 0 uA / cm2</tspan></text>
    <path
       style="fill:none;stroke:#000000;stroke-width:1px;stroke-linecap:butt;stroke-linejoin:miter;stroke-opacity:1"
       d="m 3372.8708,1472.0309 88.8485,-124.801"
       id="path858" />
  </g>
</svg>
