<?xml version="1.0" encoding="UTF-8" standalone="no"?>
<svg
   xmlns:dc="http://purl.org/dc/elements/1.1/"
   xmlns:cc="http://creativecommons.org/ns#"
   xmlns:rdf="http://www.w3.org/1999/02/22-rdf-syntax-ns#"
   xmlns:svg="http://www.w3.org/2000/svg"
   xmlns="http://www.w3.org/2000/svg"
   xmlns:xlink="http://www.w3.org/1999/xlink"
   xmlns:sodipodi="http://sodipodi.sourceforge.net/DTD/sodipodi-0.dtd"
   xmlns:inkscape="http://www.inkscape.org/namespaces/inkscape"
   height="6601px"
   version="1.1"
   width="4800px"
   id="svg6"
   sodipodi:docname="nishihara_1994_underpotential_75_p3_f4b.svg"
   inkscape:version="1.0.2-2 (e86c870879, 2021-01-15)">
  <metadata
     id="metadata10">
    <rdf:RDF>
      <cc:Work
         rdf:about="">
        <dc:format>image/svg+xml</dc:format>
        <dc:type
           rdf:resource="http://purl.org/dc/dcmitype/StillImage" />
      </cc:Work>
    </rdf:RDF>
  </metadata>
  <sodipodi:namedview
     pagecolor="#ffffff"
     bordercolor="#666666"
     borderopacity="1"
     objecttolerance="10"
     gridtolerance="10"
     guidetolerance="10"
     inkscape:pageopacity="0"
     inkscape:pageshadow="2"
     inkscape:window-width="1920"
     inkscape:window-height="991"
     id="namedview8"
     showgrid="false"
     inkscape:zoom="0.71128448"
     inkscape:cx="1375.7417"
     inkscape:cy="4818.4874"
     inkscape:window-x="-9"
     inkscape:window-y="-9"
     inkscape:window-maximized="1"
     inkscape:current-layer="svg6"
     inkscape:document-rotation="0" />
  <defs
     id="defs2" />
  <image
     sodipodi:absref="C:\Users\tobia\ownCloud3\PPS\digitizer\push\nishihara_1994_underpotential_75\Nishihara_1994_underpotential_75_p3.png"
     xlink:href="Nishihara_1994_underpotential_75_p3.png"
     id="image4"
     y="0"
     x="0"
     width="4800px"
     sodipodi:insensitive="true"
     height="6601px" />
  <g
     id="g909">
    <text
       xml:space="preserve"
       style="font-style:italic;font-weight:bold;font-size:48px;line-height:1.25;font-family:sans-serif;-inkscape-font-specification:'sans-serif Bold Italic';letter-spacing:0px"
       x="1029.1571"
       y="3675.439"
       id="text849"><tspan
         sodipodi:role="line"
         id="tspan847"
         x="1029.1571"
         y="3675.439">j2: 1080 nA / cm2</tspan></text>
    <path
       style="fill:none;stroke:#000000;stroke-width:1px;stroke-linecap:butt;stroke-linejoin:miter;stroke-opacity:1"
       d="M 1407.3131,3805.7908 1015.7679,3663.7941"
       id="path902" />
  </g>
  <g
     id="g914"
     transform="translate(0,627.03463)">
    <text
       xml:space="preserve"
       style="font-style:italic;font-weight:bold;font-size:48px;line-height:1.25;font-family:sans-serif;-inkscape-font-specification:'sans-serif Bold Italic';letter-spacing:0px"
       x="953.81049"
       y="4129.9185"
       id="text845"><tspan
         sodipodi:role="line"
         id="tspan843"
         x="953.81049"
         y="4129.9185">j1: 0 nA / cm2</tspan></text>
    <path
       style="fill:none;stroke:#000000;stroke-width:1px;stroke-linecap:butt;stroke-linejoin:miter;stroke-opacity:1"
       d="M 946.17554,4117.9022 1406.5647,3948.2977"
       id="path904" />
  </g>
  <g
     id="g928">
    <text
       xml:space="preserve"
       style="font-style:italic;font-weight:bold;font-size:48px;line-height:1.25;font-family:sans-serif;-inkscape-font-specification:'sans-serif Bold Italic';letter-spacing:0px"
       x="395.66235"
       y="5966.7471"
       id="text841"><tspan
         sodipodi:role="line"
         id="tspan839"
         x="395.66235"
         y="5966.7471">E1: 0.0 V vs RHE</tspan></text>
    <path
       style="fill:none;stroke:#000000;stroke-width:1px;stroke-linecap:butt;stroke-linejoin:miter;stroke-opacity:1"
       d="M 572.61687,5698.8302 387.70934,5949.8471"
       id="path916" />
  </g>
  <g
     id="g923">
    <text
       xml:space="preserve"
       style="font-style:italic;font-weight:bold;font-size:48px;line-height:1.25;font-family:sans-serif;-inkscape-font-specification:'sans-serif Bold Italic';letter-spacing:0px"
       x="1936.5583"
       y="6034.3477"
       id="text837"><tspan
         sodipodi:role="line"
         id="tspan835"
         x="1936.5583"
         y="6034.3477">E2: 0.8 V vs RHE</tspan></text>
    <path
       style="fill:none;stroke:#000000;stroke-width:1px;stroke-linecap:butt;stroke-linejoin:miter;stroke-opacity:1"
       d="m 1927.6113,6015.4595 151.7254,-320.4809"
       id="path918" />
  </g>
  <text
     xml:space="preserve"
     style="font-style:italic;font-weight:bold;font-size:48px;line-height:1.25;font-family:sans-serif;-inkscape-font-specification:'sans-serif Bold Italic';letter-spacing:0px"
     x="762.50006"
     y="5305.731"
     id="text936"><tspan
       sodipodi:role="line"
       x="762.50006"
       y="5305.731"
       id="tspan938">scan rate: 20 mV / s</tspan></text>
  <g
     id="g945">
    <text
       xml:space="preserve"
       style="font-style:italic;font-weight:bold;font-size:48px;line-height:1.25;font-family:sans-serif;-inkscape-font-specification:'sans-serif Bold Italic';letter-spacing:0px"
       x="878.8078"
       y="5038.2329"
       id="text932"><tspan
         sodipodi:role="line"
         id="tspan930"
         x="878.8078"
         y="5038.2329">curve: solid</tspan></text>
    <path
       style="fill:none;stroke:#34bc00;stroke-width:1px;stroke-linecap:butt;stroke-linejoin:miter;stroke-opacity:1"
       d="m 1146.1658,4699.5963 c 0,0 -5.5781,-44.1754 0.3515,-65.0232 5.8983,-20.7376 15.0068,-44.5124 33.7418,-55.1819 24.9805,-14.2263 73.9754,-15.1176 111.0667,-22.143 27.3667,-5.1835 55.6918,-6.3534 82.2455,-14.7621 23.2859,-7.3739 46.7243,-14.668 66.4291,-30.9299 8.3294,-6.8741 17.9598,-12.9804 28.4697,-15.465 13.6895,-3.2363 28.181,0 42.1772,1.4059 9.1029,0.916 18.6991,8.2754 27.0637,4.5692 22.0304,-9.7614 33.2964,-50.2704 46.3949,-77.3249 6.9315,-14.3168 8.7715,-30.9475 16.8709,-44.6375 4.3159,-7.295 12.1045,-12.0959 16.5194,-19.3313 10.972,-17.9814 16.0175,-91.6173 21.4401,-137.7789 8.09,-68.8692 13.1316,-138.1114 16.5194,-207.3713 4.076,-83.3314 2.9066,-166.837 4.5692,-250.2515 2.2699,-113.8824 3.9879,-227.7809 7.381,-341.6354 3.6445,-122.29 9.3017,-366.6505 13.9385,-366.768 6.1589,-0.1561 5.6628,318.0846 8.2046,477.1317 3.1698,198.3464 -0.7878,396.9097 8.7869,595.0502 4.5674,94.5191 3.2017,236.7071 23.1975,282.9388 8.9607,20.7177 23.6294,43.3132 44.989,50.6127 33.0504,11.2948 68.9642,-27.2462 102.9827,-19.3312 30.6502,7.1313 48.6123,40.3487 75.5675,56.5877 20.4253,12.3051 41.641,24.3985 64.6717,30.5785 19.1888,5.1491 59.5114,1.5121 59.3996,4.9207 l -1.4059,42.8802 c -0.075,2.2916 -48.6057,6.0458 -71.7013,13.7076 -20.888,6.9295 -41.0913,16.6089 -59.3995,28.8211 -21.6112,14.4154 -34.1834,42.1245 -58.3452,51.667 -35.6461,14.0783 -83.6721,-19.0089 -114.9329,3.1633 -50.9362,36.1272 -53.8674,113.9378 -66.7806,175.0355 -33.9635,160.6954 -17.4106,328.0294 -25.6578,492.0675 -4.2583,84.6981 -1.723,255.0058 -12.3017,254.1177 -10.4207,-0.8749 -18.1282,-218.7497 -24.9548,-328.2793 -7.3477,-117.8899 -3.5614,-236.6111 -17.2224,-353.9371 -5.0575,-43.4357 -5.4675,-100.8099 -23.9004,-128.992 -4.9202,-7.5225 -9.001,-3.1278 -30.6208,-55.3734 -10.4595,-25.2761 -32.6907,-46.888 -53.3822,-56.7477 -16.5116,-7.8679 -36.7229,4.6881 -54.8304,2.1088 -42.4852,-6.0517 -23.6057,-47.3334 -154.2983,-31.6329 -91.4707,10.9886 -150.5908,43.5829 -153.2439,55.5334 z"
       id="path940"
       sodipodi:nodetypes="sasaasaasaasaaaasaasaaaassaaaaaasaassssss" />
  </g>
  <text
     xml:space="preserve"
     style="font-style:italic;font-weight:bold;font-size:48px;line-height:1.25;font-family:sans-serif;-inkscape-font-specification:'sans-serif Bold Italic';letter-spacing:0px"
     x="759.18988"
     y="5393.0601"
     id="text857"><tspan
       sodipodi:role="line"
       id="tspan855"
       x="759.18988"
       y="5393.0601">comment: Imprecise y-axis labeling and broad CV line.</tspan></text>
  <text
     xml:space="preserve"
     style="font-style:italic;font-weight:bold;font-size:48px;line-height:1.25;font-family:sans-serif;-inkscape-font-specification:'sans-serif Bold Italic';letter-spacing:0px"
     x="795.74347"
     y="5159.6797"
     id="text861"><tspan
       sodipodi:role="line"
       id="tspan859"
       x="795.74347"
       y="5159.6797">tags: BCV</tspan></text>
  <text
     xml:space="preserve"
     style="font-style:italic;font-weight:bold;font-size:48px;line-height:1.25;font-family:sans-serif;-inkscape-font-specification:'sans-serif Bold Italic';letter-spacing:0px"
     x="770.43713"
     y="5232.7866"
     id="text865"><tspan
       sodipodi:role="line"
       id="tspan863"
       x="770.43713"
       y="5232.7866">Figure: 4b</tspan></text>
</svg>
