<?xml version="1.0" encoding="UTF-8" standalone="no"?>
<svg
   xmlns:dc="http://purl.org/dc/elements/1.1/"
   xmlns:cc="http://creativecommons.org/ns#"
   xmlns:rdf="http://www.w3.org/1999/02/22-rdf-syntax-ns#"
   xmlns:svg="http://www.w3.org/2000/svg"
   xmlns="http://www.w3.org/2000/svg"
   xmlns:xlink="http://www.w3.org/1999/xlink"
   xmlns:sodipodi="http://sodipodi.sourceforge.net/DTD/sodipodi-0.dtd"
   xmlns:inkscape="http://www.inkscape.org/namespaces/inkscape"
   height="6601px"
   version="1.1"
   width="4800px"
   id="svg6"
   sodipodi:docname="nishihara_1994_underpotential_75_p2_f3b.svg"
   inkscape:version="1.0.2-2 (e86c870879, 2021-01-15)">
  <metadata
     id="metadata10">
    <rdf:RDF>
      <cc:Work
         rdf:about="">
        <dc:format>image/svg+xml</dc:format>
        <dc:type
           rdf:resource="http://purl.org/dc/dcmitype/StillImage" />
      </cc:Work>
    </rdf:RDF>
  </metadata>
  <sodipodi:namedview
     pagecolor="#ffffff"
     bordercolor="#666666"
     borderopacity="1"
     objecttolerance="10"
     gridtolerance="10"
     guidetolerance="10"
     inkscape:pageopacity="0"
     inkscape:pageshadow="2"
     inkscape:window-width="1920"
     inkscape:window-height="991"
     id="namedview8"
     showgrid="false"
     inkscape:zoom="0.35564226"
     inkscape:cx="3078.3981"
     inkscape:cy="3011.3871"
     inkscape:window-x="-9"
     inkscape:window-y="-9"
     inkscape:window-maximized="1"
     inkscape:current-layer="svg6"
     inkscape:document-rotation="0" />
  <defs
     id="defs2" />
  <image
     sodipodi:absref="C:\Users\tobia\ownCloud3\PPS\digitizer\push\nishihara_1994_underpotential_75\Nishihara_1994_underpotential_75_p2.png"
     xlink:href="Nishihara_1994_underpotential_75_p2.png"
     height="6601px"
     sodipodi:insensitive="true"
     width="4800px"
     x="0"
     y="0"
     id="image4" />
  <g
     id="g878"
     transform="translate(2192.688,-1380.7765)">
    <text
       xml:space="preserve"
       style="font-style:italic;font-weight:bold;font-size:48px;line-height:1.25;font-family:sans-serif;-inkscape-font-specification:'sans-serif Bold Italic';letter-spacing:0px"
       x="497.06326"
       y="5960.7827"
       id="text841"><tspan
         sodipodi:role="line"
         id="tspan839"
         x="497.06326"
         y="5960.7827">j1: 0.0 V vs RHE</tspan></text>
    <path
       style="fill:none;stroke:#000000;stroke-width:1px;stroke-linecap:butt;stroke-linejoin:miter;stroke-opacity:1"
       d="m 514.21056,5698.8448 -22.14304,247.4397"
       id="path851" />
  </g>
  <g
     id="g883"
     transform="translate(2187.8742,-1368.9637)">
    <text
       xml:space="preserve"
       style="font-style:italic;font-weight:bold;font-size:48px;line-height:1.25;font-family:sans-serif;-inkscape-font-specification:'sans-serif Bold Italic';letter-spacing:0px"
       x="2002.1708"
       y="6036.3364"
       id="text837"><tspan
         sodipodi:role="line"
         id="tspan835"
         x="2002.1708"
         y="6036.3364">j2: 0.8 vs RHE</tspan></text>
    <path
       style="fill:none;stroke:#000000;stroke-width:1px;stroke-linecap:butt;stroke-linejoin:miter;stroke-opacity:1"
       d="m 2033.9962,5706.4016 -36.905,315.8018"
       id="path853" />
  </g>
  <g
     id="g868"
     transform="translate(2335.263,-2098.9583)">
    <text
       xml:space="preserve"
       style="font-style:italic;font-weight:bold;font-size:48px;line-height:1.25;font-family:sans-serif;-inkscape-font-specification:'sans-serif Bold Italic';letter-spacing:0px"
       x="592.68207"
       y="4705.6333"
       id="text849"><tspan
         sodipodi:role="line"
         id="tspan847"
         x="592.68207"
         y="4705.6333">j2: 283.5 nA / cm2</tspan></text>
    <path
       style="fill:none;stroke:#000000;stroke-width:1px;stroke-linecap:butt;stroke-linejoin:miter;stroke-opacity:1"
       d="m 584.85739,4692.2152 373.85336,211.4381"
       id="path861" />
  </g>
  <g
     id="g866"
     transform="translate(0,244.55512)">
    <text
       xml:space="preserve"
       style="font-style:italic;font-weight:bold;font-size:48px;line-height:1.25;font-family:sans-serif;-inkscape-font-specification:'sans-serif Bold Italic';letter-spacing:0px"
       x="2784.6665"
       y="3137.7393"
       id="text845"><tspan
         sodipodi:role="line"
         id="tspan843"
         x="2784.6665"
         y="3137.7393">j1: 0 nA / cm2</tspan></text>
    <path
       style="fill:none;stroke:#000000;stroke-width:1.21673px;stroke-linecap:butt;stroke-linejoin:miter;stroke-opacity:1"
       d="M 3295.7505,2938.5224 2767.8031,3132.67"
       id="path863" />
  </g>
  <text
     xml:space="preserve"
     style="font-style:italic;font-weight:bold;font-size:48px;line-height:1.25;font-family:sans-serif;-inkscape-font-specification:'sans-serif Bold Italic';letter-spacing:0px"
     x="2901.5701"
     y="4089.1833"
     id="text891"><tspan
       sodipodi:role="line"
       x="2901.5701"
       y="4089.1833"
       id="tspan893">scan rate: 20 mV / s</tspan></text>
  <g
     id="g873">
    <text
       xml:space="preserve"
       style="font-style:italic;font-weight:bold;font-size:48px;line-height:1.25;font-family:sans-serif;-inkscape-font-specification:'sans-serif Bold Italic';letter-spacing:0px"
       x="2775.9207"
       y="3711.8542"
       id="text887"><tspan
         sodipodi:role="line"
         id="tspan885"
         x="2775.9207"
         y="3711.8542">curve: solid)</tspan></text>
    <path
       style="fill:none;stroke:#1db200;stroke-width:1px;stroke-linecap:butt;stroke-linejoin:miter;stroke-opacity:1"
       d="m 3288.0734,3467.5132 0.497,-193.3576 c 0.1103,-42.9005 7.4887,-91.0966 35.2915,-123.7688 13.5292,-15.8987 67.6826,-32.9339 103.8862,-42.2503 26.0133,-6.6941 56.7589,3.9757 80.0272,-9.4442 37.6329,-21.7046 59.5227,-65.0835 78.0389,-104.3833 11.3718,-24.1361 25.8048,-68.6479 33.3033,-70.0859 14.5916,-2.7982 33.759,39.5816 53.1858,32.3091 28.538,-10.6833 42.3541,-75.8035 49.2092,-117.804 9.4461,-57.8757 14.2618,-123.4303 25.8473,-184.4105 3.4354,-18.0821 4.8759,-37.1299 12.9236,-53.6828 1.771,-3.6427 11.8086,-6.8969 15.409,-12.4266 9.2768,-14.2477 16.0177,-123.4247 21.3737,-185.4046 6.687,-77.3824 9.6071,-155.0485 13.4207,-232.6256 3.6069,-73.3716 5.2232,-146.8332 8.9472,-220.199 2.6255,-51.7237 1.8788,-154.6872 9.4442,-155.0837 9.5947,-0.5028 10.1636,227.6069 12.9236,341.4824 1.887,77.8548 1.1071,155.7543 2.4853,233.6197 1.5398,86.9991 0.7968,174.1302 6.4619,260.9583 4.1981,64.3432 13.6752,175.794 20.3795,192.3634 7.1597,17.695 15.3648,41.2764 33.8003,46.2269 17.1869,4.6152 110.746,-68.6733 139.6748,-59.6476 16.6476,5.194 31.9089,116.8182 60.6417,169.4986 15.1066,27.6972 31.8221,56.9518 57.6594,75.0565 17.0798,11.9681 59.6055,17.3718 59.6476,18.8884 l 1.9882,71.5771 c 0.047,1.7041 -46.694,18.4503 -65.6123,34.2974 -24.7195,20.7066 -43.9545,48.1067 -59.1506,76.5478 -27.753,51.9428 -46.007,162.006 -56.1681,167.5103 -20.0628,10.8681 -77.6059,-29.1971 -109.851,-11.4325 -53.2836,29.3551 -65.199,104.7927 -81.0213,163.5338 -25.3944,94.2783 -12.4037,194.8847 -19.3855,292.2732 -6.7851,94.6453 -10.3744,282.4003 -21.8707,283.8231 -9.4021,1.1636 -16.6913,-179.7745 -27.3385,-269.4083 -6.9458,-58.4729 -15.0779,-164.7169 -23.834,-175.0368 -5.4646,-6.4405 -17.3139,-5.1102 -22.3929,-11.8589 -11.8134,-15.6972 -15.0194,-95.734 -29.8238,-141.6631 -14.8382,-46.034 -12.0948,-119.6166 -58.6535,-132.7159 -17.0779,-4.8049 -26.2102,33.04 -43.7415,30.3209 -15.0891,-2.3403 -36.4153,-98.8552 -79.5301,-119.7922 -24.0741,-11.6907 -53.7673,1.2993 -80.0272,6.4618 -18.2527,3.5884 -36.0894,9.5687 -53.1858,16.9001 -22.7627,9.7613 -47.832,18.0485 -65.1153,35.7886 -20.1675,20.7005 -39.7684,78.3514 -39.765,77.0448 z"
       id="path868"
       sodipodi:nodetypes="sssaassssassaaasaaasssaassaasaaasassaasaaaas" />
  </g>
  <text
     xml:space="preserve"
     style="font-style:italic;font-weight:bold;font-size:48px;line-height:1.25;font-family:sans-serif;-inkscape-font-specification:'sans-serif Bold Italic';letter-spacing:0px"
     x="2898.8728"
     y="4155.4487"
     id="text857"><tspan
       sodipodi:role="line"
       id="tspan855"
       x="2898.8728"
       y="4155.4487">comment: Imprecise y-axis labeling and broad CV line.</tspan></text>
  <text
     xml:space="preserve"
     style="font-style:italic;font-weight:bold;font-size:48px;line-height:1.25;font-family:sans-serif;-inkscape-font-specification:'sans-serif Bold Italic';letter-spacing:0px"
     x="2902.8494"
     y="3968.553"
     id="text861"><tspan
       sodipodi:role="line"
       id="tspan859"
       x="2902.8494"
       y="3968.553">tags: BCV</tspan></text>
  <text
     xml:space="preserve"
     style="font-style:italic;font-weight:bold;font-size:48px;line-height:1.25;font-family:sans-serif;-inkscape-font-specification:'sans-serif Bold Italic';letter-spacing:0px"
     x="2896.8845"
     y="3857.2107"
     id="text865"><tspan
       sodipodi:role="line"
       id="tspan863"
       x="2896.8845"
       y="3857.2107">Figure: 3b</tspan></text>
</svg>
