<?xml version="1.0" encoding="UTF-8" standalone="no"?>
<svg
   xmlns:dc="http://purl.org/dc/elements/1.1/"
   xmlns:cc="http://creativecommons.org/ns#"
   xmlns:rdf="http://www.w3.org/1999/02/22-rdf-syntax-ns#"
   xmlns:svg="http://www.w3.org/2000/svg"
   xmlns="http://www.w3.org/2000/svg"
   xmlns:xlink="http://www.w3.org/1999/xlink"
   xmlns:sodipodi="http://sodipodi.sourceforge.net/DTD/sodipodi-0.dtd"
   xmlns:inkscape="http://www.inkscape.org/namespaces/inkscape"
   height="6601px"
   version="1.1"
   width="4800px"
   id="svg6"
   sodipodi:docname="nishihara_1994_underpotential_75_p4_f7a.svg"
   inkscape:version="1.0.2-2 (e86c870879, 2021-01-15)">
  <metadata
     id="metadata10">
    <rdf:RDF>
      <cc:Work
         rdf:about="">
        <dc:format>image/svg+xml</dc:format>
        <dc:type
           rdf:resource="http://purl.org/dc/dcmitype/StillImage" />
      </cc:Work>
    </rdf:RDF>
  </metadata>
  <sodipodi:namedview
     pagecolor="#ffffff"
     bordercolor="#666666"
     borderopacity="1"
     objecttolerance="10"
     gridtolerance="10"
     guidetolerance="10"
     inkscape:pageopacity="0"
     inkscape:pageshadow="2"
     inkscape:window-width="1920"
     inkscape:window-height="991"
     id="namedview8"
     showgrid="false"
     inkscape:zoom="0.35907013"
     inkscape:cx="3413.4134"
     inkscape:cy="2196.2162"
     inkscape:window-x="-9"
     inkscape:window-y="-9"
     inkscape:window-maximized="1"
     inkscape:current-layer="svg6"
     inkscape:document-rotation="0" />
  <defs
     id="defs2" />
  <image
     sodipodi:absref="C:\Users\tobia\ownCloud3\PPS\digitizer\push\nishihara_1994_underpotential_75\Nishihara_1994_underpotential_75_p4.png"
     xlink:href="Nishihara_1994_underpotential_75_p4.png"
     id="image4"
     y="0"
     x="0"
     width="4800px"
     sodipodi:insensitive="true"
     height="6601px" />
  <g
     id="g892">
    <text
       xml:space="preserve"
       style="font-style:italic;font-weight:bold;font-size:48px;line-height:1.25;font-family:sans-serif;-inkscape-font-specification:'sans-serif Bold Italic';letter-spacing:0px"
       x="2764.8579"
       y="4003.53"
       id="text841"><tspan
         sodipodi:role="line"
         id="tspan839"
         x="2764.8579"
         y="4003.53">E1: 0.0 V vs RHE</tspan></text>
    <path
       style="fill:none;stroke:#000000;stroke-width:1px;stroke-linecap:butt;stroke-linejoin:miter;stroke-opacity:1"
       d="m 2751.9347,3740.8785 9.7125,242.6748"
       id="path843" />
  </g>
  <g
     id="g887">
    <text
       xml:space="preserve"
       style="font-style:italic;font-weight:bold;font-size:48px;line-height:1.25;font-family:sans-serif;-inkscape-font-specification:'sans-serif Bold Italic';letter-spacing:0px"
       x="4267.4126"
       y="3999.5916"
       id="text837"><tspan
         sodipodi:role="line"
         id="tspan835"
         x="4267.4126"
         y="3999.5916">E2: 0.8 V vs RHE</tspan></text>
    <path
       style="fill:none;stroke:#000000;stroke-width:1px;stroke-linecap:butt;stroke-linejoin:miter;stroke-opacity:1"
       d="m 4259.9048,3750.971 4.5539,226.4663"
       id="path845" />
  </g>
  <g
     id="g871">
    <text
       xml:space="preserve"
       style="font-style:italic;font-weight:bold;font-size:48px;line-height:1.25;font-family:sans-serif;-inkscape-font-specification:'sans-serif Bold Italic';letter-spacing:0px"
       x="3935.1643"
       y="655.86072"
       id="text849"><tspan
         sodipodi:role="line"
         id="tspan847"
         x="3935.1643"
         y="655.86072">j2: 23.0 uA / cm2</tspan></text>
    <path
       style="fill:none;stroke:#000000;stroke-width:1px;stroke-linecap:butt;stroke-linejoin:miter;stroke-opacity:1"
       d="m 3923.2823,640.99806 -138.2452,74.65253"
       id="path859" />
  </g>
  <g
     id="g882">
    <path
       style="fill:none;stroke:#3ffd00;stroke-width:1px;stroke-linecap:butt;stroke-linejoin:miter;stroke-opacity:1"
       d="m 2878.5835,1007.0365 c 5.9977,-38.90576 8.4086,-84.35753 35.9392,-112.49466 12.5338,-12.80999 35.8087,-14.24541 55.5152,-18.12947 14.1616,-2.79118 26.9107,-12.71161 30.6528,-12.77223 7.0659,-0.11447 36.7941,3.89328 73.8033,5.91942 33.6455,1.84198 73.6711,1.59315 101.2034,3.81261 37.2748,3.00483 75.4804,2.29262 111.51,12.30795 10.122,2.81365 25.0174,21.05183 40.9313,29.18467 8.0266,4.10203 52.1599,26.92141 62.9478,25.21647 24.1912,-3.82321 22.8012,-47.42449 53.1704,-50.70876 18.9187,-2.04596 42.4462,7.17352 66.9631,10.309 31.276,3.99992 67.3174,20.60513 74.5783,16.03002 8.031,-5.0604 9.8165,-74.09928 11.1812,-129.85263 0.9199,-37.58151 3.0199,-69.85288 4.8191,-69.78233 2.6391,0.10348 3.2325,40.57434 7.3536,91.78092 5.5112,68.48103 9.1916,147.61595 58.3709,195.73282 51.8661,50.7456 150.3568,42.0589 227.6971,46.7702 45.6043,2.7781 93.5854,4.2736 136.6182,-11.0772 38.6034,-13.7707 53.7471,-52.69281 71.6323,-50.46256 16.1474,2.01355 10.9742,40.32566 46.2779,52.43186 13.9698,4.7905 77.2273,0.9008 98.2174,4.677 l 2.4616,35.4469 c -25.615,8.0126 -105.9363,16.6701 -142.7722,19.4466 -15.3351,1.1559 -40.844,3.5709 -50.5391,21.7609 -12.8514,24.1122 -16.7173,75.8693 -19.8624,75.7181 -4.4233,-0.2126 -7.5429,-46.126 -22.0416,-70.3228 -10.884,-18.1645 -35.4758,-25.3226 -61.1601,-24.9408 -73.3094,1.0897 -147.3935,-4.4713 -219.82,7.631 -63.775,10.6567 -101.7039,54.3201 -110.0331,104.1252 -4.1534,24.8356 -11.8403,73.5865 -15.3637,149.8809 -5.3762,116.4143 -6.0454,251.7584 -8.5137,251.6045 -2.7559,-0.1718 -2.6985,-142.5254 -4.0682,-252.3175 -0.8119,-65.0775 -0.8458,-119.9526 -5.2859,-124.0597 -9.2018,-8.5117 -106.7774,28.3603 -142.0337,22.8928 -25.2957,-3.9228 -30.5588,-48.9105 -55.8781,-52.678 -22.5915,-3.3616 -81.9237,46.6229 -127.0181,58.3397 -28.7733,7.4761 -106.1653,8.615 -172.3721,16.997 -19.7745,2.5035 -36.4638,4.0681 -52.1578,8.4865 -12.813,3.6074 -24.9242,9.4494 -38.614,12.425 -16.2019,3.5216 -52.6213,-28.1194 -84.4326,16.2465 -26.3241,36.7131 -29.5365,89.3681 -38.4008,129.9719 z"
       id="path873"
       sodipodi:nodetypes="csssssssssssssssssssccsssssssssssssssssscc" />
    <text
       xml:space="preserve"
       style="font-style:italic;font-weight:bold;font-size:48px;line-height:1.25;font-family:sans-serif;-inkscape-font-specification:'sans-serif Bold Italic';letter-spacing:0px"
       x="2965.9944"
       y="648.89832"
       id="text877"><tspan
         sodipodi:role="line"
         id="tspan875"
         x="2965.9944"
         y="648.89832">curve: solid</tspan></text>
  </g>
  <text
     xml:space="preserve"
     style="font-style:italic;font-weight:bold;font-size:48px;line-height:1.25;font-family:sans-serif;-inkscape-font-specification:'sans-serif Bold Italic';letter-spacing:0px"
     x="3022.7539"
     y="1728.5299"
     id="text891"><tspan
       sodipodi:role="line"
       id="tspan889"
       x="3022.7539"
       y="1728.5299">scan rate: 20 mV / s</tspan></text>
  <text
     xml:space="preserve"
     style="font-style:italic;font-weight:bold;font-size:48px;line-height:1.25;font-family:sans-serif;-inkscape-font-specification:'sans-serif Bold Italic';letter-spacing:0px"
     x="2865.4031"
     y="1858.031"
     id="text895"><tspan
       sodipodi:role="line"
       id="tspan893"
       x="2865.4031"
       y="1858.031">comment: Imprecise Y-axis labelling. </tspan></text>
  <text
     xml:space="preserve"
     style="font-style:italic;font-weight:bold;font-size:48px;line-height:1.25;font-family:sans-serif;-inkscape-font-specification:'sans-serif Bold Italic';letter-spacing:0px"
     x="4021.679"
     y="447.74283"
     id="text899"><tspan
       sodipodi:role="line"
       id="tspan897"
       x="4021.679"
       y="447.74283">Figure: 7a</tspan></text>
  <text
     xml:space="preserve"
     style="font-style:italic;font-weight:bold;font-size:48px;line-height:1.25;font-family:sans-serif;-inkscape-font-specification:'sans-serif Bold Italic';letter-spacing:0px"
     x="4023.6482"
     y="331.55576"
     id="text903"><tspan
       sodipodi:role="line"
       id="tspan901"
       x="4023.6482"
       y="331.55576">tags: BCV</tspan></text>
  <g
     id="g868">
    <text
       xml:space="preserve"
       style="font-style:italic;font-weight:bold;font-size:48px;line-height:1.25;font-family:sans-serif;-inkscape-font-specification:'sans-serif Bold Italic';letter-spacing:0px"
       x="3882.9905"
       y="953.08289"
       id="text853"><tspan
         sodipodi:role="line"
         id="tspan851"
         x="3882.9905"
         y="953.08289">j1: 0 uA / cm2</tspan></text>
    <path
       style="fill:none;stroke:#000000;stroke-width:1.34619px;stroke-linecap:butt;stroke-linejoin:miter;stroke-opacity:1"
       d="m 3785.2495,1078.2457 92.1233,-138.049"
       id="path860" />
  </g>
</svg>
