<?xml version="1.0" encoding="UTF-8" standalone="no"?>
<svg
   xmlns:dc="http://purl.org/dc/elements/1.1/"
   xmlns:cc="http://creativecommons.org/ns#"
   xmlns:rdf="http://www.w3.org/1999/02/22-rdf-syntax-ns#"
   xmlns:svg="http://www.w3.org/2000/svg"
   xmlns="http://www.w3.org/2000/svg"
   xmlns:xlink="http://www.w3.org/1999/xlink"
   xmlns:sodipodi="http://sodipodi.sourceforge.net/DTD/sodipodi-0.dtd"
   xmlns:inkscape="http://www.inkscape.org/namespaces/inkscape"
   height="6601px"
   version="1.1"
   width="4800px"
   id="svg6"
   sodipodi:docname="nishihara_1994_underpotential_75_p3_f5b.svg"
   inkscape:version="1.0.2-2 (e86c870879, 2021-01-15)">
  <metadata
     id="metadata10">
    <rdf:RDF>
      <cc:Work
         rdf:about="">
        <dc:format>image/svg+xml</dc:format>
        <dc:type
           rdf:resource="http://purl.org/dc/dcmitype/StillImage" />
      </cc:Work>
    </rdf:RDF>
  </metadata>
  <sodipodi:namedview
     pagecolor="#ffffff"
     bordercolor="#666666"
     borderopacity="1"
     objecttolerance="10"
     gridtolerance="10"
     guidetolerance="10"
     inkscape:pageopacity="0"
     inkscape:pageshadow="2"
     inkscape:window-width="1920"
     inkscape:window-height="991"
     id="namedview8"
     showgrid="false"
     inkscape:zoom="0.35564225"
     inkscape:cx="3583.412"
     inkscape:cy="3651.8401"
     inkscape:window-x="-9"
     inkscape:window-y="-9"
     inkscape:window-maximized="1"
     inkscape:current-layer="svg6"
     inkscape:document-rotation="0" />
  <defs
     id="defs2" />
  <image
     sodipodi:absref="C:\Users\tobia\ownCloud3\PPS\digitizer\push\nishihara_1994_underpotential_75\Nishihara_1994_underpotential_75_p3.png"
     xlink:href="Nishihara_1994_underpotential_75_p3.png"
     id="image4"
     y="0"
     x="0"
     width="4800px"
     sodipodi:insensitive="true"
     height="6601px" />
  <g
     id="g876">
    <text
       xml:space="preserve"
       style="font-style:italic;font-weight:bold;font-size:48px;line-height:1.25;font-family:sans-serif;-inkscape-font-specification:'sans-serif Bold Italic';letter-spacing:0px"
       x="2696.53"
       y="4397.6777"
       id="text841"><tspan
         sodipodi:role="line"
         id="tspan839"
         x="2696.53"
         y="4397.6777">E1: 0.0 V vs RHE</tspan></text>
    <path
       style="fill:none;stroke:#000000;stroke-width:1px;stroke-linecap:butt;stroke-linejoin:miter;stroke-opacity:1"
       d="m 2772.8005,4086.6207 -79.7853,294.1861"
       id="path851" />
  </g>
  <g
     id="g881">
    <text
       xml:space="preserve"
       style="font-style:italic;font-weight:bold;font-size:48px;line-height:1.25;font-family:sans-serif;-inkscape-font-specification:'sans-serif Bold Italic';letter-spacing:0px"
       x="4288.0171"
       y="4366.7476"
       id="text837"><tspan
         sodipodi:role="line"
         id="tspan835"
         x="4288.0171"
         y="4366.7476">E2: 0.8 V vs RHE</tspan></text>
    <path
       style="fill:none;stroke:#000000;stroke-width:1px;stroke-linecap:butt;stroke-linejoin:miter;stroke-opacity:1"
       d="m 4278.2635,4093.2988 6.9188,257.4959"
       id="path853" />
  </g>
  <g
     id="g866">
    <text
       xml:space="preserve"
       style="font-style:italic;font-weight:bold;font-size:48px;line-height:1.25;font-family:sans-serif;-inkscape-font-specification:'sans-serif Bold Italic';letter-spacing:0px"
       x="3159.0732"
       y="1850.1737"
       id="text845"><tspan
         sodipodi:role="line"
         id="tspan843"
         x="3159.0732"
         y="1850.1737">j2: 1188 mA / cm2</tspan></text>
    <path
       style="fill:none;stroke:#000000;stroke-width:1px;stroke-linecap:butt;stroke-linejoin:miter;stroke-opacity:1"
       d="M 3618.1234,2001.9223 3152.7469,1833.303"
       id="path859" />
  </g>
  <g
     id="g871"
     transform="translate(0,628.66012)">
    <text
       xml:space="preserve"
       style="font-style:italic;font-weight:bold;font-size:48px;line-height:1.25;font-family:sans-serif;-inkscape-font-specification:'sans-serif Bold Italic';letter-spacing:0px"
       x="3270.1401"
       y="2323.9648"
       id="text849"><tspan
         sodipodi:role="line"
         id="tspan847"
         x="3270.1401"
         y="2323.9648">j1: 0 mA / cm2</tspan></text>
    <path
       style="fill:none;stroke:#000000;stroke-width:1px;stroke-linecap:butt;stroke-linejoin:miter;stroke-opacity:1"
       d="m 3264.5165,2309.2026 354.8158,-180.4834"
       id="path861" />
  </g>
  <text
     xml:space="preserve"
     style="font-style:italic;font-weight:bold;font-size:48px;line-height:1.25;font-family:sans-serif;-inkscape-font-specification:'sans-serif Bold Italic';letter-spacing:0px"
     x="3000.2058"
     y="3371.3655"
     id="text889"><tspan
       sodipodi:role="line"
       x="3000.2058"
       y="3371.3655"
       id="tspan891">scan rate: 20 mV / s</tspan></text>
  <g
     id="g898">
    <text
       xml:space="preserve"
       style="font-style:italic;font-weight:bold;font-size:48px;line-height:1.25;font-family:sans-serif;-inkscape-font-specification:'sans-serif Bold Italic';letter-spacing:0px"
       x="2991.7705"
       y="3247.6455"
       id="text885"><tspan
         sodipodi:role="line"
         id="tspan883"
         x="2991.7705"
         y="3247.6455">curve: solid</tspan></text>
    <path
       style="fill:none;stroke:#56ce04;stroke-width:1px;stroke-linecap:butt;stroke-linejoin:miter;stroke-opacity:1"
       d="m 3525.1726,2825.8046 c -0.7941,-1.9338 -5.3064,-42.8512 5.9648,-59.1505 17.7851,-25.7189 54.7692,-30.6573 84.0036,-41.7533 37.0697,-14.07 92.8522,-16.955 114.8217,-31.0665 26.7549,-17.1852 47.1544,-40.6794 60.6417,-67.8491 30.4716,-61.3837 31.6541,-133.7011 39.268,-201.8077 17.5144,-156.6663 11.9602,-315.084 14.4148,-472.7072 0.8797,-56.4891 7.7964,-515.2934 13.4207,-515.4546 2.6203,-0.075 3.4051,129.9232 8.4501,130.2306 8.38,0.5106 8.3453,-251.7978 12.9236,-251.514 5.2388,0.3248 -1.5432,718.9565 -0.497,913.1052 0.6965,129.2609 2.1821,358.2456 28.8296,386.7152 18.3147,19.567 43.0509,33.2105 68.0977,42.7475 53.0758,20.2095 111.7591,20.4841 168.0074,28.3326 40.2843,5.621 121.3846,6.5367 121.2834,13.4207 l -0.497,33.8003 c -0.072,4.8699 -84.3452,26.6918 -126.7512,39.268 -22.5224,6.6794 -55.2716,21.4203 -83.5871,28.9253 -49.3169,13.0715 -86.0162,14.621 -102.3145,23.7634 -48.536,27.2259 -60.6063,95.8758 -73.0683,150.1131 -12.0823,52.5847 -12.879,258.4592 -18.8884,387.7093 -5.9157,127.2354 -7.8206,381.0474 -16.9002,381.7446 -7.6704,0.589 -2.7418,-321.3556 -11.4575,-320.8117 -11.6556,0.7275 -14.4678,231.1014 -22.3428,231.3403 -10.8938,0.3304 -8.8815,-555.6515 -10.4383,-616.8555 -2.7249,-107.1257 -18.6077,-138.1947 -66.6065,-180.931 -19.5392,-17.397 -67.6666,-19.6056 -102.395,-24.8532 -34.4697,-5.2085 -103.5498,-4.432 -104.3833,-6.4618 z"
       id="path893"
       sodipodi:nodetypes="saasaassssssaassssssasssssas" />
  </g>
  <text
     xml:space="preserve"
     style="font-style:italic;font-weight:bold;font-size:48px;line-height:1.25;font-family:sans-serif;-inkscape-font-specification:'sans-serif Bold Italic';letter-spacing:0px"
     x="2986.356"
     y="3483.4192"
     id="text857"><tspan
       sodipodi:role="line"
       id="tspan855"
       x="2986.356"
       y="3483.4192">comment: Imprecise y-axis labeling and broad CV line.</tspan></text>
  <text
     xml:space="preserve"
     style="font-style:italic;font-weight:bold;font-size:48px;line-height:1.25;font-family:sans-serif;-inkscape-font-specification:'sans-serif Bold Italic';letter-spacing:0px"
     x="3000.2737"
     y="3723.9978"
     id="text861"><tspan
       sodipodi:role="line"
       id="tspan859"
       x="3000.2737"
       y="3723.9978">Figure: 5b</tspan></text>
  <text
     xml:space="preserve"
     style="font-style:italic;font-weight:bold;font-size:48px;line-height:1.25;font-family:sans-serif;-inkscape-font-specification:'sans-serif Bold Italic';letter-spacing:0px"
     x="3038.0505"
     y="3616.6323"
     id="text865"><tspan
       sodipodi:role="line"
       id="tspan863"
       x="3038.0505"
       y="3616.6323">tags: BCV</tspan></text>
</svg>
