<?xml version="1.0" encoding="UTF-8" standalone="no"?>
<svg
   height="6601px"
   version="1.1"
   width="4800px"
   id="svg6"
   sodipodi:docname="nishihara_1994_underpotential_75_f5a_solid.svg"
   inkscape:version="1.2 (dc2aedaf03, 2022-05-15)"
   xmlns:inkscape="http://www.inkscape.org/namespaces/inkscape"
   xmlns:sodipodi="http://sodipodi.sourceforge.net/DTD/sodipodi-0.dtd"
   xmlns:xlink="http://www.w3.org/1999/xlink"
   xmlns="http://www.w3.org/2000/svg"
   xmlns:svg="http://www.w3.org/2000/svg"
   xmlns:rdf="http://www.w3.org/1999/02/22-rdf-syntax-ns#"
   xmlns:cc="http://creativecommons.org/ns#"
   xmlns:dc="http://purl.org/dc/elements/1.1/">
  <metadata
     id="metadata10">
    <rdf:RDF>
      <cc:Work
         rdf:about="">
        <dc:format>image/svg+xml</dc:format>
        <dc:type
           rdf:resource="http://purl.org/dc/dcmitype/StillImage" />
      </cc:Work>
    </rdf:RDF>
  </metadata>
  <sodipodi:namedview
     pagecolor="#ffffff"
     bordercolor="#666666"
     borderopacity="1"
     objecttolerance="10"
     gridtolerance="10"
     guidetolerance="10"
     inkscape:pageopacity="0"
     inkscape:pageshadow="2"
     inkscape:window-width="3456"
     inkscape:window-height="2036"
     id="namedview8"
     showgrid="false"
     inkscape:zoom="0.50780186"
     inkscape:cx="3522.043"
     inkscape:cy="2157.3375"
     inkscape:window-x="-12"
     inkscape:window-y="-12"
     inkscape:window-maximized="1"
     inkscape:current-layer="svg6"
     inkscape:document-rotation="0"
     inkscape:showpageshadow="2"
     inkscape:pagecheckerboard="0"
     inkscape:deskcolor="#d1d1d1" />
  <defs
     id="defs2" />
  <image
     xlink:href="nishihara_1994_underpotential_75_p3.png"
     height="6601px"
     sodipodi:insensitive="true"
     width="4800px"
     x="0"
     y="0"
     id="image4" />
  <g
     id="g867">
    <text
       xml:space="preserve"
       style="font-style:italic;font-weight:bold;font-size:48px;line-height:1.25;font-family:sans-serif;-inkscape-font-specification:'sans-serif Bold Italic';letter-spacing:0px"
       x="3870.6042"
       y="579.95062"
       id="text845"><tspan
         sodipodi:role="line"
         id="tspan843"
         x="3870.6042"
         y="579.95062">j2: 21.5 uA / cm2</tspan></text>
    <path
       style="fill:none;stroke:#000000;stroke-width:1px;stroke-linecap:butt;stroke-linejoin:miter;stroke-opacity:1"
       d="m 3715.7703,698.47619 c 0,0 143.8518,-135.21575 142.8074,-134.17138"
       id="path855" />
  </g>
  <g
     id="g319">
    <text
       xml:space="preserve"
       style="font-style:italic;font-weight:bold;font-size:48px;line-height:1.25;font-family:sans-serif;-inkscape-font-specification:'sans-serif Bold Italic';letter-spacing:0px"
       x="3936.814"
       y="1277.314"
       id="text849"><tspan
         sodipodi:role="line"
         id="tspan847"
         x="3936.814"
         y="1277.314">j1: 0 uA / cm2</tspan></text>
    <path
       style="fill:none;stroke:#000000;stroke-width:1px;stroke-linecap:butt;stroke-linejoin:miter;stroke-opacity:1"
       d="m 3714.1943,1042.2755 202.8677,224.8864"
       id="path858" />
  </g>
  <g
     id="g881">
    <text
       xml:space="preserve"
       style="font-style:italic;font-weight:bold;font-size:48px;line-height:1.25;font-family:sans-serif;-inkscape-font-specification:'sans-serif Bold Italic';letter-spacing:0px"
       x="2764.8579"
       y="4377.6919"
       id="text837"><tspan
         sodipodi:role="line"
         id="tspan835"
         x="2764.8579"
         y="4377.6919">E1: 0.0 V vs RHE</tspan></text>
    <path
       style="fill:none;stroke:#000000;stroke-width:1px;stroke-linecap:butt;stroke-linejoin:miter;stroke-opacity:1"
       d="m 2772.7351,4087.7165 -14.7696,270.7749"
       id="path869" />
  </g>
  <g
     id="g876">
    <text
       xml:space="preserve"
       style="font-style:italic;font-weight:bold;font-size:48px;line-height:1.25;font-family:sans-serif;-inkscape-font-specification:'sans-serif Bold Italic';letter-spacing:0px"
       x="4352.0913"
       y="4356.0298"
       id="text841"><tspan
         sodipodi:role="line"
         id="tspan839"
         x="4352.0913"
         y="4356.0298">E2: 0.8 V vs RHE</tspan></text>
    <path
       style="fill:none;stroke:#000000;stroke-width:1px;stroke-linecap:butt;stroke-linejoin:miter;stroke-opacity:1"
       d="m 4278.064,4092.5153 71.3649,243.3369"
       id="path871" />
  </g>
  <g
     id="g908">
    <path
       style="fill:none;stroke:#00de0a;stroke-width:1px;stroke-linecap:butt;stroke-linejoin:miter;stroke-opacity:1"
       d="m 2889.6606,902.41893 c 2.9052,-31.67291 17.357,-57.2797 33.4776,-78.52472 7.4649,-9.83786 26.244,-14.90763 40.3666,-39.28556 11.2729,-19.4589 17.9235,-45.99474 26.5341,-45.66916 10.563,0.3994 19.6561,32.26375 46.6505,50.2988 21.9253,14.64837 54.1731,20.15751 75.499,21.11717 39.8466,1.7931 88.3063,13.00157 105.1099,-1.47695 30.6378,-26.39841 30.7902,-189.27937 40.6162,-190.03476 3.3113,-0.25456 7.4513,138.96936 20.1259,198.09597 4.8757,22.74489 14.9269,49.27194 32.0681,67.82771 26.6853,28.8873 67.7682,44.71485 76.301,44.48283 34.7258,-0.94426 72.4231,-60.11687 98.7098,-64.2475 61.7054,-9.69625 88.2594,8.51146 95.0647,4.51533 6.1719,-3.62422 1.4378,-36.64265 15.4607,-36.76216 7.9831,-0.068 40.4714,108.7485 139.8183,145.97229 49.2242,18.44355 140.361,19.20222 216.8661,21.66198 33.5184,1.0777 72.3179,-20.78103 105.8483,-20.18502 32.0189,0.56915 26.1284,20.94612 86.4019,22.64662 37.359,1.054 82.4501,3.7762 112.0023,5.1693 l 2.4616,41.6009 c -37.2036,5.5748 -137.6122,4.4379 -210.7121,16.2465 -15.5027,2.5043 -23.1962,27.0461 -38.8931,26.5852 -17.9484,-0.527 -28.2911,-33.0123 -103.3868,-32.0007 -72.3105,0.9741 -171.2993,2.0987 -214.8968,29.7853 -22.8204,14.4921 -37.6262,24.4886 -63.0911,64.9666 -13.6586,21.7112 -26.1964,40.3801 -33.005,57.8951 -7.3685,18.9552 -6.6095,35.8578 -9.9985,35.6647 -7.764,-0.4423 -5.047,-61.5445 -9.8463,-64.7399 -11.0925,-7.3854 -48.192,14.5081 -92.3097,0.4924 -39.0189,-12.3959 -70.1642,-66.1593 -102.156,-68.1861 -13.6558,-0.8651 -46.915,18.074 -63.6673,30.1754 -15.3842,11.1131 -24.7172,26.3936 -33.0731,39.9799 -13.9174,22.6291 -21.7407,57.378 -25.5152,92.4615 -4.2628,39.6235 -8.9448,144.6144 -12.6395,144.8358 -7.5062,0.4498 -6.741,-122.255 -23.842,-169.0058 -4.8049,-13.1356 -20.3619,-32.2823 -30.5591,-34.0754 -51.2354,-9.0091 -131.2733,9.6356 -154.5879,21.4159 -28.0885,14.1924 -48.7708,70.7458 -61.7859,71.3861 -12.5698,0.6184 -12.8522,-52.3981 -47.7549,-52.1857 -16.5953,0.101 -34.1585,38.12 -42.8316,66.2167 z"
       id="path883"
       sodipodi:nodetypes="csssssssssssssssssccssssssssssssssssssscc" />
    <text
       xml:space="preserve"
       style="font-style:italic;font-weight:bold;font-size:48px;line-height:1.25;font-family:sans-serif;-inkscape-font-specification:'sans-serif Bold Italic';letter-spacing:0px"
       x="2897.7627"
       y="629.4035"
       id="text887"><tspan
         sodipodi:role="line"
         id="tspan885"
         x="2897.7627"
         y="629.4035">curve: solid</tspan></text>
  </g>
  <text
     xml:space="preserve"
     style="font-style:italic;font-weight:bold;font-size:48px;line-height:1.25;font-family:sans-serif;-inkscape-font-specification:'sans-serif Bold Italic';letter-spacing:0px"
     x="2986.8816"
     y="1643.1331"
     id="text891"><tspan
       sodipodi:role="line"
       id="tspan889"
       x="2986.8816"
       y="1643.1331">scan rate: 20 mV / s</tspan></text>
  <text
     xml:space="preserve"
     style="font-style:italic;font-weight:bold;font-size:48px;line-height:1.25;font-family:sans-serif;-inkscape-font-specification:'sans-serif Bold Italic';letter-spacing:0px"
     x="2854.5955"
     y="1769.8492"
     id="text895"><tspan
       sodipodi:role="line"
       id="tspan893"
       x="2854.5955"
       y="1769.8492">comment: Imprecise y-axis labeling and broad CV line.</tspan></text>
  <text
     xml:space="preserve"
     style="font-style:italic;font-weight:bold;font-size:48px;line-height:1.25;font-family:sans-serif;-inkscape-font-specification:'sans-serif Bold Italic';letter-spacing:0px"
     x="3985.8066"
     y="362.34607"
     id="text899"><tspan
       sodipodi:role="line"
       id="tspan897"
       x="3985.8066"
       y="362.34607">Figure: 5a</tspan></text>
  <text
     xml:space="preserve"
     style="font-style:italic;font-weight:bold;font-size:48px;line-height:1.25;font-family:sans-serif;-inkscape-font-specification:'sans-serif Bold Italic';letter-spacing:0px"
     x="3987.7759"
     y="246.15901"
     id="text903"><tspan
       sodipodi:role="line"
       id="tspan901"
       x="3987.7759"
       y="246.15901">tags: BCV</tspan></text>
</svg>
