<?xml version="1.0" encoding="UTF-8" standalone="no"?>
<svg
   xmlns:dc="http://purl.org/dc/elements/1.1/"
   xmlns:cc="http://creativecommons.org/ns#"
   xmlns:rdf="http://www.w3.org/1999/02/22-rdf-syntax-ns#"
   xmlns:svg="http://www.w3.org/2000/svg"
   xmlns="http://www.w3.org/2000/svg"
   xmlns:xlink="http://www.w3.org/1999/xlink"
   xmlns:sodipodi="http://sodipodi.sourceforge.net/DTD/sodipodi-0.dtd"
   xmlns:inkscape="http://www.inkscape.org/namespaces/inkscape"
   height="6601px"
   version="1.1"
   width="4800px"
   id="svg6"
   sodipodi:docname="nishihara_1994_underpotential_75_p1_f1b.svg"
   inkscape:version="1.0.2-2 (e86c870879, 2021-01-15)">
  <metadata
     id="metadata10">
    <rdf:RDF>
      <cc:Work
         rdf:about="">
        <dc:format>image/svg+xml</dc:format>
        <dc:type
           rdf:resource="http://purl.org/dc/dcmitype/StillImage" />
      </cc:Work>
    </rdf:RDF>
  </metadata>
  <sodipodi:namedview
     pagecolor="#ffffff"
     bordercolor="#666666"
     borderopacity="1"
     objecttolerance="10"
     gridtolerance="10"
     guidetolerance="10"
     inkscape:pageopacity="0"
     inkscape:pageshadow="2"
     inkscape:window-width="1920"
     inkscape:window-height="991"
     id="namedview8"
     showgrid="false"
     inkscape:zoom="0.35564225"
     inkscape:cx="3958.4071"
     inkscape:cy="3315.5938"
     inkscape:window-x="-9"
     inkscape:window-y="-9"
     inkscape:window-maximized="1"
     inkscape:current-layer="svg6"
     inkscape:document-rotation="0" />
  <defs
     id="defs2" />
  <image
     sodipodi:absref="C:\Users\tobia\ownCloud3\PPS\digitizer\push\nishihara_1994_underpotential_75\Nishihara_1994_underpotential_75_p1.png"
     xlink:href="Nishihara_1994_underpotential_75_p1.png"
     id="image4"
     y="0"
     x="0"
     width="4800px"
     sodipodi:insensitive="true"
     height="6601px" />
  <g
     id="g867">
    <text
       xml:space="preserve"
       style="font-style:italic;font-weight:bold;font-size:48px;line-height:1.25;font-family:sans-serif;-inkscape-font-specification:'sans-serif Bold Italic';letter-spacing:0px"
       x="2539.0684"
       y="3312.3174"
       id="text849"><tspan
         sodipodi:role="line"
         id="tspan847"
         x="2539.0684"
         y="3312.3174">j2: 0 nA / cm2</tspan></text>
    <path
       style="fill:none;stroke:#000000;stroke-width:1px;stroke-linecap:butt;stroke-linejoin:miter;stroke-opacity:1"
       d="m 3184.9328,3436.9439 -660.8456,-137.438"
       id="path855" />
  </g>
  <g
     id="g862">
    <text
       xml:space="preserve"
       style="font-style:italic;font-weight:bold;font-size:48px;line-height:1.25;font-family:sans-serif;-inkscape-font-specification:'sans-serif Bold Italic';letter-spacing:0px"
       x="2488.4558"
       y="3840.9385"
       id="text845"><tspan
         sodipodi:role="line"
         id="tspan843"
         x="2488.4558"
         y="3840.9385">j1: 124 nA / cm2</tspan></text>
    <path
       style="fill:none;stroke:#000000;stroke-width:1px;stroke-linecap:butt;stroke-linejoin:miter;stroke-opacity:1"
       d="m 3183.3254,3628.6465 -709.9386,193.7699"
       id="path857" />
  </g>
  <g
     id="g881">
    <text
       xml:space="preserve"
       style="font-style:italic;font-weight:bold;font-size:48px;line-height:1.25;font-family:sans-serif;-inkscape-font-specification:'sans-serif Bold Italic';letter-spacing:0px"
       x="4330.1943"
       y="4552.3276"
       id="text837"><tspan
         sodipodi:role="line"
         id="tspan835"
         x="4330.1943"
         y="4552.3276">E2: 0.8 V vs RHE</tspan></text>
    <path
       style="fill:none;stroke:#000000;stroke-width:1px;stroke-linecap:butt;stroke-linejoin:miter;stroke-opacity:1"
       d="m 4242.325,4290.1258 83.6165,245.5764"
       id="path869" />
  </g>
  <g
     id="g876">
    <text
       xml:space="preserve"
       style="font-style:italic;font-weight:bold;font-size:48px;line-height:1.25;font-family:sans-serif;-inkscape-font-specification:'sans-serif Bold Italic';letter-spacing:0px"
       x="2721.8362"
       y="4512.9619"
       id="text841"><tspan
         sodipodi:role="line"
         id="tspan839"
         x="2721.8362"
         y="4512.9619">E1: 0.0 V vs RHE</tspan></text>
    <path
       style="fill:none;stroke:#000000;stroke-width:1px;stroke-linecap:butt;stroke-linejoin:miter;stroke-opacity:1"
       d="m 2745.7367,4279.933 -30.9299,214.7523"
       id="path871" />
  </g>
  <text
     xml:space="preserve"
     style="font-style:italic;font-weight:bold;font-size:48px;line-height:1.25;font-family:sans-serif;-inkscape-font-specification:'sans-serif Bold Italic';letter-spacing:0px"
     x="3857.2109"
     y="2517.1282"
     id="text889"><tspan
       sodipodi:role="line"
       id="tspan887"
       x="3857.2109"
       y="2517.1282">scan rate: 20 mV / s</tspan><tspan
       sodipodi:role="line"
       x="3857.2109"
       y="2577.1282"
       id="tspan891" /></text>
  <g
     id="g865">
    <g
       id="g897"
       transform="translate(-466.76118,289.61688)">
      <text
         xml:space="preserve"
         style="font-style:italic;font-weight:bold;font-size:48px;line-height:1.25;font-family:sans-serif;-inkscape-font-specification:'sans-serif Bold Italic';letter-spacing:0px"
         x="3817.4458"
         y="2421.6921"
         id="text885"><tspan
           sodipodi:role="line"
           id="tspan883"
           x="3817.4458"
           y="2421.6921">curve: solid</tspan></text>
    </g>
    <path
       style="fill:none;stroke:#0cf31d;stroke-width:1px;stroke-linecap:butt;stroke-linejoin:miter;stroke-opacity:1"
       d="m 3219.5275,4168.5148 9.3954,-369.4603 c 1.3001,-51.1252 6.3216,-102.3629 15.906,-152.5985 6.6752,-34.9872 18.1807,-68.903 28.8297,-102.8921 8.914,-28.4513 15.5558,-58.0565 29.3267,-84.5007 15.017,-28.837 30.2618,-60.7725 57.1623,-79.0331 10.6063,-7.1997 25.5491,-4.2749 37.2797,-9.4442 28.133,-12.3974 49.653,-36.7417 77.0448,-50.7004 19.2479,-9.8087 45.608,-7.3511 60.6418,-22.8649 29.6081,-30.5535 28.6873,-80.1394 41.2562,-120.7864 8.7878,-28.4192 9.7452,-73.4632 23.859,-85.9919 23.4401,-20.8074 66.8711,19.7686 93.945,3.9765 29.2515,-17.0623 36.3116,-58.0857 46.2269,-90.4656 17.1553,-56.0234 13.2745,-116.4405 21.3737,-174.4692 3.1065,-22.2574 1.5456,-65.9197 10.4383,-66.6064 16.7553,-1.2939 12.2384,125.583 26.3444,186.8957 12.3354,53.6166 20.1044,111.3468 50.7004,157.072 11.9632,17.8787 27.7442,43.1737 49.2093,41.7534 44.1285,-2.9198 65.1342,-61.1695 88.9743,-98.4186 36.6143,-57.2082 65.9798,-189.2532 80.0272,-187.3928 19.9541,2.6427 24.6177,126.9284 39.268,189.8781 14.0828,60.5114 16.9768,125.8899 46.724,180.434 9.7528,17.8827 28.9842,54.9197 47.2835,71.5081 18.3582,16.6419 35.7686,12.8155 35.726,18.4604 -0.04,5.3662 -1.4912,94.442 -1.4912,94.442 -0.1033,6.2087 -53.0094,15.1785 -71.08,34.2973 -33.2681,35.1977 -40.521,88.2058 -55.6711,134.2071 -26.6997,81.07 -39.2161,236.5668 -61.6358,248.5316 -30.5683,16.3135 -63.6359,-31.6155 -86.4891,-57.6593 -21.4898,-24.4901 -42.7944,-62.3992 -74.0624,-58.6535 -48.4081,5.799 -69.7914,70.9356 -89.9684,115.3187 -30.7288,67.5935 -30.3183,221.6132 -42.2504,218.7078 -13.643,-3.322 -22.047,-91.0937 -36.2856,-135.6982 -11.3993,-35.7101 -10.6444,-81.1732 -39.268,-105.3774 -22.8031,-19.2824 -63.9839,0.8753 -87.9802,-16.9002 -19.1173,-14.1613 -24.7524,-41.9072 -33.3033,-63.127 -10.6041,-26.3151 -23.4127,-58.4346 -49.7063,-69.0918 -19.1869,-7.7768 -40.4377,11.2202 -61.1388,10.9354 -22.8417,-0.3143 -45.3462,-20.8793 -67.1035,-13.9178 -29.0339,9.2897 -45.2918,41.6941 -62.1329,67.1036 -20.4844,30.9064 -34.1416,66.1797 -45.7298,101.4009 -43.4864,132.173 -51.6458,341.1277 -51.6458,341.1277 z"
       id="path893"
       sodipodi:nodetypes="csaaaaaaaasaaasaaaasassssaassaasaaasaaaasc" />
  </g>
  <text
     xml:space="preserve"
     style="font-style:italic;font-weight:bold;font-size:48px;line-height:1.25;font-family:sans-serif;-inkscape-font-specification:'sans-serif Bold Italic';letter-spacing:0px"
     x="3873.1169"
     y="2620.5176"
     id="text855"><tspan
       sodipodi:role="line"
       id="tspan853"
       x="3873.1169"
       y="2620.5176">comment: Imprecise y-axis labeling and broad CV line.</tspan></text>
  <text
     xml:space="preserve"
     style="font-style:italic;font-weight:bold;font-size:48px;line-height:1.25;font-family:sans-serif;-inkscape-font-specification:'sans-serif Bold Italic';letter-spacing:0px"
     x="3801.5398"
     y="2310.3501"
     id="text859"><tspan
       sodipodi:role="line"
       id="tspan857"
       x="3801.5398"
       y="2310.3501">tags: BCV</tspan></text>
  <text
     xml:space="preserve"
     style="font-style:italic;font-weight:bold;font-size:48px;line-height:1.25;font-family:sans-serif;-inkscape-font-specification:'sans-serif Bold Italic';letter-spacing:0px"
     x="3849.3738"
     y="2401.2896"
     id="text869"><tspan
       sodipodi:role="line"
       id="tspan867"
       x="3849.3738"
       y="2401.2896">Figure: 1b</tspan></text>
</svg>
