<?xml version="1.0" encoding="UTF-8" standalone="no"?>
<svg
   xmlns:dc="http://purl.org/dc/elements/1.1/"
   xmlns:cc="http://creativecommons.org/ns#"
   xmlns:rdf="http://www.w3.org/1999/02/22-rdf-syntax-ns#"
   xmlns:svg="http://www.w3.org/2000/svg"
   xmlns="http://www.w3.org/2000/svg"
   xmlns:xlink="http://www.w3.org/1999/xlink"
   xmlns:sodipodi="http://sodipodi.sourceforge.net/DTD/sodipodi-0.dtd"
   xmlns:inkscape="http://www.inkscape.org/namespaces/inkscape"
   height="6601px"
   version="1.1"
   width="4800px"
   id="svg6"
   sodipodi:docname="nishihara_1994_underpotential_75_p3_f4a.svg"
   inkscape:version="1.0.2-2 (e86c870879, 2021-01-15)">
  <metadata
     id="metadata10">
    <rdf:RDF>
      <cc:Work
         rdf:about="">
        <dc:format>image/svg+xml</dc:format>
        <dc:type
           rdf:resource="http://purl.org/dc/dcmitype/StillImage" />
      </cc:Work>
    </rdf:RDF>
  </metadata>
  <sodipodi:namedview
     pagecolor="#ffffff"
     bordercolor="#666666"
     borderopacity="1"
     objecttolerance="10"
     gridtolerance="10"
     guidetolerance="10"
     inkscape:pageopacity="0"
     inkscape:pageshadow="2"
     inkscape:window-width="1920"
     inkscape:window-height="991"
     id="namedview8"
     showgrid="false"
     inkscape:zoom="1.0059082"
     inkscape:cx="1159.2584"
     inkscape:cy="2684.9399"
     inkscape:window-x="-9"
     inkscape:window-y="-9"
     inkscape:window-maximized="1"
     inkscape:current-layer="svg6"
     inkscape:document-rotation="0" />
  <defs
     id="defs2" />
  <image
     sodipodi:absref="C:\Users\tobia\ownCloud3\PPS\digitizer\push\nishihara_1994_underpotential_75\Nishihara_1994_underpotential_75_p3.png"
     xlink:href="Nishihara_1994_underpotential_75_p3.png"
     height="6601px"
     sodipodi:insensitive="true"
     width="4800px"
     x="0"
     y="0"
     id="image4" />
  <g
     id="g928">
    <text
       xml:space="preserve"
       style="font-style:italic;font-weight:bold;font-size:48px;line-height:1.25;font-family:sans-serif;-inkscape-font-specification:'sans-serif Bold Italic';letter-spacing:0px"
       x="395.66235"
       y="5966.7471"
       id="text841"><tspan
         sodipodi:role="line"
         id="tspan839"
         x="395.66235"
         y="5966.7471">E1: 0.0 V vs RHE</tspan></text>
    <path
       style="fill:none;stroke:#000000;stroke-width:1px;stroke-linecap:butt;stroke-linejoin:miter;stroke-opacity:1"
       d="M 572.61687,5698.8302 387.70934,5949.8471"
       id="path916" />
  </g>
  <g
     id="g923">
    <text
       xml:space="preserve"
       style="font-style:italic;font-weight:bold;font-size:48px;line-height:1.25;font-family:sans-serif;-inkscape-font-specification:'sans-serif Bold Italic';letter-spacing:0px"
       x="1936.5583"
       y="6034.3477"
       id="text837"><tspan
         sodipodi:role="line"
         id="tspan835"
         x="1936.5583"
         y="6034.3477">E2: 0.8 V vs RHE</tspan></text>
    <path
       style="fill:none;stroke:#000000;stroke-width:1px;stroke-linecap:butt;stroke-linejoin:miter;stroke-opacity:1"
       d="m 1927.6113,6015.4595 151.7254,-320.4809"
       id="path918" />
  </g>
  <text
     xml:space="preserve"
     style="font-style:italic;font-weight:bold;font-size:48px;line-height:1.25;font-family:sans-serif;-inkscape-font-specification:'sans-serif Bold Italic';letter-spacing:0px"
     x="84.852776"
     y="3149.0691"
     id="text936"><tspan
       sodipodi:role="line"
       x="84.852776"
       y="3149.0691"
       id="tspan938">scan rate: 20 mV / s</tspan></text>
  <g
     id="g945">
    <text
       xml:space="preserve"
       style="font-style:italic;font-weight:bold;font-size:48px;line-height:1.25;font-family:sans-serif;-inkscape-font-specification:'sans-serif Bold Italic';letter-spacing:0px"
       x="878.8078"
       y="5038.2329"
       id="text932"><tspan
         sodipodi:role="line"
         id="tspan930"
         x="878.8078"
         y="5038.2329">curve: f4b_Pt(544)</tspan></text>
    <path
       style="fill:none;stroke:#34bc00;stroke-width:1px;stroke-linecap:butt;stroke-linejoin:miter;stroke-opacity:1"
       d="m 1146.1658,4699.5963 c 0,0 -5.5781,-44.1754 0.3515,-65.0232 5.8983,-20.7376 15.0068,-44.5124 33.7418,-55.1819 24.9805,-14.2263 73.9754,-15.1176 111.0667,-22.143 27.3667,-5.1835 55.6918,-6.3534 82.2455,-14.7621 23.2859,-7.3739 46.7243,-14.668 66.4291,-30.9299 8.3294,-6.8741 17.9598,-12.9804 28.4697,-15.465 13.6895,-3.2363 28.181,0 42.1772,1.4059 9.1029,0.916 18.6991,8.2754 27.0637,4.5692 22.0304,-9.7614 33.2964,-50.2704 46.3949,-77.3249 6.9315,-14.3168 8.7715,-30.9475 16.8709,-44.6375 4.3159,-7.295 12.1045,-12.0959 16.5194,-19.3313 10.972,-17.9814 16.0175,-91.6173 21.4401,-137.7789 8.09,-68.8692 13.1316,-138.1114 16.5194,-207.3713 4.076,-83.3314 2.9066,-166.837 4.5692,-250.2515 2.2699,-113.8824 3.9879,-227.7809 7.381,-341.6354 3.6445,-122.29 9.3017,-366.6505 13.9385,-366.768 6.1589,-0.1561 5.6628,318.0846 8.2046,477.1317 3.1698,198.3464 -0.7878,396.9097 8.7869,595.0502 4.5674,94.5191 3.2017,236.7071 23.1975,282.9388 8.9607,20.7177 23.6294,43.3132 44.989,50.6127 33.0504,11.2948 68.9642,-27.2462 102.9827,-19.3312 30.6502,7.1313 48.6123,40.3487 75.5675,56.5877 20.4253,12.3051 41.641,24.3985 64.6717,30.5785 19.1888,5.1491 59.5114,1.5121 59.3996,4.9207 l -1.4059,42.8802 c -0.075,2.2916 -48.6057,6.0458 -71.7013,13.7076 -20.888,6.9295 -41.0913,16.6089 -59.3995,28.8211 -21.6112,14.4154 -34.1834,42.1245 -58.3452,51.667 -35.6461,14.0783 -83.6721,-19.0089 -114.9329,3.1633 -50.9362,36.1272 -53.8674,113.9378 -66.7806,175.0355 -33.9635,160.6954 -17.4106,328.0294 -25.6578,492.0675 -4.2583,84.6981 -1.723,255.0058 -12.3017,254.1177 -10.4207,-0.8749 -18.1282,-218.7497 -24.9548,-328.2793 -7.3477,-117.8899 -3.5614,-236.6111 -17.2224,-353.9371 -5.0575,-43.4357 -5.4675,-100.8099 -23.9004,-128.992 -4.9202,-7.5225 -9.001,-3.1278 -30.6208,-55.3734 -10.4595,-25.2761 -32.6907,-46.888 -53.3822,-56.7477 -16.5116,-7.8679 -36.7229,4.6881 -54.8304,2.1088 -42.4852,-6.0517 -23.6057,-47.3334 -154.2983,-31.6329 -91.4707,10.9886 -150.5908,43.5829 -153.2439,55.5334 z"
       id="path940"
       sodipodi:nodetypes="sasaasaasaasaaaasaasaaaassaaaaaasaassssss" />
  </g>
  <text
     xml:space="preserve"
     style="font-style:italic;font-weight:bold;font-size:48px;line-height:1.25;font-family:sans-serif;-inkscape-font-specification:'sans-serif Bold Italic';letter-spacing:0px"
     x="81.542595"
     y="3236.3982"
     id="text857"><tspan
       sodipodi:role="line"
       id="tspan855"
       x="81.542595"
       y="3236.3982">comment: Imprecise y-axis labeling and broad CV line.</tspan></text>
  <text
     xml:space="preserve"
     style="font-style:italic;font-weight:bold;font-size:48px;line-height:1.25;font-family:sans-serif;-inkscape-font-specification:'sans-serif Bold Italic';letter-spacing:0px"
     x="118.09618"
     y="3003.0178"
     id="text861"><tspan
       sodipodi:role="line"
       id="tspan859"
       x="118.09618"
       y="3003.0178">tags: BCV</tspan></text>
  <text
     xml:space="preserve"
     style="font-style:italic;font-weight:bold;font-size:48px;line-height:1.25;font-family:sans-serif;-inkscape-font-specification:'sans-serif Bold Italic';letter-spacing:0px"
     x="92.789787"
     y="3076.1248"
     id="text865"><tspan
       sodipodi:role="line"
       id="tspan863"
       x="92.789787"
       y="3076.1248">Figure: 4a</tspan></text>
  <g
     id="g867">
    <path
       style="fill:none;stroke:#00ff00;stroke-width:1px;stroke-linecap:butt;stroke-linejoin:miter;stroke-opacity:1"
       d="m 692.40914,2546.2066 c 5.37306,-25.8064 18.50354,-71 45.72982,-79.7786 6.34499,-2.0458 23.93238,-4.3669 38.2579,-10.3341 24.13713,-10.0541 31.53351,-24.3215 35.05893,-28.9339 2.09342,4.4332 4.16292,13.5772 125.75701,45.7298 32.22661,8.5215 84.4752,22.0631 99.1641,12.9236 24.3456,-15.148 25.5566,-176.6818 30.8179,-265.6803 2.5992,-43.9665 5.8606,-465.1363 10.4331,-465.0336 3.3319,0.075 4.0575,411.7573 3.8662,438.9945 -0.1549,22.0509 4.7292,215.4648 11.9758,266.8217 8.8789,62.9253 8.0759,82.0868 59.374,119.8028 28.024,20.6041 77.991,38.1368 98.0621,35.6749 28.0495,-3.4405 78.2029,-101.7937 140.5907,-99.1165 85.4468,3.6666 106.1079,89.414 232.409,108.7084 142.0939,21.7071 388.2636,15.2618 430.8296,18.5156 l 1.4912,30.1966 c -17.024,3.5627 -102.2217,12.5558 -153.9217,13.8185 -31.7504,0.7754 -67.6355,11.7289 -83.3018,12.0288 -84.6778,1.621 -182.5457,-8.2942 -247.9017,13.2077 -20.7198,6.8167 -56.3349,24.0417 -63.7719,31.087 -45.1214,42.7454 -65.9975,56.9176 -106.1037,62.7602 -34.2179,4.9848 -49.5331,0.27 -92.8824,-44.1111 -24.8207,-25.4114 -48.7483,-53.9085 -75.0784,-53.4301 -24.8794,0.4521 -57.6495,19.5434 -85.4596,38.3536 -40.6766,27.5128 -58.6569,86.3569 -56.6272,159.0043 0.2843,10.1766 -3.9005,58.0281 -5.1066,123.0038 -3.3734,181.7289 -7.4257,497.4123 -10.0363,497.4302 -2.766,0.019 -8.2432,-426.058 -11.5235,-484.8279 -5.9501,-106.6037 -7.2548,-199.8888 -40.084,-207.5686 -16.6705,-3.8997 -69.73991,13.4049 -108.4937,23.6951 -65.41885,17.3704 -100.80273,33.9134 -102.71306,44.6046 -7.69949,-15.4747 -40.87749,-35.2772 -61.44861,-28.1933 -48.73645,16.7828 -61.89574,168.4088 -61.89574,168.4088 0,0 -4.36709,-497.2527 2.53255,-497.7625 z"
       id="path858"
       sodipodi:nodetypes="csscssssssssssccsssssssssssssscscc" />
    <text
       xml:space="preserve"
       style="font-style:italic;font-weight:bold;font-size:48px;line-height:1.25;font-family:sans-serif;-inkscape-font-specification:'sans-serif Bold Italic';letter-spacing:0px"
       x="1346.8591"
       y="2437.8433"
       id="text862"><tspan
         sodipodi:role="line"
         id="tspan860"
         x="1346.8591"
         y="2437.8433">curve: solid</tspan></text>
  </g>
  <g
     id="g888">
    <text
       xml:space="preserve"
       style="font-style:italic;font-weight:bold;font-size:48px;line-height:1.25;font-family:sans-serif;-inkscape-font-specification:'sans-serif Bold Italic';letter-spacing:0px"
       x="1458.6288"
       y="2152.4441"
       id="text875"><tspan
         sodipodi:role="line"
         id="tspan873"
         x="1458.6288"
         y="2152.4441">j2: 32.0 uA / cm2</tspan></text>
    <path
       style="fill:none;stroke:#000000;stroke-width:1px;stroke-linecap:butt;stroke-linejoin:miter;stroke-opacity:1"
       d="m 1292.8616,2187.2027 154.8714,-47.4119"
       id="path881" />
  </g>
  <g
     id="g870">
    <text
       xml:space="preserve"
       style="font-style:italic;font-weight:bold;font-size:48px;line-height:1.25;font-family:sans-serif;-inkscape-font-specification:'sans-serif Bold Italic';letter-spacing:0px"
       x="1344.2871"
       y="2893.3464"
       id="text879"><tspan
         sodipodi:role="line"
         id="tspan877"
         x="1344.2871"
         y="2893.3464">j1: 0 uA / cm2</tspan></text>
    <path
       style="fill:none;stroke:#000000;stroke-width:1px;stroke-linecap:butt;stroke-linejoin:miter;stroke-opacity:1"
       d="m 1294.4012,2669.1149 33.8297,211.589"
       id="path862" />
  </g>
</svg>
