<?xml version="1.0" encoding="UTF-8" standalone="no"?>
<svg
   height="6601px"
   version="1.1"
   width="4800px"
   id="svg6"
   sodipodi:docname="nishihara_1994_underpotential_75_f7b_solid.svg"
   inkscape:version="1.2 (dc2aedaf03, 2022-05-15)"
   xmlns:inkscape="http://www.inkscape.org/namespaces/inkscape"
   xmlns:sodipodi="http://sodipodi.sourceforge.net/DTD/sodipodi-0.dtd"
   xmlns:xlink="http://www.w3.org/1999/xlink"
   xmlns="http://www.w3.org/2000/svg"
   xmlns:svg="http://www.w3.org/2000/svg"
   xmlns:rdf="http://www.w3.org/1999/02/22-rdf-syntax-ns#"
   xmlns:cc="http://creativecommons.org/ns#"
   xmlns:dc="http://purl.org/dc/elements/1.1/">
  <metadata
     id="metadata10">
    <rdf:RDF>
      <cc:Work
         rdf:about="">
        <dc:format>image/svg+xml</dc:format>
        <dc:type
           rdf:resource="http://purl.org/dc/dcmitype/StillImage" />
      </cc:Work>
    </rdf:RDF>
  </metadata>
  <sodipodi:namedview
     pagecolor="#ffffff"
     bordercolor="#666666"
     borderopacity="1"
     objecttolerance="10"
     gridtolerance="10"
     guidetolerance="10"
     inkscape:pageopacity="0"
     inkscape:pageshadow="2"
     inkscape:window-width="3456"
     inkscape:window-height="2036"
     id="namedview8"
     showgrid="false"
     inkscape:zoom="0.25147705"
     inkscape:cx="2829.284"
     inkscape:cy="2399.8214"
     inkscape:window-x="-12"
     inkscape:window-y="-12"
     inkscape:window-maximized="1"
     inkscape:current-layer="svg6"
     inkscape:document-rotation="0"
     inkscape:showpageshadow="2"
     inkscape:pagecheckerboard="0"
     inkscape:deskcolor="#d1d1d1" />
  <defs
     id="defs2" />
  <image
     xlink:href="nishihara_1994_underpotential_75_p4.png"
     height="6601px"
     sodipodi:insensitive="true"
     width="4800px"
     x="0"
     y="0"
     id="image4" />
  <g
     id="g854"
     transform="translate(2216.7037,22.708977)">
    <text
       xml:space="preserve"
       style="font-style:italic;font-weight:bold;font-size:48px;line-height:1.25;font-family:sans-serif;-inkscape-font-specification:'sans-serif Bold Italic';letter-spacing:0px"
       x="2063.8718"
       y="4040.5774"
       id="text837"><tspan
         sodipodi:role="line"
         id="tspan835"
         x="2063.8718"
         y="4040.5774">E1: 0.8 V vs RHE</tspan></text>
    <path
       style="fill:none;stroke:#000000;stroke-width:1px;stroke-linecap:butt;stroke-linejoin:miter;stroke-opacity:1"
       d="m 2042.6074,3728.6416 14.9378,296.4707"
       id="path851" />
  </g>
  <g
     id="g859"
     transform="translate(2216.7623,11.934323)">
    <text
       xml:space="preserve"
       style="font-style:italic;font-weight:bold;font-size:48px;line-height:1.25;font-family:sans-serif;-inkscape-font-specification:'sans-serif Bold Italic';letter-spacing:0px"
       x="483.63208"
       y="3989.9646"
       id="text841"><tspan
         sodipodi:role="line"
         id="tspan839"
         x="483.63208"
         y="3989.9646">E2: 0.0 V vs RHE</tspan></text>
    <path
       style="fill:none;stroke:#000000;stroke-width:1px;stroke-linecap:butt;stroke-linejoin:miter;stroke-opacity:1"
       d="m 534.77195,3728.1144 -57.46646,246.3852"
       id="path853" />
  </g>
  <g
     id="g870"
     transform="matrix(1.0175192,0,0,1.0533351,2199.5178,-236.56558)">
    <text
       xml:space="preserve"
       style="font-style:italic;font-weight:bold;font-size:48px;line-height:1.25;font-family:sans-serif;-inkscape-font-specification:'sans-serif Bold Italic';letter-spacing:0px"
       x="885.72156"
       y="2533.4448"
       id="text845"><tspan
         sodipodi:role="line"
         id="tspan843"
         x="885.72156"
         y="2533.4448">j1: 0 nA / cm2</tspan></text>
    <path
       style="fill:none;stroke:#000000;stroke-width:1px;stroke-linecap:butt;stroke-linejoin:miter;stroke-opacity:1"
       d="m 878.80783,2519.1166 497.57527,176.9545"
       id="path859" />
  </g>
  <g
     id="g892"
     transform="translate(2227.4981,-70.612245)">
    <text
       xml:space="preserve"
       style="font-style:italic;font-weight:bold;font-size:48px;line-height:1.25;font-family:sans-serif;-inkscape-font-specification:'sans-serif Bold Italic';letter-spacing:0px"
       x="766.81097"
       y="2965.5085"
       id="text879"><tspan
         sodipodi:role="line"
         id="tspan877"
         x="766.81097"
         y="2965.5085">curve: solid</tspan></text>
    <path
       style="fill:none;stroke:#21c000;stroke-width:1px;stroke-linecap:butt;stroke-linejoin:miter;stroke-opacity:1"
       d="m 1514.6753,2695.2651 c -1.0299,-2.0963 0.6956,-18.1044 2.4603,-23.7246 2.4227,-7.716 8.6812,-14.0777 15.1135,-18.9798 5.7328,-4.369 14.9691,-2.7664 31.2815,-16.8709 15.0781,-13.0373 24.1099,-32.366 31.2814,-50.9641 11.8799,-30.8088 14.504,-64.5554 18.2768,-97.3591 6.3176,-54.9305 5.7175,-110.4487 7.2053,-165.7213 6.3185,-234.7346 5.166,-704.131 7.3061,-704.4208 1.9136,-0.2593 7.8755,792.1702 10.5626,792.0703 3.2294,-0.1201 15.0279,-737.6394 16.6516,-737.6419 2.4744,0 0.1829,418.8122 4.3493,628.1637 1.8732,94.1232 -3.7386,254.6356 9.2827,282.273 5.277,11.2003 9.9921,23.1349 18.2768,32.3359 4.1875,4.6507 15.2892,10.8958 15.2892,10.8958 l -0.5573,58.8811 c -0.019,1.9842 -17.9214,18.401 -24.0461,29.5153 -9.2446,16.7758 -14.8039,35.642 -18.2767,54.4789 -18.4214,99.9195 -10.1923,202.9769 -12.4775,304.5546 -3.5877,159.4729 0.527,478.4751 -1.9331,478.5357 -3.2355,0.08 -3.4305,-293.7037 -9.8413,-440.4005 -1.5951,-36.5007 0.458,-84.7795 -2.1413,-133.3742 -5.185,-96.9344 -7.9299,-195.1783 -19.181,-194.1773 -12.2848,1.093 -8.6542,134.3031 -10.8379,201.5471 -6.2144,191.3673 -3.1948,574.6116 -6.435,574.3686 -3.5159,-0.2636 -4.8524,-377.5548 -9.5572,-566.2846 -1.9485,-78.1632 -2.6595,-213.1479 -7.7325,-234.435 -3.7471,-15.7236 -10.2056,-32.0484 -21.7915,-43.3196 -11.2232,-10.9184 -40.7298,-16.2847 -42.5287,-19.9463 z"
       id="path887"
       sodipodi:nodetypes="ssssaaasssasacsaaassssasasas" />
  </g>
  <g
     id="g891">
    <text
       xml:space="preserve"
       style="font-style:italic;font-weight:bold;font-size:48px;line-height:1.25;font-family:sans-serif;-inkscape-font-specification:'sans-serif Bold Italic';letter-spacing:0px"
       x="3231.3157"
       y="1894.8459"
       id="text849"><tspan
         sodipodi:role="line"
         id="tspan847"
         x="3231.3157"
         y="1894.8459">j2: 1781 nA / cm2</tspan></text>
    <path
       style="fill:none;stroke:#000000;stroke-width:1px;stroke-linecap:butt;stroke-linejoin:miter;stroke-opacity:1"
       d="M 3225.6922,1883.5988 3600.014,2044.889"
       id="path861" />
  </g>
  <text
     xml:space="preserve"
     style="font-style:italic;font-weight:bold;font-size:48px;line-height:1.25;font-family:sans-serif;-inkscape-font-specification:'sans-serif Bold Italic';letter-spacing:0px"
     x="2787.5308"
     y="3161.3223"
     id="text868"><tspan
       sodipodi:role="line"
       id="tspan866"
       x="2787.5308"
       y="3161.3223">comment: Imprecise y-axis labeling.</tspan></text>
  <text
     xml:space="preserve"
     style="font-style:italic;font-weight:bold;font-size:48px;line-height:1.25;font-family:sans-serif;-inkscape-font-specification:'sans-serif Bold Italic';letter-spacing:0px"
     x="2811.3899"
     y="3079.804"
     id="text883"><tspan
       sodipodi:role="line"
       x="2811.3899"
       y="3079.804"
       id="tspan885">scan rate: 20 mV / s</tspan></text>
  <text
     xml:space="preserve"
     style="font-style:italic;font-weight:bold;font-size:48px;line-height:1.25;font-family:sans-serif;-inkscape-font-specification:'sans-serif Bold Italic';letter-spacing:0px"
     x="2867.0608"
     y="3272.6643"
     id="text895"><tspan
       sodipodi:role="line"
       id="tspan893"
       x="2867.0608"
       y="3272.6643">tags: BCV</tspan></text>
  <text
     xml:space="preserve"
     style="font-style:italic;font-weight:bold;font-size:48px;line-height:1.25;font-family:sans-serif;-inkscape-font-specification:'sans-serif Bold Italic';letter-spacing:0px"
     x="2877.0022"
     y="3350.2063"
     id="text899"><tspan
       sodipodi:role="line"
       id="tspan897"
       x="2877.0022"
       y="3350.2063">Figure: 7b</tspan></text>
</svg>
