<?xml version="1.0" encoding="UTF-8" standalone="no"?>
<svg
   xmlns:dc="http://purl.org/dc/elements/1.1/"
   xmlns:cc="http://creativecommons.org/ns#"
   xmlns:rdf="http://www.w3.org/1999/02/22-rdf-syntax-ns#"
   xmlns:svg="http://www.w3.org/2000/svg"
   xmlns="http://www.w3.org/2000/svg"
   xmlns:xlink="http://www.w3.org/1999/xlink"
   xmlns:sodipodi="http://sodipodi.sourceforge.net/DTD/sodipodi-0.dtd"
   xmlns:inkscape="http://www.inkscape.org/namespaces/inkscape"
   height="6601px"
   version="1.1"
   width="4800px"
   id="svg6"
   sodipodi:docname="nishihara_1994_underpotential_75_p1_f1a.svg"
   inkscape:version="1.0.2-2 (e86c870879, 2021-01-15)">
  <metadata
     id="metadata10">
    <rdf:RDF>
      <cc:Work
         rdf:about="">
        <dc:format>image/svg+xml</dc:format>
        <dc:type
           rdf:resource="http://purl.org/dc/dcmitype/StillImage" />
      </cc:Work>
    </rdf:RDF>
  </metadata>
  <sodipodi:namedview
     pagecolor="#ffffff"
     bordercolor="#666666"
     borderopacity="1"
     objecttolerance="10"
     gridtolerance="10"
     guidetolerance="10"
     inkscape:pageopacity="0"
     inkscape:pageshadow="2"
     inkscape:window-width="1920"
     inkscape:window-height="991"
     id="namedview8"
     showgrid="false"
     inkscape:zoom="0.35907012"
     inkscape:cx="3448.2444"
     inkscape:cy="1529.8659"
     inkscape:window-x="-9"
     inkscape:window-y="-9"
     inkscape:window-maximized="1"
     inkscape:current-layer="svg6"
     inkscape:document-rotation="0" />
  <defs
     id="defs2" />
  <image
     sodipodi:absref="C:\Users\tobia\ownCloud3\PPS\digitizer\push\nishihara_1994_underpotential_75\Nishihara_1994_underpotential_75_p1.png"
     xlink:href="Nishihara_1994_underpotential_75_p1.png"
     id="image4"
     y="0"
     x="0"
     width="4800px"
     sodipodi:insensitive="true"
     height="6601px" />
  <g
     id="g905">
    <text
       xml:space="preserve"
       style="font-style:italic;font-weight:bold;font-size:48px;line-height:1.25;font-family:sans-serif;-inkscape-font-specification:'sans-serif Bold Italic';letter-spacing:0px"
       x="3478.4292"
       y="1143.2307"
       id="text849"><tspan
         sodipodi:role="line"
         id="tspan847"
         x="3478.4292"
         y="1143.2307">j2: 42.7 uA / cm2</tspan></text>
    <path
       style="fill:none;stroke:#000000;stroke-width:1px;stroke-linecap:butt;stroke-linejoin:miter;stroke-opacity:1"
       d="m 3399.4056,1239.6603 69.4672,-109.7904"
       id="path893" />
  </g>
  <g
     id="g900"
     transform="translate(0,520.25508)">
    <text
       xml:space="preserve"
       style="font-style:italic;font-weight:bold;font-size:48px;line-height:1.25;font-family:sans-serif;-inkscape-font-specification:'sans-serif Bold Italic';letter-spacing:0px"
       x="3564.7632"
       y="1449.5776"
       id="text853"><tspan
         sodipodi:role="line"
         id="tspan851"
         x="3564.7632"
         y="1449.5776">j1: 0 uA / cm2</tspan></text>
    <path
       style="fill:none;stroke:#000000;stroke-width:1px;stroke-linecap:butt;stroke-linejoin:miter;stroke-opacity:1"
       d="m 3402.5329,1398.4293 146.2168,34.7865"
       id="path895" />
  </g>
  <g
     id="g859">
    <text
       xml:space="preserve"
       style="font-style:italic;font-weight:bold;font-size:48px;line-height:1.25;font-family:sans-serif;-inkscape-font-specification:'sans-serif Bold Italic';letter-spacing:0px"
       x="2584.4534"
       y="4494.9434"
       id="text837"><tspan
         sodipodi:role="line"
         id="tspan835"
         x="2584.4534"
         y="4494.9434">E1: 0.0 V vs RHE</tspan></text>
    <path
       style="fill:none;stroke:#000000;stroke-width:1px;stroke-linecap:butt;stroke-linejoin:miter;stroke-opacity:1"
       d="m 2746.6779,4281.5452 -166.7501,192.8593"
       id="path907" />
  </g>
  <g
     id="g864">
    <text
       xml:space="preserve"
       style="font-style:italic;font-weight:bold;font-size:48px;line-height:1.25;font-family:sans-serif;-inkscape-font-specification:'sans-serif Bold Italic';letter-spacing:0px"
       x="4319.4907"
       y="4547.8579"
       id="text841"><tspan
         sodipodi:role="line"
         id="tspan839"
         x="4319.4907"
         y="4547.8579">E2: 0.8 V vs RHE</tspan></text>
    <path
       style="fill:none;stroke:#000000;stroke-width:1px;stroke-linecap:butt;stroke-linejoin:miter;stroke-opacity:1"
       d="m 4242.2075,4290.9445 71.9753,237.889"
       id="path909" />
  </g>
  <text
     xml:space="preserve"
     style="font-style:italic;font-weight:bold;font-size:48px;line-height:1.25;font-family:sans-serif;-inkscape-font-specification:'sans-serif Bold Italic';letter-spacing:0px"
     x="4145.3179"
     y="413.54715"
     id="text917"><tspan
       sodipodi:role="line"
       id="tspan915"
       x="4145.3179"
       y="413.54715">Figure: 1a</tspan></text>
  <text
     xml:space="preserve"
     style="font-style:italic;font-weight:bold;font-size:48px;line-height:1.25;font-family:sans-serif;-inkscape-font-specification:'sans-serif Bold Italic';letter-spacing:0px"
     x="4157.1333"
     y="303.26791"
     id="text921"><tspan
       sodipodi:role="line"
       id="tspan919"
       x="4157.1333"
       y="303.26791">tags: BCV</tspan></text>
  <text
     xml:space="preserve"
     style="font-style:italic;font-weight:bold;font-size:48px;line-height:1.25;font-family:sans-serif;-inkscape-font-specification:'sans-serif Bold Italic';letter-spacing:0px"
     x="3717.9856"
     y="1051.5913"
     id="text925"><tspan
       sodipodi:role="line"
       id="tspan923"
       x="3717.9856"
       y="1051.5913">scan rate: 20 mV / s</tspan></text>
  <text
     xml:space="preserve"
     style="font-style:italic;font-weight:bold;font-size:48px;line-height:1.25;font-family:sans-serif;-inkscape-font-specification:'sans-serif Bold Italic';letter-spacing:0px"
     x="3672.6924"
     y="1683.7275"
     id="text929"><tspan
       sodipodi:role="line"
       id="tspan927"
       x="3672.6924"
       y="1683.7275">comment: Imprecise Y-axis labelling.</tspan></text>
  <g
     id="g936">
    <text
       xml:space="preserve"
       style="font-style:italic;font-weight:bold;font-size:48px;line-height:1.25;font-family:sans-serif;-inkscape-font-specification:'sans-serif Bold Italic';letter-spacing:0px"
       x="3503.335"
       y="925.55786"
       id="text913"><tspan
         sodipodi:role="line"
         id="tspan911"
         x="3503.335"
         y="925.55786">curve: solid</tspan></text>
    <path
       style="fill:none;stroke:#06f50b;stroke-width:1px;stroke-linecap:butt;stroke-linejoin:miter;stroke-opacity:1"
       d="m 2879.0758,1835.3616 c 7.6711,-55.8539 19.5493,-112.8 45.2932,-162.9573 9.3761,-18.2676 26.0188,-39.611 41.3,-62.5608 19.149,-28.7586 37.0069,-56.5515 45.348,-57.0725 17.7341,-1.1076 49.8273,83.5756 72.3708,111.7562 21.3537,26.6933 62.1909,112.1041 122.0948,111.7562 14.1664,-0.082 28.3877,-34.3867 33.6511,-77.8249 4.9446,-40.8069 9.8887,-89.2555 11.6422,-122.5485 5.6141,-106.5935 7.3758,-221.8574 10.3387,-332.807 2.3531,-88.1155 3.0948,-176.2728 5.9078,-264.37478 4.4187,-138.39002 9.4402,-414.43571 16.4926,-415.76257 3.1459,-0.59187 3.6688,373.23693 5.1694,426.10125 2.0805,73.2956 6.1915,463.811 8.8617,546.9653 1.3247,41.2544 4.9044,134.8821 8.3141,187.5793 5.3939,83.3639 21.0913,125.5374 61.1028,149.6585 19.5631,11.7938 136.5223,10.3834 201.358,3.9386 35.2896,-3.5079 70.6102,-9.4786 105.7836,-15.8647 31.4579,-5.7114 63.7334,-14.709 94.5898,-13.1821 53.8783,2.6661 114.9149,18.1179 183.1417,20.7067 60.4929,2.2953 267.4021,13.1082 288.499,12.2787 l 0.9846,40.37 c -27.4262,2.1027 -180.3593,13.4666 -315.3458,25.7321 -65.2852,5.9322 -122.6385,18.3169 -166.6822,18.01 -39.1223,-0.2725 -87.8556,-11.8199 -121.9735,-19.7862 -32.9559,-7.695 -77.2652,-9.3555 -128.0754,-12.1402 -42.1545,-2.3103 -115.8701,-3.2968 -144.8438,9.422 -28.1114,12.3403 -42.0374,32.2046 -50.1141,74.272 -7.4345,38.7225 -16.6494,233.6482 -20.185,308.1911 -6.237,131.4983 -9.5838,350.5364 -8.8618,394.8391 0.7385,45.3154 -2.5559,112.1224 -5.7336,243.4689 -2.9179,120.6043 -3.9306,241.0464 -6.5743,240.972 -7.0257,-0.1978 -11.0679,-420.9664 -12.308,-463.7636 -1.4022,-48.3926 -3.4702,-277.4328 -9.354,-416.501 -4.0338,-95.3422 4.2695,-279.8848 -54.155,-281.1136 -29.6277,-0.6231 -97.2299,79.1083 -128.495,131.9412 -16.8109,28.4076 -48.7299,103.1377 -64.4936,104.3714 -12.43,0.9728 -43.1393,-79.919 -79.7556,-76.3093 -33.7341,3.3256 -42.5876,131.269 -46.2779,157.5418 z"
       id="path931"
       sodipodi:nodetypes="cssssssssssssssssssccsssssssssssssssscc" />
  </g>
</svg>
