<?xml version="1.0" encoding="UTF-8" standalone="no"?>
<svg
   height="6601px"
   version="1.1"
   width="4800px"
   id="svg6"
   sodipodi:docname="nishihara_1994_underpotential_75_f6b_solid.svg"
   inkscape:version="1.2 (dc2aedaf03, 2022-05-15)"
   xmlns:inkscape="http://www.inkscape.org/namespaces/inkscape"
   xmlns:sodipodi="http://sodipodi.sourceforge.net/DTD/sodipodi-0.dtd"
   xmlns:xlink="http://www.w3.org/1999/xlink"
   xmlns="http://www.w3.org/2000/svg"
   xmlns:svg="http://www.w3.org/2000/svg"
   xmlns:rdf="http://www.w3.org/1999/02/22-rdf-syntax-ns#"
   xmlns:cc="http://creativecommons.org/ns#"
   xmlns:dc="http://purl.org/dc/elements/1.1/">
  <metadata
     id="metadata10">
    <rdf:RDF>
      <cc:Work
         rdf:about="">
        <dc:format>image/svg+xml</dc:format>
        <dc:type
           rdf:resource="http://purl.org/dc/dcmitype/StillImage" />
      </cc:Work>
    </rdf:RDF>
  </metadata>
  <sodipodi:namedview
     pagecolor="#ffffff"
     bordercolor="#666666"
     borderopacity="1"
     objecttolerance="10"
     gridtolerance="10"
     guidetolerance="10"
     inkscape:pageopacity="0"
     inkscape:pageshadow="2"
     inkscape:window-width="3456"
     inkscape:window-height="2036"
     id="namedview8"
     showgrid="false"
     inkscape:zoom="0.50295411"
     inkscape:cx="963.30856"
     inkscape:cy="2277.5438"
     inkscape:window-x="-12"
     inkscape:window-y="-12"
     inkscape:window-maximized="1"
     inkscape:current-layer="svg6"
     inkscape:document-rotation="0"
     inkscape:showpageshadow="2"
     inkscape:pagecheckerboard="0"
     inkscape:deskcolor="#d1d1d1" />
  <defs
     id="defs2" />
  <image
     xlink:href="nishihara_1994_underpotential_75_p4.png"
     height="6601px"
     sodipodi:insensitive="true"
     width="4800px"
     x="0"
     y="0"
     id="image4" />
  <g
     id="g854">
    <text
       xml:space="preserve"
       style="font-style:italic;font-weight:bold;font-size:48px;line-height:1.25;font-family:sans-serif;-inkscape-font-specification:'sans-serif Bold Italic';letter-spacing:0px"
       x="2063.8718"
       y="4040.5774"
       id="text837"><tspan
         sodipodi:role="line"
         id="tspan835"
         x="2063.8718"
         y="4040.5774">E1: 0.8 V vs RHE</tspan></text>
    <path
       style="fill:none;stroke:#000000;stroke-width:1px;stroke-linecap:butt;stroke-linejoin:miter;stroke-opacity:1"
       d="m 2042.6074,3728.6416 14.9378,296.4707"
       id="path851" />
  </g>
  <g
     id="g859">
    <text
       xml:space="preserve"
       style="font-style:italic;font-weight:bold;font-size:48px;line-height:1.25;font-family:sans-serif;-inkscape-font-specification:'sans-serif Bold Italic';letter-spacing:0px"
       x="483.63208"
       y="3989.9646"
       id="text841"><tspan
         sodipodi:role="line"
         id="tspan839"
         x="483.63208"
         y="3989.9646">E2: 0.0 V vs RHE</tspan></text>
    <path
       style="fill:none;stroke:#000000;stroke-width:1px;stroke-linecap:butt;stroke-linejoin:miter;stroke-opacity:1"
       d="m 534.77195,3728.1144 -57.46646,246.3852"
       id="path853" />
  </g>
  <g
     id="g870">
    <text
       xml:space="preserve"
       style="font-style:italic;font-weight:bold;font-size:48px;line-height:1.25;font-family:sans-serif;-inkscape-font-specification:'sans-serif Bold Italic';letter-spacing:0px"
       x="885.72156"
       y="2533.4448"
       id="text845"><tspan
         sodipodi:role="line"
         id="tspan843"
         x="885.72156"
         y="2533.4448">j1: 0 nA / cm2</tspan></text>
    <path
       style="fill:none;stroke:#000000;stroke-width:1px;stroke-linecap:butt;stroke-linejoin:miter;stroke-opacity:1"
       d="m 878.80783,2519.1166 497.57527,176.9545"
       id="path859" />
  </g>
  <g
     id="g866">
    <text
       xml:space="preserve"
       style="font-style:italic;font-weight:bold;font-size:48px;line-height:1.25;font-family:sans-serif;-inkscape-font-specification:'sans-serif Bold Italic';letter-spacing:0px"
       x="1003.8177"
       y="1965.4583"
       id="text849"><tspan
         sodipodi:role="line"
         id="tspan847"
         x="1003.8177"
         y="1965.4583">j2: 1819 nA / cm2</tspan></text>
    <path
       style="fill:none;stroke:#000000;stroke-width:1px;stroke-linecap:butt;stroke-linejoin:miter;stroke-opacity:1"
       d="m 998.1941,1954.211 374.3218,161.2902"
       id="path861" />
  </g>
  <text
     xml:space="preserve"
     style="font-style:italic;font-weight:bold;font-size:48px;line-height:1.25;font-family:sans-serif;-inkscape-font-specification:'sans-serif Bold Italic';letter-spacing:0px"
     x="636.24097"
     y="3372.0771"
     id="text878"><tspan
       sodipodi:role="line"
       x="636.24097"
       y="3372.0771"
       id="tspan880">scan rate: 20 mV / s</tspan></text>
  <g
     id="g887">
    <text
       xml:space="preserve"
       style="font-style:italic;font-weight:bold;font-size:48px;line-height:1.25;font-family:sans-serif;-inkscape-font-specification:'sans-serif Bold Italic';letter-spacing:0px"
       x="711.79456"
       y="2926.7085"
       id="text874"><tspan
         sodipodi:role="line"
         id="tspan872"
         x="711.79456"
         y="2926.7085">curve: solid</tspan></text>
    <path
       style="fill:none;stroke:#43a501;stroke-width:1px;stroke-linecap:butt;stroke-linejoin:miter;stroke-opacity:1"
       d="m 1380.3447,2725.025 -0.8699,-28.5811 c -0.1195,-3.9261 74.186,-12.9363 83.7231,-14.6759 10.983,-2.0034 70.81,-11.6466 87.2266,-28.4306 37.8936,-38.7418 36.8874,-53.8292 45.9831,-94.5863 12.3491,-55.3356 8.875,-113.0911 10.5443,-169.7633 2.1973,-74.5982 -0.6232,-149.2601 -0.7029,-223.8907 -0.1244,-116.5732 -3.5354,-349.6923 0.3514,-349.7195 5.2807,-0.037 17.3778,429.2432 20.7372,429.1532 3.874,-0.1037 1.6883,-392.4112 6.3266,-392.2481 4.8835,0.1717 15.3799,571.5542 23.1974,679.0532 2.3598,32.4499 4.3811,80.7513 19.6827,95.6017 15.2682,14.818 39.8971,17.4367 61.157,18.2768 29.5388,1.1673 53.5441,0.1177 80.1367,2.8118 22.4587,2.2753 44.3531,8.6822 66.7806,11.2473 19.1251,2.1874 57.4634,-0.094 57.6422,3.5147 l 1.0544,21.2821 c 0.2287,4.6154 -38.4339,11.8435 -58.1694,15.4472 -31.8012,5.8069 -64.5016,5.1094 -96.4804,9.8414 -28.2188,4.1756 -58.5056,3.5523 -84.0029,16.3437 -14.7894,7.4195 -28.0877,19.2802 -36.7294,33.3903 -13.7306,22.4194 -16.5324,50.1432 -20.7371,76.0947 -8.6608,53.4542 -7.225,108.0831 -8.9626,162.2065 -4.6015,143.3345 1.2631,430.1063 -3.8663,430.2076 -4.7989,0.095 -21.1798,-472.1435 -27.4152,-471.6818 -7.5009,0.5554 -9.1396,344.4034 -17.5738,344.4472 -5.8305,0.03 -1.6253,-274.1688 -14.0591,-410.5249 -4.1949,-46.0036 0.8436,-112.7087 -20.3856,-137.0759 -18.4481,-21.175 -52.4393,-21.3664 -80.1368,-26.0093 -31.056,-5.2059 -94.3762,0.7551 -94.4519,-1.732 z"
       id="path882"
       sodipodi:nodetypes="sssssaassssssaassaaaaaasssasas" />
  </g>
  <text
     xml:space="preserve"
     style="font-style:italic;font-weight:bold;font-size:48px;line-height:1.25;font-family:sans-serif;-inkscape-font-specification:'sans-serif Bold Italic';letter-spacing:0px"
     x="648.17047"
     y="3483.4192"
     id="text858"><tspan
       sodipodi:role="line"
       id="tspan856"
       x="648.17047"
       y="3483.4192">comment: Imprecise y-axis labeling and broad CV line.</tspan></text>
  <text
     xml:space="preserve"
     style="font-style:italic;font-weight:bold;font-size:48px;line-height:1.25;font-family:sans-serif;-inkscape-font-specification:'sans-serif Bold Italic';letter-spacing:0px"
     x="670.04126"
     y="3155.3574"
     id="text862"><tspan
       sodipodi:role="line"
       id="tspan860"
       x="670.04126"
       y="3155.3574">tags: BCV</tspan></text>
  <text
     xml:space="preserve"
     style="font-style:italic;font-weight:bold;font-size:48px;line-height:1.25;font-family:sans-serif;-inkscape-font-specification:'sans-serif Bold Italic';letter-spacing:0px"
     x="668.05298"
     y="3260.7349"
     id="text866"><tspan
       sodipodi:role="line"
       id="tspan864"
       x="668.05298"
       y="3260.7349">Figure: 6b</tspan></text>
</svg>
