<?xml version="1.0" encoding="UTF-8" standalone="no"?>
<svg
   xmlns:dc="http://purl.org/dc/elements/1.1/"
   xmlns:cc="http://creativecommons.org/ns#"
   xmlns:rdf="http://www.w3.org/1999/02/22-rdf-syntax-ns#"
   xmlns:svg="http://www.w3.org/2000/svg"
   xmlns="http://www.w3.org/2000/svg"
   xmlns:xlink="http://www.w3.org/1999/xlink"
   xmlns:sodipodi="http://sodipodi.sourceforge.net/DTD/sodipodi-0.dtd"
   xmlns:inkscape="http://www.inkscape.org/namespaces/inkscape"
   height="6751px"
   version="1.1"
   width="5063px"
   id="svg77195"
   sodipodi:docname="nakamura_2011_structure_165433_f1b_blue.svg"
   inkscape:version="0.92.2 (5c3e80d, 2017-08-06)">
  <metadata
     id="metadata28">
    <rdf:RDF>
      <cc:Work
         rdf:about="">
        <dc:format>image/svg+xml</dc:format>
        <dc:type
           rdf:resource="http://purl.org/dc/dcmitype/StillImage" />
      </cc:Work>
    </rdf:RDF>
  </metadata>
  <sodipodi:namedview
     id="namedview77197"
     pagecolor="#ffffff"
     bordercolor="#666666"
     borderopacity="1.0"
     inkscape:pageshadow="2"
     inkscape:pageopacity="0.0"
     inkscape:pagecheckerboard="0"
     showgrid="false"
     inkscape:zoom="0.10887276"
     inkscape:cx="-956.3658"
     inkscape:cy="4619.0019"
     inkscape:window-width="1920"
     inkscape:window-height="1017"
     inkscape:window-x="-8"
     inkscape:window-y="32"
     inkscape:window-maximized="1"
     inkscape:current-layer="svg77195" />
  <defs
     id="defs77191" />
  <image
     sodipodi:absref="F:\Github\echemdb\website\literature\nakamura_2011_structure_165433\Nakamura_2011_Structure_165433_p1.png"
     xlink:href="Nakamura_2011_Structure_165433_p1.png"
     id="image77193"
     y="0"
     x="0"
     width="5063px"
     sodipodi:insensitive="true"
     height="6751px" />
  <g
     id="g82738"
     transform="translate(-1.914177,1169.6018)">
    <path
       style="fill:none;stroke:#000000;stroke-width:1px;stroke-linecap:butt;stroke-linejoin:miter;stroke-opacity:1"
       d="M 948.93291,624.25169 601.46806,721.70044"
       id="path77332" />
    <text
       xml:space="preserve"
       style="font-size:85.3333px;line-height:1.25;font-family:sans-serif"
       x="0.77166378"
       y="747.66248"
       id="text79278"><tspan
         sodipodi:role="line"
         id="tspan79276"
         x="0.77166378"
         y="747.66248">y2: 15 uA / cm2</tspan></text>
  </g>
  <g
     id="g82733"
     transform="translate(2.95566,1173.66)">
    <path
       style="fill:none;stroke:#000000;stroke-width:0.545914px;stroke-linecap:butt;stroke-linejoin:miter;stroke-opacity:1"
       d="m 945.77589,1592.6725 -282.62963,37.5752"
       id="path77334" />
    <text
       xml:space="preserve"
       style="font-size:85.3333px;line-height:1.25;font-family:sans-serif"
       x="-2.4748938"
       y="1673.1396"
       id="text81538"><tspan
         sodipodi:role="line"
         id="tspan81536"
         x="-2.4748938"
         y="1673.1396">y1: -10 uA / cm2</tspan></text>
  </g>
  <g
     id="g88642"
     transform="translate(-2.8174887,1173.423)">
    <path
       style="fill:none;stroke:#000000;stroke-width:1px;stroke-linecap:butt;stroke-linejoin:miter;stroke-opacity:1"
       d="M 1114.5905,1787.6274 741.15323,2011.6607"
       id="path77336" />
    <text
       xml:space="preserve"
       style="font-size:85.3333px;line-height:1.25;font-family:sans-serif"
       x="-132.33714"
       y="2085.5669"
       id="text83952"><tspan
         sodipodi:role="line"
         id="tspan83950"
         x="-132.33714"
         y="2085.5669">x1: -1.2 V vs Ag/AgCl</tspan></text>
  </g>
  <g
     id="g88637"
     transform="translate(-2.8174887,1173.423)">
    <path
       style="fill:none;stroke:#000000;stroke-width:1px;stroke-linecap:butt;stroke-linejoin:miter;stroke-opacity:1"
       d="m 1949.934,1786.821 279.2873,126.6367"
       id="path77338" />
    <text
       xml:space="preserve"
       style="font-size:85.3333px;line-height:1.25;font-family:sans-serif"
       x="2228.4097"
       y="1968.6594"
       id="text87958"><tspan
         sodipodi:role="line"
         id="tspan87956"
         x="2228.4097"
         y="1968.6594">x2: -0.2 V vs Ag/AgCl</tspan></text>
  </g>
  <text
     xml:space="preserve"
     style="font-size:85.3333px;line-height:1.25;font-family:sans-serif"
     x="1709.373"
     y="2724.4143"
     id="text94618"><tspan
       sodipodi:role="line"
       id="tspan94616"
       x="1709.373"
       y="2724.4143">scan rate: 50 mV / s</tspan></text>
  <g
     id="g122430">
    <text
       xml:space="preserve"
       style="font-size:85.3333px;line-height:1.25;font-family:sans-serif"
       x="898.70325"
       y="1856.9165"
       id="text89728"><tspan
         sodipodi:role="line"
         x="898.70325"
         y="1856.9165"
         id="tspan121844">curve: Ag(100)_0.01M_CsBr</tspan></text>
    <path
       style="fill:none;stroke:#000000;stroke-width:1px;stroke-linecap:butt;stroke-linejoin:miter;stroke-opacity:1"
       d="m 1033.0293,2599.8888 c 0,0 -5.2672,-46.8113 -1.6233,-69.7958 3.3243,-20.9682 13.821,-40.1503 21.1026,-60.0926 5.7573,-15.7676 11.3263,-31.6218 17.8561,-47.0855 6.9684,-16.5024 12.8809,-33.7328 22.7259,-48.6983 10.7485,-16.3389 26.0062,-29.2171 39.0003,-43.8337 8.6615,-9.743 17.4694,-19.3582 25.9725,-29.2398 8.2686,-9.609 16.3752,-19.3589 24.3491,-29.2138 6.0616,-7.4915 12.7715,-14.5504 17.8562,-22.7364 7.2822,-11.7239 11.6504,-25.0285 17.856,-37.3562 4.6805,-9.2981 10.2879,-18.1308 14.6095,-27.601 7.4659,-16.3605 11.8504,-34.026 19.4794,-50.3112 4.7291,-10.095 10.5493,-19.6496 16.2327,-29.2398 6.2007,-10.4631 12.1623,-21.1375 19.4794,-30.8527 3.927,-5.214 7.7018,-10.8462 13.0278,-14.6199 8.1147,-5.7497 17.6768,-10.6206 27.5958,-11.3422 13.3498,-0.9711 26.1885,5.719 38.9587,9.7293 11.6004,3.643 22.2202,10.34 34.0889,12.981 14.2999,3.182 29.513,6.3629 43.8285,3.2518 12.0792,-2.6251 23.7459,-9.1258 32.5072,-17.8457 7.9014,-7.864 11.9005,-18.9682 16.2327,-29.2398 4.3907,-10.4103 7.0399,-21.4945 9.7397,-32.4656 4.0838,-16.5952 6.7116,-33.5173 9.7396,-50.3372 2.3332,-12.9604 6.4932,-38.9691 6.4932,-38.9691 0,0 4.6448,33.5204 6.4931,50.3372 1.306,11.8833 1.8886,23.8399 3.2466,35.7174 1.7998,15.7411 2.8256,31.672 6.4931,47.0854 4.6362,19.4847 12.6025,38.0297 19.4793,56.8408 7.1778,19.6345 15.0561,39.0061 22.7259,58.4537 5.3452,13.5534 11.331,26.8619 16.2328,40.5819 3.6284,10.1558 5.5039,20.9349 9.7396,30.8528 7.5154,17.5974 17.518,34.071 27.5958,50.3372 7.9836,12.8861 14.1893,27.7936 25.9725,37.3302 8.6803,7.0253 20.5532,8.7408 30.8839,12.981 8.0887,3.32 15.7984,7.9293 24.3492,9.7553 13.2395,2.8273 27.0669,0.824 40.5819,1.6129 14.0861,0.8223 28.1056,2.7094 42.2053,3.2518 19.4788,0.7493 38.9879,-0.2399 58.4796,0 22.1898,0.2732 44.3646,1.3656 66.5544,1.6388 18.9369,0.2331 37.8766,0 56.8149,0 16.2466,0 32.5076,0.6816 48.7399,0 6.5103,-0.2734 13.06,-0.5206 19.4794,-1.6388 8.2763,-1.4417 17.5431,-11.4282 24.3492,-6.5035 0,0 4.4096,37.8986 3.2466,56.8407 -0.3711,6.0434 0.5275,13.1372 -3.2466,17.8717 -2.5682,3.2218 -7.3497,3.9318 -11.3629,4.8646 -10.0275,2.3307 -20.5511,1.344 -30.8424,1.6129 -16.782,0.4385 -33.578,-0.2921 -50.3632,0 -15.6988,0.2732 -31.3813,1.155 -47.075,1.6389 -20.0182,0.6172 -40.0773,0.2938 -60.0615,1.6129 -20.6444,1.3627 -41.1222,4.6268 -61.7262,6.5035 -21.0776,1.9198 -42.2399,2.8418 -63.3078,4.8646 -14.0967,1.3535 -28.3797,1.7983 -42.2053,4.8646 -8.3525,1.8525 -16.856,3.9875 -24.3492,8.1164 -13.4843,7.4302 -25.1582,18.0699 -35.7538,29.2398 -6.9268,7.3022 -12.5479,15.7979 -17.856,24.3493 -8.6799,13.9833 -15.6635,28.9677 -22.7259,43.8336 -7.595,15.9869 -13.8332,32.5868 -21.1026,48.7244 -11.5334,25.6033 -25.3951,50.1821 -35.7122,76.2993 -8.9925,22.7639 -16.7086,46.0972 -22.7258,69.8218 -5.1416,20.2725 -9.0454,40.92 -11.363,61.7055 -1.5002,13.4548 -0.6051,27.0822 -1.6233,40.582 -0.3688,4.8893 -1.6233,14.6198 -1.6233,14.6198 0,0 -5.0276,-40.3549 -9.7396,-60.0925 -2.9011,-12.1522 -7.7786,-23.7488 -11.363,-35.7173 -4.0313,-13.4607 -4.7771,-28.1918 -11.4046,-40.582 -4.7072,-8.8001 -12.3744,-15.7279 -19.4793,-22.7364 -6.0173,-5.9356 -12.1398,-12.0412 -19.4794,-16.2327 -6.9851,-3.989 -14.707,-7.4821 -22.7258,-8.1164 -8.7806,-0.6946 -17.3437,3.0967 -25.9725,4.8646 -9.775,2.0027 -19.3456,5.0625 -29.219,6.5036 -7.5147,1.0968 -15.1496,1.0891 -22.7259,1.6129 -8.1154,0.5611 -16.2406,2.2893 -24.3493,1.6388 -7.2109,-0.5785 -14.9688,-1.1226 -21.1441,-4.8906 -7.8648,-4.7988 -12.6477,-13.4978 -17.8562,-21.0975 -7.6666,-11.1862 -13.455,-23.5676 -19.4793,-35.7173 -7.6404,-15.4091 -13.7396,-31.5418 -21.1026,-47.0854 -7.7728,-16.4087 -14.7638,-33.3042 -24.3492,-48.7244 -10.3996,-16.73 -21.1685,-33.7991 -35.7121,-47.0855 -7.5375,-6.886 -15.9289,-14.4006 -25.9725,-16.2329 -10.8576,-1.9808 -22.3254,2.1457 -32.4655,6.5035 -10.3559,4.4505 -20.2005,11.0143 -27.6374,19.4846 -7.6672,8.7326 -11.4328,20.2695 -16.2328,30.8527 -6.2246,13.7243 -10.4091,28.2958 -16.2328,42.1949 -2.5284,6.0345 -5.0428,12.0957 -8.1164,17.8716 -3.8794,7.29 -5.0149,23.2544 -12.9862,21.0975 z"
       id="path122345"
       sodipodi:nodetypes="ssssssssssssssssssssssscsssssssssssssssssssssssssssssssssssssscsssssssssssssssssssssss" />
  </g>
  <text
     xml:space="preserve"
     style="font-style:normal;font-variant:normal;font-weight:normal;font-stretch:normal;font-size:80px;line-height:1.25;font-family:sans-serif;-inkscape-font-specification:sans-serif;letter-spacing:0px;word-spacing:0px;fill:#000000;fill-opacity:1;stroke:none"
     x="-752.3299"
     y="499.69211"
     id="text837"><tspan
       sodipodi:role="line"
       id="tspan835"
       x="-752.3299"
       y="499.69211">comment: Focus on Cs+ counterions close to the electric double layer.</tspan></text>
</svg>
