<?xml version="1.0" encoding="UTF-8" standalone="no"?>
<svg
   xmlns:dc="http://purl.org/dc/elements/1.1/"
   xmlns:cc="http://creativecommons.org/ns#"
   xmlns:rdf="http://www.w3.org/1999/02/22-rdf-syntax-ns#"
   xmlns:svg="http://www.w3.org/2000/svg"
   xmlns="http://www.w3.org/2000/svg"
   xmlns:xlink="http://www.w3.org/1999/xlink"
   xmlns:sodipodi="http://sodipodi.sourceforge.net/DTD/sodipodi-0.dtd"
   xmlns:inkscape="http://www.inkscape.org/namespaces/inkscape"
   height="6751px"
   version="1.1"
   width="5063px"
   id="svg77195"
   sodipodi:docname="nakamura_2011_structure_165433_p1_1a_blue.svg"
   inkscape:version="0.92.2 (5c3e80d, 2017-08-06)">
  <metadata
     id="metadata28">
    <rdf:RDF>
      <cc:Work
         rdf:about="">
        <dc:format>image/svg+xml</dc:format>
        <dc:type
           rdf:resource="http://purl.org/dc/dcmitype/StillImage" />
      </cc:Work>
    </rdf:RDF>
  </metadata>
  <sodipodi:namedview
     id="namedview77197"
     pagecolor="#ffffff"
     bordercolor="#666666"
     borderopacity="1.0"
     inkscape:pageshadow="2"
     inkscape:pageopacity="0.0"
     inkscape:pagecheckerboard="0"
     showgrid="false"
     inkscape:zoom="0.10887277"
     inkscape:cx="-2469.6525"
     inkscape:cy="3867.783"
     inkscape:window-width="1920"
     inkscape:window-height="1017"
     inkscape:window-x="-8"
     inkscape:window-y="32"
     inkscape:window-maximized="1"
     inkscape:current-layer="g105433" />
  <defs
     id="defs77191" />
  <image
     sodipodi:absref="F:\Github\echemdb\website\literature\nakamura_2011_structure_165433\Nakamura_2011_Structure_165433_p1.png"
     xlink:href="Nakamura_2011_Structure_165433_p1.png"
     height="6751px"
     sodipodi:insensitive="true"
     width="5063px"
     x="0"
     y="0"
     id="image77193" />
  <g
     id="g82738"
     transform="translate(-2.4349306,1.6258802)">
    <path
       style="fill:none;stroke:#000000;stroke-width:1px;stroke-linecap:butt;stroke-linejoin:miter;stroke-opacity:1"
       d="M 948.93291,624.25169 601.46806,721.70044"
       id="path77332" />
    <text
       xml:space="preserve"
       style="font-size:85.3333px;line-height:1.25;font-family:sans-serif"
       x="0.77166378"
       y="747.66248"
       id="text79278"><tspan
         sodipodi:role="line"
         id="tspan79276"
         x="0.77166378"
         y="747.66248">y2: 15 uA / cm2</tspan></text>
  </g>
  <g
     id="g82733"
     transform="translate(2.4349058,5.6840895)">
    <path
       style="fill:none;stroke:#000000;stroke-width:0.545914px;stroke-linecap:butt;stroke-linejoin:miter;stroke-opacity:1"
       d="m 945.77589,1592.6725 -282.62963,37.5752"
       id="path77334" />
    <text
       xml:space="preserve"
       style="font-size:85.3333px;line-height:1.25;font-family:sans-serif"
       x="-2.4748938"
       y="1673.1396"
       id="text81538"><tspan
         sodipodi:role="line"
         id="tspan81536"
         x="-2.4748938"
         y="1673.1396">y1: -10 uA / cm2</tspan></text>
  </g>
  <g
     id="g88642">
    <path
       style="fill:none;stroke:#000000;stroke-width:1px;stroke-linecap:butt;stroke-linejoin:miter;stroke-opacity:1"
       d="M 1114.5905,1787.6274 741.15323,2011.6607"
       id="path77336" />
    <text
       xml:space="preserve"
       style="font-size:85.3333px;line-height:1.25;font-family:sans-serif"
       x="-132.33714"
       y="2085.5669"
       id="text83952"><tspan
         sodipodi:role="line"
         id="tspan83950"
         x="-132.33714"
         y="2085.5669">x1: -1.2 V vs Ag/AgCl</tspan></text>
  </g>
  <g
     id="g88637">
    <path
       style="fill:none;stroke:#000000;stroke-width:1px;stroke-linecap:butt;stroke-linejoin:miter;stroke-opacity:1"
       d="m 1949.934,1786.821 279.2873,126.6367"
       id="path77338" />
    <text
       xml:space="preserve"
       style="font-size:85.3333px;line-height:1.25;font-family:sans-serif"
       x="2228.4097"
       y="1968.6594"
       id="text87958"><tspan
         sodipodi:role="line"
         id="tspan87956"
         x="2228.4097"
         y="1968.6594">x2: -0.2 V vs Ag/AgCl</tspan></text>
  </g>
  <text
     xml:space="preserve"
     style="font-size:85.3333px;line-height:1.25;font-family:sans-serif"
     x="1622.1379"
     y="1580.8506"
     id="text94618"><tspan
       sodipodi:role="line"
       id="tspan94616"
       x="1622.1379"
       y="1580.8506">scan rate: 50 mV / s</tspan></text>
  <g
     id="g105433">
    <g
       id="g839">
      <text
         id="text89728"
         y="561.92712"
         x="779.21143"
         style="font-size:85.3333px;line-height:1.25;font-family:sans-serif"
         xml:space="preserve"><tspan
           y="561.92712"
           x="779.21143"
           id="tspan89726"
           sodipodi:role="line">curve: Ag(100)_0.1M_LiBr_0.05M_LiOH</tspan></text>
      <path
         sodipodi:nodetypes="csssssssssssssssssssssssssssssssssssssssssssssssssssssssssscssssssssssssssssssc"
         id="path105348"
         d="m 1037.9013,1302.5712 c 0,0 -4.6638,-40.3973 -4.099,-61.1353 0.2399,-8.8101 -3.1476,-18.7047 0.8524,-26.5582 6.0796,-11.9365 16.1151,-22.3119 27.5958,-29.2138 17.6254,-10.5959 37.9545,-21.0206 53.6098,-35.7173 10.4181,-9.7801 18.2566,-22.0774 25.9725,-34.1045 9.934,-15.4846 17.9258,-32.1543 25.9725,-48.6984 8.7963,-18.0854 14.4796,-37.679 24.3491,-55.2019 9.7275,-17.27072 21.3497,-33.53832 34.0889,-48.72436 6.3926,-7.62042 12.58,-15.96905 21.1026,-21.0974 12.623,-7.59566 27.5148,-12.95761 42.2469,-12.98103 13.0067,-0.0207 24.4698,9.43103 37.3354,11.34212 12.8453,1.90808 26.1585,2.19037 38.9587,0 9.6138,-1.64511 18.4662,-6.29643 27.5957,-9.72927 10.9091,-4.10203 23.4589,-5.58407 32.4656,-12.98103 9.98,-8.19631 14.6827,-21.28597 21.1026,-32.49159 6.62,-11.5549 13.7293,-23.06965 17.8977,-35.71733 3.9535,-11.99553 4.2477,-24.90115 6.4931,-37.33019 3.1336,-17.34615 5.2398,-33.8545 6.87,-51.40588 0.5999,-6.45838 -3.5977,-19.53409 2.8696,-20.02879 0,0 4.2726,28.13866 6.4932,42.19485 3.1665,20.04365 5.6522,40.21621 9.7397,60.0925 3.5954,17.48368 7.648,34.91751 12.9862,51.95013 5.0201,16.01761 11.652,31.48827 17.8561,47.08551 7.8014,19.61279 15.4783,39.30079 24.3491,58.45366 10.9865,23.7209 22.8986,47.036 35.7122,69.8218 8.0955,14.3958 17.0639,28.2876 25.9725,42.1949 6.3171,9.8616 10.6988,21.4899 19.4793,29.2397 9.0806,8.0147 21.1654,11.9837 32.5072,16.2329 14.1336,5.2951 28.8906,9.2104 43.8285,11.368 16.0749,2.3218 32.4645,1.1099 48.6984,1.6129 18.937,0.5867 37.8746,1.1613 56.8147,1.6389 24.902,0.628 49.8055,2 74.7124,1.6129 20.5876,-0.32 41.1376,-1.9215 61.6847,-3.2518 21.1344,-1.3683 43.1984,1.6523 63.3495,-4.8646 10.8631,-3.5132 19.6503,-11.6435 29.219,-17.8716 7.1679,-4.6654 12.818,-16.7179 21.1026,-14.594 4.6866,1.2015 5.3812,8.2725 6.4932,12.9811 3.3581,14.2201 1.1425,29.2672 0,43.8337 -0.8141,10.3797 0.5665,21.9732 -4.8699,30.8527 -3.8424,6.2759 -11.4838,9.3009 -17.8562,12.981 -4.616,2.6658 -9.3393,5.7024 -14.6093,6.5035 -9.1707,1.394 -18.4671,-1.8551 -27.6374,-3.2517 -8.7076,-1.3261 -17.2022,-4.0503 -25.9725,-4.8646 -17.7796,-1.6507 -35.7137,-0.2397 -53.5682,0 -20.0258,0.2688 -40.0489,0.8306 -60.0613,1.6128 -21.1282,0.8258 -42.3289,0.9681 -63.3495,3.2518 -16.3604,1.7774 -32.4521,5.4934 -48.6984,8.1164 -17.301,2.7933 -34.7036,4.9755 -51.9449,8.1164 -13.0503,2.3774 -26.9389,2.505 -38.9587,8.1164 -11.8835,5.5478 -20.8304,15.9535 -30.8839,24.3751 -9.9878,8.3665 -21.293,15.6213 -29.2191,25.9621 -8.0974,10.5643 -12.3176,23.6136 -17.856,35.7173 -11.7102,25.5913 -21.1041,52.1902 -32.4656,77.9382 -7.2348,16.396 -15.8691,32.1668 -22.7258,48.7244 -7.2688,17.5529 -13.5021,35.5295 -19.4794,53.5631 -5.3346,16.0948 -10.7732,32.2082 -14.6095,48.7243 -3.7234,16.03 -5.7106,32.4185 -8.1164,48.6984 -2.4733,16.7363 -5.4088,33.4539 -6.4932,50.3372 -0.9021,14.0447 0,42.2209 0,42.2209 0,0 -5.908,-48.8008 -9.7396,-73.0735 -2.83,-17.9276 -4.8732,-36.0897 -9.7813,-53.5631 -4.0775,-14.5162 -8.601,-29.217 -16.2328,-42.2209 -6.4198,-10.9388 -14.1426,-21.71 -24.3492,-29.2397 -5.6606,-4.176 -12.7508,-6.0656 -19.4794,-8.1165 -10.5557,-3.2175 -21.4336,-6.7425 -32.4655,-6.4774 -11.1517,0.2679 -21.5923,5.6255 -32.4656,8.1163 -12.9302,2.9619 -25.7085,7.4884 -38.9587,8.1164 -9.8026,0.4646 -19.876,-0.3819 -29.2606,-3.2517 -12.269,-3.7519 -24.2862,-9.5945 -34.0889,-17.8717 -10.9126,-9.2144 -18.6238,-21.8314 -25.9724,-34.0784 -7.3516,-12.2521 -11.7639,-26.0446 -17.8561,-38.9691 -8.4637,-17.9556 -18.1042,-35.3646 -25.9724,-53.5891 -4.8217,-11.168 -6.743,-23.6644 -12.9863,-34.1044 -5.5124,-9.2179 -13.5986,-16.665 -21.1026,-24.3492 -5.6201,-5.755 -10.9491,-12.1099 -17.8561,-16.2328 -8.3862,-5.0059 -18.0102,-8.0842 -27.6373,-9.7293 -9.6005,-1.6405 -19.8971,-2.8216 -29.2191,0 -7.4682,2.2604 -19.4793,12.9811 -19.4793,12.9811 z"
         style="fill:none;stroke:#000000;stroke-width:1px;stroke-linecap:butt;stroke-linejoin:miter;stroke-opacity:1" />
    </g>
    <text
       xml:space="preserve"
       style="font-style:normal;font-variant:normal;font-weight:normal;font-stretch:normal;font-size:80px;line-height:1.25;font-family:sans-serif;-inkscape-font-specification:sans-serif;letter-spacing:0px;word-spacing:0px;fill:#000000;fill-opacity:1;stroke:none"
       x="321.47617"
       y="238.8112"
       id="text837"><tspan
         sodipodi:role="line"
         id="tspan835"
         x="321.47617"
         y="238.8112">comment: Focus on Cs+ counterions close to the electric double layer.</tspan></text>
  </g>
</svg>
