<?xml version="1.0" encoding="UTF-8" standalone="no"?>
<svg
   xmlns:dc="http://purl.org/dc/elements/1.1/"
   xmlns:cc="http://creativecommons.org/ns#"
   xmlns:rdf="http://www.w3.org/1999/02/22-rdf-syntax-ns#"
   xmlns:svg="http://www.w3.org/2000/svg"
   xmlns="http://www.w3.org/2000/svg"
   xmlns:xlink="http://www.w3.org/1999/xlink"
   xmlns:sodipodi="http://sodipodi.sourceforge.net/DTD/sodipodi-0.dtd"
   xmlns:inkscape="http://www.inkscape.org/namespaces/inkscape"
   height="6751px"
   version="1.1"
   width="5063px"
   id="svg77195"
   sodipodi:docname="nakamura_2011_structure_165433_f1b_red.svg"
   inkscape:version="0.92.2 (5c3e80d, 2017-08-06)">
  <metadata
     id="metadata29">
    <rdf:RDF>
      <cc:Work
         rdf:about="">
        <dc:format>image/svg+xml</dc:format>
        <dc:type
           rdf:resource="http://purl.org/dc/dcmitype/StillImage" />
      </cc:Work>
    </rdf:RDF>
  </metadata>
  <sodipodi:namedview
     id="namedview77197"
     pagecolor="#ffffff"
     bordercolor="#666666"
     borderopacity="1.0"
     inkscape:pageshadow="2"
     inkscape:pageopacity="0.0"
     inkscape:pagecheckerboard="0"
     showgrid="false"
     inkscape:zoom="0.15396934"
     inkscape:cx="-214.88429"
     inkscape:cy="4468.3088"
     inkscape:window-width="1920"
     inkscape:window-height="1017"
     inkscape:window-x="-8"
     inkscape:window-y="32"
     inkscape:window-maximized="1"
     inkscape:current-layer="svg77195" />
  <defs
     id="defs77191" />
  <image
     sodipodi:absref="F:\Github\echemdb\website\literature\nakamura_2011_structure_165433\Nakamura_2011_Structure_165433_p1.png"
     xlink:href="Nakamura_2011_Structure_165433_p1.png"
     id="image77193"
     y="0"
     x="0"
     width="5063px"
     sodipodi:insensitive="true"
     height="6751px" />
  <g
     id="g82738"
     transform="translate(-1.914177,1169.6018)">
    <path
       style="fill:none;stroke:#000000;stroke-width:1px;stroke-linecap:butt;stroke-linejoin:miter;stroke-opacity:1"
       d="M 948.93291,624.25169 601.46806,721.70044"
       id="path77332" />
    <text
       xml:space="preserve"
       style="font-size:85.3333px;line-height:1.25;font-family:sans-serif"
       x="0.77166378"
       y="747.66248"
       id="text79278"><tspan
         sodipodi:role="line"
         id="tspan79276"
         x="0.77166378"
         y="747.66248">y2: 15 uA / cm2</tspan></text>
  </g>
  <g
     id="g82733"
     transform="translate(2.95566,1173.66)">
    <path
       style="fill:none;stroke:#000000;stroke-width:0.545914px;stroke-linecap:butt;stroke-linejoin:miter;stroke-opacity:1"
       d="m 945.77589,1592.6725 -282.62963,37.5752"
       id="path77334" />
    <text
       xml:space="preserve"
       style="font-size:85.3333px;line-height:1.25;font-family:sans-serif"
       x="-2.4748938"
       y="1673.1396"
       id="text81538"><tspan
         sodipodi:role="line"
         id="tspan81536"
         x="-2.4748938"
         y="1673.1396">y1: -10 uA / cm2</tspan></text>
  </g>
  <g
     id="g88642"
     transform="translate(-2.8174887,1173.423)">
    <path
       style="fill:none;stroke:#000000;stroke-width:1px;stroke-linecap:butt;stroke-linejoin:miter;stroke-opacity:1"
       d="M 1114.5905,1787.6274 741.15323,2011.6607"
       id="path77336" />
    <text
       xml:space="preserve"
       style="font-size:85.3333px;line-height:1.25;font-family:sans-serif"
       x="-132.33714"
       y="2085.5669"
       id="text83952"><tspan
         sodipodi:role="line"
         id="tspan83950"
         x="-132.33714"
         y="2085.5669">x1: -1.2 V vs Ag/AgCl</tspan></text>
  </g>
  <g
     id="g88637"
     transform="translate(-2.8174887,1173.423)">
    <path
       style="fill:none;stroke:#000000;stroke-width:1px;stroke-linecap:butt;stroke-linejoin:miter;stroke-opacity:1"
       d="m 1949.934,1786.821 279.2873,126.6367"
       id="path77338" />
    <text
       xml:space="preserve"
       style="font-size:85.3333px;line-height:1.25;font-family:sans-serif"
       x="2228.4097"
       y="1968.6594"
       id="text87958"><tspan
         sodipodi:role="line"
         id="tspan87956"
         x="2228.4097"
         y="1968.6594">x2: -0.2 V vs Ag/AgCl</tspan></text>
  </g>
  <text
     xml:space="preserve"
     style="font-size:85.3333px;line-height:1.25;font-family:sans-serif"
     x="1709.373"
     y="2724.4143"
     id="text94618"><tspan
       sodipodi:role="line"
       id="tspan94616"
       x="1709.373"
       y="2724.4143">scan rate: 50 mV / s</tspan></text>
  <g
     id="g118717">
    <text
       xml:space="preserve"
       style="font-size:85.3333px;line-height:1.25;font-family:sans-serif"
       x="898.70325"
       y="1856.9165"
       id="text89728"><tspan
         sodipodi:role="line"
         id="tspan89726"
         x="898.70325"
         y="1856.9165">curve: Ag(100)_0.05M_CsBr_0.04M_CsF</tspan><tspan
         sodipodi:role="line"
         x="898.70325"
         y="1963.5831"
         id="tspan105624" /></text>
    <path
       style="fill:none;stroke:#000000;stroke-width:1px;stroke-linecap:butt;stroke-linejoin:miter;stroke-opacity:1"
       d="m 1028.1594,2661.5942 c 0,0 -1.9064,-52.194 1.6233,-77.9382 2.6562,-19.3731 9.8044,-37.86 14.6096,-56.8148 3.8393,-15.1445 6.8837,-30.5048 11.3629,-45.4726 6.5742,-21.9685 14.1857,-43.6496 22.7259,-64.9311 4.8705,-12.1369 10.694,-23.8705 16.2328,-35.7174 6.3609,-13.6052 11.9708,-27.6249 19.521,-40.6079 8.604,-14.7952 19.7198,-27.9838 29.2189,-42.2209 9.9956,-14.9812 19.5516,-30.2515 29.2191,-45.4466 9.2681,-14.5673 19.794,-28.4313 27.5958,-43.8337 9.9916,-19.7257 15.8584,-41.2886 24.3491,-61.7054 7.2578,-17.4522 15.0302,-34.6866 22.7259,-51.9502 5.3278,-11.9518 10.0856,-24.1915 16.2328,-35.7433 3.8793,-7.29 16.3509,-15.8484 22.7259,-21.0975 10.7179,-8.825 5.0128,-9.4498 17.8978,-14.6198 7.6476,-3.0686 26.0164,-8.074 34.0887,-9.7293 4.7706,-0.9782 10.2539,-2.1781 14.6095,0 7.2605,3.6308 9.5934,13.102 14.6096,19.4845 7.3642,9.3701 14.1114,19.3655 22.7258,27.6009 5.8683,5.6101 11.8441,11.8611 19.4794,14.62 10.1903,3.6822 21.9436,4.1993 32.4655,1.6128 10.3635,-2.5476 20.9941,-7.8477 27.5958,-16.2328 11.5483,-14.668 12.3154,-35.345 16.2745,-53.5889 3.473,-16.004 4.883,-32.4013 6.4931,-48.6984 1.6531,-16.7325 0.8759,-33.6913 3.2465,-50.3373 0.7038,-4.9421 -1.7282,-15.0337 3.2466,-14.6199 0,0 2.0631,41.1425 3.2465,61.7054 0.9969,17.3219 -0.469,35.0022 3.2466,51.9502 3.8529,17.5742 13.6009,33.3331 19.4794,50.3372 6.6568,19.2552 10.2994,39.5335 17.856,58.4536 5.8357,14.6114 14.9102,27.7571 21.1027,42.2209 5.6586,13.2168 8.7655,27.4461 14.6094,40.582 6.9887,15.7094 16.052,30.4133 24.3492,45.4726 9.0037,16.3417 15.8853,34.1731 27.5957,48.6984 8.6656,10.7486 18.9041,20.7375 30.884,27.6009 13.8093,7.9115 29.9508,11.0132 45.4518,14.6199 18.1112,4.2141 36.6677,6.4893 55.1914,8.1164 18.3345,1.6105 36.8044,0.8031 55.1916,1.6128 18.425,0.8114 36.7931,2.9226 55.233,3.2518 23.2695,0.4155 46.5294,-1.344 69.8011,-1.6128 20.5601,-0.2375 41.1275,0.4318 61.6845,0 13.0087,-0.2732 26.0679,-0.2059 39.0003,-1.639 6.0116,-0.6662 12.1187,-1.3114 17.8562,-3.2257 3.4461,-1.1498 6.547,-6.6241 9.7396,-4.8906 8.6181,4.6794 2.4718,19.464 3.2466,29.2398 0.8985,11.3368 5.7196,23.4696 1.6231,34.0785 -2.2069,5.7154 -7.465,10.3514 -12.9862,13.007 -13.259,6.3773 -29.1726,4.1879 -43.87,4.8647 -29.193,1.3444 -58.4333,-1.7364 -87.657,-1.6129 -20.0275,0.085 -40.1084,-0.1148 -60.0615,1.6129 -18.5393,1.6053 -36.7691,5.7991 -55.233,8.1163 -25.9098,3.2517 -51.9546,5.3195 -77.9174,8.1164 -19.4869,2.0993 -39.6789,0.8256 -58.4381,6.5035 -16.9207,5.1215 -34.3807,12.088 -47.1167,24.3492 -23.7442,22.859 -33.3867,56.8676 -48.6983,86.0546 -9.2217,17.5784 -17.4064,35.682 -25.9725,53.589 -9.2981,19.4373 -19.4452,38.5079 -27.5957,58.4536 -4.9837,12.1959 -9.1658,24.7215 -12.9863,37.3303 -4.3771,14.4456 -8.6289,28.9892 -11.3629,43.8337 -3.551,19.2801 -4.467,38.9542 -6.4931,58.4536 -1.7422,16.7672 -4.8699,50.3373 -4.8699,50.3373 0,0 -1.8551,-26.0089 -3.2465,-38.9691 -2.2145,-20.6271 -3.9373,-41.3851 -8.1164,-61.7054 -3.6245,-17.6233 -7.8297,-35.3012 -14.6512,-51.9501 -4.6826,-11.4286 -9.0547,-23.8009 -17.856,-32.4656 -7.4182,-7.303 -17.3854,-12.5923 -27.5958,-14.62 -11.1959,-2.2235 -23.1502,-0.01 -34.0888,3.2518 -11.1333,3.3198 -20.2939,11.3641 -30.8423,16.2328 -10.5821,4.8842 -21.8332,8.2073 -32.4656,12.981 -5.5189,2.4779 -10.1903,7.8227 -16.2328,8.1164 -7.5406,0.3665 -14.936,-3.8207 -21.1442,-8.1164 -10.715,-7.414 -18.5347,-18.5153 -25.9725,-29.2138 -11.1929,-16.0997 -19.412,-34.1314 -27.5958,-51.9501 -5.5804,-12.1502 -8.0012,-25.7329 -14.6094,-37.3562 -6.0977,-10.7252 -14.2122,-20.2846 -22.7259,-29.2138 -6.8858,-7.2218 -15.6204,-12.4788 -22.7259,-19.4846 -8.7364,-8.6138 -14.3249,-20.5275 -24.3493,-27.6009 -7.1441,-5.041 -15.6084,-9.9791 -24.3491,-9.7553 -7.7595,0.1987 -14.985,5.0317 -21.1443,9.7553 -6.708,5.1443 -11.7814,12.2979 -16.2327,19.4845 -7.7821,12.564 -12.4494,26.8276 -17.8561,40.582 -4.8229,12.2691 -8.9611,24.8027 -12.9862,37.3562 -2.928,9.1319 -4.7349,18.6271 -8.1164,27.601 -5.8894,15.6296 -21.1027,45.4466 -21.1027,45.4466 z"
       id="path118631"
       sodipodi:nodetypes="cssssssssssssssssssssssssssssssssssssssssssssssssssssssssssscssssssssssssssssssssssc" />
  </g>
  <text
     xml:space="preserve"
     style="font-style:normal;font-variant:normal;font-weight:normal;font-stretch:normal;font-size:80px;line-height:1.25;font-family:sans-serif;-inkscape-font-specification:sans-serif;letter-spacing:0px;word-spacing:0px;fill:#000000;fill-opacity:1;stroke:none"
     x="-848.60474"
     y="499.09375"
     id="text837"><tspan
       sodipodi:role="line"
       id="tspan835"
       x="-848.60474"
       y="499.09375">comment: Focus on Cs+ counterions close to the electric double layer.</tspan></text>
</svg>
