<?xml version="1.0" encoding="UTF-8" standalone="no"?>
<svg
   height="6751px"
   version="1.1"
   width="5063px"
   id="svg77195"
   sodipodi:docname="nakamura_2011_structure_165433_f1a_green.svg"
   inkscape:version="1.1.2 (b8e25be833, 2022-02-05)"
   xmlns:inkscape="http://www.inkscape.org/namespaces/inkscape"
   xmlns:sodipodi="http://sodipodi.sourceforge.net/DTD/sodipodi-0.dtd"
   xmlns:xlink="http://www.w3.org/1999/xlink"
   xmlns="http://www.w3.org/2000/svg"
   xmlns:svg="http://www.w3.org/2000/svg"
   xmlns:rdf="http://www.w3.org/1999/02/22-rdf-syntax-ns#"
   xmlns:cc="http://creativecommons.org/ns#"
   xmlns:dc="http://purl.org/dc/elements/1.1/">
  <metadata
     id="metadata28">
    <rdf:RDF>
      <cc:Work
         rdf:about="">
        <dc:format>image/svg+xml</dc:format>
        <dc:type
           rdf:resource="http://purl.org/dc/dcmitype/StillImage" />
      </cc:Work>
    </rdf:RDF>
  </metadata>
  <sodipodi:namedview
     id="namedview77197"
     pagecolor="#ffffff"
     bordercolor="#666666"
     borderopacity="1.0"
     inkscape:pageshadow="2"
     inkscape:pageopacity="0.0"
     inkscape:pagecheckerboard="0"
     showgrid="false"
     inkscape:zoom="0.21774552"
     inkscape:cx="45.92517"
     inkscape:cy="849.61564"
     inkscape:window-width="1920"
     inkscape:window-height="1017"
     inkscape:window-x="-8"
     inkscape:window-y="32"
     inkscape:window-maximized="1"
     inkscape:current-layer="svg77195" />
  <defs
     id="defs77191" />
  <image
     xlink:href="Nakamura_2011_Structure_165433_p1.png"
     id="image77193"
     y="0"
     x="0"
     width="5063px"
     sodipodi:insensitive="true"
     height="6751px" />
  <g
     id="g82738"
     transform="translate(-2.4349306,1.6258802)">
    <path
       style="fill:none;stroke:#000000;stroke-width:1px;stroke-linecap:butt;stroke-linejoin:miter;stroke-opacity:1"
       d="M 948.93291,624.25169 601.46806,721.70044"
       id="path77332" />
    <text
       xml:space="preserve"
       style="font-size:85.3333px;line-height:1.25;font-family:sans-serif"
       x="0.77166378"
       y="747.66248"
       id="text79278"><tspan
         sodipodi:role="line"
         id="tspan79276"
         x="0.77166378"
         y="747.66248">j2: 15 uA / cm2</tspan></text>
  </g>
  <g
     id="g82733"
     transform="translate(2.4349058,5.6840895)">
    <path
       style="fill:none;stroke:#000000;stroke-width:0.545914px;stroke-linecap:butt;stroke-linejoin:miter;stroke-opacity:1"
       d="m 945.77589,1592.6725 -282.62963,37.5752"
       id="path77334" />
    <text
       xml:space="preserve"
       style="font-size:85.3333px;line-height:1.25;font-family:sans-serif"
       x="-2.4748938"
       y="1673.1396"
       id="text81538"><tspan
         sodipodi:role="line"
         id="tspan81536"
         x="-2.4748938"
         y="1673.1396">j1: -10 uA / cm2</tspan></text>
  </g>
  <g
     id="g88642">
    <path
       style="fill:none;stroke:#000000;stroke-width:1px;stroke-linecap:butt;stroke-linejoin:miter;stroke-opacity:1"
       d="M 1114.5905,1787.6274 741.15323,2011.6607"
       id="path77336" />
    <text
       xml:space="preserve"
       style="font-size:85.3333px;line-height:1.25;font-family:sans-serif"
       x="-132.33714"
       y="2085.5669"
       id="text83952"><tspan
         sodipodi:role="line"
         id="tspan83950"
         x="-132.33714"
         y="2085.5669">E1: -1.2 V vs Ag/AgCl</tspan></text>
  </g>
  <g
     id="g88637">
    <path
       style="fill:none;stroke:#000000;stroke-width:1px;stroke-linecap:butt;stroke-linejoin:miter;stroke-opacity:1"
       d="m 1949.934,1786.821 279.2873,126.6367"
       id="path77338" />
    <text
       xml:space="preserve"
       style="font-size:85.3333px;line-height:1.25;font-family:sans-serif"
       x="2228.4097"
       y="1968.6594"
       id="text87958"><tspan
         sodipodi:role="line"
         id="tspan87956"
         x="2228.4097"
         y="1968.6594">E2: -0.2 V vs Ag/AgCl</tspan></text>
  </g>
  <text
     xml:space="preserve"
     style="font-size:85.3333px;line-height:1.25;font-family:sans-serif"
     x="1622.1379"
     y="1580.8506"
     id="text94618"><tspan
       sodipodi:role="line"
       id="tspan94616"
       x="1622.1379"
       y="1580.8506">scan rate: 50 mV / s</tspan></text>
  <g
     id="g102540">
    <text
       xml:space="preserve"
       style="font-size:85.3333px;line-height:1.25;font-family:sans-serif"
       x="779.21143"
       y="561.92712"
       id="text89728"><tspan
         sodipodi:role="line"
         id="tspan89726"
         x="779.21143"
         y="561.92712">curve: green</tspan></text>
    <path
       style="fill:none;stroke:#000000;stroke-width:1px;stroke-linecap:butt;stroke-linejoin:miter;stroke-opacity:1"
       d="m 1033.0315,1190.5285 c 6.3348,-15.2271 25.1195,-21.3855 37.3354,-32.4655 10.4962,-9.5203 21.8047,-18.3337 30.8839,-29.2138 9.5232,-11.4122 17.3384,-24.2498 24.3492,-37.3563 7.7777,-14.5402 12.7763,-30.4067 19.4793,-45.4726 6.2972,-14.1538 13.0649,-28.0939 19.4794,-42.1949 7.1217,-15.65564 13.6169,-31.60059 21.1026,-47.08547 6.6393,-13.734 12.3803,-28.09302 21.1027,-40.60796 4.5979,-6.59714 9.3328,-13.7159 16.2327,-17.84568 5.7443,-3.43815 12.8748,-3.79566 19.4793,-4.89063 6.4276,-1.06565 13.0948,-2.91148 19.4794,-1.61289 11.3967,2.318 21.3417,9.58418 30.8839,16.23278 5.9747,4.16293 9.8761,11.06752 16.2328,14.61994 8.3699,4.67748 18.2867,5.81975 27.5958,8.11637 10.7156,2.64361 21.4361,6.90762 32.4656,6.50352 10.1016,-0.37011 21.1772,-1.99169 29.2189,-8.11637 7.5359,-5.73952 10.4721,-15.85386 14.6096,-24.37522 5.3096,-10.93542 9.0328,-22.58293 12.9862,-34.07842 4.7885,-13.92389 9.6505,-27.87938 12.9862,-42.22086 3.1035,-13.34322 4.3294,-27.05455 6.4931,-40.58199 2.1651,-13.53588 5.4076,-26.94308 6.4932,-40.60796 0.3427,-4.31342 -4.3226,-12.78503 0,-12.98103 0,0 3.1658,35.73352 4.8698,53.58899 0.5166,5.41332 1.001,10.8306 1.6233,16.23279 1.4361,12.46639 2.8211,24.94974 4.8698,37.33023 2.254,13.62121 4.8703,27.19867 8.158,40.60796 4.1584,16.96084 8.3442,34.01071 14.6096,50.31126 7.1218,18.52884 17.5712,35.60404 25.9724,53.58899 10.0483,21.51095 19.5682,43.26505 29.219,64.95725 6.0074,13.5028 10.0271,28.0471 17.856,40.5819 9.7646,15.6341 20.8565,31.3083 35.7122,42.2208 8.9896,6.6034 20.0595,10.1267 30.8423,12.9811 13.1838,3.49 26.998,4.2856 40.6236,4.8646 15.6868,0.6666 31.375,-1.7686 47.0751,-1.6128 20.0487,0.1989 40.066,1.7747 60.0612,3.2517 17.3435,1.2811 34.5732,4.053 51.945,4.8647 11.3644,0.531 22.7836,-0.825 34.1305,0 22.3616,1.6258 44.3172,6.8673 66.5544,9.7292 9.7196,1.2509 19.4217,3.0328 29.219,3.2517 8.1322,0.1817 16.2195,-1.3439 24.3492,-1.6129 7.5712,-0.2505 15.7235,2.89 22.7259,0 3.5458,-1.4634 4.9784,-5.9705 8.1579,-8.1163 3.4152,-2.3049 7.2524,-5.1434 11.3632,-4.8646 3.1469,0.2135 5.4109,3.2431 8.1163,4.8646 2.7054,1.6215 5.0247,4.2396 8.1163,4.8646 3.7497,0.7581 7.9044,0.023 11.3629,-1.6128 7.9663,-3.7668 14.3841,-10.6824 19.4795,-17.8717 2.3838,-3.3634 0.8482,-12.2742 4.8699,-11.3682 0,0 -1.3527,28.1395 -1.6233,42.2209 -0.2599,13.5248 1.6519,27.1559 0,40.582 -1.0904,8.8621 -3.0768,17.7385 -6.4932,25.988 -2.4144,5.83 -4.4277,12.8267 -9.7397,16.2328 -4.1244,2.6446 -9.7101,1.6129 -14.6095,1.6129 -9.7989,0 -19.435,-2.6874 -29.2191,-3.2258 -4.336,-0.2386 -8.696,-0.3059 -13.0278,0 -7.6322,0.539 -15.0982,3.8251 -22.7259,3.2258 -7.3355,-0.5764 -13.9888,-4.5971 -21.1026,-6.4775 -9.6467,-2.5499 -19.3008,-5.4131 -29.219,-6.5036 -13.4463,-1.4784 -27.0547,0 -40.582,0 -12.4451,0 -24.8913,-0.1609 -37.3354,0 -21.1218,0.2732 -42.2853,0.055 -63.3494,1.6389 -13.0502,0.9812 -26.0854,2.5091 -38.9587,4.8647 -18.0728,3.3071 -35.8576,8.0926 -53.5682,12.981 -15.8516,4.3752 -31.4621,9.5854 -47.1168,14.6199 -9.7725,3.1428 -20.1863,4.8518 -29.2189,9.7293 -11.5303,6.2261 -22.0387,14.6692 -30.8424,24.3752 -12.0996,13.3397 -20.5698,29.6497 -29.219,45.4466 -10.5857,19.3337 -18.0657,40.2172 -27.5957,60.0925 -9.4148,19.635 -20.962,38.2784 -29.219,58.4277 -8.6327,21.0661 -13.98,43.3337 -21.1027,64.9571 -6.9617,21.1347 -17.2515,41.4096 -21.1442,63.3183 -3.2204,18.1247 -0.2098,36.8477 -1.6233,55.2019 -1.0052,13.0521 -4.8699,38.9691 -4.8699,38.9691 0,0 -5.0765,-17.1547 -6.4931,-25.9621 -2.328,-14.4739 -1.1648,-29.3484 -3.2465,-43.8597 -3.3006,-23.008 -6.3639,-46.4511 -14.6095,-68.1829 -5.0735,-13.3714 -12.1505,-26.203 -21.1027,-37.3562 -4.5546,-5.6744 -9.7642,-11.2621 -16.2327,-14.594 -8.8704,-4.5691 -19.2584,-7.0909 -29.2191,-6.5035 -11.4462,0.675 -21.8321,7.0784 -32.4655,11.3682 -13.2498,5.3453 -25.8782,12.1243 -38.9587,17.8717 -10.2236,4.4921 -19.9372,10.7739 -30.8839,12.9809 -10.6084,2.1388 -22.4682,4.1431 -32.4656,0 -6.3645,-2.6376 -10.3091,-9.2373 -14.6095,-14.6198 -7.5918,-9.5022 -13.9135,-20.0385 -19.4794,-30.8528 -13.1065,-25.4654 -21.518,-53.0856 -32.4656,-79.551 -6.9545,-16.8123 -12.9288,-34.0828 -21.1026,-50.3373 -7.63,-15.1731 -16.308,-29.868 -25.9724,-43.8337 -5.9196,-8.5542 -12.5812,-16.5996 -19.521,-24.3492 -7.6614,-8.5554 -13.9593,-19.4821 -24.3492,-24.3752 -10.3259,-4.863 -26.4077,5.2166 -34.0888,-3.2257 -7.6505,-8.4086 -0.3152,-22.7407 0,-34.1045 0.2706,-9.7579 1.6774,-19.4783 1.6232,-29.2398 -0.045,-8.1343 -4.7477,-16.8388 -1.6232,-24.3492 z"
       id="path102455"
       sodipodi:nodetypes="sssssssssssssssssssssssssssssssssssssssssssssssssssssssssssssssssssssssscsssssssssssssssssssss" />
  </g>
  <text
     xml:space="preserve"
     style="font-size:80px;line-height:1.25;font-family:sans-serif;-inkscape-font-specification:sans-serif;letter-spacing:0px;word-spacing:0px"
     x="-831.24561"
     y="399.54898"
     id="text2744"><tspan
       sodipodi:role="line"
       id="tspan2742"
       x="-831.24561"
       y="399.54898">Figure: 1a</tspan></text>
  <text
     xml:space="preserve"
     style="font-size:80px;line-height:1.25;font-family:sans-serif;-inkscape-font-specification:sans-serif;letter-spacing:0px;word-spacing:0px"
     x="-808.28302"
     y="578.65717"
     id="text3584"><tspan
       sodipodi:role="line"
       id="tspan3582"
       x="-808.28302"
       y="578.65717">Tags: BCV</tspan></text>
</svg>
