<?xml version="1.0" encoding="UTF-8" standalone="no"?>
<svg
   xmlns:dc="http://purl.org/dc/elements/1.1/"
   xmlns:cc="http://creativecommons.org/ns#"
   xmlns:rdf="http://www.w3.org/1999/02/22-rdf-syntax-ns#"
   xmlns:svg="http://www.w3.org/2000/svg"
   xmlns="http://www.w3.org/2000/svg"
   xmlns:xlink="http://www.w3.org/1999/xlink"
   xmlns:sodipodi="http://sodipodi.sourceforge.net/DTD/sodipodi-0.dtd"
   xmlns:inkscape="http://www.inkscape.org/namespaces/inkscape"
   height="6751px"
   version="1.1"
   width="5063px"
   id="svg77195"
   sodipodi:docname="nakamura_2011_structure_165433_p1_1a_red.svg"
   inkscape:version="0.92.2 (5c3e80d, 2017-08-06)">
  <metadata
     id="metadata28">
    <rdf:RDF>
      <cc:Work
         rdf:about="">
        <dc:format>image/svg+xml</dc:format>
        <dc:type
           rdf:resource="http://purl.org/dc/dcmitype/StillImage" />
      </cc:Work>
    </rdf:RDF>
  </metadata>
  <sodipodi:namedview
     id="namedview77197"
     pagecolor="#ffffff"
     bordercolor="#666666"
     borderopacity="1.0"
     inkscape:pageshadow="2"
     inkscape:pageopacity="0.0"
     inkscape:pagecheckerboard="0"
     showgrid="false"
     inkscape:zoom="0.05443638"
     inkscape:cx="-3398.2161"
     inkscape:cy="3892.0244"
     inkscape:window-width="1920"
     inkscape:window-height="1017"
     inkscape:window-x="-8"
     inkscape:window-y="32"
     inkscape:window-maximized="1"
     inkscape:current-layer="svg77195" />
  <defs
     id="defs77191" />
  <image
     sodipodi:absref="F:\Github\echemdb\website\literature\nakamura_2011_structure_165433\Nakamura_2011_Structure_165433_p1.png"
     xlink:href="Nakamura_2011_Structure_165433_p1.png"
     id="image77193"
     y="0"
     x="0"
     width="5063px"
     sodipodi:insensitive="true"
     height="6751px" />
  <g
     id="g82738"
     transform="translate(-2.4349306,1.6258802)">
    <path
       style="fill:none;stroke:#000000;stroke-width:1px;stroke-linecap:butt;stroke-linejoin:miter;stroke-opacity:1"
       d="M 948.93291,624.25169 601.46806,721.70044"
       id="path77332" />
    <text
       xml:space="preserve"
       style="font-size:85.3333px;line-height:1.25;font-family:sans-serif"
       x="0.77166378"
       y="747.66248"
       id="text79278"><tspan
         sodipodi:role="line"
         id="tspan79276"
         x="0.77166378"
         y="747.66248">y2: 15 uA / cm2</tspan></text>
  </g>
  <g
     id="g82733"
     transform="translate(2.4349058,5.6840895)">
    <path
       style="fill:none;stroke:#000000;stroke-width:0.545914px;stroke-linecap:butt;stroke-linejoin:miter;stroke-opacity:1"
       d="m 945.77589,1592.6725 -282.62963,37.5752"
       id="path77334" />
    <text
       xml:space="preserve"
       style="font-size:85.3333px;line-height:1.25;font-family:sans-serif"
       x="-2.4748938"
       y="1673.1396"
       id="text81538"><tspan
         sodipodi:role="line"
         id="tspan81536"
         x="-2.4748938"
         y="1673.1396">y1: -10 uA / cm2</tspan></text>
  </g>
  <g
     id="g88642">
    <path
       style="fill:none;stroke:#000000;stroke-width:1px;stroke-linecap:butt;stroke-linejoin:miter;stroke-opacity:1"
       d="M 1114.5905,1787.6274 741.15323,2011.6607"
       id="path77336" />
    <text
       xml:space="preserve"
       style="font-size:85.3333px;line-height:1.25;font-family:sans-serif"
       x="-132.33714"
       y="2085.5669"
       id="text83952"><tspan
         sodipodi:role="line"
         id="tspan83950"
         x="-132.33714"
         y="2085.5669">x1: -1.2 V vs Ag/AgCl</tspan></text>
  </g>
  <g
     id="g88637">
    <path
       style="fill:none;stroke:#000000;stroke-width:1px;stroke-linecap:butt;stroke-linejoin:miter;stroke-opacity:1"
       d="m 1949.934,1786.821 279.2873,126.6367"
       id="path77338" />
    <text
       xml:space="preserve"
       style="font-size:85.3333px;line-height:1.25;font-family:sans-serif"
       x="2228.4097"
       y="1968.6594"
       id="text87958"><tspan
         sodipodi:role="line"
         id="tspan87956"
         x="2228.4097"
         y="1968.6594">x2: -0.2 V vs Ag/AgCl</tspan></text>
  </g>
  <g
     id="g98387">
    <path
       style="fill:none;stroke:#000000;stroke-width:1px;stroke-linecap:butt;stroke-linejoin:miter;stroke-opacity:1"
       d="m 1034.6547,1309.0544 c 11.363,-6.4775 1.662,-34.625 1.6233,-51.9501 -0.034,-15.1585 -4.4044,-30.5454 -1.6233,-45.4466 1.5127,-8.1049 5.5874,-15.6134 9.7397,-22.7363 7.1965,-12.3449 17.6777,-22.469 25.9725,-34.1045 7.9299,-11.1237 15.4561,-22.5386 22.7259,-34.1045 7.3627,-11.7138 15.5193,-23.0768 21.1442,-35.7173 7.3759,-16.5754 10.7626,-34.652 16.2328,-51.9501 4.2824,-13.5421 8.6363,-27.0615 12.9863,-40.58199 5.9231,-18.40996 11.2382,-37.03013 17.8561,-55.20188 6.3988,-17.56997 12.9303,-35.15761 21.1025,-51.97614 3.8145,-7.8502 8.5337,-15.22959 12.9862,-22.73631 4.2128,-7.10256 6.1805,-16.4204 12.9863,-21.09744 7.2591,-4.98857 17.485,-7.21944 25.9724,-4.86461 6.2774,1.74166 9.7408,8.6528 14.6096,12.98103 9.7418,8.66025 19.9858,16.78747 29.219,25.98807 9.7803,9.74575 17.3512,21.64228 27.6373,30.85267 6.9353,6.21007 14.6306,11.63616 22.726,16.23279 8.2181,4.66631 16.8427,8.92709 25.9724,11.36818 4.7332,1.26555 9.874,2.86922 14.6096,1.61285 7.1126,-1.88698 12.4838,-7.9522 17.856,-12.98103 6.1715,-5.77703 11.9539,-12.19395 16.2327,-19.48455 3.818,-6.50541 6.0389,-13.87213 8.1165,-21.12341 4.7048,-16.42108 7.5443,-33.37114 9.7397,-50.31126 2.092,-16.14248 1.8064,-32.51074 3.2465,-48.72438 1.3006,-14.64348 9.7397,-38.96909 4.8698,-43.8337 0,0 6.9674,36.29649 8.1164,43.8337 3.2375,18.75679 10.2452,36.67485 14.6096,55.20189 3.6749,15.60042 5.9773,31.50592 9.7396,47.08551 3.8227,15.82981 7.8734,31.63788 13.0278,47.08547 5.1543,15.44706 11.5098,30.47589 17.8562,45.47262 7.6465,18.06912 16.5884,35.56862 24.3491,53.58902 6.2405,14.4904 11.1454,29.555 17.8561,43.8337 7.3101,15.554 14.1055,31.6469 24.3491,45.4466 5.474,7.3743 12.0302,14.1131 19.4794,19.4846 8.8338,6.3698 18.7847,11.4997 29.219,14.6199 17.7611,5.3112 36.7106,5.7399 55.2331,6.5035 15.6879,0.6468 31.374,-1.5799 47.0751,-1.6389 20.0277,-0.075 40.0353,1.3657 60.0613,1.6389 21.1145,0.288 42.244,-0.6812 63.3495,0 16.8001,0.5422 33.5145,3.0123 50.3216,3.2517 15.1589,0.2159 30.2938,-1.3656 45.4518,-1.6388 11.3611,-0.2048 22.7399,0.5624 34.0889,0 5.4309,-0.2691 11.3192,0.716 16.2328,-1.6129 4.1522,-1.9681 6.0139,-7.0659 9.7397,-9.7553 1.9627,-1.4168 4.0787,-3.0799 6.4932,-3.2517 3.4141,-0.2429 6.6284,1.825 9.7396,3.2517 2.8779,1.3198 4.9929,4.944 8.158,4.8647 7.8004,-0.1955 13.445,-8.0343 19.4794,-12.9811 7.1024,-5.8223 14.6513,-11.6721 19.4792,-19.4845 5.3962,-8.732 6.4084,-19.5045 9.7397,-29.2138 3.1663,-9.2283 0.1235,-29.2479 9.7398,-27.601 3.1966,0.5475 -0.06,6.4868 0,9.7293 0.2706,14.6187 1.8235,29.2138 1.6233,43.8337 -0.2303,16.8124 -2.4583,33.5418 -3.2466,50.3373 -0.8631,18.3883 1.1966,37.0105 -1.6233,55.2018 -1.2074,7.7888 -3.6357,15.3908 -6.4932,22.7364 -1.754,4.509 -2.6228,10.0779 -6.4931,12.981 -4.8397,3.6302 -11.8134,3.5466 -17.8561,3.2517 -7.8676,-0.384 -15.1054,-4.4834 -22.7258,-6.4774 -11.3152,-2.9608 -22.5145,-6.776 -34.1305,-8.1424 -13.4347,-1.5804 -27.0663,0.5616 -40.5819,0 -19.5299,-0.8115 -38.9082,-4.0532 -58.4381,-4.8647 -17.3,-0.7188 -34.6366,-0.4808 -51.9449,0 -19.5158,0.5422 -39.0411,1.4351 -58.4797,3.2518 -20.6488,1.9298 -41.0619,5.9259 -61.6846,8.1164 -19.9736,2.1216 -40.254,1.5302 -60.0613,4.8646 -17.098,2.8783 -34.4742,6.0671 -50.3633,13.007 -8.2501,3.6034 -16.0212,8.5858 -22.7258,14.594 -10.8905,9.7594 -19.8122,21.7244 -27.5958,34.1044 -6.0566,9.6332 -9.6304,20.6209 -14.6095,30.8527 -6.3544,13.0581 -13.573,25.7023 -19.4794,38.9691 -6.6231,14.8765 -11.0068,30.6988 -17.856,45.4726 -6.7193,14.4935 -16.3895,27.53 -22.726,42.1949 -2.7154,6.2844 -3.9881,13.1133 -6.4931,19.4845 -4.7873,12.1761 -12.2114,23.2807 -16.2743,35.7173 -4.9771,15.2351 -7.4087,31.2286 -9.7398,47.0856 -2.6879,18.2842 -2.7952,36.864 -4.8698,55.2279 -1.7785,15.7436 -4.2358,31.4034 -6.4931,47.0855 -1.5591,10.8313 -4.8698,32.4655 -4.8698,32.4655 0,0 0.3303,-16.2395 0,-24.3492 -1.0831,-26.5918 -2.9956,-53.1941 -6.4931,-79.5771 -2.7474,-20.7245 -4.4996,-41.9323 -11.363,-61.6794 -3.4175,-9.8327 -9.2812,-18.6583 -14.6095,-27.6009 -3.9952,-6.7052 -8.0406,-13.4462 -12.9862,-19.4846 -3.882,-4.7398 -7.2254,-10.9215 -12.9862,-13.007 -5.6201,-2.0346 -12.2536,-0.4436 -17.8561,1.6389 -8.726,3.2436 -15.4124,10.473 -22.7259,16.2328 -8.4369,6.6446 -16.1215,14.1955 -24.3492,21.0974 -8.5578,7.1788 -17.4563,13.9446 -26.0141,21.1234 -8.2277,6.9019 -16.2506,14.0443 -24.3491,21.0974 -4.3384,3.7784 -7.9517,8.5843 -12.9863,11.3682 -4.9433,2.7334 -10.5856,4.7336 -16.2328,4.8647 -6.6907,0.1554 -14.1446,-0.8236 -19.4793,-4.8647 -6.9571,-5.2701 -8.8693,-15.0404 -12.9863,-22.7362 -7.4217,-13.8732 -15.3035,-27.595 -21.1026,-42.2209 -6.2465,-15.7544 -9.6055,-32.5065 -14.6095,-48.6984 -7.378,-23.8735 -13.3233,-48.2837 -22.7259,-71.4347 -7.741,-19.0597 -18.6087,-36.6969 -27.5957,-55.2018 -4.4479,-9.1586 -6.9272,-19.4756 -13.0279,-27.627 -3.9034,-5.2155 -8.9682,-9.7231 -14.6095,-12.9811 -5.9255,-3.4222 -12.6427,-6.7629 -19.4794,-6.4774 -4.1165,0.1719 -7.6734,3.0307 -11.3629,4.8646 -3.9041,1.9407 -15.1507,8.6367 -11.363,6.4775 z"
       id="path88677"
       sodipodi:nodetypes="sssssssssssssssssssssssssccsssssssssssssssssssssssssssssssssssssssssssssssssssscssssssssssssssssssssssss" />
    <text
       xml:space="preserve"
       style="font-size:85.3333px;line-height:1.25;font-family:sans-serif"
       x="779.21143"
       y="561.92712"
       id="text89728"><tspan
         sodipodi:role="line"
         id="tspan89726"
         x="779.21143"
         y="561.92712">curve: Ag(100)_0.1M_CsBr_0.05M_CsOH</tspan></text>
  </g>
  <text
     xml:space="preserve"
     style="font-size:85.3333px;line-height:1.25;font-family:sans-serif"
     x="1622.1379"
     y="1580.8506"
     id="text94618"><tspan
       sodipodi:role="line"
       id="tspan94616"
       x="1622.1379"
       y="1580.8506">scan rate: 50 mV / s</tspan></text>
  <text
     xml:space="preserve"
     style="font-style:normal;font-variant:normal;font-weight:normal;font-stretch:normal;font-size:80px;line-height:1.25;font-family:sans-serif;-inkscape-font-specification:sans-serif;letter-spacing:0px;word-spacing:0px;fill:#000000;fill-opacity:1;stroke:none"
     x="-862.55029"
     y="178.21593"
     id="text837"><tspan
       sodipodi:role="line"
       id="tspan835"
       x="-862.55029"
       y="178.21593">comment: Focus on Cs+ counterions close to the electric double layer.</tspan></text>
</svg>
