<?xml version="1.0" encoding="UTF-8" standalone="no"?>
<svg
   height="6617px"
   version="1.1"
   width="4959px"
   id="svg61"
   sodipodi:docname="hamad_2003_electrosorption_211_f1a_solid.svg"
   inkscape:version="1.1.2 (b8e25be833, 2022-02-05)"
   xmlns:inkscape="http://www.inkscape.org/namespaces/inkscape"
   xmlns:sodipodi="http://sodipodi.sourceforge.net/DTD/sodipodi-0.dtd"
   xmlns:xlink="http://www.w3.org/1999/xlink"
   xmlns="http://www.w3.org/2000/svg"
   xmlns:svg="http://www.w3.org/2000/svg"
   xmlns:rdf="http://www.w3.org/1999/02/22-rdf-syntax-ns#"
   xmlns:cc="http://creativecommons.org/ns#"
   xmlns:dc="http://purl.org/dc/elements/1.1/">
  <metadata
     id="metadata28">
    <rdf:RDF>
      <cc:Work
         rdf:about="">
        <dc:format>image/svg+xml</dc:format>
        <dc:type
           rdf:resource="http://purl.org/dc/dcmitype/StillImage" />
      </cc:Work>
    </rdf:RDF>
  </metadata>
  <sodipodi:namedview
     id="namedview63"
     pagecolor="#ffffff"
     bordercolor="#666666"
     borderopacity="1.0"
     inkscape:pageshadow="2"
     inkscape:pageopacity="0.0"
     inkscape:pagecheckerboard="0"
     showgrid="false"
     inkscape:zoom="0.3141747"
     inkscape:cx="1480.0683"
     inkscape:cy="1327.287"
     inkscape:window-width="1920"
     inkscape:window-height="1017"
     inkscape:window-x="-8"
     inkscape:window-y="32"
     inkscape:window-maximized="1"
     inkscape:current-layer="g841" />
  <defs
     id="defs57" />
  <image
     xlink:href="hamad_2003_electrosorption_211_p2.png"
     height="6617px"
     sodipodi:insensitive="true"
     width="4959px"
     x="0"
     y="0"
     id="image59" />
  <g
     id="g18530">
    <path
       style="fill:none;stroke:#000000;stroke-width:1px;stroke-linecap:butt;stroke-linejoin:miter;stroke-opacity:1"
       d="M 695.7467,663.33907 87.799232,551.96503"
       id="path1762" />
    <text
       xml:space="preserve"
       style="font-size:85.3333px;line-height:1.25;font-family:sans-serif"
       x="86.674187"
       y="551.39709"
       id="text3372"><tspan
         sodipodi:role="line"
         id="tspan3370"
         x="86.674187"
         y="551.39709">j2: 20 uA / cm2</tspan></text>
  </g>
  <g
     id="g18535">
    <path
       style="fill:none;stroke:#000000;stroke-width:1px;stroke-linecap:butt;stroke-linejoin:miter;stroke-opacity:1"
       d="M 700.42337,1820.7692 57.472567,1881.2498"
       id="path7883" />
    <text
       xml:space="preserve"
       style="font-size:85.3333px;line-height:1.25;font-family:sans-serif"
       x="-531.60956"
       y="1948.2903"
       id="text9823"><tspan
         sodipodi:role="line"
         id="tspan9821"
         x="-531.60956"
         y="1948.2903">j1: -20 uA / cm2</tspan></text>
  </g>
  <g
     id="g31757">
    <path
       style="fill:none;stroke:#000000;stroke-width:1px;stroke-linecap:butt;stroke-linejoin:miter;stroke-opacity:1"
       d="m 2196.5629,1817.832 329.4306,206.8886"
       id="path18574" />
    <text
       xml:space="preserve"
       style="font-size:85.3333px;line-height:1.25;font-family:sans-serif"
       x="2519.6292"
       y="2085.2012"
       id="text23946"><tspan
         sodipodi:role="line"
         id="tspan23944"
         x="2519.6292"
         y="2085.2012">E2: -0.3 V vs SCE</tspan></text>
  </g>
  <g
     id="g59293">
    <path
       style="fill:none;stroke:#000000;stroke-width:1px;stroke-linecap:butt;stroke-linejoin:miter;stroke-opacity:1"
       d="M 824.71161,1819.4129 266.12772,2258.6623"
       id="path18572" />
    <text
       xml:space="preserve"
       style="font-size:85.3333px;line-height:1.25;font-family:sans-serif"
       x="-419.78168"
       y="2328.6792"
       id="text28732"><tspan
         sodipodi:role="line"
         id="tspan28730"
         x="-419.78168"
         y="2328.6792">E1: -1.4 V vs SCE</tspan></text>
  </g>
  <text
     xml:space="preserve"
     style="font-size:85.3333px;line-height:1.25;font-family:sans-serif"
     x="765.21753"
     y="1599.2925"
     id="text51150"><tspan
       sodipodi:role="line"
       id="tspan51148"
       x="765.21753"
       y="1599.2925">scan rate: 50 mV / s</tspan></text>
  <g
     id="g74746">
    <g
       id="g841">
      <g
         id="g11218">
        <text
           id="text36854"
           y="599.87103"
           x="1077.2283"
           style="font-size:85.3333px;line-height:1.25;font-family:sans-serif"
           xml:space="preserve"><tspan
             y="599.87103"
             x="1077.2283"
             id="tspan36852"
             sodipodi:role="line">curve: solid</tspan></text>
        <path
           style="fill:none;stroke:#00ff00;stroke-width:1px;stroke-linecap:butt;stroke-linejoin:miter;stroke-opacity:1"
           d="m 821.59703,1373.0418 c 1.31088,-26.6579 -5.18984,-60.8965 9.15095,-90.5149 8.31632,-17.1758 44.29143,-27.7581 86.73519,-40.3836 75.28373,-22.3943 75.57215,-18.6376 148.80253,-51.7228 93.9559,-42.4489 138.564,-92.0096 185.4064,-96.284 47.858,-4.3671 64.9085,10.263 105.8329,8.7531 48.2535,-1.7803 96.75,1.3406 144.8239,-3.183 63.2171,-5.9485 114.9625,6.0068 179.0405,-11.936 72.5059,-20.3027 81.12,-47.4589 89.9181,-136.0708 9.4961,-95.64222 12.7318,-288.05629 12.7318,-288.05629 10.4154,-24.4032 1.9683,184.13472 20.6891,275.32453 11.167,54.395 28.3668,122.93846 54.11,157.55566 18.2115,24.4892 68.752,56.6325 109.8115,66.8418 40.6997,10.1198 89.4757,-3.9437 131.2964,-0.7957 33.9258,2.5537 66.1942,16.6487 108.22,16.7104 21.3386,0.031 31.0847,-42.6895 39.9858,-38.991 10.7909,4.4837 23.9988,24.4165 68.6322,26.2592 4.1779,0.1725 9.654,101.4543 -1.1936,132.0921 -1.6152,4.5619 -18.9985,11.147 -35.5978,15.591 -16.0318,4.2921 -22.9826,16.2846 -34.427,16.8352 -8.1975,0.3944 -22.5965,-37.7128 -41.5772,-38.3942 -26.2303,-0.9416 -48.7312,13.8622 -74.6002,18.3019 -22.0589,3.7858 -44.5732,1.7691 -66.245,7.3606 -42.9923,11.0924 -86.8273,10.1048 -113.5912,15.3179 -34.9299,6.8037 -66.7923,25.7234 -91.5096,51.3249 -16.9451,17.5513 -47.2333,99.7213 -55.3036,155.1685 -13.8487,95.1471 -16.3287,285.2926 -20.2913,277.3139 -10.4475,-21.0358 -3.6191,-174.6199 -12.7318,-261.0013 -4.6177,-43.7718 -9.1779,-95.3084 -39.3888,-127.3177 -26.1381,-27.694 -80.086,-34.306 -105.4351,-34.2167 -82.679,0.2914 -149.2002,2.3596 -222.4081,11.936 -58.0829,7.5979 -122.1769,31.6401 -168.6959,27.8509 -57.1919,-4.6586 -106.9362,-38.3106 -162.728,-51.7229 -46.8324,-11.2584 -95.08217,-17.8391 -143.23236,-19.0976 -65.37769,-1.7088 -106.78331,20.3885 -106.23071,9.1509 z"
           id="path6385"
           sodipodi:nodetypes="sssssssssssssssssssssssssssssssssss" />
      </g>
    </g>
    <text
       xml:space="preserve"
       style="font-style:normal;font-variant:normal;font-weight:normal;font-stretch:normal;font-size:86.6667px;line-height:1.25;font-family:sans-serif;-inkscape-font-specification:sans-serif;letter-spacing:0px;word-spacing:0px;fill:#000000;fill-opacity:1;stroke:none"
       x="323.73599"
       y="115.63734"
       id="text845"><tspan
         sodipodi:role="line"
         id="tspan843"
         x="323.73599"
         y="115.63734">comment: Combined with Monte-Carlo simulation.</tspan></text>
    <text
       xml:space="preserve"
       style="font-style:normal;font-variant:normal;font-weight:normal;font-stretch:normal;font-size:86.6667px;line-height:1.25;font-family:sans-serif;-inkscape-font-specification:sans-serif;letter-spacing:0px;word-spacing:0px;fill:#000000;fill-opacity:1;stroke:none"
       x="634.74023"
       y="319.82581"
       id="text845-3"><tspan
         sodipodi:role="line"
         id="tspan843-5"
         x="634.74023"
         y="319.82581">linked: capacitance, chronocoulometry</tspan></text>
    <text
       xml:space="preserve"
       style="font-size:80px;line-height:1.25;font-family:sans-serif;-inkscape-font-specification:sans-serif;letter-spacing:0px;word-spacing:0px"
       x="-604.75909"
       y="891.22388"
       id="text1599"><tspan
         sodipodi:role="line"
         id="tspan1597"
         x="-604.75909"
         y="891.22388">Figure: 1a</tspan></text>
    <text
       xml:space="preserve"
       style="font-size:80px;line-height:1.25;font-family:sans-serif;-inkscape-font-specification:sans-serif;letter-spacing:0px;word-spacing:0px"
       x="-598.39319"
       y="1094.9323"
       id="text2747"><tspan
         sodipodi:role="line"
         id="tspan2745"
         x="-598.39319"
         y="1094.9323">tags: BCV</tspan></text>
  </g>
</svg>
