<?xml version="1.0" encoding="UTF-8" standalone="no"?>
<svg
   xmlns:dc="http://purl.org/dc/elements/1.1/"
   xmlns:cc="http://creativecommons.org/ns#"
   xmlns:rdf="http://www.w3.org/1999/02/22-rdf-syntax-ns#"
   xmlns:svg="http://www.w3.org/2000/svg"
   xmlns="http://www.w3.org/2000/svg"
   xmlns:xlink="http://www.w3.org/1999/xlink"
   xmlns:sodipodi="http://sodipodi.sourceforge.net/DTD/sodipodi-0.dtd"
   xmlns:inkscape="http://www.inkscape.org/namespaces/inkscape"
   height="6617px"
   version="1.1"
   width="4959px"
   id="svg61"
   sodipodi:docname="hamad_2003_electrosorption_211_f1a_dotted.svg"
   inkscape:version="0.92.2 (5c3e80d, 2017-08-06)">
  <metadata
     id="metadata28">
    <rdf:RDF>
      <cc:Work
         rdf:about="">
        <dc:format>image/svg+xml</dc:format>
        <dc:type
           rdf:resource="http://purl.org/dc/dcmitype/StillImage" />
      </cc:Work>
    </rdf:RDF>
  </metadata>
  <sodipodi:namedview
     id="namedview63"
     pagecolor="#ffffff"
     bordercolor="#666666"
     borderopacity="1.0"
     inkscape:pageshadow="2"
     inkscape:pageopacity="0.0"
     inkscape:pagecheckerboard="0"
     showgrid="false"
     inkscape:zoom="0.15708735"
     inkscape:cx="1077.5041"
     inkscape:cy="4186.9474"
     inkscape:window-width="1920"
     inkscape:window-height="1017"
     inkscape:window-x="-8"
     inkscape:window-y="32"
     inkscape:window-maximized="1"
     inkscape:current-layer="g59288" />
  <defs
     id="defs57" />
  <image
     sodipodi:absref="F:\Github\echemdb\website\literature\hamad_2003_electrosorption_211\Hamad_2003_Electrosorption_211_p2.png"
     xlink:href="Hamad_2003_Electrosorption_211_p2.png"
     height="6617px"
     sodipodi:insensitive="true"
     width="4959px"
     x="0"
     y="0"
     id="image59" />
  <g
     id="g18530">
    <path
       style="fill:none;stroke:#000000;stroke-width:1px;stroke-linecap:butt;stroke-linejoin:miter;stroke-opacity:1"
       d="M 695.7467,663.33907 87.799232,551.96503"
       id="path1762" />
    <text
       xml:space="preserve"
       style="font-size:85.3333px;line-height:1.25;font-family:sans-serif"
       x="86.674187"
       y="551.39709"
       id="text3372"><tspan
         sodipodi:role="line"
         id="tspan3370"
         x="86.674187"
         y="551.39709">j2: 20 uA / cm2</tspan></text>
  </g>
  <g
     id="g18535">
    <path
       style="fill:none;stroke:#000000;stroke-width:1px;stroke-linecap:butt;stroke-linejoin:miter;stroke-opacity:1"
       d="M 700.42337,1820.7692 57.472567,1881.2498"
       id="path7883" />
    <text
       xml:space="preserve"
       style="font-size:85.3333px;line-height:1.25;font-family:sans-serif"
       x="-531.60956"
       y="1948.2903"
       id="text9823"><tspan
         sodipodi:role="line"
         id="tspan9821"
         x="-531.60956"
         y="1948.2903">j1: -20 uA / cm2</tspan></text>
  </g>
  <g
     id="g31757">
    <path
       style="fill:none;stroke:#000000;stroke-width:1px;stroke-linecap:butt;stroke-linejoin:miter;stroke-opacity:1"
       d="m 2196.5629,1817.832 329.4306,206.8886"
       id="path18574" />
    <text
       xml:space="preserve"
       style="font-size:85.3333px;line-height:1.25;font-family:sans-serif"
       x="2519.6292"
       y="2085.2012"
       id="text23946"><tspan
         sodipodi:role="line"
         id="tspan23944"
         x="2519.6292"
         y="2085.2012">E2: -0.3 V vs SCE</tspan></text>
  </g>
  <g
     id="g59293">
    <path
       style="fill:none;stroke:#000000;stroke-width:1px;stroke-linecap:butt;stroke-linejoin:miter;stroke-opacity:1"
       d="M 824.71161,1819.4129 266.12772,2258.6623"
       id="path18572" />
    <text
       xml:space="preserve"
       style="font-size:85.3333px;line-height:1.25;font-family:sans-serif"
       x="-419.78168"
       y="2328.6792"
       id="text28732"><tspan
         sodipodi:role="line"
         id="tspan28730"
         x="-419.78168"
         y="2328.6792">E1: -1.4 V vs SCE</tspan></text>
  </g>
  <g
     id="g59288">
    <g
       id="g846">
      <path
         sodipodi:nodetypes="ssssssssssssssssssssssssssssssssssssssssssssssssssssssssssssssssssssssssssssssssssssss"
         id="path213"
         d="m 882.04945,1351.5195 c -8.06621,-9.4806 -6.45777,-17.2003 -6.762,-26.2626 -0.37156,-11.0679 2.8428,-20.6734 6.762,-31.0308 2.68957,-7.1078 6.36262,-13.8035 9.54635,-20.7041 3.18051,-6.8936 4.60979,-14.9108 9.54635,-20.6787 3.72895,-4.3569 9.26268,-6.8315 14.31955,-9.5362 6.07958,-3.2518 12.45502,-6.0907 19.09271,-7.9552 6.71603,-1.8865 13.89392,-1.5865 20.68373,-3.1872 13.5517,-3.1949 26.26804,-9.3758 39.77649,-12.7489 11.51787,-2.876 23.45427,-3.7783 35.04407,-6.349 10.1725,-2.2564 20.0654,-5.6639 30.2301,-7.9553 8.4234,-1.8989 17.0533,-2.8091 25.4569,-4.7935 7.514,-1.7744 14.6913,-4.9003 22.2749,-6.3489 10.4708,-2.0001 21.3514,-1.1815 31.8211,-3.1872 3.7926,-0.7265 7.3574,-2.3984 11.1375,-3.1873 7.8566,-1.6397 15.8576,-2.6548 23.8658,-3.1872 11.1265,-0.7397 22.3221,-0.6683 33.4531,0 13.3307,0.8004 26.4747,3.6045 39.7764,4.7936 8.9955,0.8042 18.0486,0.8217 27.048,1.5809 4.7852,0.4037 9.5328,1.1961 14.3195,1.5808 10.5864,0.8508 21.2982,0.2571 31.8212,-1.1792 8.3086,-1.1341 15.8453,-2.7223 23.8658,-5.1697 9.489,-2.8955 18.8397,-6.9002 28.2821,-9.9442 10.2214,-3.2952 16.451,-4.5985 26.6502,-7.9617 12.5923,-4.1524 25.2814,-8.0935 38.1854,-11.1425 5.7709,-1.3636 19.9691,-2.5528 25.8649,-3.1872 15.301,-1.6464 26.3856,-3.5507 41.7552,-2.7728 11.7605,0.5952 26.8556,2.1133 38.5832,3.1744 11.6456,1.0537 22.5734,2.5214 34.2484,3.1745 15.9211,0.8906 29.0395,2.087 44.9475,3.1872 14.8524,1.0272 29.6863,2.3346 44.5497,3.1872 12.1894,0.6992 24.416,0.7094 36.5943,1.5809 10.6464,0.7618 21.2552,1.9947 31.862,3.1872 12.747,1.4332 25.3992,3.7413 38.1854,4.7681 14.8118,1.1895 29.7089,0.8594 44.5496,1.6063 16.4544,0.8281 32.8796,2.1612 49.3228,3.1872 17.5129,1.0927 35.0399,1.9608 52.5457,3.1618 13.7976,0.9466 27.5477,2.6556 41.3675,3.1872 12.7191,0.4893 25.4593,-0.247 38.1854,0 13.797,0.2678 27.5706,1.3386 41.3676,1.6064 11.6655,0.2264 23.3355,0 35.0032,0 14.8635,0 29.7288,-0.2307 44.5905,0 16.9774,0.2635 29.9641,-0.302 46.9362,-0.8032 5.855,-0.1729 16.943,-2.9028 21.4792,0.8032 0,0 2.0074,19.0395 1.5911,28.6339 -0.3516,8.1052 -1.5071,15.9278 -3.1821,23.8659 -1.0102,4.7875 -1.4462,9.755 -3.182,14.3297 -1.9382,5.108 -6.8509,8.9793 -7.9554,14.3298 -1.0775,5.2199 1.5911,10.5805 1.5911,15.9105 0,5.33 2.5063,12.5018 -1.5911,15.9106 -9.8189,8.1689 -25.4127,-3.1872 -38.1854,-3.1872 -12.7727,0 -25.4345,2.4411 -38.1854,3.1872 -15.906,0.9307 -31.8416,1.3386 -47.7725,1.6064 -8.4845,0.1426 -16.976,-0.2806 -25.457,0 -15.9367,0.5272 -31.8307,1.9715 -47.7317,3.1616 -12.7371,0.9533 -25.4609,2.0789 -38.1854,3.1873 -17.5209,1.5261 -35.0655,2.8309 -52.5457,4.7681 -12.2275,1.3551 -24.3595,3.5068 -36.5944,4.7935 -13.2277,1.3912 -26.5027,2.3154 -39.7764,3.1618 -11.1277,0.7096 -22.3252,0.421 -33.4123,1.6063 -9.6229,1.0288 -19.0459,3.4911 -28.639,4.7681 -10.5803,1.4084 -21.2181,2.3909 -31.862,3.1872 -10.5905,0.7923 -21.2043,1.3173 -31.8211,1.5809 -9.0132,0.2238 -18.032,0 -27.048,0 -7.425,0 -14.4861,0.8774 -21.8771,1.5872 -16.6703,1.6009 -33.2501,4.9438 -49.7206,7.9745 -12.1773,2.2407 -24.2905,4.9866 -36.5943,6.3744 -10.0404,1.1325 -20.1783,1.0993 -30.2709,1.5808 -12.1956,0.5819 -24.3983,1.0096 -36.5944,1.5809 -10.6089,0.4969 -21.2007,1.5617 -31.8212,1.6063 -12.7396,0.053 -25.6292,0.5482 -38.1854,-1.6063 -7.1082,-1.2197 -13.8149,-4.1505 -20.6837,-6.3489 -14.3891,-4.6053 -20.4847,-7.9046 -35.0441,-11.9394 -9.4247,-2.6119 -22.9694,-4.3736 -32.6166,-5.9792 -9.475,-1.5769 -22.2176,-3.8074 -31.8213,-3.984 -14.3565,-0.264 -28.6764,1.705 -42.9586,3.1872 -15.9661,1.6569 -32.5913,2.4596 -48.5272,4.3856 -19.6086,2.3699 -39.1598,6.168 -58.91,6.3745 -12.2436,0.128 -24.3736,-2.4271 -36.5943,-3.1873 -14.3019,-0.8897 -28.6626,-0.6259 -42.9586,-1.6063 -15.9523,-1.0939 -31.7482,-4.3225 -47.7318,-4.7681 -12.2187,-0.3407 -24.45447,0.5845 -36.63512,1.6063 -8.52092,0.7148 -16.99504,1.9317 -25.45694,3.1618 -15.96227,2.3204 -31.97737,4.4943 -47.73175,7.9552 -5.90787,1.2978 -8.29398,1.7548 -13.52396,4.7937 -3.24252,1.8841 -9.50285,10.8114 -11.93298,7.9552 z"
         style="fill:none;stroke:#000000;stroke-width:1px;stroke-linecap:butt;stroke-linejoin:miter;stroke-opacity:1" />
      <text
         id="text36854"
         y="599.87103"
         x="1077.2283"
         style="font-size:85.3333px;line-height:1.25;font-family:sans-serif"
         xml:space="preserve"><tspan
           y="599.87103"
           x="1077.2283"
           id="tspan36852"
           sodipodi:role="line">curve: dashed_Ag(100)_HClO4</tspan></text>
    </g>
    <text
       xml:space="preserve"
       style="font-style:normal;font-variant:normal;font-weight:normal;font-stretch:normal;font-size:37.33333206px;line-height:1.25;font-family:sans-serif;-inkscape-font-specification:sans-serif;letter-spacing:0px;word-spacing:0px;fill:#000000;fill-opacity:1;stroke:none"
       x="1044.0051"
       y="238.38326"
       id="text837"><tspan
         sodipodi:role="line"
         x="1044.0051"
         y="271.41449"
         id="tspan839" /></text>
    <text
       xml:space="preserve"
       style="font-style:normal;font-variant:normal;font-weight:normal;font-stretch:normal;font-size:86.66666412px;line-height:1.25;font-family:sans-serif;-inkscape-font-specification:sans-serif;letter-spacing:0px;word-spacing:0px;fill:#000000;fill-opacity:1;stroke:none"
       x="973.98041"
       y="168.35852"
       id="text845"><tspan
         sodipodi:role="line"
         id="tspan843"
         x="973.98041"
         y="168.35852">comment: Combined with Monte-Carlo simulation.</tspan></text>
    <text
       xml:space="preserve"
       style="font-style:normal;font-variant:normal;font-weight:normal;font-stretch:normal;font-size:86.66666412px;line-height:1.25;font-family:sans-serif;-inkscape-font-specification:sans-serif;letter-spacing:0px;word-spacing:0px;fill:#000000;fill-opacity:1;stroke:none"
       x="1284.9846"
       y="372.547"
       id="text845-3"><tspan
         sodipodi:role="line"
         id="tspan843-5"
         x="1284.9846"
         y="372.547">linked: capacitance, chronocoulometry</tspan></text>
  </g>
  <text
     xml:space="preserve"
     style="font-size:85.3333px;line-height:1.25;font-family:sans-serif"
     x="765.21753"
     y="1599.2925"
     id="text51150"><tspan
       sodipodi:role="line"
       id="tspan51148"
       x="765.21753"
       y="1599.2925">scan rate: 50 mV / s</tspan></text>
</svg>
