<?xml version="1.0" encoding="UTF-8" standalone="no"?>
<svg
   xmlns:dc="http://purl.org/dc/elements/1.1/"
   xmlns:cc="http://creativecommons.org/ns#"
   xmlns:rdf="http://www.w3.org/1999/02/22-rdf-syntax-ns#"
   xmlns:svg="http://www.w3.org/2000/svg"
   xmlns="http://www.w3.org/2000/svg"
   xmlns:xlink="http://www.w3.org/1999/xlink"
   xmlns:sodipodi="http://sodipodi.sourceforge.net/DTD/sodipodi-0.dtd"
   xmlns:inkscape="http://www.inkscape.org/namespaces/inkscape"
   height="6617px"
   version="1.1"
   width="4959px"
   id="svg61"
   sodipodi:docname="hamad_2003_electrosorption_211_f1a_solid.svg"
   inkscape:version="0.92.2 (5c3e80d, 2017-08-06)">
  <metadata
     id="metadata28">
    <rdf:RDF>
      <cc:Work
         rdf:about="">
        <dc:format>image/svg+xml</dc:format>
        <dc:type
           rdf:resource="http://purl.org/dc/dcmitype/StillImage" />
      </cc:Work>
    </rdf:RDF>
  </metadata>
  <sodipodi:namedview
     id="namedview63"
     pagecolor="#ffffff"
     bordercolor="#666666"
     borderopacity="1.0"
     inkscape:pageshadow="2"
     inkscape:pageopacity="0.0"
     inkscape:pagecheckerboard="0"
     showgrid="false"
     inkscape:zoom="0.15708735"
     inkscape:cx="-595.21022"
     inkscape:cy="5668.8206"
     inkscape:window-width="1920"
     inkscape:window-height="1017"
     inkscape:window-x="-8"
     inkscape:window-y="32"
     inkscape:window-maximized="1"
     inkscape:current-layer="g74746" />
  <defs
     id="defs57" />
  <image
     sodipodi:absref="F:\Github\echemdb\website\literature\hamad_2003_electrosorption_211\Hamad_2003_Electrosorption_211_p2.png"
     xlink:href="Hamad_2003_Electrosorption_211_p2.png"
     height="6617px"
     sodipodi:insensitive="true"
     width="4959px"
     x="0"
     y="0"
     id="image59" />
  <g
     id="g18530">
    <path
       style="fill:none;stroke:#000000;stroke-width:1px;stroke-linecap:butt;stroke-linejoin:miter;stroke-opacity:1"
       d="M 695.7467,663.33907 87.799232,551.96503"
       id="path1762" />
    <text
       xml:space="preserve"
       style="font-size:85.3333px;line-height:1.25;font-family:sans-serif"
       x="86.674187"
       y="551.39709"
       id="text3372"><tspan
         sodipodi:role="line"
         id="tspan3370"
         x="86.674187"
         y="551.39709">j2: 20 uA / cm2</tspan></text>
  </g>
  <g
     id="g18535">
    <path
       style="fill:none;stroke:#000000;stroke-width:1px;stroke-linecap:butt;stroke-linejoin:miter;stroke-opacity:1"
       d="M 700.42337,1820.7692 57.472567,1881.2498"
       id="path7883" />
    <text
       xml:space="preserve"
       style="font-size:85.3333px;line-height:1.25;font-family:sans-serif"
       x="-531.60956"
       y="1948.2903"
       id="text9823"><tspan
         sodipodi:role="line"
         id="tspan9821"
         x="-531.60956"
         y="1948.2903">j1: -20 uA / cm2</tspan></text>
  </g>
  <g
     id="g31757">
    <path
       style="fill:none;stroke:#000000;stroke-width:1px;stroke-linecap:butt;stroke-linejoin:miter;stroke-opacity:1"
       d="m 2196.5629,1817.832 329.4306,206.8886"
       id="path18574" />
    <text
       xml:space="preserve"
       style="font-size:85.3333px;line-height:1.25;font-family:sans-serif"
       x="2519.6292"
       y="2085.2012"
       id="text23946"><tspan
         sodipodi:role="line"
         id="tspan23944"
         x="2519.6292"
         y="2085.2012">E2: -0.3 V vs SCE</tspan></text>
  </g>
  <g
     id="g59293">
    <path
       style="fill:none;stroke:#000000;stroke-width:1px;stroke-linecap:butt;stroke-linejoin:miter;stroke-opacity:1"
       d="M 824.71161,1819.4129 266.12772,2258.6623"
       id="path18572" />
    <text
       xml:space="preserve"
       style="font-size:85.3333px;line-height:1.25;font-family:sans-serif"
       x="-419.78168"
       y="2328.6792"
       id="text28732"><tspan
         sodipodi:role="line"
         id="tspan28730"
         x="-419.78168"
         y="2328.6792">E1: -1.4 V vs SCE</tspan></text>
  </g>
  <text
     xml:space="preserve"
     style="font-size:85.3333px;line-height:1.25;font-family:sans-serif"
     x="765.21753"
     y="1599.2925"
     id="text51150"><tspan
       sodipodi:role="line"
       id="tspan51148"
       x="765.21753"
       y="1599.2925">scan rate: 50 mV / s</tspan></text>
  <g
     id="g74746">
    <g
       id="g841">
      <text
         id="text36854"
         y="599.87103"
         x="1077.2283"
         style="font-size:85.3333px;line-height:1.25;font-family:sans-serif"
         xml:space="preserve"><tspan
           y="599.87103"
           x="1077.2283"
           id="tspan36852"
           sodipodi:role="line">curve: solid_Ag(100)_HClO4_KCl</tspan></text>
      <path
         id="path74661"
         d="m 821.55371,1378.5664 1.59108,-44.57 3.18212,-36.5893 4.77315,-15.9105 27.04801,-14.3298 30.27089,-12.7234 39.77648,-15.9105 50.91387,-12.7489 52.50489,-17.4914 47.7726,-19.0979 41.3675,-23.8658 71.5976,-46.1764 38.1854,-19.0723 27.0889,-6.3745 39.7763,1.5809 42.9587,6.3744 57.2781,1.5809 66.8652,-1.5809 63.6423,-1.5808 h 63.6424 l 42.9993,-3.1873 39.7765,-7.9552 33.4123,-7.9553 27.048,-17.517 19.0927,-30.2403 14.3194,-50.91896 6.4051,-55.71251 1.591,-50.91897 4.7732,-87.53374 3.1822,-57.2934 1.591,-63.64231 4.7732,79.57839 1.5911,44.54454 1.591,52.52535 3.1821,46.15087 6.3643,49.33813 12.7284,52.49981 15.9106,38.1956 14.3195,41.3828 12.7285,20.6787 22.2748,23.8913 28.639,19.0979 27.048,14.3042 14.3603,7.9553 28.6391,4.7936 28.6391,6.3489 28.6391,-1.5808 27.0478,-1.5809 22.275,-4.7936 31.8211,4.7936 15.9514,3.1617 23.8659,3.1872 23.8658,7.9553 27.048,-1.5809 19.0928,-4.768 7.9552,-14.3297 11.1374,-19.0979 15.9107,11.1425 11.1373,6.349 15.9107,4.7936 15.9512,4.7681 h 7.9554 v 138.4526 l -23.9066,4.7681 -20.6839,12.7489 -11.1374,3.1617 -9.5463,4.7935 -19.0928,-17.5169 -7.9552,-11.1425 -9.5463,-7.9553 -14.3196,-1.5809 h -22.2747 l -19.0928,9.5362 -22.2748,9.5617 -22.3156,3.1616 -23.8658,1.6065 -28.6391,1.5807 -35.0033,4.7937 -25.4569,3.1617 -30.2302,3.1872 -33.4529,6.3744 -23.866,11.1425 -22.2748,14.3042 -25.457,22.2851 -12.7284,12.7489 -20.6837,35.0084 -14.3196,52.4998 -11.1374,41.3828 -4.7732,49.3381 -6.3642,41.3828 -3.1821,44.5445 -1.5911,60.4807 -1.5911,36.6147 -1.591,41.3573 -3.1821,19.0978 -4.7732,-47.7318 -1.5911,-46.1508 -1.591,-58.8743 -1.591,-41.3828 -3.223,-54.1062 -4.7731,-47.7572 -7.9554,-44.5446 -9.5463,-25.4722 -17.5017,-25.4723 -33.4121,-15.9105 -25.457,-9.5362 -42.9586,-4.768 h -44.5904 l -36.5944,1.5808 -58.8692,3.1872 -49.3227,3.1872 -41.4083,4.7681 -55.6871,9.5362 -38.1854,6.3744 -35.0033,11.1425 -22.2748,1.5808 h -19.1335 l -20.6837,-7.9553 -35.0033,-7.9552 -25.457,-12.7234 -44.5496,-15.9105 -38.1854,-7.9554 -38.2262,-7.9553 -31.82119,-6.3744 -28.63905,-4.7681 h -36.59432 -28.63905 -33.45305 l -17.50162,3.1872 z"
         style="fill:none;stroke:#000000;stroke-width:1px;stroke-linecap:butt;stroke-linejoin:miter;stroke-opacity:1" />
    </g>
    <text
       xml:space="preserve"
       style="font-style:normal;font-variant:normal;font-weight:normal;font-stretch:normal;font-size:86.66666412px;line-height:1.25;font-family:sans-serif;-inkscape-font-specification:sans-serif;letter-spacing:0px;word-spacing:0px;fill:#000000;fill-opacity:1;stroke:none"
       x="323.73599"
       y="115.63734"
       id="text845"><tspan
         sodipodi:role="line"
         id="tspan843"
         x="323.73599"
         y="115.63734">comment: Combined with Monte-Carlo simulation.</tspan></text>
    <text
       xml:space="preserve"
       style="font-style:normal;font-variant:normal;font-weight:normal;font-stretch:normal;font-size:86.66666412px;line-height:1.25;font-family:sans-serif;-inkscape-font-specification:sans-serif;letter-spacing:0px;word-spacing:0px;fill:#000000;fill-opacity:1;stroke:none"
       x="634.74023"
       y="319.82581"
       id="text845-3"><tspan
         sodipodi:role="line"
         id="tspan843-5"
         x="634.74023"
         y="319.82581">linked: capacitance, chronocoulometry</tspan></text>
  </g>
</svg>
