<?xml version="1.0" encoding="UTF-8" standalone="no"?>
<svg
   xmlns:dc="http://purl.org/dc/elements/1.1/"
   xmlns:cc="http://creativecommons.org/ns#"
   xmlns:rdf="http://www.w3.org/1999/02/22-rdf-syntax-ns#"
   xmlns:svg="http://www.w3.org/2000/svg"
   xmlns="http://www.w3.org/2000/svg"
   xmlns:xlink="http://www.w3.org/1999/xlink"
   xmlns:sodipodi="http://sodipodi.sourceforge.net/DTD/sodipodi-0.dtd"
   xmlns:inkscape="http://www.inkscape.org/namespaces/inkscape"
   height="6601px"
   version="1.1"
   width="5100px"
   id="svg53"
   sodipodi:docname="horswell_2004_a_10970_p2_f1a_solid.svg"
   inkscape:version="0.92.2 (5c3e80d, 2017-08-06)">
  <metadata
     id="metadata28">
    <rdf:RDF>
      <cc:Work
         rdf:about="">
        <dc:format>image/svg+xml</dc:format>
        <dc:type
           rdf:resource="http://purl.org/dc/dcmitype/StillImage" />
      </cc:Work>
    </rdf:RDF>
  </metadata>
  <sodipodi:namedview
     id="namedview55"
     pagecolor="#ffffff"
     bordercolor="#666666"
     borderopacity="1.0"
     inkscape:pageshadow="2"
     inkscape:pageopacity="0.0"
     inkscape:pagecheckerboard="0"
     showgrid="false"
     inkscape:zoom="0.15746811"
     inkscape:cx="1724.4148"
     inkscape:cy="4648.2488"
     inkscape:window-width="1920"
     inkscape:window-height="1017"
     inkscape:window-x="-8"
     inkscape:window-y="32"
     inkscape:window-maximized="1"
     inkscape:current-layer="svg53" />
  <defs
     id="defs49" />
  <image
     sodipodi:absref="F:\Github\echemdb\website\literature\horswell_2004_a_10970\Horswell_2004_A_10970_p2.png"
     xlink:href="Horswell_2004_A_10970_p2.png"
     id="image51"
     y="0"
     x="0"
     width="5100px"
     sodipodi:insensitive="true"
     height="6601px" />
  <g
     id="g12490"
     transform="translate(-692.187,66.693542)">
    <path
       style="fill:none;stroke:#000000;stroke-width:1px;stroke-linecap:butt;stroke-linejoin:miter;stroke-opacity:1"
       d="m 4858.4465,1057.774 -114.3202,165.0292"
       id="path176"
       sodipodi:nodetypes="cc" />
    <text
       xml:space="preserve"
       style="font-size:85.3333px;line-height:1.25;font-family:sans-serif"
       x="4426.603"
       y="1308.5228"
       id="text2776"><tspan
         sodipodi:role="line"
         id="tspan2774"
         x="4426.603"
         y="1308.5228">x2: 0.2 V vs Hg/HgO/0.1M NaOH</tspan></text>
  </g>
  <g
     id="g12495">
    <path
       style="fill:none;stroke:#000000;stroke-width:1px;stroke-linecap:butt;stroke-linejoin:miter;stroke-opacity:1"
       d="m 3388.3224,1121.2116 -341.2912,119.0662"
       id="path174" />
    <text
       xml:space="preserve"
       style="font-size:85.3333px;line-height:1.25;font-family:sans-serif"
       x="2523.1472"
       y="1325.9973"
       id="text7610"><tspan
         sodipodi:role="line"
         id="tspan7608"
         x="2523.1472"
         y="1325.9973">x1: -1 V vs Hg/HgO/0.1M NaOH</tspan></text>
  </g>
  <g
     id="g12500">
    <path
       style="fill:none;stroke:#000000;stroke-width:1px;stroke-linecap:butt;stroke-linejoin:miter;stroke-opacity:1"
       d="m 3264.5199,1006.9019 -277.8434,22.2311"
       id="path172" />
    <text
       xml:space="preserve"
       style="font-size:85.3333px;line-height:1.25;font-family:sans-serif"
       x="2531.043"
       y="1105.3394"
       id="text10584"><tspan
         sodipodi:role="line"
         id="tspan10582"
         x="2531.043"
         y="1105.3394">y1: -20 uA / cm2</tspan></text>
  </g>
  <g
     id="g12485">
    <path
       style="fill:none;stroke:#000000;stroke-width:1px;stroke-linecap:butt;stroke-linejoin:miter;stroke-opacity:1"
       d="M 3264.5199,513.16215 3037.4673,444.91713"
       id="path170" />
    <text
       xml:space="preserve"
       style="font-size:85.3333px;line-height:1.25;font-family:sans-serif"
       x="2475.4902"
       y="424.23758"
       id="text12268"><tspan
         sodipodi:role="line"
         id="tspan12266"
         x="2475.4902"
         y="424.23758">y2: 20 uA / cm2</tspan></text>
  </g>
  <g
     id="g3444">
    <text
       xml:space="preserve"
       style="font-size:85.3333px;line-height:1.25;font-family:sans-serif"
       x="3169.6519"
       y="365.91833"
       id="text14638"><tspan
         sodipodi:role="line"
         id="tspan14636"
         x="3169.6519"
         y="365.91833">curve: Ag(110)_0.09M_NaF_0.01M_NaOH</tspan></text>
    <path
       style="fill:none;stroke:#000000;stroke-width:1px;stroke-linecap:butt;stroke-linejoin:miter;stroke-opacity:1"
       d="m 3327.0499,813.04141 c 0,0 0,-22.75683 0,-34.13525 0,-8.99588 0,-26.98765 0,-26.98765 3.5528,-5.07169 11.377,-5.18449 17.4593,-6.3463 9.0981,-1.73787 18.5224,-0.39765 27.7762,-0.80125 9.0078,-0.39287 18.1821,0.29013 27.003,-1.57704 8.8451,-1.87229 17.9333,-4.42112 25.3954,-9.52581 5.5675,-3.80864 9.0641,-9.99403 13.4912,-15.08358 5.9144,-6.79934 10.6855,-14.69791 17.4594,-20.64138 3.3102,-2.90434 6.932,-5.75732 11.1105,-7.14755 3.5293,-1.17426 7.4905,-1.55253 11.1308,-0.78851 5.5587,1.16666 10.3265,4.82493 15.0785,7.93606 4.2519,2.78372 8.0443,6.21982 11.9041,9.52581 3.2697,2.80058 5.977,6.28351 9.5232,8.72456 7.3102,5.03201 15.4764,8.86053 23.8082,11.91682 10.4872,3.84692 21.5515,6.03035 32.5582,7.93605 12.5792,2.17796 25.359,3.0606 38.0931,3.96802 13.738,0.97895 27.5198,1.22562 41.2878,1.58976 18.2484,0.48264 36.5044,0.6571 54.7588,0.78853 16.6721,0.12003 33.3456,0.13577 50.0175,0 16.1383,-0.13143 32.4036,1.2748 48.41,-0.78853 13.2424,-1.70704 26.2384,-5.30847 38.9069,-9.52582 12.8219,-4.26841 24.7984,-10.75232 37.2995,-15.88483 12.638,-5.18871 25.5845,-9.62437 38.1135,-15.07086 10.7439,-4.67049 20.9235,-10.59388 31.7442,-15.08361 7.2647,-3.01426 14.5655,-6.13164 22.2209,-7.93605 6.4836,-1.52821 13.1871,-2.72032 19.8402,-2.39098 9.751,0.4827 19.1308,3.94352 28.5902,6.35902 12.0054,3.06563 23.73,7.15941 35.7122,10.31431 5.5223,1.45402 10.9853,3.38265 16.6657,3.96804 9.2204,0.9502 18.704,1.01296 27.7965,-0.78853 8.0493,-1.59481 16.1251,-4.27976 23.0146,-8.73728 5.0271,-3.25255 9.0136,-7.98535 12.6977,-12.70532 5.6945,-7.29566 10.4903,-15.36691 14.2849,-23.80817 3.9793,-8.85196 6.025,-18.45545 8.7297,-27.77621 1.1456,-3.94792 -0.9057,-12.41899 3.1743,-11.91679 0,0 0.5331,34.39799 0.7937,51.59708 0.2686,17.72889 1.0088,35.45723 0.7936,53.18685 -0.1639,13.50321 -1.425,26.97827 -1.5873,40.4815 -0.2099,17.46262 0.6614,34.92225 0.7937,52.38563 0.082,10.84817 0.1807,21.69847 0,32.54545 -0.2646,15.88295 -1.4991,31.74412 -1.5873,47.62903 -0.066,11.91109 0.7936,35.72501 0.7936,35.72501 0,0 -5.1126,-25.05502 -8.7296,-37.30202 -3.1064,-10.51793 -5.0623,-21.81994 -11.1105,-30.96844 -5.3682,-8.11993 -13.5143,-14.17137 -21.4273,-19.84015 -5.8693,-4.20469 -12.0477,-8.54094 -19.0465,-10.31432 -6.6738,-1.69102 -13.7757,-0.29394 -20.6541,0 -9.2842,0.39674 -18.6174,0.80741 -27.7763,2.37829 -13.4696,2.31022 -26.5933,6.3772 -39.6802,10.31431 -9.3793,2.8217 -18.054,8.51833 -27.7966,9.52584 -8.4854,0.87751 -17.1231,-1.08323 -25.3954,-3.16682 -8.5275,-2.14786 -16.4296,-6.27784 -24.6017,-9.52578 -7.168,-2.84891 -14.244,-5.92725 -21.4274,-8.73731 -8.4257,-3.29603 -17.1739,-5.79372 -25.4157,-9.52583 -7.6546,-3.46624 -14.4904,-8.61054 -22.2209,-11.90408 -9.4666,-4.03319 -19.3824,-7.02359 -29.3635,-9.52578 -10.1737,-2.55047 -20.5097,-4.8009 -30.9709,-5.5578 -7.9197,-0.57302 -15.8678,0.80588 -23.8082,0.78853 -14.0302,-0.0307 -28.0367,-1.17265 -42.0611,-1.57706 -13.2307,-0.38152 -26.4644,-0.79373 -39.7006,-0.80122 -14.0229,-0.008 -28.0994,-0.50711 -42.0611,0.80122 -15.7678,1.47758 -31.1998,5.46787 -46.8431,7.93608 -10.8273,1.70834 -21.9092,2.07689 -32.5379,4.75652 -12.0164,3.02951 -23.8168,7.23987 -34.9389,12.70535 -8.4317,4.14338 -16.4262,9.27273 -23.8082,15.08358 -8.9671,7.05852 -16.7066,15.56824 -24.6018,23.80815 -4.4094,4.60189 -7.5003,10.60629 -12.6977,14.2951 -3.965,2.81411 -8.7213,4.60302 -13.4913,5.54505 -4.4185,0.87261 -9.41,1.86066 -13.5116,0 -5.1206,-2.32293 -7.4594,-8.41643 -11.1105,-12.6926 -4.0264,-4.71577 -7.5003,-9.92961 -11.9041,-14.29506 -5.3399,-5.2934 -11.109,-10.25638 -17.4593,-14.28235 -5.1966,-3.29454 -10.7886,-6.11434 -16.6657,-7.93608 -9.7274,-3.01524 -20.0749,-3.48384 -30.1774,-4.76927 -8.1729,-1.03991 -16.4681,-1.06631 -24.6018,-2.37828 -5.892,-0.95039 -13.736,0.69639 -17.4593,-3.968 z"
       id="path15281"
       sodipodi:nodetypes="sssssssssssssssssssssssssssssssssssssssssscssssssssssssssssssssssssssssssssss" />
  </g>
  <text
     xml:space="preserve"
     style="font-size:85.3333px;line-height:1.25;font-family:sans-serif"
     x="4290.3613"
     y="1039.0585"
     id="text2178"><tspan
       sodipodi:role="line"
       id="tspan2176"
       x="4290.3613"
       y="1039.0585">scan rate: 50 mV / s</tspan></text>
  <text
     xml:space="preserve"
     style="font-style:normal;font-variant:normal;font-weight:normal;font-stretch:normal;font-size:80px;line-height:1.25;font-family:sans-serif;-inkscape-font-specification:sans-serif;letter-spacing:0px;word-spacing:0px;fill:#000000;fill-opacity:1;stroke:none"
     x="-2714.0513"
     y="221.7742"
     id="text837"><tspan
       sodipodi:role="line"
       id="tspan835"
       x="-2714.0513"
       y="221.7742">comment: Hg/HgO ref. is 0.165 V vs the normal hydrogen electrode (NHE ~ SHE). The scan rate is not mentioned in the publication, but can be calculated from the integrated charge provided in the publication, resulting in 50 mV / s.</tspan></text>
</svg>
