<?xml version="1.0" encoding="UTF-8" standalone="no"?>
<svg
   xmlns:dc="http://purl.org/dc/elements/1.1/"
   xmlns:cc="http://creativecommons.org/ns#"
   xmlns:rdf="http://www.w3.org/1999/02/22-rdf-syntax-ns#"
   xmlns:svg="http://www.w3.org/2000/svg"
   xmlns="http://www.w3.org/2000/svg"
   xmlns:xlink="http://www.w3.org/1999/xlink"
   xmlns:sodipodi="http://sodipodi.sourceforge.net/DTD/sodipodi-0.dtd"
   xmlns:inkscape="http://www.inkscape.org/namespaces/inkscape"
   height="6601px"
   version="1.1"
   width="5100px"
   id="svg53"
   sodipodi:docname="horswell_2004_a_10970_f1a_dashed.svg"
   inkscape:version="0.92.2 (5c3e80d, 2017-08-06)">
  <metadata
     id="metadata28">
    <rdf:RDF>
      <cc:Work
         rdf:about="">
        <dc:format>image/svg+xml</dc:format>
        <dc:type
           rdf:resource="http://purl.org/dc/dcmitype/StillImage" />
      </cc:Work>
    </rdf:RDF>
  </metadata>
  <sodipodi:namedview
     id="namedview55"
     pagecolor="#ffffff"
     bordercolor="#666666"
     borderopacity="1.0"
     inkscape:pageshadow="2"
     inkscape:pageopacity="0.0"
     inkscape:pagecheckerboard="0"
     showgrid="false"
     inkscape:zoom="0.15746811"
     inkscape:cx="5775.2869"
     inkscape:cy="5528.1034"
     inkscape:window-width="1920"
     inkscape:window-height="1017"
     inkscape:window-x="-8"
     inkscape:window-y="32"
     inkscape:window-maximized="1"
     inkscape:current-layer="svg53" />
  <defs
     id="defs49" />
  <image
     sodipodi:absref="F:\Github\echemdb\website\literature\horswell_2004_a_10970\Horswell_2004_A_10970_p2.png"
     xlink:href="Horswell_2004_A_10970_p2.png"
     id="image51"
     y="0"
     x="0"
     width="5100px"
     sodipodi:insensitive="true"
     height="6601px" />
  <g
     id="g12490"
     transform="translate(-749.83032,121.22559)">
    <path
       style="fill:none;stroke:#000000;stroke-width:0.402522px;stroke-linecap:butt;stroke-linejoin:miter;stroke-opacity:1"
       d="m 4917.4201,1000.9464 21.6759,226.2707"
       id="path176" />
    <text
       xml:space="preserve"
       style="font-size:85.3333px;line-height:1.25;font-family:sans-serif"
       x="4426.603"
       y="1308.5228"
       id="text2776"><tspan
         sodipodi:role="line"
         id="tspan2774"
         x="4426.603"
         y="1308.5228">x2: 0.2 V vs Hg/HgO/0.1M NaOH</tspan></text>
  </g>
  <g
     id="g12495">
    <path
       style="fill:none;stroke:#000000;stroke-width:1px;stroke-linecap:butt;stroke-linejoin:miter;stroke-opacity:1"
       d="m 3388.3224,1121.2116 -341.2912,119.0662"
       id="path174" />
    <text
       xml:space="preserve"
       style="font-size:85.3333px;line-height:1.25;font-family:sans-serif"
       x="2523.1472"
       y="1325.9973"
       id="text7610"><tspan
         sodipodi:role="line"
         id="tspan7608"
         x="2523.1472"
         y="1325.9973">x1: -1 V vs Hg/HgO/0.1M NaOH</tspan></text>
  </g>
  <g
     id="g12500">
    <path
       style="fill:none;stroke:#000000;stroke-width:1px;stroke-linecap:butt;stroke-linejoin:miter;stroke-opacity:1"
       d="m 3264.5199,1006.9019 -277.8434,22.2311"
       id="path172" />
    <text
       xml:space="preserve"
       style="font-size:85.3333px;line-height:1.25;font-family:sans-serif"
       x="2531.043"
       y="1105.3394"
       id="text10584"><tspan
         sodipodi:role="line"
         id="tspan10582"
         x="2531.043"
         y="1105.3394">y1: -20 uA / cm2</tspan></text>
  </g>
  <g
     id="g12485">
    <path
       style="fill:none;stroke:#000000;stroke-width:1px;stroke-linecap:butt;stroke-linejoin:miter;stroke-opacity:1"
       d="M 3264.5199,513.16215 3037.4673,444.91713"
       id="path170" />
    <text
       xml:space="preserve"
       style="font-size:85.3333px;line-height:1.25;font-family:sans-serif"
       x="2475.4902"
       y="424.23758"
       id="text12268"><tspan
         sodipodi:role="line"
         id="tspan12266"
         x="2475.4902"
         y="424.23758">y2: 20 uA / cm2</tspan></text>
  </g>
  <text
     xml:space="preserve"
     style="font-size:85.3333px;line-height:1.25;font-family:sans-serif"
     x="4294.8506"
     y="1137.9095"
     id="text2178"><tspan
       sodipodi:role="line"
       id="tspan2176"
       x="4294.8506"
       y="1137.9095">scan rate: 50 mV / s</tspan></text>
  <g
     id="g11960">
    <text
       xml:space="preserve"
       style="font-size:85.3333px;line-height:1.25;font-family:sans-serif"
       x="3169.6519"
       y="365.91833"
       id="text14638"><tspan
         sodipodi:role="line"
         id="tspan14636"
         x="3169.6519"
         y="365.91833">curve: Ag(100)_0.09M_NaF_0.01M_NaOH</tspan></text>
    <path
       style="fill:none;stroke:#000000;stroke-width:1px;stroke-linecap:butt;stroke-linejoin:miter;stroke-opacity:1"
       d="m 3390.5671,819.76892 c 0,0 2.0653,-19.4338 2.2447,-29.19131 0.172,-9.35862 -1.1224,-28.05815 -1.1224,-28.05815 0,0 15.7065,1.32067 23.5689,1.11508 11.2753,-0.29483 22.4319,-2.40024 33.6698,-3.36333 10.4635,-0.89672 21.1387,-0.13258 31.4252,-2.24825 8.9319,-1.83705 17.9052,-4.48559 25.8423,-8.97506 7.6331,-4.3175 14.1629,-10.49411 20.202,-16.85292 5.1512,-5.42396 8.6485,-12.22926 13.4679,-17.95006 5.9699,-7.08651 11.2669,-15.23419 19.0796,-20.21625 3.989,-2.54372 8.7684,-3.93342 13.4679,-4.47852 4.1044,-0.47608 8.275,0.40587 12.3456,1.11511 8.7599,1.52626 17.464,3.66882 25.8135,6.72678 9.7502,3.57096 18.2615,10.11347 28.087,13.47153 10.1379,3.46481 20.9127,4.67864 31.4252,6.74476 10.441,2.05207 20.8905,4.11292 31.4252,5.61165 17.5155,2.49187 35.1111,4.67507 52.7782,5.61166 11.5811,0.61395 23.1978,-0.2659 34.7921,0 8.2369,0.1889 16.4543,0.9442 24.6912,1.1331 10.4723,0.24017 20.9501,0 31.4252,0 11.2329,0 22.4922,0.77044 33.6986,0 10.9264,-0.75119 21.9601,-1.69333 32.5475,-4.4965 7.7897,-2.06244 15.2756,-5.29943 22.4466,-8.97506 8.6827,-4.45049 17.4067,-9.2288 24.6912,-15.71975 5.7602,-5.13272 9.8057,-11.91549 14.5902,-17.96804 3.8045,-4.81279 6.925,-10.20931 11.2233,-14.58668 5.0408,-5.13354 10.416,-10.27943 16.8638,-13.47153 5.53,-2.73772 11.7883,-4.64009 17.9572,-4.49651 7.8105,0.18179 15.1455,3.96398 22.4465,6.74476 5.7852,2.20343 11.0575,5.61811 16.8349,7.84192 9.4989,3.6563 19.265,6.69546 29.1806,8.99301 7.0102,1.62435 14.1284,3.39326 21.3243,3.36337 6.836,-0.0284 13.4783,-2.29627 20.2306,-3.36337 7.473,-1.181 15.413,-0.57605 22.4466,-3.3634 5.5004,-2.17976 10.6114,-5.72925 14.5902,-10.10813 7.2122,-7.93738 11.9032,-18.05092 15.7125,-28.0762 5.5791,-14.68295 8.1909,-30.43559 10.101,-46.02621 1.6381,-13.37076 0.532,-26.93882 1.1224,-40.39661 0.8216,-18.72708 2.8056,-37.3977 3.367,-56.13438 0.1234,-4.11696 -4.1184,-12.29924 0,-12.35641 0,0 2.0124,53.87673 2.2447,80.82918 0.3064,35.54703 -0.6488,71.09395 -1.1224,106.63915 -0.3092,23.20292 -1.1846,46.40099 -1.1223,69.60588 0.093,34.81089 2.0802,69.59829 2.2447,104.40891 0.1467,31.05777 -0.6723,62.11274 -1.1224,93.16759 -0.3201,22.0817 -0.9352,44.15932 -1.1223,66.24254 -0.1109,13.09333 0,39.28143 0,39.28143 0,0 -5.6136,-47.10859 -7.8563,-70.721 -1.3488,-14.20127 -1.1181,-28.57608 -3.367,-42.66288 -2.0024,-12.5432 -4.0946,-25.30769 -8.9786,-37.03321 -4.3927,-10.54587 -9.4229,-21.59697 -17.9573,-29.19131 -8.6292,-7.67869 -20.0589,-12.54676 -31.4251,-14.60467 -9.609,-1.73976 -19.65,0.25353 -29.2093,2.24825 -8.9177,1.86084 -17.1746,6.08429 -25.8136,8.97506 -10.4349,3.49174 -20.9362,6.78234 -31.4252,10.1081 -5.9779,1.89543 -12.0165,3.60273 -17.9573,5.61165 -4.1488,1.40296 -8.0019,5.05685 -12.3455,4.49651 -5.8679,-0.75698 -9.87,-6.541 -14.5903,-10.10816 -6.5802,-4.97269 -12.6893,-10.54063 -19.1083,-15.71975 -8.9107,-7.18954 -16.7967,-15.99498 -26.9359,-21.31346 -12.472,-6.54213 -26.4749,-10.27412 -40.4038,-12.35641 -15.9194,-2.37986 -32.1963,0.34279 -48.2889,0 -17.5951,-0.3748 -35.1612,-2.86684 -52.7494,-2.24826 -19.9425,0.70138 -39.7147,4.0255 -59.4834,6.74476 -13.9011,1.91214 -27.8841,3.56393 -41.5549,6.72681 -12.568,2.90773 -24.9006,6.8504 -37.0368,11.22324 -11.833,4.26359 -24.2807,7.69743 -34.7921,14.60467 -11.2828,7.41419 -19.0117,19.2106 -29.2094,28.05821 -8.2525,7.15993 -15.4845,16.6375 -25.8135,20.19831 -2.8295,0.97542 -6.0738,0.72079 -8.9786,0 -6.9827,-1.73269 -13.6733,-5.3433 -19.0796,-10.09014 -8.2696,-7.2609 -12.0785,-18.45237 -19.0796,-26.94307 -7.5772,-9.18944 -14.7492,-19.26932 -24.6912,-25.82798 -5.3355,-3.51979 -11.6676,-5.58736 -17.9572,-6.72673 -8.1081,-1.4688 -16.7011,1.89575 -24.7201,0 -4.8861,-1.15511 -8.5818,-5.58965 -13.4679,-6.74476 -9.1018,-2.15173 -18.7258,0.61794 -28.0581,0 -11.2974,-0.74806 -33.6699,-4.47856 -33.6699,-4.47856 z"
       id="path11400"
       sodipodi:nodetypes="cscssssssssssssssssssssssssssssssssssssssssssscssssssssssssssssssssssssssssssc" />
  </g>
  <text
     xml:space="preserve"
     style="font-style:normal;font-variant:normal;font-weight:normal;font-stretch:normal;font-size:80px;line-height:1.25;font-family:sans-serif;-inkscape-font-specification:sans-serif;letter-spacing:0px;word-spacing:0px;fill:#000000;fill-opacity:1;stroke:none"
     x="1162.14"
     y="155.25044"
     id="text837"><tspan
       sodipodi:role="line"
       id="tspan835"
       x="1162.14"
       y="155.25044">comment: Hg/HgO ref. is 0.165 V vs the normal hydrogen electrode (NHE ~ SHE). The scan rate is not mentioned in the publication, but can be calculated from the integrated charge provided in the publication, resulting in 50 mV / s.</tspan></text>
</svg>
