<?xml version="1.0" encoding="UTF-8" standalone="no"?>
<svg
   height="6601px"
   version="1.1"
   width="5100px"
   id="svg53"
   sodipodi:docname="horswell_2004_a_10970_f1a_dotted.svg"
   inkscape:version="1.1.2 (b8e25be833, 2022-02-05)"
   xmlns:inkscape="http://www.inkscape.org/namespaces/inkscape"
   xmlns:sodipodi="http://sodipodi.sourceforge.net/DTD/sodipodi-0.dtd"
   xmlns:xlink="http://www.w3.org/1999/xlink"
   xmlns="http://www.w3.org/2000/svg"
   xmlns:svg="http://www.w3.org/2000/svg"
   xmlns:rdf="http://www.w3.org/1999/02/22-rdf-syntax-ns#"
   xmlns:cc="http://creativecommons.org/ns#"
   xmlns:dc="http://purl.org/dc/elements/1.1/">
  <metadata
     id="metadata28">
    <rdf:RDF>
      <cc:Work
         rdf:about="">
        <dc:format>image/svg+xml</dc:format>
        <dc:type
           rdf:resource="http://purl.org/dc/dcmitype/StillImage" />
      </cc:Work>
    </rdf:RDF>
  </metadata>
  <sodipodi:namedview
     id="namedview55"
     pagecolor="#ffffff"
     bordercolor="#666666"
     borderopacity="1.0"
     inkscape:pageshadow="2"
     inkscape:pageopacity="0.0"
     inkscape:pagecheckerboard="0"
     showgrid="false"
     inkscape:zoom="0.31493621"
     inkscape:cx="3981.7587"
     inkscape:cy="1031.955"
     inkscape:window-width="1920"
     inkscape:window-height="1017"
     inkscape:window-x="-8"
     inkscape:window-y="32"
     inkscape:window-maximized="1"
     inkscape:current-layer="svg53" />
  <defs
     id="defs49" />
  <image
     xlink:href="horswell_2004_a_10970_p2.png"
     id="image51"
     y="0"
     x="0"
     width="5100px"
     sodipodi:insensitive="true"
     height="6601px" />
  <text
     xml:space="preserve"
     style="font-size:80px;line-height:1.25;font-family:sans-serif;-inkscape-font-specification:sans-serif;letter-spacing:0px;word-spacing:0px"
     x="4546.9526"
     y="492.16315"
     id="text2904"><tspan
       sodipodi:role="line"
       id="tspan2902"
       x="4546.9526"
       y="492.16315">Figure: 1a</tspan></text>
  <text
     xml:space="preserve"
     style="font-size:80px;line-height:1.25;font-family:sans-serif;-inkscape-font-specification:sans-serif;letter-spacing:0px;word-spacing:0px"
     x="4572.3545"
     y="657.27594"
     id="text4118"><tspan
       sodipodi:role="line"
       id="tspan4116"
       x="4572.3545"
       y="657.27594">tags: BCV</tspan></text>
  <g
     id="g12490"
     transform="translate(-701.71041,73.001592)">
    <path
       style="fill:none;stroke:#000000;stroke-width:0.939101px;stroke-linecap:butt;stroke-linejoin:miter;stroke-opacity:1"
       d="m 4867.2945,1053.4254 -157.6046,169.3884"
       id="path176" />
    <text
       xml:space="preserve"
       style="font-size:85.3333px;line-height:1.25;font-family:sans-serif"
       x="4426.603"
       y="1308.5228"
       id="text2776"><tspan
         sodipodi:role="line"
         id="tspan2774"
         x="4426.603"
         y="1308.5228">E2: 0.2 V vs Hg/HgO/0.1M NaOH</tspan></text>
  </g>
  <g
     id="g12495">
    <path
       style="fill:none;stroke:#000000;stroke-width:1px;stroke-linecap:butt;stroke-linejoin:miter;stroke-opacity:1"
       d="m 3388.3224,1121.2116 -341.2912,119.0662"
       id="path174" />
    <text
       xml:space="preserve"
       style="font-size:85.3333px;line-height:1.25;font-family:sans-serif"
       x="2523.1472"
       y="1325.9973"
       id="text7610"><tspan
         sodipodi:role="line"
         id="tspan7608"
         x="2523.1472"
         y="1325.9973">E1: -1 V vs Hg/HgO/0.1M NaOH</tspan></text>
  </g>
  <g
     id="g12500">
    <path
       style="fill:none;stroke:#000000;stroke-width:1px;stroke-linecap:butt;stroke-linejoin:miter;stroke-opacity:1"
       d="m 3264.5199,1006.9019 -277.8434,22.2311"
       id="path172" />
    <text
       xml:space="preserve"
       style="font-size:85.3333px;line-height:1.25;font-family:sans-serif"
       x="2531.043"
       y="1105.3394"
       id="text10584"><tspan
         sodipodi:role="line"
         id="tspan10582"
         x="2531.043"
         y="1105.3394">j1: -20 uA / cm2</tspan></text>
  </g>
  <g
     id="g12485">
    <path
       style="fill:none;stroke:#000000;stroke-width:1px;stroke-linecap:butt;stroke-linejoin:miter;stroke-opacity:1"
       d="M 3264.5199,513.16215 3037.4673,444.91713"
       id="path170" />
    <text
       xml:space="preserve"
       style="font-size:85.3333px;line-height:1.25;font-family:sans-serif"
       x="2475.4902"
       y="424.23758"
       id="text12268"><tspan
         sodipodi:role="line"
         id="tspan12266"
         x="2475.4902"
         y="424.23758">j2: 20 uA / cm2</tspan></text>
  </g>
  <g
     id="g8713">
    <path
       style="fill:none;stroke:#00ff00;stroke-width:1px;stroke-linecap:butt;stroke-linejoin:miter;stroke-opacity:1"
       d="m 3431.2504,752.53334 c 0,0 97.3695,-14.10142 174.6385,-27.7834 26.5315,-4.6979 41.8531,-50.6951 65.8864,-48.0256 19.8011,2.19942 81.6013,25.23722 219.8857,34.92771 42.5495,2.98172 118.0104,10.88295 131.3759,8.33502 22.2645,-4.24439 17.7161,-66.00632 29.371,-78.58734 6.4953,-7.01138 68.5667,4.55186 78.5873,0.39691 8.6117,-3.57076 -0.1907,-19.05532 13.5941,-33.737 7.7363,-8.23958 5.3886,45.44764 19.3492,43.65963 13.9628,-1.7883 18.9526,-87.68846 19.4483,-78.58734 3.0184,55.42293 0.3023,103.38044 -0.1858,192.38472 -0.4962,90.47252 1.6825,186.12219 0.9796,230.71684 -0.6352,40.29911 -0.8011,-82.4869 -15.8762,-119.86555 -4.6716,-11.58317 -9.2806,-30.27018 -21.4329,-27.38649 -22.5738,5.35667 -14.1683,150.219 -22.2267,173.05095 -3.7108,10.5137 -1.6764,-61.21193 -4.7629,-89.70074 -1.6122,-14.88118 1.2918,-35.90366 -6.3505,-40.08749 -14.3894,-7.87758 -22.3287,2.7691 -33.3401,-5.15977 -11.59,-8.34553 -24.7843,-4.01926 -32.5462,-12.70099 -15.0358,-16.81767 -12.9393,-66.4245 -30.5618,-65.48945 -35.3082,1.87345 -55.3921,5.96104 -83.7471,8.73193 -44.396,4.33844 -89.1444,5.21518 -133.3603,11.11336 -57.4029,7.65727 -108.4453,33.12242 -125.4223,34.92771 -19.2708,2.0492 -34.1909,-19.37631 -47.6287,-33.34009 -14.1115,-14.66383 -19.2315,-21.59969 -45.2472,-23.02053 -61.8686,-3.37893 -148.6182,-9.95387 -155.5871,-17.46385 -5.4089,-5.82886 -2.3814,-30.16484 -2.3814,-30.16484"
       id="path4976"
       sodipodi:nodetypes="csssssssssssssssssssssssssc" />
    <text
       xml:space="preserve"
       style="font-size:85.3333px;line-height:1.25;font-family:sans-serif"
       x="3169.6519"
       y="365.91833"
       id="text14638"><tspan
         sodipodi:role="line"
         id="tspan14636"
         x="3169.6519"
         y="365.91833">curve: dotted</tspan></text>
  </g>
  <text
     xml:space="preserve"
     style="font-size:85.3333px;line-height:1.25;font-family:sans-serif"
     x="4293.625"
     y="1048.5714"
     id="text2178"><tspan
       sodipodi:role="line"
       id="tspan2176"
       x="4293.625"
       y="1048.5714">scan rate: 50 mV / s</tspan></text>
  <text
     xml:space="preserve"
     style="font-style:normal;font-variant:normal;font-weight:normal;font-stretch:normal;font-size:80px;line-height:1.25;font-family:sans-serif;-inkscape-font-specification:sans-serif;letter-spacing:0px;word-spacing:0px;fill:#000000;fill-opacity:1;stroke:none"
     x="-4466.0713"
     y="228.63217"
     id="text837"><tspan
       sodipodi:role="line"
       id="tspan835"
       x="-4466.0713"
       y="228.63217">comment: Hg/HgO ref. is 0.165 V vs the normal hydrogen electrode (NHE ~ SHE). The scan rate is not mentioned in the publication, but can be calculated from the integrated charge provided in the publication, resulting in 50 mV / s.</tspan></text>
</svg>
