<?xml version="1.0" encoding="UTF-8" standalone="no"?>
<svg
   xmlns:dc="http://purl.org/dc/elements/1.1/"
   xmlns:cc="http://creativecommons.org/ns#"
   xmlns:rdf="http://www.w3.org/1999/02/22-rdf-syntax-ns#"
   xmlns:svg="http://www.w3.org/2000/svg"
   xmlns="http://www.w3.org/2000/svg"
   xmlns:xlink="http://www.w3.org/1999/xlink"
   xmlns:sodipodi="http://sodipodi.sourceforge.net/DTD/sodipodi-0.dtd"
   xmlns:inkscape="http://www.inkscape.org/namespaces/inkscape"
   height="6601px"
   version="1.1"
   width="5100px"
   id="svg53"
   sodipodi:docname="horswell_2004_a_10970_p2_f1a_dotted.svg"
   inkscape:version="0.92.2 (5c3e80d, 2017-08-06)">
  <metadata
     id="metadata28">
    <rdf:RDF>
      <cc:Work
         rdf:about="">
        <dc:format>image/svg+xml</dc:format>
        <dc:type
           rdf:resource="http://purl.org/dc/dcmitype/StillImage" />
      </cc:Work>
    </rdf:RDF>
  </metadata>
  <sodipodi:namedview
     id="namedview55"
     pagecolor="#ffffff"
     bordercolor="#666666"
     borderopacity="1.0"
     inkscape:pageshadow="2"
     inkscape:pageopacity="0.0"
     inkscape:pagecheckerboard="0"
     showgrid="false"
     inkscape:zoom="0.078734053"
     inkscape:cx="4009.6375"
     inkscape:cy="3030.2863"
     inkscape:window-width="1920"
     inkscape:window-height="1017"
     inkscape:window-x="-8"
     inkscape:window-y="32"
     inkscape:window-maximized="1"
     inkscape:current-layer="svg53" />
  <defs
     id="defs49" />
  <image
     sodipodi:absref="F:\Github\echemdb\website\literature\horswell_2004_a_10970\Horswell_2004_A_10970_p2.png"
     xlink:href="Horswell_2004_A_10970_p2.png"
     id="image51"
     y="0"
     x="0"
     width="5100px"
     sodipodi:insensitive="true"
     height="6601px" />
  <g
     id="g12490"
     transform="translate(-701.71041,73.001592)">
    <path
       style="fill:none;stroke:#000000;stroke-width:0.939101px;stroke-linecap:butt;stroke-linejoin:miter;stroke-opacity:1"
       d="m 4867.2945,1053.4254 -157.6046,169.3884"
       id="path176" />
    <text
       xml:space="preserve"
       style="font-size:85.3333px;line-height:1.25;font-family:sans-serif"
       x="4426.603"
       y="1308.5228"
       id="text2776"><tspan
         sodipodi:role="line"
         id="tspan2774"
         x="4426.603"
         y="1308.5228">E2: 0.2 V vs Hg/HgO/0.1M NaOH</tspan></text>
  </g>
  <g
     id="g12495">
    <path
       style="fill:none;stroke:#000000;stroke-width:1px;stroke-linecap:butt;stroke-linejoin:miter;stroke-opacity:1"
       d="m 3388.3224,1121.2116 -341.2912,119.0662"
       id="path174" />
    <text
       xml:space="preserve"
       style="font-size:85.3333px;line-height:1.25;font-family:sans-serif"
       x="2523.1472"
       y="1325.9973"
       id="text7610"><tspan
         sodipodi:role="line"
         id="tspan7608"
         x="2523.1472"
         y="1325.9973">E1: -1 V vs Hg/HgO/0.1M NaOH</tspan></text>
  </g>
  <g
     id="g12500">
    <path
       style="fill:none;stroke:#000000;stroke-width:1px;stroke-linecap:butt;stroke-linejoin:miter;stroke-opacity:1"
       d="m 3264.5199,1006.9019 -277.8434,22.2311"
       id="path172" />
    <text
       xml:space="preserve"
       style="font-size:85.3333px;line-height:1.25;font-family:sans-serif"
       x="2531.043"
       y="1105.3394"
       id="text10584"><tspan
         sodipodi:role="line"
         id="tspan10582"
         x="2531.043"
         y="1105.3394">j1: -20 uA / cm2</tspan></text>
  </g>
  <g
     id="g12485">
    <path
       style="fill:none;stroke:#000000;stroke-width:1px;stroke-linecap:butt;stroke-linejoin:miter;stroke-opacity:1"
       d="M 3264.5199,513.16215 3037.4673,444.91713"
       id="path170" />
    <text
       xml:space="preserve"
       style="font-size:85.3333px;line-height:1.25;font-family:sans-serif"
       x="2475.4902"
       y="424.23758"
       id="text12268"><tspan
         sodipodi:role="line"
         id="tspan12266"
         x="2475.4902"
         y="424.23758">j2: 20 uA / cm2</tspan></text>
  </g>
  <text
     xml:space="preserve"
     style="font-size:85.3333px;line-height:1.25;font-family:sans-serif"
     x="4293.625"
     y="1048.5714"
     id="text2178"><tspan
       sodipodi:role="line"
       id="tspan2176"
       x="4293.625"
       y="1048.5714">scan rate: 50 mV / s</tspan></text>
  <g
     id="g11960">
    <text
       xml:space="preserve"
       style="font-size:85.3333px;line-height:1.25;font-family:sans-serif"
       x="3169.6519"
       y="365.91833"
       id="text14638"><tspan
         sodipodi:role="line"
         id="tspan14636"
         x="3169.6519"
         y="365.91833">curve: Ag(111)_0.09M_NaF_0.01M_NaOH</tspan></text>
    <path
       style="fill:none;stroke:#000000;stroke-width:1px;stroke-linecap:butt;stroke-linejoin:miter;stroke-opacity:1"
       d="m 3424.2483,790.58233 c -6.7067,-5.98489 -1.1223,-26.94306 -1.1223,-26.94306 2.9775,-6.5414 10.2664,-10.55442 16.8349,-13.47156 12.8164,-5.69187 27.6805,-4.51849 41.5261,-6.74476 16.4567,-2.64611 32.8715,-5.5772 49.3825,-7.85991 19.0393,-2.63225 38.546,-2.37561 57.2674,-6.72674 6.5704,-1.52707 12.9365,-3.95812 19.0796,-6.74476 6.2527,-2.83638 12.4157,-6.03652 17.9573,-10.09014 6.1968,-4.53287 11.2003,-10.50455 16.8349,-15.71982 4.4712,-4.13846 8.3624,-9.03193 13.4679,-12.35641 5.4829,-3.5702 11.4962,-7.02881 17.986,-7.85988 7.1386,-0.91416 14.3715,1.52293 21.3243,3.38139 13.1555,3.51641 24.8727,11.60292 38.1591,14.58665 14.2777,3.20634 29.2272,1.74613 43.7708,3.3634 18.0456,2.0067 35.9035,5.45561 53.9005,7.85991 12.3268,1.64679 24.6838,3.06079 37.0369,4.49651 16.8347,1.95659 33.6113,4.67488 50.5334,5.61158 10.8326,0.59962 21.71,-0.50179 32.5476,0 16.1385,0.74723 32.1083,4.11301 48.26,4.47856 7.8631,0.17796 16.0161,1.07905 23.5689,-1.11515 5.8003,-1.68506 12.2257,-4.06356 15.7414,-8.97499 5.7675,-8.05711 3.7498,-19.45923 5.6117,-29.19135 1.5034,-7.85855 1.7918,-16.04698 4.4892,-23.57966 1.5796,-4.41119 3.0077,-9.4979 6.734,-12.33843 5.1964,-3.96124 12.575,-3.87647 19.0796,-4.49651 8.9457,-0.85273 17.9514,0.92925 26.9358,1.11515 6.3585,0.13157 12.8647,-1.35012 19.0796,0 4.4198,0.96015 8.4185,7.87326 12.3457,5.62961 6.208,-3.54673 0.8136,-14.32638 2.2447,-21.33141 1.0195,-4.98994 0.6162,-11.29728 4.4892,-14.60466 2.0114,-1.71766 5.643,-2.56333 7.8563,-1.11512 5.8473,3.82598 4.2866,13.3373 5.6117,20.1983 1.2857,6.65715 -2.8073,15.69424 2.2446,20.21629 3.9096,3.49958 11.7986,3.46218 15.7414,0 6.5239,-5.72869 1.7505,-17.29759 3.3669,-25.82794 1.7235,-9.09543 5.3741,-17.78622 6.734,-26.94307 1.1005,-7.41025 1.1223,-22.44655 1.1223,-22.44655 0,0 1.2253,46.40115 1.1224,69.60591 -0.066,14.9689 -0.8147,29.92723 -1.1224,44.89311 -0.477,23.2001 -0.9352,46.4017 -1.1223,69.60595 -0.2111,26.19279 -0.4674,52.39146 0,78.58093 0.3742,20.96372 1.6324,41.903 2.2447,62.86112 0.4809,16.46043 0.9352,32.92323 1.1223,49.38962 0.1786,15.71878 0,47.15938 0,47.15938 0,0 -4.7584,-37.39259 -6.7339,-56.13437 -1.7329,-16.44 -2.0348,-33.04179 -4.4894,-49.38962 -1.0789,-7.1857 -1.5639,-14.68007 -4.4892,-21.33148 -2.5942,-5.89869 -6.0667,-11.89397 -11.2521,-15.71975 -4.7599,-3.51185 -11.6277,-8.41784 -16.8349,-5.61165 -10.2303,5.51318 -7.4695,22.16496 -8.9787,33.68782 -1.069,8.16189 0.2866,16.4682 0,24.69481 -0.5615,16.11483 -2.5181,32.15426 -3.367,48.25651 -0.5521,10.47199 -0.4456,20.97489 -1.1223,31.43957 -0.776,12.0001 -3.3669,35.91804 -3.3669,35.91804 0,0 -3.1703,-45.63757 -4.4894,-68.47276 -0.8644,-14.96409 -0.1768,-30.06534 -2.2446,-44.91106 -0.6884,-4.94238 0.083,-10.98127 -3.367,-14.58672 -4.8318,-5.04966 -13.277,-4.66768 -20.2019,-5.61159 -4.0775,-0.55579 -8.293,0.71504 -12.3456,0 -4.313,-0.76099 -8.2838,-2.85855 -12.3456,-4.4965 -3.4158,-1.37745 -6.741,-2.97007 -10.101,-4.47856 -4.1238,-1.8514 -9.3201,-2.25308 -12.3456,-5.61165 -7.133,-7.91812 -7.2571,-20.06167 -10.1297,-30.32442 -2.2753,-8.12903 -1.0165,-17.61368 -5.6117,-24.69481 -3.0536,-4.70551 -8.1899,-8.19032 -13.4679,-10.09014 -7.4005,-2.66384 -15.7197,-1.63876 -23.5688,-1.1331 -10.6188,0.68409 -20.8744,4.2311 -31.4252,5.61158 -13.4008,1.75337 -26.9398,2.20787 -40.4038,3.38143 -16.4754,1.43605 -32.9164,3.28484 -49.4112,4.47848 -13.8262,1.00053 -27.7168,1.03752 -41.5262,2.24826 -12.3887,1.08618 -24.8004,2.27604 -37.0368,4.4965 -14.0251,2.54504 -27.8201,6.2775 -41.5549,10.09014 -12.0872,3.35528 -24.1381,6.92001 -35.9145,11.24127 -9.9142,3.63794 -18.9017,9.9152 -29.1805,12.33846 -5.8376,1.37624 -12.1294,2.54993 -17.9573,1.1331 -6.3682,-1.54817 -11.6973,-6.07583 -16.8636,-10.10816 -7.0909,-5.53445 -12.2845,-13.18927 -19.0796,-19.08315 -7.0653,-6.12826 -14.2227,-12.38059 -22.4466,-16.8349 -7.7021,-4.17168 -16.1281,-7.14963 -24.6912,-8.99301 -14.6703,-3.15805 -29.9514,-1.9733 -44.8932,-3.36341 -13.5023,-1.25618 -26.9697,-2.87097 -40.4325,-4.4965 -8.6147,-1.04016 -17.2791,-1.7958 -25.8136,-3.36341 -7.943,-1.45897 -15.6802,-3.88296 -23.5689,-5.61165 -3.727,-0.8167 -7.4153,-2.0086 -11.2232,-2.24826 -5.2408,-0.32985 -11.7946,4.62946 -15.7126,1.13317 z"
       id="path23593"
       sodipodi:nodetypes="sssssssssssssssssssssssssssssssssssscsssssscssssssssscsssssssssssssssssssssssssssssss" />
  </g>
  <text
     xml:space="preserve"
     style="font-style:normal;font-variant:normal;font-weight:normal;font-stretch:normal;font-size:80px;line-height:1.25;font-family:sans-serif;-inkscape-font-specification:sans-serif;letter-spacing:0px;word-spacing:0px;fill:#000000;fill-opacity:1;stroke:none"
     x="-4466.0713"
     y="228.63217"
     id="text837"><tspan
       sodipodi:role="line"
       id="tspan835"
       x="-4466.0713"
       y="228.63217">comment: Hg/HgO ref. is 0.165 V vs the normal hydrogen electrode (NHE ~ SHE). The scan rate is not mentioned in the publication, but can be calculated from the integrated charge provided in the publication, resulting in 50 mV / s.</tspan></text>
</svg>
