<?xml version="1.0" encoding="UTF-8" standalone="no"?>
<svg
   height="6601px"
   version="1.1"
   width="5100px"
   id="svg53"
   sodipodi:docname="horswell_2004_a_10970_f1a_dashed.svg"
   inkscape:version="1.1.2 (b8e25be833, 2022-02-05)"
   xmlns:inkscape="http://www.inkscape.org/namespaces/inkscape"
   xmlns:sodipodi="http://sodipodi.sourceforge.net/DTD/sodipodi-0.dtd"
   xmlns:xlink="http://www.w3.org/1999/xlink"
   xmlns="http://www.w3.org/2000/svg"
   xmlns:svg="http://www.w3.org/2000/svg"
   xmlns:rdf="http://www.w3.org/1999/02/22-rdf-syntax-ns#"
   xmlns:cc="http://creativecommons.org/ns#"
   xmlns:dc="http://purl.org/dc/elements/1.1/">
  <metadata
     id="metadata28">
    <rdf:RDF>
      <cc:Work
         rdf:about="">
        <dc:format>image/svg+xml</dc:format>
        <dc:type
           rdf:resource="http://purl.org/dc/dcmitype/StillImage" />
      </cc:Work>
    </rdf:RDF>
  </metadata>
  <sodipodi:namedview
     id="namedview55"
     pagecolor="#ffffff"
     bordercolor="#666666"
     borderopacity="1.0"
     inkscape:pageshadow="2"
     inkscape:pageopacity="0.0"
     inkscape:pagecheckerboard="0"
     showgrid="false"
     inkscape:zoom="0.15746811"
     inkscape:cx="5239.156"
     inkscape:cy="1778.1378"
     inkscape:window-width="1920"
     inkscape:window-height="1017"
     inkscape:window-x="-8"
     inkscape:window-y="32"
     inkscape:window-maximized="1"
     inkscape:current-layer="svg53" />
  <defs
     id="defs49" />
  <image
     xlink:href="horswell_2004_a_10970_p2.png"
     id="image51"
     y="0"
     x="0"
     width="5100px"
     sodipodi:insensitive="true"
     height="6601px" />
  <g
     id="g12490"
     transform="translate(-749.83032,121.22559)">
    <path
       style="fill:none;stroke:#000000;stroke-width:0.402522px;stroke-linecap:butt;stroke-linejoin:miter;stroke-opacity:1"
       d="m 4917.4201,1000.9464 21.6759,226.2707"
       id="path176" />
    <text
       xml:space="preserve"
       style="font-size:85.3333px;line-height:1.25;font-family:sans-serif"
       x="4426.603"
       y="1308.5228"
       id="text2776"><tspan
         sodipodi:role="line"
         id="tspan2774"
         x="4426.603"
         y="1308.5228">E2: 0.2 V vs Hg/HgO/0.1M NaOH</tspan></text>
  </g>
  <g
     id="g12495">
    <path
       style="fill:none;stroke:#000000;stroke-width:1px;stroke-linecap:butt;stroke-linejoin:miter;stroke-opacity:1"
       d="m 3388.3224,1121.2116 -341.2912,119.0662"
       id="path174" />
    <text
       xml:space="preserve"
       style="font-size:85.3333px;line-height:1.25;font-family:sans-serif"
       x="2523.1472"
       y="1325.9973"
       id="text7610"><tspan
         sodipodi:role="line"
         id="tspan7608"
         x="2523.1472"
         y="1325.9973">E1: -1 V vs Hg/HgO/0.1M NaOH</tspan></text>
  </g>
  <g
     id="g12500">
    <path
       style="fill:none;stroke:#000000;stroke-width:1px;stroke-linecap:butt;stroke-linejoin:miter;stroke-opacity:1"
       d="m 3264.5199,1006.9019 -277.8434,22.2311"
       id="path172" />
    <text
       xml:space="preserve"
       style="font-size:85.3333px;line-height:1.25;font-family:sans-serif"
       x="2531.043"
       y="1105.3394"
       id="text10584"><tspan
         sodipodi:role="line"
         id="tspan10582"
         x="2531.043"
         y="1105.3394">j1: -20 uA / cm2</tspan></text>
  </g>
  <g
     id="g12485">
    <path
       style="fill:none;stroke:#000000;stroke-width:1px;stroke-linecap:butt;stroke-linejoin:miter;stroke-opacity:1"
       d="M 3264.5199,513.16215 3037.4673,444.91713"
       id="path170" />
    <text
       xml:space="preserve"
       style="font-size:85.3333px;line-height:1.25;font-family:sans-serif"
       x="2475.4902"
       y="424.23758"
       id="text12268"><tspan
         sodipodi:role="line"
         id="tspan12266"
         x="2475.4902"
         y="424.23758">j2: 20 uA / cm2</tspan></text>
  </g>
  <text
     xml:space="preserve"
     style="font-size:85.3333px;line-height:1.25;font-family:sans-serif"
     x="4294.8506"
     y="1137.9095"
     id="text2178"><tspan
       sodipodi:role="line"
       id="tspan2176"
       x="4294.8506"
       y="1137.9095">scan rate: 50 mV / s</tspan></text>
  <g
     id="g11960">
    <g
       id="g11550">
      <text
         xml:space="preserve"
         style="font-size:85.3333px;line-height:1.25;font-family:sans-serif"
         x="3169.6519"
         y="365.91833"
         id="text14638"><tspan
           sodipodi:role="line"
           id="tspan14636"
           x="3169.6519"
           y="365.91833">curve: dashed</tspan></text>
      <path
         style="fill:none;stroke:#00ff00;stroke-width:1px;stroke-linecap:butt;stroke-linejoin:miter;stroke-opacity:1"
         d="m 3393.9412,768.01265 c 0,0 23.2035,-5.03923 34.5308,-6.7474 19.2594,-2.90434 38.4249,0.58169 57.1544,-4.76287 58.3583,-16.6528 52.5761,-63.44921 88.1131,-66.68017 22.5786,-2.05281 69.5102,27.52507 116.2934,32.94318 64.5631,7.47726 131.4905,8.8984 194.8807,6.35049 27.6367,-1.11083 49.746,-11.26782 75.809,-33.73699 17.7502,-15.30256 29.7237,-42.28461 52.7885,-46.43797 12.4725,-2.24598 62.1071,26.80148 94.8604,25.79887 41.5559,-1.27206 54.8954,-5.17885 69.4585,-34.13389 25.1582,-50.02065 18.8361,-179.59517 20.6391,-166.70042 11.1432,79.69405 -0.7088,465.57509 -3.969,565.19382 -1.5433,47.1569 2.0341,-96.34819 -13.4948,-140.90156 -6.6429,-19.05881 -12.8409,-48.99755 -32.9432,-50.80394 -30.5235,-2.74284 -58.0137,-1.60314 -76.2059,5.15978 -25.5698,9.50548 -47.0337,24.02554 -61.1234,20.63909 -21.3373,-5.12838 -52.5818,-55.22645 -90.4946,-56.75752 -62.8077,-2.53643 -106.2224,-7.7699 -165.5097,3.17525 -33.953,6.26812 -68.5042,12.22407 -100.4172,25.40197 -58.8266,24.29142 -58.8442,60.27232 -81.3656,57.94824 -15.7552,-1.62585 -28.0588,-26.44547 -44.4535,-40.08748 -12.7448,-10.60499 -21.573,-27.04665 -36.9122,-33.34009 -8.3313,-3.41822 -18.4596,1.69623 -26.9896,-1.19072 -28.5603,-9.66608 -69.0962,-1.12339 -72.2369,-9.52573 -2.9829,-7.98 -0.7938,-59.53587 -0.7938,-59.53587"
         id="path9120"
         sodipodi:nodetypes="csssssssssssssssssssssssc" />
    </g>
  </g>
  <text
     xml:space="preserve"
     style="font-style:normal;font-variant:normal;font-weight:normal;font-stretch:normal;font-size:80px;line-height:1.25;font-family:sans-serif;-inkscape-font-specification:sans-serif;letter-spacing:0px;word-spacing:0px;fill:#000000;fill-opacity:1;stroke:none"
     x="1162.14"
     y="155.25044"
     id="text837"><tspan
       sodipodi:role="line"
       id="tspan835"
       x="1162.14"
       y="155.25044">comment: Hg/HgO ref. is 0.165 V vs the normal hydrogen electrode (NHE ~ SHE). The scan rate is not mentioned in the publication, but can be calculated from the integrated charge provided in the publication, resulting in 50 mV / s.</tspan></text>
  <text
     xml:space="preserve"
     style="font-size:80px;line-height:1.25;font-family:sans-serif;-inkscape-font-specification:sans-serif;letter-spacing:0px;word-spacing:0px"
     x="5128.0225"
     y="523.91559"
     id="text2454"><tspan
       sodipodi:role="line"
       id="tspan2452"
       x="5128.0225"
       y="523.91559">Figure: 1a</tspan></text>
  <text
     xml:space="preserve"
     style="font-size:80px;line-height:1.25;font-family:sans-serif;-inkscape-font-specification:sans-serif;letter-spacing:0px;word-spacing:0px"
     x="5162.9502"
     y="679.50269"
     id="text3294"><tspan
       sodipodi:role="line"
       id="tspan3292"
       x="5162.9502"
       y="679.50269">tags: BCV</tspan></text>
</svg>
