<?xml version="1.0" encoding="UTF-8" standalone="no"?>
<svg
   height="6601px"
   version="1.1"
   width="4500px"
   id="svg6"
   sodipodi:docname="durand_1992_insitu_1977_f1a_solid.svg"
   inkscape:version="1.2 (dc2aedaf03, 2022-05-15)"
   xmlns:inkscape="http://www.inkscape.org/namespaces/inkscape"
   xmlns:sodipodi="http://sodipodi.sourceforge.net/DTD/sodipodi-0.dtd"
   xmlns:xlink="http://www.w3.org/1999/xlink"
   xmlns="http://www.w3.org/2000/svg"
   xmlns:svg="http://www.w3.org/2000/svg"
   xmlns:rdf="http://www.w3.org/1999/02/22-rdf-syntax-ns#"
   xmlns:cc="http://creativecommons.org/ns#"
   xmlns:dc="http://purl.org/dc/elements/1.1/">
  <metadata
     id="metadata10">
    <rdf:RDF>
      <cc:Work
         rdf:about="">
        <dc:format>image/svg+xml</dc:format>
        <dc:type
           rdf:resource="http://purl.org/dc/dcmitype/StillImage" />
      </cc:Work>
    </rdf:RDF>
  </metadata>
  <sodipodi:namedview
     pagecolor="#ffffff"
     bordercolor="#666666"
     borderopacity="1"
     objecttolerance="10"
     gridtolerance="10"
     guidetolerance="10"
     inkscape:pageopacity="0"
     inkscape:pageshadow="2"
     inkscape:window-width="3456"
     inkscape:window-height="2036"
     id="namedview8"
     showgrid="false"
     inkscape:zoom="0.5029541"
     inkscape:cx="2758.701"
     inkscape:cy="3076.8215"
     inkscape:window-x="-12"
     inkscape:window-y="-12"
     inkscape:window-maximized="1"
     inkscape:current-layer="svg6"
     inkscape:document-rotation="0"
     inkscape:showpageshadow="2"
     inkscape:pagecheckerboard="0"
     inkscape:deskcolor="#d1d1d1" />
  <defs
     id="defs2" />
  <image
     xlink:href="Durand_1992_insitu_1977_p1.png"
     id="image4"
     y="0"
     x="0"
     width="4500"
     sodipodi:insensitive="true"
     height="6601" />
  <g
     id="g877">
    <text
       xml:space="preserve"
       style="font-style:italic;font-weight:bold;font-size:48px;line-height:1.25;font-family:sans-serif;-inkscape-font-specification:'sans-serif Bold Italic';letter-spacing:0px"
       x="2387.2305"
       y="1841.7384"
       id="text845"><tspan
         sodipodi:role="line"
         id="tspan843"
         x="2387.2305"
         y="1841.7384">I2: 40 uA</tspan></text>
    <path
       style="fill:none;stroke:#000000;stroke-width:1px;stroke-linecap:butt;stroke-linejoin:miter;stroke-opacity:1"
       d="m 2375.9832,1830.4912 294.4891,118.7424"
       id="path851"
       inkscape:connector-curvature="0" />
  </g>
  <g
     id="g867">
    <text
       xml:space="preserve"
       style="font-style:italic;font-weight:bold;font-size:48px;line-height:1.25;font-family:sans-serif;-inkscape-font-specification:'sans-serif Bold Italic';letter-spacing:0px"
       x="2413.9426"
       y="2487.0498"
       id="text849"><tspan
         sodipodi:role="line"
         id="tspan847"
         x="2413.9426"
         y="2487.0498">I1: -20 uA</tspan></text>
    <path
       style="fill:none;stroke:#000000;stroke-width:1px;stroke-linecap:butt;stroke-linejoin:miter;stroke-opacity:1"
       d="m 2670.9694,2351.1092 -258.4729,126.0055"
       id="path853"
       inkscape:connector-curvature="0" />
  </g>
  <g
     id="g872">
    <text
       xml:space="preserve"
       style="font-style:italic;font-weight:bold;font-size:48px;line-height:1.25;font-family:sans-serif;-inkscape-font-specification:'sans-serif Bold Italic';letter-spacing:0px"
       x="2588.2751"
       y="2571.4043"
       id="text841"><tspan
         sodipodi:role="line"
         id="tspan839"
         x="2588.2751"
         y="2571.4043">E1: -0.5 V vs SCE</tspan></text>
    <path
       style="fill:none;stroke:#000000;stroke-width:1px;stroke-linecap:butt;stroke-linejoin:miter;stroke-opacity:1"
       d="m 2586.2201,2557.3904 161.0983,-152.2347"
       id="path855"
       inkscape:connector-curvature="0" />
  </g>
  <g
     id="g862">
    <text
       xml:space="preserve"
       style="font-style:italic;font-weight:bold;font-size:48px;line-height:1.25;font-family:sans-serif;-inkscape-font-specification:'sans-serif Bold Italic';letter-spacing:0px"
       x="3676.4473"
       y="2584.0574"
       id="text837"><tspan
         sodipodi:role="line"
         id="tspan835"
         x="3676.4473"
         y="2584.0574">E2: 0.7 V vs SCE</tspan></text>
    <path
       style="fill:none;stroke:#000000;stroke-width:1px;stroke-linecap:butt;stroke-linejoin:miter;stroke-opacity:1"
       d="m 3725.7376,2407.7744 -53.4343,162.5397"
       id="path857"
       inkscape:connector-curvature="0" />
  </g>
  <g
     id="g888">
    <g
       id="g855">
      <text
         xml:space="preserve"
         style="font-style:italic;font-weight:bold;font-size:48px;line-height:1.25;font-family:sans-serif;-inkscape-font-specification:'sans-serif Bold Italic';letter-spacing:0px"
         x="3613.1814"
         y="1979.5173"
         id="text881"><tspan
           sodipodi:role="line"
           id="tspan879"
           x="3613.1814"
           y="1979.5173">curve: solid</tspan></text>
      <path
         style="fill:none;stroke:#22cd0e;stroke-width:1px;stroke-linecap:butt;stroke-linejoin:miter;stroke-opacity:1"
         d="m 2801.973,2319.7469 c -0.8531,1.1314 0.8874,-25.9676 7.406,-36.5536 6.0007,-9.7448 16.6102,-16.3898 26.9784,-21.2343 26.5934,-12.4254 57.0266,-14.6482 86.1722,-18.1311 27.5571,-3.2931 55.5442,-0.4774 83.2207,-2.5384 17.8093,-1.3262 45.3278,-1.8104 53.2022,-6.3162 25.6084,-14.6534 41.904,-42.9784 54.7805,-69.5247 16.4074,-33.8256 19.1813,-72.7578 26.3607,-109.6608 8.7774,-45.1169 9.6301,-136.9194 20.3857,-136.373 8.3141,0.4224 -2.3947,121.992 13.7076,179.9561 6.2127,22.3642 11.7185,49.7195 31.2814,62.2114 28.0575,17.9162 66.6101,5.4782 99.8194,3.1633 30.2436,-2.1082 59.9705,-9.1692 89.6266,-15.465 21.9865,-4.6676 48.4799,-1.6951 65.3747,-16.5194 24.8241,-21.7819 21.7646,-62.5577 36.5536,-92.0869 11.3285,-22.6197 25.9464,-63.9814 39.7168,-64.6717 15.4915,-0.7766 17.1383,58.0813 22.1431,87.8692 4.6572,27.719 14.4885,49.0567 29.7536,64.0925 10.5484,10.3901 37.0459,16.1073 37.3784,18.5045 2.2054,15.899 2.5336,43.4313 0.3515,48.1523 -11.9706,25.8986 -43.5321,36.9011 -65.7261,54.8304 -20.7104,16.7307 -44.1463,30.3231 -62.9144,49.2068 -21.0789,21.2087 -25.2394,66.6976 -54.8304,70.9983 -22.0095,3.1988 -35.6069,-26.6996 -54.1274,-39.014 -49.1973,-32.7118 -60.9957,-25.4856 -114.23,-26.3608 -54.1247,-0.8897 -108.0124,-5.77 -162.0308,-4.5691 -43.5701,0.9687 -86.8398,10.9021 -130.3978,9.4899 -29.9078,-0.9696 -59.0291,-10.9869 -88.9237,-12.3017 -13.9823,-0.6149 -33.3587,-2.8626 -49.1783,-0.073 -19.8413,3.4991 -35.2449,14.1531 -41.8542,22.9187 z"
         id="path883"
         sodipodi:nodetypes="saaaasaasaaaaaasssssaaassaasss"
         inkscape:connector-curvature="0" />
    </g>
  </g>
  <text
     xml:space="preserve"
     style="font-style:italic;font-weight:bold;font-size:48px;line-height:1.25;font-family:sans-serif;-inkscape-font-specification:'sans-serif Bold Italic';letter-spacing:0px"
     x="3623.0227"
     y="2038.5654"
     id="text892"><tspan
       sodipodi:role="line"
       id="tspan890"
       x="3623.0227"
       y="2038.5654">scan rate: 10 mV / s</tspan></text>
  <text
     xml:space="preserve"
     style="font-style:italic;font-weight:bold;font-size:48px;line-height:1.25;font-family:sans-serif;-inkscape-font-specification:'sans-serif Bold Italic';letter-spacing:0px"
     x="3714.4067"
     y="2108.8608"
     id="text859"><tspan
       sodipodi:role="line"
       id="tspan857"
       x="3714.4067"
       y="2108.8608">comment: The original data is rather noisy due to low resolution of the document.</tspan></text>
  <text
     xml:space="preserve"
     style="font-style:italic;font-weight:bold;font-size:48px;line-height:1.25;font-family:sans-serif;-inkscape-font-specification:'sans-serif Bold Italic';letter-spacing:0px"
     x="3826.8794"
     y="1718.0186"
     id="text863"><tspan
       sodipodi:role="line"
       id="tspan861"
       x="3826.8794"
       y="1718.0186">Figure: 1a</tspan></text>
  <text
     xml:space="preserve"
     style="font-style:italic;font-weight:bold;font-size:48px;line-height:1.25;font-family:sans-serif;-inkscape-font-specification:'sans-serif Bold Italic';letter-spacing:0px"
     x="3818.4438"
     y="1793.9376"
     id="text867"><tspan
       sodipodi:role="line"
       id="tspan865"
       x="3818.4438"
       y="1793.9376">Tags: BCV, Cu UPD</tspan></text>
</svg>
