<?xml version="1.0" encoding="UTF-8" standalone="no"?>
<svg
   height="7017px"
   version="1.1"
   width="4959px"
   id="svg53"
   sodipodi:docname="Lipowski_1998_Ionic_2875_p1_1a_Br.svg"
   inkscape:version="1.1 (ce6663b3b7, 2021-05-25)"
   xmlns:inkscape="http://www.inkscape.org/namespaces/inkscape"
   xmlns:sodipodi="http://sodipodi.sourceforge.net/DTD/sodipodi-0.dtd"
   xmlns:xlink="http://www.w3.org/1999/xlink"
   xmlns="http://www.w3.org/2000/svg"
   xmlns:svg="http://www.w3.org/2000/svg">
  <sodipodi:namedview
     id="namedview55"
     pagecolor="#ffffff"
     bordercolor="#666666"
     borderopacity="1.0"
     inkscape:pageshadow="2"
     inkscape:pageopacity="0.0"
     inkscape:pagecheckerboard="0"
     showgrid="false"
     inkscape:zoom="0.29626535"
     inkscape:cx="3660.5699"
     inkscape:cy="3670.6959"
     inkscape:window-width="1608"
     inkscape:window-height="986"
     inkscape:window-x="72"
     inkscape:window-y="27"
     inkscape:window-maximized="1"
     inkscape:current-layer="svg53" />
  <defs
     id="defs49" />
  <image
     height="7017px"
     sodipodi:insensitive="true"
     width="4959px"
     x="0"
     xlink:href="Lipowski_1998_Ionic_2875_p1.png"
     y="0"
     id="image51" />
  <text
     xml:space="preserve"
     style="font-size:85.3333px;line-height:1.25;font-family:sans-serif"
     x="3235.0374"
     y="2772.6965"
     id="text2372"><tspan
       sodipodi:role="line"
       id="tspan2370"
       x="3235.0374"
       y="2772.6965">scan rate: 10 mV/s</tspan></text>
  <g
     id="g8448">
    <path
       style="fill:none;stroke:#000000;stroke-width:1px;stroke-linecap:butt;stroke-linejoin:miter;stroke-opacity:1"
       d="m 2874.5053,2972.3838 -224.446,-106.3177"
       id="path170" />
    <text
       xml:space="preserve"
       style="font-size:85.3333px;line-height:1.25;font-family:sans-serif"
       x="2411.4053"
       y="2833.4802"
       id="text3930"><tspan
         sodipodi:role="line"
         id="tspan3928"
         x="2411.4053"
         y="2833.4802">y2: 12 uA / cm2</tspan></text>
  </g>
  <g
     id="g8443">
    <path
       style="fill:none;stroke:#000000;stroke-width:1px;stroke-linecap:butt;stroke-linejoin:miter;stroke-opacity:1"
       d="m 2871.1308,3505.6755 -270.0447,102.9378"
       id="path172" />
    <text
       xml:space="preserve"
       style="font-size:85.3333px;line-height:1.25;font-family:sans-serif"
       x="2013.2169"
       y="3667.0952"
       id="text5692"><tspan
         sodipodi:role="line"
         id="tspan5690"
         x="2013.2169"
         y="3667.0952">y1: -3 uA / cm2</tspan></text>
  </g>
  <g
     id="g8438">
    <path
       style="fill:none;stroke:#000000;stroke-width:1px;stroke-linecap:butt;stroke-linejoin:miter;stroke-opacity:1"
       d="m 3009.4844,3611.9931 -10.1235,64.1368"
       id="path174" />
    <text
       xml:space="preserve"
       style="font-size:85.3333px;line-height:1.25;font-family:sans-serif"
       x="2850.2603"
       y="3731.259"
       id="text6850"><tspan
         sodipodi:role="line"
         id="tspan6848"
         x="2850.2603"
         y="3731.259">x1: -0.6 V vs SCE</tspan></text>
  </g>
  <g
     id="g8433">
    <path
       style="fill:none;stroke:#000000;stroke-width:1px;stroke-linecap:butt;stroke-linejoin:miter;stroke-opacity:1"
       d="m 3969.7826,3608.6133 6.749,48.9407"
       id="path176" />
    <text
       xml:space="preserve"
       style="font-size:85.3333px;line-height:1.25;font-family:sans-serif"
       x="3966.4082"
       y="3730.0999"
       id="text7886"><tspan
         sodipodi:role="line"
         id="tspan7884"
         x="3966.4082"
         y="3730.0999">x2: 0.8 V vs SCE</tspan></text>
  </g>
  <g
     id="g15598">
    <text
       xml:space="preserve"
       style="font-size:85.3333px;line-height:1.25;font-family:sans-serif"
       x="2627.5447"
       y="2681.6289"
       id="text1324"><tspan
         sodipodi:role="line"
         id="tspan1322"
         x="2627.5447"
         y="2681.6289">curve: Au(111)_0.1M_KClO4_1mM_KBr</tspan></text>
    <path
       style="fill:none;stroke:#000000;stroke-width:1px;stroke-linecap:butt;stroke-linejoin:miter;stroke-opacity:1"
       d="m 2872.7067,3406.1427 c 0,0 32.4926,-5.8052 48.9154,-7.1698 19.4338,-1.6148 39.0126,-0.2385 58.4904,-1.1855 20.7165,-1.0072 41.3267,-3.6905 62.039,-4.7798 28.2181,-1.4841 56.4808,-2.5014 84.7377,-2.39 33.0394,0.1302 66.0194,4.1288 99.0544,3.5754 17.1396,-0.2871 34.2814,-1.5347 51.3015,-3.5754 16.4336,-1.9703 33.7417,-1.8148 48.9459,-8.3552 10.9589,-4.7142 21.7918,-11.6981 28.6334,-21.4712 7.867,-11.2379 9.3675,-25.91 11.9306,-39.3863 4.5485,-23.9153 4.5825,-48.4832 5.9653,-72.7879 2.125,-37.35 0.5611,-74.8857 3.5792,-112.1742 0.7446,-9.1993 3.5791,-27.4557 3.5791,-27.4557 0,0 6.1666,61.28 9.5445,91.8884 3.3827,30.6518 4.694,61.6485 10.7375,91.8884 1.1353,5.6805 0.8456,12.4516 4.7723,16.7105 4.6074,4.9971 12.4311,5.8013 19.0889,7.1698 16.7781,3.4487 34.6061,-1.3231 51.332,2.3708 9.2314,2.0388 17.558,7.0207 26.2473,10.7452 11.616,4.9791 23.1779,10.094 34.5987,15.5059 13.6616,6.4738 26.4328,14.9136 40.564,20.2858 10.0186,3.8087 20.5215,6.3476 31.05,8.3552 13.762,2.6241 27.7699,3.982 41.7571,4.7799 11.1171,0.6342 22.2752,0.3276 33.4056,0 13.5389,-0.3985 27.0791,-1.1167 40.5639,-2.3899 9.1933,-0.868 18.245,-3.966 27.4709,-3.5753 9.3521,0.396 18.0986,5.3752 27.4404,5.9652 13.5468,0.8556 26.9935,-3.2775 40.564,-3.5753 27.0726,-0.5942 81.1585,3.5753 81.1585,3.5753 l 1.1931,29.8265 c 0,0 -26.0303,8.0834 -39.371,10.7451 -15.3444,3.0614 -30.9708,4.6221 -46.5598,5.9654 -17.8475,1.5379 -35.8231,3.7145 -53.6876,2.3899 -16.5769,-1.2291 -32.3643,-8.3782 -48.946,-9.5407 -22.6438,-1.5874 -45.412,1.3722 -68.0042,3.5754 -13.994,1.3647 -28.2387,2.0992 -41.7571,5.9653 -14.218,4.0662 -27.4265,11.1661 -40.5945,17.8958 -16.8247,8.5985 -31.4784,21.3642 -48.9154,28.6411 -5.6981,2.378 -11.8589,3.4847 -17.8959,4.7799 -19.3149,4.144 -39.018,6.2141 -58.4904,9.5406 -11.1498,1.9048 -22.7181,2.2608 -33.4056,5.9653 -6.3901,2.215 -11.2256,8.4431 -17.8959,9.5597 -9.9308,1.6624 -20.8686,-9.378 -29.8264,-4.7799 -6.332,3.2503 -2.4317,18.8438 -9.5445,19.1005 0,0 -16.7359,-24.6344 -22.6681,-38.2008 -4.4885,-10.2646 -4.9699,-22.0036 -9.575,-32.2164 -3.0857,-6.8432 -6.8123,-13.6091 -11.9306,-19.1004 -3.6876,-3.9563 -8.1704,-7.3692 -13.1237,-9.5407 -7.4292,-3.2568 -15.8082,-3.8052 -23.8611,-4.7798 -9.089,-1.1 -18.2853,-1.1075 -27.4403,-1.1855 -15.1167,-0.1287 -30.2339,0.5146 -45.3362,1.1855 -19.1178,0.8493 -38.1663,3.1329 -57.2974,3.5944 -27.843,0.6716 -55.729,0.2007 -83.5446,-1.2045 -18.3389,-0.9264 -36.5431,-3.8097 -54.8807,-4.7608 -23.4354,-1.2155 -46.9321,-1.839 -70.3904,-1.2045 -16.7493,0.453 -50.139,3.5754 -50.139,3.5754 -2.5827,-1.5729 -5.0551,-5.6967 -3.5792,-8.3361 z"
       id="path13489"
       sodipodi:nodetypes="sssssssssssscsssssssssssssssccsssssssssssssssssssssssssss" />
  </g>
</svg>
