<?xml version="1.0" encoding="UTF-8" standalone="no"?>
<svg
   xmlns:dc="http://purl.org/dc/elements/1.1/"
   xmlns:cc="http://creativecommons.org/ns#"
   xmlns:rdf="http://www.w3.org/1999/02/22-rdf-syntax-ns#"
   xmlns:svg="http://www.w3.org/2000/svg"
   xmlns="http://www.w3.org/2000/svg"
   xmlns:xlink="http://www.w3.org/1999/xlink"
   xmlns:sodipodi="http://sodipodi.sourceforge.net/DTD/sodipodi-0.dtd"
   xmlns:inkscape="http://www.inkscape.org/namespaces/inkscape"
   height="7017px"
   version="1.1"
   width="4959px"
   id="svg53"
   sodipodi:docname="lipkowski_1998_ionic_2875_f1a_I.svg"
   inkscape:version="0.92.2 (5c3e80d, 2017-08-06)">
  <metadata
     id="metadata28">
    <rdf:RDF>
      <cc:Work
         rdf:about="">
        <dc:format>image/svg+xml</dc:format>
        <dc:type
           rdf:resource="http://purl.org/dc/dcmitype/StillImage" />
      </cc:Work>
    </rdf:RDF>
  </metadata>
  <sodipodi:namedview
     id="namedview55"
     pagecolor="#ffffff"
     bordercolor="#666666"
     borderopacity="1.0"
     inkscape:pageshadow="2"
     inkscape:pageopacity="0.0"
     inkscape:pagecheckerboard="0"
     showgrid="false"
     inkscape:zoom="0.20949124"
     inkscape:cx="3406.0922"
     inkscape:cy="5566.5738"
     inkscape:window-width="1920"
     inkscape:window-height="1017"
     inkscape:window-x="-8"
     inkscape:window-y="32"
     inkscape:window-maximized="1"
     inkscape:current-layer="svg53" />
  <defs
     id="defs49" />
  <image
     sodipodi:absref="F:\Github\echemdb\website\literature\lipkowski_1998_ionic_2875\Lipowski_1998_Ionic_2875_p1.png"
     xlink:href="Lipowski_1998_Ionic_2875_p1.png"
     id="image51"
     y="0"
     x="0"
     width="4959px"
     sodipodi:insensitive="true"
     height="7017px" />
  <text
     xml:space="preserve"
     style="font-size:85.3333px;line-height:1.25;font-family:sans-serif"
     x="3235.0374"
     y="2772.6965"
     id="text2372"><tspan
       sodipodi:role="line"
       id="tspan2370"
       x="3235.0374"
       y="2772.6965">scan rate: 10 mV / s</tspan></text>
  <g
     id="g8448">
    <path
       style="fill:none;stroke:#000000;stroke-width:1px;stroke-linecap:butt;stroke-linejoin:miter;stroke-opacity:1"
       d="m 2874.5053,2972.3838 -224.446,-106.3177"
       id="path170" />
    <text
       xml:space="preserve"
       style="font-size:85.3333px;line-height:1.25;font-family:sans-serif"
       x="2411.4053"
       y="2833.4802"
       id="text3930"><tspan
         sodipodi:role="line"
         id="tspan3928"
         x="2411.4053"
         y="2833.4802">y2: 12 uA / cm2</tspan></text>
  </g>
  <g
     id="g8443">
    <path
       style="fill:none;stroke:#000000;stroke-width:1px;stroke-linecap:butt;stroke-linejoin:miter;stroke-opacity:1"
       d="m 2871.1308,3505.6755 -270.0447,102.9378"
       id="path172" />
    <text
       xml:space="preserve"
       style="font-size:85.3333px;line-height:1.25;font-family:sans-serif"
       x="2013.2169"
       y="3667.0952"
       id="text5692"><tspan
         sodipodi:role="line"
         id="tspan5690"
         x="2013.2169"
         y="3667.0952">y1: -3 uA / cm2</tspan></text>
  </g>
  <g
     id="g8438">
    <path
       style="fill:none;stroke:#000000;stroke-width:1px;stroke-linecap:butt;stroke-linejoin:miter;stroke-opacity:1"
       d="m 3009.4844,3611.9931 -10.1235,64.1368"
       id="path174" />
    <text
       xml:space="preserve"
       style="font-size:85.3333px;line-height:1.25;font-family:sans-serif"
       x="2850.2603"
       y="3731.259"
       id="text6850"><tspan
         sodipodi:role="line"
         id="tspan6848"
         x="2850.2603"
         y="3731.259">x1: -0.6 V vs SCE</tspan></text>
  </g>
  <g
     id="g8433">
    <path
       style="fill:none;stroke:#000000;stroke-width:1px;stroke-linecap:butt;stroke-linejoin:miter;stroke-opacity:1"
       d="m 3969.7826,3608.6133 6.749,48.9407"
       id="path176" />
    <text
       xml:space="preserve"
       style="font-size:85.3333px;line-height:1.25;font-family:sans-serif"
       x="3966.4082"
       y="3730.0999"
       id="text7886"><tspan
         sodipodi:role="line"
         id="tspan7884"
         x="3966.4082"
         y="3730.0999">x2: 0.8 V vs SCE</tspan></text>
  </g>
  <g
     id="g17502">
    <text
       xml:space="preserve"
       style="font-size:85.3333px;line-height:1.25;font-family:sans-serif"
       x="2627.5447"
       y="2681.6289"
       id="text1324"><tspan
         sodipodi:role="line"
         id="tspan1322"
         x="2627.5447"
         y="2681.6289">curve: Au(111)_0.1M_KClO4_1mM_KI</tspan></text>
    <path
       style="fill:none;stroke:#000000;stroke-width:1px;stroke-linecap:butt;stroke-linejoin:miter;stroke-opacity:1"
       d="m 2882.2509,3400.1656 c 0,0 38.9543,-3.7693 58.4904,-4.7607 19.8628,-1.008 39.9233,1.3036 59.6529,-1.2046 15.4067,-1.9587 31.6657,-3.3748 45.3362,-10.7451 8.6742,-4.6766 16.416,-11.8473 21.5056,-20.2858 7.6761,-12.7268 9.1371,-28.364 11.9306,-42.9616 4.8866,-25.5357 6.1958,-51.6392 8.3514,-77.5487 2.8086,-33.7578 4.745,-67.5957 5.9653,-101.4482 1.0748,-29.8161 0.803,-59.6655 1.193,-89.4984 0.4056,-31.0245 1.1931,-93.0738 1.1931,-93.0738 0,0 7.288,96.2509 10.7375,144.3906 2.4793,34.5997 3.2844,69.3474 7.1583,103.8189 1.4386,12.801 0.3441,26.5913 5.9653,38.1817 3.3163,6.8379 8.1064,14.9947 15.5098,16.7105 5.3961,1.2506 10.7947,-3.0583 15.5097,-5.9653 5.0324,-3.1027 7.2191,-12.2266 13.1237,-11.9306 5.3436,0.2679 8.4042,7.1159 10.7375,11.9306 6.1613,12.7141 3.7825,28.057 7.1584,41.7761 3.0954,12.5793 5.6165,25.6826 11.9611,36.9771 9.2546,16.4747 21.1094,32.713 36.9848,42.9616 11.8425,7.6451 26.6346,9.7902 40.564,11.9497 18.4848,2.8657 37.3991,1.3052 56.1043,1.1854 23.4765,-0.1504 46.9141,-2.2108 70.3904,-2.3899 21.4884,-0.1639 42.9667,1.1732 64.4557,1.2045 25.455,0.037 50.9659,0.6176 76.3557,-1.2045 15.5966,-1.1193 31.0033,-4.1075 46.5293,-5.9653 7.1616,-0.8569 15.6834,-6.6471 21.5056,-2.3899 6.5476,4.7876 7.6179,16.2655 4.7722,23.8611 -2.2897,6.1116 -9.3662,9.7471 -15.5097,11.9497 -11.6205,4.1662 -24.6709,1.1035 -37.0154,1.1854 -21.0806,0.1399 -42.152,-0.9878 -63.2321,-1.1854 -19.8936,-0.1865 -39.789,0 -59.6835,0 -27.4403,0 -54.8807,0 -82.321,0 -24.269,0 -48.7102,-2.8856 -72.807,0 -15.0351,1.8004 -30.431,4.3016 -44.1432,10.726 -12.1037,5.6708 -23.8738,13.4343 -32.2126,23.8804 -6.7764,8.4889 -8.6359,19.9348 -13.1236,29.8263 -5.4413,11.9935 -12.251,23.408 -16.7334,35.7918 -2.6601,7.3491 -1.0394,16.6076 -5.9653,22.6757 -2.2425,2.7625 -6.0152,5.2319 -9.5445,4.7799 -8.3881,-1.0743 -11.0513,-14.0816 -19.0889,-16.7104 -8.7265,-2.8541 -18.2803,1.7637 -27.4403,2.3899 -7.945,0.5431 -16.2028,3.3686 -23.8612,1.1854 -6.0449,-1.7232 -9.7593,-13.2645 -15.5097,-10.726 -13.5846,5.9969 -5.9653,44.1469 -5.9653,44.1469 0,0 -10.2372,-30.8331 -14.3473,-46.5369 -3.8121,-14.565 -5.3229,-29.6952 -9.5444,-44.1469 -4.165,-14.2583 -5.0241,-31.2551 -15.5098,-41.7762 -9.5946,-9.627 -24.7387,-12.2893 -38.1779,-14.3205 -13.3926,-2.0241 -27.0901,1.0058 -40.5639,2.39 -13.6052,1.3977 -27.5156,1.9657 -40.5946,5.9652 -10.5466,3.2251 -29.8264,14.3206 -29.8264,14.3206 -10.8287,-7.5185 3.5792,-39.3863 3.5792,-39.3863 z"
       id="path16828"
       sodipodi:nodetypes="csssssssscsssssssssssssssssssssssssssssssssscsssssssc" />
  </g>
  <text
     xml:space="preserve"
     style="font-style:normal;font-variant:normal;font-weight:normal;font-stretch:normal;font-size:80px;line-height:1.25;font-family:sans-serif;-inkscape-font-specification:sans-serif;letter-spacing:0px;word-spacing:0px;fill:#000000;fill-opacity:1;stroke:none"
     x="370.59262"
     y="559.67932"
     id="text837"><tspan
       sodipodi:role="line"
       id="tspan835"
       x="370.59262"
       y="559.67932">comment: No information about counter electrode available.</tspan></text>
</svg>
