<?xml version="1.0" encoding="UTF-8" standalone="no"?>
<svg
   xmlns:dc="http://purl.org/dc/elements/1.1/"
   xmlns:cc="http://creativecommons.org/ns#"
   xmlns:rdf="http://www.w3.org/1999/02/22-rdf-syntax-ns#"
   xmlns:svg="http://www.w3.org/2000/svg"
   xmlns="http://www.w3.org/2000/svg"
   xmlns:xlink="http://www.w3.org/1999/xlink"
   xmlns:sodipodi="http://sodipodi.sourceforge.net/DTD/sodipodi-0.dtd"
   xmlns:inkscape="http://www.inkscape.org/namespaces/inkscape"
   height="6601px"
   version="1.1"
   width="5100px"
   id="svg6"
   sodipodi:docname="Gomez_2003_effect_228_p2_f3_Pt110_293K.svg"
   inkscape:version="0.92.2 (5c3e80d, 2017-08-06)">
  <metadata
     id="metadata10">
    <rdf:RDF>
      <cc:Work
         rdf:about="">
        <dc:format>image/svg+xml</dc:format>
        <dc:type
           rdf:resource="http://purl.org/dc/dcmitype/StillImage" />
      </cc:Work>
    </rdf:RDF>
  </metadata>
  <sodipodi:namedview
     pagecolor="#ffffff"
     bordercolor="#666666"
     borderopacity="1"
     objecttolerance="10"
     gridtolerance="10"
     guidetolerance="10"
     inkscape:pageopacity="0"
     inkscape:pageshadow="2"
     inkscape:window-width="1920"
     inkscape:window-height="1027"
     id="namedview8"
     showgrid="false"
     inkscape:zoom="0.24844721"
     inkscape:cx="940.8862"
     inkscape:cy="5539.5622"
     inkscape:window-x="-8"
     inkscape:window-y="22"
     inkscape:window-maximized="1"
     inkscape:current-layer="svg6"
     inkscape:document-rotation="0" />
  <defs
     id="defs2" />
  <image
     sodipodi:absref="E:\1-Cloud\PPS\digitizer\Gomez_2003_effect_228\Gomez_2003_effect_228_p2.png"
     xlink:href="Gomez_2003_effect_228_p2.png"
     height="6601px"
     sodipodi:insensitive="true"
     width="5100px"
     x="0"
     y="0"
     id="image4" />
  <g
     id="g877">
    <text
       xml:space="preserve"
       style="font-style:italic;font-weight:bold;font-size:48px;line-height:1.25;font-family:sans-serif;-inkscape-font-specification:'sans-serif Bold Italic';letter-spacing:0px"
       x="901.60004"
       y="2078.9126"
       id="text837"><tspan
         sodipodi:role="line"
         id="tspan835"
         x="901.60004"
         y="2078.9126">j2: 80 uA / cm2</tspan></text>
    <path
       style="fill:none;stroke:#000000;stroke-width:1px;stroke-linecap:butt;stroke-linejoin:miter;stroke-opacity:1"
       d="M 1048.8786,2238.1057 880.86943,2063.426"
       id="path851" />
  </g>
  <g
     id="g872">
    <text
       xml:space="preserve"
       style="font-style:italic;font-weight:bold;font-size:48px;line-height:1.25;font-family:sans-serif;-inkscape-font-specification:'sans-serif Bold Italic';letter-spacing:0px"
       x="547.40002"
       y="3316.5999"
       id="text841"><tspan
         sodipodi:role="line"
         id="tspan839"
         x="547.40002"
         y="3316.5999">j1: -80 uA / cm2</tspan></text>
    <path
       style="fill:none;stroke:#000000;stroke-width:1px;stroke-linecap:butt;stroke-linejoin:miter;stroke-opacity:1"
       d="m 1048.9675,3521.6989 -519.68,-223.2114"
       id="path853" />
  </g>
  <g
     id="g867">
    <text
       xml:space="preserve"
       style="font-style:italic;font-weight:bold;font-size:48px;line-height:1.25;font-family:sans-serif;-inkscape-font-specification:'sans-serif Bold Italic';letter-spacing:0px"
       x="959.96252"
       y="3797.5874"
       id="text845"><tspan
         sodipodi:role="line"
         id="tspan843"
         x="959.96252"
         y="3797.5874">E1: 0 V vs RHE</tspan></text>
    <path
       style="fill:none;stroke:#000000;stroke-width:1px;stroke-linecap:butt;stroke-linejoin:miter;stroke-opacity:1"
       d="M 1103.4789,3601.4945 950.599,3781.7618"
       id="path855" />
  </g>
  <g
     id="g862">
    <text
       xml:space="preserve"
       style="font-style:italic;font-weight:bold;font-size:48px;line-height:1.25;font-family:sans-serif;-inkscape-font-specification:'sans-serif Bold Italic';letter-spacing:0px"
       x="2056.7749"
       y="3725.1377"
       id="text849"><tspan
         sodipodi:role="line"
         id="tspan847"
         x="2056.7749"
         y="3725.1377">E2: 0.8 V vs RHE</tspan></text>
    <path
       style="fill:none;stroke:#000000;stroke-width:1px;stroke-linecap:butt;stroke-linejoin:miter;stroke-opacity:1"
       d="m 1970.8664,3601.4945 80.3742,106.0336"
       id="path857" />
  </g>
  <g
     id="g888">
    <path
       style="fill:none;stroke:#21c10a;stroke-width:1px;stroke-linecap:butt;stroke-linejoin:miter;stroke-opacity:1"
       d="m 1169.927,2874.2101 c 0,0 2.4574,-95.1125 0.7115,-148.5311 -1.0304,-31.5272 6.1953,-68.3311 29.0631,-90.0587 9.4729,-9.0006 15.2875,-21.5651 20.3213,-34.1339 9.2638,-23.1307 12.4016,-50.0494 15.9037,-74.5411 4.0019,-27.9875 14.6228,-138.8502 14.0875,-134.5859 -0.9378,7.4704 6.8792,-51.1988 14.0875,-50.8156 10.8429,0.5764 13.2617,46.0323 18.8961,86.2818 3.999,28.5671 7.1117,54.1543 27.1398,61.8885 19.1722,7.4037 40.1289,-38.5023 57.6078,-32.2 15.6017,5.6254 16.5434,81.2885 21.8353,163.0483 3.8363,59.2696 15.4508,131.925 29.9866,162.7251 16.8547,35.7136 33.3493,50.4613 68.6766,62.6391 53.3538,18.3918 112.9969,2.8257 169.3015,-1.0063 69.9253,-4.759 144.7974,3.9151 211.524,-15.3009 12.7393,-3.6687 24.6675,-11.4391 36.7682,-17.1506 60.1427,-28.3869 67.2644,-87.9365 67.1672,-84.525 l -4.1093,144.2761 c -0.6902,24.2295 -2.7659,39.2768 -4.6954,43.641 -8.7078,19.6958 -25.2089,38.2538 -58.6141,27.1688 -14.3608,-4.7654 -56.5695,-15.7482 -98.2955,-20.5556 -19.8542,-2.2875 -37.6826,-1.0624 -56.1638,-0.8272 -46.861,0.5964 -116.2965,-11.6501 -173.1248,-13.1302 -54.3461,-1.4154 -89.9643,0.1705 -101.833,6.0864 -59.9351,29.8742 -58.5853,62.3276 -69.866,101.8954 -12.2737,43.0509 -23.6781,237.9125 -29.2497,249.0343 -7.7849,15.54 -19.7551,16.1361 -29.1323,15.5579 -15.7744,-0.9728 -29.1007,-11.256 -36.777,-5.7469 -8.7479,6.2782 -22.1542,38.5814 -26.3161,61.9018 -3.7902,21.2371 -5.6757,41.1975 -7.8964,52.3075 -3.0302,15.1596 -5.8854,45.132 -14.5907,44.0235 -5.7147,-0.7277 -11.7113,-50.7843 -17.3578,-76.2235 -14.4445,-65.0764 -19.3928,-194.8919 -42.2625,-195.464 -22.1204,-0.5533 -31.4453,130.5609 -31.4453,130.5609"
       id="path879"
       sodipodi:nodetypes="cssssssssssssssssssssssssssssssssc"
       inkscape:connector-curvature="0" />
    <text
       xml:space="preserve"
       style="font-style:italic;font-weight:bold;font-size:48px;line-height:1.25;font-family:sans-serif;-inkscape-font-specification:'sans-serif Bold Italic';letter-spacing:0px"
       x="1430.8876"
       y="2513.6125"
       id="text883"><tspan
         sodipodi:role="line"
         id="tspan881"
         x="1430.8876"
         y="2513.6125">curve: 293</tspan></text>
  </g>
  <text
     xml:space="preserve"
     style="font-style:italic;font-weight:bold;font-size:48px;line-height:1.25;font-family:sans-serif;-inkscape-font-specification:'sans-serif Bold Italic';letter-spacing:0px"
     x="1517.425"
     y="3185.7876"
     id="text892"><tspan
       sodipodi:role="line"
       id="tspan890"
       x="1517.425"
       y="3185.7876">scan rate: 50 mV / s</tspan></text>
  <text
     xml:space="preserve"
     style="font-style:normal;font-weight:normal;font-size:80px;line-height:1.25;font-family:sans-serif;letter-spacing:0px;word-spacing:0px;fill:#000000;fill-opacity:1;stroke:none"
     x="138.8625"
     y="2467.325"
     id="text838"><tspan
       sodipodi:role="line"
       id="tspan836"
       x="138.8625"
       y="2467.325">Figure: 3</tspan></text>
  <text
     xml:space="preserve"
     style="font-style:normal;font-weight:normal;font-size:80px;line-height:1.25;font-family:sans-serif;letter-spacing:0px;word-spacing:0px;fill:#000000;fill-opacity:1;stroke:none"
     x="142.8875"
     y="2624.3"
     id="text842"><tspan
       sodipodi:role="line"
       id="tspan840"
       x="142.8875"
       y="2624.3">Tags: BCV</tspan></text>
</svg>
