<?xml version="1.0" encoding="UTF-8" standalone="no"?>
<svg
   height="6820px"
   version="1.1"
   width="5212px"
   id="svg53"
   sodipodi:docname="mello_2018_bromide_18562_p1_1_ph6,9_black.svg"
   inkscape:version="1.1.1 (eb90963e84, 2021-10-02)"
   xmlns:inkscape="http://www.inkscape.org/namespaces/inkscape"
   xmlns:sodipodi="http://sodipodi.sourceforge.net/DTD/sodipodi-0.dtd"
   xmlns:xlink="http://www.w3.org/1999/xlink"
   xmlns="http://www.w3.org/2000/svg"
   xmlns:svg="http://www.w3.org/2000/svg">
  <sodipodi:namedview
     id="namedview55"
     pagecolor="#ffffff"
     bordercolor="#666666"
     borderopacity="1.0"
     inkscape:pageshadow="2"
     inkscape:pageopacity="0.0"
     inkscape:pagecheckerboard="0"
     showgrid="false"
     inkscape:zoom="0.38416422"
     inkscape:cx="3695.0344"
     inkscape:cy="2068.126"
     inkscape:window-width="1848"
     inkscape:window-height="906"
     inkscape:window-x="72"
     inkscape:window-y="27"
     inkscape:window-maximized="1"
     inkscape:current-layer="svg53" />
  <defs
     id="defs49" />
  <image
     height="6820px"
     sodipodi:insensitive="true"
     width="5212px"
     x="0"
     xlink:href="mello_2018_bromide_18562_p1.png"
     y="0"
     id="image51" />
  <text
     xml:space="preserve"
     style="font-size:85.3333px;line-height:1.25;font-family:sans-serif"
     x="3277.1082"
     y="2447.4619"
     id="text4145"><tspan
       sodipodi:role="line"
       id="tspan4143"
       x="3277.1082"
       y="2447.4619">scan rate: 50 mV/s</tspan></text>
  <g
     id="g31146"
     transform="translate(2442.3993,857.47648)">
    <path
       style="fill:none;stroke:#000000;stroke-width:1px;stroke-linecap:butt;stroke-linejoin:miter;stroke-opacity:1"
       d="m 906.00013,1616.4919 -16.60865,141.7175"
       id="path6692" />
    <text
       xml:space="preserve"
       style="font-size:85.3333px;line-height:1.25;font-family:sans-serif"
       x="871.05731"
       y="1795.0084"
       id="text21242"><tspan
         sodipodi:role="line"
         id="tspan21240"
         x="871.05731"
         y="1795.0084">x1: 0.1 V vs RHE </tspan></text>
  </g>
  <g
     id="g31141"
     transform="translate(2442.3993,857.47648)">
    <path
       style="fill:none;stroke:#000000;stroke-width:1px;stroke-linecap:butt;stroke-linejoin:miter;stroke-opacity:1"
       d="m 1883.3202,1614.6666 16.6085,115.9458"
       id="path6694" />
    <text
       xml:space="preserve"
       style="font-size:85.3333px;line-height:1.25;font-family:sans-serif"
       x="1839.1025"
       y="1785.8185"
       id="text30000"><tspan
         sodipodi:role="line"
         id="tspan29998"
         x="1839.1025"
         y="1785.8185">x2: 0.9 V vs RHE</tspan></text>
  </g>
  <g
     id="g58304"
     transform="translate(2442.6927,0.593104)">
    <path
       style="fill:none;stroke:#000000;stroke-width:1px;stroke-linecap:butt;stroke-linejoin:miter;stroke-opacity:1"
       d="m 784.45615,1655.1705 -248.4822,53.3688"
       id="path50528" />
    <text
       xml:space="preserve"
       style="font-size:85.3333px;line-height:1.25;font-family:sans-serif"
       x="78.653824"
       y="1783.2854"
       id="text52668"><tspan
         sodipodi:role="line"
         id="tspan52666"
         x="78.653824"
         y="1783.2854">y2: 100 uA / cm2</tspan></text>
  </g>
  <g
     id="g58309"
     transform="translate(2442.6927,0.593104)">
    <path
       style="fill:none;stroke:#000000;stroke-width:1px;stroke-linecap:butt;stroke-linejoin:miter;stroke-opacity:1"
       d="M 784.45615,2431.8926 486.36382,2402.4431"
       id="path50530" />
    <text
       xml:space="preserve"
       style="font-size:85.3333px;line-height:1.25;font-family:sans-serif"
       x="118.77303"
       y="2383.8906"
       id="text54970"><tspan
         sodipodi:role="line"
         id="tspan54968"
         x="118.77303"
         y="2383.8906">y1: -100 uA / cm2</tspan></text>
  </g>
  <g
     id="g70183">
    <text
       xml:space="preserve"
       style="font-size:85.3333px;line-height:1.25;font-family:sans-serif"
       x="3251.4561"
       y="1582.5082"
       id="text2755"><tspan
         sodipodi:role="line"
         id="tspan2753"
         x="3251.4561"
         y="1582.5082">curve: Pt(111)_ph_6,9_KPF6</tspan></text>
    <path
       style="fill:none;stroke:#000000;stroke-width:1px;stroke-linecap:butt;stroke-linejoin:miter;stroke-opacity:1"
       d="m 3296.7721,2191.483 0.9168,-112.2816 v -60.738 l 1.8334,-45.087 6.4709,-19.3288 12.8878,-12.8859 12.8879,-6.443 28.5258,-2.7515 h 22.9717 l 22.1088,-0.9263 20.2216,-7.3692 8.3043,-12.8723 2.7501,-11.9732 16.5547,17.4899 24.859,9.2081 24.859,8.2819 34.9428,10.1207 29.4965,10.1208 22.0549,8.2818 7.3876,3.6778 11.0005,-2.7515 3.7208,-12.8859 3.6668,-19.3289 4.5836,-16.5637 1.8334,20.2415 2.8041,22.094 4.5835,26.6844 3.6668,11.9596 12.8879,11.9733 18.3881,9.1945 21.1922,8.2818 33.1094,3.6914 24.859,0.9127 18.442,-6.443 15.638,-15.6374 12.8879,-23.9329 18.3881,-38.6576 10.1377,-19.3153 24.8051,-48.7784 V 1846.37 l 2.804,-14.7248 0.9167,-23.0066 0.9167,-27.6107 1.8335,-15.6374 3.6668,6.4429 1.8334,25.7582 1.8335,45.1006 2.8039,38.6577 5.5004,42.3218 3.6668,23.0203 6.4708,24.8455 6.417,11.9596 9.221,8.2818 12.8879,3.6778 19.3049,-7.3555 13.8045,-22.094 9.2211,-23.0066 7.3336,-17.4764 10.1377,-9.2081 7.3876,9.2081 1.8334,15.6375 2.7502,23.0066 3.6668,21.1677 2.7502,8.2818 8.3043,-0.9126 10.1376,-15.651 16.5548,-15.6511 12.8878,-5.5167 11.9712,1.8389 11.0544,11.047 16.5547,17.49 14.7213,15.6374 26.6924,13.8121 34.9427,8.2819 40.4971,2.7515 53.3848,3.6914 h 24.859 l 0.9167,20.2415 -13.8046,0.9262 -32.1927,1.8389 -58.0223,-0.9262 -17.4713,4.604 -19.3049,9.2081 -20.2754,11.9597 -39.5803,11.9596 -38.6096,17.49 -24.859,11.0469 -8.3044,3.6778 -8.2504,11.9597 -9.2209,21.1677 -9.221,23.9329 -5.5003,0.9126 -6.471,-30.3622 -7.3336,-38.6576 -11.9711,-18.4027 -14.7213,-7.3691 -17.4715,3.6914 -14.7212,11.0333 -8.3042,15.6511 -8.3044,18.4026 -5.5003,29.4495 -8.3042,43.2617 -5.5004,45.087 -5.5002,69.0199 -5.5541,41.4092 -3.6669,-20.2415 -0.9167,-58.8991 -2.7501,-89.2613 -3.6668,-16.5637 -16.6087,-26.6981 -21.1382,-38.644 -20.2755,-28.5369 -21.1382,-15.6375 -34.0801,-9.2081 -34.9427,3.6778 -37.7469,17.49 -12.8878,8.2818 -9.2211,14.7248 -6.4169,28.5233 -1.8335,12.8859 -7.3876,2.7651 -5.5002,-12.8858 -12.8879,-6.443 -14.7213,0.9263 -29.4425,13.7985 -25.7757,9.2081 -30.3592,6.4429 -34.9968,11.0334 -21.1382,16.5773 -18.4421,-13.8121 -26.6924,-11.047 h -32.1927 l -30.3592,5.5303 -19.3048,8.2818 z"
       id="path70098" />
  </g>
</svg>
