<?xml version="1.0" encoding="UTF-8" standalone="no"?>
<svg
   xmlns:dc="http://purl.org/dc/elements/1.1/"
   xmlns:cc="http://creativecommons.org/ns#"
   xmlns:rdf="http://www.w3.org/1999/02/22-rdf-syntax-ns#"
   xmlns:svg="http://www.w3.org/2000/svg"
   xmlns="http://www.w3.org/2000/svg"
   xmlns:xlink="http://www.w3.org/1999/xlink"
   xmlns:sodipodi="http://sodipodi.sourceforge.net/DTD/sodipodi-0.dtd"
   xmlns:inkscape="http://www.inkscape.org/namespaces/inkscape"
   height="6820px"
   version="1.1"
   width="5212px"
   id="svg53"
   sodipodi:docname="mello_2018_bromide_18562_f1_ph4,5_black.svg"
   inkscape:version="0.92.2 (5c3e80d, 2017-08-06)">
  <metadata
     id="metadata28">
    <rdf:RDF>
      <cc:Work
         rdf:about="">
        <dc:format>image/svg+xml</dc:format>
        <dc:type
           rdf:resource="http://purl.org/dc/dcmitype/StillImage" />
      </cc:Work>
    </rdf:RDF>
  </metadata>
  <sodipodi:namedview
     id="namedview55"
     pagecolor="#ffffff"
     bordercolor="#666666"
     borderopacity="1.0"
     inkscape:pageshadow="2"
     inkscape:pageopacity="0.0"
     inkscape:pagecheckerboard="0"
     showgrid="false"
     inkscape:zoom="0.067911281"
     inkscape:cx="-333.23446"
     inkscape:cy="2539.8953"
     inkscape:window-width="1920"
     inkscape:window-height="1017"
     inkscape:window-x="-8"
     inkscape:window-y="32"
     inkscape:window-maximized="1"
     inkscape:current-layer="svg53" />
  <defs
     id="defs49" />
  <image
     sodipodi:absref="F:\Github\echemdb\website\literature\mello_2018_bromide_18562\mello_2018_bromide_18562_p1.png"
     xlink:href="mello_2018_bromide_18562_p1.png"
     id="image51"
     y="0"
     x="0"
     width="5212px"
     sodipodi:insensitive="true"
     height="6820px" />
  <text
     xml:space="preserve"
     style="font-size:85.3333px;line-height:1.25;font-family:sans-serif"
     x="1068.6294"
     y="2448.9561"
     id="text4145"><tspan
       sodipodi:role="line"
       id="tspan4143"
       x="1068.6294"
       y="2448.9561">scan rate: 50 mV / s</tspan></text>
  <g
     id="g31146"
     transform="translate(-0.2934061,856.88337)">
    <path
       style="fill:none;stroke:#000000;stroke-width:1px;stroke-linecap:butt;stroke-linejoin:miter;stroke-opacity:1"
       d="m 906.00013,1616.4919 -16.60865,141.7175"
       id="path6692" />
    <text
       xml:space="preserve"
       style="font-size:85.3333px;line-height:1.25;font-family:sans-serif"
       x="871.05731"
       y="1795.0084"
       id="text21242"><tspan
         sodipodi:role="line"
         id="tspan21240"
         x="871.05731"
         y="1795.0084">x1: 0.1 V vs RHE </tspan></text>
  </g>
  <g
     id="g31141"
     transform="translate(-0.2934061,856.88337)">
    <path
       style="fill:none;stroke:#000000;stroke-width:1px;stroke-linecap:butt;stroke-linejoin:miter;stroke-opacity:1"
       d="m 1883.3202,1614.6666 16.6085,115.9458"
       id="path6694" />
    <text
       xml:space="preserve"
       style="font-size:85.3333px;line-height:1.25;font-family:sans-serif"
       x="1839.1025"
       y="1785.8185"
       id="text30000"><tspan
         sodipodi:role="line"
         id="tspan29998"
         x="1839.1025"
         y="1785.8185">x2: 0.9 V vs RHE</tspan></text>
  </g>
  <g
     id="g58304">
    <path
       style="fill:none;stroke:#000000;stroke-width:1px;stroke-linecap:butt;stroke-linejoin:miter;stroke-opacity:1"
       d="m 784.45615,1655.1705 -248.4822,53.3688"
       id="path50528" />
    <text
       xml:space="preserve"
       style="font-size:85.3333px;line-height:1.25;font-family:sans-serif"
       x="78.653824"
       y="1783.2854"
       id="text52668"><tspan
         sodipodi:role="line"
         id="tspan52666"
         x="78.653824"
         y="1783.2854">y2: 100 uA / cm2</tspan></text>
  </g>
  <g
     id="g58309">
    <path
       style="fill:none;stroke:#000000;stroke-width:1px;stroke-linecap:butt;stroke-linejoin:miter;stroke-opacity:1"
       d="M 784.45615,2431.8926 486.36382,2402.4431"
       id="path50530" />
    <text
       xml:space="preserve"
       style="font-size:85.3333px;line-height:1.25;font-family:sans-serif"
       x="118.77303"
       y="2383.8906"
       id="text54970"><tspan
         sodipodi:role="line"
         id="tspan54968"
         x="118.77303"
         y="2383.8906">y1: -100 uA / cm2</tspan></text>
  </g>
  <g
     id="g63223">
    <text
       xml:space="preserve"
       style="font-size:85.3333px;line-height:1.25;font-family:sans-serif"
       x="805.3576"
       y="1594.5995"
       id="text2755"><tspan
         sodipodi:role="line"
         id="tspan2753"
         x="805.3576"
         y="1594.5995">curve: Pt(111)_ph_4,5_KPF6</tspan></text>
    <path
       style="fill:none;stroke:#000000;stroke-width:1px;stroke-linecap:butt;stroke-linejoin:miter;stroke-opacity:1"
       d="m 854.26033,2190.565 0.91673,-83.7446 2.75011,-73.6239 0.91672,-39.5703 9.22102,-32.2148 11.05444,-15.651 21.13822,-8.2819 18.38812,-1.8389 16.60861,-2.7515 16.5547,-4.604 20.22153,-10.1208 14.72127,0.9127 20.2755,1.8389 26.6924,3.6777 23.9423,2.7652 19.3048,2.7652 34.0261,10.1207 18.442,5.5167 10.0838,-0.9127 9.2211,-11.9596 4.5835,-14.7248 1.8873,-3.6914 2.7502,13.8122 5.5002,30.3622 12.8879,18.4162 24.859,19.3152 33.1093,21.1677 24.8591,8.2818 h 14.7213 l 12.8878,-1.8388 11.9712,-7.3556 9.2209,-18.4162 11.9173,-34.9663 8.3043,-25.7718 13.8046,-25.7581 11.0544,-13.8122 12.8879,-6.4429 13.8045,-0.9126 12.8879,1.8389 27.6091,11.9596 17.4714,14.7248 22.1089,17.4899 21.1382,20.2415 52.4681,36.8188 42.3305,17.4763 36.8301,9.2081 37.693,5.5166 22.1088,1.8389 58.8851,3.6915 42.3304,0.9126 h 33.1633 16.5547 v 7.3692 l -6.4709,7.3556 -40.4969,0.9262 h -53.331 l -17.5253,2.7516 -14.7213,2.7651 -23.9423,5.5303 -8.2503,2.7516 h -31.276 l -31.3299,1.8389 -22.9717,6.4429 -26.6924,11.047 -43.2471,23.9329 -20.2755,12.8723 -31.276,25.7718 -25.7757,22.0939 -25.7757,14.7248 -20.2215,8.2819 -20.2755,0.9126 -17.4713,-6.443 -10.1378,-11.0334 -13.8045,-28.5368 -12.8879,-38.6441 -12.8878,-29.4496 -18.3881,-11.047 -17.4715,-2.7651 -23.9422,3.6778 -23.9424,9.2081 -22.9716,14.7247 -17.5254,13.7986 -9.167,7.3692 -10.1377,12.8859 -2.7502,16.5637 -1.8334,20.2414 -4.6375,4.6041 -7.3336,-14.7248 -10.1378,-11.047 -21.1382,0.9263 -30.4132,8.2818 -35.8595,8.2818 -34.99674,6.443 -24.80507,3.6778 -18.44203,9.208 -12.88786,-10.1207 -18.38811,-4.604 -27.60913,-2.7652 -16.55469,5.5303 -14.72128,11.0334 z"
       id="path58344" />
  </g>
  <text
     xml:space="preserve"
     style="font-style:normal;font-variant:normal;font-weight:normal;font-stretch:normal;font-size:80px;line-height:1.25;font-family:sans-serif;-inkscape-font-specification:sans-serif;letter-spacing:0px;word-spacing:0px;fill:#000000;fill-opacity:1;stroke:none"
     x="-6752.4609"
     y="348.30386"
     id="text837"><tspan
       sodipodi:role="line"
       id="tspan835"
       x="-6752.4609"
       y="348.30386">comment: &quot;Working solutions of the pH-series with values lower than 3 were prepared by using HClO4 and KClO4. For pH values ranging from 3 to 9, phosphate buffer solutions were employed (Na2HPO4 and NaH2PO4). Alkaline solutions were prepared with NaOH and KClO4. The exact concentrations of these components are unkown.&quot;</tspan></text>
</svg>
