<?xml version="1.0" encoding="UTF-8" standalone="no"?>
<svg
   height="6820px"
   version="1.1"
   width="5212px"
   id="svg53"
   sodipodi:docname="mello_2018_bromide_18562_p1_1_ph11,5_black.svg"
   inkscape:version="1.1.1 (eb90963e84, 2021-10-02)"
   xmlns:inkscape="http://www.inkscape.org/namespaces/inkscape"
   xmlns:sodipodi="http://sodipodi.sourceforge.net/DTD/sodipodi-0.dtd"
   xmlns:xlink="http://www.w3.org/1999/xlink"
   xmlns="http://www.w3.org/2000/svg"
   xmlns:svg="http://www.w3.org/2000/svg">
  <sodipodi:namedview
     id="namedview55"
     pagecolor="#ffffff"
     bordercolor="#666666"
     borderopacity="1.0"
     inkscape:pageshadow="2"
     inkscape:pageopacity="0.0"
     inkscape:pagecheckerboard="0"
     showgrid="false"
     inkscape:zoom="0.38416422"
     inkscape:cx="3715.8588"
     inkscape:cy="2880.2786"
     inkscape:window-width="1848"
     inkscape:window-height="906"
     inkscape:window-x="72"
     inkscape:window-y="27"
     inkscape:window-maximized="1"
     inkscape:current-layer="svg53" />
  <defs
     id="defs49" />
  <image
     height="6820px"
     sodipodi:insensitive="true"
     width="5212px"
     x="0"
     xlink:href="mello_2018_bromide_18562_p1.png"
     y="0"
     id="image51" />
  <text
     xml:space="preserve"
     style="font-size:85.3333px;line-height:1.25;font-family:sans-serif"
     x="3251.4849"
     y="3275.1816"
     id="text4145"><tspan
       sodipodi:role="line"
       id="tspan4143"
       x="3251.4849"
       y="3275.1816">scan rate: 50 mV / s</tspan></text>
  <g
     id="g31146"
     transform="translate(2442.9091,1712.569)">
    <path
       style="fill:none;stroke:#000000;stroke-width:1px;stroke-linecap:butt;stroke-linejoin:miter;stroke-opacity:1"
       d="m 906.00013,1616.4919 -16.60865,141.7175"
       id="path6692" />
    <text
       xml:space="preserve"
       style="font-size:85.3333px;line-height:1.25;font-family:sans-serif"
       x="871.05731"
       y="1795.0084"
       id="text21242"><tspan
         sodipodi:role="line"
         id="tspan21240"
         x="871.05731"
         y="1795.0084">x1: 0.1 V vs RHE </tspan></text>
  </g>
  <g
     id="g31141"
     transform="translate(2442.9091,1712.569)">
    <path
       style="fill:none;stroke:#000000;stroke-width:1px;stroke-linecap:butt;stroke-linejoin:miter;stroke-opacity:1"
       d="m 1883.3202,1614.6666 16.6085,115.9458"
       id="path6694" />
    <text
       xml:space="preserve"
       style="font-size:85.3333px;line-height:1.25;font-family:sans-serif"
       x="1839.1025"
       y="1785.8185"
       id="text30000"><tspan
         sodipodi:role="line"
         id="tspan29998"
         x="1839.1025"
         y="1785.8185">x2: 0.9 V vs RHE</tspan></text>
  </g>
  <g
     id="g77637"
     transform="translate(2442.4267,0.044198)">
    <path
       style="fill:none;stroke:#000000;stroke-width:1px;stroke-linecap:butt;stroke-linejoin:miter;stroke-opacity:1"
       d="m 784.50282,2540.5039 -220.87303,46.0132"
       id="path73014" />
    <text
       xml:space="preserve"
       style="font-size:85.3333px;line-height:1.25;font-family:sans-serif"
       x="96.493675"
       y="2644.0198"
       id="text74890"><tspan
         sodipodi:role="line"
         id="tspan74888"
         x="96.493675"
         y="2644.0198">y2: 75 uA / cm2</tspan></text>
  </g>
  <g
     id="g77642"
     transform="translate(2442.4267,0.044198)">
    <path
       style="fill:none;stroke:#000000;stroke-width:1px;stroke-linecap:butt;stroke-linejoin:miter;stroke-opacity:1"
       d="m 784.50282,3252.7966 -266.9242,-46.0133"
       id="path73016" />
    <text
       xml:space="preserve"
       style="font-size:85.3333px;line-height:1.25;font-family:sans-serif"
       x="125.82837"
       y="3196.1787"
       id="text76376"><tspan
         sodipodi:role="line"
         id="tspan76374"
         x="125.82837"
         y="3196.1787">y1: -75 uA / cm2</tspan></text>
  </g>
  <g
     id="g87819">
    <text
       xml:space="preserve"
       style="font-size:85.3333px;line-height:1.25;font-family:sans-serif"
       x="3116.3232"
       y="2451.9146"
       id="text2755"><tspan
         sodipodi:role="line"
         id="tspan2753"
         x="3116.3232"
         y="2451.9146">curve: Pt(111)_ph_11,5_KPF6 </tspan></text>
    <path
       style="fill:none;stroke:#000000;stroke-width:1px;stroke-linecap:butt;stroke-linejoin:miter;stroke-opacity:1"
       d="m 3299.5514,3067.6291 2.7501,-96.6306 2.7501,-136.2145 3.6668,-45.087 10.1378,-18.4025 15.638,-10.1208 50.6347,-8.2954 58.8851,-0.9127 45.0805,3.6778 21.1921,1.8389 15.638,-3.6778 12.8879,10.1207 19.3048,16.5637 36.8302,30.3759 42.3304,35.8925 22.1089,13.7985 20.2215,6.443 13.8046,-2.7652 17.4714,4.6041 9.221,7.3691 25.7757,8.2819 h 30.3592 l 57.9684,1.8389 43.2472,-2.7652 41.4136,-4.604 43.2471,-9.1945 20.2756,-10.1207 23.0254,-20.2551 22.055,-45.087 29.4425,-59.8254 35.9136,-60.7381 33.1093,-57.0602 14.7213,-23.9193 17.5253,-12.8858 12.8879,1.8389 15.638,38.6576 11.9711,57.9729 12.8339,47.8522 11.9712,34.9798 24.8589,30.3622 9.2211,12.8859 -1.8335,153.6908 -6.4708,11.9596 -17.4714,18.4026 -12.8879,23.0067 -13.8046,31.2884 -12.8878,43.2617 -12.8878,51.53 -9.2211,25.7718 -11.0004,19.3288 -19.3588,5.5167 -19.3048,-20.2415 -19.3049,-36.8188 -22.1089,-49.691 -24.8589,-44.1744 -20.2215,-50.6173 -20.2756,-38.644 -13.8045,-22.094 -14.7213,-13.7985 -24.8589,-8.2819 h -23.8884 l -39.5803,0.9126 h -65.356 l -60.7185,1.8389 -44.2177,3.6915 -22.055,4.5904 -19.3587,5.5303 -21.1383,4.604 -23.9423,11.9597 -12.8878,5.5167 -15.638,12.8859 -13.8046,9.2081 -17.4714,14.7248 -18.3881,15.6373 -23.0256,25.7718 -24.859,27.6107 -12.8878,11.047 -20.2216,12.8723 -19.3587,12.8858 -22.055,2.7652 -21.1922,-10.1207 -23.8883,-13.8122 -18.442,-4.5904 -30.3593,0.9126 -28.5258,1.8389 z"
       id="path87734" />
  </g>
</svg>
