<?xml version="1.0" encoding="UTF-8" standalone="no"?>
<svg
   height="6820px"
   version="1.1"
   width="5212px"
   id="svg53"
   sodipodi:docname="mello_2018_bromide_18562_p1_1_ph2,2_black.svg"
   inkscape:version="1.1.1 (eb90963e84, 2021-10-02)"
   xmlns:inkscape="http://www.inkscape.org/namespaces/inkscape"
   xmlns:sodipodi="http://sodipodi.sourceforge.net/DTD/sodipodi-0.dtd"
   xmlns:xlink="http://www.w3.org/1999/xlink"
   xmlns="http://www.w3.org/2000/svg"
   xmlns:svg="http://www.w3.org/2000/svg">
  <sodipodi:namedview
     id="namedview55"
     pagecolor="#ffffff"
     bordercolor="#666666"
     borderopacity="1.0"
     inkscape:pageshadow="2"
     inkscape:pageopacity="0.0"
     inkscape:pagecheckerboard="0"
     showgrid="false"
     inkscape:zoom="0.54329025"
     inkscape:cx="2566.7679"
     inkscape:cy="1097.9398"
     inkscape:window-width="1848"
     inkscape:window-height="906"
     inkscape:window-x="72"
     inkscape:window-y="27"
     inkscape:window-maximized="1"
     inkscape:current-layer="svg53" />
  <defs
     id="defs49" />
  <image
     height="6820px"
     sodipodi:insensitive="true"
     width="5212px"
     x="0"
     xlink:href="mello_2018_bromide_18562_p1.png"
     y="0"
     id="image51" />
  <text
     xml:space="preserve"
     style="font-size:85.3333px;line-height:1.25;font-family:sans-serif"
     x="2393.5735"
     y="1524.8794"
     id="text4145"><tspan
       sodipodi:role="line"
       id="tspan4143"
       x="2393.5735"
       y="1524.8794">scan rate: 50 mV/s</tspan></text>
  <g
     id="g19297"
     transform="translate(1219.9584,1.2011817)">
    <path
       style="fill:none;stroke:#000000;stroke-width:0.589642px;stroke-linecap:butt;stroke-linejoin:miter;stroke-opacity:1"
       d="M 784.60909,763.62906 589.20408,742.87832"
       id="path6688" />
    <text
       xml:space="preserve"
       style="font-size:85.3333px;line-height:1.25;font-family:sans-serif"
       x="517.53107"
       y="734.85114"
       id="text12608"><tspan
         sodipodi:role="line"
         id="tspan12606"
         x="517.53107"
         y="734.85114">y2: 300 uA / cm2</tspan></text>
  </g>
  <g
     id="g19302"
     transform="translate(1219.9584,1.2011817)">
    <path
       style="fill:none;stroke:#000000;stroke-width:1.85055px;stroke-linecap:butt;stroke-linejoin:miter;stroke-opacity:1"
       d="m 782.5011,1546.586 -215.13136,58.8063"
       id="path6690" />
    <text
       xml:space="preserve"
       style="font-size:85.3333px;line-height:1.25;font-family:sans-serif"
       x="554.30731"
       y="1664.3514"
       id="text16770"><tspan
         sodipodi:role="line"
         id="tspan16768"
         x="554.30731"
         y="1664.3514">y1: -250 uA / cm2</tspan></text>
  </g>
  <g
     id="g31146"
     transform="translate(1219.9584,1.2011817)">
    <path
       style="fill:none;stroke:#000000;stroke-width:1px;stroke-linecap:butt;stroke-linejoin:miter;stroke-opacity:1"
       d="m 906.00013,1616.4919 -16.60865,141.7175"
       id="path6692" />
    <text
       xml:space="preserve"
       style="font-size:85.3333px;line-height:1.25;font-family:sans-serif"
       x="871.05731"
       y="1795.0084"
       id="text21242"><tspan
         sodipodi:role="line"
         id="tspan21240"
         x="871.05731"
         y="1795.0084">x1: 0.1 V vs RHE </tspan></text>
  </g>
  <g
     id="g31141"
     transform="translate(1219.9584,1.2011817)">
    <path
       style="fill:none;stroke:#000000;stroke-width:1px;stroke-linecap:butt;stroke-linejoin:miter;stroke-opacity:1"
       d="m 1883.3202,1614.6666 16.6085,115.9458"
       id="path6694" />
    <text
       xml:space="preserve"
       style="font-size:85.3333px;line-height:1.25;font-family:sans-serif"
       x="1839.1025"
       y="1785.8185"
       id="text30000"><tspan
         sodipodi:role="line"
         id="tspan29998"
         x="1839.1025"
         y="1785.8185">x2: 0.9 V vs RHE</tspan></text>
  </g>
  <g
     id="g41328">
    <text
       xml:space="preserve"
       style="font-size:85.3333px;line-height:1.25;font-family:sans-serif"
       x="1992.2706"
       y="558.60114"
       id="text2755"><tspan
         sodipodi:role="line"
         id="tspan2753"
         x="1992.2706"
         y="558.60114">curve: Pt(111)_ph_2,2_KPF6</tspan></text>
    <path
       style="fill:none;stroke:#000000;stroke-width:1px;stroke-linecap:butt;stroke-linejoin:miter;stroke-opacity:1"
       d="m 2077.3301,1253.6822 1.8874,-66.2684 2.7501,-23.0066 14.7213,-12.8859 23.9423,-4.604 h 29.4425 l 21.1383,-1.8389 19.3587,-3.6778 16.5547,1.8389 17.4714,0.9262 h 28.5259 l 42.3303,1.8389 12.8879,0.9127 14.7213,1.8525 25.7757,0.9126 24.859,0.9263 8.2504,1.8389 33.1633,15.6374 31.2759,7.3692 36.8302,6.4429 h 34.0261 l 79.1605,-1.8389 67.1894,0.9127 43.2471,-0.9127 28.5259,-1.8389 29.4426,-3.6913 45.0805,-13.7986 39.5802,-9.2081 29.4426,-3.6778 30.3592,-0.9262 h 24.8591 l 24.8589,-1.8389 13.8047,-7.3556 11.0544,-13.8122 6.4169,-16.5636 5.5542,7.3691 8.2504,29.4496 13.8045,20.2415 15.638,6.443 10.1378,3.6778 0.9167,21.1677 -13.8045,4.604 -17.4715,8.2818 -18.388,23.0067 -6.471,23.0066 -6.417,21.1677 -5.5541,-22.0803 -5.5003,-14.7248 -10.1377,-8.2819 -20.2215,-1.8525 h -36.8302 l -45.0805,-0.9126 -27.6091,-7.3692 -45.0806,-11.9597 -42.3843,-9.208 -37.6929,-1.8389 -75.4938,0.9262 -61.6352,-1.8389 -49.718,0.9127 h -38.6096 l -39.5803,5.5302 -28.5259,4.6041 -29.4964,11.0334 -13.8046,6.4429 -30.3593,1.8389 -55.2182,3.6914 -46.914,3.6778 -32.1926,1.8389 -17.5254,1.8389 -7.3336,0.9263 -19.3588,-3.6914 -19.3048,-1.8389 -20.2215,-0.9127 -17.5254,3.6778 -12.8878,7.3556 z"
       id="path40165" />
  </g>
</svg>
