<?xml version="1.0" encoding="UTF-8" standalone="no"?>
<svg
   xmlns:dc="http://purl.org/dc/elements/1.1/"
   xmlns:cc="http://creativecommons.org/ns#"
   xmlns:rdf="http://www.w3.org/1999/02/22-rdf-syntax-ns#"
   xmlns:svg="http://www.w3.org/2000/svg"
   xmlns="http://www.w3.org/2000/svg"
   xmlns:xlink="http://www.w3.org/1999/xlink"
   xmlns:sodipodi="http://sodipodi.sourceforge.net/DTD/sodipodi-0.dtd"
   xmlns:inkscape="http://www.inkscape.org/namespaces/inkscape"
   height="6820px"
   version="1.1"
   width="5212px"
   id="svg53"
   sodipodi:docname="mello_2018_bromide_18562_p1_f1_ph1,2_red.svg"
   inkscape:version="0.92.2 (5c3e80d, 2017-08-06)">
  <metadata
     id="metadata28">
    <rdf:RDF>
      <cc:Work
         rdf:about="">
        <dc:format>image/svg+xml</dc:format>
        <dc:type
           rdf:resource="http://purl.org/dc/dcmitype/StillImage" />
      </cc:Work>
    </rdf:RDF>
  </metadata>
  <sodipodi:namedview
     id="namedview55"
     pagecolor="#ffffff"
     bordercolor="#666666"
     borderopacity="1.0"
     inkscape:pageshadow="2"
     inkscape:pageopacity="0.0"
     inkscape:pagecheckerboard="0"
     showgrid="false"
     inkscape:zoom="0.067911281"
     inkscape:cx="2140.0515"
     inkscape:cy="2814.0678"
     inkscape:window-width="1920"
     inkscape:window-height="1017"
     inkscape:window-x="-8"
     inkscape:window-y="32"
     inkscape:window-maximized="1"
     inkscape:current-layer="svg53" />
  <defs
     id="defs49" />
  <image
     sodipodi:absref="F:\Github\echemdb\website\literature\mello_2018_bromide_18562\mello_2018_bromide_18562_p1.png"
     xlink:href="mello_2018_bromide_18562_p1.png"
     id="image51"
     y="0"
     x="0"
     width="5212px"
     sodipodi:insensitive="true"
     height="6820px" />
  <text
     xml:space="preserve"
     style="font-size:85.3333px;line-height:1.25;font-family:sans-serif"
     x="1197.1061"
     y="1465.9803"
     id="text4145"><tspan
       sodipodi:role="line"
       id="tspan4143"
       x="1197.1061"
       y="1465.9803">scan rate: 50 mV / s</tspan></text>
  <g
     id="g19297">
    <path
       style="fill:none;stroke:#000000;stroke-width:0.589642px;stroke-linecap:butt;stroke-linejoin:miter;stroke-opacity:1"
       d="M 784.60909,763.62906 589.20408,742.87832"
       id="path6688" />
    <text
       xml:space="preserve"
       style="font-size:85.3333px;line-height:1.25;font-family:sans-serif"
       x="517.53107"
       y="734.85114"
       id="text12608"><tspan
         sodipodi:role="line"
         id="tspan12606"
         x="517.53107"
         y="734.85114">j2: 300 uA / cm2</tspan></text>
  </g>
  <g
     id="g19302">
    <path
       style="fill:none;stroke:#000000;stroke-width:1.85055px;stroke-linecap:butt;stroke-linejoin:miter;stroke-opacity:1"
       d="m 782.5011,1546.586 -215.13136,58.8063"
       id="path6690" />
    <text
       xml:space="preserve"
       style="font-size:85.3333px;line-height:1.25;font-family:sans-serif"
       x="554.30731"
       y="1664.3514"
       id="text16770"><tspan
         sodipodi:role="line"
         id="tspan16768"
         x="554.30731"
         y="1664.3514">j1: -250 uA / cm2</tspan></text>
  </g>
  <g
     id="g31146">
    <path
       style="fill:none;stroke:#000000;stroke-width:1px;stroke-linecap:butt;stroke-linejoin:miter;stroke-opacity:1"
       d="m 906.00013,1616.4919 -16.60865,141.7175"
       id="path6692" />
    <text
       xml:space="preserve"
       style="font-size:85.3333px;line-height:1.25;font-family:sans-serif"
       x="871.05731"
       y="1795.0084"
       id="text21242"><tspan
         sodipodi:role="line"
         id="tspan21240"
         x="871.05731"
         y="1795.0084">E1: 0.1 V vs RHE </tspan></text>
  </g>
  <g
     id="g31141">
    <path
       style="fill:none;stroke:#000000;stroke-width:1px;stroke-linecap:butt;stroke-linejoin:miter;stroke-opacity:1"
       d="m 1883.3202,1614.6666 16.6085,115.9458"
       id="path6694" />
    <text
       xml:space="preserve"
       style="font-size:85.3333px;line-height:1.25;font-family:sans-serif"
       x="1839.1025"
       y="1785.8185"
       id="text30000"><tspan
         sodipodi:role="line"
         id="tspan29998"
         x="1839.1025"
         y="1785.8185">E2: 0.9 V vs RHE</tspan></text>
  </g>
  <g
     id="g36643">
    <text
       xml:space="preserve"
       style="font-size:85.3333px;line-height:1.25;font-family:sans-serif"
       x="129.62508"
       y="604.61444"
       id="text2755"><tspan
         sodipodi:role="line"
         id="tspan2753"
         x="129.62508"
         y="604.61444">curve: Pt(111)_ph_1,2_KPF6_KBr</tspan></text>
    <path
       style="fill:none;stroke:#000000;stroke-width:1px;stroke-linecap:butt;stroke-linejoin:miter;stroke-opacity:1"
       d="m 856.0944,1261.9576 v -45.0869 l 1.83342,-42.3355 9.22102,-18.4025 10.13772,-10.1344 15.63799,-2.7516 14.72127,-4.604 17.47139,-10.1207 12.88785,-9.2082 18.38812,1.8389 12.88785,-11.0469 12.88786,-14.7248 7.3876,-38.6441 10.08381,-60.73802 8.3043,-98.46943 2.7501,-33.14098 5.5542,-22.08037 3.6669,23.00661 4.5835,40.49657 2.7501,45.087 3.7208,44.17436 7.3337,64.42946 9.221,35.8789 5.5002,26.698 16.5547,23.0066 13.8046,6.443 8.3043,-2.7652 3.6668,-34.9662 -0.9167,-56.1476 0.9167,-9.1945 2.7502,25.7718 2.804,41.4092 3.6669,15.6374 v 13.8121 l 5.5002,8.2819 10.1377,11.0469 11.9712,8.2819 23.0256,4.6041 45.9972,1.8389 41.4137,1.8389 65.356,0.9126 57.0517,-0.9126 h 68.1061 36.7762 l 14.7213,-3.6778 5.5542,-0.9263 h 8.2504 l 9.2209,3.6778 h 19.3049 28.5258 l 15.6919,1.8389 h 26.6925 l 40.443,-0.9126 h 45.1345 45.9973 l 39.5802,-0.9263 50.6347,0.9263 -38.6635,5.5166 -18.4421,1.8389 -24.8051,2.7652 h -54.3015 -115.074 l -166.5715,-0.9263 -182.2095,-2.7515 -70.8562,2.7515 -29.4426,9.2081 -15.638,13.7985 -6.4708,22.094 -3.6669,30.3622 -3.6668,69.0336 -1.8334,-83.7583 -1.8334,-29.4496 -4.6375,-6.4293 -10.0838,5.5167 -11.9712,12.8858 -9.221,14.7249 -9.221,23.9192 -4.5835,29.4496 -8.3044,46.9395 -8.2503,68.1106 -7.3876,73.6239 -5.5003,30.3622 -8.30432,-57.9728 -6.41695,-102.1609 -6.47091,-57.9729 -11.00051,-35.8925 -9.22102,-14.7248 -9.22101,-3.6778 -11.05444,4.6041 h -13.80455 l -19.30484,-11.9733 -14.72127,-6.4429 -19.30481,2.7651 -13.80456,11.047 z"
       id="path33894" />
  </g>
  <text
     xml:space="preserve"
     style="font-style:normal;font-variant:normal;font-weight:normal;font-stretch:normal;font-size:80px;line-height:1.25;font-family:sans-serif;-inkscape-font-specification:sans-serif;letter-spacing:0px;word-spacing:0px;fill:#000000;fill-opacity:1;stroke:none"
     x="-6531.5845"
     y="289.4035"
     id="text837"><tspan
       sodipodi:role="line"
       id="tspan835"
       x="-6531.5845"
       y="289.4035">comment: &quot;Working solutions of the pH-series with values lower than 3 were prepared by using HClO4 and KClO4. For pH values ranging from 3 to 9, phosphate buffer solutions were employed (Na2HPO4 and NaH2PO4). Alkaline solutions were prepared with NaOH and KClO4. The exact concentrations of these components are unkown.&quot;</tspan></text>
</svg>
