<?xml version="1.0" encoding="UTF-8" standalone="no"?>
<svg
   height="6820px"
   version="1.1"
   width="5212px"
   id="svg53"
   sodipodi:docname="mello_2018_bromide_18562_f1c_red.svg"
   inkscape:version="1.1.2 (b8e25be833, 2022-02-05)"
   xmlns:inkscape="http://www.inkscape.org/namespaces/inkscape"
   xmlns:sodipodi="http://sodipodi.sourceforge.net/DTD/sodipodi-0.dtd"
   xmlns:xlink="http://www.w3.org/1999/xlink"
   xmlns="http://www.w3.org/2000/svg"
   xmlns:svg="http://www.w3.org/2000/svg"
   xmlns:rdf="http://www.w3.org/1999/02/22-rdf-syntax-ns#"
   xmlns:cc="http://creativecommons.org/ns#"
   xmlns:dc="http://purl.org/dc/elements/1.1/">
  <metadata
     id="metadata28">
    <rdf:RDF>
      <cc:Work
         rdf:about="">
        <dc:format>image/svg+xml</dc:format>
        <dc:type
           rdf:resource="http://purl.org/dc/dcmitype/StillImage" />
      </cc:Work>
    </rdf:RDF>
  </metadata>
  <sodipodi:namedview
     id="namedview55"
     pagecolor="#ffffff"
     bordercolor="#666666"
     borderopacity="1.0"
     inkscape:pageshadow="2"
     inkscape:pageopacity="0.0"
     inkscape:pagecheckerboard="0"
     showgrid="false"
     inkscape:zoom="0.19208211"
     inkscape:cx="3836.9008"
     inkscape:cy="1145.3435"
     inkscape:window-width="1920"
     inkscape:window-height="1017"
     inkscape:window-x="-8"
     inkscape:window-y="32"
     inkscape:window-maximized="1"
     inkscape:current-layer="svg53" />
  <defs
     id="defs49" />
  <image
     xlink:href="mello_2018_bromide_18562_p1.png"
     id="image51"
     y="0"
     x="0"
     width="5212px"
     sodipodi:insensitive="true"
     height="6820px" />
  <text
     xml:space="preserve"
     style="font-size:85.3333px;line-height:1.25;font-family:sans-serif"
     x="3494.6177"
     y="1553.5052"
     id="text4145"><tspan
       sodipodi:role="line"
       id="tspan4143"
       x="3494.6177"
       y="1553.5052">scan rate: 50 mV / s</tspan></text>
  <g
     id="g19297"
     transform="translate(2441.5456,1.3801056)">
    <path
       style="fill:none;stroke:#000000;stroke-width:0.589642px;stroke-linecap:butt;stroke-linejoin:miter;stroke-opacity:1"
       d="M 784.60909,763.62906 589.20408,742.87832"
       id="path6688" />
    <text
       xml:space="preserve"
       style="font-size:85.3333px;line-height:1.25;font-family:sans-serif"
       x="517.53107"
       y="734.85114"
       id="text12608"><tspan
         sodipodi:role="line"
         id="tspan12606"
         x="517.53107"
         y="734.85114">j2: 300 uA / cm2</tspan></text>
  </g>
  <g
     id="g19302"
     transform="translate(2441.5456,1.3801056)">
    <path
       style="fill:none;stroke:#000000;stroke-width:1.85055px;stroke-linecap:butt;stroke-linejoin:miter;stroke-opacity:1"
       d="m 782.5011,1546.586 -215.13136,58.8063"
       id="path6690" />
    <text
       xml:space="preserve"
       style="font-size:85.3333px;line-height:1.25;font-family:sans-serif"
       x="554.30731"
       y="1664.3514"
       id="text16770"><tspan
         sodipodi:role="line"
         id="tspan16768"
         x="554.30731"
         y="1664.3514">j1: -250 uA / cm2</tspan></text>
  </g>
  <g
     id="g31146"
     transform="translate(2441.5456,1.3801056)">
    <path
       style="fill:none;stroke:#000000;stroke-width:1px;stroke-linecap:butt;stroke-linejoin:miter;stroke-opacity:1"
       d="m 906.00013,1616.4919 -16.60865,141.7175"
       id="path6692" />
    <text
       xml:space="preserve"
       style="font-size:85.3333px;line-height:1.25;font-family:sans-serif"
       x="871.05731"
       y="1795.0084"
       id="text21242"><tspan
         sodipodi:role="line"
         id="tspan21240"
         x="871.05731"
         y="1795.0084">E1: 0.1 V vs RHE </tspan></text>
  </g>
  <g
     id="g31141"
     transform="translate(2441.5456,1.3801056)">
    <path
       style="fill:none;stroke:#000000;stroke-width:1px;stroke-linecap:butt;stroke-linejoin:miter;stroke-opacity:1"
       d="m 1883.3202,1614.6666 16.6085,115.9458"
       id="path6694" />
    <text
       xml:space="preserve"
       style="font-size:85.3333px;line-height:1.25;font-family:sans-serif"
       x="1839.1025"
       y="1785.8185"
       id="text30000"><tspan
         sodipodi:role="line"
         id="tspan29998"
         x="1839.1025"
         y="1785.8185">E2: 0.9 V vs RHE</tspan></text>
  </g>
  <g
     id="g50246">
    <text
       xml:space="preserve"
       style="font-size:85.3333px;line-height:1.25;font-family:sans-serif"
       x="3012.6316"
       y="569.00348"
       id="text2755"><tspan
         sodipodi:role="line"
         id="tspan2753"
         x="3012.6316"
         y="569.00348">curve: red</tspan></text>
    <path
       style="fill:none;stroke:#000000;stroke-width:1px;stroke-linecap:butt;stroke-linejoin:miter;stroke-opacity:1"
       d="m 3298.2146,1249.616 1.9447,-48.8044 1.9446,-31.236 6.5203,-15.6228 13.0023,-7.8114 20.1708,-1.9456 27.9875,0.6453 25.3946,-3.9009 16.2435,-5.2108 20.8571,-9.757 13.6506,3.9009 6.5202,3.9105 h 14.947 l 16.9298,-8.4664 13.6505,-22.1243 8.4649,-27.9804 8.4649,-34.4915 5.872,-20.8237 6.4822,-6.5015 3.9274,6.5015 7.7785,25.3799 3.9274,19.5237 7.1684,27.3351 9.7613,27.9804 11.0578,20.169 17.5398,13.0126 20.209,5.2108 26.6529,3.2556 23.45,1.9456 13.0023,-1.3003 6.5203,-4.5559 2.5928,-14.9678 0.6483,-27.9804 v -38.3924 l 3.8892,-18.2234 1.9828,21.4789 2.5928,29.2807 1.2964,29.2808 1.9447,14.3225 4.5756,9.757 7.7785,9.7667 10.4095,4.5558 11.7441,2.6006 14.947,1.3003 16.9298,2.6006 17.5779,0.655 h 37.7488 42.2863 50.1029 64.4399 l 58.5677,0.6453 h 31.2286 l 11.7059,-4.5559 20.819,-0.6453 38.3971,0.6453 h 27.9874 l 27.3393,0.655 47.5018,0.655 24.7083,-0.655 4.5756,0.655 -2.5928,5.8561 -32.5631,0.6453 -100.2059,3.9009 h -43.5826 -31.9149 -41.6381 l -73.5148,-1.3003 -83.3142,-0.6453 -72.8666,1.9456 -37.1006,0.655 -28.6357,4.5559 -14.9851,5.8561 -11.706,9.757 -6.5202,16.2778 -3.8893,25.3702 -3.241,23.4342 -2.631,45.5489 -1.2964,-57.2612 -1.9446,-29.2903 -2.5929,-22.1243 -13.6506,-2.6006 -26.691,1.9553 -30.5804,3.9008 -22.1535,9.757 -18.1881,17.5781 -15.6333,30.5811 -14.9852,44.2485 -8.4267,26.0348 -6.5202,11.0574 -5.2239,-5.2012 -5.1856,-18.2234 -7.1685,-35.1369 -4.5375,-25.3798 -9.7613,-18.2234 -9.7613,-9.1118 -12.3923,-2.6005 -12.3541,1.9552 -11.0577,2.6006 -15.6334,-1.9553 -19.509,-5.8561 -23.45,-3.2555 h -22.7637 l -24.7083,1.9552 -13.0405,1.9553 z"
       id="path50161" />
  </g>
  <text
     xml:space="preserve"
     style="font-style:normal;font-variant:normal;font-weight:normal;font-stretch:normal;font-size:80px;line-height:1.25;font-family:sans-serif;-inkscape-font-specification:sans-serif;letter-spacing:0px;word-spacing:0px;fill:#000000;fill-opacity:1;stroke:none"
     x="-6221.438"
     y="324.02448"
     id="text837"><tspan
       sodipodi:role="line"
       id="tspan835"
       x="-6221.438"
       y="324.02448">comment: &quot;Working solutions of the pH-series with values lower than 3 were prepared by using HClO4 and KClO4. For pH values ranging from 3 to 9, phosphate buffer solutions were employed (Na2HPO4 and NaH2PO4). Alkaline solutions were prepared with NaOH and KClO4. The exact concentrations of these components are unkown.&quot;</tspan></text>
  <text
     xml:space="preserve"
     style="font-size:80px;line-height:1.25;font-family:sans-serif;-inkscape-font-specification:sans-serif;letter-spacing:0px;word-spacing:0px"
     x="3855.1223"
     y="861.61072"
     id="text2848"><tspan
       sodipodi:role="line"
       id="tspan2846"
       x="3855.1223"
       y="861.61072">Figure: 1c</tspan></text>
  <text
     xml:space="preserve"
     style="font-size:80px;line-height:1.25;font-family:sans-serif;-inkscape-font-specification:sans-serif;letter-spacing:0px;word-spacing:0px"
     x="3878.5498"
     y="989.16034"
     id="text3556"><tspan
       sodipodi:role="line"
       id="tspan3554"
       x="3878.5498"
       y="989.16034">Tags: BCV</tspan></text>
</svg>
