<?xml version="1.0" encoding="UTF-8" standalone="no"?>
<svg
   height="6820px"
   version="1.1"
   width="5212px"
   id="svg53"
   sodipodi:docname="mello_2018_bromide_18562_p1_1_ph11,5_red.svg"
   inkscape:version="1.1.1 (eb90963e84, 2021-10-02)"
   xmlns:inkscape="http://www.inkscape.org/namespaces/inkscape"
   xmlns:sodipodi="http://sodipodi.sourceforge.net/DTD/sodipodi-0.dtd"
   xmlns:xlink="http://www.w3.org/1999/xlink"
   xmlns="http://www.w3.org/2000/svg"
   xmlns:svg="http://www.w3.org/2000/svg">
  <sodipodi:namedview
     id="namedview55"
     pagecolor="#ffffff"
     bordercolor="#666666"
     borderopacity="1.0"
     inkscape:pageshadow="2"
     inkscape:pageopacity="0.0"
     inkscape:pagecheckerboard="0"
     showgrid="false"
     inkscape:zoom="0.54329025"
     inkscape:cx="3717.1659"
     inkscape:cy="2986.4331"
     inkscape:window-width="1848"
     inkscape:window-height="906"
     inkscape:window-x="72"
     inkscape:window-y="27"
     inkscape:window-maximized="1"
     inkscape:current-layer="svg53" />
  <defs
     id="defs49" />
  <image
     height="6820px"
     sodipodi:insensitive="true"
     width="5212px"
     x="0"
     xlink:href="mello_2018_bromide_18562_p1.png"
     y="0"
     id="image51" />
  <text
     xml:space="preserve"
     style="font-size:85.3333px;line-height:1.25;font-family:sans-serif"
     x="3251.4849"
     y="3275.1816"
     id="text4145"><tspan
       sodipodi:role="line"
       id="tspan4143"
       x="3251.4849"
       y="3275.1816">scan rate: 50 mV/s</tspan></text>
  <g
     id="g31146"
     transform="translate(2442.9091,1712.569)">
    <path
       style="fill:none;stroke:#000000;stroke-width:1px;stroke-linecap:butt;stroke-linejoin:miter;stroke-opacity:1"
       d="m 906.00013,1616.4919 -16.60865,141.7175"
       id="path6692" />
    <text
       xml:space="preserve"
       style="font-size:85.3333px;line-height:1.25;font-family:sans-serif"
       x="871.05731"
       y="1795.0084"
       id="text21242"><tspan
         sodipodi:role="line"
         id="tspan21240"
         x="871.05731"
         y="1795.0084">x1: 0.1 V vs RHE </tspan></text>
  </g>
  <g
     id="g31141"
     transform="translate(2442.9091,1712.569)">
    <path
       style="fill:none;stroke:#000000;stroke-width:1px;stroke-linecap:butt;stroke-linejoin:miter;stroke-opacity:1"
       d="m 1883.3202,1614.6666 16.6085,115.9458"
       id="path6694" />
    <text
       xml:space="preserve"
       style="font-size:85.3333px;line-height:1.25;font-family:sans-serif"
       x="1839.1025"
       y="1785.8185"
       id="text30000"><tspan
         sodipodi:role="line"
         id="tspan29998"
         x="1839.1025"
         y="1785.8185">x2: 0.9 V vs RHE</tspan></text>
  </g>
  <g
     id="g77637"
     transform="translate(2442.4267,0.044198)">
    <path
       style="fill:none;stroke:#000000;stroke-width:1px;stroke-linecap:butt;stroke-linejoin:miter;stroke-opacity:1"
       d="m 784.50282,2540.5039 -220.87303,46.0132"
       id="path73014" />
    <text
       xml:space="preserve"
       style="font-size:85.3333px;line-height:1.25;font-family:sans-serif"
       x="96.493675"
       y="2644.0198"
       id="text74890"><tspan
         sodipodi:role="line"
         id="tspan74888"
         x="96.493675"
         y="2644.0198">y2: 75 uA/cm2</tspan></text>
  </g>
  <g
     id="g77642"
     transform="translate(2442.4267,0.044198)">
    <path
       style="fill:none;stroke:#000000;stroke-width:1px;stroke-linecap:butt;stroke-linejoin:miter;stroke-opacity:1"
       d="m 784.50282,3252.7966 -266.9242,-46.0133"
       id="path73016" />
    <text
       xml:space="preserve"
       style="font-size:85.3333px;line-height:1.25;font-family:sans-serif"
       x="125.82837"
       y="3196.1787"
       id="text76376"><tspan
         sodipodi:role="line"
         id="tspan76374"
         x="125.82837"
         y="3196.1787">y1: -75 uA/cm2</tspan></text>
  </g>
  <g
     id="g90522">
    <text
       xml:space="preserve"
       style="font-size:85.3333px;line-height:1.25;font-family:sans-serif"
       x="3116.3232"
       y="2451.9146"
       id="text2755"><tspan
         sodipodi:role="line"
         id="tspan2753"
         x="3116.3232"
         y="2451.9146">curve: Pt(111)_ph_11,5_KPF6_KBr </tspan></text>
    <path
       style="fill:none;stroke:#000000;stroke-width:1px;stroke-linecap:butt;stroke-linejoin:miter;stroke-opacity:1"
       d="m 3301.3848,3057.4952 0.9167,-114.1069 5.5003,-102.1608 10.1377,-51.53 6.4169,-18.4025 21.1922,-10.1344 36.8301,-8.2818 47.8307,-3.6778 h 37.7469 l 34.0261,2.7651 19.3587,-0.9262 10.0838,-1.8389 17.5253,10.1207 26.6925,22.094 30.3592,20.2415 17.4714,11.0469 7.3876,6.443 11.0006,1.8389 8.3042,6.443 13.8046,12.8858 23.9423,24.8456 14.7213,6.4429 27.6091,4.604 42.3304,3.6778 h 40.497 42.3304 l 55.2182,-8.2818 46.914,-17.4899 41.4137,-32.2148 35.9134,-35.8789 28.5259,-47.8657 26.6924,-55.2078 26.6924,-70.8723 18.3881,-53.3689 7.3337,-23.9328 4.6375,-9.1945 7.3336,2.7515 7.3876,19.3288 16.5547,57.0603 13.8046,66.2547 12.8878,73.6239 6.417,30.3758 11.0545,33.1274 16.5547,23.0066 8.3043,10.1208 9.2209,9.2081 -1.8333,72.6976 -18.4421,15.6511 -12.8878,16.5637 -18.3882,39.5702 -9.2209,47.8522 -12.8879,64.4294 -6.417,25.7582 -18.3881,70.8758 -9.221,27.6107 -13.8046,32.2011 -11.9712,-44.1744 -11.0543,-37.7314 -23.8884,-71.785 -19.3587,-47.8521 -26.6925,-56.1341 -28.5259,-38.6576 -30.3592,-28.5233 -34.9967,-24.8455 -45.9973,-9.2081 -53.3848,-3.6778 -80.0233,2.7651 -44.2178,0.9127 -54.3015,10.1207 -20.2216,7.3692 -13.8045,5.5167 -12.8879,17.4899 -11.0544,8.2819 -18.3881,3.6778 -21.1922,18.4026 -33.1094,34.0535 -38.6635,41.4092 -33.1094,14.7249 -19.3588,4.604 -21.1382,-2.7516 -28.5258,-11.0469 -33.1634,-2.7652 -45.0805,2.7652 z"
       id="path90437" />
  </g>
</svg>
