<?xml version="1.0" encoding="UTF-8" standalone="no"?>
<svg
   height="6820px"
   version="1.1"
   width="5212px"
   id="svg53"
   sodipodi:docname="mello_2018_bromide_18562_p1_1_ph5,4_black.svg"
   inkscape:version="1.1.1 (eb90963e84, 2021-10-02)"
   xmlns:inkscape="http://www.inkscape.org/namespaces/inkscape"
   xmlns:sodipodi="http://sodipodi.sourceforge.net/DTD/sodipodi-0.dtd"
   xmlns:xlink="http://www.w3.org/1999/xlink"
   xmlns="http://www.w3.org/2000/svg"
   xmlns:svg="http://www.w3.org/2000/svg">
  <sodipodi:namedview
     id="namedview55"
     pagecolor="#ffffff"
     bordercolor="#666666"
     borderopacity="1.0"
     inkscape:pageshadow="2"
     inkscape:pageopacity="0.0"
     inkscape:pagecheckerboard="0"
     showgrid="false"
     inkscape:zoom="0.54329025"
     inkscape:cx="2487.6206"
     inkscape:cy="2038.5052"
     inkscape:window-width="1848"
     inkscape:window-height="906"
     inkscape:window-x="72"
     inkscape:window-y="27"
     inkscape:window-maximized="1"
     inkscape:current-layer="svg53" />
  <defs
     id="defs49" />
  <image
     height="6820px"
     sodipodi:insensitive="true"
     width="5212px"
     x="0"
     xlink:href="mello_2018_bromide_18562_p1.png"
     y="0"
     id="image51" />
  <text
     xml:space="preserve"
     style="font-size:85.3333px;line-height:1.25;font-family:sans-serif"
     x="2209.7708"
     y="2483.9087"
     id="text4145"><tspan
       sodipodi:role="line"
       id="tspan4143"
       x="2209.7708"
       y="2483.9087">scan rate: 50 mV / s</tspan></text>
  <g
     id="g31146"
     transform="translate(1221.2243,856.09046)">
    <path
       style="fill:none;stroke:#000000;stroke-width:1px;stroke-linecap:butt;stroke-linejoin:miter;stroke-opacity:1"
       d="m 906.00013,1616.4919 -16.60865,141.7175"
       id="path6692" />
    <text
       xml:space="preserve"
       style="font-size:85.3333px;line-height:1.25;font-family:sans-serif"
       x="871.05731"
       y="1795.0084"
       id="text21242"><tspan
         sodipodi:role="line"
         id="tspan21240"
         x="871.05731"
         y="1795.0084">x1: 0.1 V vs RHE </tspan></text>
  </g>
  <g
     id="g31141"
     transform="translate(1221.2243,856.09046)">
    <path
       style="fill:none;stroke:#000000;stroke-width:1px;stroke-linecap:butt;stroke-linejoin:miter;stroke-opacity:1"
       d="m 1883.3202,1614.6666 16.6085,115.9458"
       id="path6694" />
    <text
       xml:space="preserve"
       style="font-size:85.3333px;line-height:1.25;font-family:sans-serif"
       x="1839.1025"
       y="1785.8185"
       id="text30000"><tspan
         sodipodi:role="line"
         id="tspan29998"
         x="1839.1025"
         y="1785.8185">x2: 0.9 V vs RHE</tspan></text>
  </g>
  <g
     id="g58304"
     transform="translate(1221.5177,-0.79291)">
    <path
       style="fill:none;stroke:#000000;stroke-width:1px;stroke-linecap:butt;stroke-linejoin:miter;stroke-opacity:1"
       d="m 784.45615,1655.1705 -248.4822,53.3688"
       id="path50528" />
    <text
       xml:space="preserve"
       style="font-size:85.3333px;line-height:1.25;font-family:sans-serif"
       x="78.653824"
       y="1783.2854"
       id="text52668"><tspan
         sodipodi:role="line"
         id="tspan52666"
         x="78.653824"
         y="1783.2854">y2: 100 uA / cm2</tspan></text>
  </g>
  <g
     id="g58309"
     transform="translate(1221.5177,-0.79291)">
    <path
       style="fill:none;stroke:#000000;stroke-width:1px;stroke-linecap:butt;stroke-linejoin:miter;stroke-opacity:1"
       d="M 784.45615,2431.8926 486.36382,2402.4431"
       id="path50530" />
    <text
       xml:space="preserve"
       style="font-size:85.3333px;line-height:1.25;font-family:sans-serif"
       x="118.77303"
       y="2383.8906"
       id="text54970"><tspan
         sodipodi:role="line"
         id="tspan54968"
         x="118.77303"
         y="2383.8906">y1: -100 uA / cm2</tspan></text>
  </g>
  <g
     id="g67164">
    <text
       xml:space="preserve"
       style="font-size:85.3333px;line-height:1.25;font-family:sans-serif"
       x="2020.1594"
       y="1579.8883"
       id="text2755"><tspan
         sodipodi:role="line"
         id="tspan2753"
         x="2020.1594"
         y="1579.8883">curve: Pt(111)_ph_5,4_KPF6</tspan></text>
    <path
       style="fill:none;stroke:#000000;stroke-width:1px;stroke-linecap:butt;stroke-linejoin:miter;stroke-opacity:1"
       d="m 2076.423,2195.1619 1.8334,-88.3487 1.8334,-83.7446 -0.9167,-32.2148 3.7208,-20.2414 6.4169,-17.49 11.0545,-14.7248 11.9711,-3.6778 h 22.055 l 28.5258,-2.7651 21.1922,-5.5167 11.9711,-9.2081 4.5836,-6.443 9.221,0.9263 11.0544,7.3692 22.9717,5.5167 12.8878,1.8389 49.718,11.047 26.6925,10.1207 26.6924,7.3556 8.2504,-1.8389 8.3043,-11.0334 3.6668,-15.651 2.7502,-6.443 2.7501,10.1208 2.804,19.3288 1.8335,17.49 11.0544,19.3288 22.9716,18.4026 19.3588,11.0333 22.0549,8.2955 32.2466,5.5167 24.8051,-6.4429 15.638,-20.2415 20.2755,-51.5436 17.4713,-33.1274 14.7213,-20.2414 19.3588,-8.2818 3.6668,-8.2955 4.5836,-23.9193 4.6374,-32.2147 1.8334,14.7248 4.5836,37.7314 2.7501,17.4899 3.7208,24.8455 6.417,16.5637 6.4169,13.8122 7.3876,8.2818 14.7213,1.8389 9.221,6.443 5.5003,12.8859 3.6668,10.1207 13.8045,-15.6511 11.0545,-18.4025 9.2211,-18.4026 5.5002,-22.094 7.3876,-26.6844 3.6668,-11.047 3.6669,10.1207 1.8334,15.6511 5.5542,44.1743 1.8334,21.1678 3.6668,7.3555 16.5547,11.9733 25.7757,12.8859 29.4425,11.9596 30.4132,7.3556 39.5264,6.443 40.4969,4.604 43.2471,0.9262 33.1634,0.9127 28.5258,-0.9127 v 14.7249 h -13.8045 l -44.1638,1.8388 h -46.968 l -19.3047,2.7516 -12.8879,1.8525 -22.1088,7.3555 -19.3049,6.443 h -25.7757 l -20.2215,4.6041 -23.0256,10.1207 -36.8301,19.3288 -39.5264,24.8455 -14.7752,7.3556 -7.3337,8.2819 -3.6668,13.8121 -5.5542,27.6107 -7.3337,-17.4899 -3.7207,-28.5233 -6.417,-15.6511 -6.4169,-7.3556 h -9.2211 l -13.8045,8.2818 -10.1378,15.6375 -11.0544,25.7718 -5.5003,30.3622 -9.221,69.0334 -5.5002,43.2481 -4.5836,-54.295 -1.8874,-57.9865 -4.5835,-12.8723 -13.8046,-12.8859 -13.8045,-23.9329 -17.4714,-34.0536 -19.3588,-25.7582 -26.6385,-18.4162 -28.5797,-2.7515 -27.6091,5.5167 -34.9429,20.2415 -16.5546,16.5773 -9.2211,18.4025 -2.7501,18.4026 -3.6668,12.8859 -7.3876,-5.5167 -8.2504,-11.0469 -11.0545,-4.6041 -11.0544,2.7652 -34.9967,11.9595 -35.8596,8.2819 -38.6635,7.3692 -23.9423,6.4293 -8.2504,7.3692 -15.638,-9.2081 -21.1921,-9.1944 -23.0256,-0.9263 -25.7218,2.7652 -11.9712,4.604 -8.3043,10.1207 z"
       id="path67079" />
  </g>
</svg>
