<?xml version="1.0" encoding="UTF-8" standalone="no"?>
<svg
   height="6526px"
   version="1.1"
   width="4875px"
   id="svg106"
   sodipodi:docname="mello_2018_understanding_J3045_f1F_black.svg"
   inkscape:version="1.1.1 (eb90963e84, 2021-10-02)"
   xmlns:inkscape="http://www.inkscape.org/namespaces/inkscape"
   xmlns:sodipodi="http://sodipodi.sourceforge.net/DTD/sodipodi-0.dtd"
   xmlns:xlink="http://www.w3.org/1999/xlink"
   xmlns="http://www.w3.org/2000/svg"
   xmlns:svg="http://www.w3.org/2000/svg">
  <sodipodi:namedview
     id="namedview108"
     pagecolor="#ffffff"
     bordercolor="#666666"
     borderopacity="1.0"
     inkscape:pageshadow="2"
     inkscape:pageopacity="0.0"
     inkscape:pagecheckerboard="0"
     showgrid="false"
     inkscape:zoom="0.56083124"
     inkscape:cx="2898.3763"
     inkscape:cy="4963.1686"
     inkscape:window-width="1848"
     inkscape:window-height="898"
     inkscape:window-x="72"
     inkscape:window-y="27"
     inkscape:window-maximized="1"
     inkscape:current-layer="svg106" />
  <defs
     id="defs102" />
  <image
     height="6526px"
     sodipodi:insensitive="true"
     width="4875px"
     x="0"
     xlink:href="mello_2018_understanding_J3045_p1.png"
     y="0"
     id="image104" />
  <g
     id="g12819"
     transform="translate(1200.6907,1190.2939)">
    <path
       style="fill:none;stroke:#000000;stroke-width:1px;stroke-linecap:butt;stroke-linejoin:miter;stroke-opacity:1"
       d="m 1232.4786,3532.6633 -162.2497,-49.9122"
       id="path223" />
    <text
       xml:space="preserve"
       style="font-size:85.3333px;line-height:1.25;font-family:sans-serif"
       x="591.50183"
       y="3450.0566"
       id="text2367"><tspan
         sodipodi:role="line"
         id="tspan2365"
         x="591.50183"
         y="3450.0566">y2: 200 uA / cm2</tspan></text>
  </g>
  <g
     id="g12814"
     transform="translate(1212.2997,1142.092)">
    <path
       style="fill:none;stroke:#000000;stroke-width:1px;stroke-linecap:butt;stroke-linejoin:miter;stroke-opacity:1"
       d="m 1232.4786,4049.7405 -221.0692,37.4538"
       id="path225" />
    <text
       xml:space="preserve"
       style="font-size:85.3333px;line-height:1.25;font-family:sans-serif"
       x="471.95712"
       y="4179.2319"
       id="text6877"><tspan
         sodipodi:role="line"
         id="tspan6875"
         x="471.95712"
         y="4179.2319">y1: -200 uA / cm2</tspan></text>
  </g>
  <g
     id="g12824"
     transform="translate(1215.2762,1167.7503)">
    <path
       style="fill:none;stroke:#000000;stroke-width:1px;stroke-linecap:butt;stroke-linejoin:miter;stroke-opacity:1"
       d="m 1353.7671,4081.8288 -1.8806,92.7316"
       id="path227" />
    <text
       xml:space="preserve"
       style="font-size:85.3333px;line-height:1.25;font-family:sans-serif"
       x="1328.7976"
       y="4229.812"
       id="text8987"><tspan
         sodipodi:role="line"
         id="tspan8985"
         x="1328.7976"
         y="4229.812">x1: 0.1 V vs RHE</tspan></text>
  </g>
  <g
     id="g12829"
     transform="translate(1215.2762,1167.7503)">
    <path
       style="fill:none;stroke:#000000;stroke-width:1px;stroke-linecap:butt;stroke-linejoin:miter;stroke-opacity:1"
       d="m 2321.9372,4081.8288 -94.55,133.7187"
       id="path229" />
    <text
       xml:space="preserve"
       style="font-size:85.3333px;line-height:1.25;font-family:sans-serif"
       x="2227.3872"
       y="4256.561"
       id="text11553"><tspan
         sodipodi:role="line"
         id="tspan11551"
         x="2227.3872"
         y="4256.561">x2: 0.9 V vs RHE</tspan></text>
  </g>
  <text
     xml:space="preserve"
     style="font-size:85.3333px;line-height:1.25;font-family:sans-serif"
     x="2803.2461"
     y="5202.6099"
     id="text25387"><tspan
       sodipodi:role="line"
       id="tspan25385"
       x="2803.2461"
       y="5202.6099">scan rate: 50 mV / s</tspan></text>
  <g
     id="g93787">
    <text
       xml:space="preserve"
       style="font-size:85.3333px;line-height:1.25;font-family:sans-serif"
       x="2585.2153"
       y="4644.6562"
       id="text15141"><tspan
         sodipodi:role="line"
         x="2585.2153"
         y="4644.6562"
         id="tspan68527">curve: Pt_(111)_F_black</tspan></text>
    <path
       style="fill:none;stroke:#000000;stroke-width:1px;stroke-linecap:butt;stroke-linejoin:miter;stroke-opacity:1"
       d="m 2494.6841,5019.5336 v -38.3306 l 2.6641,-24.9692 5.3805,-16.0442 23.1934,-16.0441 18.7011,-1.7798 36.5662,-2.6827 54.3793,-0.8899 h 56.1553 l 37.4543,0.8899 33.8499,1.7928 22.3054,3.5596 14.2609,2.6696 34.7901,7.1322 23.1413,7.1322 19.6412,3.5727 23.1413,4.4494 27.6859,2.6827 52.5509,-1.7797 h 41.9467 l 42.7826,-2.6828 29.4097,-0.8899 32.9618,-0.8898 25.8575,-0.8899 44.0612,-4.8777 29.6239,-6.3017 28.9959,-7.5695 32.1357,-6.3017 18.284,-3.7847 16.4002,0.6292 h 22.0517 l 18.912,1.2678 14.5164,-1.2678 11.9678,-3.1462 9.456,-5.6725 7.5722,-8.8279 4.3956,-8.828 4.4325,-1.2585 4.3955,11.345 4.4325,12.6127 7.5723,15.7589 11.9677,8.8187 16.4002,5.6817 23.9355,2.5169 22.7166,1.2585 25.1914,0.6293 -1.2559,9.4572 -21.4238,1.897 -24.6004,2.5169 -21.4237,1.8878 -11.3398,2.5262 -11.3398,3.1555 -10.7488,6.3017 -6.2794,7.5602 -8.8281,18.2852 -6.3163,13.2326 -3.1397,8.828 h -3.1396 l -6.3163,-17.6467 -8.2002,-8.8279 -13.2236,-4.414 -17.0282,-0.6292 -31.5446,1.2585 -18.8751,-0.6293 h -13.2605 l -18.2841,-3.7847 -33.3915,-7.5602 -28.368,-6.3017 -27.1121,-5.6725 -24.6004,-2.5262 -19.5399,-1.8877 -24.5635,-0.6293 -21.4607,0.6293 -30.2518,-1.897 h -34.0194 l -25.2283,-1.8878 -44.1403,-1.8877 -28.996,-0.6385 -23.3075,0.6385 -20.7958,3.1462 -31.5446,5.6724 -40.3602,9.4573 -25.8193,6.3017 -27.7401,3.1555 -32.8005,3.7847 -35.9402,3.1462 -43.4754,2.5262 -27.7401,-1.2584 -31.5076,-1.2678 -24.6004,-0.6292 h -22.0517 l -17.0282,3.1554 -12.5957,3.7848 -10.7118,7.5602 -5.0605,5.0432 z"
       id="path93650" />
  </g>
</svg>
