<?xml version="1.0" encoding="UTF-8" standalone="no"?>
<svg
   height="6526px"
   version="1.1"
   width="4875px"
   id="svg106"
   sodipodi:docname="mello_2018_understanding_J3045_p1_f1B_red.svg"
   inkscape:version="1.1.1 (eb90963e84, 2021-10-02)"
   xmlns:inkscape="http://www.inkscape.org/namespaces/inkscape"
   xmlns:sodipodi="http://sodipodi.sourceforge.net/DTD/sodipodi-0.dtd"
   xmlns:xlink="http://www.w3.org/1999/xlink"
   xmlns="http://www.w3.org/2000/svg"
   xmlns:svg="http://www.w3.org/2000/svg">
  <sodipodi:namedview
     id="namedview108"
     pagecolor="#ffffff"
     bordercolor="#666666"
     borderopacity="1.0"
     inkscape:pageshadow="2"
     inkscape:pageopacity="0.0"
     inkscape:pagecheckerboard="0"
     showgrid="false"
     inkscape:zoom="0.39656758"
     inkscape:cx="2356.471"
     inkscape:cy="3972.8412"
     inkscape:window-width="1848"
     inkscape:window-height="898"
     inkscape:window-x="72"
     inkscape:window-y="27"
     inkscape:window-maximized="1"
     inkscape:current-layer="svg106" />
  <defs
     id="defs102" />
  <image
     height="6526px"
     sodipodi:insensitive="true"
     width="4875px"
     x="0"
     xlink:href="mello_2018_understanding_J3045_p1.png"
     y="0"
     id="image104" />
  <g
     id="g12819"
     transform="translate(1213.2244,4.237986)">
    <path
       style="fill:none;stroke:#000000;stroke-width:1px;stroke-linecap:butt;stroke-linejoin:miter;stroke-opacity:1"
       d="m 1232.4786,3532.6633 -162.2497,-49.9122"
       id="path223" />
    <text
       xml:space="preserve"
       style="font-size:85.3333px;line-height:1.25;font-family:sans-serif"
       x="591.50183"
       y="3450.0566"
       id="text2367"><tspan
         sodipodi:role="line"
         id="tspan2365"
         x="591.50183"
         y="3450.0566">j2: 400 uA / cm2</tspan></text>
  </g>
  <g
     id="g12814"
     transform="translate(1213.2244,4.237986)">
    <path
       style="fill:none;stroke:#000000;stroke-width:1px;stroke-linecap:butt;stroke-linejoin:miter;stroke-opacity:1"
       d="m 1232.4786,4049.7405 -221.0692,37.4538"
       id="path225" />
    <text
       xml:space="preserve"
       style="font-size:85.3333px;line-height:1.25;font-family:sans-serif"
       x="471.95712"
       y="4179.2319"
       id="text6877"><tspan
         sodipodi:role="line"
         id="tspan6875"
         x="471.95712"
         y="4179.2319">j1: -400 uA / cm2</tspan></text>
  </g>
  <g
     id="g12824"
     transform="translate(1213.2244,4.237986)">
    <path
       style="fill:none;stroke:#000000;stroke-width:1px;stroke-linecap:butt;stroke-linejoin:miter;stroke-opacity:1"
       d="m 1353.7671,4081.8288 -1.8806,92.7316"
       id="path227" />
    <text
       xml:space="preserve"
       style="font-size:85.3333px;line-height:1.25;font-family:sans-serif"
       x="1328.7976"
       y="4229.812"
       id="text8987"><tspan
         sodipodi:role="line"
         id="tspan8985"
         x="1328.7976"
         y="4229.812">E1: 0.1 V vs RHE</tspan></text>
  </g>
  <g
     id="g12829"
     transform="translate(1213.2244,4.237986)">
    <path
       style="fill:none;stroke:#000000;stroke-width:1px;stroke-linecap:butt;stroke-linejoin:miter;stroke-opacity:1"
       d="m 2321.9372,4081.8288 -94.55,133.7187"
       id="path229" />
    <text
       xml:space="preserve"
       style="font-size:85.3333px;line-height:1.25;font-family:sans-serif"
       x="2227.3872"
       y="4256.561"
       id="text11553"><tspan
         sodipodi:role="line"
         id="tspan11551"
         x="2227.3872"
         y="4256.561">E2: 0.9 V vs RHE</tspan></text>
  </g>
  <text
     xml:space="preserve"
     style="font-size:85.3333px;line-height:1.25;font-family:sans-serif"
     x="2778.9761"
     y="4051.6394"
     id="text25387"><tspan
       sodipodi:role="line"
       id="tspan25385"
       x="2778.9761"
       y="4051.6394">scan rate: 50 mV / s</tspan></text>
  <g
     id="g52257">
    <text
       xml:space="preserve"
       style="font-size:85.3333px;line-height:1.25;font-family:sans-serif"
       x="2517.8291"
       y="3221.7373"
       id="text15141"><tspan
         sodipodi:role="line"
         x="2517.8291"
         y="3221.7373"
         id="tspan51906">curve: Pt_(111)_B_red</tspan></text>
    <path
       style="fill:none;stroke:#000000;stroke-width:1px;stroke-linecap:butt;stroke-linejoin:miter;stroke-opacity:1"
       d="m 2512.2535,3826.9715 0.9419,-23.9529 1.2558,-17.0221 2.2163,-9.1425 5.3559,-3.7801 9.456,-1.5778 17.3237,-1.2585 h 16.7142 l 13.2421,-3.4654 15.1259,-2.8409 15.7539,-2.8362 10.7303,0.3146 h 12.5957 l 13.87,-5.0432 12.9282,-12.9227 10.0839,-16.3882 9.142,-12.9226 7.2398,-6.621 h 7.5722 l 9.142,8.828 9.456,13.5519 11.0258,15.1296 10.084,11.345 9.142,7.884 20.8143,11.6596 14.498,2.5216 16.3817,1.8924 14.812,0.6292 11.3583,-1.2585 9.4559,-2.207 6.6119,-2.207 12.3002,2.5217 9.7699,3.4654 12.5957,3.7848 17.0282,2.8362 150.4131,1.0173 491.712,-2.5262 0.6279,5.0432 -21.4238,0.6385 -573.6762,0.6292 -29.6239,1.2585 -15.1074,0.6293 -30.9828,0.5571 -26.1518,2.207 -24.2679,2.207 -11.0258,3.4701 -9.456,5.6725 -5.6884,4.4139 -5.3559,1.8878 -3.1397,-3.7801 -2.5302,-5.0433 -5.356,-2.5216 -12.3002,-0.3146 -14.8119,2.8362 -11.0258,3.7801 -11.6723,8.1941 -11.9678,15.4489 -8.514,15.4443 -11.3399,25.8453 -5.6698,17.9659 -3.7861,11.345 -3.7861,7.8794 -3.4722,1.5778 -5.0419,-5.9871 -4.1001,-14.5004 -4.414,-21.7507 -6.2979,-20.1728 -7.5722,-17.0174 -9.7699,-9.1426 -12.2817,-3.7801 -15.7724,2.207 -7.2397,0.6292 -9.77,-1.5777 -9.142,-3.1509 -14.184,-3.7847 -8.8281,-0.3146 -14.184,1.5777 -12.9281,2.8363 -7.5537,2.8362 z"
       id="path50992" />
  </g>
</svg>
