<?xml version="1.0" encoding="UTF-8" standalone="no"?>
<svg
   height="6526px"
   version="1.1"
   width="4875px"
   id="svg106"
   sodipodi:docname="mello_2018_understanding_J3045_p1_H_black.svg"
   inkscape:version="1.1.1 (eb90963e84, 2021-10-02)"
   xmlns:inkscape="http://www.inkscape.org/namespaces/inkscape"
   xmlns:sodipodi="http://sodipodi.sourceforge.net/DTD/sodipodi-0.dtd"
   xmlns:xlink="http://www.w3.org/1999/xlink"
   xmlns="http://www.w3.org/2000/svg"
   xmlns:svg="http://www.w3.org/2000/svg">
  <sodipodi:namedview
     id="namedview108"
     pagecolor="#ffffff"
     bordercolor="#666666"
     borderopacity="1.0"
     inkscape:pageshadow="2"
     inkscape:pageopacity="0.0"
     inkscape:pagecheckerboard="0"
     showgrid="false"
     inkscape:zoom="0.56083124"
     inkscape:cx="2787.8262"
     inkscape:cy="5531.9672"
     inkscape:window-width="1848"
     inkscape:window-height="898"
     inkscape:window-x="72"
     inkscape:window-y="27"
     inkscape:window-maximized="1"
     inkscape:current-layer="svg106" />
  <defs
     id="defs102" />
  <image
     height="6526px"
     sodipodi:insensitive="true"
     width="4875px"
     x="0"
     xlink:href="mello_2018_understanding_J3045_p1.png"
     y="0"
     id="image104" />
  <g
     id="g12819"
     transform="translate(1201.2499,1761.511)">
    <path
       style="fill:none;stroke:#000000;stroke-width:1px;stroke-linecap:butt;stroke-linejoin:miter;stroke-opacity:1"
       d="m 1232.4786,3532.6633 -162.2497,-49.9122"
       id="path223" />
    <text
       xml:space="preserve"
       style="font-size:85.3333px;line-height:1.25;font-family:sans-serif"
       x="591.50183"
       y="3450.0566"
       id="text2367"><tspan
         sodipodi:role="line"
         id="tspan2365"
         x="591.50183"
         y="3450.0566">y2: 100 uA/cm2</tspan></text>
  </g>
  <g
     id="g1037">
    <path
       style="fill:none;stroke:#000000;stroke-width:1px;stroke-linecap:butt;stroke-linejoin:miter;stroke-opacity:1"
       d="m 2444.0817,5783.241 -221.0692,37.4538"
       id="path225" />
    <text
       xml:space="preserve"
       style="font-size:85.3333px;line-height:1.25;font-family:sans-serif"
       x="1683.5602"
       y="5912.7324"
       id="text6877"><tspan
         sodipodi:role="line"
         id="tspan6875"
         x="1683.5602"
         y="5912.7324">y1: -100 uA/cm2</tspan></text>
  </g>
  <g
     id="g12824"
     transform="translate(1213.3237,1749.0723)">
    <path
       style="fill:none;stroke:#000000;stroke-width:1px;stroke-linecap:butt;stroke-linejoin:miter;stroke-opacity:1"
       d="m 1353.7671,4081.8288 -1.8806,92.7316"
       id="path227" />
    <text
       xml:space="preserve"
       style="font-size:85.3333px;line-height:1.25;font-family:sans-serif"
       x="1328.7976"
       y="4229.812"
       id="text8987"><tspan
         sodipodi:role="line"
         id="tspan8985"
         x="1328.7976"
         y="4229.812">x1: 0.1 V vs RHE</tspan></text>
  </g>
  <g
     id="g12829"
     transform="translate(1213.3237,1749.0723)">
    <path
       style="fill:none;stroke:#000000;stroke-width:1px;stroke-linecap:butt;stroke-linejoin:miter;stroke-opacity:1"
       d="m 2321.9372,4081.8288 -94.55,133.7187"
       id="path229" />
    <text
       xml:space="preserve"
       style="font-size:85.3333px;line-height:1.25;font-family:sans-serif"
       x="2227.3872"
       y="4256.561"
       id="text11553"><tspan
         sodipodi:role="line"
         id="tspan11551"
         x="2227.3872"
         y="4256.561">x2: 0.9 V vs RHE</tspan></text>
  </g>
  <text
     xml:space="preserve"
     style="font-size:85.3333px;line-height:1.25;font-family:sans-serif"
     x="2787.8799"
     y="5805.2788"
     id="text25387"><tspan
       sodipodi:role="line"
       id="tspan25385"
       x="2787.8799"
       y="5805.2788">scan rate: 50 mV/s</tspan></text>
  <g
     id="g123261">
    <text
       xml:space="preserve"
       style="font-size:85.3333px;line-height:1.25;font-family:sans-serif"
       x="2529.6614"
       y="5204.4629"
       id="text15141"><tspan
         sodipodi:role="line"
         x="2529.6614"
         y="5204.4629"
         id="tspan68527">curve: Pt_(111)_H_black</tspan></text>
    <path
       style="fill:none;stroke:#000000;stroke-width:1px;stroke-linecap:butt;stroke-linejoin:miter;stroke-opacity:1"
       d="m 2517.3361,5652.4231 v -47.2492 l 0.8881,-53.0464 v -37.4473 l 4.4663,-16.4891 8.4625,-17.3855 12.4847,-8.0221 16.0369,-5.3524 32.544,-3.1146 45.0287,-1.7863 32.1,0.4449 26.3016,1.3414 25.4135,2.2247 26.2755,6.2423 21.8614,8.467 32.0738,11.1433 24.9696,10.6983 21.8352,7.1321 16.0631,6.2424 10.6825,0.8898 h 11.1528 l 11.1527,5.3524 16.4809,4.901 16.9511,2.2312 20.9472,0.8899 48.5809,1.3349 47.6928,-0.445 47.2489,-0.8899 73.5836,-4.9009 34.3201,-3.5661 23.6113,-8.0286 21.8353,-15.1543 18.7272,-16.0441 20.0592,-17.3856 19.1711,-12.0331 27.1897,-8.4735 17.8391,-2.2248 19.6152,0.8899 20.5032,6.2423 21.3912,6.6807 20.9473,12.0397 20.9472,15.5992 18.7272,12.0331 12.4848,4.4625 13.8168,4.456 10.7087,1.3348 23.6113,2.6763 0.444,15.1542 -1.3321,21.8415 -7.5744,3.5661 -15.619,5.7974 -17.369,6.2423 -19.6152,6.6807 -12.9287,8.4735 -15.5929,12.923 -15.175,11.1433 -19.1451,10.2533 -26.3016,7.5771 -25.4135,5.3525 -19.6152,1.7797 -20.0592,-4.4559 -20.9472,-9.357 -25.4136,-18.2754 -23.1673,-18.7269 -20.0592,-13.3679 -23.1935,-9.3635 -20.0592,-2.6762 -25.87,-1.3355 -31.6298,-1.3349 -15.175,1.7798 -21.8352,-0.8899 -44.5848,-3.5661 h -32.5178 l -50.8271,0.4449 h -32.988 l -24.5255,2.6763 -12.0146,1.7797 -30.3273,9.3635 -36.5401,11.5882 -35.6782,14.7093 -45.4467,16.0507 -24.9695,5.3458 -26.3016,5.7974 -26.3016,3.1212 -30.3239,3.566 -17.8129,0.445 -27.6337,0.8899 -25.8576,-0.445 -13.3728,3.5661 -9.8206,4.456 -13.8168,8.0221 -7.5745,9.8084 z"
       id="path123176" />
  </g>
</svg>
