<?xml version="1.0" encoding="UTF-8" standalone="no"?>
<svg
   height="6526px"
   version="1.1"
   width="4875px"
   id="svg106"
   sodipodi:docname="mello_2018_understanding_J3045_p1_H_red.svg"
   inkscape:version="1.1.1 (eb90963e84, 2021-10-02)"
   xmlns:inkscape="http://www.inkscape.org/namespaces/inkscape"
   xmlns:sodipodi="http://sodipodi.sourceforge.net/DTD/sodipodi-0.dtd"
   xmlns:xlink="http://www.w3.org/1999/xlink"
   xmlns="http://www.w3.org/2000/svg"
   xmlns:svg="http://www.w3.org/2000/svg">
  <sodipodi:namedview
     id="namedview108"
     pagecolor="#ffffff"
     bordercolor="#666666"
     borderopacity="1.0"
     inkscape:pageshadow="2"
     inkscape:pageopacity="0.0"
     inkscape:pagecheckerboard="0"
     showgrid="false"
     inkscape:zoom="0.56083124"
     inkscape:cx="2745.0325"
     inkscape:cy="5531.9672"
     inkscape:window-width="1848"
     inkscape:window-height="898"
     inkscape:window-x="72"
     inkscape:window-y="27"
     inkscape:window-maximized="1"
     inkscape:current-layer="svg106" />
  <defs
     id="defs102" />
  <image
     height="6526px"
     sodipodi:insensitive="true"
     width="4875px"
     x="0"
     xlink:href="mello_2018_understanding_J3045_p1.png"
     y="0"
     id="image104" />
  <g
     id="g12819"
     transform="translate(1201.2499,1761.511)">
    <path
       style="fill:none;stroke:#000000;stroke-width:1px;stroke-linecap:butt;stroke-linejoin:miter;stroke-opacity:1"
       d="m 1232.4786,3532.6633 -162.2497,-49.9122"
       id="path223" />
    <text
       xml:space="preserve"
       style="font-size:85.3333px;line-height:1.25;font-family:sans-serif"
       x="591.50183"
       y="3450.0566"
       id="text2367"><tspan
         sodipodi:role="line"
         id="tspan2365"
         x="591.50183"
         y="3450.0566">y2: 100 uA / cm2</tspan></text>
  </g>
  <g
     id="g823">
    <path
       style="fill:none;stroke:#000000;stroke-width:1px;stroke-linecap:butt;stroke-linejoin:miter;stroke-opacity:1"
       d="m 2444.0817,5783.241 -221.0692,37.4538"
       id="path225" />
    <text
       xml:space="preserve"
       style="font-size:85.3333px;line-height:1.25;font-family:sans-serif"
       x="1683.5602"
       y="5912.7324"
       id="text6877"><tspan
         sodipodi:role="line"
         id="tspan6875"
         x="1683.5602"
         y="5912.7324">y1: -100 uA / cm2</tspan></text>
  </g>
  <g
     id="g12824"
     transform="translate(1213.3237,1749.0723)">
    <path
       style="fill:none;stroke:#000000;stroke-width:1px;stroke-linecap:butt;stroke-linejoin:miter;stroke-opacity:1"
       d="m 1353.7671,4081.8288 -1.8806,92.7316"
       id="path227" />
    <text
       xml:space="preserve"
       style="font-size:85.3333px;line-height:1.25;font-family:sans-serif"
       x="1328.7976"
       y="4229.812"
       id="text8987"><tspan
         sodipodi:role="line"
         id="tspan8985"
         x="1328.7976"
         y="4229.812">x1: 0.1 V vs RHE</tspan></text>
  </g>
  <g
     id="g12829"
     transform="translate(1213.3237,1749.0723)">
    <path
       style="fill:none;stroke:#000000;stroke-width:1px;stroke-linecap:butt;stroke-linejoin:miter;stroke-opacity:1"
       d="m 2321.9372,4081.8288 -94.55,133.7187"
       id="path229" />
    <text
       xml:space="preserve"
       style="font-size:85.3333px;line-height:1.25;font-family:sans-serif"
       x="2227.3872"
       y="4256.561"
       id="text11553"><tspan
         sodipodi:role="line"
         id="tspan11551"
         x="2227.3872"
         y="4256.561">x2: 0.9 V vs RHE</tspan></text>
  </g>
  <text
     xml:space="preserve"
     style="font-size:85.3333px;line-height:1.25;font-family:sans-serif"
     x="2787.8799"
     y="5805.2788"
     id="text25387"><tspan
       sodipodi:role="line"
       id="tspan25385"
       x="2787.8799"
       y="5805.2788">scan rate: 50 mV / s</tspan></text>
  <g
     id="g124892">
    <text
       xml:space="preserve"
       style="font-size:85.3333px;line-height:1.25;font-family:sans-serif"
       x="2529.6614"
       y="5204.4629"
       id="text15141"><tspan
         sodipodi:role="line"
         x="2529.6614"
         y="5204.4629"
         id="tspan68527">curve: Pt_(111)_H_red</tspan></text>
    <path
       style="fill:none;stroke:#000000;stroke-width:1px;stroke-linecap:butt;stroke-linejoin:miter;stroke-opacity:1"
       d="m 2515.5532,5643.9553 1.332,-52.6015 0.9142,-54.3813 1.332,-35.661 7.5745,-20.0617 8.4625,-10.2468 16.951,-3.5661 23.6114,-2.2313 18.7271,-1.7863 18.2832,-2.2247 18.701,-3.1211 20.5032,-6.6873 11.5967,-3.5661 10.2647,4.0111 8.9065,5.3524 16.0369,1.3348 h 13.843 l 13.8168,-0.4449 16.4809,-4.456 3.1343,-1.3414 5.3282,2.6762 4.4663,6.6873 6.2424,8.022 13.3728,8.4671 19.6152,9.3634 29.4097,11.1432 29.4358,7.5772 22.7234,4.011 30.7678,0.4515 36.0962,-2.6762 51.7151,-5.7974 42.3385,-3.1211 24.0815,-1.7798 h 74.877 l 37.0102,2.2247 39.6744,2.6762 21.8353,-0.8899 16.9511,-0.8898 15.5929,-1.3414 19.1711,4.4625 15.1489,4.9009 18.2831,9.8084 15.5929,4.901 15.593,4.011 21.8613,1.7863 29.4097,2.6697 h 32.988 l 44.5847,-0.8899 37.4282,0.4449 17.8392,-0.4449 -1.3321,8.9185 -4.0223,2.2247 -17.3951,0.8899 -69.5281,0.4515 h -102.9601 l -46.3608,1.3348 -27.6337,1.7798 -21.3912,3.5661 -17.8391,5.3524 -13.8169,6.6872 -11.1527,10.2534 -10.2385,12.923 -6.6864,13.3745 -4.9104,7.5771 -4.4663,0.8899 -5.7983,-4.011 -3.1082,-13.8195 -5.3543,-8.0221 -8.4625,-3.566 -10.7087,0.4449 -24.0553,2.2313 -43.2527,5.7908 -24.4994,0.8964 h -31.2119 l -30.7679,-1.7863 -44.5586,-5.3459 -32.544,-4.011 -32.1055,-4.0176 -33.4321,0.8964 -27.6336,5.3459 -21.8614,8.4736 -19.6151,8.022 -17.369,5.7909 -6.6864,7.5771 -6.2424,7.5837 -6.2424,7.5771 h -9.3505 l -11.5967,-2.6762 -13.3728,-1.3349 h -16.9511 l -13.8168,3.5661 -16.481,4.901 -9.8206,1.3348 -16.0369,-1.3348 -11.1527,-3.5661 -20.9473,-4.901 -27.1896,-0.4514 -15.5929,-0.445 -12.4848,2.6762 -10.7087,7.5772 -8.9065,7.1321 z"
       id="path124807" />
  </g>
</svg>
