<?xml version="1.0" encoding="UTF-8" standalone="no"?>
<svg
   height="6526px"
   version="1.1"
   width="4875px"
   id="svg106"
   sodipodi:docname="mello_2018_understanding_J3045_p1_f1G_blue.svg"
   inkscape:version="1.1.1 (eb90963e84, 2021-10-02)"
   xmlns:inkscape="http://www.inkscape.org/namespaces/inkscape"
   xmlns:sodipodi="http://sodipodi.sourceforge.net/DTD/sodipodi-0.dtd"
   xmlns:xlink="http://www.w3.org/1999/xlink"
   xmlns="http://www.w3.org/2000/svg"
   xmlns:svg="http://www.w3.org/2000/svg">
  <sodipodi:namedview
     id="namedview108"
     pagecolor="#ffffff"
     bordercolor="#666666"
     borderopacity="1.0"
     inkscape:pageshadow="2"
     inkscape:pageopacity="0.0"
     inkscape:pagecheckerboard="0"
     showgrid="false"
     inkscape:zoom="0.56083124"
     inkscape:cx="1586.0386"
     inkscape:cy="5624.6867"
     inkscape:window-width="1848"
     inkscape:window-height="898"
     inkscape:window-x="72"
     inkscape:window-y="27"
     inkscape:window-maximized="1"
     inkscape:current-layer="svg106" />
  <defs
     id="defs102" />
  <image
     height="6526px"
     sodipodi:insensitive="true"
     width="4875px"
     x="0"
     xlink:href="mello_2018_understanding_J3045_p1.png"
     y="0"
     id="image104" />
  <g
     id="g12819"
     transform="translate(-11.165135,1761.3751)">
    <path
       style="fill:none;stroke:#000000;stroke-width:1px;stroke-linecap:butt;stroke-linejoin:miter;stroke-opacity:1"
       d="m 1232.4786,3532.6633 -162.2497,-49.9122"
       id="path223" />
    <text
       xml:space="preserve"
       style="font-size:85.3333px;line-height:1.25;font-family:sans-serif"
       x="591.50183"
       y="3450.0566"
       id="text2367"><tspan
         sodipodi:role="line"
         id="tspan2365"
         x="591.50183"
         y="3450.0566">j2: 100 uA / cm2</tspan></text>
  </g>
  <g
     id="g1465">
    <path
       style="fill:none;stroke:#000000;stroke-width:1px;stroke-linecap:butt;stroke-linejoin:miter;stroke-opacity:1"
       d="m 1231.6666,5783.1051 -221.0692,37.4538"
       id="path225" />
    <text
       xml:space="preserve"
       style="font-size:85.3333px;line-height:1.25;font-family:sans-serif"
       x="471.14508"
       y="5912.5967"
       id="text6877"><tspan
         sodipodi:role="line"
         id="tspan6875"
         x="471.14508"
         y="5912.5967">j1: -100 uA / cm2</tspan></text>
  </g>
  <g
     id="g12824"
     transform="translate(0.9085774,1748.9364)">
    <path
       style="fill:none;stroke:#000000;stroke-width:1px;stroke-linecap:butt;stroke-linejoin:miter;stroke-opacity:1"
       d="m 1353.7671,4081.8288 -1.8806,92.7316"
       id="path227" />
    <text
       xml:space="preserve"
       style="font-size:85.3333px;line-height:1.25;font-family:sans-serif"
       x="1328.7976"
       y="4229.812"
       id="text8987"><tspan
         sodipodi:role="line"
         id="tspan8985"
         x="1328.7976"
         y="4229.812">E1: 0.1 V vs RHE</tspan></text>
  </g>
  <g
     id="g12829"
     transform="translate(0.9085774,1748.9364)">
    <path
       style="fill:none;stroke:#000000;stroke-width:1px;stroke-linecap:butt;stroke-linejoin:miter;stroke-opacity:1"
       d="m 2321.9372,4081.8288 -94.55,133.7187"
       id="path229" />
    <text
       xml:space="preserve"
       style="font-size:85.3333px;line-height:1.25;font-family:sans-serif"
       x="2227.3872"
       y="4256.561"
       id="text11553"><tspan
         sodipodi:role="line"
         id="tspan11551"
         x="2227.3872"
         y="4256.561">E2: 0.9 V vs RHE</tspan></text>
  </g>
  <text
     xml:space="preserve"
     style="font-size:85.3333px;line-height:1.25;font-family:sans-serif"
     x="2803.2461"
     y="5202.6099"
     id="text25387"><tspan
       sodipodi:role="line"
       id="tspan25385"
       x="2803.2461"
       y="5202.6099">scan rate: 50 mV / s</tspan></text>
  <g
     id="g120587">
    <text
       xml:space="preserve"
       style="font-size:85.3333px;line-height:1.25;font-family:sans-serif"
       x="1304.223"
       y="5234.7407"
       id="text15141"><tspan
         sodipodi:role="line"
         x="1304.223"
         y="5234.7407"
         id="tspan68527">curve: Pt_(111)_G_blue</tspan></text>
    <path
       style="fill:none;stroke:#000000;stroke-width:1px;stroke-linecap:butt;stroke-linejoin:miter;stroke-opacity:1"
       d="m 1307.9799,5632.8043 0.444,-52.15 v -46.3592 l 1.3321,-34.7711 5.7984,-16.4891 16.4809,-10.2533 25.4135,-8.467 27.6337,-4.4626 22.7494,-3.1146 32.988,-0.8964 12.4848,-0.8899 14.2608,-2.6762 12.0146,1.7863 8.9327,2.2248 h 16.9249 l 11.5967,-4.901 11.1528,-10.2533 11.5705,-19.1653 9.8207,-22.7314 5.7984,-16.0507 5.7983,-10.2533 4.8842,-0.445 6.6864,5.7974 8.0185,17.8304 12.4848,33.4297 14.2608,28.9737 11.1527,11.1432 12.9288,9.3635 20.9472,6.2423 42.8087,5.3459 20.5032,2.2312 20.5032,1.7798 23.6114,2.2313 9.3766,0.4449 14.7049,-2.6762 8.0184,-11.1432 1.3321,-7.1322 1.776,-17.3855 2.6903,-36.5509 3.5522,-31.6499 2.2461,6.6873 3.1082,40.1169 2.6902,29.4186 5.7723,27.6389 7.1304,16.9406 12.9288,12.478 14.2869,3.1212 17.813,3.1211 14.7049,1.3349 112.7962,2.2312 37.4543,0.8899 h 39.6744 44.5586 l 39.2304,-0.8899 23.6375,-2.6762 14.7048,-3.1211 24.9696,-0.8899 18.701,0.4449 19.1711,0.8965 28.9657,0.8898 30.3239,0.445 h 6.6864 l -1.332,8.0221 -6.6864,2.6762 -35.2081,2.2247 -87.8374,1.7863 h -99.8259 l -40.5624,-1.3348 -150.2351,-0.4515 -27.1896,1.3414 -22.7233,3.5661 -21.3913,4.456 -15.619,12.4846 -8.9065,15.1542 -5.7984,20.0552 -2.6641,20.9516 -0.9141,19.1653 -3.5577,38.3403 -0.9141,19.1718 -1.7761,15.1543 -3.1082,-3.5661 -0.888,-42.3482 -0.444,-45.9143 -1.3582,-23.1763 -3.5521,-8.4736 -7.1304,-7.5771 -10.2647,-1.7798 -17.369,1.3348 -27.6337,3.5661 -26.7455,1.3414 -28.9919,3.1146 -25.4135,4.0176 -14.7049,6.2357 -12.0407,7.5772 -7.1304,8.4735 -9.3505,14.2644 -10.7087,20.9516 -6.6864,16.9341 -8.9065,18.2754 -5.7984,9.8084 -3.9962,3.1211 -6.2424,-3.1211 -9.3766,-14.2644 -9.7945,-28.9737 -8.0185,-15.5992 -14.7309,-11.5947 -13.3729,-4.456 -12.9026,0.8899 -13.843,3.5661 -15.5929,0.8964 -19.6151,-0.8964 -20.9473,-2.6697 -9.7945,1.3348 h -15.619 l -14.7049,-0.8898 -15.1489,-2.6762 -12.9288,-3.1212 h -9.3505 l -11.5967,2.6762 -5.7984,4.456 z"
       id="path119026" />
  </g>
</svg>
