<?xml version="1.0" encoding="UTF-8" standalone="no"?>
<svg
   height="6526px"
   version="1.1"
   width="4875px"
   id="svg106"
   sodipodi:docname="mello_2018_understanding_J3045_p1_C_green.svg"
   inkscape:version="1.1.1 (eb90963e84, 2021-10-02)"
   xmlns:inkscape="http://www.inkscape.org/namespaces/inkscape"
   xmlns:sodipodi="http://sodipodi.sourceforge.net/DTD/sodipodi-0.dtd"
   xmlns:xlink="http://www.w3.org/1999/xlink"
   xmlns="http://www.w3.org/2000/svg"
   xmlns:svg="http://www.w3.org/2000/svg">
  <sodipodi:namedview
     id="namedview108"
     pagecolor="#ffffff"
     bordercolor="#666666"
     borderopacity="1.0"
     inkscape:pageshadow="2"
     inkscape:pageopacity="0.0"
     inkscape:pagecheckerboard="0"
     showgrid="false"
     inkscape:zoom="0.39656758"
     inkscape:cx="1489.0274"
     inkscape:cy="4494.8203"
     inkscape:window-width="1848"
     inkscape:window-height="898"
     inkscape:window-x="72"
     inkscape:window-y="27"
     inkscape:window-maximized="1"
     inkscape:current-layer="svg106" />
  <defs
     id="defs102" />
  <image
     height="6526px"
     sodipodi:insensitive="true"
     width="4875px"
     x="0"
     xlink:href="mello_2018_understanding_J3045_p1.png"
     y="0"
     id="image104" />
  <g
     id="g12819"
     transform="translate(-12.032497,645.94739)">
    <path
       style="fill:none;stroke:#000000;stroke-width:1px;stroke-linecap:butt;stroke-linejoin:miter;stroke-opacity:1"
       d="m 1232.4786,3532.6633 -162.2497,-49.9122"
       id="path223" />
    <text
       xml:space="preserve"
       style="font-size:85.3333px;line-height:1.25;font-family:sans-serif"
       x="591.50183"
       y="3450.0566"
       id="text2367"><tspan
         sodipodi:role="line"
         id="tspan2365"
         x="591.50183"
         y="3450.0566">y2: 200 uA / cm2</tspan></text>
  </g>
  <g
     id="g12814"
     transform="translate(2.3676944,518.61768)">
    <path
       style="fill:none;stroke:#000000;stroke-width:1px;stroke-linecap:butt;stroke-linejoin:miter;stroke-opacity:1"
       d="m 1232.4786,4049.7405 -221.0692,37.4538"
       id="path225" />
    <text
       xml:space="preserve"
       style="font-size:85.3333px;line-height:1.25;font-family:sans-serif"
       x="471.95712"
       y="4179.2319"
       id="text6877"><tspan
         sodipodi:role="line"
         id="tspan6875"
         x="471.95712"
         y="4179.2319">y1: -200 uA / cm2</tspan></text>
  </g>
  <g
     id="g12824"
     transform="translate(1.3442719,584.17027)">
    <path
       style="fill:none;stroke:#000000;stroke-width:1px;stroke-linecap:butt;stroke-linejoin:miter;stroke-opacity:1"
       d="m 1353.7671,4081.8288 -1.8806,92.7316"
       id="path227" />
    <text
       xml:space="preserve"
       style="font-size:85.3333px;line-height:1.25;font-family:sans-serif"
       x="1328.7976"
       y="4229.812"
       id="text8987"><tspan
         sodipodi:role="line"
         id="tspan8985"
         x="1328.7976"
         y="4229.812">x1: 0.1 V vs RHE</tspan></text>
  </g>
  <g
     id="g12829"
     transform="translate(1.3442719,584.17027)">
    <path
       style="fill:none;stroke:#000000;stroke-width:1px;stroke-linecap:butt;stroke-linejoin:miter;stroke-opacity:1"
       d="m 2321.9372,4081.8288 -94.55,133.7187"
       id="path229" />
    <text
       xml:space="preserve"
       style="font-size:85.3333px;line-height:1.25;font-family:sans-serif"
       x="2227.3872"
       y="4256.561"
       id="text11553"><tspan
         sodipodi:role="line"
         id="tspan11551"
         x="2227.3872"
         y="4256.561">x2: 0.9 V vs RHE</tspan></text>
  </g>
  <text
     xml:space="preserve"
     style="font-size:85.3333px;line-height:1.25;font-family:sans-serif"
     x="1603.7726"
     y="4631.5815"
     id="text25387"><tspan
       sodipodi:role="line"
       id="tspan25385"
       x="1603.7726"
       y="4631.5815">scan rate: 50 mV / s</tspan></text>
  <g
     id="g70133">
    <text
       xml:space="preserve"
       style="font-size:85.3333px;line-height:1.25;font-family:sans-serif"
       x="1519.3345"
       y="4149.6895"
       id="text15141"><tspan
         sodipodi:role="line"
         x="1519.3345"
         y="4149.6895"
         id="tspan68527">curve: Pt_(111)_C_green</tspan></text>
    <path
       style="fill:none;stroke:#000000;stroke-width:1px;stroke-linecap:butt;stroke-linejoin:miter;stroke-opacity:1"
       d="m 1303.8328,4421.201 -0.628,-35.3026 1.2559,-19.5436 7.5352,-8.8187 18.2841,-8.1987 31.5446,-9.4572 32.7636,-7.5602 13.8885,-9.4572 10.7119,-11.3449 5.6514,-13.2419 6.9443,-15.7589 3.1397,-24.5869 6.3162,-42.8627 1.8839,-20.8021 3.8045,-21.4407 3.1397,-27.1038 1.8838,-11.9742 3.8046,-2.5262 2.5118,5.6725 3.1396,23.9576 6.3163,45.3889 0.628,18.2852 1.2559,21.4314 6.3163,27.1038 3.1396,17.6559 3.1397,14.4911 6.9443,17.6559 5.0604,11.345 11.9678,11.9741 11.3398,5.6817 6.3163,-0.6384 5.0235,-4.4048 1.2559,-12.6126 1.2928,-18.2852 1.2559,-10.0772 1.8838,2.517 2.5117,15.1297 3.8046,17.0174 7.5352,15.1296 9.456,8.1987 16.4003,4.414 20.1679,3.1462 27.74,1.897 33.4284,-0.6292 665.5915,-1.8231 -0.888,4.456 -586.1571,1.3413 -138.6395,0.8927 -21.4174,1.7863 -15.1489,3.1146 -12.0407,5.7974 -5.7984,7.1322 -5.7722,13.8194 -4.0223,14.2644 -2.2201,19.1653 -0.888,8.9185 -3.1343,-11.5947 -1.3321,-22.2865 -1.332,-14.7093 -4.4663,-3.5661 h -6.6864 l -11.5967,6.6873 -8.0185,7.5771 -10.2385,18.7203 -8.9327,26.749 -5.7983,28.9737 -7.1305,33.4297 -1.776,24.9627 -3.5522,21.8415 -0.9141,13.3745 -2.668,17.8279 -3.9962,9.8083 -4.0223,2.6763 -2.6641,-9.3635 -3.1343,-28.9737 -2.6641,-40.5619 -2.2462,-24.0727 -3.1081,-20.9517 -4.9103,-23.1763 -7.5745,-22.2865 -11.1527,-12.0331 -10.6826,-9.8084 -15.175,-5.3524 -14.2608,-1.3348 -13.3728,-2.2313 -15.1489,-1.7798 h -10.2385 l -11.5968,4.0111 z"
       id="path70048" />
  </g>
</svg>
