<?xml version="1.0" encoding="UTF-8" standalone="no"?>
<svg
   height="6526px"
   version="1.1"
   width="4875px"
   id="svg106"
   sodipodi:docname="mello_2018_understanding_J3045_f1A_green.svg"
   inkscape:version="1.1.1 (eb90963e84, 2021-10-02)"
   xmlns:inkscape="http://www.inkscape.org/namespaces/inkscape"
   xmlns:sodipodi="http://sodipodi.sourceforge.net/DTD/sodipodi-0.dtd"
   xmlns:xlink="http://www.w3.org/1999/xlink"
   xmlns="http://www.w3.org/2000/svg"
   xmlns:svg="http://www.w3.org/2000/svg">
  <sodipodi:namedview
     id="namedview108"
     pagecolor="#ffffff"
     bordercolor="#666666"
     borderopacity="1.0"
     inkscape:pageshadow="2"
     inkscape:pageopacity="0.0"
     inkscape:pagecheckerboard="0"
     showgrid="false"
     inkscape:zoom="0.28041562"
     inkscape:cx="1606.5439"
     inkscape:cy="3913.8333"
     inkscape:window-width="1848"
     inkscape:window-height="898"
     inkscape:window-x="72"
     inkscape:window-y="27"
     inkscape:window-maximized="1"
     inkscape:current-layer="svg106" />
  <defs
     id="defs102" />
  <image
     height="6526px"
     sodipodi:insensitive="true"
     width="4875px"
     x="0"
     xlink:href="mello_2018_understanding_J3045_p1.png"
     y="0"
     id="image104" />
  <g
     id="g12819">
    <path
       style="fill:none;stroke:#000000;stroke-width:1px;stroke-linecap:butt;stroke-linejoin:miter;stroke-opacity:1"
       d="m 1232.4786,3532.6633 -162.2497,-49.9122"
       id="path223" />
    <text
       xml:space="preserve"
       style="font-size:85.3333px;line-height:1.25;font-family:sans-serif"
       x="591.50183"
       y="3450.0566"
       id="text2367"><tspan
         sodipodi:role="line"
         id="tspan2365"
         x="591.50183"
         y="3450.0566">y2: 400 uA / cm2</tspan></text>
  </g>
  <g
     id="g12814">
    <path
       style="fill:none;stroke:#000000;stroke-width:1px;stroke-linecap:butt;stroke-linejoin:miter;stroke-opacity:1"
       d="m 1232.4786,4049.7405 -221.0692,37.4538"
       id="path225" />
    <text
       xml:space="preserve"
       style="font-size:85.3333px;line-height:1.25;font-family:sans-serif"
       x="471.95712"
       y="4179.2319"
       id="text6877"><tspan
         sodipodi:role="line"
         id="tspan6875"
         x="471.95712"
         y="4179.2319">y1: -400 uA / cm2</tspan></text>
  </g>
  <g
     id="g12824">
    <path
       style="fill:none;stroke:#000000;stroke-width:1px;stroke-linecap:butt;stroke-linejoin:miter;stroke-opacity:1"
       d="m 1353.7671,4081.8288 -1.8806,92.7316"
       id="path227" />
    <text
       xml:space="preserve"
       style="font-size:85.3333px;line-height:1.25;font-family:sans-serif"
       x="1328.7976"
       y="4229.812"
       id="text8987"><tspan
         sodipodi:role="line"
         id="tspan8985"
         x="1328.7976"
         y="4229.812">x1: 0.1 V vs RHE</tspan></text>
  </g>
  <g
     id="g12829">
    <path
       style="fill:none;stroke:#000000;stroke-width:1px;stroke-linecap:butt;stroke-linejoin:miter;stroke-opacity:1"
       d="m 2321.9372,4081.8288 -94.55,133.7187"
       id="path229" />
    <text
       xml:space="preserve"
       style="font-size:85.3333px;line-height:1.25;font-family:sans-serif"
       x="2227.3872"
       y="4256.561"
       id="text11553"><tspan
         sodipodi:role="line"
         id="tspan11551"
         x="2227.3872"
         y="4256.561">x2: 0.9 V vs RHE</tspan></text>
  </g>
  <text
     xml:space="preserve"
     style="font-size:85.3333px;line-height:1.25;font-family:sans-serif"
     x="1516.5004"
     y="4023.1631"
     id="text25387"><tspan
       sodipodi:role="line"
       id="tspan25385"
       x="1516.5004"
       y="4023.1631">scan rate: 50 mV / s</tspan></text>
  <g
     id="g38109">
    <text
       xml:space="preserve"
       style="font-size:85.3333px;line-height:1.25;font-family:sans-serif"
       x="1397.8572"
       y="3228.8562"
       id="text15141"><tspan
         sodipodi:role="line"
         x="1397.8572"
         y="3228.8562"
         id="tspan35807">curve: Pt_(111)_A_green</tspan></text>
    <path
       style="fill:none;stroke:#000000;stroke-width:1px;stroke-linecap:butt;stroke-linejoin:miter;stroke-opacity:1"
       d="m 1306.3192,3821.6808 1.9208,-28.3715 1.8838,-17.0175 5.6514,-5.6724 15.7723,-7.5602 16.4003,-6.311 10.0839,-6.9309 7.5722,-10.0865 6.9073,-15.1297 4.4325,-18.9143 4.3956,-19.5436 1.9207,-15.1297 3.1397,-32.7763 3.7676,-39.7165 2.5487,-28.9916 3.1397,-20.8114 2.5118,-21.4313 3.1766,22.6991 3.1397,32.147 1.2559,17.0174 1.8838,23.3284 1.2559,20.8021 1.2558,15.1297 3.1766,20.8021 1.2559,-38.4488 1.8838,-43.5012 1.2559,-44.1305 0.6279,-39.7072 1.9208,58.6216 v 30.2593 l 1.2559,92.0364 0.6279,30.2593 1.8838,30.2594 3.1397,13.2419 3.8046,9.4479 8.828,6.9403 7.5353,3.7754 12.6326,1.2678 h 20.7958 39.0799 l 96.4438,0.6292 707.9381,-2.5262 v 6.3109 l -745.1032,-0.6384 -86.7884,0.2677 -22.7494,0.4449 -19.1712,0.8899 -13.3728,3.5661 -10.2386,7.1322 -5.7983,11.5882 -2.6641,16.9405 -0.9142,26.2975 -1.7761,60.1877 -0.888,87.811 -1.7761,67.3109 h -2.2462 v -22.738 l 1.3582,-94.0533 -1.3582,-45.9077 -1.7761,-0.4449 -3.1081,6.2357 -2.6902,33.8812 -2.6641,28.5287 -1.7761,26.2975 -1.3582,23.1764 -1.3321,12.9295 -2.22,20.0552 -2.6903,-23.6213 -2.6641,-15.5992 -2.2201,-21.8415 -4.0223,-57.9539 -1.332,-18.7204 -3.1189,-32.0922 -6.2423,-25.4077 -8.0185,-19.1718 -12.4848,-16.4891 -18.7271,-7.5771 -15.5929,-3.5661 z"
       id="path38024" />
  </g>
</svg>
