<?xml version="1.0" encoding="UTF-8" standalone="no"?>
<svg
   height="6526px"
   version="1.1"
   width="4875px"
   id="svg106"
   sodipodi:docname="mello_2018_understanding_j3045_p1_f1g_red.svg"
   inkscape:version="1.1.2 (b8e25be833, 2022-02-05)"
   xmlns:inkscape="http://www.inkscape.org/namespaces/inkscape"
   xmlns:sodipodi="http://sodipodi.sourceforge.net/DTD/sodipodi-0.dtd"
   xmlns:xlink="http://www.w3.org/1999/xlink"
   xmlns="http://www.w3.org/2000/svg"
   xmlns:svg="http://www.w3.org/2000/svg">
  <sodipodi:namedview
     id="namedview108"
     pagecolor="#ffffff"
     bordercolor="#666666"
     borderopacity="1.0"
     inkscape:pageshadow="2"
     inkscape:pageopacity="0.0"
     inkscape:pagecheckerboard="0"
     showgrid="false"
     inkscape:zoom="0.39656757"
     inkscape:cx="-15.12983"
     inkscape:cy="5696.381"
     inkscape:window-width="1920"
     inkscape:window-height="1017"
     inkscape:window-x="-8"
     inkscape:window-y="32"
     inkscape:window-maximized="1"
     inkscape:current-layer="svg106" />
  <defs
     id="defs102" />
  <image
     height="6526px"
     sodipodi:insensitive="true"
     width="4875px"
     x="0"
     xlink:href="mello_2018_understanding_j3045_p1.png"
     y="0"
     id="image104" />
  <g
     id="g12819"
     transform="translate(-11.165135,1761.3751)">
    <path
       style="fill:none;stroke:#000000;stroke-width:1px;stroke-linecap:butt;stroke-linejoin:miter;stroke-opacity:1"
       d="m 1232.4786,3532.6633 -162.2497,-49.9122"
       id="path223" />
    <text
       xml:space="preserve"
       style="font-size:85.3333px;line-height:1.25;font-family:sans-serif"
       x="591.50183"
       y="3450.0566"
       id="text2367"><tspan
         sodipodi:role="line"
         id="tspan2365"
         x="591.50183"
         y="3450.0566">j2: 100 uA / cm2</tspan></text>
  </g>
  <g
     id="g1679">
    <path
       style="fill:none;stroke:#000000;stroke-width:1px;stroke-linecap:butt;stroke-linejoin:miter;stroke-opacity:1"
       d="m 1231.6666,5783.1051 -221.0692,37.4538"
       id="path225" />
    <text
       xml:space="preserve"
       style="font-size:85.3333px;line-height:1.25;font-family:sans-serif"
       x="471.14508"
       y="5912.5967"
       id="text6877"><tspan
         sodipodi:role="line"
         id="tspan6875"
         x="471.14508"
         y="5912.5967">j1: -100 uA / cm2</tspan></text>
  </g>
  <g
     id="g12824"
     transform="translate(0.9085774,1748.9364)">
    <path
       style="fill:none;stroke:#000000;stroke-width:1px;stroke-linecap:butt;stroke-linejoin:miter;stroke-opacity:1"
       d="m 1353.7671,4081.8288 -1.8806,92.7316"
       id="path227" />
    <text
       xml:space="preserve"
       style="font-size:85.3333px;line-height:1.25;font-family:sans-serif"
       x="1328.7976"
       y="4229.812"
       id="text8987"><tspan
         sodipodi:role="line"
         id="tspan8985"
         x="1328.7976"
         y="4229.812">E1: 0.1 V vs RHE</tspan></text>
  </g>
  <g
     id="g12829"
     transform="translate(0.9085774,1748.9364)">
    <path
       style="fill:none;stroke:#000000;stroke-width:1px;stroke-linecap:butt;stroke-linejoin:miter;stroke-opacity:1"
       d="m 2321.9372,4081.8288 -94.55,133.7187"
       id="path229" />
    <text
       xml:space="preserve"
       style="font-size:85.3333px;line-height:1.25;font-family:sans-serif"
       x="2227.3872"
       y="4256.561"
       id="text11553"><tspan
         sodipodi:role="line"
         id="tspan11551"
         x="2227.3872"
         y="4256.561">E2: 0.9 V vs RHE</tspan></text>
  </g>
  <text
     xml:space="preserve"
     style="font-size:85.3333px;line-height:1.25;font-family:sans-serif"
     x="2803.2461"
     y="5202.6099"
     id="text25387"><tspan
       sodipodi:role="line"
       id="tspan25385"
       x="2803.2461"
       y="5202.6099">scan rate: 50 mV / s</tspan></text>
  <g
     id="g118768">
    <text
       xml:space="preserve"
       style="font-size:85.3333px;line-height:1.25;font-family:sans-serif"
       x="1304.223"
       y="5234.7407"
       id="text15141"><tspan
         sodipodi:role="line"
         x="1304.223"
         y="5234.7407"
         id="tspan68527">curve: red</tspan></text>
    <path
       style="fill:none;stroke:#000000;stroke-width:1px;stroke-linecap:butt;stroke-linejoin:miter;stroke-opacity:1"
       d="m 1308.4282,5633.2532 2.2201,-61.0685 2.6641,-50.3703 0.9141,-25.8525 7.5745,-12.4781 12.0146,-7.1322 22.3054,-4.9074 16.925,-3.5661 26.7456,-3.5661 28.5478,-2.2247 19.589,-1.7864 31.2119,-0.8899 23.1935,0.8899 15.1489,2.6762 16.9249,3.1212 16.9511,-1.3414 14.7049,-4.456 16.0369,-8.9119 10.2647,-6.2423 7.1304,0.8899 9.8206,4.9074 12.9027,12.4781 18.7271,15.1543 9.8183,6.6872 20.5032,3.5661 27.6337,2.2313 30.7679,0.8898 h 25.4135 27.1896 l 31.1858,2.6763 27.6336,2.2247 20.0593,1.3413 9.8206,-0.8898 6.2424,-5.7974 5.7984,-14.7093 4.4401,-10.2534 3.5783,-3.1211 5.3544,-0.445 5.3543,10.6983 7.5744,20.9517 5.7984,15.1542 7.1304,10.6983 12.4587,6.2423 21.4174,5.3459 80.2344,1.7863 h 39.6744 l 24.5255,-1.7863 26.2754,-0.445 h 26.3016 26.7456 41.4766 39.2042 l 29.4359,-2.2312 h 20.9472 l 11.1527,-0.445 0.8881,9.3635 -3.1342,1.7797 -6.6864,2.2313 -33.8761,1.3348 -104.7362,0.8965 h -40.5624 l -75.7967,-0.8965 -60.6216,0.8965 -32.988,1.7797 -29.4097,0.8899 -15.5929,3.1212 -13.8441,4.011 -11.5967,5.7974 -9.7946,7.1322 -8.9326,13.8194 -6.2162,15.1543 -3.5783,13.8194 -4.4663,17.3855 -3.5522,14.2644 -4.4663,1.3348 -2.6641,-22.7314 -2.6902,-16.9405 -4.4402,-12.0332 -8.0446,-5.3524 -14.7049,-2.6762 h -16.0368 l -31.212,0.8964 -27.6336,1.7798 -38.3423,3.5661 -23.1674,-0.8899 -17.8391,1.3349 -23.6113,6.2423 -16.9511,10.2533 -11.1266,12.0331 -8.0446,8.4736 -8.0184,8.467 -5.7984,3.5661 -4.4402,2.6762 -7.1304,-4.4625 -10.2647,-7.5771 -8.9065,-8.0221 -12.0407,-6.2423 -16.9511,-1.3349 -19.5891,1.7798 -13.8429,2.2313 -18.701,1.3348 -12.0408,1.3414 -22.7233,0.4449 -24.0815,2.2313 -15.5929,1.7798 -23.6375,-1.7798 -14.7048,-2.2313 -12.0408,-2.2312 -16.0369,0.8964 -14.2608,4.456 -8.0446,4.011 z"
       id="path118683" />
  </g>
  <text
     xml:space="preserve"
     style="font-size:80px;line-height:1.25;font-family:sans-serif;-inkscape-font-specification:sans-serif;letter-spacing:0px;word-spacing:0px"
     x="-774.14294"
     y="4977.7139"
     id="text2751"><tspan
       sodipodi:role="line"
       id="tspan2749"
       x="-774.14294"
       y="4977.7139">Figure: 1g</tspan></text>
  <text
     xml:space="preserve"
     style="font-size:80px;line-height:1.25;font-family:sans-serif;-inkscape-font-specification:sans-serif;letter-spacing:0px;word-spacing:0px"
     x="-751.44824"
     y="5071.0146"
     id="text3767"><tspan
       sodipodi:role="line"
       id="tspan3765"
       x="-751.44824"
       y="5071.0146">Tags: BCV</tspan></text>
</svg>
