<?xml version="1.0" encoding="UTF-8" standalone="no"?>
<svg
   height="6526px"
   version="1.1"
   width="4875px"
   id="svg106"
   sodipodi:docname="mello_2018_understanding_j3045_p1_f1d_green.svg"
   inkscape:version="1.1.1 (eb90963e84, 2021-10-02)"
   xmlns:inkscape="http://www.inkscape.org/namespaces/inkscape"
   xmlns:sodipodi="http://sodipodi.sourceforge.net/DTD/sodipodi-0.dtd"
   xmlns:xlink="http://www.w3.org/1999/xlink"
   xmlns="http://www.w3.org/2000/svg"
   xmlns:svg="http://www.w3.org/2000/svg">
  <sodipodi:namedview
     id="namedview108"
     pagecolor="#ffffff"
     bordercolor="#666666"
     borderopacity="1.0"
     inkscape:pageshadow="2"
     inkscape:pageopacity="0.0"
     inkscape:pagecheckerboard="0"
     showgrid="false"
     inkscape:zoom="0.39656758"
     inkscape:cx="2800.2794"
     inkscape:cy="4467.0823"
     inkscape:window-width="1848"
     inkscape:window-height="898"
     inkscape:window-x="72"
     inkscape:window-y="27"
     inkscape:window-maximized="1"
     inkscape:current-layer="svg106" />
  <defs
     id="defs102" />
  <image
     height="6526px"
     sodipodi:insensitive="true"
     width="4875px"
     x="0"
     xlink:href="mello_2018_understanding_j3045_p1.png"
     y="0"
     id="image104" />
  <g
     id="g12819"
     transform="translate(1198.382,645.12308)">
    <path
       style="fill:none;stroke:#000000;stroke-width:1px;stroke-linecap:butt;stroke-linejoin:miter;stroke-opacity:1"
       d="m 1232.4786,3532.6633 -162.2497,-49.9122"
       id="path223" />
    <text
       xml:space="preserve"
       style="font-size:85.3333px;line-height:1.25;font-family:sans-serif"
       x="591.50183"
       y="3450.0566"
       id="text2367"><tspan
         sodipodi:role="line"
         id="tspan2365"
         x="591.50183"
         y="3450.0566">j2: 200 uA / cm2</tspan></text>
  </g>
  <g
     id="g12814"
     transform="translate(1212.7822,517.79337)">
    <path
       style="fill:none;stroke:#000000;stroke-width:1px;stroke-linecap:butt;stroke-linejoin:miter;stroke-opacity:1"
       d="m 1232.4786,4049.7405 -221.0692,37.4538"
       id="path225" />
    <text
       xml:space="preserve"
       style="font-size:85.3333px;line-height:1.25;font-family:sans-serif"
       x="471.95712"
       y="4179.2319"
       id="text6877"><tspan
         sodipodi:role="line"
         id="tspan6875"
         x="471.95712"
         y="4179.2319">j1: -200 uA / cm2</tspan></text>
  </g>
  <g
     id="g12824"
     transform="translate(1211.7587,583.34596)">
    <path
       style="fill:none;stroke:#000000;stroke-width:1px;stroke-linecap:butt;stroke-linejoin:miter;stroke-opacity:1"
       d="m 1353.7671,4081.8288 -1.8806,92.7316"
       id="path227" />
    <text
       xml:space="preserve"
       style="font-size:85.3333px;line-height:1.25;font-family:sans-serif"
       x="1328.7976"
       y="4229.812"
       id="text8987"><tspan
         sodipodi:role="line"
         id="tspan8985"
         x="1328.7976"
         y="4229.812">E1: 0.1 V vs RHE</tspan></text>
  </g>
  <g
     id="g12829"
     transform="translate(1211.7587,583.34596)">
    <path
       style="fill:none;stroke:#000000;stroke-width:1px;stroke-linecap:butt;stroke-linejoin:miter;stroke-opacity:1"
       d="m 2321.9372,4081.8288 -94.55,133.7187"
       id="path229" />
    <text
       xml:space="preserve"
       style="font-size:85.3333px;line-height:1.25;font-family:sans-serif"
       x="2227.3872"
       y="4256.561"
       id="text11553"><tspan
         sodipodi:role="line"
         id="tspan11551"
         x="2227.3872"
         y="4256.561">E2: 0.9 V vs RHE</tspan></text>
  </g>
  <text
     xml:space="preserve"
     style="font-size:85.3333px;line-height:1.25;font-family:sans-serif"
     x="2823.4141"
     y="4613.7837"
     id="text25387"><tspan
       sodipodi:role="line"
       id="tspan25385"
       x="2823.4141"
       y="4613.7837">scan rate: 50 mV / s</tspan></text>
  <g
     id="g82792">
    <text
       xml:space="preserve"
       style="font-size:85.3333px;line-height:1.25;font-family:sans-serif"
       x="2496.3848"
       y="4074.782"
       id="text15141"><tspan
         sodipodi:role="line"
         x="2496.3848"
         y="4074.782"
         id="tspan68527">curve: Pt_(111)_D_green</tspan></text>
    <path
       style="fill:none;stroke:#000000;stroke-width:1px;stroke-linecap:butt;stroke-linejoin:miter;stroke-opacity:1"
       d="m 2516.4465,4421.6601 1.776,-34.771 1.3321,-21.8416 2.6902,-12.923 6.6864,-5.7973 12.4848,-3.1212 h 9.3505 l 15.1489,-1.3348 13.8168,-3.1212 13.8168,-6.2422 6.6864,-2.6762 8.4886,-1.7798 8.9065,1.3348 9.3505,0.8964 10.7087,-5.3524 8.9065,-9.3634 7.1305,-14.7094 4.4662,-12.0331 4.9104,-20.0617 7.5744,-40.5619 5.3544,-32.9847 2.6641,-13.3745 3.5783,-7.5771 3.5521,-0.8899 2.2462,7.1322 3.1081,16.0441 2.6641,24.0728 5.7984,40.5619 10.7087,46.8041 8.0185,19.1719 8.4624,14.2644 12.4848,8.022 9.3767,4.0111 7.5744,2.2312 9.3505,0.445 4.4663,-5.3524 2.6641,-6.6873 1.7761,-16.0441 0.444,-14.7094 1.3582,-3.5661 2.6641,8.0221 2.2201,14.2644 2.6902,10.6983 4.9103,8.9119 9.3505,8.0287 10.2386,5.3458 21.4174,4.456 20.0592,0.8965 36.0961,0.8898 646.4427,-2.5698 v 6.2292 l -648.9989,0.9029 -51.1947,2.5193 -22.2924,2.8987 -14.0388,4.011 -8.9196,6.9097 -4.4532,5.5716 -4.0092,7.5772 -4.4163,15.8789 -2.2201,15.5992 -1.3582,6.2423 -2.2201,-7.1322 -1.332,-20.5066 -0.444,-17.8305 -4.0223,-5.3459 h -7.1304 l -18.2571,5.3459 -12.9288,8.9185 -9.3766,11.5882 -8.9065,15.5992 -8.9065,26.304 -5.7983,18.2754 -4.4663,27.1874 -5.3544,28.5288 -4.4402,20.5067 -3.1342,11.5881 -3.5522,3.5661 -3.1342,-3.1212 -3.5522,-24.9626 -5.3543,-34.7645 -3.1343,-30.3151 -3.9961,-20.0552 -5.7984,-16.0507 -5.3544,-10.2533 -9.3505,-8.0221 -14.7309,-1.3348 -14.7049,0.4449 -7.5744,-2.2312 -16.481,-7.1322 -10.2646,-2.6697 -15.5929,-1.3414 -16.5071,3.1212 -11.5706,5.7973 z"
       id="path82707" />
  </g>
</svg>
