<?xml version="1.0" encoding="UTF-8" standalone="no"?>
<svg
   height="6526px"
   version="1.1"
   width="4875px"
   id="svg106"
   sodipodi:docname="mello_2018_understanding_J3045_f1H_blue.svg"
   inkscape:version="1.1.1 (eb90963e84, 2021-10-02)"
   xmlns:inkscape="http://www.inkscape.org/namespaces/inkscape"
   xmlns:sodipodi="http://sodipodi.sourceforge.net/DTD/sodipodi-0.dtd"
   xmlns:xlink="http://www.w3.org/1999/xlink"
   xmlns="http://www.w3.org/2000/svg"
   xmlns:svg="http://www.w3.org/2000/svg">
  <sodipodi:namedview
     id="namedview108"
     pagecolor="#ffffff"
     bordercolor="#666666"
     borderopacity="1.0"
     inkscape:pageshadow="2"
     inkscape:pageopacity="0.0"
     inkscape:pagecheckerboard="0"
     showgrid="false"
     inkscape:zoom="0.56083124"
     inkscape:cx="2811.006"
     inkscape:cy="5531.9672"
     inkscape:window-width="1848"
     inkscape:window-height="898"
     inkscape:window-x="72"
     inkscape:window-y="27"
     inkscape:window-maximized="1"
     inkscape:current-layer="svg106" />
  <defs
     id="defs102" />
  <image
     height="6526px"
     sodipodi:insensitive="true"
     width="4875px"
     x="0"
     xlink:href="mello_2018_understanding_J3045_p1.png"
     y="0"
     id="image104" />
  <g
     id="g12819"
     transform="translate(1201.2499,1761.511)">
    <path
       style="fill:none;stroke:#000000;stroke-width:1px;stroke-linecap:butt;stroke-linejoin:miter;stroke-opacity:1"
       d="m 1232.4786,3532.6633 -162.2497,-49.9122"
       id="path223" />
    <text
       xml:space="preserve"
       style="font-size:85.3333px;line-height:1.25;font-family:sans-serif"
       x="591.50183"
       y="3450.0566"
       id="text2367"><tspan
         sodipodi:role="line"
         id="tspan2365"
         x="591.50183"
         y="3450.0566">y2: 100 uA / cm2</tspan></text>
  </g>
  <g
     id="g609">
    <path
       style="fill:none;stroke:#000000;stroke-width:1px;stroke-linecap:butt;stroke-linejoin:miter;stroke-opacity:1"
       d="m 2444.0817,5783.241 -221.0692,37.4538"
       id="path225" />
    <text
       xml:space="preserve"
       style="font-size:85.3333px;line-height:1.25;font-family:sans-serif"
       x="1674.4708"
       y="5912.7061"
       id="text6877"><tspan
         sodipodi:role="line"
         id="tspan6875"
         x="1674.4708"
         y="5912.7061">y1: -100 uA / cm2</tspan></text>
  </g>
  <g
     id="g12824"
     transform="translate(1213.3237,1749.0723)">
    <path
       style="fill:none;stroke:#000000;stroke-width:1px;stroke-linecap:butt;stroke-linejoin:miter;stroke-opacity:1"
       d="m 1353.7671,4081.8288 -1.8806,92.7316"
       id="path227" />
    <text
       xml:space="preserve"
       style="font-size:85.3333px;line-height:1.25;font-family:sans-serif"
       x="1328.7976"
       y="4229.812"
       id="text8987"><tspan
         sodipodi:role="line"
         id="tspan8985"
         x="1328.7976"
         y="4229.812">x1: 0.1 V vs RHE</tspan></text>
  </g>
  <g
     id="g12829"
     transform="translate(1213.3237,1749.0723)">
    <path
       style="fill:none;stroke:#000000;stroke-width:1px;stroke-linecap:butt;stroke-linejoin:miter;stroke-opacity:1"
       d="m 2321.9372,4081.8288 -94.55,133.7187"
       id="path229" />
    <text
       xml:space="preserve"
       style="font-size:85.3333px;line-height:1.25;font-family:sans-serif"
       x="2227.3872"
       y="4256.561"
       id="text11553"><tspan
         sodipodi:role="line"
         id="tspan11551"
         x="2227.3872"
         y="4256.561">x2: 0.9 V vs RHE</tspan></text>
  </g>
  <text
     xml:space="preserve"
     style="font-size:85.3333px;line-height:1.25;font-family:sans-serif"
     x="2787.8799"
     y="5805.2788"
     id="text25387"><tspan
       sodipodi:role="line"
       id="tspan25385"
       x="2787.8799"
       y="5805.2788">scan rate: 50 mV / s</tspan></text>
  <g
     id="g127519">
    <text
       xml:space="preserve"
       style="font-size:85.3333px;line-height:1.25;font-family:sans-serif"
       x="2529.6614"
       y="5204.4629"
       id="text15141"><tspan
         sodipodi:role="line"
         x="2529.6614"
         y="5204.4629"
         id="tspan68527">curve: Pt_(111)_H_blue</tspan></text>
    <path
       style="fill:none;stroke:#000000;stroke-width:1px;stroke-linecap:butt;stroke-linejoin:miter;stroke-opacity:1"
       d="m 2516.0081,5640.8342 v -73.1082 l 1.7761,-44.128 0.444,-33.4297 9.3766,-14.7093 10.6826,-11.1432 20.9472,-1.3414 15.619,-3.1212 17.369,-0.8899 11.5967,-1.3348 14.7049,-4.456 13.3728,-4.9074 16.9511,0.8899 20.0592,2.6762 h 11.5706 l 10.2647,-0.445 16.0369,-4.011 12.0407,-5.3524 6.2424,-0.8899 5.3543,6.6872 8.9065,10.2534 14.7049,11.5881 13.3728,4.0111 12.4848,2.6762 16.063,2.2312 14.2608,0.8899 16.037,0.445 8.9065,1.3348 13.8168,5.3524 15.619,4.456 12.4848,2.2313 h 18.257 l 21.8614,0.4449 18.257,-2.6762 18.2831,-2.2313 h 20.0592 l 22.2793,-1.3348 18.2831,0.8899 22.2793,1.3414 22.7495,1.7797 15.5928,2.2313 12.4848,1.7798 12.0408,0.4449 9.3505,-1.3348 5.3543,-0.8899 3.1082,-7.5771 2.6902,-20.5067 2.2201,-25.4076 2.2201,-20.5067 2.2462,2.2313 2.2201,24.9626 5.3544,21.3966 5.3555,23.6213 8.4886,14.7093 12.9287,12.4846 20.0592,5.7908 20.9473,4.4625 31.6298,2.2248 47.6928,1.7863 109.2287,-1.7863 114.5568,-0.8899 28.5217,-0.445 -1.332,11.1433 -18.2832,1.3348 -295.9777,3.1211 -26.3016,2.2313 -21.3912,2.6762 -11.5968,4.9009 -11.5967,6.6873 -13.3728,14.2644 -6.6864,19.6102 -5.3282,24.0728 -4.0223,20.5067 -0.8881,16.0441 -1.332,14.7093 -2.2462,-5.3458 -2.6641,-33.8812 -1.3321,-30.7535 -1.7761,-12.9295 -4.4663,-4.901 -8.0184,-3.1211 h -19.6152 l -23.1935,3.1211 -16.9249,3.1212 -34.7915,3.1212 h -26.7456 -31.6559 l -25.3874,-4.0176 -24.0815,-1.3349 h -16.9511 l -17.369,3.1212 -18.7271,4.011 -21.8353,4.456 -16.5071,0.4449 -17.8129,2.2313 -15.6191,1.7863 -13.8168,5.3459 -12.0146,4.9009 -7.1566,6.6873 -4.4402,4.9074 -5.7983,5.3459 -6.2424,5.3524 -12.4848,-1.7863 -9.3505,-2.2312 -6.2424,-2.2248 h -10.7086 l -8.4625,0.8899 -9.8207,2.6762 -10.2385,2.2247 -12.0408,0.4515 -11.1266,-0.8964 -16.063,-4.456 -12.9288,-3.1211 -22.7233,-4.456 -11.5967,0.8899 -12.0408,1.3413 -14.2608,3.1146 -7.5744,3.5662 -6.6865,4.4625 z"
       id="path125082" />
  </g>
</svg>
