<?xml version="1.0" encoding="UTF-8" standalone="no"?>
<svg
   height="6526px"
   version="1.1"
   width="4875px"
   id="svg106"
   sodipodi:docname="mello_2018_understanding_J3045_p1_F_blau.svg"
   inkscape:version="1.1.1 (eb90963e84, 2021-10-02)"
   xmlns:inkscape="http://www.inkscape.org/namespaces/inkscape"
   xmlns:sodipodi="http://sodipodi.sourceforge.net/DTD/sodipodi-0.dtd"
   xmlns:xlink="http://www.w3.org/1999/xlink"
   xmlns="http://www.w3.org/2000/svg"
   xmlns:svg="http://www.w3.org/2000/svg">
  <sodipodi:namedview
     id="namedview108"
     pagecolor="#ffffff"
     bordercolor="#666666"
     borderopacity="1.0"
     inkscape:pageshadow="2"
     inkscape:pageopacity="0.0"
     inkscape:pagecheckerboard="0"
     showgrid="false"
     inkscape:zoom="0.56083124"
     inkscape:cx="2737.9002"
     inkscape:cy="4963.1686"
     inkscape:window-width="1848"
     inkscape:window-height="898"
     inkscape:window-x="72"
     inkscape:window-y="27"
     inkscape:window-maximized="1"
     inkscape:current-layer="svg106" />
  <defs
     id="defs102" />
  <image
     height="6526px"
     sodipodi:insensitive="true"
     width="4875px"
     x="0"
     xlink:href="mello_2018_understanding_J3045_p1.png"
     y="0"
     id="image104" />
  <g
     id="g12819"
     transform="translate(1200.6907,1190.2939)">
    <path
       style="fill:none;stroke:#000000;stroke-width:1px;stroke-linecap:butt;stroke-linejoin:miter;stroke-opacity:1"
       d="m 1232.4786,3532.6633 -162.2497,-49.9122"
       id="path223" />
    <text
       xml:space="preserve"
       style="font-size:85.3333px;line-height:1.25;font-family:sans-serif"
       x="591.50183"
       y="3450.0566"
       id="text2367"><tspan
         sodipodi:role="line"
         id="tspan2365"
         x="591.50183"
         y="3450.0566">y2: 200 uA / cm2</tspan></text>
  </g>
  <g
     id="g12814"
     transform="translate(1212.2997,1142.092)">
    <path
       style="fill:none;stroke:#000000;stroke-width:1px;stroke-linecap:butt;stroke-linejoin:miter;stroke-opacity:1"
       d="m 1232.4786,4049.7405 -221.0692,37.4538"
       id="path225" />
    <text
       xml:space="preserve"
       style="font-size:85.3333px;line-height:1.25;font-family:sans-serif"
       x="471.95712"
       y="4179.2319"
       id="text6877"><tspan
         sodipodi:role="line"
         id="tspan6875"
         x="471.95712"
         y="4179.2319">y1: -200 uA / cm2</tspan></text>
  </g>
  <g
     id="g12824"
     transform="translate(1215.2762,1167.7503)">
    <path
       style="fill:none;stroke:#000000;stroke-width:1px;stroke-linecap:butt;stroke-linejoin:miter;stroke-opacity:1"
       d="m 1353.7671,4081.8288 -1.8806,92.7316"
       id="path227" />
    <text
       xml:space="preserve"
       style="font-size:85.3333px;line-height:1.25;font-family:sans-serif"
       x="1328.7976"
       y="4229.812"
       id="text8987"><tspan
         sodipodi:role="line"
         id="tspan8985"
         x="1328.7976"
         y="4229.812">x1: 0.1 V vs RHE</tspan></text>
  </g>
  <g
     id="g12829"
     transform="translate(1215.2762,1167.7503)">
    <path
       style="fill:none;stroke:#000000;stroke-width:1px;stroke-linecap:butt;stroke-linejoin:miter;stroke-opacity:1"
       d="m 2321.9372,4081.8288 -94.55,133.7187"
       id="path229" />
    <text
       xml:space="preserve"
       style="font-size:85.3333px;line-height:1.25;font-family:sans-serif"
       x="2227.3872"
       y="4256.561"
       id="text11553"><tspan
         sodipodi:role="line"
         id="tspan11551"
         x="2227.3872"
         y="4256.561">x2: 0.9 V vs RHE</tspan></text>
  </g>
  <text
     xml:space="preserve"
     style="font-size:85.3333px;line-height:1.25;font-family:sans-serif"
     x="2803.2461"
     y="5202.6099"
     id="text25387"><tspan
       sodipodi:role="line"
       id="tspan25385"
       x="2803.2461"
       y="5202.6099">scan rate: 50 mV / s</tspan></text>
  <g
     id="g96332">
    <text
       xml:space="preserve"
       style="font-size:85.3333px;line-height:1.25;font-family:sans-serif"
       x="2585.2153"
       y="4644.6562"
       id="text15141"><tspan
         sodipodi:role="line"
         x="2585.2153"
         y="4644.6562"
         id="tspan68527">curve: Pt_(111)_F_blue</tspan></text>
    <path
       style="fill:none;stroke:#000000;stroke-width:1px;stroke-linecap:butt;stroke-linejoin:miter;stroke-opacity:1"
       d="m 2502.6171,5012.3027 1.3582,-34.771 2.2201,-26.7425 6.6864,-12.0331 11.1527,-8.0286 18.701,-5.7908 22.3054,-1.7863 31.1858,-2.2248 29.4358,-1.7863 35.6521,-3.5661 23.6375,-2.6762 15.5929,-6.6807 8.9065,-10.2533 12.0408,-19.1719 8.4624,-23.6213 6.6864,-17.3855 4.9104,-4.456 4.9103,-0.4449 4.9103,7.1322 7.5744,16.4891 8.4625,23.1829 13.3728,26.2974 12.0408,15.5993 17.369,8.4735 16.507,4.0111 16.0369,1.3348 22.2793,2.6762 h 15.175 l 25.4136,1.3348 11.1265,-1.3348 7.1305,-1.7863 3.5782,-5.7908 2.2202,-8.0286 1.332,-16.9341 3.5782,-15.1543 3.5522,-1.7863 1.8022,16.9406 2.6641,14.2644 5.7984,16.4891 7.5744,7.1322 16.0369,7.1322 8.0446,1.7863 323.6348,1.7797 232.6658,-0.8898 0.4441,5.7973 -498.3459,-0.8964 -49.0522,3.5661 -25.4135,3.1211 -12.0146,4.0111 -8.9327,7.1322 -6.6864,9.3634 -2.22,8.912 -5.7984,18.2754 -1.7761,19.1718 -2.6902,12.4781 -2.2201,-11.5882 -0.888,-24.9626 -0.4441,-14.2644 -2.2201,-9.8084 -4.9103,-3.5661 -8.4625,-2.2247 -19.1712,-0.445 -23.1934,0.8899 -18.2831,1.3349 -30.7418,5.3524 -15.1489,4.011 -12.9288,8.912 -14.2608,15.1608 -8.9326,14.2644 -7.5745,16.934 -6.6864,13.3745 -4.9103,14.7093 -4.8842,5.7974 -4.0223,4.011 h -4.4663 l -5.7722,-12.4846 -9.3767,-27.1874 -9.7945,-21.3965 -12.0407,-12.4846 -14.7049,-5.7909 -15.619,-1.7863 -15.1489,-0.4449 -19.6152,-0.8899 -16.0369,-2.6762 h -19.1712 -21.3912 l -19.6152,-0.445 -15.1489,1.3349 -15.175,2.6762 -11.1266,5.7973 z"
       id="path96247" />
  </g>
</svg>
