<?xml version="1.0" encoding="UTF-8" standalone="no"?>
<svg
   height="6526px"
   version="1.1"
   width="4875px"
   id="svg106"
   sodipodi:docname="mello_2018_understanding_J3045_p1_D_blue.svg"
   inkscape:version="1.1.1 (eb90963e84, 2021-10-02)"
   xmlns:inkscape="http://www.inkscape.org/namespaces/inkscape"
   xmlns:sodipodi="http://sodipodi.sourceforge.net/DTD/sodipodi-0.dtd"
   xmlns:xlink="http://www.w3.org/1999/xlink"
   xmlns="http://www.w3.org/2000/svg"
   xmlns:svg="http://www.w3.org/2000/svg">
  <sodipodi:namedview
     id="namedview108"
     pagecolor="#ffffff"
     bordercolor="#666666"
     borderopacity="1.0"
     inkscape:pageshadow="2"
     inkscape:pageopacity="0.0"
     inkscape:pagecheckerboard="0"
     showgrid="false"
     inkscape:zoom="0.56083124"
     inkscape:cx="2675.4929"
     inkscape:cy="4440.7298"
     inkscape:window-width="1848"
     inkscape:window-height="898"
     inkscape:window-x="72"
     inkscape:window-y="27"
     inkscape:window-maximized="1"
     inkscape:current-layer="svg106" />
  <defs
     id="defs102" />
  <image
     height="6526px"
     sodipodi:insensitive="true"
     width="4875px"
     x="0"
     xlink:href="mello_2018_understanding_J3045_p1.png"
     y="0"
     id="image104" />
  <g
     id="g12819"
     transform="translate(1198.382,645.12308)">
    <path
       style="fill:none;stroke:#000000;stroke-width:1px;stroke-linecap:butt;stroke-linejoin:miter;stroke-opacity:1"
       d="m 1232.4786,3532.6633 -162.2497,-49.9122"
       id="path223" />
    <text
       xml:space="preserve"
       style="font-size:85.3333px;line-height:1.25;font-family:sans-serif"
       x="591.50183"
       y="3450.0566"
       id="text2367"><tspan
         sodipodi:role="line"
         id="tspan2365"
         x="591.50183"
         y="3450.0566">y2: 200 uA/cm2</tspan></text>
  </g>
  <g
     id="g12814"
     transform="translate(1212.7822,517.79337)">
    <path
       style="fill:none;stroke:#000000;stroke-width:1px;stroke-linecap:butt;stroke-linejoin:miter;stroke-opacity:1"
       d="m 1232.4786,4049.7405 -221.0692,37.4538"
       id="path225" />
    <text
       xml:space="preserve"
       style="font-size:85.3333px;line-height:1.25;font-family:sans-serif"
       x="471.95712"
       y="4179.2319"
       id="text6877"><tspan
         sodipodi:role="line"
         id="tspan6875"
         x="471.95712"
         y="4179.2319">y1: -200 uA/cm2</tspan></text>
  </g>
  <g
     id="g12824"
     transform="translate(1211.7587,583.34596)">
    <path
       style="fill:none;stroke:#000000;stroke-width:1px;stroke-linecap:butt;stroke-linejoin:miter;stroke-opacity:1"
       d="m 1353.7671,4081.8288 -1.8806,92.7316"
       id="path227" />
    <text
       xml:space="preserve"
       style="font-size:85.3333px;line-height:1.25;font-family:sans-serif"
       x="1328.7976"
       y="4229.812"
       id="text8987"><tspan
         sodipodi:role="line"
         id="tspan8985"
         x="1328.7976"
         y="4229.812">x1: 0.1 V vs RHE</tspan></text>
  </g>
  <g
     id="g12829"
     transform="translate(1211.7587,583.34596)">
    <path
       style="fill:none;stroke:#000000;stroke-width:1px;stroke-linecap:butt;stroke-linejoin:miter;stroke-opacity:1"
       d="m 2321.9372,4081.8288 -94.55,133.7187"
       id="path229" />
    <text
       xml:space="preserve"
       style="font-size:85.3333px;line-height:1.25;font-family:sans-serif"
       x="2227.3872"
       y="4256.561"
       id="text11553"><tspan
         sodipodi:role="line"
         id="tspan11551"
         x="2227.3872"
         y="4256.561">x2: 0.9 V vs RHE</tspan></text>
  </g>
  <text
     xml:space="preserve"
     style="font-size:85.3333px;line-height:1.25;font-family:sans-serif"
     x="2823.4141"
     y="4613.7837"
     id="text25387"><tspan
       sodipodi:role="line"
       id="tspan25385"
       x="2823.4141"
       y="4613.7837">scan rate: 50 mV/s</tspan></text>
  <g
     id="g80673">
    <text
       xml:space="preserve"
       style="font-size:85.3333px;line-height:1.25;font-family:sans-serif"
       x="2496.3848"
       y="4074.782"
       id="text15141"><tspan
         sodipodi:role="line"
         x="2496.3848"
         y="4074.782"
         id="tspan68527">curve: Pt_(111)_D_blue</tspan></text>
    <path
       style="fill:none;stroke:#000000;stroke-width:1px;stroke-linecap:butt;stroke-linejoin:miter;stroke-opacity:1"
       d="m 2516.7311,4421.8389 1.8838,-36.5703 0.6279,-23.3191 3.8046,-13.8712 11.9677,-6.3017 12.5957,-1.2585 27.1121,1.2585 13.8516,-0.6292 15.1444,-3.7847 13.8515,-5.0433 11.3768,-1.8877 11.3398,3.1462 11.9677,0.6293 14.5165,-5.6725 9.456,-7.5602 8.2001,-15.7589 7.5352,-19.5436 4.4325,-20.1729 6.9443,-25.2161 3.7676,-13.2419 3.7677,-6.3017 3.1766,-0.6293 3.1397,6.3017 4.3955,12.6127 2.5487,13.2327 5.0235,21.4313 7.5722,29.6301 8.8281,21.4314 11.3398,14.5004 15.1443,10.0864 15.7354,4.414 21.4607,3.1555 h 11.9678 l 10.0839,-0.6293 5.6884,-2.5262 3.7676,-13.2327 1.8838,-9.4572 1.8838,-5.0432 3.1766,5.0432 6.2794,14.5004 6.3163,12.6035 13.2236,6.3017 20.2049,3.1555 20.7957,1.2584 92.0449,1.8878 524.4756,-1.2585 v 5.0432 h -578.0719 l -34.6474,1.897 -32.8005,3.1462 -22.0516,3.1555 -9.456,4.414 -5.1185,5.9186 -7.5722,12.6034 -3.7861,8.5133 -4.0816,8.8233 -2.5302,-0.9438 -2.5302,-16.7074 -1.5698,-11.0303 -3.1582,-3.1509 -13.8516,-0.3146 -22.6981,1.5731 -18.284,4.414 -17.0282,10.7156 -15.4399,19.8583 -8.828,19.5436 -7.8677,27.4185 -6.3163,23.9576 -5.6699,14.5004 -4.1001,12.6034 -3.1397,4.414 -2.8442,-1.5731 -2.5302,-5.6771 -4.414,-21.4314 -7.2398,-41.6042 -5.9839,-17.9659 -6.9442,-14.5004 -8.8281,-8.1941 -10.7118,-3.1555 -13.2421,2.207 -15.1197,1.8924 -7.5722,-2.5216 -11.3398,-4.0994 -14.184,-3.7801 h -17.0282 l -15.4399,0.6293 -12.6142,0.9484 -11.6537,3.1509 -9.77,4.7286 z"
       id="path76693" />
  </g>
</svg>
