<?xml version="1.0" encoding="UTF-8" standalone="no"?>
<svg
   height="6526px"
   version="1.1"
   width="4875px"
   id="svg106"
   sodipodi:docname="mello_2018_understanding_J3045_p1_f1B_black.svg"
   inkscape:version="1.1.1 (eb90963e84, 2021-10-02)"
   xmlns:inkscape="http://www.inkscape.org/namespaces/inkscape"
   xmlns:sodipodi="http://sodipodi.sourceforge.net/DTD/sodipodi-0.dtd"
   xmlns:xlink="http://www.w3.org/1999/xlink"
   xmlns="http://www.w3.org/2000/svg"
   xmlns:svg="http://www.w3.org/2000/svg">
  <sodipodi:namedview
     id="namedview108"
     pagecolor="#ffffff"
     bordercolor="#666666"
     borderopacity="1.0"
     inkscape:pageshadow="2"
     inkscape:pageopacity="0.0"
     inkscape:pagecheckerboard="0"
     showgrid="false"
     inkscape:zoom="0.39656758"
     inkscape:cx="2691.8489"
     inkscape:cy="3806.4131"
     inkscape:window-width="1848"
     inkscape:window-height="898"
     inkscape:window-x="72"
     inkscape:window-y="27"
     inkscape:window-maximized="1"
     inkscape:current-layer="svg106" />
  <defs
     id="defs102" />
  <image
     height="6526px"
     sodipodi:insensitive="true"
     width="4875px"
     x="0"
     xlink:href="mello_2018_understanding_J3045_p1.png"
     y="0"
     id="image104" />
  <g
     id="g12819"
     transform="translate(1213.2244,4.237986)">
    <path
       style="fill:none;stroke:#000000;stroke-width:1px;stroke-linecap:butt;stroke-linejoin:miter;stroke-opacity:1"
       d="m 1232.4786,3532.6633 -162.2497,-49.9122"
       id="path223" />
    <text
       xml:space="preserve"
       style="font-size:85.3333px;line-height:1.25;font-family:sans-serif"
       x="591.50183"
       y="3450.0566"
       id="text2367"><tspan
         sodipodi:role="line"
         id="tspan2365"
         x="591.50183"
         y="3450.0566">j2: 400 uA / cm2</tspan></text>
  </g>
  <g
     id="g12814"
     transform="translate(1213.2244,4.237986)">
    <path
       style="fill:none;stroke:#000000;stroke-width:1px;stroke-linecap:butt;stroke-linejoin:miter;stroke-opacity:1"
       d="m 1232.4786,4049.7405 -221.0692,37.4538"
       id="path225" />
    <text
       xml:space="preserve"
       style="font-size:85.3333px;line-height:1.25;font-family:sans-serif"
       x="471.95712"
       y="4179.2319"
       id="text6877"><tspan
         sodipodi:role="line"
         id="tspan6875"
         x="471.95712"
         y="4179.2319">j1: -400 uA / cm2</tspan></text>
  </g>
  <g
     id="g12824"
     transform="translate(1213.2244,4.237986)">
    <path
       style="fill:none;stroke:#000000;stroke-width:1px;stroke-linecap:butt;stroke-linejoin:miter;stroke-opacity:1"
       d="m 1353.7671,4081.8288 -1.8806,92.7316"
       id="path227" />
    <text
       xml:space="preserve"
       style="font-size:85.3333px;line-height:1.25;font-family:sans-serif"
       x="1328.7976"
       y="4229.812"
       id="text8987"><tspan
         sodipodi:role="line"
         id="tspan8985"
         x="1328.7976"
         y="4229.812">E1: 0.1 V vs RHE</tspan></text>
  </g>
  <g
     id="g12829"
     transform="translate(1213.2244,4.237986)">
    <path
       style="fill:none;stroke:#000000;stroke-width:1px;stroke-linecap:butt;stroke-linejoin:miter;stroke-opacity:1"
       d="m 2321.9372,4081.8288 -94.55,133.7187"
       id="path229" />
    <text
       xml:space="preserve"
       style="font-size:85.3333px;line-height:1.25;font-family:sans-serif"
       x="2227.3872"
       y="4256.561"
       id="text11553"><tspan
         sodipodi:role="line"
         id="tspan11551"
         x="2227.3872"
         y="4256.561">E2: 0.9 V vs RHE</tspan></text>
  </g>
  <text
     xml:space="preserve"
     style="font-size:85.3333px;line-height:1.25;font-family:sans-serif"
     x="2778.9761"
     y="4051.6394"
     id="text25387"><tspan
       sodipodi:role="line"
       id="tspan25385"
       x="2778.9761"
       y="4051.6394">scan rate: 50 mV / s</tspan></text>
  <g
     id="g50806">
    <text
       xml:space="preserve"
       style="font-size:85.3333px;line-height:1.25;font-family:sans-serif"
       x="2517.8291"
       y="3221.7373"
       id="text15141"><tspan
         sodipodi:role="line"
         x="2517.8291"
         y="3221.7373"
         id="tspan35807">curve: Pt_(111)_B_black</tspan></text>
    <path
       style="fill:none;stroke:#000000;stroke-width:1px;stroke-linecap:butt;stroke-linejoin:miter;stroke-opacity:1"
       d="m 2513.5104,3822.8728 -0.3139,-19.2244 0.3139,-17.6513 1.8838,-7.2502 6.0024,-3.7801 11.9677,-1.5777 16.0863,-0.9439 15.7539,-1.2631 9.7699,-2.207 6.9258,-3.1509 3.4721,-0.9438 7.8862,1.8877 4.728,1.8924 12.9096,1.8923 13.2421,-0.3146 21.4422,-0.3146 22.6981,0.3146 15.4399,-0.9485 15.1259,-0.9439 11.9862,-0.3146 9.456,-0.9438 7.8677,-0.3193 h 11.0259 l 11.3582,3.4701 18.2841,2.5216 12.9097,0.6293 20.5003,1.8923 12.9281,0.6293 16.3818,1.5777 12.3002,2.2024 16.3818,1.8923 14.8119,0.9485 12.3002,0.6293 132.066,1.5731 137.74,-0.3146 96.7791,-2.8363 50.1242,-1.8923 34.0379,-0.9439 25.8378,-2.5216 18.912,-4.7286 13.87,-5.3578 9.142,-6.9356 6.2978,-5.6725 6.3164,-1.5731 5.9838,5.9871 10.084,11.9788 11.0258,5.9871 17.0282,5.9871 13.2421,1.2631 14.498,1.2585 13.87,1.2631 17.9701,0.9439 10.0839,-0.3147 1.2559,5.0433 -4.728,1.8923 -6.9258,1.5731 -17.0282,0.9485 -32.468,1.5731 -18.2841,2.8363 -11.9678,4.7286 -8.514,6.6209 -5.042,4.414 -7.2582,7.8794 -3.1397,5.3579 -2.5302,2.207 -4.728,-0.6339 -4.728,-6.931 -8.5141,-8.8279 -15.7539,-5.9871 -22.3841,-4.0993 -28.6819,-2.207 -36.8637,-1.8878 -27.74,-0.9484 -58.3243,-4.4094 -26.7797,-1.5777 -30.8983,0.3146 -28.9959,1.2631 -109.0619,0.3146 -52.6359,1.5731 -25.5423,0.9485 -48.5359,2.5216 -15.7538,1.5732 -16.7143,2.8362 -21.4237,3.1555 -17.3422,0.3146 -15.1259,-0.3146 -16.7142,0.6292 -20.1824,0.9439 -16.6957,1.5777 -10.7119,2.5216 -10.4164,2.207 -7.5537,1.5731 -8.5141,-0.3146 -10.3979,-0.9438 -16.0863,-1.2632 -18.2656,-0.9438 -18.912,-0.6293 -22.698,0.6293 -17.9701,-0.3147 -9.1421,1.5778 -6.6118,1.8877 -5.9838,0.9485 -10.1025,-1.2631 -8.8095,-1.8924 -11.6723,-0.3146 -23.326,3.1555 -6.9258,2.2023 z"
       id="path50721" />
  </g>
</svg>
