<?xml version="1.0" encoding="UTF-8" standalone="no"?>
<svg
   height="6526px"
   version="1.1"
   width="4875px"
   id="svg106"
   sodipodi:docname="mello_2018_understanding_j3045_p1_f1g_green.svg"
   inkscape:version="1.1.2 (b8e25be833, 2022-02-05)"
   xmlns:inkscape="http://www.inkscape.org/namespaces/inkscape"
   xmlns:sodipodi="http://sodipodi.sourceforge.net/DTD/sodipodi-0.dtd"
   xmlns:xlink="http://www.w3.org/1999/xlink"
   xmlns="http://www.w3.org/2000/svg"
   xmlns:svg="http://www.w3.org/2000/svg">
  <sodipodi:namedview
     id="namedview108"
     pagecolor="#ffffff"
     bordercolor="#666666"
     borderopacity="1.0"
     inkscape:pageshadow="2"
     inkscape:pageopacity="0.0"
     inkscape:pagecheckerboard="0"
     showgrid="false"
     inkscape:zoom="0.39656758"
     inkscape:cx="-491.71947"
     inkscape:cy="5666.1213"
     inkscape:window-width="1920"
     inkscape:window-height="1017"
     inkscape:window-x="-8"
     inkscape:window-y="32"
     inkscape:window-maximized="1"
     inkscape:current-layer="svg106" />
  <defs
     id="defs102" />
  <image
     height="6526px"
     sodipodi:insensitive="true"
     width="4875px"
     x="0"
     xlink:href="mello_2018_understanding_j3045_p1.png"
     y="0"
     id="image104" />
  <g
     id="g12819"
     transform="translate(-11.165135,1761.3751)">
    <path
       style="fill:none;stroke:#000000;stroke-width:1px;stroke-linecap:butt;stroke-linejoin:miter;stroke-opacity:1"
       d="m 1232.4786,3532.6633 -162.2497,-49.9122"
       id="path223" />
    <text
       xml:space="preserve"
       style="font-size:85.3333px;line-height:1.25;font-family:sans-serif"
       x="591.50183"
       y="3450.0566"
       id="text2367"><tspan
         sodipodi:role="line"
         id="tspan2365"
         x="591.50183"
         y="3450.0566">j2: 100 uA / cm2</tspan></text>
  </g>
  <g
     id="g1251">
    <path
       style="fill:none;stroke:#000000;stroke-width:1px;stroke-linecap:butt;stroke-linejoin:miter;stroke-opacity:1"
       d="m 1231.6666,5783.1051 -221.0692,37.4538"
       id="path225" />
    <text
       xml:space="preserve"
       style="font-size:85.3333px;line-height:1.25;font-family:sans-serif"
       x="471.14508"
       y="5912.5967"
       id="text6877"><tspan
         sodipodi:role="line"
         id="tspan6875"
         x="471.14508"
         y="5912.5967">j1: -100 uA / cm2</tspan></text>
  </g>
  <g
     id="g12824"
     transform="translate(0.9085774,1748.9364)">
    <path
       style="fill:none;stroke:#000000;stroke-width:1px;stroke-linecap:butt;stroke-linejoin:miter;stroke-opacity:1"
       d="m 1353.7671,4081.8288 -1.8806,92.7316"
       id="path227" />
    <text
       xml:space="preserve"
       style="font-size:85.3333px;line-height:1.25;font-family:sans-serif"
       x="1328.7976"
       y="4229.812"
       id="text8987"><tspan
         sodipodi:role="line"
         id="tspan8985"
         x="1328.7976"
         y="4229.812">E1: 0.1 V vs RHE</tspan></text>
  </g>
  <g
     id="g12829"
     transform="translate(0.9085774,1748.9364)">
    <path
       style="fill:none;stroke:#000000;stroke-width:1px;stroke-linecap:butt;stroke-linejoin:miter;stroke-opacity:1"
       d="m 2321.9372,4081.8288 -94.55,133.7187"
       id="path229" />
    <text
       xml:space="preserve"
       style="font-size:85.3333px;line-height:1.25;font-family:sans-serif"
       x="2227.3872"
       y="4256.561"
       id="text11553"><tspan
         sodipodi:role="line"
         id="tspan11551"
         x="2227.3872"
         y="4256.561">E2: 0.9 V vs RHE</tspan></text>
  </g>
  <text
     xml:space="preserve"
     style="font-size:85.3333px;line-height:1.25;font-family:sans-serif"
     x="1612.9722"
     y="5810.313"
     id="text25387"><tspan
       sodipodi:role="line"
       id="tspan25385"
       x="1612.9722"
       y="5810.313">scan rate: 50 mV / s</tspan></text>
  <g
     id="g122142">
    <text
       xml:space="preserve"
       style="font-size:85.3333px;line-height:1.25;font-family:sans-serif"
       x="1304.223"
       y="5234.7407"
       id="text15141"><tspan
         sodipodi:role="line"
         x="1304.223"
         y="5234.7407"
         id="tspan68527">curve: green</tspan></text>
    <path
       style="fill:none;stroke:#000000;stroke-width:1px;stroke-linecap:butt;stroke-linejoin:miter;stroke-opacity:1"
       d="m 1306.9557,5629.0676 -0.6279,-58.6309 1.9207,-49.1644 2.5118,-27.1131 2.5117,-12.6034 12.5957,-11.345 13.8885,-5.6724 13.8516,-3.1555 32.8005,-3.1555 18.912,-1.2585 13.8515,-1.8877 24.6004,-5.6725 5.6514,-1.897 14.5165,0.6293 h 13.2236 l 12.0047,-2.517 9.456,-10.0865 10.0839,-18.2851 6.2794,-23.9483 7.5722,-27.7424 5.6884,-31.5178 5.0235,-20.8021 3.1766,-9.4572 3.7676,-1.2585 5.0235,3.7755 5.0604,17.6559 8.2002,33.4148 5.0235,28.3623 5.0604,23.3283 8.2002,28.3624 8.828,18.2851 17.6561,20.1729 20.7958,10.0864 23.9356,5.0433 37.824,5.0432 23.9724,1.2585 13.2236,-3.1555 6.3163,-6.3018 3.1397,-22.6898 3.8046,-39.7165 1.2559,-19.5436 -0.628,-12.6034 3.1397,-1.2678 3.1396,17.0266 0.628,25.8454 3.8046,32.147 3.1397,20.1729 6.9442,17.0174 10.084,14.5004 13.8515,5.0433 21.4607,5.6724 23.9355,1.2678 28.368,1.8877 45.5124,1.2585 153.6942,0.6292 h 17.0283 l 23.3444,-2.517 25.1914,-1.8969 h 26.4842 21.4238 l 46.652,1.8969 64.9361,0.6293 40.9637,-0.6293 -0.628,9.4572 -19.5399,0.6293 -49.7917,0.6292 -127.3236,2.517 -102.7601,-2.517 h -95.8158 l -54.2243,1.2585 -50.4197,1.2585 -22.0886,1.897 -16.3633,2.517 -15.1454,5.683 -10.0839,7.5602 -8.8281,14.5004 -4.4325,18.2759 -5.497,38.4953 -4.0222,28.9737 -1.7761,48.584 h -3.5783 v -55.2712 l -2.2201,-38.3372 -1.332,-26.7424 -6.2424,-10.2534 -14.2609,-2.2312 -18.7271,-0.445 -34.32,4.9075 -20.9473,3.5661 -19.6152,6.2358 -12.0407,6.6872 -12.0408,12.0397 -15.1488,21.8415 -7.5745,21.3965 -9.3766,28.0773 -8.4625,35.216 -6.6864,27.1939 -4.4569,12.927 -4.9103,4.9009 h -5.7984 l -3.9962,-14.2644 -5.3543,-27.1873 -5.3544,-28.5288 -7.5744,-29.4187 -8.0185,-20.9516 -11.5967,-10.2533 -8.9065,-4.011 h -10.7087 -17.813 l -11.1527,-0.445 -15.1489,-4.9075 -22.3054,-3.1146 -26.3016,-0.4515 h -17.813 -14.7048 l -13.3728,0.4515 -8.0446,2.6697 z"
       id="path122057" />
  </g>
  <text
     xml:space="preserve"
     style="font-size:80px;line-height:1.25;font-family:sans-serif;-inkscape-font-specification:sans-serif;letter-spacing:0px;word-spacing:0px"
     x="-774.14294"
     y="5217.2695"
     id="text2529"><tspan
       sodipodi:role="line"
       id="tspan2527"
       x="-774.14294"
       y="5217.2695">Figure: 1g</tspan></text>
  <text
     xml:space="preserve"
     style="font-size:80px;line-height:1.25;font-family:sans-serif;-inkscape-font-specification:sans-serif;letter-spacing:0px;word-spacing:0px"
     x="-759.01312"
     y="5338.3081"
     id="text3677"><tspan
       sodipodi:role="line"
       id="tspan3675"
       x="-759.01312"
       y="5338.3081">Tags: BCV</tspan></text>
</svg>
