<?xml version="1.0" encoding="UTF-8" standalone="no"?>
<svg
   height="6526px"
   version="1.1"
   width="4875px"
   id="svg106"
   sodipodi:docname="mello_2018_understanding_J3045_p1_f1E_green.svg"
   inkscape:version="1.1.1 (eb90963e84, 2021-10-02)"
   xmlns:inkscape="http://www.inkscape.org/namespaces/inkscape"
   xmlns:sodipodi="http://sodipodi.sourceforge.net/DTD/sodipodi-0.dtd"
   xmlns:xlink="http://www.w3.org/1999/xlink"
   xmlns="http://www.w3.org/2000/svg"
   xmlns:svg="http://www.w3.org/2000/svg">
  <sodipodi:namedview
     id="namedview108"
     pagecolor="#ffffff"
     bordercolor="#666666"
     borderopacity="1.0"
     inkscape:pageshadow="2"
     inkscape:pageopacity="0.0"
     inkscape:pagecheckerboard="0"
     showgrid="false"
     inkscape:zoom="0.79313515"
     inkscape:cx="1711.562"
     inkscape:cy="5003.5609"
     inkscape:window-width="1848"
     inkscape:window-height="898"
     inkscape:window-x="72"
     inkscape:window-y="27"
     inkscape:window-maximized="1"
     inkscape:current-layer="svg106" />
  <defs
     id="defs102" />
  <image
     height="6526px"
     sodipodi:insensitive="true"
     width="4875px"
     x="0"
     xlink:href="mello_2018_understanding_J3045_p1.png"
     y="0"
     id="image104" />
  <g
     id="g12819"
     transform="translate(-11.846578,1187.7653)">
    <path
       style="fill:none;stroke:#000000;stroke-width:1px;stroke-linecap:butt;stroke-linejoin:miter;stroke-opacity:1"
       d="m 1232.4786,3532.6633 -162.2497,-49.9122"
       id="path223" />
    <text
       xml:space="preserve"
       style="font-size:85.3333px;line-height:1.25;font-family:sans-serif"
       x="591.50183"
       y="3450.0566"
       id="text2367"><tspan
         sodipodi:role="line"
         id="tspan2365"
         x="591.50183"
         y="3450.0566">j2: 200 uA / cm2</tspan></text>
  </g>
  <g
     id="g12814"
     transform="translate(-0.2375996,1139.5634)">
    <path
       style="fill:none;stroke:#000000;stroke-width:1px;stroke-linecap:butt;stroke-linejoin:miter;stroke-opacity:1"
       d="m 1232.4786,4049.7405 -221.0692,37.4538"
       id="path225" />
    <text
       xml:space="preserve"
       style="font-size:85.3333px;line-height:1.25;font-family:sans-serif"
       x="471.95712"
       y="4179.2319"
       id="text6877"><tspan
         sodipodi:role="line"
         id="tspan6875"
         x="471.95712"
         y="4179.2319">j1: -200 uA / cm2</tspan></text>
  </g>
  <g
     id="g12824"
     transform="translate(2.7389004,1165.2217)">
    <path
       style="fill:none;stroke:#000000;stroke-width:1px;stroke-linecap:butt;stroke-linejoin:miter;stroke-opacity:1"
       d="m 1353.7671,4081.8288 -1.8806,92.7316"
       id="path227" />
    <text
       xml:space="preserve"
       style="font-size:85.3333px;line-height:1.25;font-family:sans-serif"
       x="1328.7976"
       y="4229.812"
       id="text8987"><tspan
         sodipodi:role="line"
         id="tspan8985"
         x="1328.7976"
         y="4229.812">E1: 0.1 V vs RHE</tspan></text>
  </g>
  <g
     id="g12829"
     transform="translate(2.7389004,1165.2217)">
    <path
       style="fill:none;stroke:#000000;stroke-width:1px;stroke-linecap:butt;stroke-linejoin:miter;stroke-opacity:1"
       d="m 2321.9372,4081.8288 -94.55,133.7187"
       id="path229" />
    <text
       xml:space="preserve"
       style="font-size:85.3333px;line-height:1.25;font-family:sans-serif"
       x="2227.3872"
       y="4256.561"
       id="text11553"><tspan
         sodipodi:role="line"
         id="tspan11551"
         x="2227.3872"
         y="4256.561">E2: 0.9 V vs RHE</tspan></text>
  </g>
  <text
     xml:space="preserve"
     style="font-size:85.3333px;line-height:1.25;font-family:sans-serif"
     x="1537.3979"
     y="5203.8682"
     id="text25387"><tspan
       sodipodi:role="line"
       id="tspan25385"
       x="1537.3979"
       y="5203.8682">scan rate: 50 mV / s</tspan></text>
  <g
     id="g91838">
    <text
       xml:space="preserve"
       style="font-size:85.3333px;line-height:1.25;font-family:sans-serif"
       x="1326.5004"
       y="4644.6562"
       id="text15141"><tspan
         sodipodi:role="line"
         x="1326.5004"
         y="4644.6562"
         id="tspan68527">curve: Pt_(111)_E_green</tspan></text>
    <path
       style="fill:none;stroke:#000000;stroke-width:1px;stroke-linecap:butt;stroke-linejoin:miter;stroke-opacity:1"
       d="m 1301.2931,5007.4828 0.6279,-36.5611 1.2559,-25.2161 3.8046,-15.7589 11.9677,-7.5694 11.9678,-4.414 17.6561,0.6385 22.7165,-3.1555 21.4238,-3.7847 17.0282,-3.1463 12.5957,-1.2677 13.8515,-4.4139 10.7119,-8.8187 6.9442,-14.5005 6.9443,-19.5436 6.3163,-29.6301 6.2794,-32.147 5.0604,-28.3716 1.2559,-15.1296 5.6884,-20.8022 4.3955,1.2678 5.6884,15.1296 3.1397,25.2069 4.3956,26.4838 6.3163,41.6043 8.828,39.7165 8.2002,18.9051 11.3398,16.3974 13.2236,7.5602 22.0886,8.1987 h 17.6561 l 12.5957,-1.897 6.3164,-5.6724 1.8838,-46.0183 4.3955,-47.9059 1.8838,-1.2678 v 27.7424 l 0.6649,46.0182 1.8838,6.9309 3.7676,10.0865 v 7.5694 l 5.0605,8.8187 11.9677,8.1987 13.8516,2.5263 26.4842,2.5169 h 27.1121 l 265.4197,1.2585 14.4795,-1.8877 7.5722,-2.5262 13.8516,0.6385 13.2606,2.5169 39.7078,0.6293 259.0796,-1.2585 -1.2559,6.3017 h -622.8032 l -20.8327,1.2585 -20.1679,1.897 -17.6561,3.1462 -11.9678,5.0432 -8.828,6.311 -4.3956,12.6034 -3.1766,17.0174 -2.5118,23.9576 -0.6279,68.0881 h -3.1397 l -1.9207,-39.0872 -1.2559,-74.3898 -4.3956,-3.7755 -17.6561,-3.7848 -23.3075,3.7848 -11.3768,5.0432 -17.6192,12.6034 -13.2605,23.3284 -7.5722,25.2161 -6.2794,23.9483 -6.3172,29.6314 -5.6883,24.5868 -3.7677,24.5869 -4.4325,22.0606 -4.3955,8.8279 -3.7677,-1.2585 -3.8045,-27.7423 -6.3163,-40.3458 -3.7677,-38.4487 -6.3163,-27.1038 -5.6514,-20.8114 -11.3398,-15.1297 -21.4607,-5.0432 -23.9355,-4.4047 -20.1679,-2.5263 -17.6561,-1.8877 -20.7958,1.8877 -13.8885,3.7848 -7.5722,4.414 z"
       id="path91753" />
  </g>
</svg>
