<?xml version="1.0" encoding="UTF-8" standalone="no"?>
<svg
   height="6526px"
   version="1.1"
   width="4875px"
   id="svg106"
   sodipodi:docname="mello_2018_understanding_j3045_p1_f1g_black.svg"
   inkscape:version="1.1.1 (eb90963e84, 2021-10-02)"
   xmlns:inkscape="http://www.inkscape.org/namespaces/inkscape"
   xmlns:sodipodi="http://sodipodi.sourceforge.net/DTD/sodipodi-0.dtd"
   xmlns:xlink="http://www.w3.org/1999/xlink"
   xmlns="http://www.w3.org/2000/svg"
   xmlns:svg="http://www.w3.org/2000/svg">
  <sodipodi:namedview
     id="namedview108"
     pagecolor="#ffffff"
     bordercolor="#666666"
     borderopacity="1.0"
     inkscape:pageshadow="2"
     inkscape:pageopacity="0.0"
     inkscape:pagecheckerboard="0"
     showgrid="false"
     inkscape:zoom="0.56083124"
     inkscape:cx="1550.3773"
     inkscape:cy="5558.7132"
     inkscape:window-width="1848"
     inkscape:window-height="898"
     inkscape:window-x="72"
     inkscape:window-y="27"
     inkscape:window-maximized="1"
     inkscape:current-layer="svg106" />
  <defs
     id="defs102" />
  <image
     height="6526px"
     sodipodi:insensitive="true"
     width="4875px"
     x="0"
     xlink:href="mello_2018_understanding_j3045_p1.png"
     y="0"
     id="image104" />
  <g
     id="g12819"
     transform="translate(-11.165135,1761.3751)">
    <path
       style="fill:none;stroke:#000000;stroke-width:1px;stroke-linecap:butt;stroke-linejoin:miter;stroke-opacity:1"
       d="m 1232.4786,3532.6633 -162.2497,-49.9122"
       id="path223" />
    <text
       xml:space="preserve"
       style="font-size:85.3333px;line-height:1.25;font-family:sans-serif"
       x="591.50183"
       y="3450.0566"
       id="text2367"><tspan
         sodipodi:role="line"
         id="tspan2365"
         x="591.50183"
         y="3450.0566">j2: 100 uA / cm2</tspan></text>
  </g>
  <g
     id="g1893">
    <path
       style="fill:none;stroke:#000000;stroke-width:1px;stroke-linecap:butt;stroke-linejoin:miter;stroke-opacity:1"
       d="m 1231.6666,5783.1051 -221.0692,37.4538"
       id="path225" />
    <text
       xml:space="preserve"
       style="font-size:85.3333px;line-height:1.25;font-family:sans-serif"
       x="471.14508"
       y="5912.5967"
       id="text6877"><tspan
         sodipodi:role="line"
         id="tspan6875"
         x="471.14508"
         y="5912.5967">j1: -100 uA / cm2</tspan></text>
  </g>
  <g
     id="g12824"
     transform="translate(0.9085774,1748.9364)">
    <path
       style="fill:none;stroke:#000000;stroke-width:1px;stroke-linecap:butt;stroke-linejoin:miter;stroke-opacity:1"
       d="m 1353.7671,4081.8288 -1.8806,92.7316"
       id="path227" />
    <text
       xml:space="preserve"
       style="font-size:85.3333px;line-height:1.25;font-family:sans-serif"
       x="1328.7976"
       y="4229.812"
       id="text8987"><tspan
         sodipodi:role="line"
         id="tspan8985"
         x="1328.7976"
         y="4229.812">E1: 0.1 V vs RHE</tspan></text>
  </g>
  <g
     id="g12829"
     transform="translate(0.9085774,1748.9364)">
    <path
       style="fill:none;stroke:#000000;stroke-width:1px;stroke-linecap:butt;stroke-linejoin:miter;stroke-opacity:1"
       d="m 2321.9372,4081.8288 -94.55,133.7187"
       id="path229" />
    <text
       xml:space="preserve"
       style="font-size:85.3333px;line-height:1.25;font-family:sans-serif"
       x="2227.3872"
       y="4256.561"
       id="text11553"><tspan
         sodipodi:role="line"
         id="tspan11551"
         x="2227.3872"
         y="4256.561">E2: 0.9 V vs RHE</tspan></text>
  </g>
  <text
     xml:space="preserve"
     style="font-size:85.3333px;line-height:1.25;font-family:sans-serif"
     x="2803.2461"
     y="5202.6099"
     id="text25387"><tspan
       sodipodi:role="line"
       id="tspan25385"
       x="2803.2461"
       y="5202.6099">scan rate: 50 mV / s</tspan></text>
  <g
     id="g116984">
    <text
       xml:space="preserve"
       style="font-size:85.3333px;line-height:1.25;font-family:sans-serif"
       x="1304.223"
       y="5234.7407"
       id="text15141"><tspan
         sodipodi:role="line"
         x="1304.223"
         y="5234.7407"
         id="tspan68527">curve: Pt_(111)_G_black</tspan></text>
    <path
       style="fill:none;stroke:#000000;stroke-width:1px;stroke-linecap:butt;stroke-linejoin:miter;stroke-opacity:1"
       d="m 1306.6373,5631.4735 v -48.1456 l 1.332,-59.7272 3.1343,-39.6719 15.5929,-11.5882 24.9695,-5.7974 44.1146,-5.7973 44.1407,-0.8899 35.2081,-0.8899 40.5624,2.6762 33.876,7.1322 34.7641,12.0331 23.6375,9.3635 26.7456,10.6983 18.7271,8.9119 20.5032,10.2533 17.369,5.3459 16.9511,3.5661 20.0592,1.7863 24.9695,1.3349 29.4097,-0.8899 65.976,-2.2313 41.4505,-4.456 21.8352,-3.1211 35.2286,-5.7908 48.1369,-15.1608 44.5847,-20.5002 33.432,-15.1608 22.2793,-9.3569 18.2831,-5.3524 16.9511,-1.7798 12.4587,2.2313 13.8168,3.1146 9.3766,2.6762 16.0369,-0.8899 13.3728,-7.1322 8.4886,-8.467 4.8843,-5.7974 4.9103,0.445 5.3543,11.5882 3.1082,13.8194 7.1304,20.0617 7.5744,13.8195 15.619,13.8128 17.369,6.2423 19.6152,3.1212 20.5032,2.2313 14.731,0.8898 -0.4702,23.6213 -5.7722,2.6762 -16.507,2.2313 -19.6152,3.5661 -18.7272,3.5661 -15.1488,6.6872 -7.5745,6.2358 -10.2647,10.2533 -8.0184,15.5992 -7.1304,17.3856 -4.4402,13.3745 -6.6864,16.4956 -4.4664,-1.7863 -10.2646,-16.0442 -13.3728,-7.5771 -10.2386,-0.8964 -14.7048,1.7863 -16.9511,3.5661 -14.7048,0.8899 h -14.2609 l -23.6375,-6.6873 -23.6113,-11.1432 -21.8353,-9.8084 -31.6559,-15.5992 -27.1897,-10.6983 -28.9918,-7.5771 -18.701,-2.2313 -24.0815,-3.1211 -25.8576,-2.2248 -22.2793,-2.6762 -23.6375,-3.1211 -17.3689,-1.3348 -25.4136,-0.445 -27.6336,-0.4449 h -20.9473 l -16.507,1.3348 -25.4193,1.7798 -20.5032,4.0176 -22.7233,7.5771 -16.5071,6.6872 -15.1489,8.4671 -21.3912,10.2533 -24.5255,9.8018 -24.9695,7.5837 -32.0739,8.467 -32.5439,4.456 -35.6521,6.2423 -28.5478,1.3349 -20.5033,-1.3349 -20.9472,-4.456 -17.8391,-2.2312 h -18.257 l -14.2609,2.2312 -11.1527,5.3459 -8.0184,4.9075 z"
       id="path116899" />
  </g>
</svg>
