<?xml version="1.0" encoding="UTF-8" standalone="no"?>
<svg
   height="6526px"
   version="1.1"
   width="4875px"
   id="svg106"
   sodipodi:docname="mello_2018_understanding_J3045_p1_A_blue.svg"
   inkscape:version="1.1.1 (eb90963e84, 2021-10-02)"
   xmlns:inkscape="http://www.inkscape.org/namespaces/inkscape"
   xmlns:sodipodi="http://sodipodi.sourceforge.net/DTD/sodipodi-0.dtd"
   xmlns:xlink="http://www.w3.org/1999/xlink"
   xmlns="http://www.w3.org/2000/svg"
   xmlns:svg="http://www.w3.org/2000/svg">
  <sodipodi:namedview
     id="namedview108"
     pagecolor="#ffffff"
     bordercolor="#666666"
     borderopacity="1.0"
     inkscape:pageshadow="2"
     inkscape:pageopacity="0.0"
     inkscape:pagecheckerboard="0"
     showgrid="false"
     inkscape:zoom="0.39656758"
     inkscape:cx="1688.2369"
     inkscape:cy="3849.2809"
     inkscape:window-width="1848"
     inkscape:window-height="898"
     inkscape:window-x="72"
     inkscape:window-y="27"
     inkscape:window-maximized="1"
     inkscape:current-layer="svg106" />
  <defs
     id="defs102" />
  <image
     height="6526px"
     sodipodi:insensitive="true"
     width="4875px"
     x="0"
     xlink:href="mello_2018_understanding_J3045_p1.png"
     y="0"
     id="image104" />
  <g
     id="g12819">
    <path
       style="fill:none;stroke:#000000;stroke-width:1px;stroke-linecap:butt;stroke-linejoin:miter;stroke-opacity:1"
       d="m 1232.4786,3532.6633 -162.2497,-49.9122"
       id="path223" />
    <text
       xml:space="preserve"
       style="font-size:85.3333px;line-height:1.25;font-family:sans-serif"
       x="591.50183"
       y="3450.0566"
       id="text2367"><tspan
         sodipodi:role="line"
         id="tspan2365"
         x="591.50183"
         y="3450.0566">y2: 400 uA / cm2</tspan></text>
  </g>
  <g
     id="g12814">
    <path
       style="fill:none;stroke:#000000;stroke-width:1px;stroke-linecap:butt;stroke-linejoin:miter;stroke-opacity:1"
       d="m 1232.4786,4049.7405 -221.0692,37.4538"
       id="path225" />
    <text
       xml:space="preserve"
       style="font-size:85.3333px;line-height:1.25;font-family:sans-serif"
       x="471.95712"
       y="4179.2319"
       id="text6877"><tspan
         sodipodi:role="line"
         id="tspan6875"
         x="471.95712"
         y="4179.2319">y1: -400 uA / cm2</tspan></text>
  </g>
  <g
     id="g12824">
    <path
       style="fill:none;stroke:#000000;stroke-width:1px;stroke-linecap:butt;stroke-linejoin:miter;stroke-opacity:1"
       d="m 1353.7671,4081.8288 -1.8806,92.7316"
       id="path227" />
    <text
       xml:space="preserve"
       style="font-size:85.3333px;line-height:1.25;font-family:sans-serif"
       x="1328.7976"
       y="4229.812"
       id="text8987"><tspan
         sodipodi:role="line"
         id="tspan8985"
         x="1328.7976"
         y="4229.812">x1: 0.1 V vs RHE</tspan></text>
  </g>
  <g
     id="g12829">
    <path
       style="fill:none;stroke:#000000;stroke-width:1px;stroke-linecap:butt;stroke-linejoin:miter;stroke-opacity:1"
       d="m 2321.9372,4081.8288 -94.55,133.7187"
       id="path229" />
    <text
       xml:space="preserve"
       style="font-size:85.3333px;line-height:1.25;font-family:sans-serif"
       x="2227.3872"
       y="4256.561"
       id="text11553"><tspan
         sodipodi:role="line"
         id="tspan11551"
         x="2227.3872"
         y="4256.561">x2: 0.9 V vs RHE</tspan></text>
  </g>
  <text
     xml:space="preserve"
     style="font-size:85.3333px;line-height:1.25;font-family:sans-serif"
     x="1516.5004"
     y="4023.1631"
     id="text25387"><tspan
       sodipodi:role="line"
       id="tspan25385"
       x="1516.5004"
       y="4023.1631">scan rate: 50 mV / s</tspan></text>
  <g
     id="g43696">
    <text
       xml:space="preserve"
       style="font-size:85.3333px;line-height:1.25;font-family:sans-serif"
       x="1397.8572"
       y="3228.8562"
       id="text15141"><tspan
         sodipodi:role="line"
         x="1397.8572"
         y="3228.8562"
         id="tspan35807">curve: Pt_(111)_A_blue</tspan></text>
    <path
       style="fill:none;stroke:#000000;stroke-width:1.00197px;stroke-linecap:butt;stroke-linejoin:miter;stroke-opacity:1"
       d="m 1305.962,3820.4684 0.6291,-26.5267 1.9246,-13.2679 4.652,-4.4953 14.2119,-4.1075 19.2637,-4.7332 18.0054,-3.4769 16.7287,-4.7379 7.2724,-6.6294 9.7892,-11.3718 6.3102,-13.8938 4.4227,-19.8973 3.7935,-24 3.1644,-27.7923 5.3664,-41.3707 2.2022,-16.425 3.1643,-8.8407 4.1081,6.9445 2.8498,10.1064 0.3146,9.791 2.5167,13.5831 0.9437,10.1063 0.6293,16.1051 3.4789,15.7899 2.2205,18.6317 2.8313,16.425 4.4228,21.1583 5.3664,13.2633 6.3287,12.6328 6.3103,4.7379 3.4789,-3.7876 1.573,-10.1062 1.5729,-22.1086 0.6291,-14.8442 0.9623,-3.4723 1.8875,1.261 0.9438,11.3718 0.9437,18.6317 0.9623,19.8973 1.8875,12.0023 4.4227,9.4712 6.9394,6.634 8.5308,2.5266 13.5828,0.9456 79.0337,3.5415 76.4258,-1.8914 197.7081,-0.6306 453.8284,0.6838 v 4.4712 l -755.6876,0.8917 h -20.5697 l -21.4072,0.8916 -21.4595,1.7833 -17.8479,2.688 -5.7116,4.944 -4.7372,7.5797 -3.4605,12.9481 -2.8498,11.6824 -1.188,24.7146 -0.6292,22.7345 -0.6292,20.2124 h -1.9245 l -0.6291,-17.0508 -0.6292,-27.1663 -1.8875,-21.4735 -1.2584,-9.4758 -5.6995,3.1617 -6.921,11.9977 -5.0703,15.7899 -3.1459,14.5289 -5.0703,24.6351 -2.5168,20.843 -3.775,27.1572 -2.5537,20.2124 -2.5166,22.1133 -3.1459,17.6813 -5.6996,-13.8984 -1.8875,-26.5266 -3.1458,-37.8939 -3.812,-24.6352 -4.4043,-24.0047 -3.1828,-19.582 -7.5501,-18.3118 -8.2162,-11.9977 -13.2867,-8.2149 -15.7663,-1.8914 -20.2445,-3.1617 h -11.3621 z"
       id="path43611" />
  </g>
</svg>
