<?xml version="1.0" encoding="UTF-8" standalone="no"?>
<svg
   xmlns:dc="http://purl.org/dc/elements/1.1/"
   xmlns:cc="http://creativecommons.org/ns#"
   xmlns:rdf="http://www.w3.org/1999/02/22-rdf-syntax-ns#"
   xmlns:svg="http://www.w3.org/2000/svg"
   xmlns="http://www.w3.org/2000/svg"
   xmlns:xlink="http://www.w3.org/1999/xlink"
   xmlns:sodipodi="http://sodipodi.sourceforge.net/DTD/sodipodi-0.dtd"
   xmlns:inkscape="http://www.inkscape.org/namespaces/inkscape"
   height="6526px"
   version="1.1"
   width="4909px"
   id="svg6"
   sodipodi:docname="Jerkiewicz_2009_effect_12309_p1_f1a.svg"
   inkscape:version="1.0.2-2 (e86c870879, 2021-01-15)">
  <metadata
     id="metadata10">
    <rdf:RDF>
      <cc:Work
         rdf:about="">
        <dc:format>image/svg+xml</dc:format>
        <dc:type
           rdf:resource="http://purl.org/dc/dcmitype/StillImage" />
      </cc:Work>
    </rdf:RDF>
  </metadata>
  <sodipodi:namedview
     pagecolor="#ffffff"
     bordercolor="#666666"
     borderopacity="1"
     objecttolerance="10"
     gridtolerance="10"
     guidetolerance="10"
     inkscape:pageopacity="0"
     inkscape:pageshadow="2"
     inkscape:window-width="1920"
     inkscape:window-height="991"
     id="namedview8"
     showgrid="false"
     inkscape:zoom="0.35972947"
     inkscape:cx="1097.4126"
     inkscape:cy="707.23294"
     inkscape:window-x="-9"
     inkscape:window-y="-9"
     inkscape:window-maximized="1"
     inkscape:current-layer="svg6"
     inkscape:document-rotation="0" />
  <defs
     id="defs2" />
  <image
     sodipodi:absref="C:\Users\tobia\ownCloud3\PPS\digitizer\Jerkiewicz_2009_Effect_12309\Jerkiewicz_2009_effect_12309_p1.png"
     xlink:href="Jerkiewicz_2009_effect_12309_p1.png"
     height="6526px"
     sodipodi:insensitive="true"
     width="4909px"
     x="0"
     y="0"
     id="image4" />
  <g
     id="g887">
    <text
       xml:space="preserve"
       style="font-style:italic;font-weight:bold;font-size:48px;line-height:1.25;font-family:sans-serif;-inkscape-font-specification:'sans-serif Bold Italic';letter-spacing:0px"
       x="2063.9458"
       y="1588.2554"
       id="text837"><tspan
         sodipodi:role="line"
         id="tspan835"
         x="2063.9458"
         y="1588.2554">E2: 0.8 V vs SHE</tspan></text>
    <path
       style="fill:none;stroke:#000000;stroke-width:1px;stroke-linecap:butt;stroke-linejoin:miter;stroke-opacity:1"
       d="M 2203.2621,1374.981 2059.523,1574.0044"
       id="path851" />
  </g>
  <g
     id="g860">
    <text
       xml:space="preserve"
       style="font-style:italic;font-weight:bold;font-size:48px;line-height:1.25;font-family:sans-serif;-inkscape-font-specification:'sans-serif Bold Italic';letter-spacing:0px"
       x="186.73795"
       y="605.42407"
       id="text849"><tspan
         sodipodi:role="line"
         id="tspan847"
         x="186.73795"
         y="605.42407">j2: 150 uA / cm2</tspan></text>
    <path
       style="fill:none;stroke:#000000;stroke-width:1px;stroke-linecap:butt;stroke-linejoin:miter;stroke-opacity:1"
       d="M 786.18108,383.44788 180.69134,592.11163"
       id="path855" />
  </g>
  <g
     id="g875">
    <text
       xml:space="preserve"
       style="font-style:italic;font-weight:bold;font-size:48px;line-height:1.25;font-family:sans-serif;-inkscape-font-specification:'sans-serif Bold Italic';letter-spacing:0px"
       x="245.70786"
       y="1210.8481"
       id="text845"><tspan
         sodipodi:role="line"
         id="tspan843"
         x="245.70786"
         y="1210.8481">j1: -150 uA / cm2</tspan></text>
    <path
       style="fill:none;stroke:#000000;stroke-width:1px;stroke-linecap:butt;stroke-linejoin:miter;stroke-opacity:1"
       d="m 239.81084,1200.5285 546.06619,174.2894"
       id="path870" />
  </g>
  <g
     id="g882">
    <text
       xml:space="preserve"
       style="font-style:italic;font-weight:bold;font-size:48px;line-height:1.25;font-family:sans-serif;-inkscape-font-specification:'sans-serif Bold Italic';letter-spacing:0px"
       x="764.64276"
       y="1584.3241"
       id="text841"><tspan
         sodipodi:role="line"
         id="tspan839"
         x="764.64276"
         y="1584.3241">E1: 0.4 V vs SHE</tspan></text>
    <path
       style="fill:none;stroke:#000000;stroke-width:1.101px;stroke-linecap:butt;stroke-linejoin:miter;stroke-opacity:1"
       d="m 754.73383,1565.065 31.1432,-190.2471"
       id="path877" />
  </g>
  <g
     id="g898">
    <text
       xml:space="preserve"
       style="font-style:italic;font-weight:bold;font-size:48px;line-height:1.25;font-family:sans-serif;-inkscape-font-specification:'sans-serif Bold Italic';letter-spacing:0px"
       x="1615.1025"
       y="500.37601"
       id="text891"><tspan
         sodipodi:role="line"
         id="tspan889"
         x="1615.1025"
         y="500.37601">curve: Pt(111)</tspan></text>
    <path
       style="fill:none;stroke:#08f519;stroke-width:1px;stroke-linecap:butt;stroke-linejoin:miter;stroke-opacity:1"
       d="m 840.21474,885.56131 374.81046,-5.43586 c 51.2351,-0.74306 140.9984,-4.53304 153.5674,-6.87982 18.974,-3.54268 37.3061,-8.19094 49.5101,-29.36208 4.5494,-7.89201 8.6028,-61.89503 11.4255,-93.00042 4.916,-54.1727 5.5748,-108.65684 9.5826,-162.90429 1.7024,-23.04274 2.3275,-68.59396 6.1427,-69.0439 4.4127,-0.52041 7.905,98.50381 12.7768,147.67041 4.7294,47.72994 4.7437,142.92772 15.971,143.00196 10.0131,0.0662 15.7343,-63.50279 20.3937,-95.82606 6.7156,-46.58682 7.2467,-93.85739 10.8112,-140.79059 2.9571,-38.93605 3.7639,-116.57886 8.7735,-116.81555 4.9968,-0.23607 5.5956,131.59357 7.9346,197.40772 2.2614,63.62851 4.207,163.4301 5.897,190.91499 0.5379,8.74744 0.2338,19.89387 7.1255,25.30791 6.2661,4.92261 47.2415,6.27979 71.0096,7.61694 59.0412,3.32155 118.2701,0.32216 177.401,0.98283 38.9887,0.43562 77.9684,1.51605 116.957,1.96566 65.4371,0.75462 130.8798,1.53649 196.3205,1.22854 l 104.4259,-0.49141 -449.8911,4.17703 c -26.0904,0.24224 -66.0787,4.68557 -78.8722,4.42274 -24.9163,-0.51187 -67.8275,-3.85545 -101.9687,-1.22854 -36.9163,2.84044 -61.7734,6.11586 -76.6609,28.2564 -9.5664,14.22703 -7.8919,61.4852 -10.074,92.38618 -2.6726,37.8465 -1.6661,75.8757 -3.6856,113.7627 -2.6492,49.6991 -5.7251,149.4054 -11.0568,148.8989 -7.9599,-0.7561 -7.9241,-110.022 -9.0913,-166.3442 -1.0826,-52.2396 -5.8185,-118.92009 -17.4452,-155.77873 -6.3992,-20.28654 -22.5275,-44.54517 -53.3186,-43.49029 -22.256,0.76247 -37.6928,18.97604 -49.633,44.71883 -13.7789,29.70695 -21.4169,59.98259 -33.2935,60.44409 -7.8143,0.3037 -15.1015,-17.25349 -19.621,-26.78935 -2.3755,-5.01206 -5.1195,-20.94382 -13.918,-43.48305 -12.5696,-32.19973 -20.1183,-47.58897 -53.3186,-51.35294 -60.0001,-6.80231 -120.7027,-5.14831 -181.0867,-4.91416 z"
       id="path893"
       sodipodi:nodetypes="csssaasasaasassaaascssssaassssssssssc" />
  </g>
  <text
     xml:space="preserve"
     style="font-style:italic;font-weight:bold;font-size:48px;line-height:1.25;font-family:sans-serif;-inkscape-font-specification:'sans-serif Bold Italic';letter-spacing:0px"
     x="1582.3584"
     y="632.94336"
     id="text902"><tspan
       sodipodi:role="line"
       x="1582.3584"
       y="632.94336"
       id="tspan904">scan rate: 50 mV / s</tspan></text>
  <text
     xml:space="preserve"
     style="font-style:italic;font-weight:bold;font-size:48px;line-height:1.25;font-family:sans-serif;-inkscape-font-specification:'sans-serif Bold Italic';letter-spacing:0px"
     x="2043.2021"
     y="230.72894"
     id="text855"><tspan
       sodipodi:role="line"
       id="tspan853"
       x="2043.2021"
       y="230.72894">Figure: 1</tspan></text>
  <text
     xml:space="preserve"
     style="font-style:italic;font-weight:bold;font-size:48px;line-height:1.25;font-family:sans-serif;-inkscape-font-specification:'sans-serif Bold Italic';letter-spacing:0px"
     x="2043.2021"
     y="319.68469"
     id="text859"><tspan
       sodipodi:role="line"
       id="tspan857"
       x="2043.2021"
       y="319.68469">tags: BCV</tspan></text>
</svg>
