<?xml version="1.0" encoding="UTF-8" standalone="no"?>
<svg
   xmlns:dc="http://purl.org/dc/elements/1.1/"
   xmlns:cc="http://creativecommons.org/ns#"
   xmlns:rdf="http://www.w3.org/1999/02/22-rdf-syntax-ns#"
   xmlns:svg="http://www.w3.org/2000/svg"
   xmlns="http://www.w3.org/2000/svg"
   xmlns:xlink="http://www.w3.org/1999/xlink"
   xmlns:sodipodi="http://sodipodi.sourceforge.net/DTD/sodipodi-0.dtd"
   xmlns:inkscape="http://www.inkscape.org/namespaces/inkscape"
   height="6602px"
   version="1.1"
   width="5100px"
   id="svg53"
   sodipodi:docname="wang_1997_lateral_1_f1a.svg"
   inkscape:version="0.92.2 (5c3e80d, 2017-08-06)">
  <metadata
     id="metadata28">
    <rdf:RDF>
      <cc:Work
         rdf:about="">
        <dc:format>image/svg+xml</dc:format>
        <dc:type
           rdf:resource="http://purl.org/dc/dcmitype/StillImage" />
      </cc:Work>
    </rdf:RDF>
  </metadata>
  <sodipodi:namedview
     id="namedview55"
     pagecolor="#ffffff"
     bordercolor="#666666"
     borderopacity="1.0"
     inkscape:pageshadow="2"
     inkscape:pageopacity="0.0"
     inkscape:pagecheckerboard="0"
     showgrid="false"
     inkscape:zoom="0.078722127"
     inkscape:cx="-11.410711"
     inkscape:cy="3810.0362"
     inkscape:window-width="1920"
     inkscape:window-height="1017"
     inkscape:window-x="-8"
     inkscape:window-y="32"
     inkscape:window-maximized="1"
     inkscape:current-layer="svg53" />
  <defs
     id="defs49" />
  <image
     sodipodi:absref="F:\Github\echemdb\website\literature\wang_1997_lateral_1\Wang_1997_Lateral_1_p1.png"
     xlink:href="Wang_1997_Lateral_1_p1.png"
     id="image51"
     y="0"
     x="0"
     width="5100px"
     sodipodi:insensitive="true"
     height="6602px" />
  <g
     id="g18579">
    <path
       style="fill:none;stroke:#000000;stroke-width:1px;stroke-linecap:butt;stroke-linejoin:miter;stroke-opacity:1"
       d="M 1522.0968,1066.2913 1207.6999,897.98066"
       id="path170" />
    <text
       xml:space="preserve"
       style="font-size:85.3333px;line-height:1.25;font-family:sans-serif"
       x="750.2254"
       y="880.37329"
       id="text2380"><tspan
         sodipodi:role="line"
         id="tspan2378"
         x="750.2254"
         y="880.37329">j2: 15 uA / cm2</tspan></text>
  </g>
  <g
     id="g18584">
    <path
       style="fill:none;stroke:#000000;stroke-width:1px;stroke-linecap:butt;stroke-linejoin:miter;stroke-opacity:1"
       d="m 1517.7849,1786.2003 -495.3663,25.4399"
       id="path172" />
    <text
       xml:space="preserve"
       style="font-size:85.3333px;line-height:1.25;font-family:sans-serif"
       x="366.06207"
       y="1839.408"
       id="text4334"><tspan
         sodipodi:role="line"
         id="tspan4332"
         x="366.06207"
         y="1839.408">j1: -15 uA / cm2</tspan></text>
  </g>
  <g
     id="g18589">
    <path
       style="fill:none;stroke:#000000;stroke-width:1px;stroke-linecap:butt;stroke-linejoin:miter;stroke-opacity:1"
       d="m 1598.0874,1845.4196 -428.6933,165.156"
       id="path174" />
    <text
       xml:space="preserve"
       style="font-size:85.3333px;line-height:1.25;font-family:sans-serif"
       x="610.44824"
       y="2058.5476"
       id="text9768"><tspan
         sodipodi:role="line"
         id="tspan9766"
         x="610.44824"
         y="2058.5476">E1: -1.3 V vs SCE</tspan></text>
  </g>
  <g
     id="g18594">
    <path
       style="fill:none;stroke:#000000;stroke-width:1px;stroke-linecap:butt;stroke-linejoin:miter;stroke-opacity:1"
       d="m 2901.6146,1847.6682 981.2894,98.4523"
       id="path176" />
    <text
       xml:space="preserve"
       style="font-size:85.3333px;line-height:1.25;font-family:sans-serif"
       x="3887.7627"
       y="1988.6686"
       id="text17252"><tspan
         sodipodi:role="line"
         id="tspan17250"
         x="3887.7627"
         y="1988.6686">E2: -0.5 V vs SCE</tspan></text>
  </g>
  <text
     xml:space="preserve"
     style="font-size:85.3333px;line-height:1.25;font-family:sans-serif"
     x="1791.8499"
     y="1791.7866"
     id="text22448"><tspan
       sodipodi:role="line"
       id="tspan22446"
       x="1791.8499"
       y="1791.7866">scan rate: 10 mV / s</tspan></text>
  <g
     id="g39935">
    <text
       xml:space="preserve"
       style="font-size:85.3333px;line-height:1.25;font-family:sans-serif"
       x="1760.1008"
       y="908.97009"
       id="text25452"><tspan
         sodipodi:role="line"
         id="tspan25450"
         x="1760.1008"
         y="908.97009">curve: Ag(100)_10mM_KBr_40mM_KClO4</tspan></text>
    <path
       style="fill:none;stroke:#000000;stroke-width:1px;stroke-linecap:butt;stroke-linejoin:miter;stroke-opacity:1"
       d="m 1523.1277,1400.8506 c 0,0 28.7053,-3.4921 42.8612,-6.36 16.6034,-3.3637 32.6869,-8.9608 49.211,-12.6946 18.9423,-4.2802 38.5816,-5.5587 57.189,-11.1171 12.0528,-3.6004 22.9705,-10.3794 34.9239,-14.2973 16.5854,-5.4361 34.3195,-6.944 50.7985,-12.6946 6.0367,-2.1066 11.8284,-4.9134 17.4619,-7.9372 8.7969,-4.7217 17.123,-10.2903 25.3993,-15.8745 11.9439,-8.0589 22.8172,-17.6658 34.9646,-25.4145 9.1861,-5.8597 19.0959,-10.5001 28.5741,-15.8745 10.1042,-5.7294 19.6231,-12.567 30.1616,-17.4518 14.2765,-6.6174 29.1834,-12.0812 44.4486,-15.9 14.0105,-3.5049 28.4784,-5.0257 42.8613,-6.3345 15.305,-1.3927 30.7108,-1.3355 46.0767,-1.6027 15.3431,-0.2668 30.7356,-1.1719 46.0362,0 13.8796,1.0631 27.3941,5.2968 41.2737,6.3599 14.773,1.1315 29.6697,-1.0496 44.4487,0 18.6747,1.3262 36.9523,6.2915 55.6015,7.9373 15.2949,1.3498 30.7112,2.5289 46.0361,1.5773 13.3704,-0.8303 26.9001,-2.338 39.6862,-6.3346 14.0062,-4.378 26.9343,-11.7931 39.6863,-19.0545 11.617,-6.615 24.2547,-12.4626 33.3773,-22.2345 5.8245,-6.239 9.2897,-14.41 12.6996,-22.2345 3.5424,-8.1286 4.8097,-17.092 7.9373,-25.389 1.8393,-4.8795 2.2821,-11.0343 6.3498,-14.2972 2.1055,-1.6889 5.6016,-2.9558 7.9372,-1.6028 7.2466,4.1979 4.8384,16.057 7.9372,23.8373 3.241,8.1373 6.4511,16.3959 11.1122,23.8117 8.005,12.7358 18.3306,23.9131 28.5741,34.929 9.4301,10.1411 20.1156,19.0378 30.1616,28.5691 10.5913,10.0486 20.7468,20.5749 31.749,30.1718 12.7787,11.1465 26.2017,21.5469 39.7271,31.7744 14.523,10.9819 28.9838,22.1386 44.4486,31.749 14.2763,8.8718 28.6513,18.0704 44.4487,23.8119 12.192,4.4311 25.4542,5.0398 38.0987,7.9371 12.7738,2.927 25.2462,7.1947 38.1395,9.54 13.6254,2.4784 27.4476,3.9631 41.2738,4.7573 11.6221,0.6676 23.2837,-0.1606 34.9239,0 19.0549,0.2629 38.1017,0.9587 57.1484,1.5773 14.3031,0.4645 28.602,1.0514 42.902,1.6027 13.2293,0.51 26.447,1.5882 39.6861,1.5773 12.7105,-0.01 25.4264,-2.56 38.0988,-1.5773 2.6895,0.2086 7.87,-1.1194 7.9374,1.5773 l 1.5875,63.5235 c 0,0 -44.4438,-1.865 -66.673,-1.6027 -22.2616,0.2627 -44.4569,2.6498 -66.7138,3.18 -17.457,0.4158 -34.9419,-0.7925 -52.3859,0 -23.3548,1.0611 -46.554,4.3672 -69.8478,6.3599 -13.2363,1.1323 -26.6757,0.7008 -39.727,3.18 -12.4986,2.3742 -24.173,8.016 -36.5114,11.1173 -10.466,2.6307 -21.5715,2.7462 -31.749,6.3345 -12.947,4.5648 -24.7985,11.8944 -36.5115,19.0546 -13.2791,8.1176 -25.4424,17.9338 -38.0988,26.9917 -9.5575,6.8401 -19.7281,12.919 -28.5741,20.6573 -10.428,9.1222 -18.2697,20.9304 -28.6149,30.1463 -9.8815,8.8029 -21.7547,15.1626 -31.749,23.8371 -7.9139,6.8688 -14.8149,14.8244 -22.2243,22.2346 -6.8777,6.8785 -14.1085,13.4209 -20.6369,20.6318 -5.0458,5.5732 -10.6583,10.8675 -14.2871,17.4517 -4.0423,7.3345 -5.143,15.9425 -7.9371,23.8373 -3.0158,8.521 -0.5257,24.5408 -9.5248,25.389 -14.1835,1.3368 -14.691,-24.4146 -22.2243,-36.5063 -7.3011,-11.719 -12.2704,-25.4029 -22.2651,-34.929 -15.4438,-14.7197 -35.2606,-25.2105 -55.5607,-31.7745 -23.7973,-7.6948 -49.6169,-8.863 -74.6102,-7.9372 -23.6627,0.8765 -46.6006,8.4352 -69.8886,12.7199 -22.7616,4.1878 -45.4685,8.6754 -68.2605,12.6946 -22.1888,3.9128 -44.1921,9.612 -66.6729,11.1172 -16.9169,1.1327 -34.0872,1.0117 -50.8392,-1.6027 -26.642,-4.1579 -52.9729,-11.6528 -77.7852,-22.2091 -17.4575,-7.4272 -33.425,-18.0715 -49.2109,-28.5944 -13.8362,-9.2232 -26.0156,-20.7641 -39.7271,-30.1718 -17.4351,-11.9625 -35.0918,-23.8092 -53.9733,-33.3263 -15.2682,-7.6958 -31.2149,-14.2487 -47.6236,-19.0545 -24.3145,-7.1213 -49.5097,-11.1627 -74.6509,-14.2973 -17.8838,-2.2298 -36.0135,-3.2836 -53.9733,-4.7827 -38.0989,-3.18 -38.0989,-3.18 -38.0989,-3.18 z"
       id="path39850"
       sodipodi:nodetypes="csssssssssssssssssssssssssssssssssssssssssscsssssssssssssssssssssssssssssssscc" />
  </g>
  <text
     xml:space="preserve"
     style="font-style:normal;font-variant:normal;font-weight:normal;font-stretch:normal;font-size:80px;line-height:1.25;font-family:sans-serif;-inkscape-font-specification:sans-serif;letter-spacing:0px;word-spacing:0px;fill:#000000;fill-opacity:1;stroke:none"
     x="901.90649"
     y="517.3067"
     id="text837"><tspan
       sodipodi:role="line"
       id="tspan835"
       x="901.90649"
       y="517.3067">comment: Missing information about electrochemical setup.</tspan></text>
</svg>
