<?xml version="1.0" encoding="UTF-8" standalone="no"?>
<svg
   xmlns:dc="http://purl.org/dc/elements/1.1/"
   xmlns:cc="http://creativecommons.org/ns#"
   xmlns:rdf="http://www.w3.org/1999/02/22-rdf-syntax-ns#"
   xmlns:svg="http://www.w3.org/2000/svg"
   xmlns="http://www.w3.org/2000/svg"
   xmlns:xlink="http://www.w3.org/1999/xlink"
   xmlns:sodipodi="http://sodipodi.sourceforge.net/DTD/sodipodi-0.dtd"
   xmlns:inkscape="http://www.inkscape.org/namespaces/inkscape"
   height="5400px"
   version="1.1"
   width="3901px"
   id="svg6"
   sodipodi:docname="gomez_1993_electrochemical_189_p3_f1.svg"
   inkscape:version="1.0.2-2 (e86c870879, 2021-01-15)">
  <metadata
     id="metadata10">
    <rdf:RDF>
      <cc:Work
         rdf:about="">
        <dc:format>image/svg+xml</dc:format>
        <dc:type
           rdf:resource="http://purl.org/dc/dcmitype/StillImage" />
      </cc:Work>
    </rdf:RDF>
  </metadata>
  <sodipodi:namedview
     pagecolor="#ffffff"
     bordercolor="#666666"
     borderopacity="1"
     objecttolerance="10"
     gridtolerance="10"
     guidetolerance="10"
     inkscape:pageopacity="0"
     inkscape:pageshadow="2"
     inkscape:window-width="1920"
     inkscape:window-height="991"
     id="namedview8"
     showgrid="false"
     inkscape:zoom="0.3037037"
     inkscape:cx="1315.4269"
     inkscape:cy="1544.2683"
     inkscape:window-x="-9"
     inkscape:window-y="-9"
     inkscape:window-maximized="1"
     inkscape:current-layer="svg6"
     inkscape:document-rotation="0"
     inkscape:pagecheckerboard="0" />
  <defs
     id="defs2" />
  <image
     sodipodi:absref="C:\Users\tobia\ownCloud3\PPS\digitizer\push\gomez_1993_electrochemical_189\Gomez_1993_electrochemical_189_p3.png"
     xlink:href="Gomez_1993_electrochemical_189_p3.png"
     height="5400px"
     sodipodi:insensitive="true"
     width="3901px"
     x="0"
     y="0"
     id="image4" />
  <g
     id="g878">
    <text
       xml:space="preserve"
       style="font-style:italic;font-weight:bold;font-size:48px;line-height:1.25;font-family:sans-serif;-inkscape-font-specification:'sans-serif Bold Italic';letter-spacing:0px"
       x="69.819962"
       y="1565.6869"
       id="text843"><tspan
         sodipodi:role="line"
         id="tspan841"
         x="69.819962"
         y="1565.6869">E1: 0.0 V vs RHE</tspan></text>
    <path
       style="fill:none;stroke:#000000;stroke-width:1px;stroke-linecap:butt;stroke-linejoin:miter;stroke-opacity:1"
       d="M 632.70966,1314.0949 55.152439,1550.0305"
       id="path857" />
  </g>
  <g
     id="g873">
    <text
       xml:space="preserve"
       style="font-style:italic;font-weight:bold;font-size:48px;line-height:1.25;font-family:sans-serif;-inkscape-font-specification:'sans-serif Bold Italic';letter-spacing:0px"
       x="121.82927"
       y="2061.2195"
       id="text851"><tspan
         sodipodi:role="line"
         id="tspan849"
         x="121.82927"
         y="2061.2195">j1: -150 uA / cm2</tspan></text>
    <path
       style="fill:none;stroke:#000000;stroke-width:1px;stroke-linecap:butt;stroke-linejoin:miter;stroke-opacity:1"
       d="M 631.47485,1900.4954 113.18598,2049.6951"
       id="path859" />
  </g>
  <g
     id="g883">
    <text
       xml:space="preserve"
       style="font-style:italic;font-weight:bold;font-size:48px;line-height:1.25;font-family:sans-serif;-inkscape-font-specification:'sans-serif Bold Italic';letter-spacing:0px"
       x="694.7561"
       y="546.58533"
       id="text847"><tspan
         sodipodi:role="line"
         id="tspan845"
         x="694.7561"
         y="546.58533">j2: 150 uA / cm2</tspan></text>
    <path
       style="fill:none;stroke:#000000;stroke-width:1px;stroke-linecap:butt;stroke-linejoin:miter;stroke-opacity:1"
       d="M 630.60023,729.32927 684.87805,536.70732"
       id="path861" />
  </g>
  <g
     id="g868">
    <text
       xml:space="preserve"
       style="font-style:italic;font-weight:bold;font-size:48px;line-height:1.25;font-family:sans-serif;-inkscape-font-specification:'sans-serif Bold Italic';letter-spacing:0px"
       x="2923.9026"
       y="1564.0244"
       id="text855"><tspan
         sodipodi:role="line"
         id="tspan853"
         x="2923.9026"
         y="1564.0244">E2: 1.3 V vs RHE</tspan></text>
    <path
       style="fill:none;stroke:#000000;stroke-width:1px;stroke-linecap:butt;stroke-linejoin:miter;stroke-opacity:1"
       d="m 2876.8788,1310.282 35.4993,235.6326"
       id="path863" />
  </g>
  <g
     id="g902">
    <path
       style="fill:none;stroke:#52f91b;stroke-width:1px;stroke-linecap:butt;stroke-linejoin:miter;stroke-opacity:1"
       d="m 2149.583,1249.2669 1.7463,67.3746 c 0.4681,18.061 -30.212,29.1435 -49.4759,27.9393 -48.2674,-3.0173 -78.5991,-15.7425 -144.3533,-14.5517 -57.0348,1.0329 -130.2241,2.9944 -171.1285,-1.1642 -30.9235,-3.1439 -158.6887,-5.3427 -238.0664,-5.8207 -23.6676,-0.1425 -258.0588,0.053 -320.7204,1.7462 -105.0789,2.8386 -113.344,13.7862 -178.1133,38.7077 -31.2084,12.0082 -86.68646,6.1517 -102.73528,17.753 -33.14514,23.96 -40.65259,69.8232 -48.02075,108.8471 -10.21965,54.1263 -29.33,220.5977 -31.43175,281.1396 -1.66435,47.9424 -3.07123,95.9158 -6.40277,143.7712 -2.8559,41.0231 -6.60689,122.7492 -11.64139,122.8167 -3.2614,0.044 -4.65932,-91.9785 -5.8207,-116.4139 -1.84862,-38.8949 -5.88303,-115.7488 -13.96967,-115.8319 -3.61691,-0.037 -8.7543,48.2635 -8.73104,71.5946 0.037,37.1315 0.77012,111.5682 -6.98484,111.1753 -5.57343,-0.2824 -7.48472,-210.938 -16.29795,-316.0638 -4.21012,-50.2191 -16.85009,-147.3287 -17.46209,-150.174 -16.58898,-77.1242 -49.54649,-47.6578 -49.47591,-51.2221 l 5.82069,-293.9452 c 0.0323,-1.6317 35.18016,28.4118 48.24954,-56.3919 6.88409,-44.669 11.34501,-130.58026 13.74087,-164.21244 4.29876,-60.34437 3.59323,-121.3443 7.85795,-182.18778 2.35701,-33.62676 4.86228,-100.72508 9.31311,-100.69804 7.30184,0.0444 7.84244,145.90929 12.80553,146.09947 5.24054,0.20081 11.8898,-215.85909 18.62623,-217.11197 5.13409,-0.95487 16.91305,289.78891 29.68555,367.868 23.75567,145.21986 24.45084,215.18436 55.29661,244.46926 9.72522,9.2331 26.80881,1.103 40.1628,2.3282 12.95739,1.1888 19.5361,17.2626 47.14766,29.1035 14.4096,6.1794 30.5258,7.2722 45.9835,9.8952 13.8065,2.3428 16.2002,26.9042 129.8015,39.5807 16.5319,1.8448 207.597,4.5439 311.4072,4.0745 140.3117,-0.6344 278.5534,-1.9091 420.8364,-9.3131 48.2107,-2.5087 99.1064,0.7132 143.7712,-17.4621 24.9083,-10.1358 78.4474,-28.8116 78.5793,-23.7193 z"
       id="path885"
       sodipodi:nodetypes="sssssssssssssssssssssssssssssssssssss"
       inkscape:connector-curvature="0" />
    <text
       xml:space="preserve"
       style="font-style:italic;font-weight:bold;font-size:48px;line-height:1.25;font-family:sans-serif;-inkscape-font-specification:'sans-serif Bold Italic';letter-spacing:0px"
       x="1238.0488"
       y="783.65857"
       id="text889"><tspan
         sodipodi:role="line"
         id="tspan887"
         x="1238.0488"
         y="783.65857">curve: solid</tspan></text>
  </g>
  <text
     xml:space="preserve"
     style="font-style:italic;font-weight:bold;font-size:48px;line-height:1.25;font-family:sans-serif;-inkscape-font-specification:'sans-serif Bold Italic';letter-spacing:0px"
     x="941.70734"
     y="964.7561"
     id="text893"><tspan
       sodipodi:role="line"
       id="tspan891"
       x="941.70734"
       y="964.7561">scan rate: 50 mV / s  </tspan></text>
  <text
     xml:space="preserve"
     style="font-style:normal;font-variant:normal;font-weight:normal;font-stretch:normal;font-size:80px;line-height:1.25;font-family:sans-serif;-inkscape-font-specification:sans-serif;letter-spacing:0px;word-spacing:0px;fill:#000000;fill-opacity:1;stroke:none"
     x="1475.1219"
     y="378.65854"
     id="text5912"><tspan
       sodipodi:role="line"
       id="tspan5910"
       x="1475.1219"
       y="378.65854"
       style="font-size:80px">Figure: 1</tspan></text>
  <text
     xml:space="preserve"
     style="font-style:normal;font-variant:normal;font-weight:normal;font-stretch:normal;font-size:80px;line-height:1.25;font-family:sans-serif;-inkscape-font-specification:sans-serif;letter-spacing:0px;word-spacing:0px;fill:#000000;fill-opacity:1;stroke:none"
     x="1475.1219"
     y="513.65857"
     id="text9392"><tspan
       sodipodi:role="line"
       id="tspan9390"
       x="1475.1219"
       y="513.65857"
       style="font-size:80px">tags: BCV</tspan></text>
</svg>
