<?xml version="1.0" encoding="UTF-8" standalone="no"?>
<svg
   xmlns:dc="http://purl.org/dc/elements/1.1/"
   xmlns:cc="http://creativecommons.org/ns#"
   xmlns:rdf="http://www.w3.org/1999/02/22-rdf-syntax-ns#"
   xmlns:svg="http://www.w3.org/2000/svg"
   xmlns="http://www.w3.org/2000/svg"
   xmlns:xlink="http://www.w3.org/1999/xlink"
   xmlns:sodipodi="http://sodipodi.sourceforge.net/DTD/sodipodi-0.dtd"
   xmlns:inkscape="http://www.inkscape.org/namespaces/inkscape"
   height="6617px"
   version="1.1"
   width="4959px"
   id="svg6"
   sodipodi:docname="domke_2003_determination_113_f2_solid.svg"
   inkscape:version="1.0.2-2 (e86c870879, 2021-01-15)">
  <metadata
     id="metadata10">
    <rdf:RDF>
      <cc:Work
         rdf:about="">
        <dc:format>image/svg+xml</dc:format>
        <dc:type
           rdf:resource="http://purl.org/dc/dcmitype/StillImage" />
      </cc:Work>
    </rdf:RDF>
  </metadata>
  <sodipodi:namedview
     pagecolor="#ffffff"
     bordercolor="#666666"
     borderopacity="1"
     objecttolerance="10"
     gridtolerance="10"
     guidetolerance="10"
     inkscape:pageopacity="0"
     inkscape:pageshadow="2"
     inkscape:window-width="2400"
     inkscape:window-height="1261"
     id="namedview8"
     showgrid="false"
     inkscape:zoom="0.35050782"
     inkscape:cx="3573.547"
     inkscape:cy="1653.2826"
     inkscape:window-x="2391"
     inkscape:window-y="-9"
     inkscape:window-maximized="1"
     inkscape:current-layer="svg6" />
  <defs
     id="defs2" />
  <image
     sodipodi:absref="C:\Users\tobia\ownCloud3\PPS\digitizer\domke_2003_determination_113\domke_2003_determination_113_p3.png"
     xlink:href="domke_2003_determination_113_p3.png"
     id="image4"
     y="0"
     x="0"
     width="4959px"
     sodipodi:insensitive="true"
     height="6617px" />
  <g
     id="g877">
    <text
       xml:space="preserve"
       style="font-style:italic;font-weight:bold;font-size:48px;line-height:1.25;font-family:sans-serif;-inkscape-font-specification:'sans-serif Bold Italic';letter-spacing:0px"
       x="1587.6765"
       y="546.70947"
       id="text849"><tspan
         sodipodi:role="line"
         id="tspan847"
         x="1587.6765"
         y="546.70947">j2: 80 uA / cm2</tspan></text>
    <path
       style="fill:none;stroke:#000000;stroke-width:1px;stroke-linecap:butt;stroke-linejoin:miter;stroke-opacity:1"
       d="m 1577.0853,535.10953 52.8712,287.53617"
       id="path851" />
  </g>
  <g
     id="g872">
    <text
       xml:space="preserve"
       style="font-style:italic;font-weight:bold;font-size:48px;line-height:1.25;font-family:sans-serif;-inkscape-font-specification:'sans-serif Bold Italic';letter-spacing:0px"
       x="1706.7018"
       y="2551.9832"
       id="text845"><tspan
         sodipodi:role="line"
         id="tspan843"
         x="1706.7018"
         y="2551.9832">j1: -80 uA / cm2</tspan></text>
    <path
       style="fill:none;stroke:#000000;stroke-width:1px;stroke-linecap:butt;stroke-linejoin:miter;stroke-opacity:1"
       d="m 1692.9009,2537.0333 -62.6769,-84.4311"
       id="path853" />
  </g>
  <g
     id="g867">
    <text
       xml:space="preserve"
       style="font-style:italic;font-weight:bold;font-size:48px;line-height:1.25;font-family:sans-serif;-inkscape-font-specification:'sans-serif Bold Italic';letter-spacing:0px"
       x="1519.0857"
       y="2860.6421"
       id="text837"><tspan
         sodipodi:role="line"
         id="tspan835"
         x="1519.0857"
         y="2860.6421">E1: 0.0 V vs RHE</tspan></text>
    <path
       style="fill:none;stroke:#000000;stroke-width:1px;stroke-linecap:butt;stroke-linejoin:miter;stroke-opacity:1"
       d="m 1630.4023,2655.1655 -119.3804,187.8524"
       id="path855" />
  </g>
  <g
     id="g862">
    <text
       xml:space="preserve"
       style="font-style:italic;font-weight:bold;font-size:48px;line-height:1.25;font-family:sans-serif;-inkscape-font-specification:'sans-serif Bold Italic';letter-spacing:0px"
       x="3568.7417"
       y="2884.8506"
       id="text841"><tspan
         sodipodi:role="line"
         id="tspan839"
         x="3568.7417"
         y="2884.8506">E2: 0.8 V vs RHE</tspan></text>
    <path
       style="fill:none;stroke:#000000;stroke-width:1px;stroke-linecap:butt;stroke-linejoin:miter;stroke-opacity:1"
       d="m 3548.1897,2655.7521 18.6608,209.9334"
       id="path857" />
  </g>
  <g
     id="g908">
    <path
       style="fill:none;stroke:#00f708;stroke-width:1;stroke-linecap:butt;stroke-linejoin:miter;stroke-miterlimit:4;stroke-dasharray:none;stroke-opacity:1"
       d="m 1753.858,1581.1201 c -0.01,-22.7291 3.2002,-114.2883 27.4868,-115.4949 12.1827,-0.6053 32.4276,22.3043 57.0355,44.3902 15.8153,14.1944 33.7339,27.5126 51.5074,38.0018 33.0451,19.502 71.9569,31.3818 122.4469,37.6419 20.2575,2.5117 78.2672,4.7755 139.3251,-26.7768 34.6024,-17.8811 71.2456,-66.8339 97.7169,-125.0309 33.8323,-74.3803 65.381,-177.1223 71.1125,-205.2682 5.037,-24.7353 12.6081,-79.701 17.9607,-131.1237 5.6983,-54.7432 9.0831,-105.35423 11.1004,-105.36795 11.0708,-0.0753 5.3705,83.44515 33.0994,83.54915 27.0501,0.1015 55.7265,-134.34367 91.1602,-134.40775 10.9811,-0.0199 35.822,21.69748 61.5473,48.43898 47.9939,49.88967 72.8243,39.34497 90.7648,61.63417 39.2858,48.8084 42.9958,115.2215 63.5145,175.2635 19.1577,56.0596 41.4691,124.0529 63.076,150.2909 32.0203,38.8833 51.8548,48.019 167.835,70.7726 70.0454,13.7419 127.4502,42.4444 156.9628,56.0701 17.8424,8.2377 72.1572,34.2133 130.9149,54.3395 45.0949,15.4463 93.0141,26.8254 127.8139,27.8686 87.9797,2.6373 134.9121,-8.5738 175.2597,-10.339 l -3.2783,108.6862 c -41.6828,11.5523 -102.8139,4.0792 -160.3816,6.5564 -28.6377,1.2323 -82.5141,8.4695 -120.5287,21.4825 -35.8414,12.2691 -69.5476,29.112 -103.0573,47.5484 -44.8407,24.6705 -89.5198,53.2272 -137.2724,71.1769 -35.1552,13.2145 -79.2365,25.3706 -123.1105,30.5569 -41.8826,4.9509 -75.4041,18.537 -98.9181,40.9819 -40.2062,38.3783 -65.5254,107.1701 -80.8303,160.2076 -11.1982,38.8061 -23.0165,106.6938 -49.9508,150.5914 -32.7203,53.3276 -60.1851,56.6613 -83.1962,82.4157 -22.2334,24.8839 -67.4324,82.5709 -84.7299,80.6952 -19.6575,-2.1316 -32.9009,-32.1353 -47.0635,-61.4678 -14.5489,-30.1326 -24.6825,-62.8064 -43.4663,-65.3749 -16.6564,-2.2776 -21.0932,42.2511 -28.4954,42.1128 -2.9071,-0.054 -9.8292,-57.7132 -17.4787,-122.7639 -9.9824,-84.8888 -14.4219,-113.6368 -32.4514,-178.5819 -7.0703,-25.4684 -48.9022,-99.6803 -93.596,-175.23 -46.389,-78.4153 -87.788,-94.1287 -126.5504,-100.3943 -15.8784,-2.5666 -38.2179,-1.296 -55.2324,-0.6916 -31.4352,1.1166 -58.0829,5.4363 -86.6823,17.7227 -36.2884,15.5896 -66.9035,39.8767 -92.3533,67.6987 -50.3697,55.0646 -79.5794,172.5417 -88.8908,229.6028 z"
       id="path881"
       sodipodi:nodetypes="ssssssssssssssssssssccsssssssssssssssssssscs" />
    <text
       xml:space="preserve"
       style="font-style:italic;font-weight:bold;font-size:48px;line-height:1.25;font-family:sans-serif;-inkscape-font-specification:'sans-serif Bold Italic';letter-spacing:0px"
       x="1851.5992"
       y="810.25299"
       id="text887"><tspan
         sodipodi:role="line"
         id="tspan885"
         x="1851.5992"
         y="810.25299">curve: solid</tspan></text>
  </g>
  <text
     xml:space="preserve"
     style="font-style:italic;font-weight:bold;font-size:48px;line-height:1.25;font-family:sans-serif;-inkscape-font-specification:'sans-serif Bold Italic';letter-spacing:0px"
     x="3808.7595"
     y="1255.3215"
     id="text891"><tspan
       sodipodi:role="line"
       id="tspan889"
       x="3808.7595"
       y="1255.3215">scan rate: 50 mV / s</tspan></text>
  <text
     xml:space="preserve"
     style="font-style:italic;font-weight:bold;font-size:48px;line-height:1.25;font-family:sans-serif;-inkscape-font-specification:'sans-serif Bold Italic';letter-spacing:0px"
     x="3900.0557"
     y="910.10809"
     id="text895"><tspan
       sodipodi:role="line"
       id="tspan893"
       x="3900.0557"
       y="910.10809">Figure: 2a</tspan></text>
  <text
     xml:space="preserve"
     style="font-style:italic;font-weight:bold;font-size:48px;line-height:1.25;font-family:sans-serif;-inkscape-font-specification:'sans-serif Bold Italic';letter-spacing:0px"
     x="3891.4966"
     y="1009.9633"
     id="text899"><tspan
       sodipodi:role="line"
       id="tspan897"
       x="3891.4966"
       y="1009.9633">tags: BCV</tspan></text>
  <text
     xml:space="preserve"
     style="font-style:italic;font-weight:bold;font-size:48px;line-height:1.25;font-family:sans-serif;-inkscape-font-specification:'sans-serif Bold Italic';letter-spacing:0px"
     x="3780.2295"
     y="1429.3547"
     id="text903"><tspan
       sodipodi:role="line"
       id="tspan901"
       x="3780.2295"
       y="1429.3547">comment: Lines are overlapping partly.</tspan></text>
</svg>
