<?xml version="1.0" encoding="UTF-8" standalone="no"?>
<svg
   xmlns:dc="http://purl.org/dc/elements/1.1/"
   xmlns:cc="http://creativecommons.org/ns#"
   xmlns:rdf="http://www.w3.org/1999/02/22-rdf-syntax-ns#"
   xmlns:svg="http://www.w3.org/2000/svg"
   xmlns="http://www.w3.org/2000/svg"
   xmlns:xlink="http://www.w3.org/1999/xlink"
   xmlns:sodipodi="http://sodipodi.sourceforge.net/DTD/sodipodi-0.dtd"
   xmlns:inkscape="http://www.inkscape.org/namespaces/inkscape"
   height="6617px"
   version="1.1"
   width="4959px"
   id="svg6"
   sodipodi:docname="domke_2003_determination_113_f2_dotted.svg"
   inkscape:version="1.0.2-2 (e86c870879, 2021-01-15)">
  <metadata
     id="metadata10">
    <rdf:RDF>
      <cc:Work
         rdf:about="">
        <dc:format>image/svg+xml</dc:format>
        <dc:type
           rdf:resource="http://purl.org/dc/dcmitype/StillImage" />
      </cc:Work>
    </rdf:RDF>
  </metadata>
  <sodipodi:namedview
     pagecolor="#ffffff"
     bordercolor="#666666"
     borderopacity="1"
     objecttolerance="10"
     gridtolerance="10"
     guidetolerance="10"
     inkscape:pageopacity="0"
     inkscape:pageshadow="2"
     inkscape:window-width="2400"
     inkscape:window-height="1261"
     id="namedview8"
     showgrid="false"
     inkscape:zoom="0.35050782"
     inkscape:cx="3210.2777"
     inkscape:cy="1695.4426"
     inkscape:window-x="2391"
     inkscape:window-y="-9"
     inkscape:window-maximized="1"
     inkscape:current-layer="svg6"
     inkscape:document-rotation="0" />
  <defs
     id="defs2" />
  <image
     sodipodi:absref="C:\Users\tobia\ownCloud3\PPS\digitizer\domke_2003_determination_113\domke_2003_determination_113_p3.png"
     xlink:href="domke_2003_determination_113_p3.png"
     id="image4"
     y="0"
     x="0"
     width="4959px"
     sodipodi:insensitive="true"
     height="6617px" />
  <g
     id="g877">
    <text
       xml:space="preserve"
       style="font-style:italic;font-weight:bold;font-size:48px;line-height:1.25;font-family:sans-serif;-inkscape-font-specification:'sans-serif Bold Italic';letter-spacing:0px"
       x="1587.6765"
       y="546.70947"
       id="text849"><tspan
         sodipodi:role="line"
         id="tspan847"
         x="1587.6765"
         y="546.70947">j2: 80 uA / cm2</tspan></text>
    <path
       style="fill:none;stroke:#000000;stroke-width:1px;stroke-linecap:butt;stroke-linejoin:miter;stroke-opacity:1"
       d="m 1577.0853,535.10953 52.8712,287.53617"
       id="path851" />
  </g>
  <g
     id="g872">
    <text
       xml:space="preserve"
       style="font-style:italic;font-weight:bold;font-size:48px;line-height:1.25;font-family:sans-serif;-inkscape-font-specification:'sans-serif Bold Italic';letter-spacing:0px"
       x="1706.7018"
       y="2551.9832"
       id="text845"><tspan
         sodipodi:role="line"
         id="tspan843"
         x="1706.7018"
         y="2551.9832">j1: -80 uA / cm2</tspan></text>
    <path
       style="fill:none;stroke:#000000;stroke-width:1px;stroke-linecap:butt;stroke-linejoin:miter;stroke-opacity:1"
       d="m 1692.9009,2537.0333 -62.6769,-84.4311"
       id="path853" />
  </g>
  <g
     id="g867">
    <text
       xml:space="preserve"
       style="font-style:italic;font-weight:bold;font-size:48px;line-height:1.25;font-family:sans-serif;-inkscape-font-specification:'sans-serif Bold Italic';letter-spacing:0px"
       x="1519.0857"
       y="2860.6421"
       id="text837"><tspan
         sodipodi:role="line"
         id="tspan835"
         x="1519.0857"
         y="2860.6421">E1: 0.0 V vs RHE</tspan></text>
    <path
       style="fill:none;stroke:#000000;stroke-width:1px;stroke-linecap:butt;stroke-linejoin:miter;stroke-opacity:1"
       d="m 1630.4023,2655.1655 -119.3804,187.8524"
       id="path855" />
  </g>
  <g
     id="g862">
    <text
       xml:space="preserve"
       style="font-style:italic;font-weight:bold;font-size:48px;line-height:1.25;font-family:sans-serif;-inkscape-font-specification:'sans-serif Bold Italic';letter-spacing:0px"
       x="3568.7417"
       y="2884.8506"
       id="text841"><tspan
         sodipodi:role="line"
         id="tspan839"
         x="3568.7417"
         y="2884.8506">E2: 0.8 V vs RHE</tspan></text>
    <path
       style="fill:none;stroke:#000000;stroke-width:1px;stroke-linecap:butt;stroke-linejoin:miter;stroke-opacity:1"
       d="m 3548.1897,2655.7521 18.6608,209.9334"
       id="path857" />
  </g>
  <text
     xml:space="preserve"
     style="font-style:italic;font-weight:bold;font-size:48px;line-height:1.25;font-family:sans-serif;-inkscape-font-specification:'sans-serif Bold Italic';letter-spacing:0px"
     x="3808.7595"
     y="1255.3215"
     id="text891"><tspan
       sodipodi:role="line"
       id="tspan889"
       x="3808.7595"
       y="1255.3215">scan rate: 50 mV / s</tspan></text>
  <text
     xml:space="preserve"
     style="font-style:italic;font-weight:bold;font-size:48px;line-height:1.25;font-family:sans-serif;-inkscape-font-specification:'sans-serif Bold Italic';letter-spacing:0px"
     x="3900.0557"
     y="910.10809"
     id="text895"><tspan
       sodipodi:role="line"
       id="tspan893"
       x="3900.0557"
       y="910.10809">Figure: 2a</tspan></text>
  <text
     xml:space="preserve"
     style="font-style:italic;font-weight:bold;font-size:48px;line-height:1.25;font-family:sans-serif;-inkscape-font-specification:'sans-serif Bold Italic';letter-spacing:0px"
     x="3891.4966"
     y="1009.9633"
     id="text899"><tspan
       sodipodi:role="line"
       id="tspan897"
       x="3891.4966"
       y="1009.9633">tags: BCV</tspan></text>
  <text
     xml:space="preserve"
     style="font-style:italic;font-weight:bold;font-size:48px;line-height:1.25;font-family:sans-serif;-inkscape-font-specification:'sans-serif Bold Italic';letter-spacing:0px"
     x="3124.0388"
     y="1999.9554"
     id="text903"><tspan
       sodipodi:role="line"
       id="tspan901"
       x="3124.0388"
       y="1999.9554">comment: Lines are partly overlapping and line is not continuous.</tspan></text>
  <g
     id="g866">
    <text
       xml:space="preserve"
       style="font-style:italic;font-weight:bold;font-size:48px;line-height:1.25;font-family:sans-serif;-inkscape-font-specification:'sans-serif Bold Italic';letter-spacing:0px"
       x="1711.8021"
       y="807.39996"
       id="text887"><tspan
         sodipodi:role="line"
         id="tspan885"
         x="1711.8021"
         y="807.39996">curve: dotted</tspan></text>
    <path
       style="fill:none;stroke:#00e611;stroke-width:1;stroke-linecap:butt;stroke-linejoin:miter;stroke-miterlimit:4;stroke-dasharray:none;stroke-opacity:1"
       d="m 1753.6059,1490.338 c 4.1676,-32.4832 10.1714,-86.631 34.7997,-83.7212 14.3987,1.7012 30.0092,13.0809 48.7168,19.4382 16.7132,5.6796 25.0622,-0.7932 50.8526,13.6418 41.9562,23.483 60.7381,77.304 101.9949,101.9949 28.2358,16.8982 42.4878,30.3429 94.5057,28.53 102.5869,-3.5752 147.5913,-211.3317 169.7537,-341.2905 13.2232,-77.5398 19.69,-206.6716 29.5706,-287.48726 5.36,-43.8402 4.7834,-72.86357 14.651,-72.7044 10.2753,0.16574 16.2466,25.36194 23.1812,49.06617 6.2243,21.27632 13.2778,40.64616 13.9078,44.36969 12.8798,76.1263 27.9353,161.1023 50.2842,226.1005 6.4305,18.7022 19.5788,47.9908 41.4436,52.0164 18.3619,3.3807 43.1377,-5.0775 59.1248,-9.578 101.7656,-28.6481 165.3875,95.4964 184.3753,121.6093 21.1723,29.1171 57.0017,101.9494 117.6864,119.1129 89.1787,25.2224 151.5544,0.741 276.7413,29.5999 23.1912,5.3462 101.13,44.4021 179.5924,61.308 73.0801,15.7462 145.386,10.1507 206.633,-3.8913 23.8166,-5.4604 34.751,-16.0672 60.2697,-41.7252 l -1.4265,169.7537 c -11.0841,49.4255 -80.5924,21.909 -101.6383,21.0409 -86.209,-3.5558 -153.3967,-21.1278 -249.9944,33.8795 -89.8314,51.1543 -138.8493,73.2318 -299.5654,80.2407 -52.9333,2.3084 -113.7936,18.9336 -148.3561,57.06 -64.3222,70.9547 -107.2478,195.2317 -189.7248,215.7584 -49.7797,12.389 -72.4324,-14.6909 -94.1491,-12.8385 -43.1417,3.6799 -68.5486,96.9479 -85.5778,188.4956 -17.8516,95.9684 -21.5477,82.0188 -30.6821,115.3493 -5.8105,21.2019 -13.1907,66.9773 -21.0409,65.2624 -23.1989,-5.068 -23.2621,-234.4256 -44.2215,-350.2061 -9.0607,-50.0516 -16.3117,-115.4198 -33.6213,-177.2153 -25.7981,-92.0993 -84.0289,-178.1635 -131.1397,-181.1933 -88.3517,-5.682 -124.1438,88.2097 -182.2356,137.3008 -26.1781,22.1221 -49.1661,18.2897 -85.8563,54.3079 -13.58,13.3312 -51.2114,92.2632 -60.3601,169.6529 z"
       id="path861"
       sodipodi:nodetypes="cssssssssssssssssssccsssssssssssssscc" />
  </g>
</svg>
