<?xml version="1.0" encoding="UTF-8" standalone="no"?>
<svg
   xmlns:dc="http://purl.org/dc/elements/1.1/"
   xmlns:cc="http://creativecommons.org/ns#"
   xmlns:rdf="http://www.w3.org/1999/02/22-rdf-syntax-ns#"
   xmlns:svg="http://www.w3.org/2000/svg"
   xmlns="http://www.w3.org/2000/svg"
   xmlns:xlink="http://www.w3.org/1999/xlink"
   xmlns:sodipodi="http://sodipodi.sourceforge.net/DTD/sodipodi-0.dtd"
   xmlns:inkscape="http://www.inkscape.org/namespaces/inkscape"
   height="6617px"
   version="1.1"
   width="4959px"
   id="svg6"
   sodipodi:docname="domke_2003_determination_113_f2_dash-dot-dot.svg"
   inkscape:version="1.0.2-2 (e86c870879, 2021-01-15)">
  <metadata
     id="metadata10">
    <rdf:RDF>
      <cc:Work
         rdf:about="">
        <dc:format>image/svg+xml</dc:format>
        <dc:type
           rdf:resource="http://purl.org/dc/dcmitype/StillImage" />
      </cc:Work>
    </rdf:RDF>
  </metadata>
  <sodipodi:namedview
     pagecolor="#ffffff"
     bordercolor="#666666"
     borderopacity="1"
     objecttolerance="10"
     gridtolerance="10"
     guidetolerance="10"
     inkscape:pageopacity="0"
     inkscape:pageshadow="2"
     inkscape:window-width="2400"
     inkscape:window-height="1261"
     id="namedview8"
     showgrid="false"
     inkscape:zoom="0.35050782"
     inkscape:cx="3527.1881"
     inkscape:cy="2481.6754"
     inkscape:window-x="2391"
     inkscape:window-y="-9"
     inkscape:window-maximized="1"
     inkscape:current-layer="svg6"
     inkscape:document-rotation="0" />
  <defs
     id="defs2" />
  <image
     sodipodi:absref="C:\Users\tobia\ownCloud3\PPS\digitizer\domke_2003_determination_113\domke_2003_determination_113_p3.png"
     xlink:href="domke_2003_determination_113_p3.png"
     id="image4"
     y="0"
     x="0"
     width="4959px"
     sodipodi:insensitive="true"
     height="6617px" />
  <g
     id="g877">
    <text
       xml:space="preserve"
       style="font-style:italic;font-weight:bold;font-size:48px;line-height:1.25;font-family:sans-serif;-inkscape-font-specification:'sans-serif Bold Italic';letter-spacing:0px"
       x="1587.6765"
       y="546.70947"
       id="text849"><tspan
         sodipodi:role="line"
         id="tspan847"
         x="1587.6765"
         y="546.70947">j2: 80 uA / cm2</tspan></text>
    <path
       style="fill:none;stroke:#000000;stroke-width:1px;stroke-linecap:butt;stroke-linejoin:miter;stroke-opacity:1"
       d="m 1577.0853,535.10953 52.8712,287.53617"
       id="path851" />
  </g>
  <g
     id="g872">
    <text
       xml:space="preserve"
       style="font-style:italic;font-weight:bold;font-size:48px;line-height:1.25;font-family:sans-serif;-inkscape-font-specification:'sans-serif Bold Italic';letter-spacing:0px"
       x="1706.7018"
       y="2551.9832"
       id="text845"><tspan
         sodipodi:role="line"
         id="tspan843"
         x="1706.7018"
         y="2551.9832">j1: -80 uA / cm2</tspan></text>
    <path
       style="fill:none;stroke:#000000;stroke-width:1px;stroke-linecap:butt;stroke-linejoin:miter;stroke-opacity:1"
       d="m 1692.9009,2537.0333 -62.6769,-84.4311"
       id="path853" />
  </g>
  <g
     id="g867">
    <text
       xml:space="preserve"
       style="font-style:italic;font-weight:bold;font-size:48px;line-height:1.25;font-family:sans-serif;-inkscape-font-specification:'sans-serif Bold Italic';letter-spacing:0px"
       x="1519.0857"
       y="2860.6421"
       id="text837"><tspan
         sodipodi:role="line"
         id="tspan835"
         x="1519.0857"
         y="2860.6421">E1: 0.0 V vs RHE</tspan></text>
    <path
       style="fill:none;stroke:#000000;stroke-width:1px;stroke-linecap:butt;stroke-linejoin:miter;stroke-opacity:1"
       d="m 1630.4023,2655.1655 -119.3804,187.8524"
       id="path855" />
  </g>
  <g
     id="g862">
    <text
       xml:space="preserve"
       style="font-style:italic;font-weight:bold;font-size:48px;line-height:1.25;font-family:sans-serif;-inkscape-font-specification:'sans-serif Bold Italic';letter-spacing:0px"
       x="3568.7417"
       y="2884.8506"
       id="text841"><tspan
         sodipodi:role="line"
         id="tspan839"
         x="3568.7417"
         y="2884.8506">E2: 0.8 V vs RHE</tspan></text>
    <path
       style="fill:none;stroke:#000000;stroke-width:1px;stroke-linecap:butt;stroke-linejoin:miter;stroke-opacity:1"
       d="m 3548.1897,2655.7521 18.6608,209.9334"
       id="path857" />
  </g>
  <text
     xml:space="preserve"
     style="font-style:italic;font-weight:bold;font-size:48px;line-height:1.25;font-family:sans-serif;-inkscape-font-specification:'sans-serif Bold Italic';letter-spacing:0px"
     x="3808.7595"
     y="1255.3215"
     id="text891"><tspan
       sodipodi:role="line"
       id="tspan889"
       x="3808.7595"
       y="1255.3215">scan rate: 50 mV / s</tspan></text>
  <text
     xml:space="preserve"
     style="font-style:italic;font-weight:bold;font-size:48px;line-height:1.25;font-family:sans-serif;-inkscape-font-specification:'sans-serif Bold Italic';letter-spacing:0px"
     x="3900.0557"
     y="910.10809"
     id="text895"><tspan
       sodipodi:role="line"
       id="tspan893"
       x="3900.0557"
       y="910.10809">Figure: 2a</tspan></text>
  <text
     xml:space="preserve"
     style="font-style:italic;font-weight:bold;font-size:48px;line-height:1.25;font-family:sans-serif;-inkscape-font-specification:'sans-serif Bold Italic';letter-spacing:0px"
     x="3891.4966"
     y="1009.9633"
     id="text899"><tspan
       sodipodi:role="line"
       id="tspan897"
       x="3891.4966"
       y="1009.9633">tags: BCV</tspan></text>
  <text
     xml:space="preserve"
     style="font-style:italic;font-weight:bold;font-size:48px;line-height:1.25;font-family:sans-serif;-inkscape-font-specification:'sans-serif Bold Italic';letter-spacing:0px"
     x="3124.0388"
     y="1999.9554"
     id="text903"><tspan
       sodipodi:role="line"
       id="tspan901"
       x="3124.0388"
       y="1999.9554">comment: Lines are partly overlapping and line is not continuous.</tspan></text>
  <g
     id="g866">
    <text
       xml:space="preserve"
       style="font-style:italic;font-weight:bold;font-size:48px;line-height:1.25;font-family:sans-serif;-inkscape-font-specification:'sans-serif Bold Italic';letter-spacing:0px"
       x="2256.7258"
       y="744.63391"
       id="text887"><tspan
         sodipodi:role="line"
         id="tspan885"
         x="2256.7258"
         y="744.63391">curve: dash-dot-dot</tspan></text>
    <path
       style="fill:none;stroke:#00f31b;stroke-width:1;stroke-linecap:butt;stroke-linejoin:miter;stroke-miterlimit:4;stroke-dasharray:none;stroke-opacity:1"
       d="m 1754.1102,1482.2685 c 3.9343,-65.4978 2.9702,-180.0762 48.4171,-181.0597 39.9775,-0.8651 105.0195,87.1623 133.1469,131.1296 56.9247,88.9817 91.9133,129.7349 156.8512,119.5297 97.3537,-15.2994 132.7055,-179.2787 152.075,-291.5538 36.8854,-213.8059 22.7536,-328.87966 48.1498,-330.80736 10.8185,-0.82117 21.1424,12.26983 29.9906,5.99094 7.9149,-5.61667 3.7755,-7.19403 24.4208,-56.1048 7.8115,-18.50624 10.6661,-39.29604 26.2837,-40.16381 14.9582,-0.83113 44.1183,180.37963 59.3649,271.84173 12.9033,77.4049 24.392,164.0471 50.8633,237.1828 14.3489,39.6434 34.6532,76.5758 58.2228,104.2584 55.7148,65.4373 112.5971,124.2729 228.9725,118.521 39.1598,-1.9355 72.1579,-15.3838 110.8199,-22.8895 58.4525,-11.3476 122.5148,-17.3654 182.2042,-14.9364 96.7272,3.9363 191.9246,33.9402 289.4938,23.1999 59.2942,-6.527 120.4015,-33.0753 157.3555,-85.2343 l -0.5044,245.1115 c -3.9683,20.9264 -1.717,53.6911 -21.1825,54.4692 -33.3184,1.3319 -64.2016,-59.9946 -207.2856,-51.9475 -60.164,3.3837 -107.3433,19.9963 -164.1914,28.7476 -47.0867,7.2487 -109.996,10.033 -164.6412,4.5391 -86.3435,-8.6808 -223.6311,-29.2434 -257.2157,-23.7042 -70.1016,11.562 -155.4549,98.5537 -197.703,176.0163 -55.3358,101.4591 -77.7094,303.6157 -84.2256,331.8587 -8.9072,38.6063 -37.6747,215.5872 -58.2339,215.7117 -9.0604,0.055 -27.2483,-48.7645 -40.1133,-48.5215 -18.6544,0.3522 -15.6873,19.0657 -34.2954,20.4259 -10.7356,0.7848 -20.9846,-236.981 -43.8779,-372.2062 -19.4338,-114.7911 -63.5135,-299.8727 -164.4164,-308.1545 -66.6604,-5.4713 -92.2954,42.6202 -152.312,130.6252 -26.9664,39.542 -83.1505,108.0373 -111.9926,122.2813 -21.8655,10.7985 -46.7606,81.3086 -55.9541,111.2302 z"
       id="path861"
       sodipodi:nodetypes="csssssssssssssssccsssssssssssssscc" />
  </g>
</svg>
