<?xml version="1.0" encoding="UTF-8" standalone="no"?>
<svg
   xmlns:dc="http://purl.org/dc/elements/1.1/"
   xmlns:cc="http://creativecommons.org/ns#"
   xmlns:rdf="http://www.w3.org/1999/02/22-rdf-syntax-ns#"
   xmlns:svg="http://www.w3.org/2000/svg"
   xmlns="http://www.w3.org/2000/svg"
   xmlns:xlink="http://www.w3.org/1999/xlink"
   xmlns:sodipodi="http://sodipodi.sourceforge.net/DTD/sodipodi-0.dtd"
   xmlns:inkscape="http://www.inkscape.org/namespaces/inkscape"
   height="6617px"
   version="1.1"
   width="4959px"
   id="svg6"
   sodipodi:docname="domke_2003_determination_113_p4_f3b_dotted.svg"
   inkscape:version="1.0.2-2 (e86c870879, 2021-01-15)">
  <metadata
     id="metadata10">
    <rdf:RDF>
      <cc:Work
         rdf:about="">
        <dc:format>image/svg+xml</dc:format>
        <dc:type
           rdf:resource="http://purl.org/dc/dcmitype/StillImage" />
      </cc:Work>
    </rdf:RDF>
  </metadata>
  <sodipodi:namedview
     pagecolor="#ffffff"
     bordercolor="#666666"
     borderopacity="1"
     objecttolerance="10"
     gridtolerance="10"
     guidetolerance="10"
     inkscape:pageopacity="0"
     inkscape:pageshadow="2"
     inkscape:window-width="1920"
     inkscape:window-height="991"
     id="namedview8"
     showgrid="false"
     inkscape:zoom="0.35050782"
     inkscape:cx="1432.2527"
     inkscape:cy="2916.1352"
     inkscape:window-x="-9"
     inkscape:window-y="-9"
     inkscape:window-maximized="1"
     inkscape:current-layer="g871"
     inkscape:document-rotation="0" />
  <defs
     id="defs2" />
  <image
     sodipodi:absref="C:\Users\tobia\ownCloud3\PPS\digitizer\domke_2003_determination_113\domke_2003_determination_113_p4.png"
     xlink:href="domke_2003_determination_113_p4.png"
     height="6617px"
     sodipodi:insensitive="true"
     width="4959px"
     x="0"
     y="0"
     id="image4" />
  <g
     id="g881">
    <text
       xml:space="preserve"
       style="font-style:italic;font-weight:bold;font-size:48px;line-height:1.25;font-family:sans-serif;-inkscape-font-specification:'sans-serif Bold Italic';letter-spacing:0px"
       x="806.95123"
       y="2469.2708"
       id="text849"><tspan
         sodipodi:role="line"
         x="806.95123"
         y="2469.2708"
         id="tspan851">j2: 200 uA / cm2</tspan></text>
    <path
       style="fill:none;stroke:#000000;stroke-width:1px;stroke-linecap:butt;stroke-linejoin:miter;stroke-opacity:1"
       d="m 723.23636,2377.4434 c 0,0 75.60459,76.8528 74.89134,76.8528"
       id="path855" />
  </g>
  <g
     id="g876">
    <text
       xml:space="preserve"
       style="font-style:italic;font-weight:bold;font-size:48px;line-height:1.25;font-family:sans-serif;-inkscape-font-specification:'sans-serif Bold Italic';letter-spacing:0px"
       x="851.33356"
       y="3494.0989"
       id="text845"><tspan
         sodipodi:role="line"
         id="tspan843"
         x="851.33356"
         y="3494.0989">j1: -200 uA / cm2</tspan></text>
    <path
       style="fill:none;stroke:#000000;stroke-width:1px;stroke-linecap:butt;stroke-linejoin:miter;stroke-opacity:1"
       d="m 723.60829,3472.7902 115.87315,17.2738"
       id="path857" />
  </g>
  <g
     id="g871">
    <text
       xml:space="preserve"
       style="font-style:italic;font-weight:bold;font-size:48px;line-height:1.25;font-family:sans-serif;-inkscape-font-specification:'sans-serif Bold Italic';letter-spacing:0px"
       x="685.90857"
       y="3788.636"
       id="text837"><tspan
         sodipodi:role="line"
         id="tspan835"
         x="685.90857"
         y="3788.636">E1: 0.0 V vs RHE</tspan></text>
    <path
       style="fill:none;stroke:#000000;stroke-width:1px;stroke-linecap:butt;stroke-linejoin:miter;stroke-opacity:1"
       d="m 723.7713,3608.6035 -51.17575,159.5007"
       id="path859" />
  </g>
  <g
     id="g866">
    <text
       xml:space="preserve"
       style="font-style:italic;font-weight:bold;font-size:48px;line-height:1.25;font-family:sans-serif;-inkscape-font-specification:'sans-serif Bold Italic';letter-spacing:0px"
       x="2090.0037"
       y="3802.7576"
       id="text841"><tspan
         sodipodi:role="line"
         id="tspan839"
         x="2090.0037"
         y="3802.7576">E2: 0.8 V vs RHE</tspan></text>
    <path
       style="fill:none;stroke:#000000;stroke-width:1px;stroke-linecap:butt;stroke-linejoin:miter;stroke-opacity:1"
       d="m 2203.4812,3609.0893 -122.5718,173.6366"
       id="path861" />
  </g>
  <g
     id="g892">
    <text
       xml:space="preserve"
       style="font-style:italic;font-weight:bold;font-size:48px;line-height:1.25;font-family:sans-serif;-inkscape-font-specification:'sans-serif Bold Italic';letter-spacing:0px"
       x="1551.3636"
       y="2697.2346"
       id="text885"><tspan
         sodipodi:role="line"
         id="tspan883"
         x="1551.3636"
         y="2697.2346">curve: dotted</tspan></text>
    <path
       style="fill:none;stroke:#00fc30;stroke-width:1px;stroke-linecap:butt;stroke-linejoin:miter;stroke-opacity:1"
       d="m 831.11555,2925.9333 c -2.06374,-43.1617 12.93963,-91.5077 49.036,-106.4527 46.19255,-19.1252 78.12582,-6.0931 110.91051,11.412 45.72584,24.4149 88.23554,57.3011 141.22364,61.3396 71.0273,5.4134 90.7221,-57.8332 99.8552,-96.2889 6.7547,-28.4415 19.6192,-67.8772 24.6071,-68.472 17.0566,-2.0339 26.7997,29.2304 54.5637,36.0191 32.7849,8.0164 32.8977,-10.2835 47.4312,-3.9229 18.6167,8.1476 31.5184,43.7556 39.942,67.7589 13.0168,37.0916 31.4918,66.7911 87.3732,75.2479 83.2958,12.6055 204.17,11.8938 252.4908,11.0554 38.6064,-0.6698 129.3401,-1.6636 194.0043,-2.853 37.6862,-0.6932 75.3953,-0.811 113.0502,-2.4964 19.4013,-0.8684 52.473,-5.2617 71.1468,-3.0312 l -0.1783,21.2191 c -41.7496,11.8204 -201.7512,6.0174 -303.0884,6.8118 -64.7958,0.5079 -128.8595,-1.143 -195.1173,-0.036 -55.1842,0.922 -142.603,7.579 -164.761,16.4048 -31.3819,12.4999 -34.9506,22.7524 -50.223,43.465 -15.9032,21.5681 -21.4523,58.6497 -36.0803,72.0816 -13.8333,12.7022 -40.6145,-0.2047 -58.13,8.559 -20.0713,10.0425 -40.3685,47.4913 -47.7878,47.4312 -21.44,-0.1735 -14.5774,-29.1984 -38.1589,-87.3732 -11.6549,-28.7523 -23.0536,-58.0468 -71.7549,-68.2395 -50.1643,-10.4988 -70.4201,8.009 -99.1806,16.4287 -47.0979,13.7879 -57.98946,49.8724 -134.08368,58.6058 -33.65019,3.8621 -59.76859,-14.5068 -86.1989,31.0073 z"
       id="path887"
       sodipodi:nodetypes="cssssssssssssccssssssssssscc" />
  </g>
  <text
     xml:space="preserve"
     style="font-style:italic;font-weight:bold;font-size:48px;line-height:1.25;font-family:sans-serif;-inkscape-font-specification:'sans-serif Bold Italic';letter-spacing:0px"
     x="1463.5907"
     y="3203.9229"
     id="text896"><tspan
       sodipodi:role="line"
       id="tspan894"
       x="1463.5907"
       y="3203.9229">scan rate: 50 mV / s</tspan></text>
  <text
     xml:space="preserve"
     style="font-style:italic;font-weight:bold;font-size:48px;line-height:1.25;font-family:sans-serif;-inkscape-font-specification:'sans-serif Bold Italic';letter-spacing:0px"
     x="-4.0347562"
     y="2410.7668"
     id="text900"><tspan
       sodipodi:role="line"
       id="tspan898"
       x="-4.0347562"
       y="2410.7668">Figure: 3b</tspan></text>
  <text
     xml:space="preserve"
     style="font-style:italic;font-weight:bold;font-size:48px;line-height:1.25;font-family:sans-serif;-inkscape-font-specification:'sans-serif Bold Italic';letter-spacing:0px"
     x="-6.052134"
     y="2531.8096"
     id="text904"><tspan
       sodipodi:role="line"
       id="tspan902"
       x="-6.052134"
       y="2531.8096">Tags: BCV</tspan></text>
  <text
     xml:space="preserve"
     style="font-style:italic;font-weight:bold;font-size:48px;line-height:1.25;font-family:sans-serif;-inkscape-font-specification:'sans-serif Bold Italic';letter-spacing:0px"
     x="1381.9039"
     y="3383.1428"
     id="text908"><tspan
       sodipodi:role="line"
       id="tspan906"
       x="1381.9039"
       y="3383.1428">comment: The different curves are overlapping.</tspan></text>
</svg>
