<?xml version="1.0" encoding="UTF-8" standalone="no"?>
<svg
   xmlns:dc="http://purl.org/dc/elements/1.1/"
   xmlns:cc="http://creativecommons.org/ns#"
   xmlns:rdf="http://www.w3.org/1999/02/22-rdf-syntax-ns#"
   xmlns:svg="http://www.w3.org/2000/svg"
   xmlns="http://www.w3.org/2000/svg"
   xmlns:xlink="http://www.w3.org/1999/xlink"
   xmlns:sodipodi="http://sodipodi.sourceforge.net/DTD/sodipodi-0.dtd"
   xmlns:inkscape="http://www.inkscape.org/namespaces/inkscape"
   height="6617px"
   version="1.1"
   width="4959px"
   id="svg6"
   sodipodi:docname="domke_2003_determination_113_p3_f2_dashed--.svg"
   inkscape:version="1.0.2-2 (e86c870879, 2021-01-15)">
  <metadata
     id="metadata10">
    <rdf:RDF>
      <cc:Work
         rdf:about="">
        <dc:format>image/svg+xml</dc:format>
        <dc:type
           rdf:resource="http://purl.org/dc/dcmitype/StillImage" />
      </cc:Work>
    </rdf:RDF>
  </metadata>
  <sodipodi:namedview
     pagecolor="#ffffff"
     bordercolor="#666666"
     borderopacity="1"
     objecttolerance="10"
     gridtolerance="10"
     guidetolerance="10"
     inkscape:pageopacity="0"
     inkscape:pageshadow="2"
     inkscape:window-width="2400"
     inkscape:window-height="1261"
     id="namedview8"
     showgrid="false"
     inkscape:zoom="0.17525391"
     inkscape:cx="2680.1393"
     inkscape:cy="2512.4479"
     inkscape:window-x="2391"
     inkscape:window-y="-9"
     inkscape:window-maximized="1"
     inkscape:current-layer="svg6"
     inkscape:document-rotation="0" />
  <defs
     id="defs2" />
  <image
     sodipodi:absref="C:\Users\tobia\ownCloud3\PPS\digitizer\domke_2003_determination_113\domke_2003_determination_113.png"
     xlink:href="domke_2003_determination_113_p3.png"
     height="6617px"
     sodipodi:insensitive="true"
     width="4959px"
     x="0"
     y="0"
     id="image4" />
  <g
     id="g877">
    <text
       xml:space="preserve"
       style="font-style:italic;font-weight:bold;font-size:48px;line-height:1.25;font-family:sans-serif;-inkscape-font-specification:'sans-serif Bold Italic';letter-spacing:0px"
       x="1587.6765"
       y="546.70947"
       id="text849"><tspan
         sodipodi:role="line"
         id="tspan847"
         x="1587.6765"
         y="546.70947">j2: 80 uA / cm2</tspan></text>
    <path
       style="fill:none;stroke:#000000;stroke-width:1px;stroke-linecap:butt;stroke-linejoin:miter;stroke-opacity:1"
       d="m 1577.0853,535.10953 52.8712,287.53617"
       id="path851" />
  </g>
  <g
     id="g872">
    <text
       xml:space="preserve"
       style="font-style:italic;font-weight:bold;font-size:48px;line-height:1.25;font-family:sans-serif;-inkscape-font-specification:'sans-serif Bold Italic';letter-spacing:0px"
       x="1706.7018"
       y="2551.9832"
       id="text845"><tspan
         sodipodi:role="line"
         id="tspan843"
         x="1706.7018"
         y="2551.9832">j1: -80 uA / cm2</tspan></text>
    <path
       style="fill:none;stroke:#000000;stroke-width:1px;stroke-linecap:butt;stroke-linejoin:miter;stroke-opacity:1"
       d="m 1692.9009,2537.0333 -62.6769,-84.4311"
       id="path853" />
  </g>
  <g
     id="g867">
    <text
       xml:space="preserve"
       style="font-style:italic;font-weight:bold;font-size:48px;line-height:1.25;font-family:sans-serif;-inkscape-font-specification:'sans-serif Bold Italic';letter-spacing:0px"
       x="1519.0857"
       y="2860.6421"
       id="text837"><tspan
         sodipodi:role="line"
         id="tspan835"
         x="1519.0857"
         y="2860.6421">E1: 0.0 V vs RHE</tspan></text>
    <path
       style="fill:none;stroke:#000000;stroke-width:1px;stroke-linecap:butt;stroke-linejoin:miter;stroke-opacity:1"
       d="m 1630.4023,2655.1655 -119.3804,187.8524"
       id="path855" />
  </g>
  <g
     id="g862">
    <text
       xml:space="preserve"
       style="font-style:italic;font-weight:bold;font-size:48px;line-height:1.25;font-family:sans-serif;-inkscape-font-specification:'sans-serif Bold Italic';letter-spacing:0px"
       x="3568.7417"
       y="2884.8506"
       id="text841"><tspan
         sodipodi:role="line"
         id="tspan839"
         x="3568.7417"
         y="2884.8506">E2: 0.8 V vs RHE</tspan></text>
    <path
       style="fill:none;stroke:#000000;stroke-width:1px;stroke-linecap:butt;stroke-linejoin:miter;stroke-opacity:1"
       d="m 3548.1897,2655.7521 18.6608,209.9334"
       id="path857" />
  </g>
  <text
     xml:space="preserve"
     style="font-style:italic;font-weight:bold;font-size:48px;line-height:1.25;font-family:sans-serif;-inkscape-font-specification:'sans-serif Bold Italic';letter-spacing:0px"
     x="3808.7595"
     y="1255.3215"
     id="text891"><tspan
       sodipodi:role="line"
       id="tspan889"
       x="3808.7595"
       y="1255.3215">scan rate: 50 mV / s</tspan></text>
  <text
     xml:space="preserve"
     style="font-style:italic;font-weight:bold;font-size:48px;line-height:1.25;font-family:sans-serif;-inkscape-font-specification:'sans-serif Bold Italic';letter-spacing:0px"
     x="3900.0557"
     y="910.10809"
     id="text895"><tspan
       sodipodi:role="line"
       id="tspan893"
       x="3900.0557"
       y="910.10809">Figure: 2a</tspan></text>
  <text
     xml:space="preserve"
     style="font-style:italic;font-weight:bold;font-size:48px;line-height:1.25;font-family:sans-serif;-inkscape-font-specification:'sans-serif Bold Italic';letter-spacing:0px"
     x="3891.4966"
     y="1009.9633"
     id="text899"><tspan
       sodipodi:role="line"
       id="tspan897"
       x="3891.4966"
       y="1009.9633">tags: BCV</tspan></text>
  <text
     xml:space="preserve"
     style="font-style:italic;font-weight:bold;font-size:48px;line-height:1.25;font-family:sans-serif;-inkscape-font-specification:'sans-serif Bold Italic';letter-spacing:0px"
     x="3780.2295"
     y="1429.3547"
     id="text903"><tspan
       sodipodi:role="line"
       id="tspan901"
       x="3780.2295"
       y="1429.3547">comment: Lines are overlapping partly.</tspan></text>
  <g
     id="g866">
    <text
       xml:space="preserve"
       style="font-style:italic;font-weight:bold;font-size:48px;line-height:1.25;font-family:sans-serif;-inkscape-font-specification:'sans-serif Bold Italic';letter-spacing:0px"
       x="1711.8021"
       y="807.39996"
       id="text887"><tspan
         sodipodi:role="line"
         id="tspan885"
         x="1711.8021"
         y="807.39996">curve: dashed</tspan></text>
    <path
       style="fill:none;stroke:#2bdb00;stroke-width:1px;stroke-linecap:butt;stroke-linejoin:miter;stroke-opacity:1"
       d="m 1754.9537,1534.9158 c 4.3003,-26.7615 -1.3214,-70.7724 24.9638,-77.3877 10.6313,-2.6756 31.1419,9.654 55.1322,20.2189 16.8111,7.4034 36.6144,12.1433 50.4289,17.94 36.3385,15.2479 66.2794,42.8768 101.2816,60.983 15.7916,8.1688 31.2268,19.1049 48.8577,21.3975 35.3121,4.5918 76.9087,4.7392 105.5612,-16.4048 75.7607,-55.9073 97.8484,-162.2331 123.749,-253.9173 14.8688,-52.6333 18.308,-108.0056 32.4529,-160.838 3.4016,-12.7053 11.0533,-26.9378 15.9282,-43.3126 7.0237,-23.593 11.3526,-47.9882 14.7416,-47.9835 9.8471,0.014 23.6731,38.3284 32.8095,58.8432 6.4912,14.5753 23.1908,18.912 36.0192,16.0481 20.2353,-4.5175 24.6861,-33.8512 40.6553,-47.0746 12.0609,-9.9871 24.9967,-23.4159 40.6553,-23.5372 25.8181,-0.1999 98.6591,48.1409 139.0839,77.3877 26.6619,19.2895 51.3868,104.1826 74.1781,157.985 22.0564,52.0677 32.6251,101.593 95.5756,140.1538 37.3627,22.8868 103.8189,19.301 150.8525,28.8867 73.9639,15.0742 168.4277,50.9103 215.0452,70.9685 59.1089,25.4329 126.795,44.7021 192.9343,46.7179 56.1246,1.7106 132.5556,-9.8957 165.8309,-29.5999 l -1.4265,133.0213 c -14.5153,26.918 -48.1781,20.3452 -81.525,17.26 -30.9006,-2.8588 -61.7875,-6.1928 -88.942,-2.2818 -87.7321,12.6359 -186.1046,34.5232 -259.6845,83.9455 -42.0747,28.2609 -108.212,44.8671 -172.2257,53.7748 -63.8318,8.8824 -108.2886,6.9201 -156.0359,48.2697 -18.7781,16.262 -50.2356,71.4826 -60.6063,96.7802 -40.1365,97.9066 -45.3892,123.0123 -59.9507,144.3328 -9.2366,13.524 -20.5233,27.0492 -49.6825,54.3413 -36.4843,34.1482 -91.344,89.8515 -116.9732,89.513 -35.9964,-0.4754 -55.1125,-85.5035 -81.729,-86.5629 -25.851,-1.0289 -35.8178,48.1093 -54.1326,45.0721 -5.4684,-0.9069 -18.6681,-58.48 -29.6126,-86.8943 -11.6604,-30.273 -23.7067,-66.4942 -33.7506,-106.3036 -12.3979,-49.1394 -20.3065,-104.3453 -41.854,-151.5366 -32.9865,-72.244 -73.3372,-171.0084 -169.0404,-171.1802 -69.3533,-0.1245 -116.5886,71.3938 -183.3055,98.4286 -88.9375,36.0389 -108.5149,214.3977 -119.8261,261.7631 z"
       id="path861"
       sodipodi:nodetypes="cssssssssssssssssssscccsssssssssssssssscc" />
  </g>
</svg>
