<?xml version="1.0" encoding="UTF-8" standalone="no"?>
<svg
   height="6617px"
   version="1.1"
   width="4959px"
   id="svg52366"
   sodipodi:docname="kerner_2002_measurement_2055_f3a_thin.svg"
   inkscape:version="1.1.2 (b8e25be833, 2022-02-05)"
   xmlns:inkscape="http://www.inkscape.org/namespaces/inkscape"
   xmlns:sodipodi="http://sodipodi.sourceforge.net/DTD/sodipodi-0.dtd"
   xmlns:xlink="http://www.w3.org/1999/xlink"
   xmlns="http://www.w3.org/2000/svg"
   xmlns:svg="http://www.w3.org/2000/svg"
   xmlns:rdf="http://www.w3.org/1999/02/22-rdf-syntax-ns#"
   xmlns:cc="http://creativecommons.org/ns#"
   xmlns:dc="http://purl.org/dc/elements/1.1/">
  <metadata
     id="metadata28">
    <rdf:RDF>
      <cc:Work
         rdf:about="">
        <dc:format>image/svg+xml</dc:format>
        <dc:type
           rdf:resource="http://purl.org/dc/dcmitype/StillImage" />
      </cc:Work>
    </rdf:RDF>
  </metadata>
  <sodipodi:namedview
     id="namedview52368"
     pagecolor="#ffffff"
     bordercolor="#666666"
     borderopacity="1.0"
     inkscape:pageshadow="2"
     inkscape:pageopacity="0.0"
     inkscape:pagecheckerboard="0"
     showgrid="false"
     inkscape:zoom="0.64373752"
     inkscape:cx="952.25147"
     inkscape:cy="1174.3917"
     inkscape:window-width="1920"
     inkscape:window-height="1017"
     inkscape:window-x="-8"
     inkscape:window-y="32"
     inkscape:window-maximized="1"
     inkscape:current-layer="svg52366" />
  <defs
     id="defs52362" />
  <image
     xlink:href="kerner_2002_measurement_2055_p3.png"
     height="6617px"
     sodipodi:insensitive="true"
     width="4959px"
     x="0"
     y="0"
     id="image52364" />
  <g
     id="g66797">
    <path
       style="fill:none;stroke:#000000;stroke-width:1px;stroke-linecap:butt;stroke-linejoin:miter;stroke-opacity:1"
       d="M 902.8938,761.53985 627.92872,927.74338"
       id="path52403" />
    <text
       xml:space="preserve"
       style="font-size:85.3333px;line-height:1.25;font-family:sans-serif"
       x="121.86276"
       y="938.96997"
       id="text54019"><tspan
         sodipodi:role="line"
         id="tspan54017"
         x="121.86276"
         y="938.96997">j2: 4 uA / cm2</tspan></text>
  </g>
  <g
     id="g66802">
    <path
       style="fill:none;stroke:#000000;stroke-width:1px;stroke-linecap:butt;stroke-linejoin:miter;stroke-opacity:1"
       d="M 902.8938,1679.5918 643.45897,1577.0772"
       id="path52405" />
    <text
       xml:space="preserve"
       style="font-size:85.3333px;line-height:1.25;font-family:sans-serif"
       x="171.55957"
       y="1582.0815"
       id="text54869"><tspan
         sodipodi:role="line"
         id="tspan54867"
         x="171.55957"
         y="1582.0815">j1: -4 uA / cm2</tspan></text>
  </g>
  <g
     id="g66922">
    <path
       style="fill:none;stroke:#000000;stroke-width:1px;stroke-linecap:butt;stroke-linejoin:miter;stroke-opacity:1"
       d="M 904.44685,1794.5547 965.0148,2081.939"
       id="path52407" />
    <text
       xml:space="preserve"
       style="font-size:85.3333px;line-height:1.25;font-family:sans-serif"
       x="715.27765"
       y="2125.74"
       id="text56787"><tspan
         sodipodi:role="line"
         id="tspan56785"
         x="715.27765"
         y="2125.74">E1: -0.25 V vs SCE</tspan></text>
  </g>
  <g
     id="g66837">
    <path
       style="fill:none;stroke:#000000;stroke-width:1px;stroke-linecap:butt;stroke-linejoin:miter;stroke-opacity:1"
       d="m 2041.5002,1794.5547 -85.4163,292.0384"
       id="path52409" />
    <text
       xml:space="preserve"
       style="font-size:85.3333px;line-height:1.25;font-family:sans-serif"
       x="1811.9524"
       y="2100.9016"
       id="text58165"><tspan
         sodipodi:role="line"
         id="tspan58163"
         x="1811.9524"
         y="2100.9016">E2: 1 V vs SCE</tspan></text>
  </g>
  <text
     xml:space="preserve"
     style="font-size:85.3333px;line-height:1.25;font-family:sans-serif"
     x="2088.1128"
     y="1747.1117"
     id="text61341"><tspan
       sodipodi:role="line"
       id="tspan61339"
       x="2088.1128"
       y="1747.1117">scan rate: 10 mV / s</tspan></text>
  <text
     xml:space="preserve"
     style="font-size:80px;line-height:1.25;font-family:sans-serif;-inkscape-font-specification:sans-serif;letter-spacing:0px;word-spacing:0px"
     x="-338.64734"
     y="549.91357"
     id="text3408"><tspan
       sodipodi:role="line"
       id="tspan3406"
       x="-338.64734"
       y="549.91357">figure: 2a</tspan></text>
  <text
     xml:space="preserve"
     style="font-size:80px;line-height:1.25;font-family:sans-serif;-inkscape-font-specification:sans-serif;letter-spacing:0px;word-spacing:0px"
     x="-323.11307"
     y="664.86725"
     id="text4468"><tspan
       sodipodi:role="line"
       id="tspan4466"
       x="-323.11307"
       y="664.86725">tags: BCV</tspan></text>
  <g
     id="g12285">
    <text
       id="text60413"
       y="1744.1543"
       x="1207.1591"
       style="font-size:85.3333px;line-height:1.25;font-family:sans-serif"
       xml:space="preserve"><tspan
         y="1744.1543"
         x="1207.1591"
         id="tspan60411"
         sodipodi:role="line">curve: thin</tspan></text>
    <path
       style="fill:none;stroke:#00ff00;stroke-width:1px;stroke-linecap:butt;stroke-linejoin:miter;stroke-opacity:1"
       d="m 950.11551,1181.188 c -0.38831,-10.8348 69.63859,-6.5884 120.97319,-30.0977 39.5519,-18.1132 74.147,-62.2777 87.7687,-150.6826 15.7853,-102.44636 9.9398,-312.62552 15.146,-312.33611 3.3338,0.18533 1.0672,10.84449 7.3787,18.93241 3.3434,4.28438 3.3036,147.43809 10.874,217.28576 3.1029,28.62875 6.2732,31.83726 9.3157,44.48856 3.0425,12.6513 -0.071,35.68458 13.209,46.77528 8.135,6.7938 32.2194,0.1872 63.5324,-0.9901 26.2758,-0.9879 46.0108,6.1111 76.2762,9.1457 90.9446,9.1188 130.9463,55.8162 205.0524,85.0501 37.8491,14.931 83.241,36.4068 118.8373,16.6994 24.0152,-13.2957 29.6367,-48.2863 32.525,-75.584 8.4961,-80.29743 4.3705,-235.09923 8.1555,-234.95599 3.0763,0.11642 1.7205,173.64581 8.6409,265.10219 0.6552,8.6591 1.8074,23.3751 10.4856,23.6898 20.7666,0.7531 33.0158,-69.3249 33.0104,-48.5447 -0.013,50.6814 2.9072,114.9872 -1.5535,175.1491 -2.5777,34.7655 -6.0995,74.4919 -16.311,102.9146 -4.0928,11.3921 -22.575,19.6009 -23.784,31.6454 -16.8006,167.3801 -6.5607,342.2299 -11.9448,342.2939 -5.9318,0.07 1.4245,-191.3115 -7.3788,-297.4329 -1.8533,-22.3406 -4.2513,-31.6582 -15.5981,-58.7781 -2.6892,-6.4276 -8.4641,-7.7914 -12.0419,-10.122 -4.9469,-3.2225 -5.3968,-9.8818 -14.1084,-11.4898 -37.6927,-6.9577 -56.1739,-3.1986 -83.1084,3.301 -64.1588,15.4821 -112.0357,66.0141 -175.7315,83.3026 -36.5836,9.9296 -75.6999,4.5895 -113.4003,8.5438 -13.5104,1.4171 -26.8164,4.8375 -40.3891,4.2719 -18.0131,-0.7507 -34.4983,-8.8756 -52.4282,-6.9904 -15.556,1.6356 -33.4153,10.8505 -48.9331,12.8158 -8.8679,1.1231 -11.6668,-4.6773 -19.2236,0.097 -13.1692,8.3203 -8.3909,42.7982 -13.7867,43.3989 -4.5941,0.5115 -20.9721,-47.7084 -26.4082,-73.0111 -9.244,-43.0269 -19.6525,-80.1118 -33.7871,-108.1574 -21.3152,-42.2932 -109.04599,-28.7729 -109.12833,-35.5347 -0.3293,-27.0444 -1.34677,-58.1756 -2.13596,-80.1957 z"
       id="path5202"
       sodipodi:nodetypes="sssssssssssssssssssssssssssssssssssss" />
  </g>
</svg>
