<?xml version="1.0" encoding="UTF-8" standalone="no"?>
<svg
   xmlns:dc="http://purl.org/dc/elements/1.1/"
   xmlns:cc="http://creativecommons.org/ns#"
   xmlns:rdf="http://www.w3.org/1999/02/22-rdf-syntax-ns#"
   xmlns:svg="http://www.w3.org/2000/svg"
   xmlns="http://www.w3.org/2000/svg"
   xmlns:xlink="http://www.w3.org/1999/xlink"
   xmlns:sodipodi="http://sodipodi.sourceforge.net/DTD/sodipodi-0.dtd"
   xmlns:inkscape="http://www.inkscape.org/namespaces/inkscape"
   height="6617px"
   version="1.1"
   width="4959px"
   id="svg99821"
   sodipodi:docname="kerner_2002_measurement_2055_f6a_1.svg"
   inkscape:version="0.92.2 (5c3e80d, 2017-08-06)">
  <metadata
     id="metadata28">
    <rdf:RDF>
      <cc:Work
         rdf:about="">
        <dc:format>image/svg+xml</dc:format>
        <dc:type
           rdf:resource="http://purl.org/dc/dcmitype/StillImage" />
      </cc:Work>
    </rdf:RDF>
  </metadata>
  <sodipodi:namedview
     id="namedview99823"
     pagecolor="#ffffff"
     bordercolor="#666666"
     borderopacity="1.0"
     inkscape:pageshadow="2"
     inkscape:pageopacity="0.0"
     inkscape:pagecheckerboard="0"
     showgrid="false"
     inkscape:zoom="0.08046719"
     inkscape:cx="229.1258"
     inkscape:cy="2587.9848"
     inkscape:window-width="1920"
     inkscape:window-height="1017"
     inkscape:window-x="-8"
     inkscape:window-y="32"
     inkscape:window-maximized="1"
     inkscape:current-layer="svg99821" />
  <defs
     id="defs99817" />
  <image
     sodipodi:absref="F:\Github\echemdb\website\literature\kerner_2002_measurement_2055\Kerner_2002_Measurement_2055_p5.png"
     xlink:href="Kerner_2002_Measurement_2055_p5.png"
     id="image99819"
     y="0"
     x="0"
     width="4959px"
     sodipodi:insensitive="true"
     height="6617px" />
  <text
     xml:space="preserve"
     style="font-size:85.3333px;line-height:1.25;font-family:sans-serif"
     x="1046.7091"
     y="620.51923"
     id="text102031"><tspan
       sodipodi:role="line"
       id="tspan102029"
       x="1046.7091"
       y="620.51923">scan rate: 10 mV / s</tspan></text>
  <g
     id="g110481">
    <path
       style="fill:none;stroke:#000000;stroke-width:1px;stroke-linecap:butt;stroke-linejoin:miter;stroke-opacity:1"
       d="m 1277.2656,685.42201 -257.842,184.84482"
       id="path103152" />
    <text
       xml:space="preserve"
       style="font-size:85.3333px;line-height:1.25;font-family:sans-serif"
       x="400.27835"
       y="916.58563"
       id="text105362"><tspan
         sodipodi:role="line"
         id="tspan105360"
         x="400.27835"
         y="916.58563">j2: 10 uA / cm2</tspan></text>
  </g>
  <g
     id="g110486">
    <path
       style="fill:none;stroke:#000000;stroke-width:1px;stroke-linecap:butt;stroke-linejoin:miter;stroke-opacity:1"
       d="m 1278.8072,1752.6104 -344.85119,45.0477"
       id="path103154" />
    <text
       xml:space="preserve"
       style="font-size:85.3333px;line-height:1.25;font-family:sans-serif"
       x="431.08295"
       y="1876.6261"
       id="text106290"><tspan
         sodipodi:role="line"
         id="tspan106288"
         x="431.08295"
         y="1876.6261">j1: -10 uA / cm2</tspan></text>
  </g>
  <g
     id="g110491">
    <path
       style="fill:none;stroke:#000000;stroke-width:1px;stroke-linecap:butt;stroke-linejoin:miter;stroke-opacity:1"
       d="M 1544.4542,1754.1535 1196.4969,1923.468"
       id="path103156" />
    <text
       xml:space="preserve"
       style="font-size:85.3333px;line-height:1.25;font-family:sans-serif"
       x="916.57996"
       y="2008.4048"
       id="text108658"><tspan
         sodipodi:role="line"
         id="tspan108656"
         x="916.57996"
         y="2008.4048">E1: -0.25 V vs SCE</tspan></text>
  </g>
  <g
     id="g110496">
    <path
       style="fill:none;stroke:#000000;stroke-width:1px;stroke-linecap:butt;stroke-linejoin:miter;stroke-opacity:1"
       d="m 2344.4214,1752.6104 91.6683,163.0925"
       id="path103158" />
    <text
       xml:space="preserve"
       style="font-size:85.3333px;line-height:1.25;font-family:sans-serif"
       x="2436.0896"
       y="1915.7029"
       id="text109760"><tspan
         sodipodi:role="line"
         id="tspan109758"
         x="2436.0896"
         y="1915.7029">E2: 0.5 V vs SCE</tspan></text>
  </g>
  <g
     id="g111091">
    <text
       xml:space="preserve"
       style="font-size:85.3333px;line-height:1.25;font-family:sans-serif"
       x="739.11322"
       y="528.30237"
       id="text101037"><tspan
         sodipodi:role="line"
         id="tspan101035"
         x="739.11322"
         y="528.30237">curve: Au(111)_0.1M_KClO4_0.1mM_KI</tspan></text>
    <path
       style="fill:none;stroke:#000000;stroke-width:1px;stroke-linecap:butt;stroke-linejoin:miter;stroke-opacity:1"
       d="m 1285.0331,1219.8033 c 1.9934,-13.6736 3.0085,-28.1001 9.3181,-40.3936 7.8718,-15.3373 24.7467,-24.3874 34.1666,-38.8257 8.7355,-13.3894 15.8617,-28.1145 20.1893,-43.5046 4.9388,-17.5636 3.6763,-36.313 6.2121,-54.3807 3.0638,-21.83 8.4392,-43.32272 10.8712,-65.23206 3.0893,-27.83067 1.164,-56.09572 4.6989,-83.87331 1.0007,-7.86362 4.6591,-23.32027 4.6591,-23.32027 2.4018,-1.96944 6.9083,-1.95963 9.3181,0 0,0 5.5289,24.78686 7.7652,37.28254 3.6901,20.61927 5.2945,41.58911 9.3181,62.14589 3.3778,17.25711 5.7536,34.99961 12.4242,51.26981 2.2901,5.5858 3.879,12.9108 9.3182,15.5302 7.0582,3.3991 15.8502,-0.6735 23.2954,-3.111 6.1667,-2.0189 12.3515,-4.8928 17.0832,-9.3331 8.48,-7.9577 18.6363,-29.49257 18.6363,-29.49257 0,0 2.4851,22.88307 4.6591,34.17157 2.8252,14.6698 7.8296,28.8532 10.8711,43.4797 1.9246,9.2553 0.3548,19.558 4.6592,27.9744 6.0137,11.7586 19.6577,17.8174 27.8779,28.1546 5.1211,6.44 7.199,15.2193 13.1778,20.872 5.4771,5.1783 14.0108,6.1152 19.7668,10.9815 5.3733,4.5427 7.4902,12.3476 13.1779,16.4899 9.1769,6.6834 20.8321,9.322 31.8465,12.0727 16.8367,4.2047 34.3799,4.8126 51.6414,6.5995 23.0108,2.3821 46.0777,4.3585 69.1837,5.4908 19.3903,0.9503 38.8196,0.7652 58.2304,1.0911 24.9001,0.4181 49.7997,0.9239 74.7026,1.1087 35.14,0.2608 70.2839,0.3703 105.4229,0 34.7901,-0.3667 69.6861,0.7507 104.3528,-2.1998 7.3761,-0.6278 15.6802,0.6238 21.9632,-3.291 4.9155,-3.0628 4.2965,-12.7636 9.8834,-14.2901 5.0654,-1.384 9.1752,5.4734 14.3041,6.5995 6.4356,1.413 13.1779,0 19.7668,0 14.6421,0 29.2948,-0.5583 43.9262,0 9.5381,0.364 19.099,3.5053 28.5519,2.1823 10.4465,-1.4621 29.6784,-10.9816 29.6784,-10.9816 0,0 4.9755,22.6752 1.0982,32.9622 -2.8331,7.5167 -9.3762,13.8525 -16.5005,17.5635 -24.9307,12.9865 -55.5394,8.8283 -83.4598,12.0903 -16.435,1.9201 -34.4538,-2.6045 -49.4451,4.3996 -2.3451,1.0956 -3.7146,3.608 -5.4908,5.4908 -3.023,3.2043 -4.3804,9.8151 -8.7852,9.8728 -8.0257,0.1051 -10.1253,-12.6503 -16.4723,-17.5634 -3.6283,-2.8086 -7.6624,-5.3587 -12.0797,-6.5995 -14.8181,-4.1624 -30.7329,-1.9472 -46.1225,-2.1998 -24.9003,-0.4086 -49.8054,0.5463 -74.7027,1.1087 -24.1737,0.5461 -48.3292,1.8331 -72.5063,2.1998 -30.3788,0.4607 -60.7652,-0.1863 -91.1469,0 -29.6612,0.1819 -59.4334,-1.5364 -88.9786,1.0911 -26.6236,2.3677 -53.9311,4.171 -79.0953,13.1814 -13.1241,4.6993 -24.6387,13.142 -36.2392,20.872 -13.0399,8.6892 -26.1196,17.6214 -37.3372,28.5625 -13.7979,13.4579 -28.1524,27.5523 -36.2673,45.035 -9.733,20.9687 -8.9504,45.3614 -13.1778,68.0891 -1.9048,10.2406 -5.4908,30.7624 -5.4908,30.7624 0,0 -11.659,-22.936 -21.9631,-29.6537 -9.7454,-6.3535 -22.4809,-6.401 -34.0428,-7.6907 -11.6415,-1.2986 -23.4466,0.671 -35.141,0 -9.5739,-0.5494 -19.488,-0.2421 -28.5801,-3.2908 -6.8479,-2.2962 -11.5252,-12.0662 -18.6686,-10.9992 -5.8944,0.8804 -8.0875,8.7564 -12.0798,13.1813 -2.9539,3.274 -6.7785,5.964 -8.7852,9.8905 -4.608,9.0164 0.088,22.0417 -6.5889,29.6537 -2.8259,3.2215 -9.0026,1.4172 -12.0797,4.3997 -5.6619,5.4878 -8.7852,21.9631 -8.7852,21.9631 0,0 -2.7435,-116.4547 -1.0982,-174.6489 0.7645,-27.0395 1.192,-54.2235 5.0943,-80.9908 z"
       id="path110531"
       sodipodi:nodetypes="ssssssssssssssscsssssssssssssssssssscsssssssssssssssssscssssssssscss" />
  </g>
  <text
     xml:space="preserve"
     style="font-style:normal;font-variant:normal;font-weight:normal;font-stretch:normal;font-size:80px;line-height:1.25;font-family:sans-serif;-inkscape-font-specification:sans-serif;letter-spacing:0px;word-spacing:0px;fill:#000000;fill-opacity:1;stroke:none"
     x="-950.28314"
     y="291.70282"
     id="text837"><tspan
       sodipodi:role="line"
       id="tspan835"
       x="-950.28314"
       y="291.70282">comment: For CV with KI, KClO4 is used instead of HClO4 (as for KCl, BrCl).</tspan></text>
</svg>
