<?xml version="1.0" encoding="UTF-8" standalone="no"?>
<svg
   height="6617px"
   version="1.1"
   width="4959px"
   id="svg73296"
   sodipodi:docname="kerner_2002_measurement_2055_f4a_thick.svg"
   inkscape:version="1.1.2 (b8e25be833, 2022-02-05)"
   xmlns:inkscape="http://www.inkscape.org/namespaces/inkscape"
   xmlns:sodipodi="http://sodipodi.sourceforge.net/DTD/sodipodi-0.dtd"
   xmlns:xlink="http://www.w3.org/1999/xlink"
   xmlns="http://www.w3.org/2000/svg"
   xmlns:svg="http://www.w3.org/2000/svg"
   xmlns:rdf="http://www.w3.org/1999/02/22-rdf-syntax-ns#"
   xmlns:cc="http://creativecommons.org/ns#"
   xmlns:dc="http://purl.org/dc/elements/1.1/">
  <metadata
     id="metadata28">
    <rdf:RDF>
      <cc:Work
         rdf:about="">
        <dc:format>image/svg+xml</dc:format>
        <dc:type
           rdf:resource="http://purl.org/dc/dcmitype/StillImage" />
      </cc:Work>
    </rdf:RDF>
  </metadata>
  <sodipodi:namedview
     id="namedview73298"
     pagecolor="#ffffff"
     bordercolor="#666666"
     borderopacity="1.0"
     inkscape:pageshadow="2"
     inkscape:pageopacity="0.0"
     inkscape:pagecheckerboard="0"
     showgrid="false"
     inkscape:zoom="0.22759558"
     inkscape:cx="3686.3633"
     inkscape:cy="1476.3028"
     inkscape:window-width="1920"
     inkscape:window-height="1017"
     inkscape:window-x="-8"
     inkscape:window-y="32"
     inkscape:window-maximized="1"
     inkscape:current-layer="svg73296" />
  <defs
     id="defs73292" />
  <image
     xlink:href="kerner_2002_measurement_2055_p3.png"
     id="image73294"
     y="0"
     x="0"
     width="4959px"
     sodipodi:insensitive="true"
     height="6617px" />
  <g
     id="g80236">
    <path
       style="fill:none;stroke:#000000;stroke-width:1px;stroke-linecap:butt;stroke-linejoin:miter;stroke-opacity:1"
       d="m 3079.5778,674.9266 -413.264,173.96869"
       id="path73369" />
    <text
       xml:space="preserve"
       style="font-size:85.3333px;line-height:1.25;font-family:sans-serif"
       x="2144.4177"
       y="932.76855"
       id="text75447"><tspan
         sodipodi:role="line"
         id="tspan75445"
         x="2144.4177"
         y="932.76855">j2: 3 uA / cm2</tspan></text>
  </g>
  <g
     id="g80241">
    <path
       style="fill:none;stroke:#000000;stroke-width:1px;stroke-linecap:butt;stroke-linejoin:miter;stroke-opacity:1"
       d="m 3079.5778,1675.2839 -310.6847,55.8989"
       id="path73371" />
    <text
       xml:space="preserve"
       style="font-size:85.3333px;line-height:1.25;font-family:sans-serif"
       x="2175.3984"
       y="1771.6012"
       id="text76375"><tspan
         sodipodi:role="line"
         id="tspan76373"
         x="2175.3984"
         y="1771.6012">j1: -2 uA / cm2</tspan></text>
  </g>
  <g
     id="g80246">
    <path
       style="fill:none;stroke:#000000;stroke-width:1px;stroke-linecap:butt;stroke-linejoin:miter;stroke-opacity:1"
       d="m 3082.6839,1867.9186 -108.7913,183.2771"
       id="path73373" />
    <text
       xml:space="preserve"
       style="font-size:85.3333px;line-height:1.25;font-family:sans-serif"
       x="2479.9509"
       y="2122.6245"
       id="text77303"><tspan
         sodipodi:role="line"
         id="tspan77301"
         x="2479.9509"
         y="2122.6245">E1: -0.25 V vs SCE</tspan></text>
  </g>
  <g
     id="g80251">
    <path
       style="fill:none;stroke:#000000;stroke-width:1px;stroke-linecap:butt;stroke-linejoin:miter;stroke-opacity:1"
       d="m 4166.9345,1874.091 -40.3789,288.9523"
       id="path73375" />
    <text
       xml:space="preserve"
       style="font-size:85.3333px;line-height:1.25;font-family:sans-serif"
       x="3949.3518"
       y="2234.4724"
       id="text78615"><tspan
         sodipodi:role="line"
         id="tspan78613"
         x="3949.3518"
         y="2234.4724">E2: 1V vs SCE</tspan></text>
  </g>
  <g
     id="g9367">
    <text
       xml:space="preserve"
       style="font-size:85.3333px;line-height:1.25;font-family:sans-serif"
       x="3763.3613"
       y="813.16187"
       id="text81729"><tspan
         sodipodi:role="line"
         id="tspan81727"
         x="3763.3613"
         y="813.16187">curve: thick</tspan></text>
    <path
       style="fill:none;stroke:#00ff00;stroke-width:1px;stroke-linecap:butt;stroke-linejoin:miter;stroke-opacity:1"
       d="m 3130.8106,1338.1367 v -109.8359 c 0,0 60.8452,-2.8245 91.175,-5.4908 44.426,-3.9055 88.8512,-8.4387 132.9048,-15.3812 18.4375,-2.9056 36.8018,-6.4475 54.9078,-10.9816 15.9597,-3.9967 32.5381,-6.9051 47.2488,-14.2725 7.7258,-3.8692 12.9068,-12.0156 20.8649,-15.3812 6.1521,-2.6018 13.4585,-1.0948 19.7668,-3.2909 15.0108,-5.2258 29.4518,-12.9782 41.7299,-23.0718 14.0503,-11.5506 25.5615,-26.2824 35.1409,-41.744 6.3053,-10.177 9.7502,-21.8726 14.3042,-32.9446 5.3796,-13.0794 9.3909,-26.7296 15.3741,-39.5441 3.5348,-7.5707 6.4249,-14.2155 12.9036,-19.4916 3.8611,-3.1444 8.6544,-8.20443 13.4521,-6.87118 8.9935,2.49928 10.0443,22.79368 18.6687,26.36418 6.0974,2.5243 13.5353,-4.4287 19.7668,-6.6009 7.1932,-2.5074 15.6988,-9.0335 23.0624,-10.9845 11.0299,-2.9223 18.2869,1.7881 29.6772,1.1116 11.9698,-0.7109 23.3157,-9.6772 35.1409,-7.6906 10.3183,1.7335 63.3081,20.2601 92.5467,38.1652 18.7763,11.4983 36.035,27.3272 52.4379,42.0142 15.4759,13.857 30.3251,28.5892 47.2487,40.6353 14.8357,10.5599 27.8284,20.6047 43.9254,29.1191 16.4996,8.7273 35.72,17.9173 53.8104,22.5152 10.0978,2.5665 60.3735,10.2887 61.5248,4.3821 6.6061,-33.8936 7.0639,-85.991 7.6871,-118.6148 0.5245,-27.4572 1.0982,-82.37918 1.0982,-82.37918 l 7.687,172.44898 c 0.3465,7.7729 8.006,15.064 15.3743,17.5634 3.5353,1.1992 8.1207,0.1987 10.9814,-2.1998 6.9271,-5.8078 7.9196,-16.4302 9.8834,-25.254 9.804,-44.0522 8.7853,-135.1047 8.7853,-135.1047 0,0 1.694,111.3313 0,166.9582 -0.9155,30.0651 -2.4131,60.1487 -5.4907,90.0698 -2.3472,22.8196 -4.3336,45.8481 -9.8834,68.1067 -3.6701,14.7195 -8.6667,29.2283 -15.3742,42.8351 -5.387,10.928 -10.6954,21.3469 -20.316,28.8225 -4.5702,3.5512 -15.5506,1.6373 -15.9231,7.4131 l -6.5889,102.16 c 0,0 -6.0611,-96.337 -9.8834,-141.6865 -0.5193,-6.1612 -27.4335,4.6198 -40.66,8.7816 -11.7372,3.6932 -22.6644,9.5889 -34.0427,14.2725 -18.9842,7.8143 -39.6832,12.21 -57.104,23.0719 -16.2831,10.1526 -28.0417,26.2393 -42.8563,38.4354 -20.1802,16.6134 -39.7328,34.5628 -62.5947,47.2347 -16.1224,8.9364 -33.8685,14.8908 -51.6415,19.7809 -18.6249,5.1246 -37.9037,7.7523 -57.104,9.8728 -14.9445,1.6505 -30.3014,5.1098 -45.0525,2.1998 -12.6921,-2.5038 -22.9311,-12.1969 -35.1409,-16.4723 -8.8818,-3.1101 -18.2697,-4.5299 -27.4539,-6.5819 -10.5802,-2.3639 -23.1158,-0.1728 -31.8465,-6.5995 -20.3179,-14.9561 -39.3204,-48.9892 -59.3285,-66.998 -15.7463,-14.1729 -60.3224,-37.2805 -72.4805,-36.2575 -8.5782,0.7218 -11.9541,-17.3278 -71.406,-35.1401 -33.2255,-9.9546 -67.7175,-15.6604 -102.1565,-19.7809 -30.9374,-3.7016 -62.2471,-6.7755 -93.3713,-8.2265 -23.793,-1.1093 -71.38,0.5388 -71.38,0.5388 z"
       id="path83482"
       sodipodi:nodetypes="ccsssssssssssssssssssssssscsssscsssssscsssssssssssssssssc" />
  </g>
  <text
     xml:space="preserve"
     style="font-size:85.3333px;line-height:1.25;font-family:sans-serif"
     x="3474.7393"
     y="593.20447"
     id="text85294"><tspan
       sodipodi:role="line"
       id="tspan85292"
       x="3474.7393"
       y="593.20447">scan rate: 10 mV / s</tspan></text>
  <text
     xml:space="preserve"
     style="font-size:80px;line-height:1.25;font-family:sans-serif;-inkscape-font-specification:sans-serif;letter-spacing:0px;word-spacing:0px"
     x="3336.7637"
     y="71.457695"
     id="text3191"><tspan
       sodipodi:role="line"
       id="tspan3189"
       x="3336.7637"
       y="71.457695">figure: 4a</tspan></text>
  <text
     xml:space="preserve"
     style="font-size:80px;line-height:1.25;font-family:sans-serif;-inkscape-font-specification:sans-serif;letter-spacing:0px;word-spacing:0px"
     x="3346.0842"
     y="192.62509"
     id="text5519"><tspan
       sodipodi:role="line"
       id="tspan5517"
       x="3346.0842"
       y="192.62509">tags: BCV</tspan></text>
</svg>
