<?xml version="1.0" encoding="UTF-8" standalone="no"?>
<svg
   xmlns:dc="http://purl.org/dc/elements/1.1/"
   xmlns:cc="http://creativecommons.org/ns#"
   xmlns:rdf="http://www.w3.org/1999/02/22-rdf-syntax-ns#"
   xmlns:svg="http://www.w3.org/2000/svg"
   xmlns="http://www.w3.org/2000/svg"
   xmlns:xlink="http://www.w3.org/1999/xlink"
   xmlns:sodipodi="http://sodipodi.sourceforge.net/DTD/sodipodi-0.dtd"
   xmlns:inkscape="http://www.inkscape.org/namespaces/inkscape"
   height="6617px"
   version="1.1"
   width="4959px"
   id="svg52366"
   sodipodi:docname="kerner_2002_measurement_2055_p3_f3a_thick.svg"
   inkscape:version="0.92.2 (5c3e80d, 2017-08-06)">
  <metadata
     id="metadata28">
    <rdf:RDF>
      <cc:Work
         rdf:about="">
        <dc:format>image/svg+xml</dc:format>
        <dc:type
           rdf:resource="http://purl.org/dc/dcmitype/StillImage" />
      </cc:Work>
    </rdf:RDF>
  </metadata>
  <sodipodi:namedview
     id="namedview52368"
     pagecolor="#ffffff"
     bordercolor="#666666"
     borderopacity="1.0"
     inkscape:pageshadow="2"
     inkscape:pageopacity="0.0"
     inkscape:pagecheckerboard="0"
     showgrid="false"
     inkscape:zoom="0.080467193"
     inkscape:cx="-6.3888209"
     inkscape:cy="2683.8976"
     inkscape:window-width="1920"
     inkscape:window-height="1017"
     inkscape:window-x="-8"
     inkscape:window-y="32"
     inkscape:window-maximized="1"
     inkscape:current-layer="svg52366" />
  <defs
     id="defs52362" />
  <image
     sodipodi:absref="F:\Github\echemdb\website\literature\kerner_2002_measurement_2055\Kerner_2002_Measurement_2055_p3.png"
     xlink:href="Kerner_2002_Measurement_2055_p3.png"
     id="image52364"
     y="0"
     x="0"
     width="4959px"
     sodipodi:insensitive="true"
     height="6617px" />
  <g
     id="g66797">
    <path
       style="fill:none;stroke:#000000;stroke-width:1px;stroke-linecap:butt;stroke-linejoin:miter;stroke-opacity:1"
       d="M 902.8938,761.53985 627.92872,927.74338"
       id="path52403" />
    <text
       xml:space="preserve"
       style="font-size:85.3333px;line-height:1.25;font-family:sans-serif"
       x="121.86276"
       y="938.96997"
       id="text54019"><tspan
         sodipodi:role="line"
         id="tspan54017"
         x="121.86276"
         y="938.96997">y2: 4 uA / cm2</tspan></text>
  </g>
  <g
     id="g66802">
    <path
       style="fill:none;stroke:#000000;stroke-width:1px;stroke-linecap:butt;stroke-linejoin:miter;stroke-opacity:1"
       d="M 902.8938,1679.5918 643.45897,1577.0772"
       id="path52405" />
    <text
       xml:space="preserve"
       style="font-size:85.3333px;line-height:1.25;font-family:sans-serif"
       x="171.55957"
       y="1582.0815"
       id="text54869"><tspan
         sodipodi:role="line"
         id="tspan54867"
         x="171.55957"
         y="1582.0815">y1: -4 uA / cm2</tspan></text>
  </g>
  <g
     id="g66922">
    <path
       style="fill:none;stroke:#000000;stroke-width:1px;stroke-linecap:butt;stroke-linejoin:miter;stroke-opacity:1"
       d="M 904.44685,1794.5547 965.0148,2081.939"
       id="path52407" />
    <text
       xml:space="preserve"
       style="font-size:85.3333px;line-height:1.25;font-family:sans-serif"
       x="715.27765"
       y="2125.74"
       id="text56787"><tspan
         sodipodi:role="line"
         id="tspan56785"
         x="715.27765"
         y="2125.74">x1: -0.25 V vs SCE</tspan></text>
  </g>
  <g
     id="g66837">
    <path
       style="fill:none;stroke:#000000;stroke-width:1px;stroke-linecap:butt;stroke-linejoin:miter;stroke-opacity:1"
       d="m 2041.5002,1794.5547 -85.4163,292.0384"
       id="path52409" />
    <text
       xml:space="preserve"
       style="font-size:85.3333px;line-height:1.25;font-family:sans-serif"
       x="1811.9524"
       y="2100.9016"
       id="text58165"><tspan
         sodipodi:role="line"
         id="tspan58163"
         x="1811.9524"
         y="2100.9016">x2: 1 V vs SCE</tspan></text>
  </g>
  <text
     xml:space="preserve"
     style="font-size:85.3333px;line-height:1.25;font-family:sans-serif"
     x="954.52319"
     y="600.3407"
     id="text61341"><tspan
       sodipodi:role="line"
       id="tspan61339"
       x="954.52319"
       y="600.3407">scan rate: 10 mV / s</tspan></text>
  <g
     id="g70322">
    <text
       xml:space="preserve"
       style="font-size:85.3333px;line-height:1.25;font-family:sans-serif"
       x="917.17096"
       y="522.68951"
       id="text60413"><tspan
         sodipodi:role="line"
         id="tspan60411"
         x="917.17096"
         y="522.68951">curve: solid</tspan></text>
    <path
       style="fill:none;stroke:#000000;stroke-width:1px;stroke-linecap:butt;stroke-linejoin:miter;stroke-opacity:1"
       d="m 951.51105,1259.053 2.19631,-69.1978 c 0,0 35.89374,-1.0694 53.80964,-2.1999 30.075,-1.8977 60.1024,-4.5849 90.0768,-7.6906 30.0868,-3.1173 60.4782,-4.7479 90.0768,-10.9815 28.4417,-5.99 58.1143,-11.0267 83.4598,-25.254 11.9851,-6.7276 21.5706,-17.2404 30.7483,-27.4715 10.517,-11.7241 21.3537,-23.9267 27.4821,-38.4354 10.4236,-24.6777 9.5306,-52.7231 14.2759,-79.08827 5.1392,-28.55411 15.3742,-85.67014 15.3742,-85.67014 0,0 14.3138,47.4841 20.8649,71.39763 4.2924,15.66868 5.5557,32.33868 12.0797,47.21718 3.5084,8.0012 6.6445,17.7277 14.276,21.9807 14.4005,8.0253 32.9631,1.4369 49.4452,1.0911 28.6043,-0.6001 57.0467,-5.7646 85.656,-5.4908 30.863,0.2953 61.6152,4.1275 92.2732,7.6906 31.9938,3.7183 63.4935,17.2189 95.5676,14.2725 23.5155,-2.1602 49.1553,-7.5733 66.9875,-23.0542 14.5954,-12.6709 18.1752,-34.1359 26.3838,-51.6344 7.1042,-15.14416 19.7667,-46.12602 19.7667,-46.12602 0,0 8.2882,34.97638 10.9816,52.72552 2.8691,18.9072 1.2569,38.4585 5.4909,57.1075 3.539,15.5876 7.2741,31.9624 16.4723,45.0349 6.5829,9.3557 16.4222,16.3072 26.3557,21.9807 9.4583,5.4021 20.2656,8.1242 30.7764,10.9816 15.1022,4.1056 30.5413,7.3116 46.1225,8.7817 7.6531,0.7221 23.0612,0 23.0612,0 0,0 0.7613,44.7399 -1.0982,66.998 -1.0176,12.1798 -0.7301,24.9962 -5.4907,36.2532 -4.477,10.5865 -12.7743,19.2894 -20.865,27.4538 -10.1025,10.1945 -21.5583,19.2826 -34.0427,26.3628 -7.8725,4.4647 -16.8633,6.578 -25.2857,9.8904 -15.7517,6.1949 -34.4972,7.5094 -47.2206,18.6721 -8.4997,7.4571 -12.3544,19.1231 -16.4724,29.6538 -5.0789,12.9879 -7.1662,26.9744 -9.8833,40.6528 -5.1248,25.7992 -12.0798,77.9796 -12.0798,77.9796 0,0 -22.1002,-45.2169 -36.2672,-65.9069 -8.369,-12.2224 -15.6905,-26.7042 -28.552,-34.0534 -13.5329,-7.7329 -30.5374,-7.8893 -46.1226,-7.6906 -21.2581,0.271 -41.6325,8.717 -62.623,12.0902 -25.5075,4.0991 -51.1232,7.7682 -76.8707,9.8905 -29.9441,2.4682 -60.033,3.6146 -90.0769,3.291 -31.5411,-0.3397 -62.9574,-4.0932 -94.4694,-5.4908 -12.0735,-0.5355 -24.2092,-2.2647 -36.2392,-1.1087 -11.5802,1.1128 -22.4827,8.9969 -34.0427,7.6906 -10.0957,-1.1408 -18.105,-9.2706 -27.4821,-13.1814 -5.0224,-2.0947 -10.0122,-4.562 -15.3741,-5.4908 -4.3282,-0.7497 -9.4112,2.26 -13.1779,0 0,0 -14.9681,-34.6237 -26.3557,-49.4169 -12.8011,-16.6294 -27.9212,-32.4069 -46.1225,-42.8527 -14.2695,-8.1893 -31.1377,-10.9385 -47.2488,-14.2725 -18.7632,-3.8828 -38.0774,-4.3193 -57.104,-6.5819 -17.9538,-2.1351 -35.8018,-5.3346 -53.8378,-6.5995 -20.0868,-1.4087 -40.27202,-0.4677 -60.39848,-1.0911 -8.42326,-0.2609 -25.25757,-1.1087 -25.25757,-1.1087 z"
       id="path69990"
       sodipodi:nodetypes="ccssssssscssssssssscsssssscsssssssscssssssssssssssssssc" />
  </g>
  <text
     xml:space="preserve"
     style="font-style:normal;font-variant:normal;font-weight:normal;font-stretch:normal;font-size:80px;line-height:1.25;font-family:sans-serif;-inkscape-font-specification:sans-serif;letter-spacing:0px;word-spacing:0px;fill:#000000;fill-opacity:1;stroke:none"
     x="-664.45239"
     y="291.70303"
     id="text837"><tspan
       sodipodi:role="line"
       id="tspan835"
       x="-664.45239"
       y="291.70303">comment: For CV with KI, KClO4 is used instead of HClO4 (as for KCl, BrCl).</tspan></text>
</svg>
