<?xml version="1.0" encoding="UTF-8" standalone="no"?>
<svg
   height="6617px"
   version="1.1"
   width="4959px"
   id="svg52366"
   sodipodi:docname="Kerner_2002_Measurement_2055_p3_3a_thin.svg"
   inkscape:version="1.1 (ce6663b3b7, 2021-05-25)"
   xmlns:inkscape="http://www.inkscape.org/namespaces/inkscape"
   xmlns:sodipodi="http://sodipodi.sourceforge.net/DTD/sodipodi-0.dtd"
   xmlns:xlink="http://www.w3.org/1999/xlink"
   xmlns="http://www.w3.org/2000/svg"
   xmlns:svg="http://www.w3.org/2000/svg">
  <sodipodi:namedview
     id="namedview52368"
     pagecolor="#ffffff"
     bordercolor="#666666"
     borderopacity="1.0"
     inkscape:pageshadow="2"
     inkscape:pageopacity="0.0"
     inkscape:pagecheckerboard="0"
     showgrid="false"
     inkscape:zoom="0.16093438"
     inkscape:cx="1432.2608"
     inkscape:cy="2295.9668"
     inkscape:window-width="1608"
     inkscape:window-height="986"
     inkscape:window-x="72"
     inkscape:window-y="27"
     inkscape:window-maximized="1"
     inkscape:current-layer="g65484" />
  <defs
     id="defs52362" />
  <image
     height="6617px"
     sodipodi:insensitive="true"
     width="4959px"
     x="0"
     xlink:href="Kerner_2002_Measurement_2055_p3.png"
     y="0"
     id="image52364" />
  <g
     id="g66797">
    <path
       style="fill:none;stroke:#000000;stroke-width:1px;stroke-linecap:butt;stroke-linejoin:miter;stroke-opacity:1"
       d="M 902.8938,761.53985 627.92872,927.74338"
       id="path52403" />
    <text
       xml:space="preserve"
       style="font-size:85.3333px;line-height:1.25;font-family:sans-serif"
       x="121.86276"
       y="938.96997"
       id="text54019"><tspan
         sodipodi:role="line"
         id="tspan54017"
         x="121.86276"
         y="938.96997">y2: 4 uA / cm2</tspan></text>
  </g>
  <g
     id="g66802">
    <path
       style="fill:none;stroke:#000000;stroke-width:1px;stroke-linecap:butt;stroke-linejoin:miter;stroke-opacity:1"
       d="M 902.8938,1679.5918 643.45897,1577.0772"
       id="path52405" />
    <text
       xml:space="preserve"
       style="font-size:85.3333px;line-height:1.25;font-family:sans-serif"
       x="171.55957"
       y="1582.0815"
       id="text54869"><tspan
         sodipodi:role="line"
         id="tspan54867"
         x="171.55957"
         y="1582.0815">y1: -4 uA / cm2</tspan></text>
  </g>
  <g
     id="g66922">
    <path
       style="fill:none;stroke:#000000;stroke-width:1px;stroke-linecap:butt;stroke-linejoin:miter;stroke-opacity:1"
       d="M 904.44685,1794.5547 965.0148,2081.939"
       id="path52407" />
    <text
       xml:space="preserve"
       style="font-size:85.3333px;line-height:1.25;font-family:sans-serif"
       x="715.27765"
       y="2125.74"
       id="text56787"><tspan
         sodipodi:role="line"
         id="tspan56785"
         x="715.27765"
         y="2125.74">x1: -0.25 V vs SCE</tspan></text>
  </g>
  <g
     id="g66837">
    <path
       style="fill:none;stroke:#000000;stroke-width:1px;stroke-linecap:butt;stroke-linejoin:miter;stroke-opacity:1"
       d="m 2041.5002,1794.5547 -85.4163,292.0384"
       id="path52409" />
    <text
       xml:space="preserve"
       style="font-size:85.3333px;line-height:1.25;font-family:sans-serif"
       x="1811.9524"
       y="2100.9016"
       id="text58165"><tspan
         sodipodi:role="line"
         id="tspan58163"
         x="1811.9524"
         y="2100.9016">x2: 1 V vs SCE</tspan></text>
  </g>
  <text
     xml:space="preserve"
     style="font-size:85.3333px;line-height:1.25;font-family:sans-serif"
     x="954.52319"
     y="600.3407"
     id="text61341"><tspan
       sodipodi:role="line"
       id="tspan61339"
       x="954.52319"
       y="600.3407">scan rate: 10 mV / s</tspan></text>
  <g
     id="g65484">
    <text
       xml:space="preserve"
       style="font-size:85.3333px;line-height:1.25;font-family:sans-serif"
       x="917.17096"
       y="522.68951"
       id="text60413"><tspan
         sodipodi:role="line"
         id="tspan60411"
         x="917.17096"
         y="522.68951">curve: Au(111)_0.1M_HClO4_0.1M_KCl</tspan></text>
    <path
       style="fill:none;stroke:#000000;stroke-width:1px;stroke-linecap:butt;stroke-linejoin:miter;stroke-opacity:1"
       d="m 949.29935,1261.2524 2.19631,-77.9971 c 0,0 22.42945,-8.8959 34.04281,-12.0727 16.55893,-4.5297 34.02573,-5.2121 50.54323,-9.8904 15.0459,-4.2615 30.3113,-8.78 43.9262,-16.4724 9.7568,-5.5126 18.6553,-12.7301 26.3557,-20.8719 13.5432,-14.3196 25.7796,-30.4451 34.071,-48.3259 7.9578,-17.1615 10.8434,-36.3226 14.276,-54.9253 3.6093,-19.5606 4.9006,-39.48843 6.5889,-59.30741 3.1445,-36.91206 4.8871,-73.93512 6.589,-110.94176 1.5482,-33.66609 1.844,-67.38089 3.2944,-101.05134 0.8836,-20.51277 3.2945,-61.50722 3.2945,-61.50722 0,0 6.7495,36.48449 8.7852,54.90773 2.6188,23.69997 3.2496,47.58083 4.3926,71.39763 1.0186,21.22387 0.9995,42.49249 2.1964,63.70705 1.055,18.69974 2.0121,37.43889 4.3926,56.01647 1.3239,10.33172 3.7636,20.49041 5.4908,30.76241 2.3359,13.89189 1.3162,28.68101 6.5889,41.74394 1.6724,4.1434 3.6302,9.1087 7.687,10.9815 7.011,3.2365 15.348,-1.8328 23.0613,-2.1998 10.6129,-0.505 21.2497,0 31.8746,0 15.0081,0 30.0835,-1.4186 45.0244,0 17.439,1.6558 34.5072,6.1162 51.6133,9.8904 13.2739,2.9287 26.5264,6.0364 39.5617,9.8905 12.9866,3.8397 26.1378,7.4923 38.4354,13.1638 18.935,8.7326 35.3077,22.2914 53.8377,31.8535 16.021,8.2674 32.6799,15.2807 49.417,21.9807 20.208,8.0894 40.502,16.2164 61.4967,21.9631 11.1576,3.0541 22.5557,5.4944 34.0709,6.5994 8.0163,0.7692 16.344,1.9424 24.1594,0 6.8343,-1.6985 13.2007,-5.4524 18.6686,-9.8904 6.6622,-5.4073 12.8037,-12.0242 16.4723,-19.7808 7.49,-15.8362 7.894,-34.212 9.8834,-51.6168 2.164,-18.9325 1.5094,-38.0818 2.1964,-57.1252 1.1754,-32.5841 2.2927,-65.17048 3.2944,-97.76038 0.8101,-26.3546 2.1963,-79.07065 2.1963,-79.07065 0,0 4.1148,85.65313 5.4908,128.50519 1.0931,34.04367 0.1755,68.15884 2.1963,102.16004 0.8948,15.0563 -0.9759,30.9399 4.3926,45.035 1.7734,4.6562 3.8603,11.5325 8.8134,12.0726 8.2501,0.8996 14.1214,-9.53 18.6686,-16.4723 6.535,-9.977 10.9816,-34.0534 10.9816,-34.0534 0,0 0.9152,46.8689 1.0982,70.3065 0.3002,38.4401 2.8871,76.9912 0,115.3239 -1.8355,24.3696 -6.1831,48.5259 -10.9816,72.4888 -1.7785,8.8816 -2.1238,18.4819 -6.5889,26.3627 -4.342,7.6634 -14.5852,10.8828 -18.6968,18.6722 -8.3471,15.8135 -7.6567,34.9834 -9.8834,52.7255 -2.833,22.5723 -3.5858,45.3715 -4.3926,68.1066 -1.9868,55.9904 -1.382,112.0485 -1.0982,168.0734 0.1113,21.9659 1.0982,65.8893 1.0982,65.8893 0,0 -3.9976,-103.2345 -5.4908,-154.868 -1.4185,-49.0509 1.496,-98.3403 -3.2945,-147.1773 -1.4517,-14.7993 -1.7388,-30.3149 -7.687,-43.9438 -4.5978,-10.5346 -11.8528,-20.3195 -20.865,-27.4539 -8.4804,-6.7134 -18.9755,-11.4386 -29.6502,-13.1813 -15.2508,-2.4898 -30.9467,1.62 -46.1506,4.382 -17.9115,3.2538 -35.7232,7.747 -52.7114,14.2901 -21.8546,8.4174 -41.9902,20.7737 -62.623,31.8536 -19.6404,10.547 -37.4531,24.7925 -58.2022,32.9446 -22.0726,8.6721 -45.6822,13.5133 -69.2119,16.4723 -22.1577,2.7865 -44.656,0.9239 -66.9875,1.1087 -18.3113,0.1515 -36.638,0.7204 -54.9358,0 -13.9424,-0.5489 -27.9016,-5.1534 -41.7299,-3.2909 -13.885,1.8701 -25.6097,12.7188 -39.5336,14.2724 -8.7989,0.9818 -18.7917,-7.8919 -26.3557,-3.2909 -12.6668,7.7049 -15.4023,41.7263 -15.4023,41.7263 0,0 -12.8404,-25.1662 -17.5705,-38.4354 -10.6755,-29.9474 -14.3706,-62.0206 -24.1594,-92.2695 -5.9238,-18.3053 -9.3033,-38.438 -20.8649,-53.8167 -5.8086,-7.7263 -14.3365,-13.4202 -23.0613,-17.581 -12.5901,-6.0041 -26.8323,-8.0574 -40.65986,-9.8905 -14.51961,-1.9248 -43.92619,-1.0975 -43.92619,-1.0975 z"
       id="path64468"
       sodipodi:nodetypes="ccssssssssscssssssssssssssssssssssscssssscsssssssscssssssssssssssscsssssc" />
  </g>
</svg>
