<?xml version="1.0" encoding="UTF-8" standalone="no"?>
<svg
   height="6617px"
   version="1.1"
   width="4959px"
   id="svg73296"
   sodipodi:docname="kerner_2002_measurement_2055_f4a_thin.svg"
   inkscape:version="1.1.2 (b8e25be833, 2022-02-05)"
   xmlns:inkscape="http://www.inkscape.org/namespaces/inkscape"
   xmlns:sodipodi="http://sodipodi.sourceforge.net/DTD/sodipodi-0.dtd"
   xmlns:xlink="http://www.w3.org/1999/xlink"
   xmlns="http://www.w3.org/2000/svg"
   xmlns:svg="http://www.w3.org/2000/svg"
   xmlns:rdf="http://www.w3.org/1999/02/22-rdf-syntax-ns#"
   xmlns:cc="http://creativecommons.org/ns#"
   xmlns:dc="http://purl.org/dc/elements/1.1/">
  <metadata
     id="metadata28">
    <rdf:RDF>
      <cc:Work
         rdf:about="">
        <dc:format>image/svg+xml</dc:format>
        <dc:type
           rdf:resource="http://purl.org/dc/dcmitype/StillImage" />
      </cc:Work>
    </rdf:RDF>
  </metadata>
  <sodipodi:namedview
     id="namedview73298"
     pagecolor="#ffffff"
     bordercolor="#666666"
     borderopacity="1.0"
     inkscape:pageshadow="2"
     inkscape:pageopacity="0.0"
     inkscape:pagecheckerboard="0"
     showgrid="false"
     inkscape:zoom="0.11379779"
     inkscape:cx="2293.5419"
     inkscape:cy="2565.9549"
     inkscape:window-width="1920"
     inkscape:window-height="1017"
     inkscape:window-x="-8"
     inkscape:window-y="32"
     inkscape:window-maximized="1"
     inkscape:current-layer="svg73296" />
  <defs
     id="defs73292" />
  <image
     xlink:href="kerner_2002_measurement_2055_p3.png"
     id="image73294"
     y="0"
     x="0"
     width="4959px"
     sodipodi:insensitive="true"
     height="6617px" />
  <g
     id="g80236">
    <path
       style="fill:none;stroke:#000000;stroke-width:1px;stroke-linecap:butt;stroke-linejoin:miter;stroke-opacity:1"
       d="m 3079.5778,674.9266 -413.264,173.96869"
       id="path73369" />
    <text
       xml:space="preserve"
       style="font-size:85.3333px;line-height:1.25;font-family:sans-serif"
       x="2144.4177"
       y="932.76855"
       id="text75447"><tspan
         sodipodi:role="line"
         id="tspan75445"
         x="2144.4177"
         y="932.76855">j2: 3 uA / cm2</tspan></text>
  </g>
  <g
     id="g80241">
    <path
       style="fill:none;stroke:#000000;stroke-width:1px;stroke-linecap:butt;stroke-linejoin:miter;stroke-opacity:1"
       d="m 3079.5778,1675.2839 -310.6847,55.8989"
       id="path73371" />
    <text
       xml:space="preserve"
       style="font-size:85.3333px;line-height:1.25;font-family:sans-serif"
       x="2175.3984"
       y="1771.6012"
       id="text76375"><tspan
         sodipodi:role="line"
         id="tspan76373"
         x="2175.3984"
         y="1771.6012">j1: -2 uA / cm2</tspan></text>
  </g>
  <g
     id="g80246">
    <path
       style="fill:none;stroke:#000000;stroke-width:1px;stroke-linecap:butt;stroke-linejoin:miter;stroke-opacity:1"
       d="m 3082.6839,1867.9186 -108.7913,183.2771"
       id="path73373" />
    <text
       xml:space="preserve"
       style="font-size:85.3333px;line-height:1.25;font-family:sans-serif"
       x="2479.9509"
       y="2122.6245"
       id="text77303"><tspan
         sodipodi:role="line"
         id="tspan77301"
         x="2479.9509"
         y="2122.6245">E1: -0.25 V vs SCE</tspan></text>
  </g>
  <g
     id="g80251">
    <path
       style="fill:none;stroke:#000000;stroke-width:1px;stroke-linecap:butt;stroke-linejoin:miter;stroke-opacity:1"
       d="m 4166.9345,1874.091 -40.3789,288.9523"
       id="path73375" />
    <text
       xml:space="preserve"
       style="font-size:85.3333px;line-height:1.25;font-family:sans-serif"
       x="3949.3518"
       y="2234.4724"
       id="text78615"><tspan
         sodipodi:role="line"
         id="tspan78613"
         x="3949.3518"
         y="2234.4724">E2: 1V vs SCE</tspan></text>
  </g>
  <text
     xml:space="preserve"
     style="font-size:85.3333px;line-height:1.25;font-family:sans-serif"
     x="3291.4348"
     y="639.80731"
     id="text85294"><tspan
       sodipodi:role="line"
       id="tspan85292"
       x="3291.4348"
       y="639.80731">scan rate: 10 mV / s</tspan></text>
  <text
     xml:space="preserve"
     style="font-size:80px;line-height:1.25;font-family:sans-serif;-inkscape-font-specification:sans-serif;letter-spacing:0px;word-spacing:0px"
     x="3771.7236"
     y="344.86105"
     id="text3245"><tspan
       sodipodi:role="line"
       id="tspan3243"
       x="3771.7236"
       y="344.86105">figure: 2a</tspan></text>
  <text
     xml:space="preserve"
     style="font-size:80px;line-height:1.25;font-family:sans-serif;-inkscape-font-specification:sans-serif;letter-spacing:0px;word-spacing:0px"
     x="3787.2578"
     y="447.3873"
     id="text4749"><tspan
       sodipodi:role="line"
       id="tspan4747"
       x="3787.2578"
       y="447.3873">tags: BCV</tspan></text>
  <g
     id="g12839">
    <text
       xml:space="preserve"
       style="font-size:85.3333px;line-height:1.25;font-family:sans-serif"
       x="3819.2849"
       y="838.01672"
       id="text81729"><tspan
         sodipodi:role="line"
         id="tspan81727"
         x="3819.2849"
         y="838.01672">curve: thin</tspan></text>
    <path
       style="fill:none;stroke:#00ff00;stroke-width:1px;stroke-linecap:butt;stroke-linejoin:miter;stroke-opacity:1"
       d="m 3130.1578,1234.9754 c 0.6966,-17.0994 96.8897,1.283 190.2949,-27.185 60.8538,-18.547 132.5298,-32.3574 180.1506,-79.0444 53.321,-52.2755 67.7165,-163.03499 78.4952,-188.92195 5.6125,-13.47937 18.8705,-72.29713 22.7189,-72.04023 4.3301,0.28905 1.7314,43.73034 9.3068,68.15666 10.405,33.55048 34.053,102.40282 45.9284,101.88282 45.4889,-1.9918 80.9546,-10.1381 109.234,-7.9004 39.0002,3.086 85.9745,48.117 110.2934,71.4577 48.4384,46.49 78.15,60.2179 124.141,74.1486 19.3337,5.8562 60.3975,22.5532 61.4075,2.3772 4.0763,-81.4269 1.4596,-252.29953 5.2957,-252.14935 4.098,0.16043 3.2356,166.23305 7.9946,241.50285 0.3218,5.0897 7.984,-5.2002 11.2348,-1.2707 23.2649,28.1215 43.342,23.1727 42.9077,33.7204 -1.8106,43.9773 -1.7901,82.82 -1.6005,127.2357 0.014,3.2332 -25.3675,14.8194 -42.3585,39.1104 -9.5142,13.6018 -12.1516,-5.5866 -19.5902,-5.4963 -16.2623,0.1974 -15.4608,196.4858 -18.4173,196.4518 -3.0225,-0.035 -3.0487,-197.752 -8.3773,-197.4991 -41.1716,1.9541 -120.8962,33.7883 -158.8172,82.3815 -17.4949,22.4187 -36.7866,43.0445 -71.7827,67.2619 -25.6889,17.7768 -57.1915,24.5646 -101.3612,28.35 -26.3485,2.2582 -47.4201,-26.4871 -73.7879,-24.4665 -28.9782,2.2206 -66.5215,38.8742 -77.6714,39.6125 -13.0112,0.8615 -23.4565,-31.3883 -36.5056,-45.8261 -4.789,-5.2987 -11.295,-11.7589 -15.5343,-18.6412 -25.4352,-41.2923 -32.6093,-68.3349 -80.7782,-91.6523 -39.3363,-19.0418 -79.3118,-38.5428 -121.9441,-48.1562 -56.1969,-12.6721 -172.1056,-2.9655 -172.0422,-11.6508 0.2553,-35.0159 0.016,-73.5353 1.1651,-101.7495 z"
       id="path6496"
       sodipodi:nodetypes="sssssssssssssssssssssssssssssss" />
  </g>
</svg>
