<?xml version="1.0" encoding="UTF-8" standalone="no"?>
<svg
   height="6617px"
   version="1.1"
   width="4959px"
   id="svg87225"
   sodipodi:docname="kerner_2002_measurement_2055_f5a_thin.svg"
   inkscape:version="1.1.2 (b8e25be833, 2022-02-05)"
   xmlns:inkscape="http://www.inkscape.org/namespaces/inkscape"
   xmlns:sodipodi="http://sodipodi.sourceforge.net/DTD/sodipodi-0.dtd"
   xmlns:xlink="http://www.w3.org/1999/xlink"
   xmlns="http://www.w3.org/2000/svg"
   xmlns:svg="http://www.w3.org/2000/svg"
   xmlns:rdf="http://www.w3.org/1999/02/22-rdf-syntax-ns#"
   xmlns:cc="http://creativecommons.org/ns#"
   xmlns:dc="http://purl.org/dc/elements/1.1/">
  <metadata
     id="metadata28">
    <rdf:RDF>
      <cc:Work
         rdf:about="">
        <dc:format>image/svg+xml</dc:format>
        <dc:type
           rdf:resource="http://purl.org/dc/dcmitype/StillImage" />
      </cc:Work>
    </rdf:RDF>
  </metadata>
  <sodipodi:namedview
     id="namedview87227"
     pagecolor="#ffffff"
     bordercolor="#666666"
     borderopacity="1.0"
     inkscape:pageshadow="2"
     inkscape:pageopacity="0.0"
     inkscape:pagecheckerboard="0"
     showgrid="false"
     inkscape:zoom="0.22759558"
     inkscape:cx="764.51397"
     inkscape:cy="1155.5585"
     inkscape:window-width="1920"
     inkscape:window-height="1017"
     inkscape:window-x="-8"
     inkscape:window-y="32"
     inkscape:window-maximized="1"
     inkscape:current-layer="svg87225" />
  <defs
     id="defs87221" />
  <image
     xlink:href="kerner_2002_measurement_2055_p4.png"
     id="image87223"
     y="0"
     x="0"
     width="4959px"
     sodipodi:insensitive="true"
     height="6617px" />
  <text
     xml:space="preserve"
     style="font-size:85.3333px;line-height:1.25;font-family:sans-serif"
     x="1324.9039"
     y="653.88684"
     id="text90887"><tspan
       sodipodi:role="line"
       id="tspan90885"
       x="1324.9039"
       y="653.88684">scan rate: 10 mV / s</tspan></text>
  <g
     id="g97738">
    <path
       style="fill:none;stroke:#000000;stroke-width:1px;stroke-linecap:butt;stroke-linejoin:miter;stroke-opacity:1"
       d="m 2325.7861,1727.7582 93.2212,195.7209"
       id="path91492" />
    <text
       xml:space="preserve"
       style="font-size:85.3333px;line-height:1.25;font-family:sans-serif"
       x="2414.6147"
       y="2020.1309"
       id="text92706"><tspan
         sodipodi:role="line"
         id="tspan92704"
         x="2414.6147"
         y="2020.1309">E2: 0.75 V vs SCE</tspan></text>
  </g>
  <g
     id="g97723">
    <path
       style="fill:none;stroke:#000000;stroke-width:1px;stroke-linecap:butt;stroke-linejoin:miter;stroke-opacity:1"
       d="M 1288.1262,775.53322 961.91117,924.63857"
       id="path91486" />
    <text
       xml:space="preserve"
       style="font-size:85.3333px;line-height:1.25;font-family:sans-serif"
       x="387.63867"
       y="980.82593"
       id="text94726"><tspan
         sodipodi:role="line"
         id="tspan94724"
         x="387.63867"
         y="980.82593">j2: 5 uA / cm2</tspan></text>
  </g>
  <g
     id="g97728">
    <path
       style="fill:none;stroke:#000000;stroke-width:1px;stroke-linecap:butt;stroke-linejoin:miter;stroke-opacity:1"
       d="m 1289.6791,1642.3154 -306.02558,-66.8"
       id="path91488" />
    <text
       xml:space="preserve"
       style="font-size:85.3333px;line-height:1.25;font-family:sans-serif"
       x="365.67566"
       y="1556.3717"
       id="text95720"><tspan
         sodipodi:role="line"
         id="tspan95718"
         x="365.67566"
         y="1556.3717">j1: -5 uA / cm2</tspan></text>
  </g>
  <g
     id="g97733">
    <path
       style="fill:none;stroke:#000000;stroke-width:1px;stroke-linecap:butt;stroke-linejoin:miter;stroke-opacity:1"
       d="m 1420.173,1727.7582 -178.6377,267.175"
       id="path91490" />
    <text
       xml:space="preserve"
       style="font-size:85.3333px;line-height:1.25;font-family:sans-serif"
       x="1037.8589"
       y="2057.2288"
       id="text97110"><tspan
         sodipodi:role="line"
         id="tspan97108"
         x="1037.8589"
         y="2057.2288">E1: -0.125 V vs SCE</tspan></text>
  </g>
  <g
     id="g10752">
    <text
       xml:space="preserve"
       style="font-size:85.3333px;line-height:1.25;font-family:sans-serif"
       x="1844.4115"
       y="1499.0916"
       id="text88771"><tspan
         sodipodi:role="line"
         id="tspan88769"
         x="1844.4115"
         y="1499.0916">curve: thin</tspan></text>
    <path
       style="fill:none;stroke:#00ff00;stroke-width:1px;stroke-linecap:butt;stroke-linejoin:miter;stroke-opacity:1"
       d="m 1340.4754,1252.0571 0.9609,-70.9888 c 0.1282,-9.4716 50.1855,-11.8944 69.2119,-23.0718 31.3536,-18.4192 60.6955,-48.8683 76.2949,-76.1117 8.0766,-14.1052 11.762,-30.114 15.9782,-45.8116 5.0774,-18.9039 5.5928,-38.75477 7.6871,-58.21626 2.8305,-26.30222 4.9885,-52.68263 6.589,-79.08826 1.7509,-28.88824 1.8198,-57.85757 3.2944,-86.76123 1.4583,-28.58399 5.4908,-85.68775 5.4908,-85.68775 0,0 2.7359,60.71481 6.0397,86.22517 1.0982,8.47937 3.6794,7.47842 4.9419,15.93488 2.1797,14.60001 4.0089,29.25651 5.4907,43.94378 0.9579,9.49492 0.5246,19.14942 2.1963,28.54498 3.0657,17.23066 10.516,33.43309 14.276,50.52568 3.5056,15.93591 3.5977,32.54727 7.6871,48.34344 1.0732,4.14567 1.0375,9.41147 4.3926,12.07267 7.2211,5.7276 18.2535,2.7414 27.4539,3.2909 13.8946,0.8298 27.8546,0.6658 41.758,0 27.8948,-1.3359 41.9465,-0.4043 65.8893,10.9992 27.2726,12.9894 45.5134,31.2677 65.9174,49.4169 16.883,15.0173 33.5322,30.3929 51.6134,43.9438 12.2735,9.1983 24.1577,19.7233 38.4635,25.2541 13.1353,5.0783 27.7786,4.6784 41.7298,6.5995 12.414,1.7094 24.8179,3.8388 37.3373,4.382 12.0738,0.5239 24.1613,-0.6722 36.2392,-1.0911 18.6812,-0.6479 37.4348,-0.3353 56.034,-2.1999 13.652,-1.3686 28.4192,-0.3284 40.6317,-6.5818 5.9931,-3.0688 10.7171,-5.5697 13.1109,-11.8629 1.5387,-4.0449 4.3064,16.2034 16.5393,17.3537 11.453,1.077 21.814,2.7205 33.2942,3.4518 11.3307,0.7217 34.8099,-4.7208 34.8195,0.9302 0.047,27.4358 2.637,36.6692 1.6742,54.2789 -1.7502,32.0102 -15.8761,48.646 -44.472,58.5281 -10.0955,3.4888 -21.737,4.7975 -32.36,5.9124 -9.4046,0.9869 -14.1013,23.0136 -14.6344,20.8488 -2.0758,-8.4291 -1.727,-16.3053 -9.0698,-20.9358 -8.3656,-5.2755 -18.9994,-5.1896 -28.8735,-5.7514 -19.0603,-1.0845 -38.8776,2.0918 -57.8807,0.2606 -16.3628,-1.5767 -18.2509,13.8337 -18.6968,10.9815 -1.628,-10.4128 -7.9354,-14.2811 -11.0616,-14.3157 -38.4583,-0.4257 -33.9802,-0.5621 -54.8277,1.1344 -14.2573,1.1602 -28.1428,5.504 -41.7581,9.8904 -12.812,4.1276 -24.555,8.5538 -35.4149,18.6765 -29.6383,27.6262 -28.3367,15.1555 -46.9467,35.1401 -10.9382,11.7461 -22.3084,23.1026 -34.0428,34.0534 -11.0074,10.2724 -22.2846,20.6904 -35.4439,28.006 -13.0551,7.2577 -26.7264,12.3438 -41.4551,14.829 -20.2353,3.4143 -41.0223,1.32 -61.5248,2.1999 -14.6469,0.6286 -29.0985,2.6259 -43.6516,4.3967 -13.3266,1.6216 -26.4833,3.8574 -39.8081,5.4937 -6.9126,0.8489 -13.9717,2.0845 -20.865,1.0911 -6.5396,-0.9424 -11.7899,-2.7066 -17.461,-6.3073 -3.6178,-2.297 -7.3913,-5.6578 -11.3932,-4.125 -5.8112,2.2258 -8.7412,20.5717 -11.0508,17.0215 -5.4496,-8.3766 -8.7009,-18.9467 -13.9327,-27.4611 -3.0296,-4.9305 -7.182,-9.155 -9.8834,-14.2726 -8.6007,-16.2934 -13.5589,-34.27 -19.7668,-51.6167 -5.4627,-15.2644 -8.3823,-29.8025 -16.5392,-43.8135 -4.9555,-8.512 -12.6603,-17.2233 -20.5435,-23.1281 -9.088,-6.8074 -16.4476,-10.0356 -26.5011,-10.781 -4.862,-0.3605 -13.2376,0.4329 -13.1779,-3.9744 z"
       id="path99445"
       sodipodi:nodetypes="sssssssscssssssssssssssssssssssssssssssssssssssssssssssssssss" />
  </g>
  <text
     xml:space="preserve"
     style="font-size:80px;line-height:1.25;font-family:sans-serif;-inkscape-font-specification:sans-serif;letter-spacing:0px;word-spacing:0px"
     x="-52.725101"
     y="395.43826"
     id="text2336"><tspan
       sodipodi:role="line"
       id="tspan2334"
       x="-52.725101"
       y="395.43826">figure: 5a</tspan></text>
  <text
     xml:space="preserve"
     style="font-size:80px;line-height:1.25;font-family:sans-serif;-inkscape-font-specification:sans-serif;letter-spacing:0px;word-spacing:0px"
     x="-43.937584"
     y="571.1886"
     id="text3396"><tspan
       sodipodi:role="line"
       id="tspan3394"
       x="-43.937584"
       y="571.1886">tags: BCV</tspan></text>
</svg>
