<?xml version="1.0" encoding="UTF-8" standalone="no"?>
<svg
   xmlns:dc="http://purl.org/dc/elements/1.1/"
   xmlns:cc="http://creativecommons.org/ns#"
   xmlns:rdf="http://www.w3.org/1999/02/22-rdf-syntax-ns#"
   xmlns:svg="http://www.w3.org/2000/svg"
   xmlns="http://www.w3.org/2000/svg"
   xmlns:xlink="http://www.w3.org/1999/xlink"
   xmlns:sodipodi="http://sodipodi.sourceforge.net/DTD/sodipodi-0.dtd"
   xmlns:inkscape="http://www.inkscape.org/namespaces/inkscape"
   height="6617px"
   version="1.1"
   width="4959px"
   id="svg73296"
   sodipodi:docname="kerner_2002_measurement_2055_p3_f4a_thick.svg"
   inkscape:version="0.92.2 (5c3e80d, 2017-08-06)">
  <metadata
     id="metadata28">
    <rdf:RDF>
      <cc:Work
         rdf:about="">
        <dc:format>image/svg+xml</dc:format>
        <dc:type
           rdf:resource="http://purl.org/dc/dcmitype/StillImage" />
      </cc:Work>
    </rdf:RDF>
  </metadata>
  <sodipodi:namedview
     id="namedview73298"
     pagecolor="#ffffff"
     bordercolor="#666666"
     borderopacity="1.0"
     inkscape:pageshadow="2"
     inkscape:pageopacity="0.0"
     inkscape:pagecheckerboard="0"
     showgrid="false"
     inkscape:zoom="0.16093438"
     inkscape:cx="3107.6108"
     inkscape:cy="5146.9747"
     inkscape:window-width="1920"
     inkscape:window-height="1017"
     inkscape:window-x="-8"
     inkscape:window-y="32"
     inkscape:window-maximized="1"
     inkscape:current-layer="svg73296" />
  <defs
     id="defs73292" />
  <image
     sodipodi:absref="F:\Github\echemdb\website\literature\kerner_2002_measurement_2055\Kerner_2002_Measurement_2055_p3.png"
     xlink:href="Kerner_2002_Measurement_2055_p3.png"
     id="image73294"
     y="0"
     x="0"
     width="4959px"
     sodipodi:insensitive="true"
     height="6617px" />
  <g
     id="g80236">
    <path
       style="fill:none;stroke:#000000;stroke-width:1px;stroke-linecap:butt;stroke-linejoin:miter;stroke-opacity:1"
       d="m 3079.5778,674.9266 -413.264,173.96869"
       id="path73369" />
    <text
       xml:space="preserve"
       style="font-size:85.3333px;line-height:1.25;font-family:sans-serif"
       x="2144.4177"
       y="932.76855"
       id="text75447"><tspan
         sodipodi:role="line"
         id="tspan75445"
         x="2144.4177"
         y="932.76855">j2: 3 uA / cm2</tspan></text>
  </g>
  <g
     id="g80241">
    <path
       style="fill:none;stroke:#000000;stroke-width:1px;stroke-linecap:butt;stroke-linejoin:miter;stroke-opacity:1"
       d="m 3079.5778,1675.2839 -310.6847,55.8989"
       id="path73371" />
    <text
       xml:space="preserve"
       style="font-size:85.3333px;line-height:1.25;font-family:sans-serif"
       x="2175.3984"
       y="1771.6012"
       id="text76375"><tspan
         sodipodi:role="line"
         id="tspan76373"
         x="2175.3984"
         y="1771.6012">j1: -2 uA / cm2</tspan></text>
  </g>
  <g
     id="g80246">
    <path
       style="fill:none;stroke:#000000;stroke-width:1px;stroke-linecap:butt;stroke-linejoin:miter;stroke-opacity:1"
       d="m 3082.6839,1867.9186 -108.7913,183.2771"
       id="path73373" />
    <text
       xml:space="preserve"
       style="font-size:85.3333px;line-height:1.25;font-family:sans-serif"
       x="2479.9509"
       y="2122.6245"
       id="text77303"><tspan
         sodipodi:role="line"
         id="tspan77301"
         x="2479.9509"
         y="2122.6245">E1: -0.25 V vs SCE</tspan></text>
  </g>
  <g
     id="g80251">
    <path
       style="fill:none;stroke:#000000;stroke-width:1px;stroke-linecap:butt;stroke-linejoin:miter;stroke-opacity:1"
       d="m 4166.9345,1874.091 -40.3789,288.9523"
       id="path73375" />
    <text
       xml:space="preserve"
       style="font-size:85.3333px;line-height:1.25;font-family:sans-serif"
       x="3949.3518"
       y="2234.4724"
       id="text78615"><tspan
         sodipodi:role="line"
         id="tspan78613"
         x="3949.3518"
         y="2234.4724">E2: 1V vs SCE</tspan></text>
  </g>
  <g
     id="g84080">
    <text
       xml:space="preserve"
       style="font-size:85.3333px;line-height:1.25;font-family:sans-serif"
       x="2971.113"
       y="545.97223"
       id="text81729"><tspan
         sodipodi:role="line"
         id="tspan81727"
         x="2971.113"
         y="545.97223">curve: Au(111)_0.1M_HClO4_0.1mM_K2SO4</tspan></text>
    <path
       style="fill:none;stroke:#000000;stroke-width:1px;stroke-linecap:butt;stroke-linejoin:miter;stroke-opacity:1"
       d="m 3130.8106,1338.1367 v -109.8359 c 0,0 60.8452,-2.8245 91.175,-5.4908 44.426,-3.9055 88.8512,-8.4387 132.9048,-15.3812 18.4375,-2.9056 36.8018,-6.4475 54.9078,-10.9816 15.9597,-3.9967 32.5381,-6.9051 47.2488,-14.2725 7.7258,-3.8692 12.9068,-12.0156 20.8649,-15.3812 6.1521,-2.6018 13.4585,-1.0948 19.7668,-3.2909 15.0108,-5.2258 29.4518,-12.9782 41.7299,-23.0718 14.0503,-11.5506 25.5615,-26.2824 35.1409,-41.744 6.3053,-10.177 9.7502,-21.8726 14.3042,-32.9446 5.3796,-13.0794 9.3909,-26.7296 15.3741,-39.5441 3.5348,-7.5707 5.6011,-16.687 12.0798,-21.9631 3.8611,-3.1444 9.4782,-5.73293 14.2759,-4.39968 8.9935,2.49928 10.0443,17.30148 18.6687,20.87198 6.0974,2.5243 13.5353,1.0635 19.7668,-1.1087 7.1932,-2.5074 11.305,-11.2304 18.6686,-13.1814 11.0299,-2.9223 22.6807,3.985 34.071,3.3085 11.9698,-0.7109 23.1766,-8.4889 35.1409,-7.6906 34.2094,2.2827 67.4272,17.2394 96.6658,35.1445 18.7763,11.4983 31.9159,30.3479 48.3188,45.0349 15.4759,13.857 30.3251,28.5892 47.2487,40.6353 14.8357,10.5599 31.1237,18.957 47.2207,27.4714 16.4996,8.7273 32.6412,18.7846 50.5151,24.1629 15.2273,4.582 31.3476,6.697 47.2489,6.5819 4.8147,-0.035 10.8756,1.209 14.2759,-2.1998 8.6275,-8.6491 4.4109,-24.067 5.4909,-36.2356 2.4285,-27.3619 1.6471,-54.9152 2.1962,-82.3792 0.549,-27.4567 1.0982,-82.37918 1.0982,-82.37918 l 7.687,172.44898 c 0.3465,7.7729 8.006,15.064 15.3743,17.5634 3.5353,1.1992 8.1207,0.1987 10.9814,-2.1998 6.9271,-5.8078 7.9196,-16.4302 9.8834,-25.254 9.804,-44.0522 8.7853,-135.1047 8.7853,-135.1047 0,0 1.694,111.3313 0,166.9582 -0.9155,30.0651 -2.4131,60.1487 -5.4907,90.0698 -2.3472,22.8196 -4.3336,45.8481 -9.8834,68.1067 -3.6701,14.7195 -8.6667,29.2283 -15.3742,42.8351 -5.387,10.928 -10.1462,23.2692 -19.7668,30.7448 -4.5702,3.5512 -16.0998,-0.285 -16.4723,5.4908 l -6.5889,102.16 -9.8834,-141.6865 c 0,0 -27.4335,4.6198 -40.66,8.7816 -11.7372,3.6932 -22.6644,9.5889 -34.0427,14.2725 -18.9842,7.8143 -39.6832,12.21 -57.104,23.0719 -16.2831,10.1526 -28.0417,26.2393 -42.8563,38.4354 -20.1802,16.6134 -39.7328,34.5628 -62.5947,47.2347 -16.1224,8.9364 -33.8685,14.8908 -51.6415,19.7809 -18.6249,5.1246 -37.9037,7.7523 -57.104,9.8728 -14.9445,1.6505 -30.3014,5.1098 -45.0525,2.1998 -12.6921,-2.5038 -22.9311,-12.1969 -35.1409,-16.4723 -8.8818,-3.1101 -18.2697,-4.5299 -27.4539,-6.5819 -10.5802,-2.3639 -22.4665,-1.1641 -31.8465,-6.5995 -25.8101,-14.9561 -35.7958,-48.6662 -59.3285,-66.998 -18.8588,-14.6909 -42.2962,-22.3012 -63.693,-32.9622 -26.5319,-13.2196 -52.0471,-29.136 -80.1935,-38.4354 -32.9337,-10.8811 -67.7175,-15.6604 -102.1565,-19.7809 -30.9374,-3.7016 -62.2471,-2.931 -93.3713,-4.382 -23.793,-1.1093 -71.38,-3.3057 -71.38,-3.3057 z"
       id="path83482"
       sodipodi:nodetypes="ccsssssssssssssssssssssssssscsssscssssssccssssssssssssssssc" />
  </g>
  <text
     xml:space="preserve"
     style="font-size:85.3333px;line-height:1.25;font-family:sans-serif"
     x="3291.4348"
     y="639.80731"
     id="text85294"><tspan
       sodipodi:role="line"
       id="tspan85292"
       x="3291.4348"
       y="639.80731">scan rate: 10 mV / s</tspan></text>
  <text
     xml:space="preserve"
     style="font-style:normal;font-variant:normal;font-weight:normal;font-stretch:normal;font-size:80px;line-height:1.25;font-family:sans-serif;-inkscape-font-specification:sans-serif;letter-spacing:0px;word-spacing:0px;fill:#000000;fill-opacity:1;stroke:none"
     x="-12.012525"
     y="273.06174"
     id="text837"><tspan
       sodipodi:role="line"
       id="tspan835"
       x="-12.012525"
       y="273.06174">comment: For CV with KI, KClO4 is used instead of HClO4 (as for KCl, BrCl).</tspan></text>
</svg>
