<?xml version="1.0" encoding="UTF-8" standalone="no"?>
<svg
   height="6617px"
   version="1.1"
   width="4959px"
   id="svg87225"
   sodipodi:docname="kerner_2002_measurement_2055_f5a_thick.svg"
   inkscape:version="1.1.2 (b8e25be833, 2022-02-05)"
   xmlns:inkscape="http://www.inkscape.org/namespaces/inkscape"
   xmlns:sodipodi="http://sodipodi.sourceforge.net/DTD/sodipodi-0.dtd"
   xmlns:xlink="http://www.w3.org/1999/xlink"
   xmlns="http://www.w3.org/2000/svg"
   xmlns:svg="http://www.w3.org/2000/svg"
   xmlns:rdf="http://www.w3.org/1999/02/22-rdf-syntax-ns#"
   xmlns:cc="http://creativecommons.org/ns#"
   xmlns:dc="http://purl.org/dc/elements/1.1/">
  <metadata
     id="metadata28">
    <rdf:RDF>
      <cc:Work
         rdf:about="">
        <dc:format>image/svg+xml</dc:format>
        <dc:type
           rdf:resource="http://purl.org/dc/dcmitype/StillImage" />
      </cc:Work>
    </rdf:RDF>
  </metadata>
  <sodipodi:namedview
     id="namedview87227"
     pagecolor="#ffffff"
     bordercolor="#666666"
     borderopacity="1.0"
     inkscape:pageshadow="2"
     inkscape:pageopacity="0.0"
     inkscape:pagecheckerboard="0"
     showgrid="false"
     inkscape:zoom="0.16093439"
     inkscape:cx="826.42376"
     inkscape:cy="1590.7104"
     inkscape:window-width="1920"
     inkscape:window-height="1017"
     inkscape:window-x="-8"
     inkscape:window-y="32"
     inkscape:window-maximized="1"
     inkscape:current-layer="svg87225" />
  <defs
     id="defs87221" />
  <image
     xlink:href="kerner_2002_measurement_2055_p4.png"
     id="image87223"
     y="0"
     x="0"
     width="4959px"
     sodipodi:insensitive="true"
     height="6617px" />
  <text
     xml:space="preserve"
     style="font-size:85.3333px;line-height:1.25;font-family:sans-serif"
     x="1324.9039"
     y="653.88684"
     id="text90887"><tspan
       sodipodi:role="line"
       id="tspan90885"
       x="1324.9039"
       y="653.88684">scan rate: 10 mV / s</tspan></text>
  <g
     id="g97738">
    <path
       style="fill:none;stroke:#000000;stroke-width:1px;stroke-linecap:butt;stroke-linejoin:miter;stroke-opacity:1"
       d="m 2325.7861,1727.7582 93.2212,195.7209"
       id="path91492" />
    <text
       xml:space="preserve"
       style="font-size:85.3333px;line-height:1.25;font-family:sans-serif"
       x="2414.6147"
       y="2020.1309"
       id="text92706"><tspan
         sodipodi:role="line"
         id="tspan92704"
         x="2414.6147"
         y="2020.1309">E2: 0.75 V vs SCE</tspan></text>
  </g>
  <g
     id="g97723">
    <path
       style="fill:none;stroke:#000000;stroke-width:1px;stroke-linecap:butt;stroke-linejoin:miter;stroke-opacity:1"
       d="M 1288.1262,775.53322 961.91117,924.63857"
       id="path91486" />
    <text
       xml:space="preserve"
       style="font-size:85.3333px;line-height:1.25;font-family:sans-serif"
       x="387.63867"
       y="980.82593"
       id="text94726"><tspan
         sodipodi:role="line"
         id="tspan94724"
         x="387.63867"
         y="980.82593">j2: 5 uA / cm2</tspan></text>
  </g>
  <g
     id="g97728">
    <path
       style="fill:none;stroke:#000000;stroke-width:1px;stroke-linecap:butt;stroke-linejoin:miter;stroke-opacity:1"
       d="m 1289.6791,1642.3154 -306.02558,-66.8"
       id="path91488" />
    <text
       xml:space="preserve"
       style="font-size:85.3333px;line-height:1.25;font-family:sans-serif"
       x="365.67566"
       y="1556.3717"
       id="text95720"><tspan
         sodipodi:role="line"
         id="tspan95718"
         x="365.67566"
         y="1556.3717">j1: -5 uA / cm2</tspan></text>
  </g>
  <g
     id="g97733">
    <path
       style="fill:none;stroke:#000000;stroke-width:1px;stroke-linecap:butt;stroke-linejoin:miter;stroke-opacity:1"
       d="m 1420.173,1727.7582 -178.6377,267.175"
       id="path91490" />
    <text
       xml:space="preserve"
       style="font-size:85.3333px;line-height:1.25;font-family:sans-serif"
       x="1037.8589"
       y="2057.2288"
       id="text97110"><tspan
         sodipodi:role="line"
         id="tspan97108"
         x="1037.8589"
         y="2057.2288">E1: -0.125 V vs SCE</tspan></text>
  </g>
  <text
     xml:space="preserve"
     style="font-size:80px;line-height:1.25;font-family:sans-serif;-inkscape-font-specification:sans-serif;letter-spacing:0px;word-spacing:0px"
     x="300.97244"
     y="555.81042"
     id="text3666"><tspan
       sodipodi:role="line"
       id="tspan3664"
       x="300.97244"
       y="555.81042">figure: 5a</tspan></text>
  <text
     xml:space="preserve"
     style="font-size:80px;line-height:1.25;font-family:sans-serif;-inkscape-font-specification:sans-serif;letter-spacing:0px;word-spacing:0px"
     x="307.56308"
     y="654.66998"
     id="text5356"><tspan
       sodipodi:role="line"
       id="tspan5354"
       x="307.56308"
       y="654.66998">tags: BCV</tspan></text>
  <g
     id="g10552">
    <text
       xml:space="preserve"
       style="font-size:85.3333px;line-height:1.25;font-family:sans-serif"
       x="1820.2458"
       y="1466.1384"
       id="text88771"><tspan
         sodipodi:role="line"
         id="tspan88769"
         x="1820.2458"
         y="1466.1384">curve: thick</tspan></text>
    <path
       style="fill:none;stroke:#00ff00;stroke-width:1px;stroke-linecap:butt;stroke-linejoin:miter;stroke-opacity:1"
       d="m 1341.4693,1182.7448 c 0.2911,-15.7703 66.2695,-6.1223 99.6834,-32.9531 39.0749,-31.3766 61.8248,-40.447 76.8908,-84.3053 17.7986,-51.813 18.7639,-176.41796 24.1656,-168.6105 3.3806,4.88608 7.1001,26.00686 15.9274,34.87546 5.8133,5.8405 9.2824,38.22891 16.7512,58.49191 4.7109,12.78083 8.5918,29.77813 21.6942,33.50243 17.8546,5.075 33.5781,-16.5353 51.6267,-20.8704 14.2952,-3.43356 42.8919,-6.31615 49.9789,-2.4715 42.5964,23.1085 55.9453,31.9582 70.8494,46.4091 20.3135,19.6958 67.52,74.4062 118.0822,89.2482 26.4271,7.7574 60.7729,14.5443 79.3624,13.7305 8.9339,-0.3911 17.7389,-5.5569 26.6371,-4.6683 9.3565,0.9343 22.7576,8.5989 35.1501,8.2382 35.9628,-1.0467 68.4908,-8.5962 75.7236,-25.676 0.7501,-1.7712 4.2653,17.3476 12.7007,20.733 10.2336,4.1071 57.1895,3.2682 57.1189,9.886 -0.2794,26.1805 4.0896,48.8259 -4.3938,73.5955 -4.8286,14.0983 -15.6103,29.1476 -28.5594,36.5231 -10.0836,5.7434 -21.5729,-0.5532 -31.3055,5.7668 -7.2944,4.7368 -8.158,10.2014 -12.2104,19.2891 -0.9114,2.0438 -9.8747,-15.9282 -18.8108,-18.2616 -30.3777,-7.9323 -59.2066,-14.3236 -85.5507,-7.2062 -5.7974,1.5663 -10.2888,14.1937 -11.5337,11.5336 -2.7554,-5.8882 -8.2899,-9.7149 -14.6916,-10.8471 -37.2695,-6.5915 -76.4811,8.517 -110.9424,24.1657 -61.0102,27.7044 -97.7503,99.0054 -161.4706,119.7299 -55.4096,18.0215 -92.3586,-0.3672 -107.6471,-7.6891 -41.3247,-19.7912 -60.7331,-7.5383 -87.6691,-21.7628 -6.6551,-3.5145 -13.9643,-14.1641 -17.0258,-14.829 -2.9028,-0.6305 -8.399,11.1107 -13.9365,9.68 -2.706,-0.6991 -12.9223,-16.1394 -18.6735,-24.7149 -23.9456,-35.705 -24.7586,-70.2016 -49.9629,-86.5883 -20.2507,-13.1661 -60.9795,-14.4681 -60.9795,-14.4681 1.5276,-27.6839 2.6587,-49.8599 3.0207,-69.4763 z"
       id="path5842"
       sodipodi:nodetypes="sssssssssssssssssssssssssssssssssss" />
  </g>
</svg>
