<?xml version="1.0" encoding="UTF-8" standalone="no"?>
<svg
   height="6617px"
   version="1.1"
   width="4959px"
   id="svg99821"
   sodipodi:docname="kerner_2002_measurement_2055_f6a_2.svg"
   inkscape:version="1.2 (dc2aedaf03, 2022-05-15)"
   xmlns:inkscape="http://www.inkscape.org/namespaces/inkscape"
   xmlns:sodipodi="http://sodipodi.sourceforge.net/DTD/sodipodi-0.dtd"
   xmlns:xlink="http://www.w3.org/1999/xlink"
   xmlns="http://www.w3.org/2000/svg"
   xmlns:svg="http://www.w3.org/2000/svg"
   xmlns:rdf="http://www.w3.org/1999/02/22-rdf-syntax-ns#"
   xmlns:cc="http://creativecommons.org/ns#"
   xmlns:dc="http://purl.org/dc/elements/1.1/">
  <metadata
     id="metadata28">
    <rdf:RDF>
      <cc:Work
         rdf:about="">
        <dc:format>image/svg+xml</dc:format>
        <dc:type
           rdf:resource="http://purl.org/dc/dcmitype/StillImage" />
      </cc:Work>
    </rdf:RDF>
  </metadata>
  <sodipodi:namedview
     id="namedview99823"
     pagecolor="#ffffff"
     bordercolor="#666666"
     borderopacity="1.0"
     inkscape:pageshadow="2"
     inkscape:pageopacity="0.0"
     inkscape:pagecheckerboard="0"
     showgrid="false"
     inkscape:zoom="0.4551912"
     inkscape:cx="1189.61"
     inkscape:cy="849.09374"
     inkscape:window-width="3456"
     inkscape:window-height="2036"
     inkscape:window-x="-12"
     inkscape:window-y="-12"
     inkscape:window-maximized="1"
     inkscape:current-layer="svg99821"
     inkscape:showpageshadow="2"
     inkscape:deskcolor="#d1d1d1" />
  <defs
     id="defs99817" />
  <image
     xlink:href="kerner_2002_measurement_2055_p5.png"
     height="6617px"
     sodipodi:insensitive="true"
     width="4959px"
     x="0"
     y="0"
     id="image99819" />
  <text
     xml:space="preserve"
     style="font-size:85.3333px;line-height:1.25;font-family:sans-serif"
     x="1046.7091"
     y="620.51923"
     id="text102031"><tspan
       sodipodi:role="line"
       id="tspan102029"
       x="1046.7091"
       y="620.51923">scan rate: 10 mV / s</tspan></text>
  <g
     id="g110481">
    <path
       style="fill:none;stroke:#000000;stroke-width:1px;stroke-linecap:butt;stroke-linejoin:miter;stroke-opacity:1"
       d="m 1277.2656,685.42201 -257.842,184.84482"
       id="path103152" />
    <text
       xml:space="preserve"
       style="font-size:85.3333px;line-height:1.25;font-family:sans-serif"
       x="400.27835"
       y="916.58563"
       id="text105362"><tspan
         sodipodi:role="line"
         id="tspan105360"
         x="400.27835"
         y="916.58563">j2: 10 uA / cm2</tspan></text>
  </g>
  <g
     id="g110486">
    <path
       style="fill:none;stroke:#000000;stroke-width:1px;stroke-linecap:butt;stroke-linejoin:miter;stroke-opacity:1"
       d="m 1278.8072,1752.6104 -344.85119,45.0477"
       id="path103154" />
    <text
       xml:space="preserve"
       style="font-size:85.3333px;line-height:1.25;font-family:sans-serif"
       x="431.08295"
       y="1876.6261"
       id="text106290"><tspan
         sodipodi:role="line"
         id="tspan106288"
         x="431.08295"
         y="1876.6261">j1: -10 uA / cm2</tspan></text>
  </g>
  <g
     id="g110491">
    <path
       style="fill:none;stroke:#000000;stroke-width:1px;stroke-linecap:butt;stroke-linejoin:miter;stroke-opacity:1"
       d="M 1544.4542,1754.1535 1196.4969,1923.468"
       id="path103156" />
    <text
       xml:space="preserve"
       style="font-size:85.3333px;line-height:1.25;font-family:sans-serif"
       x="916.57996"
       y="2008.4048"
       id="text108658"><tspan
         sodipodi:role="line"
         id="tspan108656"
         x="916.57996"
         y="2008.4048">E1: -0.25 V vs SCE</tspan></text>
  </g>
  <g
     id="g110496">
    <path
       style="fill:none;stroke:#000000;stroke-width:1px;stroke-linecap:butt;stroke-linejoin:miter;stroke-opacity:1"
       d="m 2344.4214,1752.6104 91.6683,163.0925"
       id="path103158" />
    <text
       xml:space="preserve"
       style="font-size:85.3333px;line-height:1.25;font-family:sans-serif"
       x="2436.0896"
       y="1915.7029"
       id="text109760"><tspan
         sodipodi:role="line"
         id="tspan109758"
         x="2436.0896"
         y="1915.7029">E2: 0.5 V vs SCE</tspan></text>
  </g>
  <text
     id="text101037"
     y="62.564014"
     x="299.73743"
     style="font-size:85.3333px;line-height:1.25;font-family:sans-serif"
     xml:space="preserve"><tspan
       y="62.564014"
       x="299.73743"
       id="tspan101035"
       sodipodi:role="line">comment: The two CVs in the figure are hard to distinguish.</tspan></text>
  <g
     id="g14722">
    <text
       xml:space="preserve"
       style="font-size:80px;line-height:1.25;font-family:sans-serif;-inkscape-font-specification:sans-serif;letter-spacing:0px;word-spacing:0px"
       x="1972.7974"
       y="913.90167"
       id="text5653"><tspan
         sodipodi:role="line"
         id="tspan5651"
         x="1972.7974"
         y="913.90167">curve: 2</tspan></text>
    <path
       style="fill:none;stroke:#00ff00;stroke-width:1px;stroke-linecap:butt;stroke-linejoin:miter;stroke-opacity:1"
       d="m 1282.3549,1210.8972 c 0.5556,-17.9551 20.1967,-63.8816 28.7384,-96.3126 4.7487,-18.0298 20.557,-32.1772 24.0781,-50.4864 13.2389,-68.83995 16.9122,-220.02935 18.6412,-212.04291 4.0134,18.53794 0.9786,68.90739 3.1068,83.1084 0.5994,3.99957 7.5248,4.14347 9.3206,7.76714 7.9591,16.06061 3.2047,65.73577 20.5829,86.79777 6.2744,7.6045 24.1436,5.9326 33.7871,3.8835 22.7697,-4.838 34.0131,-27.5105 37.2822,-37.47636 3.9418,-12.01647 15.2724,103.76826 29.321,112.81776 19.9342,12.8407 33.9675,43.8841 40.9717,45.4377 7.8725,1.7462 25.6826,29.4794 63.1079,33.9812 99.9112,12.0181 200.9421,13.8451 301.5593,15.5343 60.5951,1.0173 114.3001,-2.8838 179.518,-5.534 5.0408,-0.2048 9.3113,-10.3725 11.2623,-17.2819 1.0326,-3.6567 8.3933,11.446 15.0489,12.7187 5.4777,1.0474 9.8363,-2.2067 15.3401,-3.1068 18.17,-2.9717 36.9702,-1.224 55.3409,-10e-5 10.1047,0.6732 20.1664,2.1468 30.2918,2.3301 33.8246,0.6122 38.6358,-15.9965 39.0162,-9.3205 0.8887,15.5997 2.9636,28.4343 -5.1665,38.5611 -14.9197,18.5839 -42.8144,15.4998 -66.2912,19.5982 -31.9177,5.572 -76.3718,2.3575 -95.7163,6.3079 -6.6971,1.3676 -8.6245,14.7208 -13.5258,15.0753 -5.2839,0.3821 -15.0318,-21.4551 -24.4079,-23.2584 -39.797,-7.6542 -63.4114,-2.0739 -98.6307,-1.9182 -117.3387,0.5187 -233.1015,-4.5523 -352.5712,18.8394 -21.9261,4.293 -30.5884,14.6162 -44.8553,26.9908 -8.3162,7.2133 -15.987,6.2161 -21.5538,11.4566 -9.3119,8.7661 -14.4135,19.7899 -22.7189,29.515 -6.4377,7.5382 -8.4195,7.9331 -13.3983,16.5052 -17.6219,30.3398 -23.7389,113.8652 -28.7384,105.8274 -8.0309,-12.9112 -15.5487,-22.4239 -29.7093,-27.9618 -22.2473,-8.7005 -47.1204,0.772 -70.8752,-1.7476 -11.8124,-1.2529 -22.6279,-10.3939 -33.5928,-5.8253 -7.0573,2.9405 -8.9322,12.0438 -12.0391,19.0294 -3.1282,7.0335 -0.2037,15.9008 -5.6312,21.3596 -2.1366,2.149 -6.9689,-1.9337 -9.1264,0.1943 -5.7172,5.639 -9.8266,33.8514 -10.0973,25.8257 -1.9037,-56.4397 -0.3773,-179.6859 2.3302,-267.1896 z"
       id="path6523"
       sodipodi:nodetypes="ssssssssssssssssssssssssssssssssssssssss" />
  </g>
  <text
     xml:space="preserve"
     style="font-size:80px;line-height:1.25;font-family:sans-serif;-inkscape-font-specification:sans-serif;letter-spacing:0px;word-spacing:0px"
     x="467.93524"
     y="604.14172"
     id="text12691"><tspan
       sodipodi:role="line"
       id="tspan12689"
       x="467.93524"
       y="604.14172">figure: 6a</tspan></text>
  <text
     xml:space="preserve"
     style="font-size:80px;line-height:1.25;font-family:sans-serif;-inkscape-font-specification:sans-serif;letter-spacing:0px;word-spacing:0px"
     x="465.73834"
     y="703.00128"
     id="text14191"><tspan
       sodipodi:role="line"
       id="tspan14189"
       x="465.73834"
       y="703.00128">tags: BCV</tspan></text>
</svg>
