<?xml version="1.0" encoding="UTF-8" standalone="no"?>
<svg
   height="6617px"
   version="1.1"
   width="4959px"
   id="svg99821"
   sodipodi:docname="Kerner_2002_Measurement_2055_p5_6a_2.svg"
   inkscape:version="1.1 (ce6663b3b7, 2021-05-25)"
   xmlns:inkscape="http://www.inkscape.org/namespaces/inkscape"
   xmlns:sodipodi="http://sodipodi.sourceforge.net/DTD/sodipodi-0.dtd"
   xmlns:xlink="http://www.w3.org/1999/xlink"
   xmlns="http://www.w3.org/2000/svg"
   xmlns:svg="http://www.w3.org/2000/svg">
  <sodipodi:namedview
     id="namedview99823"
     pagecolor="#ffffff"
     bordercolor="#666666"
     borderopacity="1.0"
     inkscape:pageshadow="2"
     inkscape:pageopacity="0.0"
     inkscape:pagecheckerboard="0"
     showgrid="false"
     inkscape:zoom="0.32186877"
     inkscape:cx="1356.1428"
     inkscape:cy="958.46515"
     inkscape:window-width="1608"
     inkscape:window-height="986"
     inkscape:window-x="72"
     inkscape:window-y="27"
     inkscape:window-maximized="1"
     inkscape:current-layer="g112842" />
  <defs
     id="defs99817" />
  <image
     height="6617px"
     sodipodi:insensitive="true"
     width="4959px"
     x="0"
     xlink:href="Kerner_2002_Measurement_2055_p5.png"
     y="0"
     id="image99819" />
  <text
     xml:space="preserve"
     style="font-size:85.3333px;line-height:1.25;font-family:sans-serif"
     x="1046.7091"
     y="620.51923"
     id="text102031"><tspan
       sodipodi:role="line"
       id="tspan102029"
       x="1046.7091"
       y="620.51923">scan rate: 10 mV / s</tspan></text>
  <g
     id="g110481">
    <path
       style="fill:none;stroke:#000000;stroke-width:1px;stroke-linecap:butt;stroke-linejoin:miter;stroke-opacity:1"
       d="m 1277.2656,685.42201 -257.842,184.84482"
       id="path103152" />
    <text
       xml:space="preserve"
       style="font-size:85.3333px;line-height:1.25;font-family:sans-serif"
       x="400.27835"
       y="916.58563"
       id="text105362"><tspan
         sodipodi:role="line"
         id="tspan105360"
         x="400.27835"
         y="916.58563">y2: 10 uA / cm2</tspan></text>
  </g>
  <g
     id="g110486">
    <path
       style="fill:none;stroke:#000000;stroke-width:1px;stroke-linecap:butt;stroke-linejoin:miter;stroke-opacity:1"
       d="m 1278.8072,1752.6104 -344.85119,45.0477"
       id="path103154" />
    <text
       xml:space="preserve"
       style="font-size:85.3333px;line-height:1.25;font-family:sans-serif"
       x="431.08295"
       y="1876.6261"
       id="text106290"><tspan
         sodipodi:role="line"
         id="tspan106288"
         x="431.08295"
         y="1876.6261">y1: -10 uA / cm2</tspan></text>
  </g>
  <g
     id="g110491">
    <path
       style="fill:none;stroke:#000000;stroke-width:1px;stroke-linecap:butt;stroke-linejoin:miter;stroke-opacity:1"
       d="M 1544.4542,1754.1535 1196.4969,1923.468"
       id="path103156" />
    <text
       xml:space="preserve"
       style="font-size:85.3333px;line-height:1.25;font-family:sans-serif"
       x="916.57996"
       y="2008.4048"
       id="text108658"><tspan
         sodipodi:role="line"
         id="tspan108656"
         x="916.57996"
         y="2008.4048">x1: -0.25 V vs SCE</tspan></text>
  </g>
  <g
     id="g110496">
    <path
       style="fill:none;stroke:#000000;stroke-width:1px;stroke-linecap:butt;stroke-linejoin:miter;stroke-opacity:1"
       d="m 2344.4214,1752.6104 91.6683,163.0925"
       id="path103158" />
    <text
       xml:space="preserve"
       style="font-size:85.3333px;line-height:1.25;font-family:sans-serif"
       x="2436.0896"
       y="1915.7029"
       id="text109760"><tspan
         sodipodi:role="line"
         id="tspan109758"
         x="2436.0896"
         y="1915.7029">x2: 0.5 V vs SCE</tspan></text>
  </g>
  <g
     id="g112842">
    <text
       xml:space="preserve"
       style="font-size:85.3333px;line-height:1.25;font-family:sans-serif"
       x="739.11322"
       y="528.30237"
       id="text101037"><tspan
         sodipodi:role="line"
         id="tspan101035"
         x="739.11322"
         y="528.30237">curve: Au(111)_0.1M_KClO4_0.2mM_KI</tspan></text>
    <path
       style="fill:none;stroke:#000000;stroke-width:1px;stroke-linecap:butt;stroke-linejoin:miter;stroke-opacity:1"
       d="m 1281.0358,1273.3358 3.2945,-74.6886 19.7667,-57.1251 17.5705,-41.7264 15.3742,-48.3434 6.5889,-79.08826 8.7852,-121.90571 2.1964,85.67014 h 11.0097 l 7.6871,68.10673 8.7852,19.7632 10.9815,8.7818 20.865,2.1998 20.8649,-7.6906 15.3742,-21.9631 6.5889,-10.98157 14.276,41.74397 1.0982,34.0358 8.7852,28.5625 18.6968,25.2717 16.4723,15.3636 26.3557,27.4714 18.6687,13.1814 36.239,7.6906 58.2304,10.9815 60.3985,3.291 76.899,1.0911 h 53.8096 l 104.3528,-1.0911 86.7824,1.0911 39.5336,-3.2909 7.687,-16.4723 15.4023,13.1813 21.9632,-4.3996 46.1225,-1.0912 27.4539,6.582 28.5801,-4.3821 13.1779,-10.9816 2.1963,35.1445 -8.7852,9.8904 -36.2673,13.1814 -56.0059,3.2909 h -52.7396 l -20.8649,3.291 -3.2945,14.2725 -24.1594,-23.0542 h -57.104 l -81.2916,-1.1088 -109.8436,3.3086 -84.5861,2.1822 -99.9602,5.4908 -43.9262,19.7809 -32.9447,19.7632 -21.9631,20.872 -24.1875,27.4715 -21.9631,76.8884 -8.7853,38.4354 -29.6501,-30.7448 -56.0059,-2.1998 -39.5618,-4.3997 -10.9815,-5.4907 -16.4723,7.6906 -10.9816,-15.3813 -7.6871,-32.9446 v -52.7255 z"
       id="path112757" />
  </g>
</svg>
