<?xml version="1.0" encoding="UTF-8" standalone="no"?>
<svg
   height="6617px"
   version="1.1"
   width="4959px"
   id="svg52366"
   sodipodi:docname="kerner_2002_measurement_2055_f3a_thick.svg"
   inkscape:version="1.1.2 (b8e25be833, 2022-02-05)"
   xmlns:inkscape="http://www.inkscape.org/namespaces/inkscape"
   xmlns:sodipodi="http://sodipodi.sourceforge.net/DTD/sodipodi-0.dtd"
   xmlns:xlink="http://www.w3.org/1999/xlink"
   xmlns="http://www.w3.org/2000/svg"
   xmlns:svg="http://www.w3.org/2000/svg"
   xmlns:rdf="http://www.w3.org/1999/02/22-rdf-syntax-ns#"
   xmlns:cc="http://creativecommons.org/ns#"
   xmlns:dc="http://purl.org/dc/elements/1.1/">
  <metadata
     id="metadata28">
    <rdf:RDF>
      <cc:Work
         rdf:about="">
        <dc:format>image/svg+xml</dc:format>
        <dc:type
           rdf:resource="http://purl.org/dc/dcmitype/StillImage" />
      </cc:Work>
    </rdf:RDF>
  </metadata>
  <sodipodi:namedview
     id="namedview52368"
     pagecolor="#ffffff"
     bordercolor="#666666"
     borderopacity="1.0"
     inkscape:pageshadow="2"
     inkscape:pageopacity="0.0"
     inkscape:pagecheckerboard="0"
     showgrid="false"
     inkscape:zoom="0.45519118"
     inkscape:cx="1228.0554"
     inkscape:cy="1406.0026"
     inkscape:window-width="1920"
     inkscape:window-height="1017"
     inkscape:window-x="-8"
     inkscape:window-y="32"
     inkscape:window-maximized="1"
     inkscape:current-layer="svg52366" />
  <defs
     id="defs52362" />
  <image
     xlink:href="kerner_2002_measurement_2055_p3.png"
     id="image52364"
     y="0"
     x="0"
     width="4959px"
     sodipodi:insensitive="true"
     height="6617px" />
  <g
     id="g66797">
    <path
       style="fill:none;stroke:#000000;stroke-width:1px;stroke-linecap:butt;stroke-linejoin:miter;stroke-opacity:1"
       d="M 902.8938,761.53985 627.92872,927.74338"
       id="path52403" />
    <text
       xml:space="preserve"
       style="font-size:85.3333px;line-height:1.25;font-family:sans-serif"
       x="121.86276"
       y="938.96997"
       id="text54019"><tspan
         sodipodi:role="line"
         id="tspan54017"
         x="121.86276"
         y="938.96997">j2: 4 uA / cm2</tspan></text>
  </g>
  <g
     id="g66802">
    <path
       style="fill:none;stroke:#000000;stroke-width:1px;stroke-linecap:butt;stroke-linejoin:miter;stroke-opacity:1"
       d="M 902.8938,1679.5918 643.45897,1577.0772"
       id="path52405" />
    <text
       xml:space="preserve"
       style="font-size:85.3333px;line-height:1.25;font-family:sans-serif"
       x="171.55957"
       y="1582.0815"
       id="text54869"><tspan
         sodipodi:role="line"
         id="tspan54867"
         x="171.55957"
         y="1582.0815">j1: -4 uA / cm2</tspan></text>
  </g>
  <g
     id="g66922">
    <path
       style="fill:none;stroke:#000000;stroke-width:1px;stroke-linecap:butt;stroke-linejoin:miter;stroke-opacity:1"
       d="M 904.44685,1794.5547 965.0148,2081.939"
       id="path52407" />
    <text
       xml:space="preserve"
       style="font-size:85.3333px;line-height:1.25;font-family:sans-serif"
       x="715.27765"
       y="2125.74"
       id="text56787"><tspan
         sodipodi:role="line"
         id="tspan56785"
         x="715.27765"
         y="2125.74">E1: -0.25 V vs SCE</tspan></text>
  </g>
  <g
     id="g66837">
    <path
       style="fill:none;stroke:#000000;stroke-width:1px;stroke-linecap:butt;stroke-linejoin:miter;stroke-opacity:1"
       d="m 2041.5002,1794.5547 -85.4163,292.0384"
       id="path52409" />
    <text
       xml:space="preserve"
       style="font-size:85.3333px;line-height:1.25;font-family:sans-serif"
       x="1811.9524"
       y="2100.9016"
       id="text58165"><tspan
         sodipodi:role="line"
         id="tspan58163"
         x="1811.9524"
         y="2100.9016">E2: 1 V vs SCE</tspan></text>
  </g>
  <text
     xml:space="preserve"
     style="font-size:85.3333px;line-height:1.25;font-family:sans-serif"
     x="954.52319"
     y="600.3407"
     id="text61341"><tspan
       sodipodi:role="line"
       id="tspan61339"
       x="954.52319"
       y="600.3407">scan rate: 10 mV / s</tspan></text>
  <text
     xml:space="preserve"
     style="font-size:80px;line-height:1.25;font-family:sans-serif;-inkscape-font-specification:sans-serif;letter-spacing:0px;word-spacing:0px"
     x="63.709496"
     y="584.36981"
     id="text2741"><tspan
       sodipodi:role="line"
       id="tspan2739"
       x="63.709496"
       y="584.36981">figure: 3a</tspan></text>
  <text
     xml:space="preserve"
     style="font-size:80px;line-height:1.25;font-family:sans-serif;-inkscape-font-specification:sans-serif;letter-spacing:0px;word-spacing:0px"
     x="81.284531"
     y="703.00134"
     id="text4521"><tspan
       sodipodi:role="line"
       id="tspan4519"
       x="81.284531"
       y="703.00134">tags: BCV</tspan></text>
  <g
     id="g14259">
    <text
       xml:space="preserve"
       style="font-size:85.3333px;line-height:1.25;font-family:sans-serif"
       x="1585.0222"
       y="770.93683"
       id="text60413"><tspan
         sodipodi:role="line"
         id="tspan60411"
         x="1585.0222"
         y="770.93683">curve: thick</tspan></text>
    <path
       style="fill:none;stroke:#00ff00;stroke-width:1px;stroke-linecap:butt;stroke-linejoin:miter;stroke-opacity:1"
       d="m 952.14114,1193.4546 c 0.0125,-8.1045 149.77356,-2.5116 257.79006,-28.5594 67.7303,-16.333 94.7685,-40.4926 116.4346,-82.9322 23.1177,-45.2829 20.7678,-163.04061 33.5024,-162.56909 9.0574,0.33536 24.3465,113.38309 47.2329,133.18579 9.4266,8.1564 96.9334,-3.776 137.5795,-3.0207 54.9431,1.021 119.5146,16.5967 159.5484,21.9688 29.6625,3.9804 63.7567,-2.4258 87.3259,-20.8704 28.2433,-22.1024 41.5889,-93.7672 49.7044,-92.54349 13.8878,2.0941 7.0006,115.32059 42.2899,155.15459 37.4318,42.2524 118.575,29.0931 118.6315,36.5231 0.2509,32.9971 0.5898,55.9784 -2.4715,82.1084 -2.8238,24.1029 -41.9033,67.6173 -56.5696,71.3985 -29.9155,7.7127 -22.4307,15.2261 -28.5595,16.4766 -8.6269,1.7602 -18.3751,-2.0567 -26.3625,1.6477 -17.032,7.8991 -28.2226,24.4896 -36.7977,41.1915 -18.2861,35.6162 -15.4485,117.5002 -24.1657,117.533 -12.046,0.045 -23.6523,-61.3802 -40.6423,-82.383 -15.438,-19.0843 -43.5845,-26.988 -68.1032,-25.8133 -35.1755,1.6852 -111.3436,24.0789 -166.139,26.9118 -60.7884,3.1427 -133.2162,-10.0095 -180.4187,-8.7875 -18.3815,0.4759 -35.7188,15.2966 -53.8235,12.0828 -12.65,-2.2455 -20.0784,-17.2446 -32.404,-20.8704 -4.742,-1.395 -12.6348,4.4293 -14.8289,0 -18.9896,-38.3348 -38.9959,-71.062 -71.3986,-90.072 -73.5443,-43.147 -248.28441,-29.2664 -249.07117,-38.1708 -1.84263,-20.8544 1.68876,-41.6726 1.71631,-59.5903 z"
       id="path10424"
       sodipodi:nodetypes="sssssssssssssssssssssssssss" />
  </g>
</svg>
