<?xml version="1.0" encoding="UTF-8" standalone="no"?>
<svg
   xmlns:dc="http://purl.org/dc/elements/1.1/"
   xmlns:cc="http://creativecommons.org/ns#"
   xmlns:rdf="http://www.w3.org/1999/02/22-rdf-syntax-ns#"
   xmlns:svg="http://www.w3.org/2000/svg"
   xmlns="http://www.w3.org/2000/svg"
   xmlns:xlink="http://www.w3.org/1999/xlink"
   xmlns:sodipodi="http://sodipodi.sourceforge.net/DTD/sodipodi-0.dtd"
   xmlns:inkscape="http://www.inkscape.org/namespaces/inkscape"
   height="6617px"
   version="1.1"
   width="4959px"
   id="svg99821"
   sodipodi:docname="kerner_2002_measurement_2055_p5_f6a_2.svg"
   inkscape:version="0.92.2 (5c3e80d, 2017-08-06)">
  <metadata
     id="metadata28">
    <rdf:RDF>
      <cc:Work
         rdf:about="">
        <dc:format>image/svg+xml</dc:format>
        <dc:type
           rdf:resource="http://purl.org/dc/dcmitype/StillImage" />
      </cc:Work>
    </rdf:RDF>
  </metadata>
  <sodipodi:namedview
     id="namedview99823"
     pagecolor="#ffffff"
     bordercolor="#666666"
     borderopacity="1.0"
     inkscape:pageshadow="2"
     inkscape:pageopacity="0.0"
     inkscape:pagecheckerboard="0"
     showgrid="false"
     inkscape:zoom="0.1137978"
     inkscape:cx="-510.42423"
     inkscape:cy="3912.4585"
     inkscape:window-width="1920"
     inkscape:window-height="1017"
     inkscape:window-x="-8"
     inkscape:window-y="32"
     inkscape:window-maximized="1"
     inkscape:current-layer="g112842" />
  <defs
     id="defs99817" />
  <image
     sodipodi:absref="F:\Github\echemdb\website\literature\kerner_2002_measurement_2055\Kerner_2002_Measurement_2055_p5.png"
     xlink:href="Kerner_2002_Measurement_2055_p5.png"
     height="6617px"
     sodipodi:insensitive="true"
     width="4959px"
     x="0"
     y="0"
     id="image99819" />
  <text
     xml:space="preserve"
     style="font-size:85.3333px;line-height:1.25;font-family:sans-serif"
     x="1046.7091"
     y="620.51923"
     id="text102031"><tspan
       sodipodi:role="line"
       id="tspan102029"
       x="1046.7091"
       y="620.51923">scan rate: 10 mV / s</tspan></text>
  <g
     id="g110481">
    <path
       style="fill:none;stroke:#000000;stroke-width:1px;stroke-linecap:butt;stroke-linejoin:miter;stroke-opacity:1"
       d="m 1277.2656,685.42201 -257.842,184.84482"
       id="path103152" />
    <text
       xml:space="preserve"
       style="font-size:85.3333px;line-height:1.25;font-family:sans-serif"
       x="400.27835"
       y="916.58563"
       id="text105362"><tspan
         sodipodi:role="line"
         id="tspan105360"
         x="400.27835"
         y="916.58563">j2: 10 uA / cm2</tspan></text>
  </g>
  <g
     id="g110486">
    <path
       style="fill:none;stroke:#000000;stroke-width:1px;stroke-linecap:butt;stroke-linejoin:miter;stroke-opacity:1"
       d="m 1278.8072,1752.6104 -344.85119,45.0477"
       id="path103154" />
    <text
       xml:space="preserve"
       style="font-size:85.3333px;line-height:1.25;font-family:sans-serif"
       x="431.08295"
       y="1876.6261"
       id="text106290"><tspan
         sodipodi:role="line"
         id="tspan106288"
         x="431.08295"
         y="1876.6261">j1: -10 uA / cm2</tspan></text>
  </g>
  <g
     id="g110491">
    <path
       style="fill:none;stroke:#000000;stroke-width:1px;stroke-linecap:butt;stroke-linejoin:miter;stroke-opacity:1"
       d="M 1544.4542,1754.1535 1196.4969,1923.468"
       id="path103156" />
    <text
       xml:space="preserve"
       style="font-size:85.3333px;line-height:1.25;font-family:sans-serif"
       x="916.57996"
       y="2008.4048"
       id="text108658"><tspan
         sodipodi:role="line"
         id="tspan108656"
         x="916.57996"
         y="2008.4048">E1: -0.25 V vs SCE</tspan></text>
  </g>
  <g
     id="g110496">
    <path
       style="fill:none;stroke:#000000;stroke-width:1px;stroke-linecap:butt;stroke-linejoin:miter;stroke-opacity:1"
       d="m 2344.4214,1752.6104 91.6683,163.0925"
       id="path103158" />
    <text
       xml:space="preserve"
       style="font-size:85.3333px;line-height:1.25;font-family:sans-serif"
       x="2436.0896"
       y="1915.7029"
       id="text109760"><tspan
         sodipodi:role="line"
         id="tspan109758"
         x="2436.0896"
         y="1915.7029">E2: 0.5 V vs SCE</tspan></text>
  </g>
  <g
     id="g112842">
    <g
       id="g839">
      <text
         id="text101037"
         y="528.30237"
         x="739.11322"
         style="font-size:85.3333px;line-height:1.25;font-family:sans-serif"
         xml:space="preserve"><tspan
           y="528.30237"
           x="739.11322"
           id="tspan101035"
           sodipodi:role="line">curve: Au(111)_0.1M_KClO4_0.2mM_KI</tspan></text>
      <path
         id="path112757"
         d="m 1281.0358,1273.3358 3.2945,-74.6886 19.7667,-57.1251 17.5705,-41.7264 15.3742,-48.3434 6.5889,-79.08826 8.7852,-121.90571 2.1964,85.67014 h 11.0097 l 7.6871,68.10673 8.7852,19.7632 10.9815,8.7818 20.865,2.1998 20.8649,-7.6906 15.3742,-21.9631 6.5889,-10.98157 14.276,41.74397 1.0982,34.0358 8.7852,28.5625 18.6968,25.2717 16.4723,15.3636 26.3557,27.4714 18.6687,13.1814 36.239,7.6906 58.2304,10.9815 60.3985,3.291 76.899,1.0911 h 53.8096 l 104.3528,-1.0911 86.7824,1.0911 39.5336,-3.2909 7.687,-16.4723 15.4023,13.1813 21.9632,-4.3996 46.1225,-1.0912 27.4539,6.582 28.5801,-4.3821 13.1779,-10.9816 2.1963,35.1445 -8.7852,9.8904 -36.2673,13.1814 -56.0059,3.2909 h -52.7396 l -20.8649,3.291 -3.2945,14.2725 -24.1594,-23.0542 h -57.104 l -81.2916,-1.1088 -109.8436,3.3086 -84.5861,2.1822 -99.9602,5.4908 -43.9262,19.7809 -32.9447,19.7632 -21.9631,20.872 -24.1875,27.4715 -21.9631,76.8884 -8.7853,38.4354 -29.6501,-30.7448 -56.0059,-2.1998 -39.5618,-4.3997 -10.9815,-5.4907 -16.4723,7.6906 -10.9816,-15.3813 -7.6871,-32.9446 v -52.7255 z"
         style="fill:none;stroke:#000000;stroke-width:1px;stroke-linecap:butt;stroke-linejoin:miter;stroke-opacity:1" />
    </g>
    <text
       xml:space="preserve"
       style="font-style:normal;font-variant:normal;font-weight:normal;font-stretch:normal;font-size:80px;line-height:1.25;font-family:sans-serif;-inkscape-font-specification:sans-serif;letter-spacing:0px;word-spacing:0px;fill:#000000;fill-opacity:1;stroke:none"
       x="-917.11377"
       y="262.38022"
       id="text837"><tspan
         sodipodi:role="line"
         id="tspan835"
         x="-917.11377"
         y="262.38022">comment: For CV with KI, KClO4 is used instead of HClO4 (as for KCl, BrCl).</tspan></text>
  </g>
</svg>
