<?xml version="1.0" encoding="UTF-8" standalone="no"?>
<svg
   height="6617px"
   version="1.1"
   width="4959px"
   id="svg99821"
   sodipodi:docname="kerner_2002_measurement_2055_f6a_1.svg"
   inkscape:version="1.1.2 (b8e25be833, 2022-02-05)"
   xmlns:inkscape="http://www.inkscape.org/namespaces/inkscape"
   xmlns:sodipodi="http://sodipodi.sourceforge.net/DTD/sodipodi-0.dtd"
   xmlns:xlink="http://www.w3.org/1999/xlink"
   xmlns="http://www.w3.org/2000/svg"
   xmlns:svg="http://www.w3.org/2000/svg"
   xmlns:rdf="http://www.w3.org/1999/02/22-rdf-syntax-ns#"
   xmlns:cc="http://creativecommons.org/ns#"
   xmlns:dc="http://purl.org/dc/elements/1.1/">
  <metadata
     id="metadata28">
    <rdf:RDF>
      <cc:Work
         rdf:about="">
        <dc:format>image/svg+xml</dc:format>
        <dc:type
           rdf:resource="http://purl.org/dc/dcmitype/StillImage" />
      </cc:Work>
    </rdf:RDF>
  </metadata>
  <sodipodi:namedview
     id="namedview99823"
     pagecolor="#ffffff"
     bordercolor="#666666"
     borderopacity="1.0"
     inkscape:pageshadow="2"
     inkscape:pageopacity="0.0"
     inkscape:pagecheckerboard="0"
     showgrid="false"
     inkscape:zoom="0.22759558"
     inkscape:cx="1120.4084"
     inkscape:cy="1427.9715"
     inkscape:window-width="1920"
     inkscape:window-height="1017"
     inkscape:window-x="-8"
     inkscape:window-y="32"
     inkscape:window-maximized="1"
     inkscape:current-layer="svg99821" />
  <defs
     id="defs99817" />
  <image
     xlink:href="kerner_2002_measurement_2055_p5.png"
     id="image99819"
     y="0"
     x="0"
     width="4959px"
     sodipodi:insensitive="true"
     height="6617px" />
  <text
     xml:space="preserve"
     style="font-size:85.3333px;line-height:1.25;font-family:sans-serif"
     x="1046.7091"
     y="620.51923"
     id="text102031"><tspan
       sodipodi:role="line"
       id="tspan102029"
       x="1046.7091"
       y="620.51923">scan rate: 10 mV / s</tspan></text>
  <g
     id="g110481">
    <path
       style="fill:none;stroke:#000000;stroke-width:1px;stroke-linecap:butt;stroke-linejoin:miter;stroke-opacity:1"
       d="m 1277.2656,685.42201 -257.842,184.84482"
       id="path103152" />
    <text
       xml:space="preserve"
       style="font-size:85.3333px;line-height:1.25;font-family:sans-serif"
       x="400.27835"
       y="916.58563"
       id="text105362"><tspan
         sodipodi:role="line"
         id="tspan105360"
         x="400.27835"
         y="916.58563">j2: 10 uA / cm2</tspan></text>
  </g>
  <g
     id="g110486">
    <path
       style="fill:none;stroke:#000000;stroke-width:1px;stroke-linecap:butt;stroke-linejoin:miter;stroke-opacity:1"
       d="m 1278.8072,1752.6104 -344.85119,45.0477"
       id="path103154" />
    <text
       xml:space="preserve"
       style="font-size:85.3333px;line-height:1.25;font-family:sans-serif"
       x="431.08295"
       y="1876.6261"
       id="text106290"><tspan
         sodipodi:role="line"
         id="tspan106288"
         x="431.08295"
         y="1876.6261">j1: -10 uA / cm2</tspan></text>
  </g>
  <g
     id="g110491">
    <path
       style="fill:none;stroke:#000000;stroke-width:1px;stroke-linecap:butt;stroke-linejoin:miter;stroke-opacity:1"
       d="M 1544.4542,1754.1535 1196.4969,1923.468"
       id="path103156" />
    <text
       xml:space="preserve"
       style="font-size:85.3333px;line-height:1.25;font-family:sans-serif"
       x="916.57996"
       y="2008.4048"
       id="text108658"><tspan
         sodipodi:role="line"
         id="tspan108656"
         x="916.57996"
         y="2008.4048">E1: -0.25 V vs SCE</tspan></text>
  </g>
  <g
     id="g110496">
    <path
       style="fill:none;stroke:#000000;stroke-width:1px;stroke-linecap:butt;stroke-linejoin:miter;stroke-opacity:1"
       d="m 2344.4214,1752.6104 91.6683,163.0925"
       id="path103158" />
    <text
       xml:space="preserve"
       style="font-size:85.3333px;line-height:1.25;font-family:sans-serif"
       x="2436.0896"
       y="1915.7029"
       id="text109760"><tspan
         sodipodi:role="line"
         id="tspan109758"
         x="2436.0896"
         y="1915.7029">E2: 0.5 V vs SCE</tspan></text>
  </g>
  <g
     id="g111091">
    <text
       xml:space="preserve"
       style="font-size:85.3333px;line-height:1.25;font-family:sans-serif"
       x="1986.516"
       y="851.41541"
       id="text101037"><tspan
         sodipodi:role="line"
         id="tspan101035"
         x="1986.516"
         y="851.41541">curve: 1</tspan></text>
    <path
       style="display:inline;fill:none;stroke:#00ff00;stroke-width:1px;stroke-linecap:butt;stroke-linejoin:miter;stroke-opacity:1"
       d="m 1281.5379,1219.8033 c 0.5419,-13.8075 6.5037,-28.1001 12.8133,-40.3936 7.8718,-15.3373 22.4166,-25.9408 31.8365,-40.3791 8.7355,-13.3894 15.4733,-28.1145 19.8009,-43.5046 4.9388,-17.5636 6.3948,-34.7596 8.9306,-52.8273 3.0638,-21.83 5.3323,-46.81793 7.7643,-68.72727 3.0893,-27.83067 6.0185,-83.28072 9.5534,-111.05831 1.0007,-7.86362 3.428,25.61097 4.4649,20.17572 1.0426,-5.46465 4.9665,-19.62987 6.7938,-15.14592 0,0 6.4998,27.117 8.7361,39.61268 3.6901,20.61927 8.5898,40.76528 12.6134,61.32206 3.3778,17.25711 1.0853,24.01521 7.7559,40.28544 2.2901,5.5858 4.6587,21.257 10.6912,21.0224 11.452,-0.4455 15.8502,5.6425 23.2954,3.205 6.1667,-2.0189 12.3515,-4.8928 17.0832,-9.3331 8.48,-7.9577 16.1648,-26.19725 16.1648,-26.19725 0,0 6.8789,19.03855 9.0529,30.32705 2.8252,14.6698 4.5343,33.5215 7.5758,48.148 1.9246,9.2553 8.0438,26.1487 12.3482,34.5651 6.0137,11.7586 11.1448,6.0092 19.365,16.3464 5.1211,6.44 9.3959,16.3177 15.3747,21.9704 5.4771,5.1783 9.3424,6.1152 15.0984,10.9815 5.3733,4.5427 12.1586,12.3476 17.8463,16.4899 9.1769,6.6834 20.8321,9.322 31.8465,12.0727 16.8367,4.2047 34.3799,7.8333 51.6414,9.6202 23.0108,2.3821 46.0777,1.3378 69.1837,2.4701 19.3903,0.9503 38.8196,0.7652 58.2304,1.0911 24.9001,0.4181 49.7997,0.9239 74.7026,1.1087 35.14,0.2608 70.2839,0.3703 105.4229,0 34.7901,-0.3667 69.6861,0.7507 104.3528,-2.1998 7.3761,-0.6278 15.6802,0.6238 21.9632,-3.291 4.9155,-3.0628 8.8534,-10.5791 12.0803,-15.3885 3.6923,-5.5032 4.5068,8.4941 12.1072,7.6979 6.553,-0.6865 13.1779,0 19.7668,0 14.6421,0 28.1964,1.9132 42.8278,2.4715 9.5381,0.364 22.1197,2.9561 31.5726,1.6331 10.4465,-1.4621 25.01,-11.5309 25.01,-11.5309 0,0 4.7009,26.5198 0.8236,36.8068 -2.8331,7.5167 -21.4024,16.8922 -29.4072,17.5635 -30.4229,2.5513 -41.5342,7.1806 -66.7086,9.3442 -16.486,1.4168 -35.2776,-5.076 -50.2689,1.9281 -2.3451,1.0956 -3.7146,3.608 -5.4908,5.4908 -3.023,3.2043 -4.3804,9.8151 -8.7852,9.8728 -8.0257,0.1051 -10.1253,-12.6503 -16.4723,-17.5634 -3.6283,-2.8086 -8.4862,-6.7317 -12.9035,-7.9725 -14.8181,-4.1624 -29.9091,-0.5742 -45.2987,-0.8268 -24.9003,-0.4086 -49.8054,0.5463 -74.7027,1.1087 -24.1737,0.5461 -48.3292,1.8331 -72.5063,2.1998 -30.3788,0.4607 -60.7652,0.9121 -91.1469,1.0984 -29.6612,0.1819 -59.4334,-0.1633 -88.9786,2.4642 -26.6236,2.3677 -53.3819,3.3472 -78.5461,12.3576 -13.1241,4.6993 -35.1646,22.339 -41.7314,26.0895 -11.5852,6.6167 -15.2725,1.8314 -31.0212,22.7957 -11.5765,15.4104 -27.0539,26.4539 -35.1688,43.9366 -9.733,20.9687 -11.4219,45.3614 -15.6493,68.0891 -1.9048,10.2406 -7.9623,27.7417 -7.9623,27.7417 0,0 -13.3066,-20.1899 -23.6107,-26.9076 -9.7454,-6.3535 -17.2634,-3.9295 -28.8253,-5.2192 -11.6415,-1.2986 -25.0942,0.9456 -36.7886,0.2746 -9.5739,-0.5494 -15.0943,1.6802 -28.0309,-5.7623 -6.2605,-3.6017 -14.4836,-7.4228 -21.964,-10.9992 -2.7906,-1.3342 -2.4197,6.6272 -11.6776,11.1287 -8.6088,4.1858 -18.832,9.3645 -21.5508,5.3161 -4.3961,-6.5458 -11.2611,-13.8811 -11.4066,-21.63 -1.2723,-67.7757 -2.501,-104.7773 0.1125,-171.3662 z"
       id="path110531"
       sodipodi:nodetypes="sssssssscsssssscsssssssssssssssssssscsssssssssssssssssscsssssssss" />
  </g>
  <text
     xml:space="preserve"
     style="font-style:normal;font-variant:normal;font-weight:normal;font-stretch:normal;font-size:80px;line-height:1.25;font-family:sans-serif;-inkscape-font-specification:sans-serif;letter-spacing:0px;word-spacing:0px;fill:#000000;fill-opacity:1;stroke:none"
     x="-950.28314"
     y="291.70282"
     id="text837"><tspan
       sodipodi:role="line"
       id="tspan835"
       x="-950.28314"
       y="291.70282">comment: It is unclear if the positive peak at -400 mV (vs. SCE) consits of two peaks. The two CVs in the figfure are also hard to distinguish.</tspan></text>
  <text
     xml:space="preserve"
     style="font-size:80px;line-height:1.25;font-family:sans-serif;-inkscape-font-specification:sans-serif;letter-spacing:0px;word-spacing:0px"
     x="-891.93298"
     y="716.18262"
     id="text6044"><tspan
       sodipodi:role="line"
       id="tspan6042"
       x="-891.93298"
       y="716.18262">figure: 6a</tspan></text>
  <text
     xml:space="preserve"
     style="font-size:80px;line-height:1.25;font-family:sans-serif;-inkscape-font-specification:sans-serif;letter-spacing:0px;word-spacing:0px"
     x="-896.32672"
     y="887.53925"
     id="text7236"><tspan
       sodipodi:role="line"
       id="tspan7234"
       x="-896.32672"
       y="887.53925">tags: BCV</tspan></text>
</svg>
