<?xml version="1.0" encoding="UTF-8" standalone="no"?>
<svg
   xmlns:dc="http://purl.org/dc/elements/1.1/"
   xmlns:cc="http://creativecommons.org/ns#"
   xmlns:rdf="http://www.w3.org/1999/02/22-rdf-syntax-ns#"
   xmlns:svg="http://www.w3.org/2000/svg"
   xmlns="http://www.w3.org/2000/svg"
   xmlns:xlink="http://www.w3.org/1999/xlink"
   xmlns:sodipodi="http://sodipodi.sourceforge.net/DTD/sodipodi-0.dtd"
   xmlns:inkscape="http://www.inkscape.org/namespaces/inkscape"
   height="6617px"
   version="1.1"
   width="4959px"
   id="svg73296"
   sodipodi:docname="kerner_2002_measurement_2055_f4a_thin.svg"
   inkscape:version="0.92.2 (5c3e80d, 2017-08-06)">
  <metadata
     id="metadata28">
    <rdf:RDF>
      <cc:Work
         rdf:about="">
        <dc:format>image/svg+xml</dc:format>
        <dc:type
           rdf:resource="http://purl.org/dc/dcmitype/StillImage" />
      </cc:Work>
    </rdf:RDF>
  </metadata>
  <sodipodi:namedview
     id="namedview73298"
     pagecolor="#ffffff"
     bordercolor="#666666"
     borderopacity="1.0"
     inkscape:pageshadow="2"
     inkscape:pageopacity="0.0"
     inkscape:pagecheckerboard="0"
     showgrid="false"
     inkscape:zoom="0.16093438"
     inkscape:cx="3673.6166"
     inkscape:cy="4591.7556"
     inkscape:window-width="1920"
     inkscape:window-height="1017"
     inkscape:window-x="-8"
     inkscape:window-y="32"
     inkscape:window-maximized="1"
     inkscape:current-layer="svg73296" />
  <defs
     id="defs73292" />
  <image
     sodipodi:absref="F:\Github\echemdb\website\literature\kerner_2002_measurement_2055\Kerner_2002_Measurement_2055_p3.png"
     xlink:href="Kerner_2002_Measurement_2055_p3.png"
     id="image73294"
     y="0"
     x="0"
     width="4959px"
     sodipodi:insensitive="true"
     height="6617px" />
  <g
     id="g80236">
    <path
       style="fill:none;stroke:#000000;stroke-width:1px;stroke-linecap:butt;stroke-linejoin:miter;stroke-opacity:1"
       d="m 3079.5778,674.9266 -413.264,173.96869"
       id="path73369" />
    <text
       xml:space="preserve"
       style="font-size:85.3333px;line-height:1.25;font-family:sans-serif"
       x="2144.4177"
       y="932.76855"
       id="text75447"><tspan
         sodipodi:role="line"
         id="tspan75445"
         x="2144.4177"
         y="932.76855">j2: 3 uA / cm2</tspan></text>
  </g>
  <g
     id="g80241">
    <path
       style="fill:none;stroke:#000000;stroke-width:1px;stroke-linecap:butt;stroke-linejoin:miter;stroke-opacity:1"
       d="m 3079.5778,1675.2839 -310.6847,55.8989"
       id="path73371" />
    <text
       xml:space="preserve"
       style="font-size:85.3333px;line-height:1.25;font-family:sans-serif"
       x="2175.3984"
       y="1771.6012"
       id="text76375"><tspan
         sodipodi:role="line"
         id="tspan76373"
         x="2175.3984"
         y="1771.6012">j1: -2 uA / cm2</tspan></text>
  </g>
  <g
     id="g80246">
    <path
       style="fill:none;stroke:#000000;stroke-width:1px;stroke-linecap:butt;stroke-linejoin:miter;stroke-opacity:1"
       d="m 3082.6839,1867.9186 -108.7913,183.2771"
       id="path73373" />
    <text
       xml:space="preserve"
       style="font-size:85.3333px;line-height:1.25;font-family:sans-serif"
       x="2479.9509"
       y="2122.6245"
       id="text77303"><tspan
         sodipodi:role="line"
         id="tspan77301"
         x="2479.9509"
         y="2122.6245">E1: -0.25 V vs SCE</tspan></text>
  </g>
  <g
     id="g80251">
    <path
       style="fill:none;stroke:#000000;stroke-width:1px;stroke-linecap:butt;stroke-linejoin:miter;stroke-opacity:1"
       d="m 4166.9345,1874.091 -40.3789,288.9523"
       id="path73375" />
    <text
       xml:space="preserve"
       style="font-size:85.3333px;line-height:1.25;font-family:sans-serif"
       x="3949.3518"
       y="2234.4724"
       id="text78615"><tspan
         sodipodi:role="line"
         id="tspan78613"
         x="3949.3518"
         y="2234.4724">E2: 1V vs SCE</tspan></text>
  </g>
  <text
     xml:space="preserve"
     style="font-size:85.3333px;line-height:1.25;font-family:sans-serif"
     x="3291.4348"
     y="639.80731"
     id="text85294"><tspan
       sodipodi:role="line"
       id="tspan85292"
       x="3291.4348"
       y="639.80731">scan rate: 10 mV / s</tspan></text>
  <g
     id="g87153">
    <text
       xml:space="preserve"
       style="font-size:85.3333px;line-height:1.25;font-family:sans-serif"
       x="2971.113"
       y="545.97223"
       id="text81729"><tspan
         sodipodi:role="line"
         id="tspan81727"
         x="2971.113"
         y="545.97223">curve: Au(111)_0.1M_HClO4_1mM_K2SO4</tspan></text>
    <path
       style="fill:none;stroke:#000000;stroke-width:1px;stroke-linecap:butt;stroke-linejoin:miter;stroke-opacity:1"
       d="m 3128.6115,1339.2367 1.0981,-108.742 54.9078,-3.291 101.0583,-8.7817 60.4267,-18.6722 68.0856,-20.8719 52.7396,-25.2716 38.4354,-30.7448 34.0428,-52.7255 28.552,-87.87002 32.9728,-116.43255 14.276,84.57901 25.2575,59.30736 9.8835,24.163 26.3557,4.3996 38.4635,-5.4907 56.0059,-3.3086 32.9447,15.3812 38.4635,25.2717 47.2207,45.0348 56.0059,41.7264 56.0339,18.6897 38.4355,4.3821 21.9632,-2.1998 3.2944,-52.7255 1.0981,-121.9234 v -79.07061 l 5.5189,132.90491 3.2945,108.7419 7.6871,14.2725 15.3741,1.1087 16.4725,10.9816 10.9814,1.0911 2.1963,137.3045 -37.3373,34.0534 -17.5704,9.8904 -13.206,4.382 -5.4908,65.907 -5.4908,109.833 -4.3925,-192.2123 -17.5705,-1.0911 -34.0429,7.673 -41.7298,19.7809 -53.8377,37.3443 -53.8096,54.9253 -30.7765,23.0542 -39.5336,19.7809 -61.4966,-2.1998 -48.347,-4.3997 h -41.7299 l -35.1409,12.0902 -19.795,16.4724 -14.276,4.3997 -16.4723,-16.4724 -25.2575,-37.3443 -30.7484,-50.5433 -45.0525,-40.6352 -50.5151,-24.1629 -63.7211,-24.1629 -58.2022,-12.0903 -83.4879,-2.1822 z"
       id="path87068" />
  </g>
  <text
     xml:space="preserve"
     style="font-style:normal;font-variant:normal;font-weight:normal;font-stretch:normal;font-size:80px;line-height:1.25;font-family:sans-serif;-inkscape-font-specification:sans-serif;letter-spacing:0px;word-spacing:0px;fill:#000000;fill-opacity:1;stroke:none"
     x="-310.27072"
     y="235.77946"
     id="text837"><tspan
       sodipodi:role="line"
       id="tspan835"
       x="-310.27072"
       y="235.77946">comment: For CV with KI, KClO4 is used instead of HClO4 (as for KCl, BrCl).</tspan></text>
</svg>
