<?xml version="1.0" encoding="UTF-8" standalone="no"?>
<svg
   xmlns:dc="http://purl.org/dc/elements/1.1/"
   xmlns:cc="http://creativecommons.org/ns#"
   xmlns:rdf="http://www.w3.org/1999/02/22-rdf-syntax-ns#"
   xmlns:svg="http://www.w3.org/2000/svg"
   xmlns="http://www.w3.org/2000/svg"
   xmlns:xlink="http://www.w3.org/1999/xlink"
   xmlns:sodipodi="http://sodipodi.sourceforge.net/DTD/sodipodi-0.dtd"
   xmlns:inkscape="http://www.inkscape.org/namespaces/inkscape"
   height="6617px"
   version="1.1"
   width="4959px"
   id="svg87225"
   sodipodi:docname="kerner_2002_measurement_2055_p4_f5a_thin.svg"
   inkscape:version="0.92.2 (5c3e80d, 2017-08-06)">
  <metadata
     id="metadata28">
    <rdf:RDF>
      <cc:Work
         rdf:about="">
        <dc:format>image/svg+xml</dc:format>
        <dc:type
           rdf:resource="http://purl.org/dc/dcmitype/StillImage" />
      </cc:Work>
    </rdf:RDF>
  </metadata>
  <sodipodi:namedview
     id="namedview87227"
     pagecolor="#ffffff"
     bordercolor="#666666"
     borderopacity="1.0"
     inkscape:pageshadow="2"
     inkscape:pageopacity="0.0"
     inkscape:pagecheckerboard="0"
     showgrid="false"
     inkscape:zoom="0.11379779"
     inkscape:cx="845.55369"
     inkscape:cy="4302.581"
     inkscape:window-width="1920"
     inkscape:window-height="1017"
     inkscape:window-x="-8"
     inkscape:window-y="32"
     inkscape:window-maximized="1"
     inkscape:current-layer="svg87225" />
  <defs
     id="defs87221" />
  <image
     sodipodi:absref="F:\Github\echemdb\website\literature\kerner_2002_measurement_2055\Kerner_2002_Measurement_2055_p4.png"
     xlink:href="Kerner_2002_Measurement_2055_p4.png"
     id="image87223"
     y="0"
     x="0"
     width="4959px"
     sodipodi:insensitive="true"
     height="6617px" />
  <text
     xml:space="preserve"
     style="font-size:85.3333px;line-height:1.25;font-family:sans-serif"
     x="1324.9039"
     y="653.88684"
     id="text90887"><tspan
       sodipodi:role="line"
       id="tspan90885"
       x="1324.9039"
       y="653.88684">scan rate: 10 mV / s</tspan></text>
  <g
     id="g97738">
    <path
       style="fill:none;stroke:#000000;stroke-width:1px;stroke-linecap:butt;stroke-linejoin:miter;stroke-opacity:1"
       d="m 2325.7861,1727.7582 93.2212,195.7209"
       id="path91492" />
    <text
       xml:space="preserve"
       style="font-size:85.3333px;line-height:1.25;font-family:sans-serif"
       x="2414.6147"
       y="2020.1309"
       id="text92706"><tspan
         sodipodi:role="line"
         id="tspan92704"
         x="2414.6147"
         y="2020.1309">E2: 0.75 V vs SCE</tspan></text>
  </g>
  <g
     id="g97723">
    <path
       style="fill:none;stroke:#000000;stroke-width:1px;stroke-linecap:butt;stroke-linejoin:miter;stroke-opacity:1"
       d="M 1288.1262,775.53322 961.91117,924.63857"
       id="path91486" />
    <text
       xml:space="preserve"
       style="font-size:85.3333px;line-height:1.25;font-family:sans-serif"
       x="387.63867"
       y="980.82593"
       id="text94726"><tspan
         sodipodi:role="line"
         id="tspan94724"
         x="387.63867"
         y="980.82593">j2: 5 uA / cm2</tspan></text>
  </g>
  <g
     id="g97728">
    <path
       style="fill:none;stroke:#000000;stroke-width:1px;stroke-linecap:butt;stroke-linejoin:miter;stroke-opacity:1"
       d="m 1289.6791,1642.3154 -306.02558,-66.8"
       id="path91488" />
    <text
       xml:space="preserve"
       style="font-size:85.3333px;line-height:1.25;font-family:sans-serif"
       x="365.67566"
       y="1556.3717"
       id="text95720"><tspan
         sodipodi:role="line"
         id="tspan95718"
         x="365.67566"
         y="1556.3717">j1: -5 uA / cm2</tspan></text>
  </g>
  <g
     id="g97733">
    <path
       style="fill:none;stroke:#000000;stroke-width:1px;stroke-linecap:butt;stroke-linejoin:miter;stroke-opacity:1"
       d="m 1420.173,1727.7582 -178.6377,267.175"
       id="path91490" />
    <text
       xml:space="preserve"
       style="font-size:85.3333px;line-height:1.25;font-family:sans-serif"
       x="1037.8589"
       y="2057.2288"
       id="text97110"><tspan
         sodipodi:role="line"
         id="tspan97108"
         x="1037.8589"
         y="2057.2288">E1: -0.125 V vs SCE</tspan></text>
  </g>
  <g
     id="g99701">
    <text
       xml:space="preserve"
       style="font-size:85.3333px;line-height:1.25;font-family:sans-serif"
       x="1088.6851"
       y="554.43353"
       id="text88771"><tspan
         sodipodi:role="line"
         id="tspan88769"
         x="1088.6851"
         y="554.43353">curve: Au(111)_0.1M_HClO4_0.2mM_KBr</tspan></text>
    <path
       style="fill:none;stroke:#000000;stroke-width:1px;stroke-linecap:butt;stroke-linejoin:miter;stroke-opacity:1"
       d="m 1340.3381,1254.6659 1.0982,-73.5976 c 0.1246,-8.3473 16.2056,-4.064 24.1594,-6.5995 15.2345,-4.8564 31.2535,-8.3939 45.0525,-16.4723 5.8255,-3.4105 10.1852,-8.8636 15.3742,-13.1813 9.403,-7.8242 20.1173,-14.1947 28.552,-23.0542 11.565,-12.1474 21.4356,-26.03 29.6502,-40.6529 7.9607,-14.171 14.4805,-29.3373 18.6967,-45.0349 5.0774,-18.9039 5.5928,-38.75477 7.6871,-58.21626 2.8305,-26.30222 4.9885,-52.68263 6.589,-79.08826 1.7509,-28.88824 1.8198,-57.85757 3.2944,-86.76123 1.4583,-28.58399 5.4908,-85.68775 5.4908,-85.68775 0,0 3.2851,51.37807 6.5889,76.88843 1.0982,8.47937 3.1302,16.81516 4.3927,25.27162 2.1797,14.60001 4.0089,29.25651 5.4907,43.94378 0.9579,9.49492 0.5246,19.14942 2.1963,28.54498 3.0657,17.23066 10.516,33.43309 14.276,50.52568 3.5056,15.93591 3.5977,32.54727 7.6871,48.34344 1.0732,4.14567 1.0375,9.41147 4.3926,12.07267 7.2211,5.7276 18.2535,2.7414 27.4539,3.2909 13.8946,0.8298 27.8387,0 41.758,0 12.4458,0 25.1013,-2.2754 37.3373,0 10.0272,1.8646 19.4326,6.432 28.552,10.9992 13.5382,6.7802 26.431,14.9721 38.4636,24.1629 9.8814,7.5477 18.1427,17.0131 27.4538,25.254 16.9202,14.9754 33.5322,30.3929 51.6134,43.9438 12.2735,9.1983 24.1577,19.7233 38.4635,25.2541 13.1353,5.0783 27.7786,4.6784 41.7298,6.5995 12.414,1.7094 24.8179,3.8388 37.3373,4.382 12.0738,0.5239 24.1613,-0.6722 36.2392,-1.0911 18.6812,-0.6479 37.4348,-0.3353 56.034,-2.1999 13.652,-1.3686 28.4192,-0.3284 40.6317,-6.5818 5.9931,-3.0688 7.5559,-14.708 14.276,-14.2901 8.3349,0.5183 8.1899,15.5237 15.3742,19.7809 9.8965,5.8644 22.5907,4.7594 34.0709,5.4907 11.3307,0.7217 25.5639,-8.6594 34.0428,-1.1087 13.1706,11.7288 5.5455,35.1272 4.3927,52.7255 -0.5635,8.602 -2.5501,17.1683 -5.4909,25.2716 -2.9615,8.1602 -6.1571,16.725 -12.0796,23.0719 -7.6232,8.1695 -17.9709,13.9724 -28.552,17.5634 -10.1147,3.4327 -22.7296,-2.2282 -31.8746,3.2909 -6.7832,4.0938 -5.2661,20.1981 -13.178,19.7809 -8.6689,-0.4571 -4.7368,-18.4413 -12.0796,-23.0718 -8.3656,-5.2755 -19.7761,-0.5293 -29.6502,-1.0911 -19.0603,-1.0845 -38.503,-8.6978 -57.104,-4.3997 -7.0422,1.6272 -11.8838,13.3947 -18.6968,10.9815 -2.947,-1.0438 -0.7887,-6.9119 -3.2945,-8.7816 -16.7641,-12.5085 -41.7473,-6.0962 -62.5948,-4.3997 -14.2573,1.1602 -28.1428,5.504 -41.7581,9.8904 -12.812,4.1276 -25.8527,8.3606 -37.3372,15.3812 -16.8362,10.2921 -30.5335,25.0414 -45.0244,38.4354 -11.7867,10.8945 -22.3084,23.1026 -34.0428,34.0534 -11.0074,10.2724 -20.9116,22.3381 -34.0709,29.6537 -13.0551,7.2577 -28.0994,10.6961 -42.8281,13.1813 -20.2353,3.4143 -41.0223,1.32 -61.5248,2.1999 -14.6469,0.6286 -29.3731,0.429 -43.9262,2.1998 -13.3266,1.6216 -26.2087,6.0543 -39.5335,7.6906 -6.9126,0.8489 -13.9717,2.0845 -20.865,1.0911 -6.5396,-0.9424 -12.4764,-4.3543 -18.6967,-6.5819 -4.0345,-1.4448 -8.0779,-5.9324 -12.0798,-4.3996 -5.8112,2.2258 -2.5624,16.4525 -8.7852,16.4723 -9.9933,0.032 -9.0442,-17.8483 -14.276,-26.3627 -3.0296,-4.9305 -7.182,-9.155 -9.8834,-14.2726 -8.6007,-16.2934 -13.5589,-34.27 -19.7668,-51.6167 -5.4627,-15.2644 -7.2172,-32.1326 -15.3741,-46.1436 -4.9555,-8.512 -11.5583,-16.5196 -19.7668,-21.9631 -8.4015,-5.5716 -18.7162,-7.8099 -28.5802,-9.8905 -4.3128,-0.9097 -13.2437,3.3162 -13.1779,-1.091 z"
       id="path99445"
       sodipodi:nodetypes="ssssssssssscssssssssssssssssssssssssssssssssssssssssssssssssssssssss" />
  </g>
  <text
     xml:space="preserve"
     style="font-style:normal;font-variant:normal;font-weight:normal;font-stretch:normal;font-size:80px;line-height:1.25;font-family:sans-serif;-inkscape-font-specification:sans-serif;letter-spacing:0px;word-spacing:0px;fill:#000000;fill-opacity:1;stroke:none"
     x="-627.12567"
     y="227.22995"
     id="text837"><tspan
       sodipodi:role="line"
       id="tspan835"
       x="-627.12567"
       y="227.22995">comment: For CV with KI, KClO4 is used instead of HClO4 (as for KCl, BrCl).</tspan></text>
</svg>
