<?xml version="1.0" encoding="UTF-8" standalone="no"?>
<svg
   height="6601px"
   version="1.1"
   width="5100px"
   id="svg74819"
   sodipodi:docname="endo_1999_in-situ_19_f1_b.svg"
   inkscape:version="1.1.2 (b8e25be833, 2022-02-05)"
   xmlns:inkscape="http://www.inkscape.org/namespaces/inkscape"
   xmlns:sodipodi="http://sodipodi.sourceforge.net/DTD/sodipodi-0.dtd"
   xmlns:xlink="http://www.w3.org/1999/xlink"
   xmlns="http://www.w3.org/2000/svg"
   xmlns:svg="http://www.w3.org/2000/svg"
   xmlns:rdf="http://www.w3.org/1999/02/22-rdf-syntax-ns#"
   xmlns:cc="http://creativecommons.org/ns#"
   xmlns:dc="http://purl.org/dc/elements/1.1/">
  <metadata
     id="metadata28">
    <rdf:RDF>
      <cc:Work
         rdf:about="">
        <dc:format>image/svg+xml</dc:format>
        <dc:type
           rdf:resource="http://purl.org/dc/dcmitype/StillImage" />
      </cc:Work>
    </rdf:RDF>
  </metadata>
  <sodipodi:namedview
     id="namedview74821"
     pagecolor="#ffffff"
     bordercolor="#666666"
     borderopacity="1.0"
     inkscape:pageshadow="2"
     inkscape:pageopacity="0.0"
     inkscape:pagecheckerboard="0"
     showgrid="false"
     inkscape:zoom="0.25717352"
     inkscape:cx="3277.9425"
     inkscape:cy="4619.4492"
     inkscape:window-width="1920"
     inkscape:window-height="1017"
     inkscape:window-x="-8"
     inkscape:window-y="32"
     inkscape:window-maximized="1"
     inkscape:current-layer="g7567" />
  <defs
     id="defs74815" />
  <image
     xlink:href="endo_1999_in-situ_19_p1.png"
     id="image74817"
     y="0"
     x="0"
     width="5100px"
     sodipodi:insensitive="true"
     height="6601px" />
  <g
     id="g90868">
    <path
       style="fill:none;stroke:#000000;stroke-width:1px;stroke-linecap:butt;stroke-linejoin:miter;stroke-opacity:1"
       d="m 4256.3714,5418.4883 341.908,201.614"
       id="path75072" />
    <text
       xml:space="preserve"
       style="font-size:85.3333px;line-height:1.25;font-family:sans-serif"
       x="4594.4062"
       y="5677.0547"
       id="text78204"><tspan
         sodipodi:role="line"
         id="tspan78202"
         x="4594.4062"
         y="5677.0547">E2: 0 V vs Ag/AgCl</tspan></text>
  </g>
  <g
     id="g90863">
    <path
       style="fill:none;stroke:#000000;stroke-width:1px;stroke-linecap:butt;stroke-linejoin:miter;stroke-opacity:1"
       d="m 2999.0223,5419.0391 -328.7624,192.836"
       id="path75070" />
    <text
       xml:space="preserve"
       style="font-size:85.3333px;line-height:1.25;font-family:sans-serif"
       x="2630.822"
       y="5699.0347"
       id="text80188"><tspan
         sodipodi:role="line"
         id="tspan80186"
         x="2630.822"
         y="5699.0347">E1: -1.4 V vs Ag/AgCl</tspan></text>
  </g>
  <g
     id="g90853">
    <path
       style="fill:none;stroke:#000000;stroke-width:1px;stroke-linecap:butt;stroke-linejoin:miter;stroke-opacity:1"
       d="m 2823.63,4041.4625 -219.0999,-223.524"
       id="path75074" />
    <text
       xml:space="preserve"
       style="font-size:85.3333px;line-height:1.25;font-family:sans-serif"
       x="2604.53"
       y="3818.7083"
       id="text83996"><tspan
         sodipodi:role="line"
         id="tspan83994"
         x="2604.53"
         y="3818.7083">j2: 20 uA / cm2</tspan></text>
  </g>
  <g
     id="g90858">
    <path
       style="fill:none;stroke:#000000;stroke-width:0.753579px;stroke-linecap:butt;stroke-linejoin:miter;stroke-opacity:1"
       d="m 2818.5529,5267.7519 -149.1471,-90.6865"
       id="path75076" />
    <text
       xml:space="preserve"
       style="font-size:85.3333px;line-height:1.25;font-family:sans-serif"
       x="2170.7124"
       y="5186.1157"
       id="text86508"><tspan
         sodipodi:role="line"
         id="tspan86506"
         x="2170.7124"
         y="5186.1157">j1: -20 uA / cm2</tspan></text>
  </g>
  <text
     xml:space="preserve"
     style="font-size:85.3333px;line-height:1.25;font-family:sans-serif"
     x="4579.1763"
     y="4427.6802"
     id="text103539"><tspan
       sodipodi:role="line"
       id="tspan103537"
       x="4579.1763"
       y="4427.6802">scan rate: 10 mV / s</tspan></text>
  <g
     id="g131561">
    <g
       id="g7567">
      <text
         xml:space="preserve"
         style="font-size:85.3333px;line-height:1.25;font-family:sans-serif"
         x="2923.9182"
         y="4020.3303"
         id="text93204"><tspan
           sodipodi:role="line"
           id="tspan93202"
           x="2923.9182"
           y="4020.3303">curve: b</tspan></text>
      <path
         style="fill:none;stroke:#ff0000;stroke-width:2;stroke-linecap:butt;stroke-linejoin:miter;stroke-opacity:1;stroke-miterlimit:4;stroke-dasharray:none"
         d="m 2953.4937,5416.6162 c 4.8895,-129.571 26.6351,-269.7909 39.3659,-384.5098 14.7766,-109.8987 34.5885,-252.1446 103.0876,-333.4724 59.4766,-50.5079 151.8856,-63.2395 213.8952,-90.66 54.1098,-32.1076 79.795,-77.6323 131.4633,-107.4406 11.1422,-4.5124 23.1668,-6.5647 34.992,-8.727 50.3099,-6.0779 63.3478,-6.3219 115.9668,-28.459 15.4716,-0.3625 39.7203,-1.6489 52.4879,2.2081 18.3542,8.781 34.5227,23.9892 53.2162,18.9537 39.2107,-10.0005 62.0107,-47.4538 88.9385,-74.3719 34.0681,-7.855 67.7206,41.4807 80.975,64.1451 7.2216,12.4215 10.7268,26.7203 17.4959,39.394 7.7198,14.4537 14.6307,30.0066 26.2439,41.5669 29.8057,23.8244 74.564,40.0646 111.5367,39.3589 0,0 -0.6119,16.7042 0,45.948 0.3458,16.5268 2.1871,26.2508 2.1871,26.2508 -35.5382,22.4482 -55.6345,31.1524 -80.4333,45.2046 -34.8714,25.7792 -64.8609,41.7968 -98.173,70.7433 -40.4816,50.0219 -49.7946,98.5608 -77.3283,148.7347 -20.032,44.7526 -23.9479,40.6709 -44.9558,92.604 -22.7696,-43.482 -29.0697,-93.98 -57.8329,-129.7899 -7.228,-8.7993 -16.2973,-16.326 -26.244,-21.87 -38.6422,-30.2305 -75.1392,-12.2816 -114.0216,-5.3532 -35.4073,10.8366 -69.8005,20.2014 -95.986,20.6692 -17.5268,-0.083 -34.2841,-8.1988 -50.301,-15.316 -41.7624,-15.8789 -74.5217,-56.3968 -109.4057,-72.1988 -42.8473,-4.7083 -90.8687,-2.9107 -131.2197,-2.173 -38.5462,-1.1985 -75.2631,20.3769 -100.6579,43.7399 -91.1682,162.5565 -92.933,407.304 -104.9758,577.4858 z"
         id="path131476"
         sodipodi:nodetypes="cccccccccccsccsccccccccccccccc" />
    </g>
  </g>
  <text
     xml:space="preserve"
     style="font-size:53.3333px;line-height:1.25;font-family:sans-serif;-inkscape-font-specification:sans-serif;letter-spacing:0px;word-spacing:0px"
     x="4603.8955"
     y="4530.0156"
     id="text9081"><tspan
       sodipodi:role="line"
       id="tspan9079"
       x="4603.8955"
       y="4530.0156">Figure: 1</tspan></text>
  <text
     xml:space="preserve"
     style="font-size:53.3333px;line-height:1.25;font-family:sans-serif;-inkscape-font-specification:sans-serif;letter-spacing:0px;word-spacing:0px"
     x="4627.2261"
     y="4635.0029"
     id="text10339"><tspan
       sodipodi:role="line"
       id="tspan10337"
       x="4627.2261"
       y="4635.0029">tags: BCV, HER</tspan></text>
</svg>
