<?xml version="1.0" encoding="UTF-8" standalone="no"?>
<svg
   xmlns:dc="http://purl.org/dc/elements/1.1/"
   xmlns:cc="http://creativecommons.org/ns#"
   xmlns:rdf="http://www.w3.org/1999/02/22-rdf-syntax-ns#"
   xmlns:svg="http://www.w3.org/2000/svg"
   xmlns="http://www.w3.org/2000/svg"
   xmlns:xlink="http://www.w3.org/1999/xlink"
   xmlns:sodipodi="http://sodipodi.sourceforge.net/DTD/sodipodi-0.dtd"
   xmlns:inkscape="http://www.inkscape.org/namespaces/inkscape"
   height="6601px"
   version="1.1"
   width="5100px"
   id="svg74819"
   sodipodi:docname="endo_1999_in-situ_19_p1_f1a_flat.svg"
   inkscape:version="0.92.2 (5c3e80d, 2017-08-06)">
  <metadata
     id="metadata28">
    <rdf:RDF>
      <cc:Work
         rdf:about="">
        <dc:format>image/svg+xml</dc:format>
        <dc:type
           rdf:resource="http://purl.org/dc/dcmitype/StillImage" />
      </cc:Work>
    </rdf:RDF>
  </metadata>
  <sodipodi:namedview
     id="namedview74821"
     pagecolor="#ffffff"
     bordercolor="#666666"
     borderopacity="1.0"
     inkscape:pageshadow="2"
     inkscape:pageopacity="0.0"
     inkscape:pagecheckerboard="0"
     showgrid="false"
     inkscape:zoom="0.22814724"
     inkscape:cx="2687.0209"
     inkscape:cy="2484.2246"
     inkscape:window-width="1920"
     inkscape:window-height="1017"
     inkscape:window-x="-8"
     inkscape:window-y="32"
     inkscape:window-maximized="1"
     inkscape:current-layer="svg74819" />
  <defs
     id="defs74815" />
  <image
     sodipodi:absref="F:\Github\echemdb\website\literature\endo_1999_in-situ_19\Endo_1999_In-situ_19_p1.png"
     xlink:href="Endo_1999_In-situ_19_p1.png"
     id="image74817"
     y="0"
     x="0"
     width="5100px"
     sodipodi:insensitive="true"
     height="6601px" />
  <g
     id="g90868">
    <path
       style="fill:none;stroke:#000000;stroke-width:1px;stroke-linecap:butt;stroke-linejoin:miter;stroke-opacity:1"
       d="m 4256.3714,5418.4883 341.908,201.614"
       id="path75072" />
    <text
       xml:space="preserve"
       style="font-size:85.3333px;line-height:1.25;font-family:sans-serif"
       x="4594.4062"
       y="5677.0547"
       id="text78204"><tspan
         sodipodi:role="line"
         id="tspan78202"
         x="4594.4062"
         y="5677.0547">E2: 0 V vs Ag/AgCl</tspan></text>
  </g>
  <g
     id="g90863">
    <path
       style="fill:none;stroke:#000000;stroke-width:1px;stroke-linecap:butt;stroke-linejoin:miter;stroke-opacity:1"
       d="m 2999.0223,5419.0391 -328.7624,192.836"
       id="path75070" />
    <text
       xml:space="preserve"
       style="font-size:85.3333px;line-height:1.25;font-family:sans-serif"
       x="2630.822"
       y="5699.0347"
       id="text80188"><tspan
         sodipodi:role="line"
         id="tspan80186"
         x="2630.822"
         y="5699.0347">E1: -1.4 V vs Ag/AgCl</tspan></text>
  </g>
  <g
     id="g90853">
    <path
       style="fill:none;stroke:#000000;stroke-width:1px;stroke-linecap:butt;stroke-linejoin:miter;stroke-opacity:1"
       d="m 2823.63,4041.4625 -219.0999,-223.524"
       id="path75074" />
    <text
       xml:space="preserve"
       style="font-size:85.3333px;line-height:1.25;font-family:sans-serif"
       x="2604.53"
       y="3818.7083"
       id="text83996"><tspan
         sodipodi:role="line"
         id="tspan83994"
         x="2604.53"
         y="3818.7083">j2: 20 uA / cm2</tspan></text>
  </g>
  <g
     id="g90858">
    <path
       style="fill:none;stroke:#000000;stroke-width:0.753579px;stroke-linecap:butt;stroke-linejoin:miter;stroke-opacity:1"
       d="m 2818.5529,5267.7519 -149.1471,-90.6865"
       id="path75076" />
    <text
       xml:space="preserve"
       style="font-size:85.3333px;line-height:1.25;font-family:sans-serif"
       x="2170.7124"
       y="5186.1157"
       id="text86508"><tspan
         sodipodi:role="line"
         id="tspan86506"
         x="2170.7124"
         y="5186.1157">j1: -20 uA / cm2</tspan></text>
  </g>
  <g
     id="g100939">
    <text
       xml:space="preserve"
       style="font-size:85.3333px;line-height:1.25;font-family:sans-serif"
       x="2923.9182"
       y="4020.3303"
       id="text93204"><tspan
         sodipodi:role="line"
         id="tspan93202"
         x="2923.9182"
         y="4020.3303">curve: flat_Ag(100)_10mM_NaBr</tspan></text>
    <path
       style="fill:none;stroke:#000000;stroke-width:1px;stroke-linecap:butt;stroke-linejoin:miter;stroke-opacity:1"
       d="m 2915.2837,5350.1028 c 0,0 7.2015,-64.3139 10.955,-96.4532 4.2663,-36.5303 8.5258,-73.0626 13.146,-109.5498 2.7782,-21.9403 5.4243,-43.9032 8.764,-65.7651 3.2462,-21.2503 7.5187,-42.3327 10.955,-63.5531 3.8962,-24.0603 7.1261,-48.2248 10.955,-72.2959 2.7922,-17.5537 5.2284,-35.1788 8.764,-52.598 3.7373,-18.4127 9.2733,-36.4253 13.146,-54.81 3.3666,-15.9823 4.1979,-32.5272 8.7639,-48.209 5.9531,-20.4458 14.127,-40.3494 24.1011,-59.164 7.3993,-13.9576 15.8983,-27.5341 26.2919,-39.431 10.9081,-12.4858 23.5542,-23.6347 37.3032,-32.9001 12.1858,-8.2119 26.1069,-13.5164 39.4379,-19.6979 15.1396,-7.0202 30.5519,-13.4477 46.011,-19.733 9.4233,-3.8313 19.8715,-5.5405 28.4831,-10.955 14.4379,-9.0778 25.4741,-22.7375 37.2468,-35.077 13.9477,-14.6192 27.0568,-30.0646 39.4381,-46.0321 10.9255,-14.0901 16.9382,-32.4521 30.6739,-43.82 12.3542,-10.2245 28.4517,-15.3448 43.8761,-19.733 10.629,-3.0239 21.815,-4.2337 32.8651,-4.3539 13.2251,-0.1439 26.2546,3.2944 39.4379,4.3539 14.5783,1.1716 29.3291,4.1899 43.82,2.212 11.4415,-1.5617 22.4505,-5.9664 32.8649,-10.9549 10.9648,-5.2521 22.1348,-11.0792 30.6741,-19.7331 9.6828,-9.8128 15.6298,-22.8047 21.9099,-35.077 9.7041,-18.9632 16.9187,-39.1297 24.1573,-59.164 4.9464,-13.69 10.0744,-27.4145 13.1459,-41.643 3.8803,-17.9753 4.3377,-36.522 6.573,-54.775 1.4323,-11.6958 3.3052,-23.3431 4.382,-35.077 1.1368,-12.3874 2.1911,-37.254 2.1911,-37.254 0,0 9.1207,51.0882 13.1459,76.7201 2.4046,15.312 3.5936,30.8214 6.5729,46.032 4.0512,20.6834 10.1365,40.9162 15.3371,61.3409 5.0271,19.7432 10.0356,39.4926 15.337,59.164 4.9367,18.3183 10.0777,36.5818 15.337,54.8101 7.8157,27.0885 11.1183,56.0475 24.1009,81.074 8.1428,15.6968 22.4757,27.3337 32.8651,41.643 6.1896,8.5249 8.8389,20.3422 17.528,26.299 11.108,7.6151 26.0509,7.3062 39.4379,8.778 10.182,1.1195 20.4868,0 30.7302,0 10.2246,0 20.4907,0.9197 30.6739,0 8.1327,-0.7345 16.0481,-3.0356 24.101,-4.389 9.4735,-1.5922 18.9047,-3.6554 28.483,-4.389 14.564,-1.1155 29.2191,0.4092 43.82,0 13.1615,-0.3688 26.2765,-1.8433 39.438,-2.2121 17.5211,-0.491 35.056,0 52.584,0 10.2434,0 20.4867,0 30.7301,0 12.4157,0 24.8404,0.4734 37.247,0 9.5151,-0.3631 19.0931,-0.5961 28.483,-2.177 14.1496,-2.3823 28.7096,-4.7117 41.6289,-10.9549 6.5732,-3.1765 11.5089,-9.0007 17.528,-13.132 5.6857,-3.9025 17.528,-10.9901 17.528,-10.9901 0,0 4.8319,26.6605 5.0237,42.159 0.1547,12.5026 0.2461,29.0084 -2.8327,41.127 -0.9684,3.8119 -1.7824,8.0037 -4.382,10.9551 -4.97,5.6426 -12.4402,9.0688 -19.7191,10.9549 -10.6047,2.7479 -21.9099,0 -32.8649,0 -13.146,0 -26.3156,-0.7879 -39.4379,0 -18.3574,1.1022 -36.4899,4.6356 -54.775,6.6011 -15.3358,1.6485 -30.7314,2.7054 -46.0672,4.3539 -18.2851,1.9656 -36.5599,4.068 -54.775,6.6012 -13.9139,1.935 -27.7487,4.4018 -41.6289,6.5658 -9.4917,1.4798 -17.4592,5.7402 -26.1591,9.814 -14.9952,7.0217 -24.0831,21.5841 -39.5708,27.4401 -4.782,1.8081 -10.4179,-1.3919 -15.3371,0 -10.7257,3.0348 -18.0197,13.6774 -28.4829,17.5209 -9.0346,3.3187 -15.3536,5.0599 -24.666,7.4925 -6.0366,1.5769 -16.1763,3.2893 -22.1758,5.002 -7.1624,2.0445 -14.0605,5.0711 -20.3608,9.0442 -12.3597,7.7945 -18.956,16.7277 -27.0666,28.8824 -10.36,15.5256 -20.4899,31.3422 -28.4829,48.2089 -9.9936,21.0883 -15.9468,43.8647 -24.1011,65.7301 -7.9167,21.2283 -16.75,42.1222 -24.1009,63.553 -6.4481,18.7988 -12.6516,37.7206 -17.528,56.987 -4.5687,18.0507 -8.505,36.3169 -10.955,54.7749 -2.8909,21.7793 -4.382,65.7651 -4.382,65.7651 0,0 -8.7522,-39.2287 -10.955,-59.1639 -2.1675,-19.6155 1.3281,-39.7454 -2.191,-59.164 -2.4725,-13.6438 -8.4403,-26.4231 -13.146,-39.4662 -4.786,-13.2659 -8.2899,-27.2149 -15.3369,-39.4309 -4.6839,-8.1195 -11.6845,-14.6609 -17.5842,-21.9451 -6.5308,-8.0633 -10.7791,-18.8193 -19.719,-24.0869 -7.0353,-4.1454 -15.9366,-4.2338 -24.1009,-4.389 -10.327,-0.1963 -20.4494,2.926 -30.6741,4.389 -10.2246,1.463 -20.6213,2.0164 -30.6739,4.389 -13.4852,3.1827 -25.8887,10.2351 -39.4381,13.132 -14.3553,3.0692 -29.172,5.3544 -43.8199,4.389 -12.7282,-0.8389 -25.8045,-3.1407 -37.247,-8.778 -9.3204,-4.5918 -17.8148,-11.4683 -24.1572,-19.698 -16.1657,-20.9759 -18.927,-49.8131 -32.8649,-72.331 -7.9271,-12.8069 -18.6222,-23.6921 -28.483,-35.0771 -8.4582,-9.7655 -16.0835,-20.5581 -26.292,-28.4759 -8.5216,-6.6095 -18.3561,-11.6363 -28.483,-15.3441 -13.3169,-4.8758 -27.6334,-6.4894 -41.629,-8.778 -12.3363,-2.0173 -24.847,-5.9335 -37.2469,-4.3538 -14.0059,1.7843 -26.8714,8.9831 -39.4942,15.3088 -12.325,6.1765 -25.0137,12.5 -35.0559,21.9451 -9.1486,8.6047 -14.5833,20.452 -21.91,30.6529 -9.4642,13.177 -21.4011,24.8697 -28.483,39.466 -11.6046,23.918 -16.4487,50.6675 -21.91,76.6851 -3.3317,15.8724 -4.3921,32.138 -6.573,48.209 -3.6686,27.034 -7.8654,54.0027 -10.955,81.109 -3.5729,31.3463 -6.1523,62.8001 -8.764,94.2411 -2.486,29.9276 -4.2801,59.909 -6.573,89.852 -1.3985,18.2632 -3.6511,36.4729 -4.382,54.775 -0.6123,15.3318 0,46.032 0,46.032 z"
       id="path100854"
       sodipodi:nodetypes="csssssssssssssssssssssssssssscssssssssssssssssssssscssssssssssssssssssssssscsssssssssssssssssssssssssssssc" />
  </g>
  <text
     xml:space="preserve"
     style="font-size:85.3333px;line-height:1.25;font-family:sans-serif"
     x="3101.5747"
     y="5290.9106"
     id="text103539"><tspan
       sodipodi:role="line"
       id="tspan103537"
       x="3101.5747"
       y="5290.9106">scan rate: 10 mV / s</tspan></text>
  <text
     xml:space="preserve"
     style="font-size:85.33329773px;line-height:1.25;font-family:sans-serif"
     x="3001.9526"
     y="5567.9897"
     id="text103539-7"><tspan
       sodipodi:role="line"
       id="tspan103537-5"
       x="3001.9526"
       y="5567.9897">linked: XAFS</tspan></text>
</svg>
