<?xml version="1.0" encoding="UTF-8" standalone="no"?>
<svg
   xmlns:dc="http://purl.org/dc/elements/1.1/"
   xmlns:cc="http://creativecommons.org/ns#"
   xmlns:rdf="http://www.w3.org/1999/02/22-rdf-syntax-ns#"
   xmlns:svg="http://www.w3.org/2000/svg"
   xmlns="http://www.w3.org/2000/svg"
   xmlns:xlink="http://www.w3.org/1999/xlink"
   xmlns:sodipodi="http://sodipodi.sourceforge.net/DTD/sodipodi-0.dtd"
   xmlns:inkscape="http://www.inkscape.org/namespaces/inkscape"
   height="6601px"
   version="1.1"
   width="5100px"
   id="svg74819"
   sodipodi:docname="endo_1999_in-situ_19_p1_1b_bold.svg"
   inkscape:version="0.92.2 (5c3e80d, 2017-08-06)">
  <metadata
     id="metadata28">
    <rdf:RDF>
      <cc:Work
         rdf:about="">
        <dc:format>image/svg+xml</dc:format>
        <dc:type
           rdf:resource="http://purl.org/dc/dcmitype/StillImage" />
      </cc:Work>
    </rdf:RDF>
  </metadata>
  <sodipodi:namedview
     id="namedview74821"
     pagecolor="#ffffff"
     bordercolor="#666666"
     borderopacity="1.0"
     inkscape:pageshadow="2"
     inkscape:pageopacity="0.0"
     inkscape:pagecheckerboard="0"
     showgrid="false"
     inkscape:zoom="0.51434704"
     inkscape:cx="2851.2976"
     inkscape:cy="1071.4211"
     inkscape:window-width="1920"
     inkscape:window-height="1017"
     inkscape:window-x="-8"
     inkscape:window-y="32"
     inkscape:window-maximized="1"
     inkscape:current-layer="svg74819" />
  <defs
     id="defs74815" />
  <image
     sodipodi:absref="F:\Github\echemdb\website\literature\endo_1999_in-situ_19\Endo_1999_In-situ_19_p1.png"
     xlink:href="Endo_1999_In-situ_19_p1.png"
     id="image74817"
     y="0"
     x="0"
     width="5100px"
     sodipodi:insensitive="true"
     height="6601px" />
  <g
     id="g90868">
    <path
       style="fill:none;stroke:#000000;stroke-width:1px;stroke-linecap:butt;stroke-linejoin:miter;stroke-opacity:1"
       d="m 4256.3714,5418.4883 341.908,201.614"
       id="path75072" />
    <text
       xml:space="preserve"
       style="font-size:85.3333px;line-height:1.25;font-family:sans-serif"
       x="4594.4062"
       y="5677.0547"
       id="text78204"><tspan
         sodipodi:role="line"
         id="tspan78202"
         x="4594.4062"
         y="5677.0547">x2: 0 V vs Ag/AgCl</tspan></text>
  </g>
  <g
     id="g90863">
    <path
       style="fill:none;stroke:#000000;stroke-width:1px;stroke-linecap:butt;stroke-linejoin:miter;stroke-opacity:1"
       d="m 2999.0223,5419.0391 -328.7624,192.836"
       id="path75070" />
    <text
       xml:space="preserve"
       style="font-size:85.3333px;line-height:1.25;font-family:sans-serif"
       x="2630.822"
       y="5699.0347"
       id="text80188"><tspan
         sodipodi:role="line"
         id="tspan80186"
         x="2630.822"
         y="5699.0347">x1: -1.4 V vs Ag/AgCl</tspan></text>
  </g>
  <g
     id="g90853">
    <path
       style="fill:none;stroke:#000000;stroke-width:1px;stroke-linecap:butt;stroke-linejoin:miter;stroke-opacity:1"
       d="m 2823.63,4041.4625 -219.0999,-223.524"
       id="path75074" />
    <text
       xml:space="preserve"
       style="font-size:85.3333px;line-height:1.25;font-family:sans-serif"
       x="2604.53"
       y="3818.7083"
       id="text83996"><tspan
         sodipodi:role="line"
         id="tspan83994"
         x="2604.53"
         y="3818.7083">y2: 20 uA / cm2</tspan></text>
  </g>
  <g
     id="g90858">
    <path
       style="fill:none;stroke:#000000;stroke-width:0.753579px;stroke-linecap:butt;stroke-linejoin:miter;stroke-opacity:1"
       d="m 2818.5529,5267.7519 -149.1471,-90.6865"
       id="path75076" />
    <text
       xml:space="preserve"
       style="font-size:85.3333px;line-height:1.25;font-family:sans-serif"
       x="2170.7124"
       y="5186.1157"
       id="text86508"><tspan
         sodipodi:role="line"
         id="tspan86506"
         x="2170.7124"
         y="5186.1157">y1: -20 uA / cm2</tspan></text>
  </g>
  <text
     xml:space="preserve"
     style="font-size:85.3333px;line-height:1.25;font-family:sans-serif"
     x="3101.5747"
     y="5290.9106"
     id="text103539"><tspan
       sodipodi:role="line"
       id="tspan103537"
       x="3101.5747"
       y="5290.9106">scan rate: 10 mV / s</tspan></text>
  <g
     id="g131561">
    <text
       xml:space="preserve"
       style="font-size:85.3333px;line-height:1.25;font-family:sans-serif"
       x="2923.9182"
       y="4020.3303"
       id="text93204"><tspan
         sodipodi:role="line"
         id="tspan93202"
         x="2923.9182"
         y="4020.3303">curve: bold_Ag(100)_50uM_NaBr</tspan></text>
    <path
       style="fill:none;stroke:#000000;stroke-width:0.998173px;stroke-linecap:butt;stroke-linejoin:miter;stroke-opacity:1"
       d="m 2953.4937,5412.7278 c 0,0 2.2538,-52.5471 4.374,-78.7529 2.7788,-34.3464 6.8362,-68.5819 10.9349,-102.7959 2.6258,-21.9184 6.0317,-43.7376 8.748,-65.6449 5.5085,-44.4275 10.4389,-88.9257 15.309,-133.4277 3.8282,-34.9817 3.7792,-70.5485 10.935,-105.0038 5.9091,-28.4521 17.9512,-55.2829 26.2439,-83.1338 5.4009,-18.1389 9.3012,-36.7278 15.3089,-54.6749 5.7147,-17.0717 10.5179,-34.7987 19.683,-50.2939 8.7056,-14.7183 20.7142,-27.3577 32.861,-39.3939 7.3619,-7.2949 15.17,-14.3647 24.057,-19.6971 8.1264,-4.876 17.4695,-7.3542 26.244,-10.935 10.9026,-4.4493 21.8038,-8.9078 32.8048,-13.1079 15.946,-6.088 32.1381,-11.5147 48.1139,-17.524 13.1747,-4.9557 25.9972,-10.8756 39.366,-15.2809 15.8075,-5.2089 33.7752,-4.7883 48.17,-13.143 17.8331,-10.3503 29.3594,-28.9631 43.7398,-43.7399 13.3091,-13.676 25.9443,-25.0906 40.9153,-36.9242 12.5587,-9.9268 25.1658,-22.7117 40.0035,-28.7207 11.1422,-4.5124 23.1668,-6.5647 34.992,-8.727 12.2752,-2.2445 24.8379,-2.532 37.1789,-4.3809 8.0609,-1.2077 15.9998,-3.148 24.0569,-4.381 5.8092,-0.889 11.8509,-0.5392 17.496,-2.173 13.1768,-3.8136 23.8479,-14.5313 37.235,-17.5241 7.8258,-1.7495 16.044,-0.3107 24.057,0 9.4984,0.3683 19.3748,-0.6801 28.4309,2.2081 8.0973,2.5824 14.3289,9.1878 21.87,13.1079 6.3722,3.3124 12.6581,7.2691 19.6829,8.7621 5.7046,1.2124 11.9339,1.7539 17.4959,0 8.4879,-2.6766 14.5801,-10.2107 21.8701,-15.3161 7.29,-5.1053 15.4221,-9.1812 21.8699,-15.3159 6.0244,-5.7319 9.8052,-13.4635 15.309,-19.697 4.092,-4.6345 8.7491,-8.7375 13.1219,-13.108 3.646,-3.644 6.2898,-8.7002 10.935,-10.9349 5.9662,-2.8702 13.3321,-3.8769 19.7391,-2.2081 12.1438,3.163 21.6813,13.0951 30.6178,21.905 12.2482,12.0748 21.9735,26.6628 30.6181,41.5319 7.2216,12.4215 10.7268,26.7203 17.4959,39.394 7.7198,14.4537 14.6307,30.0066 26.2439,41.5669 9.7482,9.7039 22.4458,16.2322 34.992,21.87 11.7829,5.2948 24.6829,7.6602 37.1788,10.935 9.4078,2.4655 18.7678,5.4545 28.431,6.5539 3.6216,0.412 10.9349,0 10.9349,0 0,0 -0.6119,16.7042 0,45.948 0.3458,16.5268 2.1871,26.2508 2.1871,26.2508 0,0 -9.8482,10.9639 -16.8582,16.4452 -7.9988,6.2545 -19.0866,8.5079 -28.431,12.4805 -11.1061,4.7216 -20.8598,13.0663 -31.2557,19.1952 -8.5404,5.035 -15.6551,12.2261 -24.0569,17.4891 -10.5063,6.5813 -21.7928,11.8296 -32.805,17.5239 -10.1367,5.2416 -22.0617,7.7651 -30.6179,15.3161 -5.9079,5.2138 -8.8119,13.0657 -13.1219,19.6619 -11.841,18.1222 -24.951,35.5317 -34.9919,54.7099 -8.7968,16.802 -13.6531,35.436 -21.9262,52.5019 -6.5472,13.5057 -14.5582,26.2514 -21.8699,39.3589 -10.1757,18.2419 -23.4974,35.038 -30.6179,54.6749 -4.0478,11.1629 -6.561,35.0128 -6.561,35.0128 0,0 -14.2909,-6.7117 -17.496,-17.4888 -6.7691,-22.7611 -13.0068,-41.4745 -21.8699,-61.2639 -7.4681,-16.6747 -14.6468,-34.0027 -26.2439,-48.1209 -7.228,-8.7993 -16.2973,-16.326 -26.244,-21.87 -12.0838,-6.7351 -25.6638,-11.2371 -39.3659,-13.143 -15.9202,-2.2145 -32.1938,0.4412 -48.1699,2.2081 -12.5078,1.3833 -24.7922,4.3342 -37.179,6.5538 -16.0462,2.8754 -32.253,4.9966 -48.1139,8.7621 -12.5685,2.9839 -24.2612,10.9965 -37.1789,10.935 -17.5268,-0.083 -34.2841,-8.1988 -50.301,-15.316 -11.6557,-5.1793 -21.9266,-13.0378 -32.8048,-19.6969 -11.7448,-7.1896 -23.6305,-14.1715 -35.0481,-21.87 -8.22,-5.5425 -16.0838,-11.5967 -24.0568,-17.4889 -5.8661,-4.3352 -10.6309,-10.6782 -17.496,-13.143 -15.1099,-5.425 -32.0637,-1.8107 -48.1139,-2.173 -14.5763,-0.329 -29.16,0 -43.74,0 -13.1219,0 -26.2469,-0.2832 -39.3658,0 -16.7787,0.3623 -34.9356,-4.577 -50.3009,2.173 -10.3995,4.5685 -15.3256,16.8806 -24.1131,24.0779 -8.1328,6.6611 -18.7444,10.1222 -26.2439,17.489 -8.2215,8.0761 -14.4813,18.14 -19.683,28.4239 -11.14,22.0239 -17.3201,46.2821 -24.0569,70.0259 -6.3257,22.2948 -10.6835,45.1094 -15.309,67.8179 -4.8799,23.9571 -9.64,47.964 -13.122,72.1638 -4.9092,34.1188 -7.4519,68.537 -10.9349,102.8308 -2.2937,22.5837 -4.3387,45.192 -6.561,67.7829 -2.1528,21.8851 -4.4724,43.7537 -6.561,65.645 -2.2952,24.0562 -4.606,48.1125 -6.561,72.1987 -0.8272,10.1915 -2.187,30.5969 -2.187,30.5969 z"
       id="path131476"
       sodipodi:nodetypes="cssssssssssssssssssssssssssssssssssssssssscscssssssssssscsssssssssssssssssssssssssssscc" />
  </g>
  <text
     xml:space="preserve"
     style="font-size:85.33329773px;line-height:1.25;font-family:sans-serif"
     x="3197.8594"
     y="5543.8379"
     id="text103539-9"><tspan
       sodipodi:role="line"
       id="tspan103537-2"
       x="3197.8594"
       y="5543.8379">linked: XAFS</tspan></text>
</svg>
