<?xml version="1.0" encoding="UTF-8" standalone="no"?>
<svg
   height="5410px"
   version="1.1"
   width="3615px"
   id="svg59384"
   sodipodi:docname="ocko_1997_halide_55_f6a_solid.svg"
   inkscape:version="1.1.2 (b8e25be833, 2022-02-05)"
   xmlns:inkscape="http://www.inkscape.org/namespaces/inkscape"
   xmlns:sodipodi="http://sodipodi.sourceforge.net/DTD/sodipodi-0.dtd"
   xmlns:xlink="http://www.w3.org/1999/xlink"
   xmlns="http://www.w3.org/2000/svg"
   xmlns:svg="http://www.w3.org/2000/svg"
   xmlns:rdf="http://www.w3.org/1999/02/22-rdf-syntax-ns#"
   xmlns:cc="http://creativecommons.org/ns#"
   xmlns:dc="http://purl.org/dc/elements/1.1/">
  <metadata
     id="metadata28">
    <rdf:RDF>
      <cc:Work
         rdf:about="">
        <dc:format>image/svg+xml</dc:format>
        <dc:type
           rdf:resource="http://purl.org/dc/dcmitype/StillImage" />
      </cc:Work>
    </rdf:RDF>
  </metadata>
  <sodipodi:namedview
     id="namedview59386"
     pagecolor="#ffffff"
     bordercolor="#666666"
     borderopacity="1.0"
     inkscape:pageshadow="2"
     inkscape:pageopacity="0.0"
     inkscape:pagecheckerboard="0"
     showgrid="false"
     inkscape:zoom="0.1968397"
     inkscape:cx="894.12858"
     inkscape:cy="1442.7984"
     inkscape:window-width="1920"
     inkscape:window-height="1017"
     inkscape:window-x="-8"
     inkscape:window-y="32"
     inkscape:window-maximized="1"
     inkscape:current-layer="svg59384" />
  <defs
     id="defs59380" />
  <image
     xlink:href="Ocko_1997_Halide_55_p6.png"
     id="image59382"
     y="0"
     x="0"
     width="3615px"
     sodipodi:insensitive="true"
     height="5410px" />
  <g
     id="g69298">
    <path
       style="fill:none;stroke:#000000;stroke-width:1px;stroke-linecap:butt;stroke-linejoin:miter;stroke-opacity:1"
       d="m 1485.7991,1248.7295 -289.1509,152.6618"
       id="path59421" />
    <text
       xml:space="preserve"
       style="font-size:85.3333px;line-height:1.25;font-family:sans-serif"
       x="323.6701"
       y="1496.6123"
       id="text61103"><tspan
         sodipodi:role="line"
         id="tspan61101"
         x="323.6701"
         y="1496.6123">E1: -1.2 V vs Ag/AgCl</tspan></text>
  </g>
  <g
     id="g69293">
    <path
       style="fill:none;stroke:#000000;stroke-width:1px;stroke-linecap:butt;stroke-linejoin:miter;stroke-opacity:1"
       d="m 2259.9226,1243.3482 256.8286,177.8129"
       id="path59423" />
    <text
       xml:space="preserve"
       style="font-size:85.3333px;line-height:1.25;font-family:sans-serif"
       x="2516.7512"
       y="1421.1611"
       id="text62559"><tspan
         sodipodi:role="line"
         id="tspan62557"
         x="2516.7512"
         y="1421.1611">E2: -0.4 V vs Ag/AgCl</tspan></text>
  </g>
  <g
     id="g69288">
    <path
       style="fill:none;stroke:#000000;stroke-width:1px;stroke-linecap:butt;stroke-linejoin:miter;stroke-opacity:1"
       d="m 1439.1114,729.64185 -269.3985,-43.1079"
       id="path59425" />
    <text
       xml:space="preserve"
       style="font-size:85.3333px;line-height:1.25;font-family:sans-serif"
       x="568.41498"
       y="708.48987"
       id="text66229"><tspan
         sodipodi:role="line"
         id="tspan66227"
         x="568.41498"
         y="708.48987">j2: 15 uA / cm2</tspan></text>
  </g>
  <g
     id="g69303">
    <path
       style="fill:none;stroke:#000000;stroke-width:1px;stroke-linecap:butt;stroke-linejoin:miter;stroke-opacity:1"
       d="m 1437.3157,1210.9942 -382.5725,16.1727"
       id="path59427" />
    <text
       xml:space="preserve"
       style="font-size:85.3333px;line-height:1.25;font-family:sans-serif"
       x="406.80347"
       y="1243.7416"
       id="text68279"><tspan
         sodipodi:role="line"
         id="tspan68277"
         x="406.80347"
         y="1243.7416">j1: -15 uA / cm2</tspan></text>
  </g>
  <text
     xml:space="preserve"
     style="font-size:85.3333px;line-height:1.25;font-family:sans-serif"
     x="2378.8318"
     y="1168.2882"
     id="text73739"><tspan
       sodipodi:role="line"
       id="tspan73737"
       x="2378.8318"
       y="1168.2882">scan rate: 10 mV / s</tspan></text>
  <g
     id="g846">
    <text
       xml:space="preserve"
       style="font-size:85.3333px;line-height:1.25;font-family:sans-serif"
       x="1444.8925"
       y="575.59784"
       id="text75987"><tspan
         sodipodi:role="line"
         id="tspan75985"
         x="1444.8925"
         y="575.59784">curve: solid</tspan></text>
    <path
       inkscape:connector-curvature="0"
       style="fill:none;stroke:#000000;stroke-width:1px;stroke-linecap:butt;stroke-linejoin:miter;stroke-opacity:1"
       d="m 1443.4042,939.59526 c 0,0 16.7899,-5.34526 25.1626,-8.08634 10.7935,-3.5336 21.6058,-7.01644 32.3223,-10.77697 5.7184,-2.00665 11.3402,-4.28225 17.059,-6.28776 5.3579,-1.87894 11.1665,-2.68106 16.1611,-5.38129 8.0599,-4.35736 14.4851,-11.22858 21.5482,-17.06476 8.8404,-7.3048 16.8982,-15.56362 26.0605,-22.46041 7.4282,-5.59149 15.0344,-11.09525 23.3438,-15.26619 8.5461,-4.28974 17.7043,-7.37543 26.9353,-9.87049 8.2175,-2.22112 16.6603,-3.73809 25.1395,-4.48922 8.951,-0.79293 17.9734,-0.14395 26.9583,0 9.2813,0.1487 18.5602,0.4704 27.8331,0.8921 10.1827,0.46307 20.3472,1.26911 30.5266,1.79856 6.5896,0.34274 13.2035,0.30097 19.7755,0.89207 11.1291,1.00097 22.0713,3.73933 33.2201,4.48922 8.0624,0.54229 16.195,0.73879 24.2418,0 8.1835,-0.75135 16.3821,-2.08881 24.2417,-4.48922 7.1853,-2.19449 14.409,-4.83085 20.6734,-8.97841 6.885,-4.55849 12.5008,-10.86666 17.9568,-17.06473 3.6783,-4.17862 7.5107,-8.42825 9.8762,-13.46763 2.6216,-5.58515 3.189,-11.92557 4.4893,-17.95683 0.7058,-3.27367 0,-7.05666 1.7957,-9.88488 1.3787,-2.17422 3.7982,-5.15633 6.2848,-4.48922 3.4952,0.93774 3.1671,6.51624 4.4893,9.8849 1.7289,4.40487 2.6331,9.11475 4.4891,13.46761 2.521,5.91251 5.5918,11.60184 8.9785,17.06476 3.5009,5.64717 7.2173,11.22839 11.6719,16.15827 7.2492,8.02269 16.2985,14.21772 24.2417,21.55395 7.6243,7.04167 15.0553,14.29098 22.4691,21.55394 4.2337,4.14759 8.202,8.56931 12.5697,12.57554 7.2024,6.60627 14.312,13.44538 22.4461,18.86329 8.6887,5.78734 18.5598,9.56457 27.8331,14.35971 8.0921,4.18437 15.7026,9.4639 24.2647,12.57553 7.7804,2.82757 16.0642,4.10792 24.2417,5.39568 9.5018,1.4963 19.1226,2.24173 28.731,2.69066 8.9686,0.41904 17.966,-0.40703 26.9352,0 6.6122,0.30007 13.1633,1.49849 19.7755,1.79856 7.7733,0.35276 15.5645,-0.16796 23.344,0 6.8882,0.14871 13.7621,0.74337 20.6503,0.89208 6.5826,0.14212 13.1736,-0.26316 19.7525,0 7.5,0.3 14.9691,1.13795 22.446,1.79856 9.2924,0.82102 18.5306,2.45206 27.8561,2.69066 6.5887,0.16857 13.1633,-0.74338 19.7525,-0.8921 2.3936,-0.054 7.1229,-2.39349 7.1827,0 l 0.8979,35.91365 c 0,0 -12.5529,1.41479 -18.8546,1.79856 -11.3633,0.69202 -22.7577,0.75538 -34.1411,0.90647 -13.4664,0.17874 -26.9508,-0.6487 -40.4028,0 -9.3101,0.44896 -18.5601,1.74623 -27.8331,2.69066 -8.3844,0.85392 -16.7567,1.82278 -25.1396,2.69066 -5.9912,0.62026 -11.9641,1.49843 -17.9798,1.79856 -11.6574,0.58161 -23.3838,-0.96422 -35.0158,0 -7.2572,0.60158 -14.4126,2.14382 -21.5482,3.59712 -8.7479,1.78166 -17.4695,3.7651 -26.0374,6.27336 -7.9102,2.3157 -15.7707,4.8879 -23.367,8.0863 -9.8695,4.1556 -19.9106,8.3014 -28.7309,14.3741 -8.0262,5.5259 -14.2657,13.2808 -21.5482,19.7554 -8.5638,7.6138 -17.1352,15.2308 -26.0373,22.4461 -6.1443,4.9801 -12.9963,9.0861 -18.8777,14.3741 -5.5096,4.9537 -10.4899,10.4917 -15.2634,16.1582 -7.7157,9.1591 -15.3613,18.4943 -21.5482,28.7482 -3.2492,5.3851 -6.7801,9.1635 -8.7154,15.1478 -2.5304,7.8246 -3.8543,26.1616 -3.8543,26.1616 0,0 -6.0534,-12.5018 -7.5547,-14.392 -5.8298,-7.3403 0,0 -6.8108,-16.1404 -4.2934,-10.1746 -9.7338,-20.4703 -17.9568,-27.8418 -7.4812,-6.7065 -17.7481,-9.4671 -26.9583,-13.4819 -7.0312,-3.065 -13.9817,-6.8152 -21.5482,-8.072 -10.0423,-1.6681 -20.4742,-0.7142 -30.5266,0.8921 -8.3292,1.3309 -16.0336,5.3368 -24.2647,7.1799 -7.6829,1.7204 -15.6644,1.8615 -23.3439,3.5971 -9.1437,2.0665 -17.8554,5.7556 -26.9353,8.0863 -8.3006,2.1307 -16.6747,4.0449 -25.1395,5.3813 -11.5973,1.831 -23.3247,4.3916 -35.0388,3.5971 -10.1388,-0.6877 -19.9587,-4.056 -29.6288,-7.1799 -8.304,-2.6826 -16.4457,-5.9637 -24.2417,-9.8848 -10.317,-5.1891 -20.0187,-11.5526 -29.6288,-17.9568 -8.026,-5.3485 -15.5973,-11.3502 -23.3669,-17.0648 -8.1008,-5.9582 -15.9876,-12.2128 -24.2417,-17.9568 -6.7475,-4.6956 -13.2479,-9.907 -20.6504,-13.482 -10.2256,-4.9384 -21.27,-8.1548 -32.3222,-10.7626 -8.2464,-1.9457 -25.1626,-3.5971 -25.1626,-3.5971 z"
       id="path76366"
       sodipodi:nodetypes="cssssssssssssssssssssssssssssssssssssssssssscssssssssssssssssscsssssssssssssssssscc" />
  </g>
  <text
     xml:space="preserve"
     style="font-size:80px;line-height:1.25;font-family:sans-serif;-inkscape-font-specification:sans-serif;letter-spacing:0px;word-spacing:0px"
     x="-660.43585"
     y="381.02069"
     id="text4088"><tspan
       sodipodi:role="line"
       id="tspan4086"
       x="-660.43585"
       y="381.02069">Figure: 1a</tspan></text>
  <text
     xml:space="preserve"
     style="font-size:80px;line-height:1.25;font-family:sans-serif;-inkscape-font-specification:sans-serif;letter-spacing:0px;word-spacing:0px"
     x="-645.19507"
     y="553.75006"
     id="text5082"><tspan
       sodipodi:role="line"
       id="tspan5080"
       x="-645.19507"
       y="553.75006">Tags: BCV</tspan></text>
</svg>
