<?xml version="1.0" encoding="UTF-8" standalone="no"?>
<svg
   height="6526px"
   version="1.1"
   width="4875px"
   id="svg106"
   sodipodi:docname="briega_martos_2018_understanding_j3045_p1_f1b_green.svg"
   inkscape:version="1.1.2 (b8e25be833, 2022-02-05)"
   xmlns:inkscape="http://www.inkscape.org/namespaces/inkscape"
   xmlns:sodipodi="http://sodipodi.sourceforge.net/DTD/sodipodi-0.dtd"
   xmlns:xlink="http://www.w3.org/1999/xlink"
   xmlns="http://www.w3.org/2000/svg"
   xmlns:svg="http://www.w3.org/2000/svg">
  <sodipodi:namedview
     id="namedview108"
     pagecolor="#ffffff"
     bordercolor="#666666"
     borderopacity="1.0"
     inkscape:pageshadow="2"
     inkscape:pageopacity="0.0"
     inkscape:pagecheckerboard="0"
     showgrid="false"
     inkscape:zoom="0.39656758"
     inkscape:cx="115.99536"
     inkscape:cy="3827.8469"
     inkscape:window-width="1920"
     inkscape:window-height="1017"
     inkscape:window-x="-8"
     inkscape:window-y="32"
     inkscape:window-maximized="1"
     inkscape:current-layer="svg106" />
  <defs
     id="defs102" />
  <image
     height="6526px"
     sodipodi:insensitive="true"
     width="4875px"
     x="0"
     xlink:href="briega_martos_2018_understanding_j3045_p1.png"
     y="0"
     id="image104" />
  <g
     id="g12819"
     transform="translate(1213.2244,4.237986)">
    <path
       style="fill:none;stroke:#000000;stroke-width:1px;stroke-linecap:butt;stroke-linejoin:miter;stroke-opacity:1"
       d="m 1232.4786,3532.6633 -162.2497,-49.9122"
       id="path223" />
    <text
       xml:space="preserve"
       style="font-size:85.3333px;line-height:1.25;font-family:sans-serif"
       x="591.50183"
       y="3450.0566"
       id="text2367"><tspan
         sodipodi:role="line"
         id="tspan2365"
         x="591.50183"
         y="3450.0566">j2: 400 uA / cm2</tspan></text>
  </g>
  <g
     id="g12814"
     transform="translate(1213.2244,4.237986)">
    <path
       style="fill:none;stroke:#000000;stroke-width:1px;stroke-linecap:butt;stroke-linejoin:miter;stroke-opacity:1"
       d="m 1232.4786,4049.7405 -221.0692,37.4538"
       id="path225" />
    <text
       xml:space="preserve"
       style="font-size:85.3333px;line-height:1.25;font-family:sans-serif"
       x="471.95712"
       y="4179.2319"
       id="text6877"><tspan
         sodipodi:role="line"
         id="tspan6875"
         x="471.95712"
         y="4179.2319">j1: -400 uA / cm2</tspan></text>
  </g>
  <g
     id="g12824"
     transform="translate(1213.2244,4.237986)">
    <path
       style="fill:none;stroke:#000000;stroke-width:1px;stroke-linecap:butt;stroke-linejoin:miter;stroke-opacity:1"
       d="m 1353.7671,4081.8288 -1.8806,92.7316"
       id="path227" />
    <text
       xml:space="preserve"
       style="font-size:85.3333px;line-height:1.25;font-family:sans-serif"
       x="1328.7976"
       y="4229.812"
       id="text8987"><tspan
         sodipodi:role="line"
         id="tspan8985"
         x="1328.7976"
         y="4229.812">E1: 0.1 V vs RHE</tspan></text>
  </g>
  <g
     id="g12829"
     transform="translate(1213.2244,4.237986)">
    <path
       style="fill:none;stroke:#000000;stroke-width:1px;stroke-linecap:butt;stroke-linejoin:miter;stroke-opacity:1"
       d="m 2321.9372,4081.8288 -94.55,133.7187"
       id="path229" />
    <text
       xml:space="preserve"
       style="font-size:85.3333px;line-height:1.25;font-family:sans-serif"
       x="2227.3872"
       y="4256.561"
       id="text11553"><tspan
         sodipodi:role="line"
         id="tspan11551"
         x="2227.3872"
         y="4256.561">E2: 0.9 V vs RHE</tspan></text>
  </g>
  <text
     xml:space="preserve"
     style="font-size:85.3333px;line-height:1.25;font-family:sans-serif"
     x="2778.9761"
     y="4051.6394"
     id="text25387"><tspan
       sodipodi:role="line"
       id="tspan25385"
       x="2778.9761"
       y="4051.6394">scan rate: 50 mV / s</tspan></text>
  <g
     id="g54076">
    <text
       xml:space="preserve"
       style="font-size:85.3333px;line-height:1.25;font-family:sans-serif"
       x="2517.8291"
       y="3221.7373"
       id="text15141"><tspan
         sodipodi:role="line"
         x="2517.8291"
         y="3221.7373"
         id="tspan51906">curve: green</tspan></text>
    <path
       style="fill:none;stroke:#000000;stroke-width:1px;stroke-linecap:butt;stroke-linejoin:miter;stroke-opacity:1"
       d="m 2511.6628,3822.3161 0.6279,-25.8453 1.2928,-11.9835 4.3956,-8.1894 11.3398,-6.3017 15.7723,-6.311 12.5957,-5.0432 8.2002,-2.517 h 13.2236 l 10.1208,-3.1555 8.7912,-9.4572 6.9442,-12.6034 7.5722,-24.5868 4.3955,-21.4314 2.5487,-15.7589 3.1397,-23.3284 3.1397,-16.3881 3.1767,-10.7157 4.3955,-1.8877 2.5118,3.1462 3.1766,12.6127 3.1397,23.9483 3.1397,22.6991 3.1766,22.0606 5.6514,28.3716 3.8046,11.345 3.7676,7.5602 5.6884,4.4139 2.5117,-3.1462 1.2559,-9.4572 1.2559,-11.3449 2.5487,0.6292 0.6279,13.2327 3.7676,17.6559 5.0605,11.3449 11.3398,9.4572 18.912,6.3017 15.7353,1.2585 h 23.3446 l 777.9316,-1.8877 v 5.6724 l -717.4,0.6293 -46.0241,0.6292 h -34.0195 l -19.5768,1.2678 -14.1283,2.8264 -9.7945,4.4559 -9.3505,8.4671 -6.2424,13.3745 -1.8022,14.2643 -1.332,13.8195 -1.7761,11.1432 -1.3321,2.6697 -2.6902,-3.1146 -0.444,-15.6058 -0.8881,-12.0331 -1.332,-6.6873 -4.9104,6.6873 -7.1304,17.8305 -4.9103,23.1763 -6.2424,29.4186 -3.9961,33.8812 -4.9104,22.7314 -3.1081,7.5771 -4.9103,-10.6982 -4.0223,-19.1653 -4.4402,-39.2271 -4.4663,-24.5177 -7.5745,-22.7314 -8.0184,-13.8194 -10.2647,-7.5772 -12.4848,-2.2312 -10.2385,-0.445 -14.2608,-4.011 -12.0408,-5.3459 -12.0407,-0.4449 -7.5745,1.7798 z"
       id="path52442" />
  </g>
  <text
     xml:space="preserve"
     style="font-size:80px;line-height:1.25;font-family:sans-serif;-inkscape-font-specification:sans-serif;letter-spacing:0px;word-spacing:0px"
     x="-731.27509"
     y="3252.9133"
     id="text2927"><tspan
       sodipodi:role="line"
       id="tspan2925"
       x="-731.27509"
       y="3252.9133">Figure: 1b</tspan></text>
  <text
     xml:space="preserve"
     style="font-size:80px;line-height:1.25;font-family:sans-serif;-inkscape-font-specification:sans-serif;letter-spacing:0px;word-spacing:0px"
     x="-728.75348"
     y="3394.1252"
     id="text3591"><tspan
       sodipodi:role="line"
       id="tspan3589"
       x="-728.75348"
       y="3394.1252">Tags: BCV</tspan></text>
</svg>
