<?xml version="1.0" encoding="UTF-8" standalone="no"?>
<svg
   xmlns:dc="http://purl.org/dc/elements/1.1/"
   xmlns:cc="http://creativecommons.org/ns#"
   xmlns:rdf="http://www.w3.org/1999/02/22-rdf-syntax-ns#"
   xmlns:svg="http://www.w3.org/2000/svg"
   xmlns="http://www.w3.org/2000/svg"
   xmlns:xlink="http://www.w3.org/1999/xlink"
   xmlns:sodipodi="http://sodipodi.sourceforge.net/DTD/sodipodi-0.dtd"
   xmlns:inkscape="http://www.inkscape.org/namespaces/inkscape"
   height="6820px"
   version="1.2"
   width="5212px"
   id="svg6"
   sodipodi:docname="briega-martos_2021_cation_XXX_p2_Fig1_Na_prototype.svg"
   inkscape:version="0.92.5 (2060ec1f9f, 2020-04-08)">
  <metadata
     id="metadata10">
    <rdf:RDF>
      <cc:Work
         rdf:about="">
        <dc:format>image/svg+xml</dc:format>
        <dc:type
           rdf:resource="http://purl.org/dc/dcmitype/StillImage" />
        <dc:title></dc:title>
      </cc:Work>
    </rdf:RDF>
  </metadata>
  <sodipodi:namedview
     pagecolor="#ffffff"
     bordercolor="#666666"
     borderopacity="1"
     objecttolerance="10"
     gridtolerance="10"
     guidetolerance="10"
     inkscape:pageopacity="0"
     inkscape:pageshadow="2"
     inkscape:window-width="2488"
     inkscape:window-height="1295"
     id="namedview8"
     showgrid="false"
     inkscape:zoom="3.132006"
     inkscape:cx="3263.2347"
     inkscape:cy="5033.2307"
     inkscape:window-x="72"
     inkscape:window-y="27"
     inkscape:window-maximized="1"
     inkscape:current-layer="svg6" />
  <defs
     id="defs2" />
  <image
     sodipodi:absref="/home/hoermann/Downloads/EchemDB_Digitizer/Test21Sept_data/briega-martos_2021_cation_XXX/briega-martos_2021_cation_XXX_p2.png"
     xlink:href="briega-martos_2021_cation_XXX_p2.png"
     height="6820px"
     width="5212px"
     x="0"
     y="0"
     id="image4" />
  <g
     transform="matrix(36.66719,0,0,36.66719,434.6318,-3134.528)"
     id="g1567">
    <path
       style="fill:none;stroke:#000000;stroke-width:0.26458299px;stroke-linecap:butt;stroke-linejoin:miter;stroke-opacity:1"
       d="m 59.374912,123.0703 8.311503,2.9895"
       id="path877"
       inkscape:connector-curvature="0"
       sodipodi:nodetypes="cc" />
    <text
       xml:space="preserve"
       style="font-size:3.17499995px;line-height:1.25;font-family:sans-serif;stroke-width:0.26458299"
       x="34.305443"
       y="123.96095"
       id="text10650"><tspan
         sodipodi:role="line"
         id="tspan10648"
         style="stroke-width:0.26458299"
         x="34.305443"
         y="123.96095">y2: 100 uA cm-2</tspan></text>
  </g>
  <g
     transform="matrix(36.66719,0,0,36.66719,-120.7787,-3419.3921)"
     id="g1562">
    <path
       style="fill:none;stroke:#000000;stroke-width:0.26458299px;stroke-linecap:butt;stroke-linejoin:miter;stroke-opacity:1"
       d="m 82.830732,153.0048 -22.475853,1.1285"
       id="path881"
       inkscape:connector-curvature="0"
       sodipodi:nodetypes="cc" />
    <text
       xml:space="preserve"
       style="font-size:3.17499995px;line-height:1.25;font-family:sans-serif;stroke-width:0.26458299"
       x="47.220585"
       y="155.5658"
       id="text2906"><tspan
         sodipodi:role="line"
         id="tspan2904"
         style="stroke-width:0.26458299"
         x="47.220585"
         y="155.5658">y1: -100  uA cm-2</tspan></text>
  </g>
  <g
     id="g1572"
     transform="matrix(36.66719,0,0,36.66719,2462.3932,-627.68871)">
    <path
       style="fill:none;stroke:#000000;stroke-width:0.26458299px;stroke-linecap:butt;stroke-linejoin:miter;stroke-opacity:1"
       d="m 15.980619,76.878976 2.268442,3.989503"
       id="path879"
       inkscape:connector-curvature="0"
       sodipodi:nodetypes="cc" />
    <text
       xml:space="preserve"
       style="font-size:3.17499995px;line-height:1.25;font-family:sans-serif;stroke-width:0.26458299"
       x="6.8084121"
       y="83.573616"
       id="text15406"><tspan
         sodipodi:role="line"
         id="tspan15404"
         style="stroke-width:0.26458299"
         x="6.8084121"
         y="83.573616">x1: -0.2 V vs SHE</tspan></text>
  </g>
  <g
     id="g1577"
     transform="matrix(36.66719,0,0,36.66719,2456.5111,-628.96911)">
    <path
       style="fill:none;stroke:#000000;stroke-width:0.26458299px;stroke-linecap:butt;stroke-linejoin:miter;stroke-opacity:1"
       d="m 55.770043,76.904979 4.116431,3.956645"
       id="path883"
       inkscape:connector-curvature="0"
       sodipodi:nodetypes="cc" />
    <text
       xml:space="preserve"
       style="font-size:3.17499995px;line-height:1.25;font-family:sans-serif;stroke-width:0.26458299"
       x="61.111824"
       y="81.725914"
       id="text18116"><tspan
         sodipodi:role="line"
         id="tspan18114"
         style="stroke-width:0.26458299"
         x="61.111824"
         y="81.725914">x2: 0.9 V vs SHE</tspan></text>
  </g>
  <text
     xml:space="preserve"
     style="font-style:normal;font-variant:normal;font-weight:normal;font-stretch:normal;font-size:258.70736694px;line-height:1.25;font-family:sans-serif;-inkscape-font-specification:sans-serif;letter-spacing:0px;word-spacing:0px;fill:#000000;fill-opacity:1;stroke:none;stroke-width:9.70152664"
     x="4942.9067"
     y="1137.9409"
     id="text839"><tspan
       sodipodi:role="line"
       id="tspan837"
       x="4942.9067"
       y="1137.9409"
       style="stroke-width:9.70152664">rate: 50 mV/s</tspan></text>
  <g
     transform="translate(4.6379309e-6,-702.73961)"
     id="g936">
    <path
       sodipodi:nodetypes="szzszszzzzzzzzzzczzzzzzzzzzcczcszzzzzzczzzzzzzzzzczzzzzs"
       inkscape:connector-curvature="0"
       id="path913"
       d="m 3209.093,2670.2111 c 0,0 2.1576,-191.0347 2.6944,-200.2895 0.5369,-9.2548 9.8811,-25.4344 20.2994,-31.155 10.4182,-5.7206 21.0861,-5.1351 37.5174,-6.2377 21.1463,-1.4191 67.562,-5.8106 85.1954,-5.5228 17.6334,0.2878 52.1578,0.8808 61.2576,1.2366 24.0587,0.9406 50.8617,7.7024 63.4997,12.0052 12.6381,4.3028 25.6524,7.1886 39.808,14.3694 14.1555,7.1807 26.4413,17.7943 36.4813,25.1056 10.0401,7.3114 18.8499,13.385 27.4337,19.0981 8.5838,5.7131 17.0862,9.3919 25.7649,13.8927 8.6787,4.5008 21.3568,6.7764 32.0852,9.6793 10.7284,2.9029 29.1887,2.3183 41.1463,1.9755 11.9575,-0.3427 21.7725,-3.1324 39.0578,-4.5718 17.2853,-1.4394 60.0349,-3.7207 83.5645,-1.7707 23.5296,1.95 32.1514,1.7132 47.0103,1.4465 14.8589,-0.2668 20.2257,-1.2957 40.9711,-3.9928 8.1993,-1.0899 24.7042,-5.8285 33.4514,-9.9063 8.7472,-4.0778 22.909,-13.3703 32.6611,-18.2872 9.7522,-4.9169 15.4244,-10.3943 25.8778,-15.7198 10.4534,-5.3255 14.9974,-7.526 35.9907,-18.5356 20.9933,-11.0095 39.284,-12.5398 57.5507,-13.7138 18.2666,-1.1741 25.1992,0.5669 41.7794,-3.0832 16.5801,-3.6501 31.0123,-19.4557 37.7088,-36.7648 6.6966,-17.3091 7.65,-26.1126 10.6242,-45.0473 2.9742,-18.9348 4.2446,-31.46 5.4184,-46.6211 1.1738,-15.1611 3.2211,-48.7227 5.1926,-49.0139 1.9715,-0.2912 6.5099,58.1518 7.5068,86.83 0.4698,8.7444 3.2855,76.4089 10.6111,109.2718 3.4807,16.7382 12.4997,53.4998 42.8483,63.0634 30.3485,9.5635 50.1475,6.7833 74.2295,6.5382 7.2389,0.2683 8.8444,1.2895 8.8444,1.2895 -0.016,1.3898 -0.2358,17.0938 -1.7126,19.579 -1.4769,2.4851 -28.8034,4.2966 -40.393,6.3279 -11.5896,2.0313 -24.2157,3.5242 -35.2764,6.9987 -11.0607,3.4745 -19.6756,7.9392 -26.2455,12.4173 -6.5699,4.4781 -10.0196,8.1422 -19.4161,24.5522 -9.3964,16.4101 -15.8476,60.7825 -18.492,86.6869 -2.6444,25.9044 -9.354,143.7171 -12.2722,146.9155 -4.6919,0.6633 -6.7513,-77.1803 -10.2692,-105.1403 -3.5179,-27.96 -5.0427,-41.9113 -14.562,-57.0064 -9.5193,-15.0952 -16.8737,-17.5603 -27.7694,-22.1254 -10.8957,-4.5651 -19.1268,-4.4826 -42.7831,-5.5313 -23.6563,-1.0486 -42.7866,-7.6807 -60.3759,-14.2164 -17.5893,-6.5357 -30.8563,-19.2354 -49.2221,-28.4858 -18.3658,-9.2504 -43.2585,-25.0741 -73.397,-31.2401 -30.1385,-6.166 -68.8576,-0.6878 -106.8557,1.3178 -37.998,2.0057 -56.9168,-1.9334 -83.7953,-4.3623 -26.8785,-2.4288 -59.3942,-5.6957 -91.1134,7.6321 -31.7193,13.3279 -64.8862,38.4878 -75.2121,44.3393 -20.5072,12.2929 -27.7636,23.0328 -61.2739,29.4519 -33.5104,6.419 -47.9923,8.4289 -64.0326,9.8917 -16.0403,1.4628 -41.3348,4.4421 -61.4258,4.154 -20.091,-0.2881 -20.6264,0.7097 -40.6903,-0.9016 -20.0639,-1.6113 -46.6593,-7.7229 -62.2132,-4.784 -15.5539,2.9389 -35.3118,19.3491 -35.2834,17.9608 z"
       style="fill:none;stroke:#000000;stroke-width:1px;stroke-linecap:butt;stroke-linejoin:miter;stroke-opacity:1" />
    <text
       id="text10650-7-3"
       y="2256.2637"
       x="4132.7466"
       style="font-size:116.41832733px;line-height:1.25;font-family:sans-serif;stroke-width:9.7015152"
       xml:space="preserve"><tspan
         y="2256.2637"
         x="4132.7466"
         style="stroke-width:9.7015152"
         id="tspan10648-5-5"
         sodipodi:role="line">curve: Na+pH2.3</tspan></text>
  </g>
</svg>
