<?xml version="1.0" encoding="UTF-8" standalone="no"?>
<svg
   xmlns:dc="http://purl.org/dc/elements/1.1/"
   xmlns:cc="http://creativecommons.org/ns#"
   xmlns:rdf="http://www.w3.org/1999/02/22-rdf-syntax-ns#"
   xmlns:svg="http://www.w3.org/2000/svg"
   xmlns="http://www.w3.org/2000/svg"
   xmlns:xlink="http://www.w3.org/1999/xlink"
   xmlns:sodipodi="http://sodipodi.sourceforge.net/DTD/sodipodi-0.dtd"
   xmlns:inkscape="http://www.inkscape.org/namespaces/inkscape"
   height="6820px"
   version="1.2"
   width="5212px"
   id="svg6"
   sodipodi:docname="briega-martos_2021_cation_XXX_p2_Fig1_Cs_2.9.svg"
   inkscape:version="0.92.5 (2060ec1f9f, 2020-04-08)">
  <metadata
     id="metadata10">
    <rdf:RDF>
      <cc:Work
         rdf:about="">
        <dc:format>image/svg+xml</dc:format>
        <dc:type
           rdf:resource="http://purl.org/dc/dcmitype/StillImage" />
      </cc:Work>
    </rdf:RDF>
  </metadata>
  <sodipodi:namedview
     pagecolor="#ffffff"
     bordercolor="#666666"
     borderopacity="1"
     objecttolerance="10"
     gridtolerance="10"
     guidetolerance="10"
     inkscape:pageopacity="0"
     inkscape:pageshadow="2"
     inkscape:window-width="2488"
     inkscape:window-height="1295"
     id="namedview8"
     showgrid="false"
     inkscape:zoom="0.27683284"
     inkscape:cx="3443.9442"
     inkscape:cy="3545.1117"
     inkscape:window-x="72"
     inkscape:window-y="27"
     inkscape:window-maximized="1"
     inkscape:current-layer="svg6" />
  <defs
     id="defs2" />
  <image
     sodipodi:absref="/home/hoermann/Downloads/EchemDB_Digitizer/Test21Sept_data/briega-martos_2021_cation_XXX/briega-martos_2021_cation_XXX_p2.png"
     xlink:href="briega-martos_2021_cation_XXX_p2.png"
     height="6820px"
     width="5212px"
     x="0"
     y="0"
     id="image4" />
  <g
     transform="matrix(36.66719,0,0,36.66719,434.6318,-2431.7883)"
     id="g1567">
    <path
       style="fill:none;stroke:#000000;stroke-width:0.26458299px;stroke-linecap:butt;stroke-linejoin:miter;stroke-opacity:1"
       d="m 59.374912,123.0703 8.311503,2.9895"
       id="path877"
       inkscape:connector-curvature="0"
       sodipodi:nodetypes="cc" />
    <text
       xml:space="preserve"
       style="font-size:3.17499995px;line-height:1.25;font-family:sans-serif;stroke-width:0.26458299"
       x="34.305443"
       y="123.96095"
       id="text10650"><tspan
         sodipodi:role="line"
         id="tspan10648"
         style="stroke-width:0.26458299"
         x="34.305443"
         y="123.96095">y2: 100 uA cm-2</tspan></text>
  </g>
  <g
     transform="matrix(36.66719,0,0,36.66719,-120.7787,-2716.3137)"
     id="g1562">
    <path
       style="fill:none;stroke:#000000;stroke-width:0.26458299px;stroke-linecap:butt;stroke-linejoin:miter;stroke-opacity:1"
       d="m 82.83182,152.97379 -22.476941,1.15027"
       id="path881"
       inkscape:connector-curvature="0"
       sodipodi:nodetypes="cc" />
    <text
       xml:space="preserve"
       style="font-size:3.17499995px;line-height:1.25;font-family:sans-serif;stroke-width:0.26458299"
       x="47.220585"
       y="155.55656"
       id="text2906"><tspan
         sodipodi:role="line"
         id="tspan2904"
         style="stroke-width:0.26458299"
         x="47.220585"
         y="155.55656">y1: -100  uA cm-2</tspan></text>
  </g>
  <g
     id="g1572"
     transform="matrix(36.66719,0,0,36.66719,2462.3932,76.405505)">
    <path
       style="fill:none;stroke:#000000;stroke-width:0.26458299px;stroke-linecap:butt;stroke-linejoin:miter;stroke-opacity:1"
       d="m 15.980619,76.842033 2.268442,3.989503"
       id="path879"
       inkscape:connector-curvature="0"
       sodipodi:nodetypes="cc" />
    <text
       xml:space="preserve"
       style="font-size:3.17499995px;line-height:1.25;font-family:sans-serif;stroke-width:0.26458299"
       x="6.8084121"
       y="83.536674"
       id="text15406"><tspan
         sodipodi:role="line"
         id="tspan15404"
         style="stroke-width:0.26458299"
         x="6.8084121"
         y="83.536674">x1: -0.2 V vs SHE</tspan></text>
  </g>
  <g
     id="g1577"
     transform="matrix(36.66719,0,0,36.66719,2456.5111,73.770505)">
    <path
       style="fill:none;stroke:#000000;stroke-width:0.26458299px;stroke-linecap:butt;stroke-linejoin:miter;stroke-opacity:1"
       d="m 55.771967,76.886507 4.114507,3.975117"
       id="path883"
       inkscape:connector-curvature="0"
       sodipodi:nodetypes="cc" />
    <text
       xml:space="preserve"
       style="font-size:3.17499995px;line-height:1.25;font-family:sans-serif;stroke-width:0.26458299"
       x="61.111824"
       y="81.725914"
       id="text18116"><tspan
         sodipodi:role="line"
         id="tspan18114"
         style="stroke-width:0.26458299"
         x="61.111824"
         y="81.725914">x2: 0.9 V vs SHE</tspan></text>
  </g>
  <text
     xml:space="preserve"
     style="font-style:normal;font-variant:normal;font-weight:normal;font-stretch:normal;font-size:258.70736694px;line-height:1.25;font-family:sans-serif;-inkscape-font-specification:sans-serif;letter-spacing:0px;word-spacing:0px;fill:#000000;fill-opacity:1;stroke:none;stroke-width:9.70152664"
     x="4942.9067"
     y="1840.6807"
     id="text839"><tspan
       sodipodi:role="line"
       id="tspan837"
       x="4942.9067"
       y="1840.6807"
       style="stroke-width:9.70152664">rate: 50 mV/s</tspan></text>
  <g
     transform="translate(4.6379309e-6,5.0067902e-6)"
     id="g936">
    <path
       sodipodi:nodetypes="zszzzzzzzzzzzzczczczzzzzzzzzzzczzzzzzzzzzzzzzzzzzzzcczzzzzzzzzzzzzzzzzzz"
       inkscape:connector-curvature="0"
       id="path913"
       d="m 3153.9791,2665.8687 c 0.013,-0.6942 3.3865,-193.709 3.3865,-193.709 4.564,-8.128 18.9824,-27.3061 33.6281,-30.1617 14.6457,-2.8556 24.5512,-3.7154 42.9392,-6.3084 18.388,-2.593 48.9361,-5.8106 57.9904,-6.6517 9.0543,-0.8411 7.0896,-2.3296 32.1335,-1.1338 25.0439,1.1953 54.3675,3.946 86.7391,12.7552 32.3716,8.8092 31.9865,8.6708 45.4181,15.1128 13.4316,6.442 27.6188,14.9462 37.9975,21.806 10.3787,6.8598 18.9599,13.7029 27.5437,19.416 8.5838,5.7131 15.027,9.7226 23.7057,14.2234 8.6787,4.5008 15.4606,9.0628 26.189,11.9657 10.7284,2.9029 25.1813,6.2692 36.8002,7.2246 11.6189,0.9554 22.9151,1.8676 35.4456,1.1288 12.5305,-0.7388 36.2735,-0.2248 49.669,-2.0318 44.7018,-5.659 45.6845,-5.7956 67.2788,-10.1596 21.5943,-4.364 38.3066,-8.0653 51.0235,-8.805 23.7278,-1.7752 44.6251,-7.4885 63.6667,-12.8687 19.0415,-5.3802 40.3886,-18.8032 62.7635,-30.4787 11.1818,-5.7472 25.1019,-14.0579 34.0296,-17.5097 8.9277,-3.4518 20.4474,-9.355 27.553,-11.056 7.1056,-1.701 16.8661,-3.5765 24.4698,-4.438 7.6037,-0.8615 11.41,-0.5682 21.1354,-0.5289 9.7254,0.039 17.2609,-1.003 25.5551,-2.5496 8.2943,-1.5465 14.7231,-6.09 20.3967,-10.3807 5.6735,-4.2907 11.3414,-13.0412 14.7089,-19.3518 3.3675,-6.3106 5.5003,-13.0986 7.4664,-20.6158 1.9661,-7.5172 4.2467,-16.0679 5.9768,-24.8731 1.7301,-8.8052 6.3951,-30.8149 8.5792,-31.0432 2.1841,-0.2283 3.7172,11.9288 4.7411,18.0615 1.024,6.1326 1.7704,19.2268 2.8221,32.7363 0.8969,9.2575 2.0678,17.3436 3.0478,25.8505 0.98,8.5069 2.1811,19.1198 3.2737,25.7375 1.0926,6.6177 1.7367,10.008 2.9349,16.2554 1.1982,6.2474 2.5925,13.2075 4.8541,20.7706 2.2616,7.5631 4.3044,14.8954 7.1117,20.6578 2.8073,5.7624 5.2335,9.1394 8.4663,13.2074 3.2328,4.068 6.4458,7.1615 11.8528,10.724 5.407,3.5625 12.4643,6.9555 19.7547,9.0307 7.2904,2.0752 15.1206,3.5375 22.8026,4.2895 7.682,0.752 13.8031,1.229 20.8836,1.3547 7.0805,0.1257 13.3573,0.6153 17.7227,0.5644 4.3654,-0.051 5.9909,-0.8078 5.9829,-0.1129 -0.01,0.6949 1.0061,15.3441 -1.7126,21.3852 -2.7187,6.0411 -21.4661,5.3689 -33.0557,7.4002 -11.5896,2.0313 -26.6032,3.5345 -35.7843,7.5633 -9.1811,4.0288 -27.2725,9.9706 -32.3805,17.9485 -5.108,7.9779 -8.0444,9.6996 -12.1915,18.9646 -4.1471,9.265 -9.3407,28.5503 -12.1914,41.0897 -2.8507,12.5394 -3.6836,22.2004 -5.4185,33.8652 -1.7349,11.6648 -3.7086,24.9039 -4.9669,36.1229 -1.2583,11.219 -2.6958,21.9002 -3.6123,31.156 -0.7949,8.4612 -3.7519,25.0128 -7.4503,23.4799 -4.0949,-2.1452 -3.688,-7.5222 -5.6442,-20.7707 -1.9562,-13.2485 -4.3859,-32.0534 -8.1277,-44.702 -3.7418,-12.6486 -2.3507,-14.7063 -9.6123,-23.9315 -7.2616,-9.2252 -16.1964,-19.3663 -27.0921,-23.9314 -10.8957,-4.5651 -21.4973,-1.209 -43.799,-4.0638 -22.3017,-2.8548 -37.5255,-7.3023 -58.727,-17.9018 -21.2016,-10.5995 -31.7274,-18.9044 -50.0932,-28.1548 -18.3658,-9.2504 -32.2963,-15.8498 -62.4348,-22.0158 -30.1385,-6.166 -141.7274,-20.3542 -177.3308,-23.1378 -35.6034,-2.7836 -24.3708,-0.5061 -51.4751,-1.3546 -27.1043,-0.8485 -31.2238,3.0857 -53.0715,7.8905 -21.8477,4.8048 -46.044,19.3839 -67.4839,33.7282 -21.4399,14.3443 -29.787,25.2005 -59.4091,36.8937 -29.6221,11.6931 -43.92,13.7758 -70.9961,17.8243 -27.0761,4.0485 -21.5306,3.1187 -37.5709,4.5815 -16.0403,1.4628 -25.0626,3.4488 -45.1536,3.1607 -20.091,-0.2881 -47.539,-4.9132 -61.8605,-6.0957 -14.3215,-1.1825 -21.6276,-1.418 -37.2197,-0.1322 -15.5922,1.2858 -34.5873,15.7272 -34.5745,15.033 z"
       style="fill:none;stroke:#000000;stroke-width:1px;stroke-linecap:butt;stroke-linejoin:miter;stroke-opacity:1" />
    <text
       id="text10650-7-3"
       y="2256.2637"
       x="4132.7466"
       style="font-size:116.41832733px;line-height:1.25;font-family:sans-serif;stroke-width:9.7015152"
       xml:space="preserve"><tspan
         y="2256.2637"
         x="4132.7466"
         style="stroke-width:9.7015152"
         id="tspan10648-5-5"
         sodipodi:role="line">curve: Cs+pH2.9</tspan></text>
  </g>
</svg>
