<?xml version="1.0" encoding="UTF-8" standalone="no"?>
<svg
   xmlns:dc="http://purl.org/dc/elements/1.1/"
   xmlns:cc="http://creativecommons.org/ns#"
   xmlns:rdf="http://www.w3.org/1999/02/22-rdf-syntax-ns#"
   xmlns:svg="http://www.w3.org/2000/svg"
   xmlns="http://www.w3.org/2000/svg"
   xmlns:xlink="http://www.w3.org/1999/xlink"
   xmlns:sodipodi="http://sodipodi.sourceforge.net/DTD/sodipodi-0.dtd"
   xmlns:inkscape="http://www.inkscape.org/namespaces/inkscape"
   height="6617px"
   version="1.1"
   width="4959px"
   id="svg6"
   sodipodi:docname="taguchi_2007_electrochemical_6023_p3_f2c.svg"
   inkscape:version="1.0.2-2 (e86c870879, 2021-01-15)">
  <metadata
     id="metadata10">
    <rdf:RDF>
      <cc:Work
         rdf:about="">
        <dc:format>image/svg+xml</dc:format>
        <dc:type
           rdf:resource="http://purl.org/dc/dcmitype/StillImage" />
      </cc:Work>
    </rdf:RDF>
  </metadata>
  <sodipodi:namedview
     pagecolor="#ffffff"
     bordercolor="#666666"
     borderopacity="1"
     objecttolerance="10"
     gridtolerance="10"
     guidetolerance="10"
     inkscape:pageopacity="0"
     inkscape:pageshadow="2"
     inkscape:window-width="1920"
     inkscape:window-height="991"
     id="namedview8"
     showgrid="false"
     inkscape:zoom="0.49569291"
     inkscape:cx="4361.9594"
     inkscape:cy="1242.28"
     inkscape:window-x="-9"
     inkscape:window-y="-9"
     inkscape:window-maximized="1"
     inkscape:current-layer="svg6"
     inkscape:document-rotation="0" />
  <defs
     id="defs2" />
  <image
     sodipodi:absref="C:\Users\tobia\ownCloud3\PPS\digitizer\push\taguchi_2007_electrochemical_6023\taguchi_2007_electrochemical_6023_p3.png"
     xlink:href="taguchi_2007_electrochemical_6023_p3.png"
     id="image4"
     y="0"
     x="0"
     width="4959px"
     sodipodi:insensitive="true"
     height="6617px" />
  <g
     id="g872"
     transform="translate(2889.6897,0.43180008)">
    <text
       xml:space="preserve"
       style="font-style:italic;font-weight:bold;font-size:48px;line-height:1.25;font-family:sans-serif;-inkscape-font-specification:'sans-serif Bold Italic';letter-spacing:0px"
       x="399.44086"
       y="1916.5092"
       id="text841"><tspan
         sodipodi:role="line"
         id="tspan839"
         x="399.44086"
         y="1916.5092">E1: 0.0 V vs RHE</tspan></text>
    <path
       style="fill:none;stroke:#000000;stroke-width:1px;stroke-linecap:butt;stroke-linejoin:miter;stroke-opacity:1"
       d="M 724.84118,1752.279 385.82355,1893.3093"
       id="path851" />
  </g>
  <g
     id="g877"
     transform="translate(2889.1993,-0.41518492)">
    <text
       xml:space="preserve"
       style="font-style:italic;font-weight:bold;font-size:48px;line-height:1.25;font-family:sans-serif;-inkscape-font-specification:'sans-serif Bold Italic';letter-spacing:0px"
       x="1547.329"
       y="1914.4918"
       id="text837"><tspan
         sodipodi:role="line"
         id="tspan835"
         x="1547.329"
         y="1914.4918">E2: 0.8 V vs RHE</tspan></text>
    <path
       style="fill:none;stroke:#000000;stroke-width:1px;stroke-linecap:butt;stroke-linejoin:miter;stroke-opacity:1"
       d="m 1469.5338,1753.4798 66.8085,146.6205"
       id="path853" />
  </g>
  <g
     id="g862"
     transform="translate(2889.1101,0.56553408)">
    <text
       xml:space="preserve"
       style="font-style:italic;font-weight:bold;font-size:48px;line-height:1.25;font-family:sans-serif;-inkscape-font-specification:'sans-serif Bold Italic';letter-spacing:0px"
       x="326.81525"
       y="496.27499"
       id="text845"><tspan
         sodipodi:role="line"
         id="tspan843"
         x="326.81525"
         y="496.27499">j2: 200 uA / cm2</tspan></text>
    <path
       style="fill:none;stroke:#000000;stroke-width:1px;stroke-linecap:butt;stroke-linejoin:miter;stroke-opacity:1"
       d="M 541.3574,635.68482 311.69062,480.73107"
       id="path855" />
  </g>
  <g
     id="g867"
     transform="translate(2888.5752,-0.33050892)">
    <text
       xml:space="preserve"
       style="font-style:italic;font-weight:bold;font-size:48px;line-height:1.25;font-family:sans-serif;-inkscape-font-specification:'sans-serif Bold Italic';letter-spacing:0px"
       x="609.24817"
       y="1662.3195"
       id="text849"><tspan
         sodipodi:role="line"
         id="tspan847"
         x="609.24817"
         y="1662.3195">j1: -200 uA / cm2</tspan></text>
    <path
       style="fill:none;stroke:#000000;stroke-width:1px;stroke-linecap:butt;stroke-linejoin:miter;stroke-opacity:1"
       d="m 541.53571,1753.7947 56.88175,-102.619"
       id="path857" />
  </g>
  <text
     xml:space="preserve"
     style="font-style:italic;font-weight:bold;font-size:48px;line-height:1.25;font-family:sans-serif;-inkscape-font-specification:'sans-serif Bold Italic';letter-spacing:0px"
     x="4548.207"
     y="818.36273"
     id="text893"><tspan
       sodipodi:role="line"
       id="tspan891"
       x="4548.207"
       y="818.36273">Figure: 2c</tspan></text>
  <text
     xml:space="preserve"
     style="font-style:italic;font-weight:bold;font-size:48px;line-height:1.25;font-family:sans-serif;-inkscape-font-specification:'sans-serif Bold Italic';letter-spacing:0px"
     x="4552.2417"
     y="909.14471"
     id="text897"><tspan
       sodipodi:role="line"
       id="tspan895"
       x="4552.2417"
       y="909.14471">tags: BCV</tspan></text>
  <text
     xml:space="preserve"
     style="font-style:italic;font-weight:bold;font-size:48px;line-height:1.25;font-family:sans-serif;-inkscape-font-specification:'sans-serif Bold Italic';letter-spacing:0px"
     x="4318.2261"
     y="1038.2567"
     id="text901"><tspan
       sodipodi:role="line"
       id="tspan899"
       x="4318.2261"
       y="1038.2567">scan rate: 50 mV / s</tspan></text>
  <g
     id="g948">
    <path
       style="fill:none;stroke:#09d800;stroke-width:1px;stroke-linecap:butt;stroke-linejoin:miter;stroke-opacity:1"
       d="m 3673.9551,1048.8354 c -9.7219,1.6883 -8.526,37.6888 -9.0939,56.8817 -3.3346,112.6883 -0.535,339.1508 -0.535,339.1508 6.8995,-0.1279 8.892,-139.0399 38.3373,-137.1225 25.7129,1.6743 21.6885,84.6842 23.1806,128.0286 1.7976,52.2171 4.5223,192.9886 6.241,192.9343 2.4299,-0.077 5.1148,-170.7522 8.2024,-256.9486 0.9321,-26.0211 2.1385,-58.8513 13.0789,-75.7427 6.725,-10.3832 19.8313,-10.4234 28.4679,-11.9872 30.4708,-5.5172 68.6793,-14.7654 87.3733,-31.5613 32.8058,-29.4748 47.521,-38.767 77.3877,-43.6866 40.6453,-6.695 82.3819,-2.014 123.5707,-1.4265 17.5104,0.2497 32.0991,0.057 49.5761,4.9487 13.0016,3.6387 28.8405,12.4557 42.0766,13.7741 16.7519,1.6686 26.0148,-0.1938 37.1316,2.9013 17.545,4.885 33.5642,17.3643 48.4892,28.4945 6.9783,5.204 39.0549,23.1938 64.1619,18.5318 50.0155,-9.2871 54.9758,12.5866 63.6576,12.8385 10.7472,0.3118 23.5942,-38.737 37.9806,-56.1685 11.5035,-13.9384 33.8402,-28.1437 38.3373,-38.3372 4.4578,-10.1044 2.1397,-57.0601 2.1397,-57.0601 -8.9189,4.1919 -19.7914,9.6222 -29.2433,6.4192 -23.209,-7.8649 -36.965,-55.5156 -47.4311,-56.1685 -10.0504,-0.627 -19.2655,27.8779 -56.7035,30.4915 -14.3563,1.0022 -29.3364,3.2615 -42.8447,9.205 -15.6425,6.8825 -29.5692,18.1033 -42.3888,28.419 -36.7397,29.5637 -91.2748,32.1275 -137.6574,32.6312 -48.2687,0.5241 -121.1177,0.8648 -144.7899,-2.6747 -26.8296,-4.0116 -46.3878,-14.4226 -69.9087,-38.7877 -10.2851,-10.6542 -20.6474,-15.0314 -27.8067,-19.3422 -27.5273,-16.5748 -76.7235,-22.0674 -92.1876,-28.1734 -22.0662,-8.7128 -22.6256,-95.0479 -24.0723,-143.54176 -0.9645,-32.33051 0.311,-207.45194 -4.6361,-207.556 -5.8299,-0.12263 -5.1088,178.81562 -8.0241,238.4041 -1.5949,32.60006 -6.1223,89.20306 -18.7228,96.11056 -9.1617,5.0224 -15.9134,-13.6067 -23.0693,-21.2195 -3.7224,-3.9601 -4.9203,-13.5898 -10.2752,-12.6599 z"
       id="path889"
       sodipodi:nodetypes="sscssssssssssssssssscssssssssssssssss" />
    <text
       xml:space="preserve"
       style="font-style:italic;font-weight:bold;font-size:48px;line-height:1.25;font-family:sans-serif;-inkscape-font-specification:'sans-serif Bold Italic';letter-spacing:0px"
       x="3796.7056"
       y="744.41248"
       id="text943"><tspan
         sodipodi:role="line"
         id="tspan941"
         x="3796.7056"
         y="744.41248">curve: solid</tspan></text>
  </g>
</svg>
