<?xml version="1.0" encoding="UTF-8" standalone="no"?>
<svg
   xmlns:dc="http://purl.org/dc/elements/1.1/"
   xmlns:cc="http://creativecommons.org/ns#"
   xmlns:rdf="http://www.w3.org/1999/02/22-rdf-syntax-ns#"
   xmlns:svg="http://www.w3.org/2000/svg"
   xmlns="http://www.w3.org/2000/svg"
   xmlns:xlink="http://www.w3.org/1999/xlink"
   xmlns:sodipodi="http://sodipodi.sourceforge.net/DTD/sodipodi-0.dtd"
   xmlns:inkscape="http://www.inkscape.org/namespaces/inkscape"
   height="6617px"
   version="1.1"
   width="4959px"
   id="svg6"
   sodipodi:docname="taguchi_2007_electrochemical_6023_p3_f2d.svg"
   inkscape:version="1.0.2-2 (e86c870879, 2021-01-15)">
  <metadata
     id="metadata10">
    <rdf:RDF>
      <cc:Work
         rdf:about="">
        <dc:format>image/svg+xml</dc:format>
        <dc:type
           rdf:resource="http://purl.org/dc/dcmitype/StillImage" />
      </cc:Work>
    </rdf:RDF>
  </metadata>
  <sodipodi:namedview
     pagecolor="#ffffff"
     bordercolor="#666666"
     borderopacity="1"
     objecttolerance="10"
     gridtolerance="10"
     guidetolerance="10"
     inkscape:pageopacity="0"
     inkscape:pageshadow="2"
     inkscape:window-width="1920"
     inkscape:window-height="991"
     id="namedview8"
     showgrid="false"
     inkscape:zoom="0.35050782"
     inkscape:cx="1508.2518"
     inkscape:cy="2676.7822"
     inkscape:window-x="-9"
     inkscape:window-y="-9"
     inkscape:window-maximized="1"
     inkscape:current-layer="svg6"
     inkscape:document-rotation="0" />
  <defs
     id="defs2" />
  <image
     sodipodi:absref="C:\Users\tobia\ownCloud3\PPS\digitizer\push\taguchi_2007_electrochemical_6023\taguchi_2007_electrochemical_6023_p3.png"
     xlink:href="taguchi_2007_electrochemical_6023_p3.png"
     height="6617px"
     sodipodi:insensitive="true"
     width="4959px"
     x="0"
     y="0"
     id="image4" />
  <g
     id="g872"
     transform="translate(0.11612928,1447.4702)">
    <text
       xml:space="preserve"
       style="font-style:italic;font-weight:bold;font-size:48px;line-height:1.25;font-family:sans-serif;-inkscape-font-specification:'sans-serif Bold Italic';letter-spacing:0px"
       x="399.44086"
       y="1916.5092"
       id="text841"><tspan
         sodipodi:role="line"
         id="tspan839"
         x="399.44086"
         y="1916.5092">E1: 0.0 V vs RHE</tspan></text>
    <path
       style="fill:none;stroke:#000000;stroke-width:1px;stroke-linecap:butt;stroke-linejoin:miter;stroke-opacity:1"
       d="M 724.84118,1752.279 385.82355,1893.3093"
       id="path851" />
  </g>
  <g
     id="g877"
     transform="translate(-0.37427072,1446.6232)">
    <text
       xml:space="preserve"
       style="font-style:italic;font-weight:bold;font-size:48px;line-height:1.25;font-family:sans-serif;-inkscape-font-specification:'sans-serif Bold Italic';letter-spacing:0px"
       x="1547.329"
       y="1914.4918"
       id="text837"><tspan
         sodipodi:role="line"
         id="tspan835"
         x="1547.329"
         y="1914.4918">E2: 0.8 V vs RHE</tspan></text>
    <path
       style="fill:none;stroke:#000000;stroke-width:1px;stroke-linecap:butt;stroke-linejoin:miter;stroke-opacity:1"
       d="m 1469.5338,1753.4798 66.8085,146.6205"
       id="path853" />
  </g>
  <g
     id="g862"
     transform="translate(-0.46347072,1447.6039)">
    <text
       xml:space="preserve"
       style="font-style:italic;font-weight:bold;font-size:48px;line-height:1.25;font-family:sans-serif;-inkscape-font-specification:'sans-serif Bold Italic';letter-spacing:0px"
       x="326.81525"
       y="496.27499"
       id="text845"><tspan
         sodipodi:role="line"
         id="tspan843"
         x="326.81525"
         y="496.27499">j2: 200 uA / cm2</tspan></text>
    <path
       style="fill:none;stroke:#000000;stroke-width:1px;stroke-linecap:butt;stroke-linejoin:miter;stroke-opacity:1"
       d="M 541.3574,635.68482 311.69062,480.73107"
       id="path855" />
  </g>
  <g
     id="g867"
     transform="translate(-0.99837072,1446.7079)">
    <text
       xml:space="preserve"
       style="font-style:italic;font-weight:bold;font-size:48px;line-height:1.25;font-family:sans-serif;-inkscape-font-specification:'sans-serif Bold Italic';letter-spacing:0px"
       x="609.24817"
       y="1662.3195"
       id="text849"><tspan
         sodipodi:role="line"
         id="tspan847"
         x="609.24817"
         y="1662.3195">j1: -200 uA / cm2</tspan></text>
    <path
       style="fill:none;stroke:#000000;stroke-width:1px;stroke-linecap:butt;stroke-linejoin:miter;stroke-opacity:1"
       d="m 541.53571,1753.7947 56.88175,-102.619"
       id="path857" />
  </g>
  <text
     xml:space="preserve"
     style="font-style:italic;font-weight:bold;font-size:48px;line-height:1.25;font-family:sans-serif;-inkscape-font-specification:'sans-serif Bold Italic';letter-spacing:0px"
     x="1435.3929"
     y="2287.0139"
     id="text893"><tspan
       sodipodi:role="line"
       id="tspan891"
       x="1435.3929"
       y="2287.0139">Figure: 2d</tspan></text>
  <text
     xml:space="preserve"
     style="font-style:italic;font-weight:bold;font-size:48px;line-height:1.25;font-family:sans-serif;-inkscape-font-specification:'sans-serif Bold Italic';letter-spacing:0px"
     x="1439.4276"
     y="2377.7959"
     id="text897"><tspan
       sodipodi:role="line"
       id="tspan895"
       x="1439.4276"
       y="2377.7959">tags: BCV</tspan></text>
  <text
     xml:space="preserve"
     style="font-style:italic;font-weight:bold;font-size:48px;line-height:1.25;font-family:sans-serif;-inkscape-font-specification:'sans-serif Bold Italic';letter-spacing:0px"
     x="1205.4117"
     y="2506.908"
     id="text901"><tspan
       sodipodi:role="line"
       id="tspan899"
       x="1205.4117"
       y="2506.908">scan rate: 50 mV / s</tspan></text>
  <g
     id="g858">
    <path
       style="fill:none;stroke:#00d90d;stroke-width:1px;stroke-linecap:butt;stroke-linejoin:miter;stroke-opacity:1"
       d="m 785.01224,2490.7054 c 9.39824,-2.9127 18.67099,30.3686 28.9998,28.7476 19.87447,-3.1191 18.24986,-66.6327 20.67813,-100.8689 6.61173,-93.219 4.49621,-285.5892 11.22166,-285.3329 3.91946,0.1494 3.5537,171.8034 6.93474,247.7592 2.52637,56.7555 -0.94895,153.9655 33.79108,167.6946 79.57754,31.4487 85.59761,44.7732 122.05135,70.6082 15.5045,10.9881 41.1707,13.5568 60.1397,15.332 35.6945,3.3403 77.1058,2.0706 112.8505,1.0592 54.2771,-1.5357 121.9527,0.3977 161.6424,-20.1738 23.2625,-12.0571 40.8945,-34.525 64.8082,-44.6345 8.4388,-3.5675 21.599,-5.5966 33.471,-7.3402 18.1813,-2.6703 28.4521,-9.4779 29.5721,-5.0162 l 0.7566,151.5555 c -3.2306,8.8912 -14.3404,8.8276 -25.2363,9.1158 -9.7456,0.2578 -19.0175,1.4023 -27.2156,-0.2897 -26.0745,-5.3816 -30.9788,-17.3258 -50.9773,-30.9446 -15.4693,-10.5345 -31.7211,-18.9975 -47.3698,-23.7768 -58.6569,-17.9145 -121.9996,-15.1517 -183.3293,-15.6347 -40.9519,-0.3225 -87.391,-0.6243 -100.116,2.4991 -16.8606,4.1384 -41.18567,18.7987 -52.95253,28.7703 -15.49706,13.1327 -54.65234,43.0203 -88.00812,49.4257 -35.70591,6.8567 -38.19596,43.6089 -40.09539,70.6083 -2.61919,37.2303 -4.15661,75.2883 -5.04345,112.9731 -1.7407,73.9679 -6.90809,226.6281 -9.58254,226.7693 -3.1201,0.1647 -4.07011,-161.2827 -7.06083,-261.3169 -0.5238,-17.5201 -4.19876,-111.0872 -23.19985,-111.4601 -20.01257,-0.3927 -32.77179,105.724 -36.06063,124.5731 -3.58556,0.4586 -2.31931,-222.5659 -1.26086,-323.2848 0.2737,-26.0446 0.78074,-74.3765 10.59124,-77.4169 z"
       id="path889"
       sodipodi:nodetypes="ssssssssssssccssssssssssssscss" />
    <text
       xml:space="preserve"
       style="font-style:italic;font-weight:bold;font-size:48px;line-height:1.25;font-family:sans-serif;-inkscape-font-specification:'sans-serif Bold Italic';letter-spacing:0px"
       x="901.76801"
       y="2188.8552"
       id="text943"><tspan
         sodipodi:role="line"
         id="tspan941"
         x="901.76801"
         y="2188.8552">curve: solid</tspan></text>
  </g>
</svg>
