<?xml version="1.0" encoding="UTF-8" standalone="no"?>
<svg
   xmlns:dc="http://purl.org/dc/elements/1.1/"
   xmlns:cc="http://creativecommons.org/ns#"
   xmlns:rdf="http://www.w3.org/1999/02/22-rdf-syntax-ns#"
   xmlns:svg="http://www.w3.org/2000/svg"
   xmlns="http://www.w3.org/2000/svg"
   xmlns:xlink="http://www.w3.org/1999/xlink"
   xmlns:sodipodi="http://sodipodi.sourceforge.net/DTD/sodipodi-0.dtd"
   xmlns:inkscape="http://www.inkscape.org/namespaces/inkscape"
   height="6617px"
   version="1.1"
   width="4959px"
   id="svg6"
   sodipodi:docname="taguchi_2007_electrochemical_6023_p3_f2f.svg"
   inkscape:version="1.0.2-2 (e86c870879, 2021-01-15)">
  <metadata
     id="metadata10">
    <rdf:RDF>
      <cc:Work
         rdf:about="">
        <dc:format>image/svg+xml</dc:format>
        <dc:type
           rdf:resource="http://purl.org/dc/dcmitype/StillImage" />
      </cc:Work>
    </rdf:RDF>
  </metadata>
  <sodipodi:namedview
     pagecolor="#ffffff"
     bordercolor="#666666"
     borderopacity="1"
     objecttolerance="10"
     gridtolerance="10"
     guidetolerance="10"
     inkscape:pageopacity="0"
     inkscape:pageshadow="2"
     inkscape:window-width="1920"
     inkscape:window-height="991"
     id="namedview8"
     showgrid="false"
     inkscape:zoom="0.49569291"
     inkscape:cx="4065.2299"
     inkscape:cy="2584.4722"
     inkscape:window-x="-9"
     inkscape:window-y="-9"
     inkscape:window-maximized="1"
     inkscape:current-layer="svg6"
     inkscape:document-rotation="0" />
  <defs
     id="defs2" />
  <image
     sodipodi:absref="C:\Users\tobia\ownCloud3\PPS\digitizer\push\taguchi_2007_electrochemical_6023\taguchi_2007_electrochemical_6023_p3.png"
     xlink:href="taguchi_2007_electrochemical_6023_p3.png"
     id="image4"
     y="0"
     x="0"
     width="4959px"
     sodipodi:insensitive="true"
     height="6617px" />
  <g
     id="g872"
     transform="translate(2897.774,1447.6532)">
    <text
       xml:space="preserve"
       style="font-style:italic;font-weight:bold;font-size:48px;line-height:1.25;font-family:sans-serif;-inkscape-font-specification:'sans-serif Bold Italic';letter-spacing:0px"
       x="399.44086"
       y="1916.5092"
       id="text841"><tspan
         sodipodi:role="line"
         id="tspan839"
         x="399.44086"
         y="1916.5092">E1: 0.0 V vs RHE</tspan></text>
    <path
       style="fill:none;stroke:#000000;stroke-width:1px;stroke-linecap:butt;stroke-linejoin:miter;stroke-opacity:1"
       d="M 724.84118,1752.279 385.82355,1893.3093"
       id="path851" />
  </g>
  <g
     id="g877"
     transform="translate(2897.2206,1446.6171)">
    <text
       xml:space="preserve"
       style="font-style:italic;font-weight:bold;font-size:48px;line-height:1.25;font-family:sans-serif;-inkscape-font-specification:'sans-serif Bold Italic';letter-spacing:0px"
       x="1547.329"
       y="1914.4918"
       id="text837"><tspan
         sodipodi:role="line"
         id="tspan835"
         x="1547.329"
         y="1914.4918">E2: 0.8 V vs RHE</tspan></text>
    <path
       style="fill:none;stroke:#000000;stroke-width:1px;stroke-linecap:butt;stroke-linejoin:miter;stroke-opacity:1"
       d="m 1469.5338,1753.4798 66.8085,146.6205"
       id="path853" />
  </g>
  <g
     id="g862"
     transform="translate(2896.8824,1447.252)">
    <text
       xml:space="preserve"
       style="font-style:italic;font-weight:bold;font-size:48px;line-height:1.25;font-family:sans-serif;-inkscape-font-specification:'sans-serif Bold Italic';letter-spacing:0px"
       x="326.81525"
       y="496.27499"
       id="text845"><tspan
         sodipodi:role="line"
         id="tspan843"
         x="326.81525"
         y="496.27499">j2: 200 uA / cm2</tspan></text>
    <path
       style="fill:none;stroke:#000000;stroke-width:1px;stroke-linecap:butt;stroke-linejoin:miter;stroke-opacity:1"
       d="M 541.3574,635.68482 311.69062,480.73107"
       id="path855" />
  </g>
  <g
     id="g867"
     transform="translate(2896.6595,1446.8909)">
    <text
       xml:space="preserve"
       style="font-style:italic;font-weight:bold;font-size:48px;line-height:1.25;font-family:sans-serif;-inkscape-font-specification:'sans-serif Bold Italic';letter-spacing:0px"
       x="609.24817"
       y="1662.3195"
       id="text849"><tspan
         sodipodi:role="line"
         id="tspan847"
         x="609.24817"
         y="1662.3195">j1: -200 uA / cm2</tspan></text>
    <path
       style="fill:none;stroke:#000000;stroke-width:1px;stroke-linecap:butt;stroke-linejoin:miter;stroke-opacity:1"
       d="m 541.53571,1753.7947 56.88175,-102.619"
       id="path857" />
  </g>
  <text
     xml:space="preserve"
     style="font-style:italic;font-weight:bold;font-size:48px;line-height:1.25;font-family:sans-serif;-inkscape-font-specification:'sans-serif Bold Italic';letter-spacing:0px"
     x="4598.6421"
     y="2262.8057"
     id="text893"><tspan
       sodipodi:role="line"
       id="tspan891"
       x="4598.6421"
       y="2262.8057">Figure: 2f</tspan></text>
  <text
     xml:space="preserve"
     style="font-style:italic;font-weight:bold;font-size:48px;line-height:1.25;font-family:sans-serif;-inkscape-font-specification:'sans-serif Bold Italic';letter-spacing:0px"
     x="4602.6768"
     y="2353.5876"
     id="text897"><tspan
       sodipodi:role="line"
       id="tspan895"
       x="4602.6768"
       y="2353.5876">tags: BCV</tspan></text>
  <text
     xml:space="preserve"
     style="font-style:italic;font-weight:bold;font-size:48px;line-height:1.25;font-family:sans-serif;-inkscape-font-specification:'sans-serif Bold Italic';letter-spacing:0px"
     x="4368.6606"
     y="2482.6997"
     id="text901"><tspan
       sodipodi:role="line"
       id="tspan899"
       x="4368.6606"
       y="2482.6997">scan rate: 50 mV / s</tspan></text>
  <g
     id="g948">
    <path
       style="fill:none;stroke:#00c504;stroke-width:1px;stroke-linecap:butt;stroke-linejoin:miter;stroke-opacity:1"
       d="m 3683.4802,2505.0792 c -11.098,4.0212 -10.3582,21.9894 -10.5913,33.7911 -2.1848,110.6248 -2.5217,339.1717 -2.5217,339.1717 7.2151,-40.0059 17.3727,-120.176 37.5737,-120.7905 17.1903,-0.5229 20.9062,79.7502 23.7911,165.439 3.3281,98.8534 4.549,205.0811 7.7304,205.5063 4.062,0.5429 10.7121,-188.3541 16.5166,-282.5042 1.9855,-32.2057 6.4923,-88.9855 19.7999,-106.7005 8.5655,-11.4023 41.2035,-30.9661 58.1227,-44.1521 29.5379,-23.0206 64.7641,-44.9882 102.1732,-46.7179 23.9352,-1.1067 55.6191,-0.6299 91.1157,-0.5959 35.9224,0.034 76.4694,1.669 109.1295,2.914 43.0679,1.6417 93.7447,6.5603 127.137,23.5372 22.8602,11.6223 40.0677,33.0391 64.5492,36.9108 13.7937,2.1815 34.7037,4.0256 41.0119,-8.559 l 0.5349,-136.0526 c -21.7558,0.8817 -51.2187,7.5915 -68.2937,20.1493 -67.9698,49.9885 -123.6918,45.8422 -152.9923,47.6095 -33.1221,1.9978 -79.8286,3.2786 -123.3477,3.3911 -52.7912,0.1366 -101.0111,-1.5647 -116.1263,-7.314 -25.7331,-9.7879 -50.3115,-22.8453 -71.8948,-42.473 -15.0111,-13.651 -35.632,-21.9652 -47.962,-32.4056 -33.6017,-28.4523 -27.6567,-85.9084 -30.8175,-129.8244 -5.9019,-81.9998 -11.0077,-272.998 -15.1565,-272.9967 -4.4841,0 -5.8494,162.6299 -9.9856,230.2017 -2.9115,47.5633 -0.9971,135.6222 -19.7927,141.5803 -11.2239,3.5579 -18.6336,-23.1266 -29.7037,-19.1156 z"
       id="path889"
       sodipodi:nodetypes="sscsssssssssssccsssssssssss" />
    <text
       xml:space="preserve"
       style="font-style:italic;font-weight:bold;font-size:48px;line-height:1.25;font-family:sans-serif;-inkscape-font-specification:'sans-serif Bold Italic';letter-spacing:0px"
       x="3849.1572"
       y="2249.3765"
       id="text943"><tspan
         sodipodi:role="line"
         id="tspan941"
         x="3849.1572"
         y="2249.3765">curve: solid</tspan></text>
  </g>
</svg>
