<?xml version="1.0" encoding="UTF-8" standalone="no"?>
<svg
   xmlns:dc="http://purl.org/dc/elements/1.1/"
   xmlns:cc="http://creativecommons.org/ns#"
   xmlns:rdf="http://www.w3.org/1999/02/22-rdf-syntax-ns#"
   xmlns:svg="http://www.w3.org/2000/svg"
   xmlns="http://www.w3.org/2000/svg"
   xmlns:xlink="http://www.w3.org/1999/xlink"
   xmlns:sodipodi="http://sodipodi.sourceforge.net/DTD/sodipodi-0.dtd"
   xmlns:inkscape="http://www.inkscape.org/namespaces/inkscape"
   height="6617px"
   version="1.1"
   width="4959px"
   id="svg6"
   sodipodi:docname="taguchi_2007_electrochemical_6023_p3_f2a.svg"
   inkscape:version="1.0.2-2 (e86c870879, 2021-01-15)">
  <metadata
     id="metadata10">
    <rdf:RDF>
      <cc:Work
         rdf:about="">
        <dc:format>image/svg+xml</dc:format>
        <dc:type
           rdf:resource="http://purl.org/dc/dcmitype/StillImage" />
      </cc:Work>
    </rdf:RDF>
  </metadata>
  <sodipodi:namedview
     pagecolor="#ffffff"
     bordercolor="#666666"
     borderopacity="1"
     objecttolerance="10"
     gridtolerance="10"
     guidetolerance="10"
     inkscape:pageopacity="0"
     inkscape:pageshadow="2"
     inkscape:window-width="1920"
     inkscape:window-height="991"
     id="namedview8"
     showgrid="false"
     inkscape:zoom="0.35050782"
     inkscape:cx="1276.8501"
     inkscape:cy="1102.5356"
     inkscape:window-x="-9"
     inkscape:window-y="-9"
     inkscape:window-maximized="1"
     inkscape:current-layer="svg6"
     inkscape:document-rotation="0" />
  <defs
     id="defs2" />
  <image
     sodipodi:absref="C:\Users\tobia\ownCloud3\PPS\digitizer\push\taguchi_2007_electrochemical_6023\taguchi_2007_electrochemical_6023_p3.png"
     xlink:href="taguchi_2007_electrochemical_6023_p3.png"
     id="image4"
     y="0"
     x="0"
     width="4959px"
     sodipodi:insensitive="true"
     height="6617px" />
  <g
     id="g872">
    <text
       xml:space="preserve"
       style="font-style:italic;font-weight:bold;font-size:48px;line-height:1.25;font-family:sans-serif;-inkscape-font-specification:'sans-serif Bold Italic';letter-spacing:0px"
       x="399.44086"
       y="1916.5092"
       id="text841"><tspan
         sodipodi:role="line"
         id="tspan839"
         x="399.44086"
         y="1916.5092">E1: 0.0 V vs RHE</tspan></text>
    <path
       style="fill:none;stroke:#000000;stroke-width:1px;stroke-linecap:butt;stroke-linejoin:miter;stroke-opacity:1"
       d="M 724.84118,1752.279 385.82355,1893.3093"
       id="path851" />
  </g>
  <g
     id="g877">
    <text
       xml:space="preserve"
       style="font-style:italic;font-weight:bold;font-size:48px;line-height:1.25;font-family:sans-serif;-inkscape-font-specification:'sans-serif Bold Italic';letter-spacing:0px"
       x="1547.329"
       y="1914.4918"
       id="text837"><tspan
         sodipodi:role="line"
         id="tspan835"
         x="1547.329"
         y="1914.4918">E2: 0.8 V vs RHE</tspan></text>
    <path
       style="fill:none;stroke:#000000;stroke-width:1px;stroke-linecap:butt;stroke-linejoin:miter;stroke-opacity:1"
       d="m 1469.5338,1753.4798 66.8085,146.6205"
       id="path853" />
  </g>
  <g
     id="g862">
    <text
       xml:space="preserve"
       style="font-style:italic;font-weight:bold;font-size:48px;line-height:1.25;font-family:sans-serif;-inkscape-font-specification:'sans-serif Bold Italic';letter-spacing:0px"
       x="326.81525"
       y="496.27499"
       id="text845"><tspan
         sodipodi:role="line"
         id="tspan843"
         x="326.81525"
         y="496.27499">j2: 200 uA / cm2</tspan></text>
    <path
       style="fill:none;stroke:#000000;stroke-width:1px;stroke-linecap:butt;stroke-linejoin:miter;stroke-opacity:1"
       d="M 541.3574,635.68482 311.69062,480.73107"
       id="path855" />
  </g>
  <g
     id="g867">
    <text
       xml:space="preserve"
       style="font-style:italic;font-weight:bold;font-size:48px;line-height:1.25;font-family:sans-serif;-inkscape-font-specification:'sans-serif Bold Italic';letter-spacing:0px"
       x="609.24817"
       y="1662.3195"
       id="text849"><tspan
         sodipodi:role="line"
         id="tspan847"
         x="609.24817"
         y="1662.3195">j1: -200 uA / cm2</tspan></text>
    <path
       style="fill:none;stroke:#000000;stroke-width:1px;stroke-linecap:butt;stroke-linejoin:miter;stroke-opacity:1"
       d="m 541.53571,1753.7947 56.88175,-102.619"
       id="path857" />
  </g>
  <text
     xml:space="preserve"
     style="font-style:italic;font-weight:bold;font-size:48px;line-height:1.25;font-family:sans-serif;-inkscape-font-specification:'sans-serif Bold Italic';letter-spacing:0px"
     x="726.23151"
     y="924.47321"
     id="text883"><tspan
       sodipodi:role="line"
       id="tspan881"
       x="726.23151"
       y="924.47321">scan rate: 50 mV / s</tspan></text>
  <g
     id="g864">
    <path
       style="fill:none;stroke:#36fd09;stroke-width:1px;stroke-linecap:butt;stroke-linejoin:miter;stroke-opacity:1"
       d="m 773.64919,1380.1165 c 0,0 -4.45591,-119.2365 -0.23688,-178.6418 2.31379,-32.579 0.0361,-80.8532 14.12165,-96.9602 2.34416,-2.6806 32.53895,-2.8017 36.69106,-4.0348 14.62157,-4.3422 15.05532,-32.1347 19.09123,-32.1685 1.19281,-0.01 4.25596,33.1279 30.46062,34.8164 6.84144,0.4408 66.30658,3.2804 76.15602,3.6564 9.80077,0.3742 36.44203,-2.8467 38.83453,-1.3869 0,0 10.00316,12.8435 15.61568,17.7997 11.6853,10.3188 24.604,17.7633 37.5927,26.7087 35.7471,24.6191 46.6378,32.3374 125.5817,34.4215 15.1805,0.4008 61.1068,0.7805 90.6295,-3.5735 21.307,-3.1423 47.1303,-13.8752 58.5304,-22.2742 17.6042,-12.9699 72.4194,-33.883 91.6647,-35.5562 20.459,-1.7787 44.8196,-20.6863 48.9214,-37.4476 3.7541,-15.3404 9.7569,-93.19563 11.8521,-93.29108 2.4909,-0.11347 3.3827,89.07128 16.139,130.61258 12.3786,40.3113 18.4119,51.7925 81.1995,50.9388 l 0.5043,23.9563 c -1.1025,0.5981 -12.0205,4.5365 -25.1986,8.7413 -13.2977,4.243 -28.5093,8.0282 -36.5836,15.8455 -14.6795,14.2122 -19.6335,36.258 -24.9651,55.9823 -10.734,39.7107 -10.4217,126.5667 -13.3651,126.7166 -4.0305,0.2051 -2.4587,-96.712 -12.8608,-110.9559 -14.3351,-19.6295 -41.1112,-19.7939 -66.9789,-25.0727 -21.0269,-4.2911 -41.2116,-13.8973 -55.5768,-24.4791 -42.4049,-31.2367 -101.2869,-36.1846 -153.9511,-35.5563 -66.1218,0.7889 -92.4901,2.0747 -132.8948,27.865 -21.6337,13.8088 -36.0568,24.023 -45.38576,31.7429 -11.32669,9.373 -14.93569,15.5945 -18.66602,17.0525 -4.34865,1.6997 -14.80436,-1.7265 -27.47455,-1.9119 -19.14531,-0.2802 -43.11485,2.0421 -56.87707,2.5423 -7.21193,0.2621 -35.99001,1.9389 -41.98359,6.513 -5.77738,4.4091 -10.60663,27.1238 -13.09442,27.0871 -4.25775,-0.063 -5.13531,-14.1371 -10.52907,-20.4677 -7.82944,-9.1892 -21.44158,-12.1359 -28.07491,-5.8194 -26.89922,25.6145 -24.43702,72.9124 -28.88902,86.5989 z"
       id="path879"
       sodipodi:nodetypes="ccsssssssssssssssccsssssssssssssssssc" />
    <text
       xml:space="preserve"
       style="font-style:italic;font-weight:bold;font-size:48px;line-height:1.25;font-family:sans-serif;-inkscape-font-specification:'sans-serif Bold Italic';letter-spacing:0px"
       x="804.54688"
       y="724.66284"
       id="text851"><tspan
         sodipodi:role="line"
         id="tspan849"
         x="804.54688"
         y="724.66284">curve: solid</tspan></text>
  </g>
  <text
     xml:space="preserve"
     style="font-style:italic;font-weight:bold;font-size:48px;line-height:1.25;font-family:sans-serif;-inkscape-font-specification:'sans-serif Bold Italic';letter-spacing:0px"
     x="1152.6134"
     y="168.32719"
     id="text855"><tspan
       sodipodi:role="line"
       id="tspan853"
       x="1152.6134"
       y="168.32719">Figure: 2a</tspan></text>
  <text
     xml:space="preserve"
     style="font-style:italic;font-weight:bold;font-size:48px;line-height:1.25;font-family:sans-serif;-inkscape-font-specification:'sans-serif Bold Italic';letter-spacing:0px"
     x="1129.7893"
     y="268.18231"
     id="text859"><tspan
       sodipodi:role="line"
       id="tspan857"
       x="1129.7893"
       y="268.18231">tags: BCV</tspan></text>
</svg>
