<?xml version="1.0" encoding="UTF-8" standalone="no"?>
<svg
   xmlns:dc="http://purl.org/dc/elements/1.1/"
   xmlns:cc="http://creativecommons.org/ns#"
   xmlns:rdf="http://www.w3.org/1999/02/22-rdf-syntax-ns#"
   xmlns:svg="http://www.w3.org/2000/svg"
   xmlns="http://www.w3.org/2000/svg"
   xmlns:xlink="http://www.w3.org/1999/xlink"
   xmlns:sodipodi="http://sodipodi.sourceforge.net/DTD/sodipodi-0.dtd"
   xmlns:inkscape="http://www.inkscape.org/namespaces/inkscape"
   height="6617px"
   version="1.1"
   width="4959px"
   id="svg6"
   sodipodi:docname="taguchi_2007_electrochemical_6023_p3_f2i.svg"
   inkscape:version="1.0.2-2 (e86c870879, 2021-01-15)">
  <metadata
     id="metadata10">
    <rdf:RDF>
      <cc:Work
         rdf:about="">
        <dc:format>image/svg+xml</dc:format>
        <dc:type
           rdf:resource="http://purl.org/dc/dcmitype/StillImage" />
      </cc:Work>
    </rdf:RDF>
  </metadata>
  <sodipodi:namedview
     pagecolor="#ffffff"
     bordercolor="#666666"
     borderopacity="1"
     objecttolerance="10"
     gridtolerance="10"
     guidetolerance="10"
     inkscape:pageopacity="0"
     inkscape:pageshadow="2"
     inkscape:window-width="1920"
     inkscape:window-height="991"
     id="namedview8"
     showgrid="false"
     inkscape:zoom="0.49569291"
     inkscape:cx="4084.8848"
     inkscape:cy="4046.6296"
     inkscape:window-x="-9"
     inkscape:window-y="-9"
     inkscape:window-maximized="1"
     inkscape:current-layer="svg6"
     inkscape:document-rotation="0" />
  <defs
     id="defs2" />
  <image
     sodipodi:absref="C:\Users\tobia\ownCloud3\PPS\digitizer\push\taguchi_2007_electrochemical_6023\taguchi_2007_electrochemical_6023_p3.png"
     xlink:href="taguchi_2007_electrochemical_6023_p3.png"
     height="6617px"
     sodipodi:insensitive="true"
     width="4959px"
     x="0"
     y="0"
     id="image4" />
  <g
     id="g872"
     transform="translate(2897.1456,2896.9171)">
    <text
       xml:space="preserve"
       style="font-style:italic;font-weight:bold;font-size:48px;line-height:1.25;font-family:sans-serif;-inkscape-font-specification:'sans-serif Bold Italic';letter-spacing:0px"
       x="399.44086"
       y="1916.5092"
       id="text841"><tspan
         sodipodi:role="line"
         id="tspan839"
         x="399.44086"
         y="1916.5092">E1: 0.0 V vs RHE</tspan></text>
    <path
       style="fill:none;stroke:#000000;stroke-width:1px;stroke-linecap:butt;stroke-linejoin:miter;stroke-opacity:1"
       d="M 724.84118,1752.279 385.82355,1893.3093"
       id="path851" />
  </g>
  <g
     id="g877"
     transform="translate(2897.2857,2896.0701)">
    <text
       xml:space="preserve"
       style="font-style:italic;font-weight:bold;font-size:48px;line-height:1.25;font-family:sans-serif;-inkscape-font-specification:'sans-serif Bold Italic';letter-spacing:0px"
       x="1547.329"
       y="1914.4918"
       id="text837"><tspan
         sodipodi:role="line"
         id="tspan835"
         x="1547.329"
         y="1914.4918">E2: 0.8 V vs RHE</tspan></text>
    <path
       style="fill:none;stroke:#000000;stroke-width:1px;stroke-linecap:butt;stroke-linejoin:miter;stroke-opacity:1"
       d="m 1469.5338,1753.4798 66.8085,146.6205"
       id="path853" />
  </g>
  <g
     id="g862"
     transform="translate(2896.254,2896.5159)">
    <text
       xml:space="preserve"
       style="font-style:italic;font-weight:bold;font-size:48px;line-height:1.25;font-family:sans-serif;-inkscape-font-specification:'sans-serif Bold Italic';letter-spacing:0px"
       x="326.81525"
       y="496.27499"
       id="text845"><tspan
         sodipodi:role="line"
         id="tspan843"
         x="326.81525"
         y="496.27499">j2: 200 uA / cm2</tspan></text>
    <path
       style="fill:none;stroke:#000000;stroke-width:1px;stroke-linecap:butt;stroke-linejoin:miter;stroke-opacity:1"
       d="M 541.3574,635.68482 311.69062,480.73107"
       id="path855" />
  </g>
  <g
     id="g867"
     transform="translate(2896.0311,2896.1548)">
    <text
       xml:space="preserve"
       style="font-style:italic;font-weight:bold;font-size:48px;line-height:1.25;font-family:sans-serif;-inkscape-font-specification:'sans-serif Bold Italic';letter-spacing:0px"
       x="609.24817"
       y="1662.3195"
       id="text849"><tspan
         sodipodi:role="line"
         id="tspan847"
         x="609.24817"
         y="1662.3195">j1: -200 uA / cm2</tspan></text>
    <path
       style="fill:none;stroke:#000000;stroke-width:1px;stroke-linecap:butt;stroke-linejoin:miter;stroke-opacity:1"
       d="m 541.53571,1753.7947 56.88175,-102.619"
       id="path857" />
  </g>
  <text
     xml:space="preserve"
     style="font-style:italic;font-weight:bold;font-size:48px;line-height:1.25;font-family:sans-serif;-inkscape-font-specification:'sans-serif Bold Italic';letter-spacing:0px"
     x="4526.9966"
     y="3679.6975"
     id="text893"><tspan
       sodipodi:role="line"
       id="tspan891"
       x="4526.9966"
       y="3679.6975">Figure: 2i</tspan></text>
  <text
     xml:space="preserve"
     style="font-style:italic;font-weight:bold;font-size:48px;line-height:1.25;font-family:sans-serif;-inkscape-font-specification:'sans-serif Bold Italic';letter-spacing:0px"
     x="4531.0312"
     y="3770.4795"
     id="text897"><tspan
       sodipodi:role="line"
       id="tspan895"
       x="4531.0312"
       y="3770.4795">tags: BCV</tspan></text>
  <text
     xml:space="preserve"
     style="font-style:italic;font-weight:bold;font-size:48px;line-height:1.25;font-family:sans-serif;-inkscape-font-specification:'sans-serif Bold Italic';letter-spacing:0px"
     x="4297.0151"
     y="3899.5918"
     id="text901"><tspan
       sodipodi:role="line"
       id="tspan899"
       x="4297.0151"
       y="3899.5918">scan rate: 50 mV / s</tspan></text>
  <g
     id="g910">
    <path
       style="fill:none;stroke:#01b800;stroke-width:1px;stroke-linecap:butt;stroke-linejoin:miter;stroke-opacity:1"
       d="m 3670.3889,4289.6689 0.5349,-257.6618 c 0.4415,-16.4822 2.2775,-43.1043 13.0168,-45.8264 8.6777,-2.1995 19.7051,11.9806 25.3205,9.9855 12.9506,-4.6013 17.2378,-37.5934 20.3276,-57.7733 5.7514,-37.5633 9.6632,-112.0668 17.0027,-111.8364 6.2527,0.1962 9.6416,29.6854 15.4168,59.7473 6.5356,34.0199 15.7634,70.8018 30.1683,72.2384 25.694,2.5625 38.3374,-61.6062 49.7492,-59.3781 13.6663,2.6683 16.3155,38.5034 19.9298,74.8347 2.6853,26.9938 5.2256,53.3578 16.8026,71.3817 10.5606,16.4414 25.9372,23.7316 43.2507,28.7215 15.2509,4.3954 32.4412,7.1871 47.6888,8.0109 45.7798,2.4733 107.7042,-1.0292 161.7296,-1.9614 39.0536,-0.6739 78.8419,1.4971 117.6558,-2.8747 17.7738,-2.0019 27.266,-6.0036 34.5536,-9.9891 7.3737,-4.0327 12.4906,-8.0488 21.6455,-9.9602 11.1204,-2.3218 23.4835,1.8149 34.31,-1.6265 10.3536,-3.291 19.3589,-13.5319 27.0296,-17.453 l 0.9348,65.9847 c -1.247,5.2475 -5.8235,11.5905 -12.2294,16.1569 -8.9237,6.3613 -21.1604,10.2237 -30.7872,11.2943 -21.8038,2.4248 -40.5292,-17.6872 -62.0528,-21.9325 -38.7101,-7.6351 -76.5228,-5.1821 -118.2213,-5.8843 -53.9775,-0.9089 -105.8199,-4.3167 -160.395,-3.1664 -27.3252,0.576 -56.4756,3.8077 -82.467,12.2603 -26.1977,8.5197 -30.2197,38.0614 -35.4842,60.983 -6.6484,28.947 -11.2788,104.1399 -26.212,103.5997 -6.6022,-0.2388 -12.3343,-16.0997 -20.6747,-30.0272 -6.7692,-11.3041 -15.2567,-21.3346 -27.322,-20.7055 -12.2067,0.6366 -22.402,26.4514 -28.5453,54.9434 -7.3445,34.0635 -12.8976,70.2239 -16.8938,70.324 -5.7735,0.1447 -9.1063,-48.3099 -15.1642,-93.6277 -4.9384,-36.9424 -11.2655,-72.5142 -25.6694,-72.5598 -26.7362,-0.085 -30.6739,104.3686 -34.9493,103.778 z"
       id="path889"
       sodipodi:nodetypes="ccssssssssssssssssccssssssssssssssc" />
    <text
       xml:space="preserve"
       style="font-style:italic;font-weight:bold;font-size:48px;line-height:1.25;font-family:sans-serif;-inkscape-font-specification:'sans-serif Bold Italic';letter-spacing:0px"
       x="3720.0452"
       y="3689.7844"
       id="text905"><tspan
         sodipodi:role="line"
         id="tspan903"
         x="3720.0452"
         y="3689.7844">curve: solid</tspan></text>
  </g>
</svg>
