<?xml version="1.0" encoding="UTF-8" standalone="no"?>
<svg
   xmlns:dc="http://purl.org/dc/elements/1.1/"
   xmlns:cc="http://creativecommons.org/ns#"
   xmlns:rdf="http://www.w3.org/1999/02/22-rdf-syntax-ns#"
   xmlns:svg="http://www.w3.org/2000/svg"
   xmlns="http://www.w3.org/2000/svg"
   xmlns:xlink="http://www.w3.org/1999/xlink"
   xmlns:sodipodi="http://sodipodi.sourceforge.net/DTD/sodipodi-0.dtd"
   xmlns:inkscape="http://www.inkscape.org/namespaces/inkscape"
   height="6617px"
   version="1.1"
   width="4959px"
   id="svg6"
   sodipodi:docname="taguchi_2007_electrochemical_6023_p3_f2h.svg"
   inkscape:version="1.0.2-2 (e86c870879, 2021-01-15)">
  <metadata
     id="metadata10">
    <rdf:RDF>
      <cc:Work
         rdf:about="">
        <dc:format>image/svg+xml</dc:format>
        <dc:type
           rdf:resource="http://purl.org/dc/dcmitype/StillImage" />
      </cc:Work>
    </rdf:RDF>
  </metadata>
  <sodipodi:namedview
     pagecolor="#ffffff"
     bordercolor="#666666"
     borderopacity="1"
     objecttolerance="10"
     gridtolerance="10"
     guidetolerance="10"
     inkscape:pageopacity="0"
     inkscape:pageshadow="2"
     inkscape:window-width="1920"
     inkscape:window-height="991"
     id="namedview8"
     showgrid="false"
     inkscape:zoom="0.70101564"
     inkscape:cx="2468.6216"
     inkscape:cy="3867.0613"
     inkscape:window-x="-9"
     inkscape:window-y="-9"
     inkscape:window-maximized="1"
     inkscape:current-layer="svg6"
     inkscape:document-rotation="0" />
  <defs
     id="defs2" />
  <image
     sodipodi:absref="C:\Users\tobia\ownCloud3\PPS\digitizer\push\taguchi_2007_electrochemical_6023\taguchi_2007_electrochemical_6023_p3.png"
     xlink:href="taguchi_2007_electrochemical_6023_p3.png"
     id="image4"
     y="0"
     x="0"
     width="4959px"
     sodipodi:insensitive="true"
     height="6617px" />
  <g
     id="g872"
     transform="translate(1427.7704,2897.08)">
    <text
       xml:space="preserve"
       style="font-style:italic;font-weight:bold;font-size:48px;line-height:1.25;font-family:sans-serif;-inkscape-font-specification:'sans-serif Bold Italic';letter-spacing:0px"
       x="399.44086"
       y="1916.5092"
       id="text841"><tspan
         sodipodi:role="line"
         id="tspan839"
         x="399.44086"
         y="1916.5092">E1: 0.0 V vs RHE</tspan></text>
    <path
       style="fill:none;stroke:#000000;stroke-width:1px;stroke-linecap:butt;stroke-linejoin:miter;stroke-opacity:1"
       d="M 724.84118,1752.279 385.82355,1893.3093"
       id="path851" />
  </g>
  <g
     id="g877"
     transform="translate(1427.217,2896.0439)">
    <text
       xml:space="preserve"
       style="font-style:italic;font-weight:bold;font-size:48px;line-height:1.25;font-family:sans-serif;-inkscape-font-specification:'sans-serif Bold Italic';letter-spacing:0px"
       x="1547.329"
       y="1914.4918"
       id="text837"><tspan
         sodipodi:role="line"
         id="tspan835"
         x="1547.329"
         y="1914.4918">E2: 0.8 V vs RHE</tspan></text>
    <path
       style="fill:none;stroke:#000000;stroke-width:1px;stroke-linecap:butt;stroke-linejoin:miter;stroke-opacity:1"
       d="m 1469.5338,1753.4798 66.8085,146.6205"
       id="path853" />
  </g>
  <g
     id="g862"
     transform="translate(1426.8788,2896.6788)">
    <text
       xml:space="preserve"
       style="font-style:italic;font-weight:bold;font-size:48px;line-height:1.25;font-family:sans-serif;-inkscape-font-specification:'sans-serif Bold Italic';letter-spacing:0px"
       x="326.81525"
       y="496.27499"
       id="text845"><tspan
         sodipodi:role="line"
         id="tspan843"
         x="326.81525"
         y="496.27499">j2: 200 uA / cm2</tspan></text>
    <path
       style="fill:none;stroke:#000000;stroke-width:1px;stroke-linecap:butt;stroke-linejoin:miter;stroke-opacity:1"
       d="M 541.3574,635.68482 311.69062,480.73107"
       id="path855" />
  </g>
  <g
     id="g867"
     transform="translate(1426.6559,2896.3177)">
    <text
       xml:space="preserve"
       style="font-style:italic;font-weight:bold;font-size:48px;line-height:1.25;font-family:sans-serif;-inkscape-font-specification:'sans-serif Bold Italic';letter-spacing:0px"
       x="609.24817"
       y="1662.3195"
       id="text849"><tspan
         sodipodi:role="line"
         id="tspan847"
         x="609.24817"
         y="1662.3195">j1: -200 uA / cm2</tspan></text>
    <path
       style="fill:none;stroke:#000000;stroke-width:1px;stroke-linecap:butt;stroke-linejoin:miter;stroke-opacity:1"
       d="m 541.53571,1753.7947 56.88175,-102.619"
       id="path857" />
  </g>
  <text
     xml:space="preserve"
     style="font-style:italic;font-weight:bold;font-size:48px;line-height:1.25;font-family:sans-serif;-inkscape-font-specification:'sans-serif Bold Italic';letter-spacing:0px"
     x="2857.5686"
     y="3724.6619"
     id="text893"><tspan
       sodipodi:role="line"
       id="tspan891"
       x="2857.5686"
       y="3724.6619">Figure: 2h</tspan></text>
  <text
     xml:space="preserve"
     style="font-style:italic;font-weight:bold;font-size:48px;line-height:1.25;font-family:sans-serif;-inkscape-font-specification:'sans-serif Bold Italic';letter-spacing:0px"
     x="2861.6033"
     y="3815.4438"
     id="text897"><tspan
       sodipodi:role="line"
       id="tspan895"
       x="2861.6033"
       y="3815.4438">tags: BCV</tspan></text>
  <text
     xml:space="preserve"
     style="font-style:italic;font-weight:bold;font-size:48px;line-height:1.25;font-family:sans-serif;-inkscape-font-specification:'sans-serif Bold Italic';letter-spacing:0px"
     x="2627.5872"
     y="3944.5562"
     id="text901"><tspan
       sodipodi:role="line"
       id="tspan899"
       x="2627.5872"
       y="3944.5562">scan rate: 50 mV / s</tspan></text>
  <g
     id="g922">
    <path
       style="fill:none;stroke:#00dc16;stroke-width:1px;stroke-linecap:butt;stroke-linejoin:miter;stroke-opacity:1"
       d="m 2200.2029,4338.6237 c 0,0 0.1948,-200.3636 0.2522,-324.2935 0.01,-16.9142 3.893,-49.1371 10.3391,-49.678 12.1529,-1.0197 18.0278,25.9535 30.0085,20.9303 18.7453,-7.8594 21.5692,-85.0804 25.4694,-128.6078 3.9942,-44.5765 6.8739,-140.5729 11.5999,-139.9556 5.4121,0.7069 5.7317,102.5996 9.8347,149.7903 3.0454,35.0269 1.4724,95.8906 28.2433,101.6254 12.6696,2.7141 27.3613,-27.3505 37.0693,-25.4694 21.2599,4.1195 14.2813,94.2989 48.6693,120.7905 28.4406,21.9099 90.2143,23.2106 136.173,21.939 57.7892,-1.5989 128.1576,-1.6513 178.0336,-3.7826 33.2789,-1.422 67.2921,-6.8605 98.8515,-14.626 29.123,-7.166 59.7011,-19.8333 86.9995,-22.9476 l 1.2608,75.3995 c -2.2184,5.6434 -5.841,10.0637 -9.0423,11.6864 -6.8775,-0.5271 -16.1609,-0.2358 -26.9739,-2.9457 -20.2389,-5.0722 -43.2961,-10.191 -64.0962,-14.5407 -11.6352,-2.4332 -43.0102,-8.6401 -82.9198,-10.1539 -26.8685,-1.0191 -57.8452,-2.5613 -80.2356,-3.4634 -61.3964,-2.4736 -123.092,-4.4534 -184.3379,0.5043 -66.2003,5.3587 -68.2539,24.8878 -77.4169,55.7301 -10.8669,36.5778 -13.0332,79.213 -28.2433,79.6864 -14.8091,0.4609 -24.4653,-24.4673 -41.6084,-15.6346 -21.2865,10.9676 -19.8421,70.3084 -23.4521,106.6688 -4.1076,41.3731 -5.1164,123.9449 -10.0868,124.3209 -4.5857,0.3469 -9.1231,-123.7826 -16.8956,-188.3726 -2.7915,-23.1977 -6.7798,-65.9107 -21.939,-66.5735 -20.2072,-0.8836 -33.4672,118.972 -35.5563,141.973 z"
       id="path889"
       sodipodi:nodetypes="csssssssssssscccssssssssssssc" />
    <text
       xml:space="preserve"
       style="font-style:italic;font-weight:bold;font-size:48px;line-height:1.25;font-family:sans-serif;-inkscape-font-specification:'sans-serif Bold Italic';letter-spacing:0px"
       x="2142.6057"
       y="3626.1672"
       id="text917"><tspan
         sodipodi:role="line"
         id="tspan915"
         x="2142.6057"
         y="3626.1672">curve: solid </tspan></text>
  </g>
</svg>
