<?xml version="1.0" encoding="UTF-8" standalone="no"?>
<svg
   xmlns:dc="http://purl.org/dc/elements/1.1/"
   xmlns:cc="http://creativecommons.org/ns#"
   xmlns:rdf="http://www.w3.org/1999/02/22-rdf-syntax-ns#"
   xmlns:svg="http://www.w3.org/2000/svg"
   xmlns="http://www.w3.org/2000/svg"
   xmlns:xlink="http://www.w3.org/1999/xlink"
   xmlns:sodipodi="http://sodipodi.sourceforge.net/DTD/sodipodi-0.dtd"
   xmlns:inkscape="http://www.inkscape.org/namespaces/inkscape"
   height="6617px"
   version="1.1"
   width="4959px"
   id="svg6"
   sodipodi:docname="taguchi_2007_electrochemical_6023_p3_f2b.svg"
   inkscape:version="1.0.2-2 (e86c870879, 2021-01-15)">
  <metadata
     id="metadata10">
    <rdf:RDF>
      <cc:Work
         rdf:about="">
        <dc:format>image/svg+xml</dc:format>
        <dc:type
           rdf:resource="http://purl.org/dc/dcmitype/StillImage" />
      </cc:Work>
    </rdf:RDF>
  </metadata>
  <sodipodi:namedview
     pagecolor="#ffffff"
     bordercolor="#666666"
     borderopacity="1"
     objecttolerance="10"
     gridtolerance="10"
     guidetolerance="10"
     inkscape:pageopacity="0"
     inkscape:pageshadow="2"
     inkscape:window-width="1920"
     inkscape:window-height="991"
     id="namedview8"
     showgrid="false"
     inkscape:zoom="0.35050782"
     inkscape:cx="2672.0116"
     inkscape:cy="1169.1292"
     inkscape:window-x="-9"
     inkscape:window-y="-9"
     inkscape:window-maximized="1"
     inkscape:current-layer="svg6"
     inkscape:document-rotation="0" />
  <defs
     id="defs2" />
  <image
     sodipodi:absref="C:\Users\tobia\ownCloud3\PPS\digitizer\push\taguchi_2007_electrochemical_6023\taguchi_2007_electrochemical_6023_p3.png"
     xlink:href="taguchi_2007_electrochemical_6023_p3.png"
     id="image4"
     y="0"
     x="0"
     width="4959px"
     sodipodi:insensitive="true"
     height="6617px" />
  <g
     id="g872"
     transform="translate(1420.0511,0.72166989)">
    <text
       xml:space="preserve"
       style="font-style:italic;font-weight:bold;font-size:48px;line-height:1.25;font-family:sans-serif;-inkscape-font-specification:'sans-serif Bold Italic';letter-spacing:0px"
       x="399.44086"
       y="1916.5092"
       id="text841"><tspan
         sodipodi:role="line"
         id="tspan839"
         x="399.44086"
         y="1916.5092">E1: 0.0 V vs RHE</tspan></text>
    <path
       style="fill:none;stroke:#000000;stroke-width:1px;stroke-linecap:butt;stroke-linejoin:miter;stroke-opacity:1"
       d="M 724.84118,1752.279 385.82355,1893.3093"
       id="path851" />
  </g>
  <g
     id="g877"
     transform="translate(1419.5607,-0.12531549)">
    <text
       xml:space="preserve"
       style="font-style:italic;font-weight:bold;font-size:48px;line-height:1.25;font-family:sans-serif;-inkscape-font-specification:'sans-serif Bold Italic';letter-spacing:0px"
       x="1547.329"
       y="1914.4918"
       id="text837"><tspan
         sodipodi:role="line"
         id="tspan835"
         x="1547.329"
         y="1914.4918">E2: 0.8 V vs RHE</tspan></text>
    <path
       style="fill:none;stroke:#000000;stroke-width:1px;stroke-linecap:butt;stroke-linejoin:miter;stroke-opacity:1"
       d="m 1469.5338,1753.4798 66.8085,146.6205"
       id="path853" />
  </g>
  <g
     id="g862"
     transform="translate(1419.4715,0.85540443)">
    <text
       xml:space="preserve"
       style="font-style:italic;font-weight:bold;font-size:48px;line-height:1.25;font-family:sans-serif;-inkscape-font-specification:'sans-serif Bold Italic';letter-spacing:0px"
       x="326.81525"
       y="496.27499"
       id="text845"><tspan
         sodipodi:role="line"
         id="tspan843"
         x="326.81525"
         y="496.27499">j2: 200 uA / cm2</tspan></text>
    <path
       style="fill:none;stroke:#000000;stroke-width:1px;stroke-linecap:butt;stroke-linejoin:miter;stroke-opacity:1"
       d="M 541.3574,635.68482 311.69062,480.73107"
       id="path855" />
  </g>
  <g
     id="g867"
     transform="translate(1418.9366,-0.04063947)">
    <text
       xml:space="preserve"
       style="font-style:italic;font-weight:bold;font-size:48px;line-height:1.25;font-family:sans-serif;-inkscape-font-specification:'sans-serif Bold Italic';letter-spacing:0px"
       x="609.24817"
       y="1662.3195"
       id="text849"><tspan
         sodipodi:role="line"
         id="tspan847"
         x="609.24817"
         y="1662.3195">j1: -200 uA / cm2</tspan></text>
    <path
       style="fill:none;stroke:#000000;stroke-width:1px;stroke-linecap:butt;stroke-linejoin:miter;stroke-opacity:1"
       d="m 541.53571,1753.7947 56.88175,-102.619"
       id="path857" />
  </g>
  <text
     xml:space="preserve"
     style="font-style:italic;font-weight:bold;font-size:48px;line-height:1.25;font-family:sans-serif;-inkscape-font-specification:'sans-serif Bold Italic';letter-spacing:0px"
     x="2851.592"
     y="836.51923"
     id="text893"><tspan
       sodipodi:role="line"
       id="tspan891"
       x="2851.592"
       y="836.51923">Figure: 2b</tspan></text>
  <text
     xml:space="preserve"
     style="font-style:italic;font-weight:bold;font-size:48px;line-height:1.25;font-family:sans-serif;-inkscape-font-specification:'sans-serif Bold Italic';letter-spacing:0px"
     x="2855.6267"
     y="927.30121"
     id="text897"><tspan
       sodipodi:role="line"
       id="tspan895"
       x="2855.6267"
       y="927.30121">tags: BCV</tspan></text>
  <text
     xml:space="preserve"
     style="font-style:italic;font-weight:bold;font-size:48px;line-height:1.25;font-family:sans-serif;-inkscape-font-specification:'sans-serif Bold Italic';letter-spacing:0px"
     x="2621.6111"
     y="1056.4132"
     id="text901"><tspan
       sodipodi:role="line"
       id="tspan899"
       x="2621.6111"
       y="1056.4132">scan rate: 50 mV / s</tspan></text>
  <g
     id="g954">
    <path
       style="fill:none;stroke:#1ce800;stroke-width:1px;stroke-linecap:butt;stroke-linejoin:miter;stroke-opacity:1"
       d="m 2202.7247,1067.8234 c 6.859,-2.7063 17.6744,15.2243 24.5039,21.5429 6.1078,5.6508 14.7695,2.0684 18.2393,-2.8821 10.0153,-14.2895 11.5917,-68.9117 11.8647,-80.5131 1.0204,-43.36089 4.5616,-127.83237 6.9221,-128.03339 2.454,-0.20899 3.4626,53.08566 5.2172,104.56848 1.0507,30.82701 2.9433,60.99821 3.9871,79.26511 2.9515,51.6522 27.4887,44.8721 55.213,48.3865 32.6152,4.1343 70.3515,14.0913 84.8687,28.7782 11.4479,11.5817 23.5045,21.3109 38.2897,28.9531 10.8473,5.6067 21.789,10.584 34.3314,13.3163 15.2943,3.3319 32.361,3.8466 46.9085,4.6346 28.1343,1.5239 88.4583,0.6664 98.6428,0.7436 41.7436,0.3164 77.1026,-6.9453 86.7038,-9.5696 32.5631,-8.9005 57.2086,-34.7362 89.1556,-45.6432 14.4886,-4.9465 28.3362,-5.7368 40.2559,-8.1982 8.9413,-1.8464 16.33,-5.023 24.6658,-9.4538 16.1131,-8.5646 21.7167,-28.8536 30.765,-28.3694 6.4771,0.3466 14.6343,23.9473 24.5658,44.6948 8.4357,17.6224 20.8525,25.3619 25.9476,26.8941 13.7009,4.1202 27.8162,-2.1464 33.9643,-6.5285 l -0.6304,40.7259 c -11.7043,13.347 -33.7738,22.9422 -47.1562,38.078 -16.6551,18.8373 -28.2525,63.278 -39.8433,64.0517 -2.4719,0.165 -8.502,-8.8601 -20.2956,-19.0111 -8.6188,-7.4183 -24.0988,-5.2718 -42.117,-5.0713 -18.3051,0.2037 -38.3662,-6.8336 -55.0124,-14.6115 -21.148,-9.8814 -37.62,-27.3559 -60.1042,-33.3013 -40.5302,-10.7172 -82.9159,-14.3085 -124.8253,-15.3825 -45.9553,-1.1777 -114.8126,0.1213 -137.56,9.8348 -40.8477,17.4427 -39.6924,32.0892 -70.7906,47.1121 -8.7315,4.218 -18.6371,6.7862 -31.213,10.3831 -39.1008,11.1833 -51.0504,2.6006 -73.5083,13.3652 -14.7157,7.0536 -15.5222,51.5932 -18.1743,98.717 -2.9908,53.1425 -3.7293,107.0926 -5.0255,106.9294 -1.6544,-0.2084 -3.3031,-46.0034 -5.7546,-92.8441 -2.5526,-48.772 -6.2007,-98.6778 -23.2452,-99.4372 -27.3694,-1.2193 -34.9484,110.1786 -38.078,109.9471 -3.8324,-0.2835 -2.9036,-126.446 -1.1348,-189.6335 1.4246,-50.8905 -0.075,-148.6773 9.4565,-152.4382 z"
       id="path895"
       sodipodi:nodetypes="ssssssssssssssssssssccssssssssssssssssss" />
    <text
       xml:space="preserve"
       style="font-style:italic;font-weight:bold;font-size:48px;line-height:1.25;font-family:sans-serif;-inkscape-font-specification:'sans-serif Bold Italic';letter-spacing:0px"
       x="2380.5061"
       y="806.95123"
       id="text949"><tspan
         sodipodi:role="line"
         id="tspan947"
         x="2380.5061"
         y="806.95123">curve: black</tspan></text>
  </g>
</svg>
