<?xml version="1.0" encoding="UTF-8" standalone="no"?>
<svg
   xmlns:dc="http://purl.org/dc/elements/1.1/"
   xmlns:cc="http://creativecommons.org/ns#"
   xmlns:rdf="http://www.w3.org/1999/02/22-rdf-syntax-ns#"
   xmlns:svg="http://www.w3.org/2000/svg"
   xmlns="http://www.w3.org/2000/svg"
   xmlns:xlink="http://www.w3.org/1999/xlink"
   xmlns:sodipodi="http://sodipodi.sourceforge.net/DTD/sodipodi-0.dtd"
   xmlns:inkscape="http://www.inkscape.org/namespaces/inkscape"
   height="6617px"
   version="1.1"
   width="4959px"
   id="svg6"
   sodipodi:docname="taguchi_2007_electrochemical_6023_p3_f2e.svg"
   inkscape:version="1.0.2-2 (e86c870879, 2021-01-15)">
  <metadata
     id="metadata10">
    <rdf:RDF>
      <cc:Work
         rdf:about="">
        <dc:format>image/svg+xml</dc:format>
        <dc:type
           rdf:resource="http://purl.org/dc/dcmitype/StillImage" />
      </cc:Work>
    </rdf:RDF>
  </metadata>
  <sodipodi:namedview
     pagecolor="#ffffff"
     bordercolor="#666666"
     borderopacity="1"
     objecttolerance="10"
     gridtolerance="10"
     guidetolerance="10"
     inkscape:pageopacity="0"
     inkscape:pageshadow="2"
     inkscape:window-width="1920"
     inkscape:window-height="991"
     id="namedview8"
     showgrid="false"
     inkscape:zoom="0.49569291"
     inkscape:cx="2776.2289"
     inkscape:cy="2714.7316"
     inkscape:window-x="-9"
     inkscape:window-y="-9"
     inkscape:window-maximized="1"
     inkscape:current-layer="svg6"
     inkscape:document-rotation="0" />
  <defs
     id="defs2" />
  <image
     sodipodi:absref="C:\Users\tobia\ownCloud3\PPS\digitizer\push\taguchi_2007_electrochemical_6023\taguchi_2007_electrochemical_6023_p3.png"
     xlink:href="taguchi_2007_electrochemical_6023_p3.png"
     id="image4"
     y="0"
     x="0"
     width="4959px"
     sodipodi:insensitive="true"
     height="6617px" />
  <g
     id="g872"
     transform="translate(1434.9601,1447.2909)">
    <text
       xml:space="preserve"
       style="font-style:italic;font-weight:bold;font-size:48px;line-height:1.25;font-family:sans-serif;-inkscape-font-specification:'sans-serif Bold Italic';letter-spacing:0px"
       x="399.44086"
       y="1916.5092"
       id="text841"><tspan
         sodipodi:role="line"
         id="tspan839"
         x="399.44086"
         y="1916.5092">E1: 0.0 V vs RHE</tspan></text>
    <path
       style="fill:none;stroke:#000000;stroke-width:1px;stroke-linecap:butt;stroke-linejoin:miter;stroke-opacity:1"
       d="M 724.84118,1752.279 385.82355,1893.3093"
       id="path851" />
  </g>
  <g
     id="g877"
     transform="translate(1434.4067,1446.2548)">
    <text
       xml:space="preserve"
       style="font-style:italic;font-weight:bold;font-size:48px;line-height:1.25;font-family:sans-serif;-inkscape-font-specification:'sans-serif Bold Italic';letter-spacing:0px"
       x="1547.329"
       y="1914.4918"
       id="text837"><tspan
         sodipodi:role="line"
         id="tspan835"
         x="1547.329"
         y="1914.4918">E2: 0.8 V vs RHE</tspan></text>
    <path
       style="fill:none;stroke:#000000;stroke-width:1px;stroke-linecap:butt;stroke-linejoin:miter;stroke-opacity:1"
       d="m 1469.5338,1753.4798 66.8085,146.6205"
       id="path853" />
  </g>
  <g
     id="g862"
     transform="translate(1434.0685,1446.8897)">
    <text
       xml:space="preserve"
       style="font-style:italic;font-weight:bold;font-size:48px;line-height:1.25;font-family:sans-serif;-inkscape-font-specification:'sans-serif Bold Italic';letter-spacing:0px"
       x="326.81525"
       y="496.27499"
       id="text845"><tspan
         sodipodi:role="line"
         id="tspan843"
         x="326.81525"
         y="496.27499">j2: 200 uA / cm2</tspan></text>
    <path
       style="fill:none;stroke:#000000;stroke-width:1px;stroke-linecap:butt;stroke-linejoin:miter;stroke-opacity:1"
       d="M 541.3574,635.68482 311.69062,480.73107"
       id="path855" />
  </g>
  <g
     id="g867"
     transform="translate(1433.8456,1446.5286)">
    <text
       xml:space="preserve"
       style="font-style:italic;font-weight:bold;font-size:48px;line-height:1.25;font-family:sans-serif;-inkscape-font-specification:'sans-serif Bold Italic';letter-spacing:0px"
       x="609.24817"
       y="1662.3195"
       id="text849"><tspan
         sodipodi:role="line"
         id="tspan847"
         x="609.24817"
         y="1662.3195">j1: -200 uA / cm2</tspan></text>
    <path
       style="fill:none;stroke:#000000;stroke-width:1px;stroke-linecap:butt;stroke-linejoin:miter;stroke-opacity:1"
       d="m 541.53571,1753.7947 56.88175,-102.619"
       id="path857" />
  </g>
  <text
     xml:space="preserve"
     style="font-style:italic;font-weight:bold;font-size:48px;line-height:1.25;font-family:sans-serif;-inkscape-font-specification:'sans-serif Bold Italic';letter-spacing:0px"
     x="2849.603"
     y="2284.2163"
     id="text893"><tspan
       sodipodi:role="line"
       id="tspan891"
       x="2849.603"
       y="2284.2163">Figure: 2e</tspan></text>
  <text
     xml:space="preserve"
     style="font-style:italic;font-weight:bold;font-size:48px;line-height:1.25;font-family:sans-serif;-inkscape-font-specification:'sans-serif Bold Italic';letter-spacing:0px"
     x="2853.6377"
     y="2374.9983"
     id="text897"><tspan
       sodipodi:role="line"
       id="tspan895"
       x="2853.6377"
       y="2374.9983">tags: BCV</tspan></text>
  <text
     xml:space="preserve"
     style="font-style:italic;font-weight:bold;font-size:48px;line-height:1.25;font-family:sans-serif;-inkscape-font-specification:'sans-serif Bold Italic';letter-spacing:0px"
     x="2619.6218"
     y="2504.1104"
     id="text901"><tspan
       sodipodi:role="line"
       id="tspan899"
       x="2619.6218"
       y="2504.1104">scan rate: 50 mV / s</tspan></text>
  <g
     id="g1028">
    <path
       style="fill:none;stroke:#1ef700;stroke-width:1px;stroke-linecap:butt;stroke-linejoin:miter;stroke-opacity:1"
       d="m 2222.5761,2501.82 c -12.3653,3.8216 -11.1555,23.6889 -11.9442,37.353 -5.1777,89.7029 -2.229,337.7243 -2.229,337.7243 2.255,-10.4763 5.5587,-36.1746 9.5985,-54.4056 4.7082,-21.2469 14.3421,-59.5282 26.5182,-59.6586 16.0708,-0.1721 19.4027,44.8491 20.7699,68.7495 5.4591,95.4318 7.0023,293.722 11.0256,294.265 4.6539,0.6281 8.3799,-152.127 12.2284,-228.7346 4.4407,-88.3963 6.8967,-101.0903 14.8483,-140.2817 4.4055,-21.7141 15.4896,-29.6755 29.5712,-36.2507 35.4236,-16.5405 64.8136,-45.4643 101.6988,-58.4221 27.5083,-9.6637 55.1824,-13.7646 86.4308,-13.4377 58.2203,0.609 116.3675,0.705 174.5898,5.3035 29.4251,2.3241 59.2831,6.4284 86.9677,16.6655 28.8585,10.6712 50.4693,36.1652 70.9738,41.3938 14.8109,3.7767 34.6043,4.4707 45.8199,-1.7806 5.5006,-3.0659 5.1353,-11.6438 6.1725,-17.8551 l -0.2414,-125.8095 c -21.0406,0.8434 -55.9649,10.8795 -64.6174,17.0175 -26.569,18.8479 -44.0807,33.6269 -75.5691,41.9713 -34.1879,9.0599 -115.5184,12.0174 -188.1471,12.18 -52.5441,0.1177 -103.4334,4.8552 -155.848,-23.6527 -28.7844,-15.6556 -51.7147,-35.2355 -81.8362,-51.377 -5.6644,-3.0355 -16.727,-11.2783 -21.7593,-15.1499 -20.7428,-15.9585 -25.2521,-116.8316 -28.0957,-178.2849 -3.2555,-70.3565 -4.6921,-215.963 -9.4293,-215.945 -5.1652,0.02 -6.0415,160.1431 -9.6432,240.1008 -1.4363,31.8866 -2.995,62.8763 -7.325,95.4761 -1.537,11.5715 -4.9299,29.5017 -13.8885,31.2184 -11.4215,2.1886 -16.9537,-21.3667 -26.64,-18.373 z"
       id="path889"
       sodipodi:nodetypes="sscsssssssssssssccssssssssssss" />
    <text
       xml:space="preserve"
       style="font-style:italic;font-weight:bold;font-size:48px;line-height:1.25;font-family:sans-serif;-inkscape-font-specification:'sans-serif Bold Italic';letter-spacing:0px"
       x="2324.4326"
       y="2206.178"
       id="text1023"><tspan
         sodipodi:role="line"
         id="tspan1021"
         x="2324.4326"
         y="2206.178">curve: solid</tspan></text>
  </g>
</svg>
