<?xml version="1.0" encoding="UTF-8" standalone="no"?>
<svg
   height="5400px"
   version="1.1"
   width="3901px"
   id="svg77033"
   sodipodi:docname="zei_1991_the_295_f3b_solid.svg"
   inkscape:version="1.1.2 (b8e25be833, 2022-02-05)"
   xmlns:inkscape="http://www.inkscape.org/namespaces/inkscape"
   xmlns:sodipodi="http://sodipodi.sourceforge.net/DTD/sodipodi-0.dtd"
   xmlns:xlink="http://www.w3.org/1999/xlink"
   xmlns="http://www.w3.org/2000/svg"
   xmlns:svg="http://www.w3.org/2000/svg">
  <sodipodi:namedview
     id="namedview77035"
     pagecolor="#ffffff"
     bordercolor="#666666"
     borderopacity="1.0"
     inkscape:pageshadow="2"
     inkscape:pageopacity="0.0"
     inkscape:pagecheckerboard="0"
     showgrid="false"
     inkscape:zoom="0.13944445"
     inkscape:cx="1814.3426"
     inkscape:cy="4553.7847"
     inkscape:window-width="1920"
     inkscape:window-height="1017"
     inkscape:window-x="-8"
     inkscape:window-y="32"
     inkscape:window-maximized="1"
     inkscape:current-layer="svg77033" />
  <defs
     id="defs77029" />
  <image
     height="5400px"
     sodipodi:insensitive="true"
     width="3901px"
     x="0"
     xlink:href="Zei_1991_The_295_p3.png"
     y="0"
     id="image77031" />
  <text
     xml:space="preserve"
     style="font-size:85.3333px;line-height:1.25;font-family:sans-serif"
     x="899.22955"
     y="4454.6045"
     id="text41285-9"><tspan
       sodipodi:role="line"
       id="tspan41283-1"
       x="899.22955"
       y="4454.6045">scan rate: 100 mV / s</tspan></text>
  <g
     id="g35">
    <text
       xml:space="preserve"
       style="font-style:normal;font-weight:normal;font-size:85.3333px;line-height:1.25;font-family:sans-serif;fill:#000000;fill-opacity:1;stroke:none"
       x="-1087.3318"
       y="4192.353"
       id="text22633-0"><tspan
         sodipodi:role="line"
         id="tspan22631-6"
         x="-1087.3318"
         y="4192.353"
         style="font-size:85.3333px">j1: -32 uA / cm2</tspan></text>
    <path
       style="fill:none;stroke:#000000;stroke-width:1.05535px;stroke-linecap:butt;stroke-linejoin:miter;stroke-opacity:1"
       d="M 744.79936,4439.1475 -455.96056,4186.7788"
       id="path58530" />
  </g>
  <g
     id="g30">
    <text
       xml:space="preserve"
       style="font-style:normal;font-weight:normal;font-size:85.3333px;line-height:1.25;font-family:sans-serif;fill:#000000;fill-opacity:1;stroke:none"
       x="-1005.085"
       y="3469.3521"
       id="text22633"><tspan
         sodipodi:role="line"
         id="tspan22631"
         x="-1005.085"
         y="3469.3521"
         style="font-size:85.3333px">j2: 32 uA / cm2</tspan></text>
    <path
       style="fill:none;stroke:#000000;stroke-width:1px;stroke-linecap:butt;stroke-linejoin:miter;stroke-opacity:1"
       d="M 745.6124,3713.8201 -323.37234,3482.4044"
       id="path58532" />
  </g>
  <g
     id="g40">
    <path
       style="fill:none;stroke:#000000;stroke-width:0.638215px;stroke-linecap:butt;stroke-linejoin:miter;stroke-opacity:1"
       d="M 1073.3923,4528.0795 285.12083,4662.6867"
       id="path58649" />
    <text
       xml:space="preserve"
       style="font-size:85.3333px;line-height:1.25;font-family:sans-serif"
       x="-510.31387"
       y="4694.0679"
       id="text62451"><tspan
         sodipodi:role="line"
         id="tspan62449"
         x="-510.31387"
         y="4694.0679">E1: -1 V vs Ag/AgCl</tspan></text>
  </g>
  <g
     id="g45">
    <path
       style="fill:none;stroke:#000000;stroke-width:0.924342px;stroke-linecap:butt;stroke-linejoin:miter;stroke-opacity:1"
       d="m 1971.5733,4528.2515 821.1585,132.2526"
       id="path58647" />
    <text
       xml:space="preserve"
       style="font-size:85.3333px;line-height:1.25;font-family:sans-serif"
       x="2808.6213"
       y="4689.8813"
       id="text71101"><tspan
         sodipodi:role="line"
         id="tspan71099"
         x="2808.6213"
         y="4689.8813">E2: 0 V vs Ag/AgCl</tspan></text>
  </g>
  <g
     id="g103">
    <text
       xml:space="preserve"
       style="font-size:85.3333px;line-height:1.25;font-family:sans-serif"
       x="1057.1089"
       y="3770.1145"
       id="text41285"><tspan
         sodipodi:role="line"
         id="tspan41283"
         x="1057.1089"
         y="3770.1145">curve: solid</tspan></text>
    <path
       style="fill:none;stroke:#000000;stroke-width:1px;stroke-linecap:butt;stroke-linejoin:miter;stroke-opacity:1"
       d="m 804.03349,4145.7357 c -3.4405,-2.4878 -1.99111,-8.4904 -1.26742,-12.674 1.51433,-8.7542 6.29087,-16.8249 11.40656,-24.0885 3.78592,-5.3755 8.53149,-10.2168 13.94129,-13.9535 7.62444,-5.2664 16.86353,-7.6885 25.34785,-11.4146 5.89068,-2.587 11.51048,-6.0018 17.7435,-7.5963 12.74698,-3.2608 26.14701,-3.1643 39.28918,-3.7981 9.29425,-0.4482 18.63201,0.6382 27.91514,0 12.3387,-0.8483 24.57217,-2.9431 36.7544,-5.0777 19.99562,-3.5037 39.90751,-7.6156 59.56741,-12.6739 14.1179,-3.6324 28.8286,-6.133 41.8565,-12.674 10.7989,-5.4219 20.7002,-12.9118 29.15,-21.5497 12.2961,-12.57 21.571,-27.9028 30.4174,-43.0995 7.9877,-13.7216 13.427,-28.7765 20.2783,-43.0994 7.5041,-15.6877 14.4802,-31.6543 22.813,-46.9179 5.4501,-9.9832 9.9378,-20.8731 17.7435,-29.146 4.5913,-4.8661 10.1222,-9.4217 16.5087,-11.4146 6.0492,-1.8877 12.9237,-1.7617 19.0108,0 9.1201,2.6395 16.3112,9.7554 24.0805,15.2127 7.8846,5.5383 14.9751,12.1476 22.8131,17.7517 11.9158,8.5196 24.0552,16.7877 36.7543,24.0885 11.4639,6.5907 23.3187,12.5553 35.487,17.7313 12.7983,5.444 26.0071,9.9343 39.3217,13.9536 10.0062,3.0206 20.1058,5.9079 30.4174,7.6165 15.0561,2.4947 30.3911,2.9038 45.6262,3.7981 12.2484,0.719 24.6273,-0.3796 36.7868,1.2593 9.038,1.2182 18.304,2.5828 26.6152,6.3369 8.0122,3.6191 14.181,10.4112 21.5457,15.2128 6.1918,4.0369 12.8377,7.3495 19.0109,11.4147 10.8687,7.1572 20.6772,15.8673 31.6848,22.809 12.6425,7.9727 25.1248,16.8758 39.3217,21.5497 14.983,4.9327 31.1324,5.7134 46.8934,6.3573 8.0315,0.3281 16.0436,-1.4154 24.0806,-1.2796 19.5041,0.3295 38.8003,5.6054 58.3,5.0777 21.623,-0.5851 28.2439,-1.2986 49.4608,-3.7981 9.65,-1.1368 19.8109,2.6821 29.1501,0 7.6648,-2.2012 13.9229,-7.8772 20.2783,-12.6943 5.0051,-3.7936 10.0603,-7.7362 13.9412,-12.6739 6.5429,-8.3246 11.2211,-18.0782 15.2088,-27.8867 4.1307,-10.1602 6.4373,-20.9906 8.8717,-31.6848 4.8571,-21.3367 8.5491,-42.954 11.4066,-64.6492 2.5479,-19.3446 3.4067,-38.8743 5.102,-58.3122 1.6952,-19.437 3.8783,-38.838 5.0696,-58.3123 l 1.901,-31.0755 c 0,0 4.4358,4.4278 11.4066,54.5041 2.3315,16.7491 2.3401,40.8024 3.1685,57.6927 0.8509,17.3505 1.973,34.7004 3.8022,51.9752 1.6173,15.2733 5.2782,30.3161 6.3369,45.6383 0.8157,11.8063 -1.9977,23.8387 0,35.5033 1.2858,7.508 4.1487,14.7613 7.6043,21.5497 3.7202,7.3082 7.3897,15.3382 13.9414,20.2702 4.27,3.2144 9.8856,4.597 15.2086,5.0777 5.9506,0.5373 14.2491,-7.3852 17.7436,-2.5389 3.869,5.3656 -4.7427,12.5835 -8.8717,17.7516 -3.7489,4.6924 -10.2797,6.6539 -13.9414,11.4147 -6.2251,8.0934 -8.8401,18.4232 -12.6739,27.8867 -2.3567,5.8173 -2.6938,12.6202 -6.3369,17.7313 -3.1422,4.4083 -7.9196,7.5665 -12.674,10.1554 -5.8664,3.1944 -12.6896,4.1783 -19.0109,6.337 -8.4816,2.8965 -17.3166,4.9639 -25.3804,8.8758 -4.9565,2.4045 -10.9212,4.2683 -13.9412,8.8757 -4.4563,6.7987 -2.5,16.0647 -3.8022,24.0887 -1.6459,10.1423 -4.4911,20.1465 -5.0695,30.4052 -0.9053,16.0558 2.2794,32.0979 2.5346,48.1772 0.322,20.2855 -0.7392,40.5699 -1.2672,60.8511 -0.3521,13.5222 -0.5908,27.0507 -1.2674,40.5606 -0.6144,12.2679 -1.5394,24.5196 -2.5349,36.7625 -1.1011,13.5415 -3.1678,27.0095 -3.8022,40.5809 -0.809,17.3062 0.5765,34.6598 0,51.9753 -0.2114,6.3475 4.0064,15.4721 -1.2674,19.0108 -2.219,1.489 -5.9859,-0.4123 -7.6043,-2.5388 -9.7394,-12.7965 -1.2552,-32.1468 -2.5348,-48.1771 -0.9465,-11.8577 -2.8189,-23.6283 -3.8021,-35.483 -1.1895,-14.3421 -1.0004,-28.7901 -2.5348,-43.0994 -1.4598,-13.6129 -4.9284,-26.9627 -6.337,-40.581 -1.6976,-16.4129 -1.4631,-32.9708 -2.5348,-49.4364 -1.0462,-16.075 -1.6813,-32.2084 -3.8022,-48.1772 -1.8111,-13.636 -2.8885,-27.6384 -7.6043,-40.5606 -3.826,-10.4839 -9.8891,-20.1369 -16.4761,-29.1459 -4.765,-6.517 -9.2916,-14.0696 -16.4762,-17.7517 -6.0624,-3.107 -13.4869,-2.0061 -20.2782,-2.5388 -13.0738,-1.0255 -26.208,-1.1747 -39.3217,-1.2593 -21.9717,-0.1418 -43.968,0.01 -65.9043,1.2593 -8.8975,0.5086 -17.7736,1.4218 -26.6154,2.5388 -8.0725,1.0198 -16.2075,1.8714 -24.1128,3.7981 -9.0861,2.2145 -17.975,5.2971 -26.6153,8.8759 -6.9815,2.8917 -13.5941,6.6101 -20.2783,10.135 -11.542,6.0867 -23.5588,11.4867 -34.2196,19.0109 -11.4987,8.1155 -20.9066,18.8566 -31.6848,27.907 -6.2155,5.2191 -12.8031,9.9845 -19.0109,15.2128 -3.8965,3.2817 -6.7828,8.0681 -11.439,10.1351 -10.4895,4.6565 -22.787,2.7948 -34.2196,3.7981 -13.0735,1.1473 -26.3222,0.5166 -39.2892,2.5388 -13.7682,2.1472 -27.1141,6.4645 -40.5566,10.1351 -11.488,3.1369 -23.1127,5.9446 -34.252,10.1554 -12.1988,4.6112 -23.7815,10.7227 -35.487,16.4721 -11.5338,5.6651 -23.4982,10.6682 -34.2196,17.7516 -7.7641,5.1295 -13.8694,12.4917 -21.5457,17.7516 -12.7947,8.767 -27.06,15.1664 -40.5565,22.809 -5.9353,3.361 -11.183,8.3876 -17.7761,10.1351 -6.5338,1.7318 -13.9001,2.2378 -20.2783,0 -7.6584,-2.687 -14.3381,-8.5767 -19.0108,-15.2128 -8.2309,-11.6895 -8.7351,-27.2457 -13.9413,-40.5606 -8.4061,-21.4988 -17.1231,-42.9672 -27.8827,-63.39 -6.7222,-12.7594 -13.852,-25.4624 -22.813,-36.7625 -4.8253,-6.0849 -10.1273,-11.9996 -16.4761,-16.472 -7.27,-5.1213 -15.9232,-7.9495 -24.113,-11.4147 -6.6476,-2.8127 -13.274,-5.8525 -20.2783,-7.5962 -9.5086,-2.3672 -19.4006,-2.815 -29.15,-3.7981 -11.7994,-1.1898 -23.65696,-1.7071 -35.48699,-2.5389 -12.2504,-0.8613 -24.50192,-1.7069 -36.75436,-2.5388 -12.68376,-0.8612 -25.34273,-2.3493 -38.05428,-2.5389 -11.41299,-0.1703 -22.82716,0.554 -34.21961,1.2593 -9.73482,0.6027 -19.70668,0.099 -29.15001,2.5389 -4.02956,1.0412 -7.45451,3.7728 -11.40655,5.0777 -3.6988,1.2213 -8.25006,4.8212 -11.40651,2.5388 z"
       id="path120843"
       sodipodi:nodetypes="ssssssssssssssssssssssssssssssssssssssssssscssssssssssssssssssssssssssssssssssssssssssssssssssssssssssssssssssssssss" />
  </g>
  <text
     xml:space="preserve"
     style="font-size:80px;line-height:1.25;font-family:sans-serif;-inkscape-font-specification:sans-serif;letter-spacing:0px;word-spacing:0px"
     x="4238.2466"
     y="3614.3425"
     id="text3846"><tspan
       sodipodi:role="line"
       id="tspan3844"
       x="4238.2466"
       y="3614.3425">Figure: 3b</tspan></text>
  <text
     xml:space="preserve"
     style="font-size:80px;line-height:1.25;font-family:sans-serif;-inkscape-font-specification:sans-serif;letter-spacing:0px;word-spacing:0px"
     x="4302.7886"
     y="3779.2827"
     id="text4708"><tspan
       sodipodi:role="line"
       id="tspan4706"
       x="4302.7886"
       y="3779.2827">Tags: BCV</tspan></text>
</svg>
