<?xml version="1.0" encoding="UTF-8" standalone="no"?>
<svg
   height="5400px"
   version="1.1"
   width="3901px"
   id="svg53"
   sodipodi:docname="Zei_1991_The_295_f3a.svg"
   inkscape:version="1.1 (ce6663b3b7, 2021-05-25)"
   xmlns:inkscape="http://www.inkscape.org/namespaces/inkscape"
   xmlns:sodipodi="http://sodipodi.sourceforge.net/DTD/sodipodi-0.dtd"
   xmlns:xlink="http://www.w3.org/1999/xlink"
   xmlns="http://www.w3.org/2000/svg"
   xmlns:svg="http://www.w3.org/2000/svg">
  <sodipodi:namedview
     id="namedview55"
     pagecolor="#ffffff"
     bordercolor="#666666"
     borderopacity="1.0"
     inkscape:pageshadow="2"
     inkscape:pageopacity="0.0"
     inkscape:pagecheckerboard="0"
     showgrid="false"
     inkscape:snap-text-baseline="false"
     inkscape:zoom="0.19249018"
     inkscape:cx="1997.5045"
     inkscape:cy="3301.4671"
     inkscape:window-width="1608"
     inkscape:window-height="986"
     inkscape:window-x="72"
     inkscape:window-y="27"
     inkscape:window-maximized="1"
     inkscape:current-layer="svg53" />
  <defs
     id="defs49" />
  <image
     height="5400px"
     sodipodi:insensitive="true"
     width="3901px"
     x="0"
     xlink:href="Zei_1991_The_295_p3.png"
     y="0"
     id="image51" />
  <text
     xml:space="preserve"
     style="font-size:85.3333px;line-height:1.25;font-family:sans-serif"
     x="971.1897"
     y="3539.437"
     id="text41285-9"><tspan
       sodipodi:role="line"
       id="tspan41283-1"
       x="971.1897"
       y="3539.437">scan rate: 100 mV / s</tspan></text>
  <g
     id="g251">
    <text
       xml:space="preserve"
       style="font-style:normal;font-weight:normal;font-size:85.3333px;line-height:1.25;font-family:sans-serif;fill:#000000;fill-opacity:1;stroke:none"
       x="-434.27808"
       y="3270.062"
       id="text22633-0"><tspan
         sodipodi:role="line"
         id="tspan22631-6"
         x="-434.27808"
         y="3270.062"
         style="font-size:85.3333px">j1: -32 uA / cm2</tspan></text>
    <path
       style="fill:none;stroke:#000000;stroke-width:1px;stroke-linecap:butt;stroke-linejoin:miter;stroke-opacity:1"
       d="M 744.26738,3539.2625 -361.44265,3293.1921"
       id="path58530" />
  </g>
  <g
     id="g236">
    <text
       xml:space="preserve"
       style="font-style:normal;font-weight:normal;font-size:85.3333px;line-height:1.25;font-family:sans-serif;fill:#000000;fill-opacity:1;stroke:none"
       x="-395.0477"
       y="2389.3103"
       id="text22633"><tspan
         sodipodi:role="line"
         id="tspan22631"
         x="-395.0477"
         y="2389.3103"
         style="font-size:85.3333px">j2: 48 uA / cm2</tspan></text>
    <path
       style="fill:none;stroke:#000000;stroke-width:1px;stroke-linecap:butt;stroke-linejoin:miter;stroke-opacity:1"
       d="M 740.59474,2638.856 -328.39,2407.4403"
       id="path58532" />
  </g>
  <g
     id="g246">
    <path
       style="fill:none;stroke:#000000;stroke-width:1px;stroke-linecap:butt;stroke-linejoin:miter;stroke-opacity:1"
       d="M 1074.1527,3630.4371 357.82373,3994.0987"
       id="path58649" />
    <text
       xml:space="preserve"
       style="font-size:85.3333px;line-height:1.25;font-family:sans-serif"
       x="357.82373"
       y="3994.0986"
       id="text62451"><tspan
         sodipodi:role="line"
         id="tspan62449"
         x="357.82373"
         y="3994.0986">E1: -1 V vs Ag/AgCl</tspan></text>
  </g>
  <g
     id="g241">
    <path
       style="fill:none;stroke:#000000;stroke-width:1px;stroke-linecap:butt;stroke-linejoin:miter;stroke-opacity:1"
       d="m 1974.1076,3633.237 576.6793,220.4099"
       id="path58647" />
    <text
       xml:space="preserve"
       style="font-size:85.3333px;line-height:1.25;font-family:sans-serif"
       x="2550.7869"
       y="3853.647"
       id="text71101"><tspan
         sodipodi:role="line"
         id="tspan71099"
         x="2550.7869"
         y="3853.647">E2: 0 V vs Ag/AgCl</tspan></text>
  </g>
  <g
     id="g5264">
    <text
       xml:space="preserve"
       style="font-size:85.3333px;line-height:1.25;font-family:sans-serif"
       x="1150.5778"
       y="2582.9412"
       id="text41285"><tspan
         sodipodi:role="line"
         id="tspan41283"
         x="1150.5778"
         y="2582.9412">curve: a_Ag(111)_NaCl</tspan></text>
    <path
       style="fill:none;stroke:#000000;stroke-width:1px;stroke-linecap:butt;stroke-linejoin:miter;stroke-opacity:1"
       d="m 878.25724,3230.326 c -6.90971,-9.7033 5.05372,-23.8766 11.68585,-33.7717 5.46314,-8.151 13.25453,-15.1737 22.07334,-19.4764 6.34174,-3.0941 13.83635,-2.8027 20.80819,-3.8912 10.34367,-1.6149 20.73904,-2.935 31.16233,-3.9119 6.90803,-0.6474 13.8593,-0.7292 20.7749,-1.2901 17.34215,-1.4065 34.66505,-3.1052 51.93725,-5.2021 15.2015,-1.8455 30.3087,-4.4005 45.4783,-6.4921 12.9759,-1.7891 26.0557,-2.8926 38.9529,-5.1812 11.7877,-2.0917 23.4203,-4.9927 35.0576,-7.8031 9.9996,-2.4149 20.0014,-4.8577 29.864,-7.7822 15.7568,-4.6723 32.1923,-8.0091 46.7768,-15.5854 10.9856,-5.7068 20.6119,-13.8523 29.8639,-22.0775 14.6485,-13.0228 25.4616,-30.0025 40.2513,-42.8648 6.7964,-5.9107 14.1763,-11.2539 22.0734,-15.5853 9.021,-4.9479 18.5703,-9.2532 28.5654,-11.6942 13.9428,-3.4051 28.5436,-3.242 42.8815,-3.8912 12.971,-0.5873 26.0519,-1.4678 38.953,0 11.4741,1.3054 22.5097,5.1726 33.7591,7.7823 12.9885,3.0131 25.982,6.0056 38.953,9.0931 14.3087,3.4059 28.5871,6.9381 42.8814,10.4041 14.2823,3.4631 28.5655,6.9222 42.8483,10.3833 14.2827,3.4611 28.3173,8.1856 42.8482,10.3833 13.732,2.0769 27.7192,1.7817 41.5831,2.601 15.5781,0.9206 31.1578,1.8205 46.7435,2.601 19.4714,0.9751 38.9669,1.4624 58.4294,2.6011 23.8374,1.3946 47.6427,3.3036 71.4469,5.1812 20.3527,1.6054 40.6986,7.0971 61.0263,5.2021 8.0506,-0.7505 16.7256,-1.8873 23.3717,-6.4922 4.847,-3.3583 7.7805,-9.0226 10.4207,-14.2952 2.6352,-5.2627 3.6653,-11.1919 5.1938,-16.8755 1.4992,-5.575 2.5728,-11.2559 3.8952,-16.8754 2.5506,-10.8382 6.2709,-21.4515 7.7907,-32.4816 1.5368,-11.1532 0.4769,-22.5222 1.2985,-33.7508 1.1761,-16.0726 3.4697,-32.0438 5.1936,-48.0669 2.6079,-24.2403 5.4208,-48.4598 7.7906,-72.7246 1.4362,-14.7055 1.6946,-29.5443 3.8953,-44.155 1.8467,-12.2609 5.4663,-16.2945 7.7906,-36.3727 3.3157,-28.6426 3.8953,-28.5696 3.8953,-28.5696 0.1851,-1.3574 3.0354,0.2443 3.8952,1.3109 2.4571,3.0481 0.9559,7.7733 1.2984,11.6734 1.1765,13.3976 1.4601,26.8628 2.5969,40.2638 0.6992,8.242 2.5382,16.4071 2.5969,24.6785 0.068,9.5622 -2.8416,19.0103 -2.5969,28.5696 0.3134,12.2432 4.1227,24.1725 5.1939,36.3728 1.1363,12.9417 0.6349,25.9783 1.2982,38.9529 0.6425,12.5677 1.1285,25.1647 2.5969,37.6628 1.5368,13.0803 4.1591,26.0118 6.4923,38.9737 2.4217,13.454 5.6428,26.7634 7.7905,40.2638 1.096,6.8895 0.2947,14.1813 2.5969,20.7666 3.0146,8.6231 8.6322,16.2108 14.2827,23.3884 3.0283,3.8467 6.9253,6.9219 10.3874,10.3833 2.1643,2.1639 6.4885,3.4317 6.4923,6.4922 0.065,52.6655 -0.1048,50.5804 -2.5969,115.5894 -0.037,0.9659 -1.7786,0.7757 -2.5969,1.2901 -4.1787,2.6266 -8.2272,5.5721 -11.6859,9.0932 -4.5502,4.6323 -9.1036,9.6276 -11.6859,15.5853 -2.9719,6.8564 -2.4061,14.7545 -3.8952,22.0775 -1.1517,5.6639 -2.5449,11.2764 -3.8954,16.8963 -0.8336,3.4689 -0.042,7.8936 -2.5969,10.3832 -2.8583,2.7848 -7.7192,2.1649 -11.6859,2.601 -2.1511,0.2365 -4.624,-1.0923 -6.4921,0 -6.8567,4.0094 -8.4688,13.5043 -11.6858,20.7666 -2.7743,6.263 -4.7932,12.8614 -6.4921,19.4973 -2.4006,9.3769 -3.9553,18.9699 -5.1938,28.5696 -1.4438,11.1908 -1.7622,22.4983 -2.5968,33.7509 -1.3486,18.1827 -1.6948,36.4597 -3.8953,54.559 -1.5375,12.6463 -5.4061,24.9698 -6.4921,37.6629 -1.1441,13.3724 0.8743,26.871 0,40.2638 -1.7349,26.5759 -10.3875,79.2193 -10.3875,79.2193 0,0 -7.1282,-24.0305 -9.0891,-36.3727 -2.9273,-18.4244 -2.3457,-37.2402 -3.9285,-55.8284 -1.8458,-21.6769 -4.2719,-43.3006 -6.4923,-64.9423 -1.6884,-16.4568 -3.9341,-32.8619 -5.1936,-49.357 -1.3857,-18.1472 0.1098,-36.5406 -2.5969,-54.5382 -2.5919,-17.2346 -5.3552,-34.9774 -12.9844,-50.6472 -3.1093,-6.3863 -7.7952,-12.0457 -12.9841,-16.8962 -4.5595,-4.2621 -9.6076,-8.5752 -15.5813,-10.3833 -10.7705,-3.2599 -22.5133,-0.4018 -33.7592,0 -12.1419,0.4338 -24.2292,1.8561 -36.356,2.601 -16.8811,1.037 -33.8056,1.348 -50.6721,2.601 -17.7801,1.3209 -35.444,4.027 -53.2357,5.1813 -13.396,0.8691 -26.8457,0.6033 -40.2513,1.3109 -17.7789,0.9385 -35.6705,1.1961 -53.269,3.8911 -14.9429,2.2884 -29.4664,6.7752 -44.1466,10.3833 -16.922,4.1591 -33.8766,8.2217 -50.6388,12.9843 -13.9682,3.9687 -27.5452,9.2696 -41.5831,12.9843 -9.8496,2.6064 -19.8676,4.5426 -29.8639,6.5129 -14.6604,2.8896 -29.2611,6.4803 -44.1467,7.7823 -10.7791,0.9428 -21.6451,-0.3173 -32.4607,0 -22.113,0.6488 -44.4871,7.8454 -66.2533,3.8912 -8.3875,-1.5237 -16.4285,-5.4372 -23.3717,-10.3833 -7.233,-5.1525 -12.0089,-13.0886 -18.1781,-19.4765 -7.6565,-7.9279 -14.8482,-16.4011 -23.3717,-23.3884 -12.0755,-9.8991 -24.9045,-19.2222 -38.9862,-25.9686 -15.5548,-7.4522 -32.5689,-11.56 -49.3404,-15.5853 -12.7999,-3.0721 -25.8926,-4.8478 -38.9529,-6.4922 -15.0957,-1.9007 -30.2991,-2.8522 -45.4784,-3.8911 -16.8624,-1.1541 -33.7424,-2.1674 -50.6387,-2.6011 -20.3354,-0.5219 -40.6842,0 -61.0263,0 -16.02507,0 -32.05013,6e-4 -48.0752,0 -12.11869,-4e-4 -29.32653,9.8691 -36.35606,0 z"
       id="path132685"
       sodipodi:nodetypes="ssssssssssssssssssssssssssssssssssssssssssssssssssssssssssssssssssssscssssssssssssssssssssssssssssssss" />
  </g>
</svg>
