<?xml version="1.0" encoding="UTF-8" standalone="no"?>
<svg
   xmlns:dc="http://purl.org/dc/elements/1.1/"
   xmlns:cc="http://creativecommons.org/ns#"
   xmlns:rdf="http://www.w3.org/1999/02/22-rdf-syntax-ns#"
   xmlns:svg="http://www.w3.org/2000/svg"
   xmlns="http://www.w3.org/2000/svg"
   xmlns:xlink="http://www.w3.org/1999/xlink"
   xmlns:sodipodi="http://sodipodi.sourceforge.net/DTD/sodipodi-0.dtd"
   xmlns:inkscape="http://www.inkscape.org/namespaces/inkscape"
   height="6526px"
   version="1.1"
   width="4909px"
   id="svg6"
   sodipodi:docname="garcia_2010_enthalpic_501_f2a_red.svg"
   inkscape:version="1.0.2-2 (e86c870879, 2021-01-15)">
  <metadata
     id="metadata10">
    <rdf:RDF>
      <cc:Work
         rdf:about="">
        <dc:format>image/svg+xml</dc:format>
        <dc:type
           rdf:resource="http://purl.org/dc/dcmitype/StillImage" />
      </cc:Work>
    </rdf:RDF>
  </metadata>
  <sodipodi:namedview
     pagecolor="#ffffff"
     bordercolor="#666666"
     borderopacity="1"
     objecttolerance="10"
     gridtolerance="10"
     guidetolerance="10"
     inkscape:pageopacity="0"
     inkscape:pageshadow="2"
     inkscape:window-width="2400"
     inkscape:window-height="1261"
     id="namedview8"
     showgrid="false"
     inkscape:zoom="0.35539538"
     inkscape:cx="706.83511"
     inkscape:cy="1170.6984"
     inkscape:window-x="2391"
     inkscape:window-y="-9"
     inkscape:window-maximized="1"
     inkscape:current-layer="g874"
     inkscape:document-rotation="0" />
  <defs
     id="defs2" />
  <image
     sodipodi:absref="C:\Users\tobia\ownCloud3\PPS\digitizer\garcia_2010_enthalpic_501\garcia_2010_enthalpic_501_p1.png"
     xlink:href="garcia_2010_enthalpic_501_p1.png"
     height="6526px"
     sodipodi:insensitive="true"
     width="4909px"
     x="0"
     y="0"
     id="image4" />
  <g
     id="g879">
    <text
       xml:space="preserve"
       style="font-style:italic;font-weight:bold;font-size:48px;line-height:1.25;font-family:sans-serif;-inkscape-font-specification:'sans-serif Bold Italic';letter-spacing:0px"
       x="2115.9531"
       y="2861.6016"
       id="text845"><tspan
         sodipodi:role="line"
         id="tspan843"
         x="2115.9531"
         y="2861.6016">E2: 0.8 V vs RHE</tspan></text>
    <path
       style="fill:none;stroke:#000000;stroke-width:1px;stroke-linecap:butt;stroke-linejoin:miter;stroke-opacity:1"
       d="m 2195.7939,2689.6101 -83.3579,148.778"
       id="path853" />
  </g>
  <g
     id="g874">
    <text
       xml:space="preserve"
       style="font-style:italic;font-weight:bold;font-size:48px;line-height:1.25;font-family:sans-serif;-inkscape-font-specification:'sans-serif Bold Italic';letter-spacing:0px"
       x="778.84802"
       y="2868.7773"
       id="text849"><tspan
         sodipodi:role="line"
         id="tspan847"
         x="778.84802"
         y="2868.7773">E1: 0.1 V vs RHE</tspan></text>
    <path
       style="fill:none;stroke:#000000;stroke-width:1px;stroke-linecap:butt;stroke-linejoin:miter;stroke-opacity:1"
       d="m 792.07558,2689.9618 -17.23433,161.4399"
       id="path855" />
  </g>
  <g
     id="g869">
    <text
       xml:space="preserve"
       style="font-style:italic;font-weight:bold;font-size:48px;line-height:1.25;font-family:sans-serif;-inkscape-font-specification:'sans-serif Bold Italic';letter-spacing:0px"
       x="158.43948"
       y="1181.431"
       id="text837"><tspan
         sodipodi:role="line"
         id="tspan835"
         x="158.43948"
         y="1181.431">j1: -100 uA / cm2</tspan></text>
    <path
       style="fill:none;stroke:#000000;stroke-width:1px;stroke-linecap:butt;stroke-linejoin:miter;stroke-opacity:1"
       d="M 692.53855,1540.8895 137.28476,1155.9774"
       id="path857" />
  </g>
  <g
     id="g864">
    <text
       xml:space="preserve"
       style="font-style:italic;font-weight:bold;font-size:48px;line-height:1.25;font-family:sans-serif;-inkscape-font-specification:'sans-serif Bold Italic';letter-spacing:0px"
       x="752.65735"
       y="327.52823"
       id="text841"><tspan
         sodipodi:role="line"
         id="tspan839"
         x="752.65735"
         y="327.52823">j2: 100 uA / cm2</tspan></text>
    <path
       style="fill:none;stroke:#000000;stroke-width:1px;stroke-linecap:butt;stroke-linejoin:miter;stroke-opacity:1"
       d="m 744.62058,314.3622 -52.34582,76.04805"
       id="path859" />
  </g>
  <text
     xml:space="preserve"
     style="font-style:italic;font-weight:bold;font-size:48px;line-height:1.25;font-family:sans-serif;-inkscape-font-specification:'sans-serif Bold Italic';letter-spacing:0px"
     x="1603.8475"
     y="607.7738"
     id="text889"><tspan
       sodipodi:role="line"
       id="tspan887"
       x="1603.8475"
       y="607.7738">scan rate: 50 mV / s</tspan></text>
  <text
     xml:space="preserve"
     style="font-style:italic;font-weight:bold;font-size:48px;line-height:1.25;font-family:sans-serif;-inkscape-font-specification:'sans-serif Bold Italic';letter-spacing:0px"
     x="2023.0989"
     y="222.28764"
     id="text893"><tspan
       sodipodi:role="line"
       id="tspan891"
       x="2023.0989"
       y="222.28764">Figure: 1a</tspan></text>
  <text
     xml:space="preserve"
     style="font-style:italic;font-weight:bold;font-size:48px;line-height:1.25;font-family:sans-serif;-inkscape-font-specification:'sans-serif Bold Italic';letter-spacing:0px"
     x="2000.5887"
     y="317.95575"
     id="text897"><tspan
       sodipodi:role="line"
       id="tspan895"
       x="2000.5887"
       y="317.95575">tags: BCV</tspan></text>
  <text
     xml:space="preserve"
     style="font-style:italic;font-weight:bold;font-size:48px;line-height:1.25;font-family:sans-serif;-inkscape-font-specification:'sans-serif Bold Italic';letter-spacing:0px"
     x="1609.4751"
     y="706.25568"
     id="text901"><tspan
       sodipodi:role="line"
       id="tspan899"
       x="1609.4751"
       y="706.25568">comment: The curve is thickly drawn. </tspan></text>
  <g
     id="g876">
    <text
       xml:space="preserve"
       style="font-style:italic;font-weight:bold;font-size:48px;line-height:1.25;font-family:sans-serif;-inkscape-font-specification:'sans-serif Bold Italic';letter-spacing:0px"
       x="1643.2404"
       y="500.85062"
       id="text872"><tspan
         sodipodi:role="line"
         id="tspan870"
         x="1643.2404"
         y="500.85062">curve: red</tspan></text>
    <path
       style="fill:none;stroke:#000000;stroke-width:1px;stroke-linecap:butt;stroke-linejoin:miter;stroke-opacity:1"
       d="m 720.74498,906.52707 c 0.80734,-15.31284 6.42231,-35.56368 20.39375,-36.80823 12.09029,-1.07698 82.86296,53.63817 186.5282,60.68384 58.1279,3.9507 115.21337,1.98404 168.62147,-46.01029 20.3455,-18.2831 55.7981,-86.71292 81.8237,-131.56456 18.1586,-31.29388 26.7739,-144.18119 33.8238,-145.492 3.967,-0.7376 10.3504,29.60954 29.0984,29.3471 21.053,-0.29471 46.3643,-71.73343 73.119,-70.63201 6.9088,0.28442 16.7731,5.85183 31.1988,15.35193 22.2621,14.66068 52.3502,31.58581 72.2622,34.63763 24.6414,3.77666 40.8531,22.09112 54.715,50.98438 25.8796,53.94249 43.4513,118.41425 91.0257,154.69405 33.9482,25.88859 109.3672,21.48694 162.6526,35.06731 76.984,19.6202 148.9041,53.18468 227.067,67.39885 40.3878,7.34465 81.5637,8.17717 122.6113,7.70984 36.2944,-0.41322 67.8755,-16.1042 108.6837,-9.20206 l -1.2435,63.41959 c -32.7346,5.88197 -92.3337,-0.41216 -137.7822,1.98963 -56.7136,2.99711 -102.5839,4.65591 -167.3779,31.83413 -43.6656,18.3158 -87.0658,37.2535 -134.0517,47.0051 -56.7395,11.7759 -141.2789,10.3122 -170.8598,32.0829 -44.7266,32.9175 -66.2965,90.6805 -85.5542,142.0101 -8.338,22.224 -18.3986,41.2071 -41.0363,58.1968 -10.0658,7.5544 -38.9364,13.0149 -57.9481,22.8808 -19.9433,10.3493 -42.1742,34.5332 -64.4144,31.3367 -17.0986,-2.4575 -29.4054,-17.4044 -41.498,-34.7452 -12.8239,-18.3893 -27.3353,-37.42 -33.6106,-37.6277 -9.6092,-0.3179 -13.2795,14.7803 -22.3834,11.6891 -8.6848,-2.949 -16.3524,-38.3247 -26.8687,-80.8943 -6.0143,-24.3458 -16.4518,-47.4127 -31.3281,-69.8205 -46.2222,-69.6232 -68.4097,-145.03382 -201.6992,-149.47125 -34.27187,-1.14097 -124.07687,11.26055 -169.86502,48.24865 -72.66322,58.698 -61.43633,138.356 -77.34702,126.3417 0,0 -3.33077,-173.88087 1.24352,-260.64203 z"
       id="path871"
       sodipodi:nodetypes="sssssssssssssssccssssssssssssssscs" />
  </g>
</svg>
