<?xml version="1.0" encoding="UTF-8" standalone="no"?>
<svg
   xmlns:dc="http://purl.org/dc/elements/1.1/"
   xmlns:cc="http://creativecommons.org/ns#"
   xmlns:rdf="http://www.w3.org/1999/02/22-rdf-syntax-ns#"
   xmlns:svg="http://www.w3.org/2000/svg"
   xmlns="http://www.w3.org/2000/svg"
   xmlns:xlink="http://www.w3.org/1999/xlink"
   xmlns:sodipodi="http://sodipodi.sourceforge.net/DTD/sodipodi-0.dtd"
   xmlns:inkscape="http://www.inkscape.org/namespaces/inkscape"
   height="6526px"
   version="1.1"
   width="4909px"
   id="svg6"
   sodipodi:docname="garcia_2010_enthalpic_501_f2a_green.svg"
   inkscape:version="1.0.2-2 (e86c870879, 2021-01-15)">
  <metadata
     id="metadata10">
    <rdf:RDF>
      <cc:Work
         rdf:about="">
        <dc:format>image/svg+xml</dc:format>
        <dc:type
           rdf:resource="http://purl.org/dc/dcmitype/StillImage" />
      </cc:Work>
    </rdf:RDF>
  </metadata>
  <sodipodi:namedview
     pagecolor="#ffffff"
     bordercolor="#666666"
     borderopacity="1"
     objecttolerance="10"
     gridtolerance="10"
     guidetolerance="10"
     inkscape:pageopacity="0"
     inkscape:pageshadow="2"
     inkscape:window-width="1920"
     inkscape:window-height="991"
     id="namedview8"
     showgrid="false"
     inkscape:zoom="0.25130248"
     inkscape:cx="355.61916"
     inkscape:cy="1686.5552"
     inkscape:window-x="-9"
     inkscape:window-y="-9"
     inkscape:window-maximized="1"
     inkscape:current-layer="svg6"
     inkscape:document-rotation="0" />
  <defs
     id="defs2" />
  <image
     sodipodi:absref="C:\Users\tobia\ownCloud3\PPS\digitizer\garcia_2010_enthalpic_501\garcia_2010_enthalpic_501_p1.png"
     xlink:href="garcia_2010_enthalpic_501_p1.png"
     height="6526px"
     sodipodi:insensitive="true"
     width="4909px"
     x="0"
     y="0"
     id="image4" />
  <g
     id="g879">
    <text
       xml:space="preserve"
       style="font-style:italic;font-weight:bold;font-size:48px;line-height:1.25;font-family:sans-serif;-inkscape-font-specification:'sans-serif Bold Italic';letter-spacing:0px"
       x="2115.9531"
       y="2861.6016"
       id="text845"><tspan
         sodipodi:role="line"
         id="tspan843"
         x="2115.9531"
         y="2861.6016">E2: 0.8 V vs RHE</tspan></text>
    <path
       style="fill:none;stroke:#000000;stroke-width:1px;stroke-linecap:butt;stroke-linejoin:miter;stroke-opacity:1"
       d="m 2195.7939,2689.6101 -83.3579,148.778"
       id="path853" />
  </g>
  <g
     id="g874">
    <text
       xml:space="preserve"
       style="font-style:italic;font-weight:bold;font-size:48px;line-height:1.25;font-family:sans-serif;-inkscape-font-specification:'sans-serif Bold Italic';letter-spacing:0px"
       x="778.84802"
       y="2868.7773"
       id="text849"><tspan
         sodipodi:role="line"
         id="tspan847"
         x="778.84802"
         y="2868.7773">E1: 0.1 V vs RHE</tspan></text>
    <path
       style="fill:none;stroke:#000000;stroke-width:1px;stroke-linecap:butt;stroke-linejoin:miter;stroke-opacity:1"
       d="m 792.07558,2689.9618 -17.23433,161.4399"
       id="path855" />
  </g>
  <g
     id="g869">
    <text
       xml:space="preserve"
       style="font-style:italic;font-weight:bold;font-size:48px;line-height:1.25;font-family:sans-serif;-inkscape-font-specification:'sans-serif Bold Italic';letter-spacing:0px"
       x="158.43948"
       y="1181.431"
       id="text837"><tspan
         sodipodi:role="line"
         id="tspan835"
         x="158.43948"
         y="1181.431">j1: -100 uA / cm2</tspan></text>
    <path
       style="fill:none;stroke:#000000;stroke-width:1px;stroke-linecap:butt;stroke-linejoin:miter;stroke-opacity:1"
       d="M 692.53855,1540.8895 137.28476,1155.9774"
       id="path857" />
  </g>
  <g
     id="g864">
    <text
       xml:space="preserve"
       style="font-style:italic;font-weight:bold;font-size:48px;line-height:1.25;font-family:sans-serif;-inkscape-font-specification:'sans-serif Bold Italic';letter-spacing:0px"
       x="752.65735"
       y="327.52823"
       id="text841"><tspan
         sodipodi:role="line"
         id="tspan839"
         x="752.65735"
         y="327.52823">j2: 100 uA / cm2</tspan></text>
    <path
       style="fill:none;stroke:#000000;stroke-width:1px;stroke-linecap:butt;stroke-linejoin:miter;stroke-opacity:1"
       d="m 744.62058,314.3622 -52.34582,76.04805"
       id="path859" />
  </g>
  <text
     xml:space="preserve"
     style="font-style:italic;font-weight:bold;font-size:48px;line-height:1.25;font-family:sans-serif;-inkscape-font-specification:'sans-serif Bold Italic';letter-spacing:0px"
     x="1603.8475"
     y="607.7738"
     id="text889"><tspan
       sodipodi:role="line"
       id="tspan887"
       x="1603.8475"
       y="607.7738">scan rate: 50 mV / s</tspan></text>
  <text
     xml:space="preserve"
     style="font-style:italic;font-weight:bold;font-size:48px;line-height:1.25;font-family:sans-serif;-inkscape-font-specification:'sans-serif Bold Italic';letter-spacing:0px"
     x="2023.0989"
     y="222.28764"
     id="text893"><tspan
       sodipodi:role="line"
       id="tspan891"
       x="2023.0989"
       y="222.28764">Figure: 1a</tspan></text>
  <text
     xml:space="preserve"
     style="font-style:italic;font-weight:bold;font-size:48px;line-height:1.25;font-family:sans-serif;-inkscape-font-specification:'sans-serif Bold Italic';letter-spacing:0px"
     x="2000.5887"
     y="317.95575"
     id="text897"><tspan
       sodipodi:role="line"
       id="tspan895"
       x="2000.5887"
       y="317.95575">tags: BCV</tspan></text>
  <text
     xml:space="preserve"
     style="font-style:italic;font-weight:bold;font-size:48px;line-height:1.25;font-family:sans-serif;-inkscape-font-specification:'sans-serif Bold Italic';letter-spacing:0px"
     x="1609.4751"
     y="706.25568"
     id="text901"><tspan
       sodipodi:role="line"
       id="tspan899"
       x="1609.4751"
       y="706.25568">comment: The curve is thickly drawn. </tspan></text>
  <g
     id="g877">
    <path
       style="fill:none;stroke:#000000;stroke-width:1px;stroke-linecap:butt;stroke-linejoin:miter;stroke-opacity:1"
       d="m 729.92399,806.64182 c -7.17652,16.47929 -14.45833,37.46157 -15.65158,55.39605 -9.08827,136.59573 -1.76206,268.71483 -2.64308,403.07213 -0.0412,6.2874 21.97748,-95.6559 59.09429,-96.8991 36.83982,-1.2339 54.55314,53.6363 66.12354,88.6337 11.91048,36.026 26.79734,110.4697 46.42716,108.3301 21.5857,-2.3527 27.32196,-51.0594 45.72373,-73.158 14.23133,-17.0903 28.45224,-37.8312 49.73834,-44.2742 24.31851,-7.3609 92.85111,17.9152 112.38731,4.2988 17.7548,-12.3748 26.8841,-92.3551 41.8298,-139.1962 12.3289,-38.6397 24.4797,-79.9616 76.8386,-104.6495 56.8705,-26.81532 124.6942,-23.97758 186.9948,-24.98986 89.6181,-1.45614 183.3864,5.98871 275.0458,9.84819 106.7339,4.49422 128.9788,0.39783 193.9013,1.1155 75.6585,0.83635 149.9287,10.83057 226.2595,16.26447 7.7975,0.5551 59.5661,10.0065 93.3518,-22.30407 6.0368,-5.77322 10.2051,-53.13346 11.4611,-80.06436 0.7347,-15.75466 -1.3785,-32.25186 -2.3164,-47.25862 -24.264,22.8842 -37.3301,31.65153 -59.7925,40.09619 -85.6458,32.19824 -180.8027,31.62243 -272.2321,35.17209 -69.9544,2.71591 -139.763,1.19029 -209.6256,2.81377 -85.14,1.97849 -171.9275,6.86243 -257.0904,6.94907 -85.7489,0.0872 -189.1239,-9.09544 -228.2846,-59.00377 -32.04,-40.83335 -39.4757,-84.79605 -49.2409,-130.13675 -3.1741,-14.73747 -10.6276,-80.3468 -29.9993,-95.00732 -6.2368,-4.72003 -43.5013,8.66785 -64.9653,13.40806 -22.6096,4.99321 -48.06235,17.0492 -68.2339,6.33098 -35.89951,-19.07532 -48.69791,-106.55021 -63.30977,-106.92317 -24.5098,-0.6256 -36.27554,81.00398 -42.90996,101.99907 -11.7546,37.19823 -25.84762,77.47678 -54.51674,103.93354 -14.13722,13.04626 -53.67222,1.64976 -64.36494,26.20321 z"
       id="path868"
       sodipodi:nodetypes="ssssssssssssssssscsssssssssssss" />
    <text
       xml:space="preserve"
       style="font-style:italic;font-weight:bold;font-size:48px;line-height:1.25;font-family:sans-serif;-inkscape-font-specification:'sans-serif Bold Italic';letter-spacing:0px"
       x="1643.2404"
       y="500.85062"
       id="text872"><tspan
         sodipodi:role="line"
         id="tspan870"
         x="1643.2404"
         y="500.85062">curve: green</tspan></text>
  </g>
</svg>
