<?xml version="1.0" encoding="UTF-8" standalone="no"?>
<svg
   height="7017px"
   version="1.1"
   width="4959px"
   id="svg53"
   sodipodi:docname="Lipowski_1998_Ionic_2875_p1_1a_SO4.svg"
   inkscape:version="1.1 (ce6663b3b7, 2021-05-25)"
   xmlns:inkscape="http://www.inkscape.org/namespaces/inkscape"
   xmlns:sodipodi="http://sodipodi.sourceforge.net/DTD/sodipodi-0.dtd"
   xmlns:xlink="http://www.w3.org/1999/xlink"
   xmlns="http://www.w3.org/2000/svg"
   xmlns:svg="http://www.w3.org/2000/svg">
  <sodipodi:namedview
     id="namedview55"
     pagecolor="#ffffff"
     bordercolor="#666666"
     borderopacity="1.0"
     inkscape:pageshadow="2"
     inkscape:pageopacity="0.0"
     inkscape:pagecheckerboard="0"
     showgrid="false"
     inkscape:zoom="0.41898247"
     inkscape:cx="3466.7321"
     inkscape:cy="3192.2577"
     inkscape:window-width="1608"
     inkscape:window-height="986"
     inkscape:window-x="72"
     inkscape:window-y="27"
     inkscape:window-maximized="1"
     inkscape:current-layer="svg53" />
  <defs
     id="defs49" />
  <image
     height="7017px"
     sodipodi:insensitive="true"
     width="4959px"
     x="0"
     xlink:href="Lipowski_1998_Ionic_2875_p1.png"
     y="0"
     id="image51" />
  <text
     xml:space="preserve"
     style="font-size:85.3333px;line-height:1.25;font-family:sans-serif"
     x="3235.0374"
     y="2772.6965"
     id="text2372"><tspan
       sodipodi:role="line"
       id="tspan2370"
       x="3235.0374"
       y="2772.6965">scan rate: 10 mV/s</tspan></text>
  <g
     id="g8448">
    <path
       style="fill:none;stroke:#000000;stroke-width:1px;stroke-linecap:butt;stroke-linejoin:miter;stroke-opacity:1"
       d="m 2874.5053,2972.3838 -224.446,-106.3177"
       id="path170" />
    <text
       xml:space="preserve"
       style="font-size:85.3333px;line-height:1.25;font-family:sans-serif"
       x="2411.4053"
       y="2833.4802"
       id="text3930"><tspan
         sodipodi:role="line"
         id="tspan3928"
         x="2411.4053"
         y="2833.4802">y2: 12 uA/cm2</tspan></text>
  </g>
  <g
     id="g8443">
    <path
       style="fill:none;stroke:#000000;stroke-width:1px;stroke-linecap:butt;stroke-linejoin:miter;stroke-opacity:1"
       d="m 2871.1308,3505.6755 -270.0447,102.9378"
       id="path172" />
    <text
       xml:space="preserve"
       style="font-size:85.3333px;line-height:1.25;font-family:sans-serif"
       x="2013.2169"
       y="3667.0952"
       id="text5692"><tspan
         sodipodi:role="line"
         id="tspan5690"
         x="2013.2169"
         y="3667.0952">y1: -3 uA/cm2</tspan></text>
  </g>
  <g
     id="g8438">
    <path
       style="fill:none;stroke:#000000;stroke-width:1px;stroke-linecap:butt;stroke-linejoin:miter;stroke-opacity:1"
       d="m 3009.4844,3611.9931 -10.1235,64.1368"
       id="path174" />
    <text
       xml:space="preserve"
       style="font-size:85.3333px;line-height:1.25;font-family:sans-serif"
       x="2850.2603"
       y="3731.259"
       id="text6850"><tspan
         sodipodi:role="line"
         id="tspan6848"
         x="2850.2603"
         y="3731.259">x1: -0.6 V vs SCE</tspan></text>
  </g>
  <g
     id="g8433">
    <path
       style="fill:none;stroke:#000000;stroke-width:1px;stroke-linecap:butt;stroke-linejoin:miter;stroke-opacity:1"
       d="m 3969.7826,3608.6133 6.749,48.9407"
       id="path176" />
    <text
       xml:space="preserve"
       style="font-size:85.3333px;line-height:1.25;font-family:sans-serif"
       x="3966.4082"
       y="3730.0999"
       id="text7886"><tspan
         sodipodi:role="line"
         id="tspan7884"
         x="3966.4082"
         y="3730.0999">x2: 0.8 V vs SCE</tspan></text>
  </g>
  <g
     id="g8774">
    <text
       xml:space="preserve"
       style="font-size:85.3333px;line-height:1.25;font-family:sans-serif"
       x="2627.5447"
       y="2681.6289"
       id="text1324"><tspan
         sodipodi:role="line"
         id="tspan1322"
         x="2627.5447"
         y="2681.6289">curve: Au(111)_0.1M_HClO4_1mM_K2SO4</tspan></text>
    <path
       style="fill:none;stroke:#000000;stroke-width:1px;stroke-linecap:butt;stroke-linejoin:miter;stroke-opacity:1"
       d="m 3214.0037,3394.205 c 0,0 58.0825,0 87.1238,0 38.1779,0 76.3939,1.7064 114.5336,0 26.7353,-1.1962 53.3368,-4.5003 79.9654,-7.1698 25.0922,-2.5155 50.2448,-4.6591 75.1933,-8.3361 15.2023,-2.2406 31.8107,-1.0621 45.3362,-8.3553 11.6375,-6.2751 18.9153,-18.5349 27.4403,-28.641 8.6166,-10.2146 23.8611,-32.2164 23.8611,-32.2164 0,0 2.8427,22.8646 7.1584,33.4018 1.9665,4.8013 3.9488,10.3899 8.3514,13.1352 6.1203,3.8164 14.2985,2.1083 21.5057,2.3899 12.3254,0.4816 24.6565,-0.8014 36.9847,-1.2046 24.2589,-0.7934 48.5987,-4.5256 72.7765,-2.3899 26.7377,2.3618 52.2889,12.3397 78.7724,16.7105 23.3228,3.8492 46.8566,6.4881 70.4211,8.3552 19.838,1.5719 39.7592,2.9023 59.6528,2.39 4.3915,-0.1131 8.8831,-0.058 13.1237,-1.2046 6.355,-1.719 11.313,-8.4457 17.8958,-8.3552 7.1156,0.098 12.2041,7.7596 19.0889,9.5598 8.0987,2.1176 16.7163,0.9877 25.0849,1.1853 3.5781,0.084 10.7374,0 10.7374,0 l 1.1931,25.0658 c 0,0 -18.4703,0.526 -27.4709,2.3899 -9.8513,2.0401 -18.5734,9.4598 -28.6334,9.5406 -7.9228,0.064 -14.8109,-6.1303 -22.668,-7.1507 -8.2911,-1.0768 -16.6999,0.8581 -25.0543,1.1854 -12.7223,0.4984 -25.5109,-0.1012 -38.1778,1.1854 -20.8901,2.1219 -41.6323,5.9268 -62.0696,10.7452 -12.1242,2.8584 -23.6411,8.0015 -35.7918,10.7452 -20.4187,4.6107 -41.1852,8.1159 -62.0695,9.5406 -24.2058,1.6513 -48.5153,-0.9878 -72.7766,-1.1854 -17.9055,-0.1458 -35.8572,-1.2693 -53.7182,0 -14.0249,0.9967 -27.7154,6.6908 -41.757,5.9653 -14.7383,-0.7615 -28.7425,-6.7528 -42.9501,-10.7452 -19.2629,-5.413 -37.6828,-13.942 -57.2973,-17.8959 -16.4478,-3.3156 -33.4009,-3.2371 -50.1084,-4.7798 -22.2643,-2.0558 -44.4744,-4.9702 -66.8113,-5.9654 -26.2314,-1.1687 -52.5149,0 -78.7724,0 -23.4737,0 -46.9514,0.4352 -70.421,0 -21.4861,-0.3984 -64.4251,-2.3899 -64.4251,-2.3899 z"
       id="path8518"
       sodipodi:nodetypes="csssssscssssssssssssccssssssssssssssssscc" />
  </g>
</svg>
