<?xml version="1.0" encoding="UTF-8" standalone="no"?>
<svg
   xmlns:dc="http://purl.org/dc/elements/1.1/"
   xmlns:cc="http://creativecommons.org/ns#"
   xmlns:rdf="http://www.w3.org/1999/02/22-rdf-syntax-ns#"
   xmlns:svg="http://www.w3.org/2000/svg"
   xmlns="http://www.w3.org/2000/svg"
   xmlns:xlink="http://www.w3.org/1999/xlink"
   xmlns:sodipodi="http://sodipodi.sourceforge.net/DTD/sodipodi-0.dtd"
   xmlns:inkscape="http://www.inkscape.org/namespaces/inkscape"
   height="6601px"
   version="1.1"
   width="5100px"
   id="svg6"
   sodipodi:docname="wandlowski_1996_structural_10277_f1a_dashed.svg"
   inkscape:version="0.92.2 (5c3e80d, 2017-08-06)">
  <metadata
     id="metadata28">
    <rdf:RDF>
      <cc:Work
         rdf:about="">
        <dc:format>image/svg+xml</dc:format>
        <dc:type
           rdf:resource="http://purl.org/dc/dcmitype/StillImage" />
      </cc:Work>
    </rdf:RDF>
  </metadata>
  <sodipodi:namedview
     id="namedview8"
     pagecolor="#ffffff"
     bordercolor="#666666"
     borderopacity="1.0"
     inkscape:pageshadow="2"
     inkscape:pageopacity="0.0"
     inkscape:pagecheckerboard="0"
     showgrid="false"
     inkscape:zoom="0.20724133"
     inkscape:cx="4770.4845"
     inkscape:cy="5010.9708"
     inkscape:window-width="1920"
     inkscape:window-height="1017"
     inkscape:window-x="-8"
     inkscape:window-y="32"
     inkscape:window-maximized="1"
     inkscape:current-layer="svg6" />
  <defs
     id="defs2" />
  <image
     sodipodi:absref="F:\Github\echemdb\website\literature\wandlowski_1996_structural_10277\Wandlowski_1996_Structural_10277_p1.png"
     xlink:href="Wandlowski_1996_Structural_10277_p1.png"
     id="image4"
     y="0"
     x="0"
     width="5100px"
     sodipodi:insensitive="true"
     height="6601px" />
  <g
     id="g60164"
     transform="translate(-0.0045312,6.5615245)">
    <path
       style="fill:none;stroke:#000000;stroke-width:1px;stroke-linecap:butt;stroke-linejoin:miter;stroke-opacity:1"
       d="m 3057.2938,376.94622 -291.9163,-9.67716"
       id="path52324" />
    <text
       xml:space="preserve"
       style="font-size:85.3333px;line-height:1.25;font-family:sans-serif"
       x="2119.2756"
       y="387.15948"
       id="text54982"><tspan
         sodipodi:role="line"
         id="tspan54980"
         x="2119.2756"
         y="387.15948">y2: 10 uA / cm2</tspan></text>
  </g>
  <g
     id="g60159"
     transform="translate(-0.0045312,6.5615245)">
    <path
       style="fill:none;stroke:#000000;stroke-width:1px;stroke-linecap:butt;stroke-linejoin:miter;stroke-opacity:1"
       d="M 3057.2938,1310.5961 2772.587,1344.377"
       id="path52322" />
    <text
       xml:space="preserve"
       style="font-size:85.3333px;line-height:1.25;font-family:sans-serif"
       x="2177.2346"
       y="1376.3013"
       id="text56900"><tspan
         sodipodi:role="line"
         id="tspan56898"
         x="2177.2346"
         y="1376.3013">y1: -5 uA / cm2</tspan></text>
  </g>
  <g
     id="g60149"
     transform="translate(-0.0045312,6.5615245)">
    <path
       style="fill:none;stroke:#000000;stroke-width:1px;stroke-linecap:butt;stroke-linejoin:miter;stroke-opacity:1"
       d="m 4051.2229,1305.7754 386.0646,118.2328"
       id="path52328" />
    <text
       xml:space="preserve"
       style="font-size:85.3333px;line-height:1.25;font-family:sans-serif"
       x="4463.9355"
       y="1487.3563"
       id="text57552"><tspan
         sodipodi:role="line"
         id="tspan57550"
         x="4463.9355"
         y="1487.3563">x2: 0.6 V vs SCE</tspan></text>
  </g>
  <g
     id="g60154"
     transform="translate(-0.0045312,6.5615245)">
    <path
       style="fill:none;stroke:#000000;stroke-width:1px;stroke-linecap:butt;stroke-linejoin:miter;stroke-opacity:1"
       d="M 3305.8114,1308.2037 2943.9201,1469.823"
       id="path52326" />
    <text
       xml:space="preserve"
       style="font-size:85.3333px;line-height:1.25;font-family:sans-serif"
       x="2428.0142"
       y="1559.6318"
       id="text59338"><tspan
         sodipodi:role="line"
         id="tspan59336"
         x="2428.0142"
         y="1559.6318">x1: -0.6 V vs SCE</tspan></text>
  </g>
  <text
     xml:space="preserve"
     style="font-size:85.3333px;line-height:1.25;font-family:sans-serif"
     x="4435.3682"
     y="638.09778"
     id="text1574"><tspan
       sodipodi:role="line"
       id="tspan1572"
       x="4435.3682"
       y="638.09778">scan rate: 10 mV / s</tspan></text>
  <g
     id="g5302">
    <text
       xml:space="preserve"
       style="font-size:85.3333px;line-height:1.25;font-family:sans-serif"
       x="3063.6897"
       y="321.27139"
       id="text46873"><tspan
         sodipodi:role="line"
         id="tspan46871"
         x="3063.6897"
         y="321.27139">curve: Au(100)_0.05M_NaClO4</tspan></text>
    <path
       style="fill:none;stroke:#000000;stroke-width:1px;stroke-linecap:butt;stroke-linejoin:miter;stroke-opacity:1"
       d="m 3191.2666,1000.7642 c 3.1752,-6.35623 10.3378,-10.45153 17.043,-12.80188 8.8555,-3.10409 18.7549,-0.87216 28.1386,-0.84586 15.9369,0.0447 31.8436,1.67701 47.7805,1.70438 17.6353,0.0303 35.2455,-1.42028 52.8785,-1.70438 15.6416,-0.25201 31.2913,0.35594 46.9309,0 18.7736,-0.42726 37.5069,-2.00627 56.2771,-2.56291 20.7511,-0.61538 41.5287,-0.0904 62.2747,-0.85846 23.6171,-0.87433 47.1801,-2.85583 70.7712,-4.26729 23.8896,-1.42932 47.784,-2.77949 71.6708,-4.25463 22.1777,-1.36959 44.3516,-2.79924 66.523,-4.26729 12.5133,-0.82855 25.0477,-1.40394 37.5347,-2.5629 14.548,-1.35024 29.1483,-2.55048 43.5323,-5.11316 14.3884,-2.56346 28.6634,-5.94263 42.6326,-10.2389 13.0723,-4.0204 25.4973,-9.9142 38.3844,-14.4936 13.5526,-4.8159 28.6173,-6.21924 40.9333,-13.64773 8.0976,-4.88412 14.4508,-12.34388 20.4917,-19.61934 5.6424,-6.79545 11.0916,-14.03131 14.4941,-22.18225 4.1457,-9.93154 4.6267,-21.02172 6.7972,-31.56267 2.9798,-14.47144 4.8725,-29.18244 8.5466,-43.49338 1.8551,-7.22595 2.0682,-15.55378 6.7972,-21.32373 1.8596,-2.26888 4.8021,-4.74286 7.6969,-4.26729 4.174,0.68573 6.8384,5.51065 8.5464,9.38044 4.9576,11.23223 1.5016,24.54561 3.3987,36.67582 1.2148,7.76748 2.6244,15.5655 5.0979,23.02814 0.8825,2.6626 0.8261,6.68085 3.4487,7.67603 5.8253,2.21051 11.6781,-4.50761 17.043,-7.67603 6.1157,-3.61188 11.2906,-8.62301 17.0431,-12.78921 5.6294,-4.07707 12.232,-6.97513 17.093,-11.94331 5.0196,-5.13018 5.2706,-20.55412 11.9451,-17.91497 0,0 1.0579,45.51696 0,68.23851 -0.7171,15.40211 -2.318,30.76515 -4.2982,46.05626 -1.7768,13.71992 -1.1111,28.33115 -6.7973,40.94308 -4.8195,10.6897 -13.8852,19.01814 -22.1909,27.2954 -6.7337,6.71067 -13.5382,13.97701 -22.1909,17.91501 -8.9312,4.0647 -19.3353,3.3631 -28.9883,5.1258 -15.0929,2.7561 -30.0605,6.2353 -45.2316,8.5219 -14.9879,2.259 -30.1592,3.1093 -45.1816,5.1258 -16.5422,2.2205 -32.9649,5.2611 -49.4799,7.676 -14.4762,2.1168 -28.8862,4.9741 -43.4823,5.9717 -13.9118,0.9508 -27.894,0.3882 -41.8329,0 -20.4822,-0.5705 -40.9333,-2.0136 -61.375,-3.4214 -17.3601,-1.1956 -34.6649,-3.13 -52.0289,-4.2673 -17.3266,-1.1349 -34.7131,-1.2596 -52.0288,-2.5502 -17.0977,-1.2744 -34.144,-3.1879 -51.1792,-5.1258 -13.3996,-1.5243 -26.7286,-3.6383 -40.1337,-5.1132 -15.3171,-1.6852 -30.6643,-3.1222 -46.0313,-4.2673 -15.0594,-1.1222 -30.1342,-2.2091 -45.2315,-2.5502 -25.3015,-0.5717 -50.6274,-0.06 -75.9191,0.8458 -9.3907,0.3365 -18.7462,1.4202 -28.1386,1.7044 -14.7706,0.4469 -29.5547,0 -44.332,0 -13.9276,0 -27.8902,0.9861 -41.7829,0 -8.0239,-0.5696 -18.6193,2.6677 -23.8903,-3.4088 -2.7934,-3.2203 -1.9051,-8.9754 0,-12.7891 z"
       id="path5198"
       sodipodi:nodetypes="ssssssssssssssssssssssssssssssssssssssssssssssssssssss" />
  </g>
  <text
     xml:space="preserve"
     style="font-style:normal;font-variant:normal;font-weight:normal;font-stretch:normal;font-size:80px;line-height:1.25;font-family:sans-serif;-inkscape-font-specification:sans-serif;letter-spacing:0px;word-spacing:0px;fill:#000000;fill-opacity:1;stroke:none"
     x="2634.6096"
     y="110.98166"
     id="text837"><tspan
       sodipodi:role="line"
       id="tspan835"
       x="2634.6096"
       y="110.98166">comment: Focus on phase transitions of Br on Au(100).</tspan></text>
</svg>
