<?xml version="1.0" encoding="UTF-8" standalone="no"?>
<svg
   height="6601px"
   version="1.1"
   width="5100px"
   id="svg6"
   sodipodi:docname="Wandlowski_1996_Structural_10277_p1_1a_solid.svg"
   inkscape:version="1.1.1 (eb90963e84, 2021-10-02)"
   xmlns:inkscape="http://www.inkscape.org/namespaces/inkscape"
   xmlns:sodipodi="http://sodipodi.sourceforge.net/DTD/sodipodi-0.dtd"
   xmlns:xlink="http://www.w3.org/1999/xlink"
   xmlns="http://www.w3.org/2000/svg"
   xmlns:svg="http://www.w3.org/2000/svg">
  <sodipodi:namedview
     id="namedview8"
     pagecolor="#ffffff"
     bordercolor="#666666"
     borderopacity="1.0"
     inkscape:pageshadow="2"
     inkscape:pageopacity="0.0"
     inkscape:pagecheckerboard="0"
     showgrid="false"
     inkscape:zoom="0.20724133"
     inkscape:cx="3693.7613"
     inkscape:cy="1864.9755"
     inkscape:window-width="1848"
     inkscape:window-height="898"
     inkscape:window-x="72"
     inkscape:window-y="27"
     inkscape:window-maximized="1"
     inkscape:current-layer="svg6" />
  <defs
     id="defs2" />
  <image
     height="6601px"
     sodipodi:insensitive="true"
     width="5100px"
     x="0"
     xlink:href="Wandlowski_1996_Structural_10277_p1.png"
     y="0"
     id="image4" />
  <g
     id="g60164"
     transform="translate(-0.0045312,6.5615245)">
    <path
       style="fill:none;stroke:#000000;stroke-width:1px;stroke-linecap:butt;stroke-linejoin:miter;stroke-opacity:1"
       d="m 3057.2938,376.94622 -291.9163,-9.67716"
       id="path52324" />
    <text
       xml:space="preserve"
       style="font-size:85.3333px;line-height:1.25;font-family:sans-serif"
       x="2119.2756"
       y="387.15948"
       id="text54982"><tspan
         sodipodi:role="line"
         id="tspan54980"
         x="2119.2756"
         y="387.15948">y2: 10 uA / cm2</tspan></text>
  </g>
  <g
     id="g60159"
     transform="translate(-0.0045312,6.5615245)">
    <path
       style="fill:none;stroke:#000000;stroke-width:1px;stroke-linecap:butt;stroke-linejoin:miter;stroke-opacity:1"
       d="M 3057.2938,1310.5961 2772.587,1344.377"
       id="path52322" />
    <text
       xml:space="preserve"
       style="font-size:85.3333px;line-height:1.25;font-family:sans-serif"
       x="2177.2346"
       y="1376.3013"
       id="text56900"><tspan
         sodipodi:role="line"
         id="tspan56898"
         x="2177.2346"
         y="1376.3013">y1: -5 uA / cm2</tspan></text>
  </g>
  <g
     id="g60149"
     transform="translate(-0.0045312,6.5615245)">
    <path
       style="fill:none;stroke:#000000;stroke-width:1px;stroke-linecap:butt;stroke-linejoin:miter;stroke-opacity:1"
       d="m 4051.2229,1305.7754 386.0646,118.2328"
       id="path52328" />
    <text
       xml:space="preserve"
       style="font-size:85.3333px;line-height:1.25;font-family:sans-serif"
       x="4463.9355"
       y="1487.3563"
       id="text57552"><tspan
         sodipodi:role="line"
         id="tspan57550"
         x="4463.9355"
         y="1487.3563">x2: 0.6 V vs SCE</tspan></text>
  </g>
  <g
     id="g60154"
     transform="translate(-0.0045312,6.5615245)">
    <path
       style="fill:none;stroke:#000000;stroke-width:1px;stroke-linecap:butt;stroke-linejoin:miter;stroke-opacity:1"
       d="M 3305.8114,1308.2037 2943.9201,1469.823"
       id="path52326" />
    <text
       xml:space="preserve"
       style="font-size:85.3333px;line-height:1.25;font-family:sans-serif"
       x="2428.0142"
       y="1559.6318"
       id="text59338"><tspan
         sodipodi:role="line"
         id="tspan59336"
         x="2428.0142"
         y="1559.6318">x1: -0.6 V vs SCE</tspan></text>
  </g>
  <g
     id="g492">
    <text
       xml:space="preserve"
       style="font-size:85.3333px;line-height:1.25;font-family:sans-serif"
       x="3063.6897"
       y="321.27139"
       id="text46873"><tspan
         sodipodi:role="line"
         id="tspan46871"
         x="3063.6897"
         y="321.27139">curve: Au(100)_0.05M_NaBr</tspan></text>
    <path
       style="fill:none;stroke:#000000;stroke-width:1px;stroke-linecap:butt;stroke-linejoin:miter;stroke-opacity:1"
       d="m 3103.4004,1003.3137 c 0.9273,-4.33373 4.6281,-8.06399 8.4966,-10.22635 5.2736,-2.94777 11.9245,-2.03095 17.9426,-2.56285 16.439,-1.45294 33.0258,-0.43417 49.4799,-1.70439 14.2708,-1.10167 28.4388,-3.28073 42.6326,-5.1258 14.2293,-1.84969 28.3323,-4.77898 42.6327,-5.95902 11.0616,-0.91278 22.1992,-0.34561 33.2865,-0.85852 12.8096,-0.59259 25.5682,-2.13551 38.3844,-2.5629 4.8287,-0.16102 9.6687,0.23986 14.4941,0 8.5615,-0.42557 17.1043,-1.33285 25.5895,-2.55025 9.1616,-1.31444 18.1275,-3.81042 27.2889,-5.12576 11.3192,-1.62514 22.7776,-2.08549 34.1361,-3.40877 8.5474,-0.99579 17.1113,-1.93688 25.5897,-3.40877 4.0123,-0.69655 8.3139,-0.71956 11.9451,-2.5629 3.045,-1.54576 5.863,-3.9056 7.6469,-6.81754 3.5319,-5.76533 3.981,-12.95963 5.1478,-19.61934 1.6262,-9.28164 0.7341,-18.90733 2.549,-28.15392 1.4895,-7.58864 5.1904,-14.6176 6.7973,-22.18225 1.4879,-7.00423 1.6611,-14.22492 2.5989,-21.32376 1.0527,-7.969 -0.3176,-16.74638 3.3986,-23.87401 2.6973,-5.17335 10.1348,-6.75069 12.7948,-11.94332 5.0968,-9.94959 3.0645,-22.15083 4.2482,-33.26705 1.0577,-9.93281 1.9037,-19.8902 2.549,-29.8583 1.2687,-19.59745 1.9753,-39.2295 2.599,-58.85807 1.3909,-43.77368 1.7087,-87.57488 2.5489,-131.36259 0.5729,-29.85396 1.4162,-59.70413 1.6994,-89.56224 0.2886,-30.42085 0,-60.84443 0,-91.26665 0,-5.11736 -3.6185,-11.73356 0,-15.35208 1.6021,-1.60212 5.1951,-1.60212 6.7972,0 0,0 -0.051,17.06083 0,25.59102 0.1416,23.88368 0.827,47.76318 0.8497,71.64727 0.027,28.43306 -0.951,56.86209 -0.8497,85.29498 0.1216,34.12192 1.6228,68.22955 1.7493,102.35145 0.1149,30.99578 -1.1678,61.9888 -0.8996,92.98364 0.187,21.61276 1.3988,43.20638 1.7493,64.81711 0.3154,19.44551 -0.3793,38.90778 0.318,58.34334 0.2168,6.04422 -2.2403,13.13124 1.2016,18.10449 2.7685,4.00026 8.4878,5.24637 13.2883,6.03486 3.9725,0.65249 7.9988,-1.47619 12.016,-1.21413 7.0041,0.45691 13.9221,2.36535 20.4976,4.82073 8.1033,3.0259 15.3211,8.03395 22.9717,12.06971 6.8385,3.60734 13.4822,7.60593 20.4977,10.85558 7.8517,3.63697 16.2422,6.02325 24.1025,9.64146 8.6725,3.99207 17.1064,18.05679 25.3749,13.28376 8.3676,-4.83025 0.8462,-19.30495 1.2016,-28.96007 0.9176,-24.92688 2.0025,-49.85215 2.4031,-74.7927 0.1937,-12.06216 -1.1175,-24.17931 0,-36.19116 0.7428,-7.98425 4.4377,-23.64334 4.4377,-23.64334 0,0 0.4198,26.44028 0.4498,39.66165 0.05,22.03752 -0.9433,44.07914 -0.4498,66.11119 0.1881,8.39632 0.8929,16.77317 1.2994,25.16176 0.3031,6.25485 -0.2348,12.59978 0.8497,18.76734 1.2382,7.04125 3.3186,14.01914 6.3974,20.47153 2.2068,4.62494 4.2943,9.89877 8.5215,12.79551 4.3286,2.96625 10.24,2.29921 15.3688,3.40877 5.3918,1.16646 10.7852,2.32708 16.1934,3.4151 6.6684,1.34154 13.2879,3.03088 20.0418,3.83803 11.5933,1.38549 23.3265,1.08499 34.9858,1.70438 12.3646,0.65686 24.7042,1.94957 37.0849,2.13362 10.2403,0.15223 20.54,0.33431 30.7125,-0.85219 7.6472,-0.89195 14.9669,-5.56695 22.6158,-4.6902 2.024,0.232 3.7707,1.56794 5.5484,2.56303 2.6817,1.5011 4.8012,4.016 7.6719,5.11316 3.7573,1.43599 8.1993,3.17634 11.9451,1.71069 2.73,-1.06818 4.2722,-4.18442 5.5478,-6.82385 1.7114,-3.54114 2.0021,-7.62558 2.5489,-11.52037 1.287,-9.16689 1.1155,-18.47999 1.6994,-27.71835 0.9706,-15.35521 2.4987,-30.68233 2.9987,-46.06006 0.3281,-10.08841 0,-30.28122 0,-30.28122 0,0 0.4237,40.56327 3.3987,60.56246 0.7964,5.35364 1.747,10.78704 3.8484,15.77502 2.0822,4.94251 5.119,9.50196 8.5215,13.6477 4.0833,4.97528 8.3708,10.23252 14.0693,13.22477 4.7683,2.50381 10.4541,2.70403 15.7935,3.40877 5.6475,0.7454 11.3896,0.40039 17.0681,0.85219 7.8353,0.6234 15.5805,2.59903 23.4405,2.56289 8.447,-0.0388 18.8496,-8.5959 25.1647,-2.98583 4.7822,4.24833 1.6413,13.00756 0,19.1901 -1.1764,4.43132 -3.6248,8.65742 -6.8222,11.94331 -5.9149,6.0785 -14.6018,8.64 -21.7412,13.2185 -4.9166,3.153 -9.1055,7.6167 -14.519,9.8096 -8.2959,3.3605 -17.658,2.957 -26.4393,4.6903 -6.5652,1.2959 -13.5691,1.4027 -19.617,4.2672 -4.756,2.2526 -8.833,5.913 -12.3699,9.8097 -3.8679,4.2612 -7.1032,9.2108 -9.3712,14.4999 -3.1117,7.2566 -3.5636,15.3858 -5.5478,23.0281 -2.2626,8.7146 -7.2471,26.0203 -7.2471,26.0203 0,0 -0.1696,-32.1632 -1.2744,-48.1962 -0.6194,-8.9897 -1.0284,-18.0733 -2.9988,-26.8662 -1.2489,-5.573 -0.9837,-12.7774 -5.5478,-16.2105 -4.6587,-3.5043 -11.6391,-0.7553 -17.4679,-0.8522 -18.3422,-0.3051 -36.7079,-0.1064 -55.0276,0.8522 -7.9842,0.4178 -15.9516,1.1846 -23.8902,2.1336 -8.5643,1.0238 -16.9934,3.13 -25.5896,3.838 -9.2078,0.7584 -18.5015,-0.2741 -27.7137,0.4293 -8.3004,0.6338 -16.5213,2.0855 -24.74,3.4087 -5.419,0.8725 -10.9013,1.5296 -16.1934,2.9859 -3.9483,1.0865 -8.4704,1.5345 -11.5203,4.2672 -2.6045,2.3337 -3.4852,6.1005 -4.6981,9.3805 -1.8291,4.9463 -2.7691,10.1849 -3.8234,15.3521 -1.2664,6.2072 -2.4613,12.4549 -2.9988,18.7671 -1.0495,12.3246 -0.33,24.7363 -0.4248,37.1051 -0.2093,27.3044 -0.3813,54.6099 -0.3181,81.915 0.055,23.5242 1.957,47.085 0.6009,70.5701 -0.3738,6.4725 -2.4032,19.3007 -2.4032,19.3007 0,0 -0.7819,-32.1684 -1.2016,-48.2519 -0.383,-14.6769 -1.0013,-29.3488 -1.2016,-44.0293 -0.2469,-18.0939 -0.1156,-36.1915 0,-54.2867 0.1001,-15.6802 0.9506,-31.3612 0.6008,-47.0378 -0.2337,-10.4715 0.1791,-21.0856 -1.8024,-31.3705 -0.8419,-4.3697 -2.8019,-8.4478 -4.2409,-12.6588 -1.3777,-4.0316 -1.2603,-8.9912 -4.2056,-12.0697 -1.4993,-1.5671 -3.9092,-2.7964 -6.0433,-2.4104 -2.9441,0.5325 -4.1755,4.3445 -6.6441,6.0349 -5.5635,3.8097 -12.0502,6.0548 -18.0946,9.0433 -9.0282,4.4637 -18.046,8.9504 -27.1418,13.2748 -7.7933,3.7052 -15.4577,7.732 -23.5018,10.8556 -8.6545,3.3606 -18.27,4.228 -26.541,8.4452 -4.2236,2.1535 -7.7057,5.5289 -11.4505,8.4363 -4.5193,3.5087 -8.5418,7.6698 -13.2882,10.8645 -4.1748,2.81 -8.8855,4.7309 -13.2529,7.2311 -3.0521,1.7472 -5.6928,4.3714 -9.0472,5.4277 -8.2676,2.6034 -17.2735,1.6764 -25.9403,1.8123 -10.4674,0.1642 -20.9161,-1.0043 -31.3828,-1.2052 -12.6615,-0.243 -25.5868,2.5485 -37.9915,0 -4.4952,-0.9235 -8.3831,-3.744 -12.6521,-5.4278 -7.1645,-2.8258 -15.0363,-4.0373 -21.7347,-7.8381 -7.4555,-4.2304 -13.4143,-10.6837 -19.8969,-16.2923 -4.7306,-4.0929 -9.4808,-8.1858 -13.8537,-12.6589 -7.2762,-7.443 -13.2693,-16.0711 -20.5361,-23.5233 -4.5671,-4.6836 -9.1279,-9.4772 -14.4545,-13.2749 -4.4712,-3.1878 -9.3378,-5.9375 -14.4897,-7.8382 -8.1042,-2.9899 -16.7612,-4.4127 -25.3395,-5.4277 -8.1916,-0.9692 -16.4954,-0.3072 -24.7387,-0.6071 -12.4698,-0.4536 -24.9215,-1.3329 -37.3907,-1.8033 -7.4308,-0.2803 -14.8725,-0.2503 -22.3001,-0.6071 -11.6767,-0.5609 -23.3043,-2.0083 -34.9876,-2.4103 -11.8558,-0.4079 -23.7485,0.7375 -35.5883,0 -4.8581,-0.3026 -10.804,1.3672 -14.4898,-1.8122 -2.8139,-2.4273 -3.7693,-7.1058 -2.9917,-10.7397 z"
       id="path312"
       sodipodi:nodetypes="ssssssssssssssssssssssssssssssssssssssssssssssscsssssssssssssssssssscssssssssssssssssscssssssssssssssssscsssssssssssssssssssssssssssssssssss" />
  </g>
  <text
     xml:space="preserve"
     style="font-size:85.3333px;line-height:1.25;font-family:sans-serif"
     x="4435.3682"
     y="638.09778"
     id="text1574"><tspan
       sodipodi:role="line"
       id="tspan1572"
       x="4435.3682"
       y="638.09778">scan rate: 10 mV / s</tspan></text>
</svg>
