<?xml version="1.0" encoding="UTF-8" standalone="no"?>
<svg
   height="6820px"
   version="1.2"
   width="5212px"
   id="svg6"
   sodipodi:docname="briega-martos_2021_cation_48_p2_f1_Na_4_4.svg"
   inkscape:version="1.1.2 (b8e25be833, 2022-02-05)"
   xmlns:inkscape="http://www.inkscape.org/namespaces/inkscape"
   xmlns:sodipodi="http://sodipodi.sourceforge.net/DTD/sodipodi-0.dtd"
   xmlns:xlink="http://www.w3.org/1999/xlink"
   xmlns="http://www.w3.org/2000/svg"
   xmlns:svg="http://www.w3.org/2000/svg"
   xmlns:rdf="http://www.w3.org/1999/02/22-rdf-syntax-ns#"
   xmlns:cc="http://creativecommons.org/ns#"
   xmlns:dc="http://purl.org/dc/elements/1.1/">
  <metadata
     id="metadata10">
    <rdf:RDF>
      <cc:Work
         rdf:about="">
        <dc:format>image/svg+xml</dc:format>
        <dc:type
           rdf:resource="http://purl.org/dc/dcmitype/StillImage" />
        <dc:title />
      </cc:Work>
    </rdf:RDF>
  </metadata>
  <sodipodi:namedview
     pagecolor="#ffffff"
     bordercolor="#666666"
     borderopacity="1"
     objecttolerance="10"
     gridtolerance="10"
     guidetolerance="10"
     inkscape:pageopacity="0"
     inkscape:pageshadow="2"
     inkscape:window-width="1920"
     inkscape:window-height="1017"
     id="namedview8"
     showgrid="false"
     inkscape:zoom="0.19575038"
     inkscape:cx="3637.2855"
     inkscape:cy="2002.5504"
     inkscape:window-x="-8"
     inkscape:window-y="32"
     inkscape:window-maximized="1"
     inkscape:current-layer="svg6"
     inkscape:pagecheckerboard="0" />
  <defs
     id="defs2" />
  <image
     xlink:href="briega-martos_2021_cation_48_p2.png"
     id="image4"
     y="0"
     x="0"
     width="5212px"
     height="6820px" />
  <text
     xml:space="preserve"
     style="font-style:normal;font-variant:normal;font-weight:normal;font-stretch:normal;font-size:258.707px;line-height:1.25;font-family:sans-serif;-inkscape-font-specification:sans-serif;letter-spacing:0px;word-spacing:0px;fill:#000000;fill-opacity:1;stroke:none;stroke-width:9.70153"
     x="4942.9067"
     y="1137.9409"
     id="text839"><tspan
       sodipodi:role="line"
       id="tspan837"
       x="4942.9067"
       y="1137.9409"
       style="stroke-width:9.70153">scan rate: 50 mV / s</tspan></text>
  <g
     transform="translate(4.6379309e-6,-702.73961)"
     id="g936">
    <text
       id="text10650-7-3"
       y="2256.2637"
       x="4132.7466"
       style="font-size:116.418px;line-height:1.25;font-family:sans-serif;stroke-width:9.70152"
       xml:space="preserve"><tspan
         y="2256.2637"
         x="4132.7466"
         style="stroke-width:9.70152"
         id="tspan10648-5-5"
         sodipodi:role="line">curve: Na+pH4.4</tspan></text>
    <path
       sodipodi:nodetypes="csssszszzzzzzzzzzzzzzzzzzzzzzzzccczzzzzzszczzsszzzzssszzzzzcsc"
       inkscape:connector-curvature="0"
       id="path913"
       d="m 3050.9709,2474.8783 c 0,0 4.1427,-14.3617 12.4234,-24.1843 4.73,-5.6108 9.696,-7.7457 16.6344,-10.6364 11.256,-4.6895 28.5401,-4.6741 57.0714,-6.1419 18.5301,-0.9533 59.5983,-7.9358 66.2833,-7.8028 12.9257,0.2572 15.4772,-1.2924 38.4313,1.6592 22.9542,2.9515 36.4754,5.7359 67.4346,15.1933 25.3782,7.7525 31.0561,12.6364 44.4877,19.0784 13.4315,6.442 26.3965,14.4011 37.8927,20.9416 11.4962,6.5405 20.05,11.4111 28.6338,17.1242 8.5838,5.7131 13.5901,10.0076 22.2688,14.5084 8.6787,4.5008 17.8312,8.7242 28.5596,11.6271 10.7284,2.9029 25.0684,6.8901 36.6873,7.8455 11.6189,0.9554 74.972,2.1524 117.1737,-0.9276 42.2016,-3.0801 39.6347,-4.0476 66.6015,-7.4185 26.9667,-3.3709 45.8572,-11.2143 56.0453,-15.3065 10.188,-4.0923 22.3963,-9.0313 32.0043,-15.1402 9.608,-6.1089 22.851,-13.5458 29.482,-17.879 6.6311,-4.3333 30.2344,-20.1888 37.4251,-25.1378 7.1908,-4.949 23.0152,-14.9335 33.1903,-20.6042 10.175,-5.6708 26.1301,-15.0195 37.7511,-18.7524 11.6209,-3.7329 13.8442,-4.7828 21.4479,-5.6443 7.6037,-0.8615 14.0798,-0.01 18.4959,1.097 4.4161,1.1066 27.3061,10.7375 40.6998,6.4286 13.3937,-4.3088 16.1475,-9.4895 20.5688,-15.5095 4.4214,-6.02 7.6886,-15.8556 10.3422,-16.0078 2.6537,-0.1522 3.3175,2.5827 5.5051,12.9391 2.1875,10.3565 5.1692,22.7877 7.968,39.2629 2.7989,16.4751 9.0426,38.6234 15.5207,49.153 6.4781,10.5296 17.4273,19.2547 26.4149,23.4799 8.9876,4.2252 16.5175,5.8542 27.2541,6.724 10.7367,0.8697 22.0533,1.799 34.2895,2.0706 7.0805,0.1257 5.6797,0.2958 10.0451,0.245 2.2307,-0.1341 -1.7099,35.123 -2.027,36.6703 -0.9126,2.203 -16.7622,4.7538 -28.3518,6.7851 -11.5896,2.0313 -23.9334,3.9194 -34.9941,7.3939 -11.0607,3.4745 -21.1186,8.003 -26.6726,12.2553 -5.554,4.2522 -10.5667,8.5449 -16.9325,19.7546 -6.3659,11.2098 -12.9479,28.554 -15.9166,46.3954 -2.9687,17.8413 -5.7683,30.3619 -6.8861,35.6714 -1.1178,5.3094 -4.6987,22.0001 -7.3576,22.2992 -3.2808,0.3691 -5.0919,-6.1282 -10.6887,-21.3654 -5.5968,-15.2373 -12.3676,-18.303 -32.1381,-17.1127 -11.6939,0.8627 -21.8236,7.9178 -41.8496,6.3402 -20.026,-1.5777 -41.5458,-13.1844 -49.901,-18.0548 -8.3552,-4.8704 -24.4254,-15.0783 -43.3457,-26.8813 -16.0695,-10.0246 -32.8683,-21.8117 -40.7899,-27.3065 -17.2483,-11.9643 -30.6919,-21.1662 -64.3425,-29.4075 -33.6506,-8.2413 -62.0338,-15.9156 -97.6372,-18.6992 -35.6034,-2.7836 -74.2839,-2.3529 -102.0267,-2.2435 -27.7429,0.1093 -43.4951,2.2101 -66.4603,7.7334 -22.9652,5.5232 -49.8113,21.0805 -71.1714,36.6221 -8.722,6.3462 -18.1378,11.3656 -26.6268,15.8534 -12.3003,6.5027 -23.8359,11.2349 -33.8818,16.2832 -16.9791,8.5323 -36.832,13.7313 -63.1098,19.057 -26.2778,5.3256 -49.1045,6.1406 -60.4037,6.8132 -11.2991,0.6726 -18.4044,-0.025 -38.4954,-0.3127 -20.091,-0.2881 -36.5915,-1.0387 -50.913,-2.2212 -14.3215,-1.1825 -19.6618,-2.1228 -38.2073,0.2805 -18.5456,2.4033 -37.0421,18.5711 -37.5893,19.8473 -0.1028,-53.6036 1.637,-121.8634 2.6731,-181.0223 0.08,-4.5769 0.9495,-9.258 1.0098,-13.713 z"
       style="fill:none;stroke:#00e4b6;stroke-width:1.8;stroke-linecap:butt;stroke-linejoin:miter;stroke-miterlimit:4;stroke-dasharray:none;stroke-opacity:1" />
  </g>
  <g
     id="g24550"
     transform="translate(-2.1611405e-4,-702.17088)">
    <text
       xml:space="preserve"
       style="font-size:53.3333px;line-height:1.25;font-family:sans-serif;-inkscape-font-specification:sans-serif;letter-spacing:0px;word-spacing:0px"
       x="2133.7549"
       y="2471.5938"
       id="text19196"><tspan
         sodipodi:role="line"
         id="tspan19194"
         x="2133.7549"
         y="2471.5938">y1: -100 uA / cm2</tspan></text>
    <path
       style="fill:none;stroke:#000000;stroke-width:1px;stroke-linecap:butt;stroke-linejoin:miter;stroke-opacity:1"
       d="M 2916.5013,2892.8744 2513.5648,2443.3223"
       id="path21683"
       sodipodi:nodetypes="cc" />
  </g>
  <g
     id="g24435"
     transform="translate(-2.1611405e-4,2.2522891e-4)">
    <text
       xml:space="preserve"
       style="font-size:53.3333px;line-height:1.25;font-family:sans-serif;-inkscape-font-specification:sans-serif;letter-spacing:0px;word-spacing:0px"
       x="2710.0842"
       y="3077.8994"
       id="text23081"><tspan
         sodipodi:role="line"
         id="tspan23079"
         x="2710.0842"
         y="3077.8994">x1: -0.2 V vs. SHE</tspan></text>
    <path
       style="fill:none;stroke:#000000;stroke-width:1px;stroke-linecap:butt;stroke-linejoin:miter;stroke-opacity:1"
       d="m 3049.0043,2893.5129 -350.4144,175.4467"
       id="path24343" />
  </g>
  <g
     id="g24430"
     transform="translate(-2.1611405e-4,2.2522891e-4)">
    <text
       xml:space="preserve"
       style="font-size:53.3333px;line-height:1.25;font-family:sans-serif;-inkscape-font-specification:sans-serif;letter-spacing:0px;word-spacing:0px"
       x="4277.6069"
       y="3107.0767"
       id="text23081-8"><tspan
         sodipodi:role="line"
         id="tspan23079-8"
         x="4277.6069"
         y="3107.0767">x2: 0.8 V vs. SHE</tspan></text>
    <path
       style="fill:none;stroke:#000000;stroke-width:1px;stroke-linecap:butt;stroke-linejoin:miter;stroke-opacity:1"
       d="M 4370.3619,2893.2735 4269.4681,3091.948"
       id="path24345" />
  </g>
  <g
     id="g25998"
     transform="translate(-2.1611405e-4,-702.17088)">
    <text
       xml:space="preserve"
       style="font-size:53.3333px;line-height:1.25;font-family:sans-serif;-inkscape-font-specification:sans-serif;letter-spacing:0px;word-spacing:0px"
       x="2291.9622"
       y="1971.1135"
       id="text19196-1"><tspan
         sodipodi:role="line"
         id="tspan19194-8"
         x="2291.9622"
         y="1971.1135">y2: 100 uA / cm2</tspan></text>
    <path
       style="fill:none;stroke:#000000;stroke-width:1px;stroke-linecap:butt;stroke-linejoin:miter;stroke-opacity:1"
       d="M 2917.2996,2191.3272 2697.3128,1956.5735"
       id="path25913" />
  </g>
</svg>
