<?xml version="1.0" encoding="UTF-8" standalone="no"?>
<svg
   xmlns:dc="http://purl.org/dc/elements/1.1/"
   xmlns:cc="http://creativecommons.org/ns#"
   xmlns:rdf="http://www.w3.org/1999/02/22-rdf-syntax-ns#"
   xmlns:svg="http://www.w3.org/2000/svg"
   xmlns="http://www.w3.org/2000/svg"
   xmlns:xlink="http://www.w3.org/1999/xlink"
   xmlns:sodipodi="http://sodipodi.sourceforge.net/DTD/sodipodi-0.dtd"
   xmlns:inkscape="http://www.inkscape.org/namespaces/inkscape"
   height="6820px"
   version="1.2"
   width="5212px"
   id="svg6"
   sodipodi:docname="briega-martos_2021_cation_48_f1_Na_2.9.svg"
   inkscape:version="0.92.5 (2060ec1f9f, 2020-04-08)">
  <metadata
     id="metadata10">
    <rdf:RDF>
      <cc:Work
         rdf:about="">
        <dc:format>image/svg+xml</dc:format>
        <dc:type
           rdf:resource="http://purl.org/dc/dcmitype/StillImage" />
        <dc:title />
      </cc:Work>
    </rdf:RDF>
  </metadata>
  <sodipodi:namedview
     pagecolor="#ffffff"
     bordercolor="#666666"
     borderopacity="1"
     objecttolerance="10"
     gridtolerance="10"
     guidetolerance="10"
     inkscape:pageopacity="0"
     inkscape:pageshadow="2"
     inkscape:window-width="2488"
     inkscape:window-height="1295"
     id="namedview8"
     showgrid="false"
     inkscape:zoom="1.1073313"
     inkscape:cx="3046.6132"
     inkscape:cy="5173.0852"
     inkscape:window-x="72"
     inkscape:window-y="27"
     inkscape:window-maximized="1"
     inkscape:current-layer="g936" />
  <defs
     id="defs2" />
  <image
     sodipodi:absref="/home/hoermann/Downloads/EchemDB_Digitizer/Test21Sept_data/briega-martos_2021_cation_48/briega-martos_2021_cation_48_p2.png"
     xlink:href="briega-martos_2021_cation_48_p2.png"
     id="image4"
     y="0"
     x="0"
     width="5212px"
     height="6820px" />
  <g
     transform="matrix(36.66719,0,0,36.66719,434.6318,-3134.528)"
     id="g1567">
    <path
       style="fill:none;stroke:#000000;stroke-width:0.26458299px;stroke-linecap:butt;stroke-linejoin:miter;stroke-opacity:1"
       d="m 59.374912,123.0703 8.311503,2.9895"
       id="path877"
       inkscape:connector-curvature="0"
       sodipodi:nodetypes="cc" />
    <text
       xml:space="preserve"
       style="font-size:3.17499995px;line-height:1.25;font-family:sans-serif;stroke-width:0.26458299"
       x="34.305443"
       y="123.96095"
       id="text10650"><tspan
         sodipodi:role="line"
         id="tspan10648"
         style="stroke-width:0.26458299"
         x="34.305443"
         y="123.96095">y2: 100 uA cm-2</tspan></text>
  </g>
  <g
     transform="matrix(36.66719,0,0,36.66719,-120.7787,-3419.3921)"
     id="g1562">
    <path
       style="fill:none;stroke:#000000;stroke-width:0.26458299px;stroke-linecap:butt;stroke-linejoin:miter;stroke-opacity:1"
       d="m 82.830732,153.0048 -22.475853,1.1285"
       id="path881"
       inkscape:connector-curvature="0"
       sodipodi:nodetypes="cc" />
    <text
       xml:space="preserve"
       style="font-size:3.17499995px;line-height:1.25;font-family:sans-serif;stroke-width:0.26458299"
       x="47.220585"
       y="155.5658"
       id="text2906"><tspan
         sodipodi:role="line"
         id="tspan2904"
         style="stroke-width:0.26458299"
         x="47.220585"
         y="155.5658">y1: -100  uA cm-2</tspan></text>
  </g>
  <g
     id="g1572"
     transform="matrix(36.66719,0,0,36.66719,2462.3932,-627.68871)">
    <path
       style="fill:none;stroke:#000000;stroke-width:0.26458299px;stroke-linecap:butt;stroke-linejoin:miter;stroke-opacity:1"
       d="m 15.980619,76.878976 2.268442,3.989503"
       id="path879"
       inkscape:connector-curvature="0"
       sodipodi:nodetypes="cc" />
    <text
       xml:space="preserve"
       style="font-size:3.17499995px;line-height:1.25;font-family:sans-serif;stroke-width:0.26458299"
       x="6.8084121"
       y="83.573616"
       id="text15406"><tspan
         sodipodi:role="line"
         id="tspan15404"
         style="stroke-width:0.26458299"
         x="6.8084121"
         y="83.573616">x1: -0.2 V vs SHE</tspan></text>
  </g>
  <g
     id="g1577"
     transform="matrix(36.66719,0,0,36.66719,2456.5111,-628.96911)">
    <path
       style="fill:none;stroke:#000000;stroke-width:0.26458299px;stroke-linecap:butt;stroke-linejoin:miter;stroke-opacity:1"
       d="m 55.770043,76.904979 4.116431,3.956645"
       id="path883"
       inkscape:connector-curvature="0"
       sodipodi:nodetypes="cc" />
    <text
       xml:space="preserve"
       style="font-size:3.17499995px;line-height:1.25;font-family:sans-serif;stroke-width:0.26458299"
       x="61.111824"
       y="81.725914"
       id="text18116"><tspan
         sodipodi:role="line"
         id="tspan18114"
         style="stroke-width:0.26458299"
         x="61.111824"
         y="81.725914">x2: 0.9 V vs SHE</tspan></text>
  </g>
  <text
     xml:space="preserve"
     style="font-style:normal;font-variant:normal;font-weight:normal;font-stretch:normal;font-size:258.70736694px;line-height:1.25;font-family:sans-serif;-inkscape-font-specification:sans-serif;letter-spacing:0px;word-spacing:0px;fill:#000000;fill-opacity:1;stroke:none;stroke-width:9.70152664"
     x="4942.9067"
     y="1137.9409"
     id="text839"><tspan
       sodipodi:role="line"
       id="tspan837"
       x="4942.9067"
       y="1137.9409"
       style="stroke-width:9.70152664">scan rate: 50 mV / s</tspan></text>
  <g
     transform="translate(4.6379309e-6,-702.73961)"
     id="g936">
    <text
       id="text10650-7-3"
       y="2256.2637"
       x="4132.7466"
       style="font-size:116.41832733px;line-height:1.25;font-family:sans-serif;stroke-width:9.7015152"
       xml:space="preserve"><tspan
         y="2256.2637"
         x="4132.7466"
         style="stroke-width:9.7015152"
         id="tspan10648-5-5"
         sodipodi:role="line">curve: Na+pH2.9</tspan></text>
    <path
       sodipodi:nodetypes="zszzzzzzzcczzczczzzzzzzzzzzzzczzzzzzzzzzzzzzzzzzzzcczzzzzzzssszzzzzzzzzz"
       inkscape:connector-curvature="0"
       id="path913"
       d="m 3160.5244,2671.1267 c 0.013,-0.6942 4.0251,-198.8175 4.0251,-198.8175 4.564,-8.128 12.4351,-29.6767 27.6452,-33.2096 15.2102,-3.5329 24.2126,-2.8123 42.6006,-5.4053 18.388,-2.593 39.0024,-6.7137 48.0567,-7.5548 9.0543,-0.8411 23.3449,0.7183 48.3888,1.9141 25.0439,1.1953 53.916,1.2368 86.2876,10.046 32.3716,8.8092 33.7926,10.5898 47.2242,17.0318 13.4316,6.442 22.539,10.7695 32.9177,17.6293 10.3787,6.8598 22.6851,18.6698 31.2689,24.3829 16.8251,9.7252 33.9479,20.6552 50.572,25.286 10.7284,2.9029 25.52,5.7048 37.1389,6.6602 11.6189,0.9554 23.0279,0.2872 35.5584,-0.4516 12.5305,-0.7388 40.7889,-4.1757 54.1844,-5.9827 44.7018,-5.659 44.217,-5.2312 66.8273,-6.4344 22.6102,-1.2033 50.8367,-1.9696 63.5536,-2.7093 23.7278,-1.7752 31.6434,-6.021 42.6703,-9.3693 11.0268,-3.3483 56.9511,-31.6749 66.0371,-36.8002 9.086,-5.1253 25.1019,-16.8516 34.0296,-20.3034 8.9277,-3.4518 20.5272,-9.355 27.6328,-11.056 7.1056,-1.701 17.1056,-4.7739 24.7093,-5.6354 7.6037,-0.8615 9.8934,-0.6477 21.295,0.1895 11.4017,0.8372 17.0215,1.1522 25.3157,-0.3944 8.2943,-1.5465 14.4836,-4.9725 20.1572,-9.2632 5.6735,-4.2907 11.3414,-13.0412 14.7089,-19.3518 3.3675,-6.3106 5.5003,-13.0986 7.4664,-20.6158 1.9661,-7.5172 3.2888,-17.824 5.0189,-26.6292 1.7301,-8.8052 7.0337,-48.5351 9.2178,-48.7634 2.1841,-0.2283 4.196,29.8088 5.0604,37.5378 0.8644,7.729 1.7704,19.2268 2.8221,32.7363 0.8969,9.2575 2.0678,17.3436 3.0478,25.8505 0.98,8.5069 1.3829,19.2794 2.4755,25.8971 1.0926,6.6177 1.2578,11.1255 2.456,17.3729 1.1982,6.2474 1.9539,12.09 4.2155,19.6531 2.2616,7.5631 5.1026,15.2147 7.9099,20.9771 2.8073,5.7624 5.5528,9.1394 8.7856,13.2074 3.2328,4.068 7.244,6.6826 12.651,10.2451 5.407,3.5625 11.5064,6.2326 18.7968,8.3078 7.2904,2.0752 16.0785,2.2604 23.7605,3.0124 7.682,0.752 13.8031,1.229 20.8836,1.3547 7.0805,0.1257 13.3573,0.6153 17.7227,0.5644 4.3654,-0.051 4.3945,0.1501 4.3865,0.845 -0.01,0.6949 -1.5482,19.579 -3.788,23.5448 -2.2397,3.9657 -21.3064,4.89 -32.896,6.9213 -11.5896,2.0313 -22.6122,3.6941 -33.8686,7.4036 -11.2565,3.7095 -18.8115,5.9796 -27.4316,14.2768 -8.6201,8.2971 -13.153,13.531 -17.3001,22.796 -4.1471,9.265 -9.6599,27.4328 -12.5106,39.9722 -2.8507,12.5394 -3.6836,22.5197 -5.4185,34.1845 -1.7349,11.6648 -2.4315,25.2231 -3.6898,36.4421 -1.2583,11.219 -1.8976,21.7406 -2.8141,30.9964 -0.7949,8.4612 -4.3905,40.6578 -7.2907,41.2002 -4.0949,-2.1452 -3.8476,-25.2425 -5.8038,-38.491 -1.9562,-13.2485 -3.428,-32.8516 -7.1698,-45.5002 -3.7418,-12.6486 -2.8297,-18.6175 -10.0913,-27.8427 -7.2616,-9.2251 -12.5246,-14.2578 -23.4203,-18.8229 -10.8957,-4.5651 -26.8453,-0.2511 -49.147,-3.1059 -22.3017,-2.8548 -38.4035,-7.9409 -59.605,-18.5404 -21.2016,-10.5995 -33.244,-23.3744 -51.6098,-32.6248 -18.3658,-9.2504 -29.5824,-19.6014 -59.7209,-25.7674 -17.7773,-3.637 -63.8275,0.4476 -105.7219,-2.6434 -29.1306,-2.1493 -57.0314,-8.5759 -71.634,-9.7176 -35.6034,-2.7836 -25.0481,-1.4091 -52.1524,-2.2576 -27.1043,-0.8485 -30.8851,2.1826 -52.7328,6.9874 -21.8477,4.8048 -44.4636,19.6097 -65.9035,33.954 -21.4399,14.3443 -27.5294,23.8459 -57.1515,35.5391 -29.6221,11.6931 -46.5163,13.4371 -73.5924,17.4856 -27.0761,4.0485 -21.5306,4.3958 -37.5709,5.8587 -16.0403,1.4627 -39.59,3.9277 -59.681,3.6396 -20.091,-0.2881 -36.8431,-5.5518 -51.1646,-6.7343 -14.3215,-1.1825 -17.4769,-1.0987 -33.069,0.1871 -15.5922,1.2858 -35.5452,19.3989 -35.5324,18.7047 z"
       style="fill:none;stroke:#000000;stroke-width:1px;stroke-linecap:butt;stroke-linejoin:miter;stroke-opacity:1" />
  </g>
</svg>
