<?xml version="1.0" encoding="UTF-8" standalone="no"?>
<svg
   height="6820px"
   version="1.2"
   width="5212px"
   id="svg6"
   sodipodi:docname="briega-martos_2021_cation_48_p2_f1_Na_4_0.svg"
   inkscape:version="1.1.2 (b8e25be833, 2022-02-05)"
   xmlns:inkscape="http://www.inkscape.org/namespaces/inkscape"
   xmlns:sodipodi="http://sodipodi.sourceforge.net/DTD/sodipodi-0.dtd"
   xmlns:xlink="http://www.w3.org/1999/xlink"
   xmlns="http://www.w3.org/2000/svg"
   xmlns:svg="http://www.w3.org/2000/svg"
   xmlns:rdf="http://www.w3.org/1999/02/22-rdf-syntax-ns#"
   xmlns:cc="http://creativecommons.org/ns#"
   xmlns:dc="http://purl.org/dc/elements/1.1/">
  <metadata
     id="metadata10">
    <rdf:RDF>
      <cc:Work
         rdf:about="">
        <dc:format>image/svg+xml</dc:format>
        <dc:type
           rdf:resource="http://purl.org/dc/dcmitype/StillImage" />
        <dc:title />
      </cc:Work>
    </rdf:RDF>
  </metadata>
  <sodipodi:namedview
     pagecolor="#ffffff"
     bordercolor="#666666"
     borderopacity="1"
     objecttolerance="10"
     gridtolerance="10"
     guidetolerance="10"
     inkscape:pageopacity="0"
     inkscape:pageshadow="2"
     inkscape:window-width="1920"
     inkscape:window-height="1017"
     id="namedview8"
     showgrid="false"
     inkscape:zoom="0.27683283"
     inkscape:cx="3160.7523"
     inkscape:cy="2315.4769"
     inkscape:window-x="-8"
     inkscape:window-y="32"
     inkscape:window-maximized="1"
     inkscape:current-layer="svg6"
     inkscape:pagecheckerboard="0" />
  <defs
     id="defs2" />
  <image
     xlink:href="briega-martos_2021_cation_48_p2.png"
     id="image4"
     y="0"
     x="0"
     width="5212px"
     height="6820px" />
  <text
     xml:space="preserve"
     style="font-style:normal;font-variant:normal;font-weight:normal;font-stretch:normal;font-size:258.707px;line-height:1.25;font-family:sans-serif;-inkscape-font-specification:sans-serif;letter-spacing:0px;word-spacing:0px;fill:#000000;fill-opacity:1;stroke:none;stroke-width:9.70153"
     x="4942.9067"
     y="1137.9409"
     id="text839"><tspan
       sodipodi:role="line"
       id="tspan837"
       x="4942.9067"
       y="1137.9409"
       style="stroke-width:9.70153">scan rate: 50 mV / s</tspan></text>
  <g
     transform="translate(4.6379309e-6,-702.73961)"
     id="g936">
    <text
       id="text10650-7-3"
       y="2256.2637"
       x="4132.7466"
       style="font-size:116.418px;line-height:1.25;font-family:sans-serif;stroke-width:9.70152"
       xml:space="preserve"><tspan
         y="2256.2637"
         x="4132.7466"
         style="stroke-width:9.70152"
         id="tspan10648-5-5"
         sodipodi:role="line">curve: Na+pH4.0</tspan></text>
    <path
       sodipodi:nodetypes="scssssszzzzzzzzzzzzzzzzzzzccccczzzsszzzzczscczssszzzzzzzzzzzs"
       inkscape:connector-curvature="0"
       id="path913"
       d="m 3065.5964,2675.5872 3.268,-200.7969 c 0,0 9.1247,-26.5 28.2097,-34.4513 11.256,-4.6894 38.0217,-5.7505 54.3895,-7.5672 20.9205,-2.3221 59.4697,-7.132 71.3107,-8.232 6.2675,-0.5821 11.7487,1.367 20.8451,1.8011 40.9913,1.9565 47.8579,4.3694 84.4814,14.3356 28.1196,7.6521 32.2123,11.0904 45.6439,17.5324 13.4315,6.442 30.7796,16.075 41.1583,22.9348 10.3787,6.8598 15.7991,9.4453 23.9314,15.6099 8.1323,6.1646 12.6564,9.8674 21.3351,14.3682 8.6787,4.5008 19.4115,10.5303 30.1399,13.4332 10.7284,2.9029 40.2538,8.0801 51.8727,9.0355 11.6189,0.9554 60.8961,-0.1403 103.0978,-3.2203 42.2016,-3.0801 39.3155,-4.1229 65.484,-8.6113 26.1685,-4.4884 44.5985,-10.0587 49.0561,-11.2015 4.4576,-1.1428 22.0248,-7.3874 33.2444,-12.4172 11.2196,-5.0298 26.5498,-12.2911 38.5836,-20.3258 12.0338,-8.0348 25.6845,-16.3734 36.0681,-23.0784 10.3836,-6.7051 19.4256,-12.4454 28.3533,-17.8927 8.9277,-5.4474 21.6968,-13.1223 29.2015,-16.2601 7.5047,-3.1378 7.8256,-3.9685 15.7486,-5.9475 7.923,-1.979 20.2207,-5.5125 29.4437,-3.8564 9.2231,1.6561 30.6996,9.6885 45.6737,6.5085 14.9742,-3.18 23.2468,-16.0427 26.6109,-23.4818 3.3641,-7.4391 6.6101,-15.1906 9.1242,-14.7954 2.5141,0.3951 5.8806,12.7233 6.8916,22.3413 0.9772,9.4071 4.7771,20.7034 5.674,29.9609 3.0993,17.9603 2.7802,22.3535 14.449,49.8948 2.8073,5.7624 6.9268,9.9296 10.1596,13.9976 8.8637,8.9488 21.3172,13.8874 31.4616,16.7593 7.2904,2.0752 14.3634,3.4851 22.0454,4.2371 7.682,0.752 12.1099,1.6805 19.1904,1.8062 7.0805,0.1257 12.1293,0.5684 16.4947,0.5176 4.3654,-0.051 5.5292,0.977 5.5292,0.977 -0.016,1.3898 -1.4439,29.6927 -2.1242,31.3352 -0.9126,2.203 -22.3078,5.3689 -33.8974,7.4002 -11.5896,2.0313 -22.3917,3.7889 -33.4524,7.2634 -11.0607,3.4745 -26.0713,11.1306 -30.1578,15.1571 -4.0864,4.0266 -6.9543,6.9082 -14.054,17.5535 -7.0996,10.6453 -16.5606,44.1129 -19.6417,67.2224 -2.8507,12.5394 -3.3977,16.1385 -4.5155,21.448 -1.1178,5.3094 -3.5028,17.3997 -6.1617,17.6988 -3.2808,0.3691 -6.0923,-10.5286 -8.8986,-17.473 -8.3856,-23.5255 -21.225,-24.8857 -40.9955,-23.6954 -11.6939,0.8627 -29.0071,6.1619 -44.0842,3.3071 -15.0771,-2.8548 -34.7614,-10.9241 -57.2496,-25.8065 -12.8471,-8.5021 -25.7724,-17.6154 -38.1936,-25.3231 -9.3216,-5.7843 -18.6057,-10.3825 -26.0004,-15.5119 -17.2483,-11.9643 -42.2078,-24.9177 -72.3463,-31.0837 -30.1385,-6.166 -59.7588,-9.8234 -95.3622,-12.607 -35.6034,-2.7836 -75.52,-4.9799 -103.2628,-4.8705 -27.7429,0.1093 -38.0129,1.1212 -66.2949,7.6193 -28.2821,6.498 -51.9688,24.3007 -73.4087,38.645 -21.4399,14.3442 -39.8497,21.7821 -56.8288,30.3144 -16.979,8.5324 -37.8811,12.7404 -64.1589,18.0661 -26.2778,5.3256 -45.2664,7.9467 -61.3067,9.4095 -16.0403,1.4628 -25.5161,2.7975 -37.2537,1.4935 -11.7376,-1.3041 -41.0078,-5.123 -55.3293,-6.3055 -14.3215,-1.1825 -22.9206,0.1897 -38.5128,1.4755 -15.5921,1.2858 -34.702,24.7408 -34.6794,23.3524 z"
       style="fill:none;stroke:#000000;stroke-width:1px;stroke-linecap:butt;stroke-linejoin:miter;stroke-opacity:1" />
  </g>
  <g
     id="g24550"
     transform="translate(-2.1611404e-4,-702.17088)">
    <text
       xml:space="preserve"
       style="font-size:53.3333px;line-height:1.25;font-family:sans-serif;-inkscape-font-specification:sans-serif;letter-spacing:0px;word-spacing:0px"
       x="2133.7549"
       y="2471.5938"
       id="text19196"><tspan
         sodipodi:role="line"
         id="tspan19194"
         x="2133.7549"
         y="2471.5938">y1: -100 uA / cm2</tspan></text>
    <path
       style="fill:none;stroke:#000000;stroke-width:1px;stroke-linecap:butt;stroke-linejoin:miter;stroke-opacity:1"
       d="M 2916.5013,2892.8744 2513.5648,2443.3223"
       id="path21683"
       sodipodi:nodetypes="cc" />
  </g>
  <g
     id="g24435"
     transform="translate(-2.1611404e-4,2.2822891e-4)">
    <text
       xml:space="preserve"
       style="font-size:53.3333px;line-height:1.25;font-family:sans-serif;-inkscape-font-specification:sans-serif;letter-spacing:0px;word-spacing:0px"
       x="2710.0842"
       y="3077.8994"
       id="text23081"><tspan
         sodipodi:role="line"
         id="tspan23079"
         x="2710.0842"
         y="3077.8994">x1: -0.2 V vs. SHE</tspan></text>
    <path
       style="fill:none;stroke:#000000;stroke-width:1px;stroke-linecap:butt;stroke-linejoin:miter;stroke-opacity:1"
       d="m 3049.0043,2893.5129 -350.4144,175.4467"
       id="path24343" />
  </g>
  <g
     id="g24430"
     transform="translate(-2.1611404e-4,2.2822891e-4)">
    <text
       xml:space="preserve"
       style="font-size:53.3333px;line-height:1.25;font-family:sans-serif;-inkscape-font-specification:sans-serif;letter-spacing:0px;word-spacing:0px"
       x="4277.6069"
       y="3107.0767"
       id="text23081-8"><tspan
         sodipodi:role="line"
         id="tspan23079-8"
         x="4277.6069"
         y="3107.0767">x2: 0.8 V vs. SHE</tspan></text>
    <path
       style="fill:none;stroke:#000000;stroke-width:1px;stroke-linecap:butt;stroke-linejoin:miter;stroke-opacity:1"
       d="M 4370.3619,2893.2735 4269.4681,3091.948"
       id="path24345" />
  </g>
  <g
     id="g25998"
     transform="translate(-2.1611404e-4,-702.17088)">
    <text
       xml:space="preserve"
       style="font-size:53.3333px;line-height:1.25;font-family:sans-serif;-inkscape-font-specification:sans-serif;letter-spacing:0px;word-spacing:0px"
       x="2291.9622"
       y="1971.1135"
       id="text19196-1"><tspan
         sodipodi:role="line"
         id="tspan19194-8"
         x="2291.9622"
         y="1971.1135">y2: 100 uA / cm2</tspan></text>
    <path
       style="fill:none;stroke:#000000;stroke-width:1px;stroke-linecap:butt;stroke-linejoin:miter;stroke-opacity:1"
       d="M 2917.2996,2191.3272 2697.3128,1956.5735"
       id="path25913" />
  </g>
</svg>
