<?xml version="1.0" encoding="UTF-8" standalone="no"?>
<svg
   xmlns:dc="http://purl.org/dc/elements/1.1/"
   xmlns:cc="http://creativecommons.org/ns#"
   xmlns:rdf="http://www.w3.org/1999/02/22-rdf-syntax-ns#"
   xmlns:svg="http://www.w3.org/2000/svg"
   xmlns="http://www.w3.org/2000/svg"
   xmlns:xlink="http://www.w3.org/1999/xlink"
   xmlns:sodipodi="http://sodipodi.sourceforge.net/DTD/sodipodi-0.dtd"
   xmlns:inkscape="http://www.inkscape.org/namespaces/inkscape"
   height="6820px"
   version="1.2"
   width="5212px"
   id="svg6"
   sodipodi:docname="briega-martos_2021_cation_48_f1_Cs_4.0.svg"
   inkscape:version="0.92.5 (2060ec1f9f, 2020-04-08)">
  <metadata
     id="metadata10">
    <rdf:RDF>
      <cc:Work
         rdf:about="">
        <dc:format>image/svg+xml</dc:format>
        <dc:type
           rdf:resource="http://purl.org/dc/dcmitype/StillImage" />
      </cc:Work>
    </rdf:RDF>
  </metadata>
  <sodipodi:namedview
     pagecolor="#ffffff"
     bordercolor="#666666"
     borderopacity="1"
     objecttolerance="10"
     gridtolerance="10"
     guidetolerance="10"
     inkscape:pageopacity="0"
     inkscape:pageshadow="2"
     inkscape:window-width="2488"
     inkscape:window-height="1295"
     id="namedview8"
     showgrid="false"
     inkscape:zoom="0.78300151"
     inkscape:cx="4006.7841"
     inkscape:cy="4512.087"
     inkscape:window-x="72"
     inkscape:window-y="27"
     inkscape:window-maximized="1"
     inkscape:current-layer="svg6" />
  <defs
     id="defs2" />
  <image
     sodipodi:absref="/home/hoermann/Downloads/EchemDB_Digitizer/Test21Sept_data/briega-martos_2021_cation_48/briega-martos_2021_cation_48_p2.png"
     xlink:href="briega-martos_2021_cation_48_p2.png"
     height="6820px"
     width="5212px"
     x="0"
     y="0"
     id="image4" />
  <g
     transform="matrix(36.66719,0,0,36.66719,434.6318,-2431.7883)"
     id="g1567">
    <path
       style="fill:none;stroke:#000000;stroke-width:0.26458299px;stroke-linecap:butt;stroke-linejoin:miter;stroke-opacity:1"
       d="m 59.374912,123.0703 8.311503,2.9895"
       id="path877"
       inkscape:connector-curvature="0"
       sodipodi:nodetypes="cc" />
    <text
       xml:space="preserve"
       style="font-size:3.17499995px;line-height:1.25;font-family:sans-serif;stroke-width:0.26458299"
       x="34.305443"
       y="123.96095"
       id="text10650"><tspan
         sodipodi:role="line"
         id="tspan10648"
         style="stroke-width:0.26458299"
         x="34.305443"
         y="123.96095">y2: 100 uA cm-2</tspan></text>
  </g>
  <g
     transform="matrix(36.66719,0,0,36.66719,-120.7787,-2716.3137)"
     id="g1562">
    <path
       style="fill:none;stroke:#000000;stroke-width:0.26458299px;stroke-linecap:butt;stroke-linejoin:miter;stroke-opacity:1"
       d="m 82.83182,152.97379 -22.476941,1.15027"
       id="path881"
       inkscape:connector-curvature="0"
       sodipodi:nodetypes="cc" />
    <text
       xml:space="preserve"
       style="font-size:3.17499995px;line-height:1.25;font-family:sans-serif;stroke-width:0.26458299"
       x="47.220585"
       y="155.55656"
       id="text2906"><tspan
         sodipodi:role="line"
         id="tspan2904"
         style="stroke-width:0.26458299"
         x="47.220585"
         y="155.55656">y1: -100  uA cm-2</tspan></text>
  </g>
  <g
     id="g1572"
     transform="matrix(36.66719,0,0,36.66719,2462.3932,76.405505)">
    <path
       style="fill:none;stroke:#000000;stroke-width:0.26458299px;stroke-linecap:butt;stroke-linejoin:miter;stroke-opacity:1"
       d="m 15.980619,76.842033 2.268442,3.989503"
       id="path879"
       inkscape:connector-curvature="0"
       sodipodi:nodetypes="cc" />
    <text
       xml:space="preserve"
       style="font-size:3.17499995px;line-height:1.25;font-family:sans-serif;stroke-width:0.26458299"
       x="6.8084121"
       y="83.536674"
       id="text15406"><tspan
         sodipodi:role="line"
         id="tspan15404"
         style="stroke-width:0.26458299"
         x="6.8084121"
         y="83.536674">x1: -0.2 V vs SHE</tspan></text>
  </g>
  <g
     id="g1577"
     transform="matrix(36.66719,0,0,36.66719,2456.5111,73.770505)">
    <path
       style="fill:none;stroke:#000000;stroke-width:0.26458299px;stroke-linecap:butt;stroke-linejoin:miter;stroke-opacity:1"
       d="m 55.771967,76.886507 4.114507,3.975117"
       id="path883"
       inkscape:connector-curvature="0"
       sodipodi:nodetypes="cc" />
    <text
       xml:space="preserve"
       style="font-size:3.17499995px;line-height:1.25;font-family:sans-serif;stroke-width:0.26458299"
       x="61.111824"
       y="81.725914"
       id="text18116"><tspan
         sodipodi:role="line"
         id="tspan18114"
         style="stroke-width:0.26458299"
         x="61.111824"
         y="81.725914">x2: 0.9 V vs SHE</tspan></text>
  </g>
  <text
     xml:space="preserve"
     style="font-style:normal;font-variant:normal;font-weight:normal;font-stretch:normal;font-size:258.70736694px;line-height:1.25;font-family:sans-serif;-inkscape-font-specification:sans-serif;letter-spacing:0px;word-spacing:0px;fill:#000000;fill-opacity:1;stroke:none;stroke-width:9.70152664"
     x="4942.9067"
     y="1840.6807"
     id="text839"><tspan
       sodipodi:role="line"
       id="tspan837"
       x="4942.9067"
       y="1840.6807"
       style="stroke-width:9.70152664">scan rate: 50 mV / s</tspan></text>
  <g
     transform="translate(4.6379309e-6,5.0067902e-6)"
     id="g936">
    <path
       sodipodi:nodetypes="scssssszzzzzzzzzzzzzzzzzczszzcczzzzzzsszzzzczscczzzzzzzzzzzzzzs"
       inkscape:connector-curvature="0"
       id="path913"
       d="m 3069.4345,2666.5393 2.5907,-191.5404 c 0,0 8.4473,-19.5012 27.5323,-27.4525 11.256,-4.6894 35.5991,-9.5573 51.9061,-11.8568 20.469,-2.8865 39.8279,-1.7136 51.6689,-2.8136 6.2675,-0.5821 31.3905,-5.406 40.4869,-4.9719 40.9913,1.9565 47.8579,4.3694 84.4814,14.3356 28.1196,7.6521 32.2123,11.0904 45.6439,17.5324 13.4315,6.442 26.7158,14.7204 37.0945,21.5802 10.3787,6.8598 19.4114,11.2514 27.9952,16.9645 8.5838,5.7131 13.2208,9.0772 21.8995,13.578 8.6787,4.5008 19.0729,9.7401 29.8013,12.643 10.7284,2.9029 25.1813,6.9466 36.8002,7.902 11.6189,0.9554 75.4235,3.5315 117.6252,0.4515 42.2016,-3.0801 39.6347,-2.0476 66.6015,-5.4185 26.9667,-3.3709 44.3083,-11.9517 48.7659,-13.0945 4.4576,-1.1428 22.3069,-8.9678 32.7364,-14.6749 10.4294,-5.7071 24.3148,-16.1225 36.3486,-24.1572 12.0338,-8.0348 25.8442,-19.0873 37.026,-24.8345 11.1818,-5.7472 19.7448,-12.1261 28.6725,-15.5779 8.9277,-3.4518 23.3731,-11.8451 30.4787,-13.5461 7.1056,-1.701 17.005,-6.3632 24.6087,-7.2247 7.6037,-0.8615 17.427,-2.0802 21.2222,-0.903 3.7953,1.1772 29.5022,9.0499 44.4763,5.8699 14.9742,-3.18 24.5283,-15.8241 28.4468,-30.0271 1.4805,-6.6892 5.0626,-15.9385 6.2143,-18.8049 1.1516,-2.8663 1.6755,-3.375 2.5906,-3.0946 0.2686,0.082 1.8447,3.1177 3.1608,9.0307 1.3161,5.913 3.3124,17.2336 4.2896,26.6407 0.9772,9.4071 2.9412,20.5438 3.8381,29.8013 3.0993,17.9603 2.7802,22.3535 14.449,49.8948 2.8073,5.7624 6.9268,9.9296 10.1596,13.9976 3.2328,4.068 9.7195,7.9517 15.1265,11.5142 5.407,3.5625 8.9649,3.569 16.2553,5.6442 7.2904,2.0752 14.4432,3.086 22.1252,3.838 7.682,0.752 12.1099,1.6805 19.1904,1.8062 7.0805,0.1257 11.8898,0.728 16.2552,0.6772 4.3654,-0.051 2.9351,4.2896 2.9351,4.2896 -0.016,1.3898 -1.4839,24.1452 -2.1642,25.7877 -0.9126,2.203 -19.4342,5.3689 -31.0238,7.4002 -11.5896,2.0313 -23.0303,4.4274 -34.091,7.9019 -11.0607,3.4745 -26.3922,12.003 -30.4787,16.0295 -4.0864,4.0266 -4.6402,4.2554 -11.7399,14.9007 -7.0996,10.6453 -18.141,56.5866 -21.2221,79.6961 -2.8507,12.5394 -2.9461,28.33 -4.0639,33.6395 -1.1178,5.3094 -1.9225,8.3689 -4.5814,8.668 -3.2808,0.3691 -7.8984,-22.9458 -10.7047,-29.8902 -8.3856,-23.5255 -22.3538,-25.7888 -42.1243,-24.5985 -11.6939,0.8627 -27.4268,4.8073 -42.5039,1.9525 -15.0771,-2.8548 -33.4068,-10.4725 -57.7011,-20.8396 -24.2942,-10.3671 -50.907,-30.3986 -68.1553,-42.3629 -17.2483,-11.9643 -37.1177,-29.2598 -67.2562,-35.4258 -30.1385,-6.166 -61.3391,-12.9841 -96.9425,-15.7677 -35.6034,-2.7836 -74.8427,-0.9161 -102.5855,-0.8067 -27.7429,0.1093 -45.0118,3.4918 -66.8594,8.2966 -21.8477,4.8048 -53.3234,24.7523 -74.7633,39.0966 -21.4399,14.3442 -39.0595,22.0078 -56.0386,30.5401 -16.979,8.5324 -36.978,13.6435 -63.2558,18.9692 -26.2778,5.3256 -45.2664,7.9467 -61.3067,9.4095 -16.0403,1.4628 -17.1627,-1.1534 -37.2537,-1.4415 -20.091,-0.2881 -36.4924,-3.5426 -50.8139,-4.7251 -14.3215,-1.1825 -24.501,-0.9391 -40.0932,0.3467 -15.5921,1.2858 -33.7951,16.6132 -33.7763,15.2247 z"
       style="fill:none;stroke:#000000;stroke-width:1px;stroke-linecap:butt;stroke-linejoin:miter;stroke-opacity:1" />
    <text
       id="text10650-7-3"
       y="2256.2637"
       x="4132.7466"
       style="font-size:116.41832733px;line-height:1.25;font-family:sans-serif;stroke-width:9.7015152"
       xml:space="preserve"><tspan
         y="2256.2637"
         x="4132.7466"
         style="stroke-width:9.7015152"
         id="tspan10648-5-5"
         sodipodi:role="line">curve: Cs+pH4.0</tspan></text>
  </g>
</svg>
