<?xml version="1.0" encoding="UTF-8" standalone="no"?>
<svg
   xmlns:dc="http://purl.org/dc/elements/1.1/"
   xmlns:cc="http://creativecommons.org/ns#"
   xmlns:rdf="http://www.w3.org/1999/02/22-rdf-syntax-ns#"
   xmlns:svg="http://www.w3.org/2000/svg"
   xmlns="http://www.w3.org/2000/svg"
   xmlns:xlink="http://www.w3.org/1999/xlink"
   xmlns:sodipodi="http://sodipodi.sourceforge.net/DTD/sodipodi-0.dtd"
   xmlns:inkscape="http://www.inkscape.org/namespaces/inkscape"
   height="6820px"
   version="1.2"
   width="5212px"
   id="svg6"
   sodipodi:docname="briega-martos_2021_cation_48_f1_Li_3.5.svg"
   inkscape:version="0.92.5 (2060ec1f9f, 2020-04-08)">
  <metadata
     id="metadata10">
    <rdf:RDF>
      <cc:Work
         rdf:about="">
        <dc:format>image/svg+xml</dc:format>
        <dc:type
           rdf:resource="http://purl.org/dc/dcmitype/StillImage" />
        <dc:title />
      </cc:Work>
    </rdf:RDF>
  </metadata>
  <sodipodi:namedview
     pagecolor="#ffffff"
     bordercolor="#666666"
     borderopacity="1"
     objecttolerance="10"
     gridtolerance="10"
     guidetolerance="10"
     inkscape:pageopacity="0"
     inkscape:pageshadow="2"
     inkscape:window-width="2488"
     inkscape:window-height="1295"
     id="namedview8"
     showgrid="false"
     inkscape:zoom="1.566003"
     inkscape:cx="4036.9996"
     inkscape:cy="5807.737"
     inkscape:window-x="72"
     inkscape:window-y="27"
     inkscape:window-maximized="1"
     inkscape:current-layer="g936" />
  <defs
     id="defs2" />
  <image
     sodipodi:absref="/home/hoermann/Downloads/EchemDB_Digitizer/Test21Sept_data/briega-martos_2021_cation_48/briega-martos_2021_cation_48_p2.png"
     xlink:href="briega-martos_2021_cation_48_p2.png"
     id="image4"
     y="0"
     x="0"
     width="5212px"
     height="6820px" />
  <g
     transform="matrix(36.66719,0,0,36.66719,434.6318,-3837.819)"
     id="g1567">
    <path
       style="fill:none;stroke:#000000;stroke-width:0.26458299px;stroke-linecap:butt;stroke-linejoin:miter;stroke-opacity:1"
       d="m 59.374912,123.0703 8.311503,2.9895"
       id="path877"
       inkscape:connector-curvature="0"
       sodipodi:nodetypes="cc" />
    <text
       xml:space="preserve"
       style="font-size:3.17499995px;line-height:1.25;font-family:sans-serif;stroke-width:0.26458299"
       x="34.305443"
       y="123.96095"
       id="text10650"><tspan
         sodipodi:role="line"
         id="tspan10648"
         style="stroke-width:0.26458299"
         x="34.305443"
         y="123.96095">y2: 100 uA cm-2</tspan></text>
  </g>
  <g
     transform="matrix(36.66719,0,0,36.66719,-120.7787,-4122.6831)"
     id="g1562">
    <path
       style="fill:none;stroke:#000000;stroke-width:0.26458299px;stroke-linecap:butt;stroke-linejoin:miter;stroke-opacity:1"
       d="m 82.830732,153.0048 -22.475853,1.1285"
       id="path881"
       inkscape:connector-curvature="0"
       sodipodi:nodetypes="cc" />
    <text
       xml:space="preserve"
       style="font-size:3.17499995px;line-height:1.25;font-family:sans-serif;stroke-width:0.26458299"
       x="47.220585"
       y="155.5658"
       id="text2906"><tspan
         sodipodi:role="line"
         id="tspan2904"
         style="stroke-width:0.26458299"
         x="47.220585"
         y="155.5658">y1: -100  uA cm-2</tspan></text>
  </g>
  <g
     id="g1572"
     transform="matrix(36.66719,0,0,36.66719,2462.3932,-1330.9798)">
    <path
       style="fill:none;stroke:#000000;stroke-width:0.26458299px;stroke-linecap:butt;stroke-linejoin:miter;stroke-opacity:1"
       d="m 15.980619,76.878976 2.268442,3.989503"
       id="path879"
       inkscape:connector-curvature="0"
       sodipodi:nodetypes="cc" />
    <text
       xml:space="preserve"
       style="font-size:3.17499995px;line-height:1.25;font-family:sans-serif;stroke-width:0.26458299"
       x="6.8084121"
       y="83.573616"
       id="text15406"><tspan
         sodipodi:role="line"
         id="tspan15404"
         style="stroke-width:0.26458299"
         x="6.8084121"
         y="83.573616">x1: -0.2 V vs SHE</tspan></text>
  </g>
  <g
     id="g1577"
     transform="matrix(36.66719,0,0,36.66719,2456.5111,-1332.2602)">
    <path
       style="fill:none;stroke:#000000;stroke-width:0.26458299px;stroke-linecap:butt;stroke-linejoin:miter;stroke-opacity:1"
       d="m 55.770043,76.904979 4.116431,3.956645"
       id="path883"
       inkscape:connector-curvature="0"
       sodipodi:nodetypes="cc" />
    <text
       xml:space="preserve"
       style="font-size:3.17499995px;line-height:1.25;font-family:sans-serif;stroke-width:0.26458299"
       x="61.111824"
       y="81.725914"
       id="text18116"><tspan
         sodipodi:role="line"
         id="tspan18114"
         style="stroke-width:0.26458299"
         x="61.111824"
         y="81.725914">x2: 0.9 V vs SHE</tspan></text>
  </g>
  <text
     xml:space="preserve"
     style="font-style:normal;font-variant:normal;font-weight:normal;font-stretch:normal;font-size:258.70736694px;line-height:1.25;font-family:sans-serif;-inkscape-font-specification:sans-serif;letter-spacing:0px;word-spacing:0px;fill:#000000;fill-opacity:1;stroke:none;stroke-width:9.70152664"
     x="4942.9067"
     y="434.64996"
     id="text839"><tspan
       sodipodi:role="line"
       id="tspan837"
       x="4942.9067"
       y="434.64996"
       style="stroke-width:9.70152664">rate: 50 mV / s</tspan></text>
  <g
     transform="translate(4.6379309e-6,-1406.0307)"
     id="g936">
    <text
       id="text10650-7-3"
       y="2256.2637"
       x="4132.7466"
       style="font-size:116.41832733px;line-height:1.25;font-family:sans-serif;stroke-width:9.7015152"
       xml:space="preserve"><tspan
         y="2256.2637"
         x="4132.7466"
         style="stroke-width:9.7015152"
         id="tspan10648-5-5"
         sodipodi:role="line">curve: Li+pH2.3</tspan></text>
    <path
       sodipodi:nodetypes="szsszsszzzzzzzzcczzczzzzzzczzzszzzzzzzzzzzzzzzzzzzzczsss"
       inkscape:connector-curvature="0"
       id="path913"
       d="m 3112.6423,2678.9116 c 0,0 5.7664,-171.919 6.6875,-183.3517 0.9211,-11.4326 7.2675,-40.9682 25.5388,-50.644 15.4874,-8.2016 21.622,-5.9949 38.0533,-7.0975 21.1463,-1.4191 69.5759,-4.4626 84.5001,-5.0779 14.9242,-0.6153 51.3972,1.2106 60.4991,0.9126 19.5433,-0.6398 31.4795,2.0863 63.598,11.7958 20.0783,6.0698 34.8579,12.5754 45.6466,19.0531 10.7887,6.4778 11.5701,5.0158 22.9865,15.228 11.4164,10.2123 18.3326,14.655 26.9164,20.3681 8.5838,5.7131 18.3634,10.5893 27.0421,15.0901 8.6787,4.5008 18.9274,6.9478 29.6558,9.8507 10.7284,2.9029 23.591,4.0513 39.1211,4.3681 15.5302,0.3168 22.1703,0.3298 47.5832,-1.7304 25.4129,-2.0602 92.9652,-10.195 112.9339,-10.7922 19.9687,-0.5972 34.378,-1.4643 45.8981,-2.0083 35.827,-0.6662 60.6609,-5.8048 90.8436,-20.9013 9.7522,-4.9169 17.0321,-8.806 28.0499,-15.1474 11.0179,-6.3415 25.0479,-16.5912 45.6421,-28.5587 20.5942,-11.9674 29.5415,-19.9306 53.7093,-25.0579 22.9346,-4.2013 44.1193,-1.7772 54.8116,-9.22 10.6923,-7.4428 16.4456,-12.8879 17.8037,-13.8161 1.3582,-0.9283 8.0349,-8.2621 12.4231,-8.4976 4.3882,-0.2354 5.9376,2.8218 9.6752,11.0315 3.7376,8.2097 8.6949,28.1571 11.0106,36.7991 2.3157,8.642 7.5744,24.1757 13.3732,33.7518 5.7988,9.576 16.6819,25.8746 40.344,33.2442 7.2904,2.0752 19.9188,5.729 27.6008,6.481 7.682,0.752 9.5806,0.9235 16.6611,1.0492 7.0805,0.1257 4.7517,0.2765 9.1171,0.2257 4.3654,-0.051 3.0279,0.6717 3.0279,0.6717 -0.016,1.3898 -1.6007,25.4542 -3.0775,27.9394 -1.4769,2.4851 -4.116,2.3865 -15.546,5.4555 -11.4299,3.0689 -23.2748,5.5278 -34.3355,9.0023 -11.0607,3.4745 -22.3097,7.3006 -28.8796,11.7787 -6.5699,4.4781 -12.1014,9.4088 -15.5005,13.6082 -3.3991,4.1994 -5.9987,6.4704 -9.2678,12.4627 -3.2691,5.9923 -14.1271,22.4487 -18.7465,38.6587 -4.6194,16.21 -15.3155,49.2083 -24.1756,49.558 -8.8601,0.3498 -15.2849,-12.4692 -23.6792,-20.843 -8.3943,-8.3737 -20.9219,-11.4187 -27.5073,-13.7488 -6.5854,-2.3301 -17.4502,-2.399 -32.5273,-5.2538 -15.0771,-2.8548 -39.1485,-15.982 -47.5184,-21.9676 -8.3699,-5.9856 -40.4933,-27.8852 -58.6994,-38.2531 -18.2062,-10.3678 -38.3154,-17.0902 -53.7668,-19.3449 -15.4514,-2.2547 -80.0105,3.276 -106.0354,3.3658 -26.0249,0.09 -74.3636,-10.8884 -102.5854,-13.6526 -28.2218,-2.7642 -68.9183,-0.7063 -90.7659,4.0985 -21.8477,4.8048 -44.8865,18.4556 -62.0497,28.3648 -17.1633,9.9092 -30.0947,19.8377 -50.6019,31.0018 -20.5073,11.1641 -56.4438,26.0425 -82.625,29.4337 -26.1813,3.3912 -61.9446,7.7919 -85.3147,7.6641 -20.091,-0.2881 -33.318,-0.807 -50.7478,-1.6201 -17.4298,-0.813 -20.3981,4.2503 -38.1072,5.8323 -8.0466,0.7188 -21.9996,-0.6353 -31.3434,5.0338 -11.2205,6.8077 -17.3654,14.1634 -17.3499,13.4059 z"
       style="fill:none;stroke:#000000;stroke-width:1px;stroke-linecap:butt;stroke-linejoin:miter;stroke-opacity:1" />
  </g>
</svg>
