<?xml version="1.0" encoding="UTF-8" standalone="no"?>
<svg
   height="6820px"
   version="1.2"
   width="5212px"
   id="svg6"
   sodipodi:docname="briega-martos_2021_cation_48_p2_f1_Li_2_9.svg"
   inkscape:version="1.1.2 (b8e25be833, 2022-02-05)"
   xmlns:inkscape="http://www.inkscape.org/namespaces/inkscape"
   xmlns:sodipodi="http://sodipodi.sourceforge.net/DTD/sodipodi-0.dtd"
   xmlns:xlink="http://www.w3.org/1999/xlink"
   xmlns="http://www.w3.org/2000/svg"
   xmlns:svg="http://www.w3.org/2000/svg"
   xmlns:rdf="http://www.w3.org/1999/02/22-rdf-syntax-ns#"
   xmlns:cc="http://creativecommons.org/ns#"
   xmlns:dc="http://purl.org/dc/elements/1.1/">
  <metadata
     id="metadata10">
    <rdf:RDF>
      <cc:Work
         rdf:about="">
        <dc:format>image/svg+xml</dc:format>
        <dc:type
           rdf:resource="http://purl.org/dc/dcmitype/StillImage" />
        <dc:title />
      </cc:Work>
    </rdf:RDF>
  </metadata>
  <sodipodi:namedview
     pagecolor="#ffffff"
     bordercolor="#666666"
     borderopacity="1"
     objecttolerance="10"
     gridtolerance="10"
     guidetolerance="10"
     inkscape:pageopacity="0"
     inkscape:pageshadow="2"
     inkscape:window-width="1920"
     inkscape:window-height="1017"
     id="namedview8"
     showgrid="false"
     inkscape:zoom="0.13841642"
     inkscape:cx="3142.6908"
     inkscape:cy="2774.2374"
     inkscape:window-x="-8"
     inkscape:window-y="32"
     inkscape:window-maximized="1"
     inkscape:current-layer="svg6"
     inkscape:pagecheckerboard="0" />
  <defs
     id="defs2" />
  <image
     xlink:href="briega-martos_2021_cation_48_p2.png"
     id="image4"
     y="0"
     x="0"
     width="5212px"
     height="6820px" />
  <text
     xml:space="preserve"
     style="font-style:normal;font-variant:normal;font-weight:normal;font-stretch:normal;font-size:258.707px;line-height:1.25;font-family:sans-serif;-inkscape-font-specification:sans-serif;letter-spacing:0px;word-spacing:0px;fill:#000000;fill-opacity:1;stroke:none;stroke-width:9.70153"
     x="4942.9067"
     y="434.64996"
     id="text839"><tspan
       sodipodi:role="line"
       id="tspan837"
       x="4942.9067"
       y="434.64996"
       style="stroke-width:9.70153">scan rate: 50 mV / s</tspan></text>
  <g
     transform="translate(4.6379309e-6,-1406.0307)"
     id="g936">
    <path
       sodipodi:nodetypes="szsszsszzzzzzzzzzzzzzzczzzzszczcczzzszzzzzzzczczzzzzzzzzzzzzzzzs"
       inkscape:connector-curvature="0"
       id="path913"
       d="m 3166.3089,2685.4569 c 0,0 3.0105,-178.3514 3.9316,-189.7841 0.9211,-11.4326 5.9129,-43.5645 24.1842,-53.2403 15.4874,-8.2016 15.4133,-6.2207 31.8446,-7.3233 21.1463,-1.4191 75.0261,-4.7866 89.9503,-5.4019 14.9242,-0.6153 48.3176,-1.0617 57.4195,-1.3597 19.5433,-0.6398 36.1077,-1.4132 68.2262,8.2963 20.0783,6.0698 37.1407,9.8064 46.1733,15.6455 9.0326,5.8392 16.2795,13.2372 26.1793,20.9751 9.8998,7.7378 20.0089,15.2936 28.5927,21.0067 8.5838,5.7131 15.0907,9.4718 23.7694,13.9726 8.6787,4.5008 16.8521,7.9056 27.5805,10.8085 10.7284,2.9029 21.4358,3.732 33.0547,4.6874 11.6189,0.9554 26.4008,0.6491 51.8137,-1.4111 25.4129,-2.0602 66.7124,-5.3405 92.4997,-4.4065 25.7873,0.9341 33.8117,1.6732 45.2105,1.4588 11.3989,-0.2145 13.6585,0.3996 22.5586,-0.1146 8.9001,-0.5142 23.4356,-2.682 31.6349,-3.7719 8.1993,-1.0899 14.1353,-2.7863 22.9008,-5.8312 8.7656,-3.0448 22.2454,-8.776 31.9975,-13.6929 9.7522,-4.9169 16.3936,-9.2849 27.4114,-15.6263 11.0179,-6.3415 18.742,-14.2764 39.7353,-25.286 20.9933,-11.0095 34.251,-20.7288 51.9532,-24.4992 22.9346,-4.2013 56.6513,-2.4956 67.3436,-9.9384 10.6923,-7.4428 13.2066,-13.0508 19.0808,-22.9157 5.8741,-9.8648 9.3657,-22.0278 10.5546,-26.3806 1.1889,-4.3528 4.4982,-10.9716 5.6499,-13.838 1.1516,-2.8663 1.4497,-3.6008 2.3648,-3.3204 0.2686,0.082 2.4934,1.368 4.4872,11.1754 1.9938,9.8075 7.0746,39.4044 10.6957,61.3183 1.0926,6.6177 1.511,8.2018 2.7092,14.4492 1.1982,6.2474 3.6084,15.0137 5.87,22.5768 8.5351,23.8735 17.8792,39.3644 41.5413,46.734 7.2904,2.0752 17.604,5.5694 25.286,6.3214 7.682,0.752 13.0129,1.0033 20.0934,1.129 7.0805,0.1257 8.5033,0.2765 12.8687,0.2257 4.3654,-0.051 5.0234,0.1129 5.0234,0.1129 -0.016,1.3898 0.5545,21.3834 -0.9223,23.8686 -1.4769,2.4851 -7.4685,4.8609 -19.0581,6.8922 -11.5896,2.0313 -23.6739,3.5323 -34.7346,7.0068 -11.0607,3.4745 -21.5115,7.6199 -28.0814,12.098 -6.5699,4.4781 -11.2234,9.4886 -14.6225,13.688 -3.3991,4.1994 -7.5153,9.4238 -10.7844,15.4161 -3.2691,5.9923 -10.1478,20.0301 -14.1967,38.3394 -4.0489,18.3093 -11.3691,45.461 -12.8929,56.9389 -1.6707,12.3606 -5.0742,29.1694 -8.8082,29.6731 -3.7341,0.5036 -6.6923,-11.6774 -11.9771,-30.0811 -3.7418,-12.6486 -4.68,-16.1162 -11.9416,-25.3414 -7.2616,-9.2252 -14.2968,-15.0107 -25.1925,-19.5758 -10.8957,-4.5651 -35.5805,-1.9444 -50.6576,-4.7992 -15.0771,-2.8548 -23.7719,-7.3856 -41.6805,-16.4755 -17.9086,-9.09 -48.4644,-33.9117 -66.6705,-44.2796 -18.2062,-10.3678 -28.9075,-14.8551 -60.0039,-19.4247 -31.0963,-4.5695 -66.9198,3.1163 -104.9179,5.1219 -37.998,2.0057 -68.9358,-5.9395 -96.0401,-6.788 -27.1043,-0.8485 -51.659,-2.9324 -73.5066,1.8724 -21.8477,4.8048 -46.3266,19.2151 -63.4898,29.1243 -17.1633,9.9092 -28.495,21.6325 -49.0022,32.7966 -20.5073,11.1641 -32.9352,19.0186 -66.4455,25.4377 -33.5104,6.419 -44.0811,6.194 -60.1214,7.6568 -16.0403,1.4628 -27.4459,2.2071 -47.5369,1.919 -20.091,-0.2881 -26.2937,-1.9245 -43.7235,-2.7376 -17.4298,-0.813 -42.1893,2.8933 -59.8984,4.4753 -17.7091,1.582 -35.3118,25.8146 -35.2834,24.4263 z"
       style="fill:none;stroke:#000000;stroke-width:1px;stroke-linecap:butt;stroke-linejoin:miter;stroke-opacity:1" />
    <text
       id="text10650-7-3"
       y="2256.2637"
       x="4132.7466"
       style="font-size:116.418px;line-height:1.25;font-family:sans-serif;stroke-width:9.70152"
       xml:space="preserve"><tspan
         y="2256.2637"
         x="4132.7466"
         style="stroke-width:9.70152"
         id="tspan10648-5-5"
         sodipodi:role="line">curve: Li+pH2.9</tspan></text>
  </g>
  <g
     id="g24550"
     transform="translate(-2.1611404e-4,-1404.2769)">
    <text
       xml:space="preserve"
       style="font-size:53.3333px;line-height:1.25;font-family:sans-serif;-inkscape-font-specification:sans-serif;letter-spacing:0px;word-spacing:0px"
       x="2133.7549"
       y="2471.5938"
       id="text19196"><tspan
         sodipodi:role="line"
         id="tspan19194"
         x="2133.7549"
         y="2471.5938">y1: -100 uA / cm2</tspan></text>
    <path
       style="fill:none;stroke:#000000;stroke-width:1px;stroke-linecap:butt;stroke-linejoin:miter;stroke-opacity:1"
       d="M 2916.5013,2892.8744 2513.5648,2443.3223"
       id="path21683"
       sodipodi:nodetypes="cc" />
  </g>
  <g
     id="g24435"
     transform="translate(-2.1611404e-4,9.8228912e-5)">
    <text
       xml:space="preserve"
       style="font-size:53.3333px;line-height:1.25;font-family:sans-serif;-inkscape-font-specification:sans-serif;letter-spacing:0px;word-spacing:0px"
       x="2710.0842"
       y="3077.8994"
       id="text23081"><tspan
         sodipodi:role="line"
         id="tspan23079"
         x="2710.0842"
         y="3077.8994">x1: -0.2 V vs. SHE</tspan></text>
    <path
       style="fill:none;stroke:#000000;stroke-width:1px;stroke-linecap:butt;stroke-linejoin:miter;stroke-opacity:1"
       d="m 3049.0043,2893.5129 -350.4144,175.4467"
       id="path24343" />
  </g>
  <g
     id="g24430"
     transform="translate(-2.1611404e-4,9.8228912e-5)">
    <text
       xml:space="preserve"
       style="font-size:53.3333px;line-height:1.25;font-family:sans-serif;-inkscape-font-specification:sans-serif;letter-spacing:0px;word-spacing:0px"
       x="4277.6069"
       y="3107.0767"
       id="text23081-8"><tspan
         sodipodi:role="line"
         id="tspan23079-8"
         x="4277.6069"
         y="3107.0767">x2: 0.8 V vs. SHE</tspan></text>
    <path
       style="fill:none;stroke:#000000;stroke-width:1px;stroke-linecap:butt;stroke-linejoin:miter;stroke-opacity:1"
       d="M 4370.3619,2893.2735 4269.4681,3091.948"
       id="path24345" />
  </g>
  <g
     id="g25998"
     transform="translate(-2.1611404e-4,-1404.2769)">
    <text
       xml:space="preserve"
       style="font-size:53.3333px;line-height:1.25;font-family:sans-serif;-inkscape-font-specification:sans-serif;letter-spacing:0px;word-spacing:0px"
       x="2291.9622"
       y="1971.1135"
       id="text19196-1"><tspan
         sodipodi:role="line"
         id="tspan19194-8"
         x="2291.9622"
         y="1971.1135">y2: 100 uA / cm2</tspan></text>
    <path
       style="fill:none;stroke:#000000;stroke-width:1px;stroke-linecap:butt;stroke-linejoin:miter;stroke-opacity:1"
       d="M 2917.2996,2191.3272 2697.3128,1956.5735"
       id="path25913" />
  </g>
</svg>
