<?xml version="1.0" encoding="UTF-8" standalone="no"?>
<svg
   xmlns:dc="http://purl.org/dc/elements/1.1/"
   xmlns:cc="http://creativecommons.org/ns#"
   xmlns:rdf="http://www.w3.org/1999/02/22-rdf-syntax-ns#"
   xmlns:svg="http://www.w3.org/2000/svg"
   xmlns="http://www.w3.org/2000/svg"
   xmlns:xlink="http://www.w3.org/1999/xlink"
   xmlns:sodipodi="http://sodipodi.sourceforge.net/DTD/sodipodi-0.dtd"
   xmlns:inkscape="http://www.inkscape.org/namespaces/inkscape"
   height="6820px"
   version="1.2"
   width="5212px"
   id="svg6"
   sodipodi:docname="briega-martos_2021_cation_48_f1_Na_3.5.svg"
   inkscape:version="0.92.5 (2060ec1f9f, 2020-04-08)">
  <metadata
     id="metadata10">
    <rdf:RDF>
      <cc:Work
         rdf:about="">
        <dc:format>image/svg+xml</dc:format>
        <dc:type
           rdf:resource="http://purl.org/dc/dcmitype/StillImage" />
        <dc:title />
      </cc:Work>
    </rdf:RDF>
  </metadata>
  <sodipodi:namedview
     pagecolor="#ffffff"
     bordercolor="#666666"
     borderopacity="1"
     objecttolerance="10"
     gridtolerance="10"
     guidetolerance="10"
     inkscape:pageopacity="0"
     inkscape:pageshadow="2"
     inkscape:window-width="2488"
     inkscape:window-height="1295"
     id="namedview8"
     showgrid="false"
     inkscape:zoom="0.39150075"
     inkscape:cx="2738.1327"
     inkscape:cy="4902.5712"
     inkscape:window-x="72"
     inkscape:window-y="27"
     inkscape:window-maximized="1"
     inkscape:current-layer="g936" />
  <defs
     id="defs2" />
  <image
     sodipodi:absref="/home/hoermann/Downloads/EchemDB_Digitizer/Test21Sept_data/briega-martos_2021_cation_48/briega-martos_2021_cation_48_p2.png"
     xlink:href="briega-martos_2021_cation_48_p2.png"
     id="image4"
     y="0"
     x="0"
     width="5212px"
     height="6820px" />
  <g
     transform="matrix(36.66719,0,0,36.66719,434.6318,-3134.528)"
     id="g1567">
    <path
       style="fill:none;stroke:#000000;stroke-width:0.26458299px;stroke-linecap:butt;stroke-linejoin:miter;stroke-opacity:1"
       d="m 59.374912,123.0703 8.311503,2.9895"
       id="path877"
       inkscape:connector-curvature="0"
       sodipodi:nodetypes="cc" />
    <text
       xml:space="preserve"
       style="font-size:3.17499995px;line-height:1.25;font-family:sans-serif;stroke-width:0.26458299"
       x="34.305443"
       y="123.96095"
       id="text10650"><tspan
         sodipodi:role="line"
         id="tspan10648"
         style="stroke-width:0.26458299"
         x="34.305443"
         y="123.96095">y2: 100 uA cm-2</tspan></text>
  </g>
  <g
     transform="matrix(36.66719,0,0,36.66719,-120.7787,-3419.3921)"
     id="g1562">
    <path
       style="fill:none;stroke:#000000;stroke-width:0.26458299px;stroke-linecap:butt;stroke-linejoin:miter;stroke-opacity:1"
       d="m 82.830732,153.0048 -22.475853,1.1285"
       id="path881"
       inkscape:connector-curvature="0"
       sodipodi:nodetypes="cc" />
    <text
       xml:space="preserve"
       style="font-size:3.17499995px;line-height:1.25;font-family:sans-serif;stroke-width:0.26458299"
       x="47.220585"
       y="155.5658"
       id="text2906"><tspan
         sodipodi:role="line"
         id="tspan2904"
         style="stroke-width:0.26458299"
         x="47.220585"
         y="155.5658">y1: -100  uA cm-2</tspan></text>
  </g>
  <g
     id="g1572"
     transform="matrix(36.66719,0,0,36.66719,2462.3932,-627.68871)">
    <path
       style="fill:none;stroke:#000000;stroke-width:0.26458299px;stroke-linecap:butt;stroke-linejoin:miter;stroke-opacity:1"
       d="m 15.980619,76.878976 2.268442,3.989503"
       id="path879"
       inkscape:connector-curvature="0"
       sodipodi:nodetypes="cc" />
    <text
       xml:space="preserve"
       style="font-size:3.17499995px;line-height:1.25;font-family:sans-serif;stroke-width:0.26458299"
       x="6.8084121"
       y="83.573616"
       id="text15406"><tspan
         sodipodi:role="line"
         id="tspan15404"
         style="stroke-width:0.26458299"
         x="6.8084121"
         y="83.573616">x1: -0.2 V vs SHE</tspan></text>
  </g>
  <g
     id="g1577"
     transform="matrix(36.66719,0,0,36.66719,2456.5111,-628.96911)">
    <path
       style="fill:none;stroke:#000000;stroke-width:0.26458299px;stroke-linecap:butt;stroke-linejoin:miter;stroke-opacity:1"
       d="m 55.770043,76.904979 4.116431,3.956645"
       id="path883"
       inkscape:connector-curvature="0"
       sodipodi:nodetypes="cc" />
    <text
       xml:space="preserve"
       style="font-size:3.17499995px;line-height:1.25;font-family:sans-serif;stroke-width:0.26458299"
       x="61.111824"
       y="81.725914"
       id="text18116"><tspan
         sodipodi:role="line"
         id="tspan18114"
         style="stroke-width:0.26458299"
         x="61.111824"
         y="81.725914">x2: 0.9 V vs SHE</tspan></text>
  </g>
  <text
     xml:space="preserve"
     style="font-style:normal;font-variant:normal;font-weight:normal;font-stretch:normal;font-size:258.70736694px;line-height:1.25;font-family:sans-serif;-inkscape-font-specification:sans-serif;letter-spacing:0px;word-spacing:0px;fill:#000000;fill-opacity:1;stroke:none;stroke-width:9.70152664"
     x="4942.9067"
     y="1137.9409"
     id="text839"><tspan
       sodipodi:role="line"
       id="tspan837"
       x="4942.9067"
       y="1137.9409"
       style="stroke-width:9.70152664">rate: 50 mV / s</tspan></text>
  <g
     transform="translate(4.6379309e-6,-702.73961)"
     id="g936">
    <text
       id="text10650-7-3"
       y="2256.2637"
       x="4132.7466"
       style="font-size:116.41832733px;line-height:1.25;font-family:sans-serif;stroke-width:9.7015152"
       xml:space="preserve"><tspan
         y="2256.2637"
         x="4132.7466"
         style="stroke-width:9.7015152"
         id="tspan10648-5-5"
         sodipodi:role="line">curve: Na+pH3.5</tspan></text>
    <path
       sodipodi:nodetypes="sccssszzszzzzzzzzzzzzczsczzzzczzzczzzzzzcczzzzcczzzcczzzzzssssszzzzzzzzs"
       inkscape:connector-curvature="0"
       id="path913"
       d="m 3115.5985,2671.7855 3.368,-171.7149 3.0664,-25.7193 c 0,0 3.9332,-16.8817 11.8221,-25.3421 6.4612,-6.9294 15.4084,-10.3232 21.9189,-11.5927 14.6457,-2.8556 20.8751,-1.9769 37.1821,-4.2764 20.469,-2.8865 51.4197,-7.5039 61.3769,-7.4419 9.9573,0.062 29.8144,4.0797 53.5814,5.0748 23.767,0.9951 39.8062,0.8861 64.8078,8.7553 27.6888,8.715 34.2441,10.8155 47.6757,17.2575 13.4315,6.442 26.6029,12.156 36.9816,19.0158 10.3787,6.8598 17.6053,13.0576 25.286,19.5609 7.6807,6.5033 15.4785,10.7066 24.1572,15.2074 8.6787,4.5008 15.7993,9.2566 28.5596,13.0626 12.7603,3.806 20.8108,5.7539 32.4297,6.7093 11.6189,0.9554 16.0291,1.8676 32.1719,2.4834 16.1428,0.6158 24.9851,-0.014 40.864,-1.1436 15.8789,-1.1297 23.2909,-1.9248 35.107,-3.4993 11.8161,-1.5745 26.1868,-3.3738 36.8001,-4.967 10.6132,-1.5933 24.8367,-4.075 39.7351,-4.9668 14.8984,-0.8919 54.0793,-7.1663 71.7293,-11.9491 17.6501,-4.7828 28.333,-8.5566 64.7693,-29.8486 11.1818,-5.7472 30.0891,-19.8893 40.5972,-25.8245 10.508,-5.9353 17.2493,-10.9128 24.0111,-13.6807 12.7296,-5.2108 36.1876,-12.634 50.6245,-14.2828 22.2857,-0.9814 31.7586,3.977 40.4592,0.5473 8.7006,-3.4298 11.436,-3.4299 17.9485,-9.0283 6.5125,-5.5984 15.5113,-19.301 18.5694,-32.0002 3.0581,-12.6993 4.8506,-16.5225 6.5006,-24.3266 1.65,-7.804 5.3518,-14.2787 5.8209,-14.1105 0.2686,0.082 2.014,2.779 3.3301,8.692 1.3161,5.913 2.8044,15.7661 3.7816,25.1732 0.9772,9.4071 0.6762,9.5377 1.5731,18.7952 0.8969,9.2575 2.9144,19.4319 3.8944,27.9388 2.4042,16.7413 6.3846,31.5904 8.0712,38.945 1.6866,7.3547 5.659,16.0242 8.4663,21.7866 2.8073,5.7624 5.2335,8.8008 8.4663,12.8688 3.2328,4.068 6.7845,5.7259 12.1915,9.2884 5.407,3.5625 13.0287,6.9555 20.3191,9.0307 7.2904,2.0752 15.3463,2.4087 23.0283,3.1607 7.682,0.752 15.908,1.9918 22.9885,2.1175 10.4841,1.1064 10.1771,-0.1416 19.2165,1.6065 -0.016,1.3898 -1.7169,18.912 -1.8836,23.9154 -0.1667,5.0033 -11.2791,5.0223 -22.8687,7.0536 -11.5896,2.0313 -24.3712,2.7671 -35.4319,6.2416 -11.0607,3.4745 -20.9989,5.6517 -28.9257,10.1298 -7.9269,4.4781 -13.2737,9.6022 -16.6728,13.8016 -9.9309,13.7381 -17.0665,28.729 -20.5335,43.5435 -2.8507,12.5394 -6.5936,29.7669 -8.3285,41.4317 -1.7349,11.6648 -2.9666,18.3594 -3.8791,26.467 -0.9124,8.1077 -2.8417,23.8022 -3.7582,33.058 -0.9165,9.2558 -1.5932,16.018 -4.9863,16.693 -4.5957,-0.5389 -5.3971,-24.231 -8.7993,-37.203 -3.7418,-12.6486 -5.7007,-24.1474 -9.8015,-30.2119 -4.1009,-6.0644 -10.7416,-13.6333 -21.6373,-18.1984 -10.8957,-4.5651 -36.7122,-1.8637 -56.0789,-4.9443 -19.3667,-3.0805 -32.2068,-10.36 -48.4415,-17.573 -16.2347,-7.213 -42.0559,-28.5695 -60.4217,-37.8199 -18.3658,-9.2504 -29.5754,-19.1768 -59.7139,-25.3428 -18.2988,-3.7437 -40.3445,-2.4854 -63.1728,-3.6779 -14.7703,-0.7716 -30.2858,-3.7757 -43.9176,-5.7561 -14.034,-2.0389 -28.5907,-6.8957 -42.5546,-9.1615 -20.5631,-3.3364 -40.0273,-3.8523 -56.1697,-4.3576 -27.1043,-0.8485 -61.6733,5.1039 -82.8025,10.6271 -21.1292,5.5232 -47.827,24.4373 -69.2669,38.7816 -21.4399,14.3442 -27.5591,21.0116 -46.1186,27.512 -18.5595,6.5004 -33.3089,14.2273 -60.385,18.2758 -27.076,4.0485 -59.2338,8.0857 -64.6631,8.1939 -5.4292,0.1082 -22.5791,4.1261 -42.6701,3.838 -20.091,-0.2881 -40.5402,-5.8164 -54.8617,-6.9989 -14.3215,-1.1825 -23.9172,-0.3826 -39.5094,0.9032 -15.5921,1.2858 -35.0392,20.804 -34.994,19.4161 z"
       style="fill:none;stroke:#000000;stroke-width:1px;stroke-linecap:butt;stroke-linejoin:miter;stroke-opacity:1" />
  </g>
</svg>
