<?xml version="1.0" encoding="UTF-8" standalone="no"?>
<svg
   xmlns:dc="http://purl.org/dc/elements/1.1/"
   xmlns:cc="http://creativecommons.org/ns#"
   xmlns:rdf="http://www.w3.org/1999/02/22-rdf-syntax-ns#"
   xmlns:svg="http://www.w3.org/2000/svg"
   xmlns="http://www.w3.org/2000/svg"
   xmlns:xlink="http://www.w3.org/1999/xlink"
   xmlns:sodipodi="http://sodipodi.sourceforge.net/DTD/sodipodi-0.dtd"
   xmlns:inkscape="http://www.inkscape.org/namespaces/inkscape"
   height="6820px"
   version="1.2"
   width="5212px"
   id="svg6"
   sodipodi:docname="briega-martos_2021_cation_48_f1_Li_prototype.svg"
   inkscape:version="0.92.5 (2060ec1f9f, 2020-04-08)">
  <metadata
     id="metadata10">
    <rdf:RDF>
      <cc:Work
         rdf:about="">
        <dc:format>image/svg+xml</dc:format>
        <dc:type
           rdf:resource="http://purl.org/dc/dcmitype/StillImage" />
        <dc:title></dc:title>
      </cc:Work>
    </rdf:RDF>
  </metadata>
  <sodipodi:namedview
     pagecolor="#ffffff"
     bordercolor="#666666"
     borderopacity="1"
     objecttolerance="10"
     gridtolerance="10"
     guidetolerance="10"
     inkscape:pageopacity="0"
     inkscape:pageshadow="2"
     inkscape:window-width="2488"
     inkscape:window-height="1295"
     id="namedview8"
     showgrid="false"
     inkscape:zoom="1.566003"
     inkscape:cx="3874.4104"
     inkscape:cy="5751.3153"
     inkscape:window-x="72"
     inkscape:window-y="27"
     inkscape:window-maximized="1"
     inkscape:current-layer="svg6" />
  <defs
     id="defs2" />
  <image
     sodipodi:absref="/home/hoermann/Downloads/EchemDB_Digitizer/Test21Sept_data/briega-martos_2021_cation_48/briega-martos_2021_cation_48_p2.png"
     xlink:href="briega-martos_2021_cation_48_p2.png"
     height="6820px"
     width="5212px"
     x="0"
     y="0"
     id="image4" />
  <g
     transform="matrix(36.66719,0,0,36.66719,434.6318,-3837.819)"
     id="g1567">
    <path
       style="fill:none;stroke:#000000;stroke-width:0.26458299px;stroke-linecap:butt;stroke-linejoin:miter;stroke-opacity:1"
       d="m 59.374912,123.0703 8.311503,2.9895"
       id="path877"
       inkscape:connector-curvature="0"
       sodipodi:nodetypes="cc" />
    <text
       xml:space="preserve"
       style="font-size:3.17499995px;line-height:1.25;font-family:sans-serif;stroke-width:0.26458299"
       x="34.305443"
       y="123.96095"
       id="text10650"><tspan
         sodipodi:role="line"
         id="tspan10648"
         style="stroke-width:0.26458299"
         x="34.305443"
         y="123.96095">y2: 100 uA cm-2</tspan></text>
  </g>
  <g
     transform="matrix(36.66719,0,0,36.66719,-120.7787,-4122.6831)"
     id="g1562">
    <path
       style="fill:none;stroke:#000000;stroke-width:0.26458299px;stroke-linecap:butt;stroke-linejoin:miter;stroke-opacity:1"
       d="m 82.830732,153.0048 -22.475853,1.1285"
       id="path881"
       inkscape:connector-curvature="0"
       sodipodi:nodetypes="cc" />
    <text
       xml:space="preserve"
       style="font-size:3.17499995px;line-height:1.25;font-family:sans-serif;stroke-width:0.26458299"
       x="47.220585"
       y="155.5658"
       id="text2906"><tspan
         sodipodi:role="line"
         id="tspan2904"
         style="stroke-width:0.26458299"
         x="47.220585"
         y="155.5658">y1: -100  uA cm-2</tspan></text>
  </g>
  <g
     id="g1572"
     transform="matrix(36.66719,0,0,36.66719,2462.3932,-1330.9798)">
    <path
       style="fill:none;stroke:#000000;stroke-width:0.26458299px;stroke-linecap:butt;stroke-linejoin:miter;stroke-opacity:1"
       d="m 15.980619,76.878976 2.268442,3.989503"
       id="path879"
       inkscape:connector-curvature="0"
       sodipodi:nodetypes="cc" />
    <text
       xml:space="preserve"
       style="font-size:3.17499995px;line-height:1.25;font-family:sans-serif;stroke-width:0.26458299"
       x="6.8084121"
       y="83.573616"
       id="text15406"><tspan
         sodipodi:role="line"
         id="tspan15404"
         style="stroke-width:0.26458299"
         x="6.8084121"
         y="83.573616">x1: -0.2 V vs SHE</tspan></text>
  </g>
  <g
     id="g1577"
     transform="matrix(36.66719,0,0,36.66719,2456.5111,-1332.2602)">
    <path
       style="fill:none;stroke:#000000;stroke-width:0.26458299px;stroke-linecap:butt;stroke-linejoin:miter;stroke-opacity:1"
       d="m 55.770043,76.904979 4.116431,3.956645"
       id="path883"
       inkscape:connector-curvature="0"
       sodipodi:nodetypes="cc" />
    <text
       xml:space="preserve"
       style="font-size:3.17499995px;line-height:1.25;font-family:sans-serif;stroke-width:0.26458299"
       x="61.111824"
       y="81.725914"
       id="text18116"><tspan
         sodipodi:role="line"
         id="tspan18114"
         style="stroke-width:0.26458299"
         x="61.111824"
         y="81.725914">x2: 0.9 V vs SHE</tspan></text>
  </g>
  <text
     xml:space="preserve"
     style="font-style:normal;font-variant:normal;font-weight:normal;font-stretch:normal;font-size:258.70736694px;line-height:1.25;font-family:sans-serif;-inkscape-font-specification:sans-serif;letter-spacing:0px;word-spacing:0px;fill:#000000;fill-opacity:1;stroke:none;stroke-width:9.70152664"
     x="4942.9067"
     y="434.64996"
     id="text839"><tspan
       sodipodi:role="line"
       id="tspan837"
       x="4942.9067"
       y="434.64996"
       style="stroke-width:9.70152664">scan rate: 50 mV / s</tspan></text>
  <g
     transform="translate(4.6379309e-6,-1406.0307)"
     id="g936">
    <path
       sodipodi:nodetypes="szssssszzzzzzczzzzzzzzzzzzczzczszzzzzzcczzzszzzzzzzzczczzzzzzzzzzzzzzzzs"
       inkscape:connector-curvature="0"
       id="path913"
       d="m 3205.9002,2720.1791 c 0,0 3.9134,-183.0925 3.9316,-192.2675 0.018,-9.175 7.4295,-72.6903 25.7008,-82.3661 15.4874,-8.2016 16.8501,-7.7373 33.2814,-8.8399 21.1463,-1.4191 77.8698,-5.213 89.7108,-6.313 6.2675,-0.5821 48.4305,-1.8519 57.5324,-2.1499 19.5433,-0.6398 30.409,-0.2779 66.8716,6.9982 20.2629,4.0434 28.4872,4.1554 42.4831,14.2097 13.9959,10.0543 28.6348,19.3487 39.0135,26.2085 10.3787,6.8598 20.0887,13.1385 28.6725,18.8516 8.5838,5.7131 16.6073,8.5937 25.286,13.0945 8.6787,4.5008 10.9453,5.1119 21.6737,8.0148 10.7284,2.9029 27.6648,3.4471 39.2837,4.4025 11.6189,0.9554 28.4464,-0.6158 41.9928,-0.2258 37.0441,-0.5595 78.9039,1.3761 102.4335,3.3261 23.5296,1.95 32.2591,0.3837 43.6579,0.1693 11.3989,-0.2145 5.9159,-0.5582 14.816,-1.0724 8.9001,-0.5142 26.0697,-2.1233 34.269,-3.2132 8.1993,-1.0899 14.0554,-3.824 19.8676,-5.1926 5.8122,-1.3686 23.2476,-10.3224 32.9997,-15.2393 9.7522,-4.9169 15.2648,-10.075 25.7182,-15.4005 10.4534,-5.3255 14.6781,-9.761 35.6714,-20.7706 20.9933,-11.0095 40.5725,-18.6969 58.2747,-22.4673 17.7022,-3.7704 12.1283,-2.7234 21.2152,-4.0411 9.0868,-1.3176 16.8201,-1.6655 22.7614,-3.1881 5.9413,-1.5226 14.0018,-5.6554 18.8517,-9.4823 4.8498,-3.8269 8.7611,-9.4026 12.0255,-13.9414 3.0098,-4.2997 3.9623,-6.9348 6.3779,-12.135 2.4156,-5.2002 3.2101,-7.1562 6.0393,-16.1989 2.8292,-9.0428 5.9255,-20.0071 8.3534,-30.0493 1.4805,-6.6892 3.1436,-10.5201 4.2953,-13.3865 1.1516,-2.8663 1.4497,-3.6008 2.3648,-3.3204 0.2686,0.082 2.7196,2.3275 4.0357,8.2405 1.3161,5.913 1.5344,6.3907 2.173,12.1291 0.6385,5.7384 3.9007,20.2051 4.7976,29.4626 0.8969,9.2575 1.0236,10.1473 2.0036,18.6542 0.98,8.5069 1.9835,18.1603 3.0761,24.778 1.0926,6.6177 1.511,8.2018 2.7092,14.4492 1.1982,6.2474 3.6084,15.0137 5.87,22.5768 8.5351,23.8735 18.105,41.8478 41.7671,49.2174 7.2904,2.0752 17.604,5.5694 25.286,6.3214 7.682,0.752 13.0129,1.0033 20.0934,1.129 7.0805,0.1257 8.5033,0.2765 12.8687,0.2257 4.3654,-0.051 5.0234,0.1129 5.0234,0.1129 -0.016,1.3898 -0.01,17.9969 -1.4868,20.4821 -1.4769,2.4851 -9.1617,3.9579 -20.7513,5.9892 -11.5896,2.0313 -23.877,4.5402 -34.9377,8.0147 -11.0607,3.4745 -19.6756,7.9392 -26.2455,12.4173 -6.5699,4.4781 -10.8243,9.9675 -14.2234,14.1669 -3.3991,4.1994 -6.2382,7.6677 -10.3853,16.9327 -4.1471,9.265 -9.5101,26.5184 -12.3608,39.0578 -2.8507,12.5394 -4.4738,22.539 -6.2087,34.2038 -1.7349,11.6648 -3.0313,15.9861 -4.2896,27.2051 -1.6707,12.3606 -6.032,41.7811 -10.7239,42.4444 -4.6919,0.6633 -7.8098,-26.5241 -13.0946,-44.9278 -3.7418,-12.6486 -7.0746,-26.3333 -14.3362,-35.5585 -7.2616,-9.2252 -14.6161,-14.851 -25.5118,-19.4161 -10.8957,-4.5651 -36.0594,-2.9023 -51.1365,-5.7571 -15.0771,-2.8548 -22.0159,-5.3102 -39.6052,-11.8459 -17.5893,-6.5357 -41.919,-29.282 -60.2848,-38.5324 -18.3658,-9.2504 -25.8743,-18.5269 -56.0128,-24.6929 -30.1385,-6.166 -77.7755,-0.2362 -115.7736,1.7694 -37.998,2.0057 -72.6076,2.9206 -99.7119,2.0721 -27.1043,-0.8485 -43.4154,-1.4623 -65.263,3.3425 -21.8477,4.8048 -33.5277,8.3091 -66.1426,34.1477 -32.6148,25.8385 -28.5232,26.7969 -50.6108,36.6064 -22.0875,9.8096 -35.321,4.5647 -68.8313,10.9838 -33.5104,6.419 -47.8326,5.715 -63.8729,7.1778 -16.0403,1.4628 -23.9338,2.2071 -44.0248,1.919 -20.091,-0.2881 -25.8946,-1.3657 -42.9253,-0.742 -17.0307,0.6236 -27.9812,1.5363 -54.0715,8.4663 -26.0903,6.93 -42.336,54.1511 -42.3076,52.7628 z"
       style="fill:none;stroke:#000000;stroke-width:1px;stroke-linecap:butt;stroke-linejoin:miter;stroke-opacity:1" />
    <text
       id="text10650-7-3"
       y="2256.2637"
       x="4132.7466"
       style="font-size:116.41832733px;line-height:1.25;font-family:sans-serif;stroke-width:9.7015152"
       xml:space="preserve"><tspan
         y="2256.2637"
         x="4132.7466"
         style="stroke-width:9.7015152"
         id="tspan10648-5-5"
         sodipodi:role="line">curve: Li+pH2.3</tspan></text>
  </g>
</svg>
