<?xml version="1.0" encoding="UTF-8" standalone="no"?>
<svg
   height="6820px"
   version="1.2"
   width="5212px"
   id="svg6"
   sodipodi:docname="briega-martos_2021_cation_48_p2_f1_Cs_3_5.svg"
   inkscape:version="1.1.2 (b8e25be833, 2022-02-05)"
   xmlns:inkscape="http://www.inkscape.org/namespaces/inkscape"
   xmlns:sodipodi="http://sodipodi.sourceforge.net/DTD/sodipodi-0.dtd"
   xmlns:xlink="http://www.w3.org/1999/xlink"
   xmlns="http://www.w3.org/2000/svg"
   xmlns:svg="http://www.w3.org/2000/svg"
   xmlns:rdf="http://www.w3.org/1999/02/22-rdf-syntax-ns#"
   xmlns:cc="http://creativecommons.org/ns#"
   xmlns:dc="http://purl.org/dc/elements/1.1/">
  <metadata
     id="metadata10">
    <rdf:RDF>
      <cc:Work
         rdf:about="">
        <dc:format>image/svg+xml</dc:format>
        <dc:type
           rdf:resource="http://purl.org/dc/dcmitype/StillImage" />
      </cc:Work>
    </rdf:RDF>
  </metadata>
  <sodipodi:namedview
     pagecolor="#ffffff"
     bordercolor="#666666"
     borderopacity="1"
     objecttolerance="10"
     gridtolerance="10"
     guidetolerance="10"
     inkscape:pageopacity="0"
     inkscape:pageshadow="2"
     inkscape:window-width="1920"
     inkscape:window-height="1017"
     id="namedview8"
     showgrid="false"
     inkscape:zoom="0.19575038"
     inkscape:cx="3330.7726"
     inkscape:cy="2508.2965"
     inkscape:window-x="-8"
     inkscape:window-y="32"
     inkscape:window-maximized="1"
     inkscape:current-layer="svg6"
     inkscape:pagecheckerboard="0" />
  <defs
     id="defs2" />
  <image
     xlink:href="briega-martos_2021_cation_48_p2.png"
     height="6820px"
     width="5212px"
     x="0"
     y="0"
     id="image4" />
  <text
     xml:space="preserve"
     style="font-style:normal;font-variant:normal;font-weight:normal;font-stretch:normal;font-size:258.707px;line-height:1.25;font-family:sans-serif;-inkscape-font-specification:sans-serif;letter-spacing:0px;word-spacing:0px;fill:#000000;fill-opacity:1;stroke:none;stroke-width:9.70153"
     x="4942.9067"
     y="1840.6807"
     id="text839"><tspan
       sodipodi:role="line"
       id="tspan837"
       x="4942.9067"
       y="1840.6807"
       style="stroke-width:9.70153">scan rate: 50 mV / s</tspan></text>
  <g
     transform="translate(4.6379309e-6)"
     id="g936">
    <path
       sodipodi:nodetypes="scssszzszzzzzzzzzzzzczsczzczzszzzcczzzzzcczzzzcczzzcczzzzzzzzzzzzzzzzs"
       inkscape:connector-curvature="0"
       id="path913"
       d="m 3107.9224,2666.546 3.8381,-194.8378 c 0,0 6.6424,-10.786 15.6601,-18.4562 7.2169,-6.1384 15.9728,-10.8876 22.4833,-12.1571 14.6457,-2.8556 18.7303,-1.9769 35.0373,-4.2764 20.469,-2.8865 38.0993,-3.5529 47.1536,-4.394 9.0542,-0.841 21.9125,-2.4677 45.6795,-3.6173 23.767,-1.1497 52.3363,-0.9201 88.5134,10.5614 27.668,8.7809 32.438,9.7996 45.8696,16.2416 13.4315,6.442 25.1354,12.9462 35.5141,19.806 10.3787,6.8598 19.4114,11.2514 27.9952,16.9645 8.5838,5.7131 14.8012,12.8514 23.4799,17.3522 8.6787,4.5008 15.6864,9.4824 28.4467,13.2884 12.7603,3.806 22.2783,7.56 33.8972,8.5154 11.6189,0.9554 17.7224,2.3192 33.8652,2.935 16.1428,0.6158 24.9851,2.1309 40.864,1.0012 15.8789,-1.1297 26.3387,-0.2316 38.1548,-1.8061 11.8161,-1.5745 25.2838,-3.8253 35.8971,-5.4185 10.6132,-1.5933 17.6122,-2.3818 31.7203,-5.0797 14.1082,-2.698 33.0349,-7.6198 50.6849,-12.4026 17.6501,-4.7828 51.1618,-19.5719 87.5981,-40.8639 11.1818,-5.7472 30.8075,-17.0955 41.3156,-23.0307 10.508,-5.9353 17.1695,-9.8752 23.9313,-12.6431 12.7296,-5.2108 36.5867,-11.9954 51.0236,-13.6442 22.2857,-0.9814 41.7586,7.1378 52.604,2.3534 10.8454,-4.7844 9.2912,-5.236 15.8037,-10.8344 6.5125,-5.5984 12.7723,-20.0916 16.0295,-36.7978 1.7301,-8.8052 4.1637,-16.565 4.9669,-25.7376 0.8032,-9.1727 0.7731,-11.6489 1.9248,-14.5153 1.1516,-2.8663 1.4497,-3.6008 2.3648,-3.3204 0.2686,0.082 1.8447,3.1177 3.1608,9.0307 1.3161,5.913 1.732,17.2336 2.7092,26.6407 0.9772,9.4071 2.2639,20.5438 3.1608,29.8013 0.8969,9.2575 1.2776,17.2307 2.2576,25.7376 2.4042,16.7413 5.4435,31.2686 6.5473,38.3806 2.2616,7.5631 5.3203,16.1371 8.1276,21.8995 2.8073,5.7624 3.9918,8.575 7.2246,12.643 3.2328,4.068 6.7845,7.7259 12.1915,11.2884 5.407,3.5625 13.0287,6.9555 20.3191,9.0307 7.2904,2.0752 15.3463,2.4087 23.0283,3.1607 7.682,0.752 15.9479,1.229 23.0284,1.3547 10.4841,1.1064 10.3767,0.058 19.4161,1.8061 -0.016,1.3898 -1.4775,17.7147 -2.8415,23.7557 -1.364,6.041 -11.758,5.8205 -23.3476,7.8518 -11.5896,2.0313 -24.6107,2.847 -35.6714,6.3215 -11.0607,3.4745 -21.8769,7.4876 -28.4468,11.9657 -6.5699,4.4781 -9.9212,7.7663 -13.3203,11.9657 -9.9309,13.7381 -15.949,30.5649 -19.416,45.3794 -2.8507,12.5394 -5.7155,31.6826 -7.4504,43.3474 -1.7349,11.6648 -2.2483,26.6607 -3.1608,34.7683 -0.9124,8.1077 -2.9215,22.126 -3.838,31.3818 -0.9165,9.2558 -1.9125,16.2575 -5.3056,16.9325 -4.5957,-0.5389 -4.8383,-36.9226 -8.2405,-49.8946 -3.7418,-12.6486 -5.3814,-24.8658 -9.4822,-30.9303 -4.1009,-6.0644 -8.7461,-11.2386 -19.6418,-15.8037 -10.8957,-4.5651 -47.0091,0.3713 -66.3758,-2.7093 -19.3667,-3.0805 -43.6212,-16.1072 -59.8559,-23.3202 -16.2347,-7.213 -36.4685,-22.7425 -54.8343,-31.9929 -18.3658,-9.2504 -36.3601,-22.8486 -66.4986,-29.0146 -30.1385,-6.166 -57.0644,-11.0977 -91.7648,-16.139 -34.7003,-5.0413 -73.1366,-5.2472 -100.2409,-6.0957 -27.1043,-0.8485 -55.6069,5.3434 -77.4545,10.1482 -21.8477,4.8048 -53.4943,28.1889 -74.9342,42.5332 -21.4399,14.3442 -34.7539,21.3625 -53.3134,27.8629 -18.5595,6.5004 -42.3396,15.3562 -69.4157,19.4047 -27.076,4.0485 -62.8461,8.3114 -68.2754,8.4196 -5.4292,0.1082 2.0296,-0.8408 -18.0614,-1.1289 -20.091,-0.2881 -43.4752,-4.6875 -57.7967,-5.87 -14.3215,-1.1825 -23.9172,-0.8342 -39.5094,0.4516 -15.5921,1.2858 -35.0213,15.8376 -34.994,14.4492 z"
       style="fill:none;stroke:#000000;stroke-width:1px;stroke-linecap:butt;stroke-linejoin:miter;stroke-opacity:1" />
    <text
       id="text10650-7-3"
       y="2256.2637"
       x="4132.7466"
       style="font-size:116.418px;line-height:1.25;font-family:sans-serif;stroke-width:9.70152"
       xml:space="preserve"><tspan
         y="2256.2637"
         x="4132.7466"
         style="stroke-width:9.70152"
         id="tspan10648-5-5"
         sodipodi:role="line">curve: Cs+pH3.5</tspan></text>
  </g>
  <g
     id="g24550"
     transform="translate(-2.1611405e-4,1.1822891e-4)">
    <text
       xml:space="preserve"
       style="font-size:53.3333px;line-height:1.25;font-family:sans-serif;-inkscape-font-specification:sans-serif;letter-spacing:0px;word-spacing:0px"
       x="2133.7549"
       y="2471.5938"
       id="text19196"><tspan
         sodipodi:role="line"
         id="tspan19194"
         x="2133.7549"
         y="2471.5938">j1: -100 uA / cm2</tspan></text>
    <path
       style="fill:none;stroke:#000000;stroke-width:1px;stroke-linecap:butt;stroke-linejoin:miter;stroke-opacity:1"
       d="M 2916.5013,2892.8744 2513.5648,2443.3223"
       id="path21683"
       sodipodi:nodetypes="cc" />
  </g>
  <g
     id="g24435"
     transform="translate(-2.1611405e-4,1.1822891e-4)">
    <text
       xml:space="preserve"
       style="font-size:53.3333px;line-height:1.25;font-family:sans-serif;-inkscape-font-specification:sans-serif;letter-spacing:0px;word-spacing:0px"
       x="2710.0842"
       y="3077.8994"
       id="text23081"><tspan
         sodipodi:role="line"
         id="tspan23079"
         x="2710.0842"
         y="3077.8994">E1: -0.2 V vs. SHE</tspan></text>
    <path
       style="fill:none;stroke:#000000;stroke-width:1px;stroke-linecap:butt;stroke-linejoin:miter;stroke-opacity:1"
       d="m 3049.0043,2893.5129 -350.4144,175.4467"
       id="path24343" />
  </g>
  <g
     id="g24430"
     transform="translate(-2.1611405e-4,1.1822891e-4)">
    <text
       xml:space="preserve"
       style="font-size:53.3333px;line-height:1.25;font-family:sans-serif;-inkscape-font-specification:sans-serif;letter-spacing:0px;word-spacing:0px"
       x="4277.6069"
       y="3107.0767"
       id="text23081-8"><tspan
         sodipodi:role="line"
         id="tspan23079-8"
         x="4277.6069"
         y="3107.0767">E2: 0.8 V vs. SHE</tspan></text>
    <path
       style="fill:none;stroke:#000000;stroke-width:1px;stroke-linecap:butt;stroke-linejoin:miter;stroke-opacity:1"
       d="M 4370.3619,2893.2735 4269.4681,3091.948"
       id="path24345" />
  </g>
  <g
     id="g25998"
     transform="translate(-2.1611405e-4,1.1822891e-4)">
    <text
       xml:space="preserve"
       style="font-size:53.3333px;line-height:1.25;font-family:sans-serif;-inkscape-font-specification:sans-serif;letter-spacing:0px;word-spacing:0px"
       x="2291.9622"
       y="1971.1135"
       id="text19196-1"><tspan
         sodipodi:role="line"
         id="tspan19194-8"
         x="2291.9622"
         y="1971.1135">j2: 100 uA / cm2</tspan></text>
    <path
       style="fill:none;stroke:#000000;stroke-width:1px;stroke-linecap:butt;stroke-linejoin:miter;stroke-opacity:1"
       d="M 2917.2996,2191.3272 2697.3128,1956.5735"
       id="path25913" />
  </g>
</svg>
