<?xml version="1.0" encoding="UTF-8" standalone="no"?>
<svg
   xmlns:dc="http://purl.org/dc/elements/1.1/"
   xmlns:cc="http://creativecommons.org/ns#"
   xmlns:rdf="http://www.w3.org/1999/02/22-rdf-syntax-ns#"
   xmlns:svg="http://www.w3.org/2000/svg"
   xmlns="http://www.w3.org/2000/svg"
   xmlns:xlink="http://www.w3.org/1999/xlink"
   xmlns:sodipodi="http://sodipodi.sourceforge.net/DTD/sodipodi-0.dtd"
   xmlns:inkscape="http://www.inkscape.org/namespaces/inkscape"
   height="6820px"
   version="1.2"
   width="5212px"
   id="svg6"
   sodipodi:docname="briega-martos_2021_cation_48_p2_f1_Li_4.4.svg"
   inkscape:version="0.92.5 (2060ec1f9f, 2020-04-08)">
  <metadata
     id="metadata10">
    <rdf:RDF>
      <cc:Work
         rdf:about="">
        <dc:format>image/svg+xml</dc:format>
        <dc:type
           rdf:resource="http://purl.org/dc/dcmitype/StillImage" />
        <dc:title />
      </cc:Work>
    </rdf:RDF>
  </metadata>
  <sodipodi:namedview
     pagecolor="#ffffff"
     bordercolor="#666666"
     borderopacity="1"
     objecttolerance="10"
     gridtolerance="10"
     guidetolerance="10"
     inkscape:pageopacity="0"
     inkscape:pageshadow="2"
     inkscape:window-width="2488"
     inkscape:window-height="1295"
     id="namedview8"
     showgrid="false"
     inkscape:zoom="1.1073313"
     inkscape:cx="4778.0384"
     inkscape:cy="5856.9272"
     inkscape:window-x="72"
     inkscape:window-y="27"
     inkscape:window-maximized="1"
     inkscape:current-layer="g936" />
  <defs
     id="defs2" />
  <image
     sodipodi:absref="/home/hoermann/Downloads/EchemDB_Digitizer/Test21Sept_data/briega-martos_2021_cation_48/briega-martos_2021_cation_48_p2.png"
     xlink:href="briega-martos_2021_cation_48_p2.png"
     height="6820px"
     width="5212px"
     x="0"
     y="0"
     id="image4" />
  <g
     transform="matrix(36.66719,0,0,36.66719,434.6318,-3837.819)"
     id="g1567">
    <path
       style="fill:none;stroke:#000000;stroke-width:0.26458299px;stroke-linecap:butt;stroke-linejoin:miter;stroke-opacity:1"
       d="m 59.374912,123.0703 8.311503,2.9895"
       id="path877"
       inkscape:connector-curvature="0"
       sodipodi:nodetypes="cc" />
    <text
       xml:space="preserve"
       style="font-size:3.17499995px;line-height:1.25;font-family:sans-serif;stroke-width:0.26458299"
       x="34.305443"
       y="123.96095"
       id="text10650"><tspan
         sodipodi:role="line"
         id="tspan10648"
         style="stroke-width:0.26458299"
         x="34.305443"
         y="123.96095">y2: 100 uA cm-2</tspan></text>
  </g>
  <g
     transform="matrix(36.66719,0,0,36.66719,-120.7787,-4122.6831)"
     id="g1562">
    <path
       style="fill:none;stroke:#000000;stroke-width:0.26458299px;stroke-linecap:butt;stroke-linejoin:miter;stroke-opacity:1"
       d="m 82.830732,153.0048 -22.475853,1.1285"
       id="path881"
       inkscape:connector-curvature="0"
       sodipodi:nodetypes="cc" />
    <text
       xml:space="preserve"
       style="font-size:3.17499995px;line-height:1.25;font-family:sans-serif;stroke-width:0.26458299"
       x="47.220585"
       y="155.5658"
       id="text2906"><tspan
         sodipodi:role="line"
         id="tspan2904"
         style="stroke-width:0.26458299"
         x="47.220585"
         y="155.5658">y1: -100  uA cm-2</tspan></text>
  </g>
  <g
     id="g1572"
     transform="matrix(36.66719,0,0,36.66719,2462.3932,-1330.9798)">
    <path
       style="fill:none;stroke:#000000;stroke-width:0.26458299px;stroke-linecap:butt;stroke-linejoin:miter;stroke-opacity:1"
       d="m 15.980619,76.878976 2.268442,3.989503"
       id="path879"
       inkscape:connector-curvature="0"
       sodipodi:nodetypes="cc" />
    <text
       xml:space="preserve"
       style="font-size:3.17499995px;line-height:1.25;font-family:sans-serif;stroke-width:0.26458299"
       x="6.8084121"
       y="83.573616"
       id="text15406"><tspan
         sodipodi:role="line"
         id="tspan15404"
         style="stroke-width:0.26458299"
         x="6.8084121"
         y="83.573616">x1: -0.2 V vs SHE</tspan></text>
  </g>
  <g
     id="g1577"
     transform="matrix(36.66719,0,0,36.66719,2456.5111,-1332.2602)">
    <path
       style="fill:none;stroke:#000000;stroke-width:0.26458299px;stroke-linecap:butt;stroke-linejoin:miter;stroke-opacity:1"
       d="m 55.770043,76.904979 4.116431,3.956645"
       id="path883"
       inkscape:connector-curvature="0"
       sodipodi:nodetypes="cc" />
    <text
       xml:space="preserve"
       style="font-size:3.17499995px;line-height:1.25;font-family:sans-serif;stroke-width:0.26458299"
       x="61.111824"
       y="81.725914"
       id="text18116"><tspan
         sodipodi:role="line"
         id="tspan18114"
         style="stroke-width:0.26458299"
         x="61.111824"
         y="81.725914">x2: 0.9 V vs SHE</tspan></text>
  </g>
  <text
     xml:space="preserve"
     style="font-style:normal;font-variant:normal;font-weight:normal;font-stretch:normal;font-size:258.70736694px;line-height:1.25;font-family:sans-serif;-inkscape-font-specification:sans-serif;letter-spacing:0px;word-spacing:0px;fill:#000000;fill-opacity:1;stroke:none;stroke-width:9.70152664"
     x="4942.9067"
     y="434.64996"
     id="text839"><tspan
       sodipodi:role="line"
       id="tspan837"
       x="4942.9067"
       y="434.64996"
       style="stroke-width:9.70152664">rate: 50 mV / s</tspan></text>
  <g
     transform="translate(4.6379309e-6,-1406.0307)"
     id="g936">
    <text
       id="text10650-7-3"
       y="2256.2637"
       x="4132.7466"
       style="font-size:116.41832733px;line-height:1.25;font-family:sans-serif;stroke-width:9.7015152"
       xml:space="preserve"><tspan
         y="2256.2637"
         x="4132.7466"
         style="stroke-width:9.7015152"
         id="tspan10648-5-5"
         sodipodi:role="line">curve: Li+pH4.4</tspan></text>
    <path
       sodipodi:nodetypes="szzzzzszzzzzzzzzzzzzzcczzzzszzzzzzzzzzzzzszzzzzzzczsss"
       inkscape:connector-curvature="0"
       id="path913"
       d="m 3052.8022,2667.5576 c 0,0 3.0572,-152.3901 6.3489,-176.0142 3.2916,-23.6242 14.5772,-36.7832 22.4909,-40.8231 7.9136,-4.0399 21.7485,-7.9159 40.5373,-10.4185 18.7888,-2.5026 58.739,-5.3656 73.6632,-5.9809 14.9242,-0.6153 45.4688,-0.8216 59.3703,-0.6678 13.9015,0.1538 33.2857,2.3685 54.5673,8.3529 20.1926,5.6781 26.5175,8.2775 40.2795,14.1388 13.762,5.8613 27.9944,12.8577 37.4186,19.1587 9.4242,6.301 15.8798,11.5341 24.4636,17.2472 8.5838,5.7131 15.7579,12.1161 24.4366,16.6169 8.6787,4.5008 19.944,10.9929 30.6724,13.8958 10.7284,2.9029 20.7318,5.6835 36.4216,7.2774 15.6899,1.594 36.4404,3.3469 61.8533,1.2867 25.4129,-2.0602 82.6928,-8.024 106.2738,-10.6531 23.581,-2.6291 34.132,-4.5901 60.7988,-8.1867 26.6668,-3.5965 59.9069,-14.9036 73.7183,-21.5108 13.8114,-6.6072 17.4505,-7.8014 28.4683,-14.1428 11.0179,-6.3415 25.951,-16.0267 46.5452,-27.9942 20.5942,-11.9674 42.4618,-30.5101 64.3813,-34.0022 21.9195,-3.4922 33.391,-0.3538 47.8525,1.144 14.4615,1.4978 23.224,-2.4697 33.319,-2.8652 10.6968,0.3068 19.1802,18.3338 22.7097,26.6818 3.6703,8.8677 6.7193,17.8918 11.6151,28.1452 4.8957,10.2534 17.9705,26.0905 29.8353,31.6033 11.8648,5.5129 21.9964,8.2284 31.4833,10.4553 9.4869,2.227 12.904,3.5847 21.7538,3.9728 8.8498,0.3882 23.4891,0.7254 23.4891,0.7254 -0.016,1.3898 -2.1987,31.2166 -3.6755,33.7018 -1.4769,2.4851 -17.2067,4.7014 -29.0358,6.573 -11.8291,1.8717 -15.5321,2.6543 -26.8323,5.6499 -11.3001,2.9955 -21.1124,7.3804 -28.4007,11.5392 -7.2883,4.1588 -8.6691,5.3379 -13.4251,9.6969 -4.7561,4.359 -9.7503,10.222 -14.2965,16.374 -4.5463,6.1519 -17.2375,22.4366 -22.4778,38.2515 -5.2402,15.8149 -21.4224,27.822 -28.6055,27.1603 -7.1831,-0.6618 -6.0829,-1.7121 -18.035,-3.1203 -11.9521,-1.4082 -18.3255,-2.5009 -27.3944,-2.4603 -9.0688,0.041 -22.0784,-1.9475 -36.2524,-5.5925 -14.174,-3.645 -32.9399,-16.0949 -41.3098,-22.0805 -8.3699,-5.9856 -32.3657,-24.2729 -50.5718,-34.6408 -18.2062,-10.3678 -41.1375,-21.4927 -56.5889,-23.7474 -10.1313,-1.4784 -60.7879,-3.1207 -83.4179,-4.8844 -22.63,-1.7638 -30.8618,-3.4032 -49.4846,-7.2267 -18.6229,-3.8235 -53.7188,-4.9622 -81.9406,-7.7264 -28.2218,-2.7642 -67.1335,1.6996 -88.9811,6.5044 -21.8477,4.8048 -46.9642,18.4717 -64.1274,28.3809 -17.1633,9.9092 -32.5427,19.9482 -53.0499,31.1123 -20.5073,11.1641 -55.3149,22.8818 -80.2544,27.2889 -24.9395,4.4072 -70.768,8.6846 -90.4129,8.6697 -20.091,-0.2881 -26.613,-0.888 -44.2823,-1.221 -17.6692,-0.333 -28.1407,0.5786 -36.9897,0.8036 -8.0761,0.2053 -22.132,3.3418 -28.4699,5.3531 -6.1475,1.9509 -16.4703,8.9556 -16.4548,8.1981 z"
       style="fill:none;stroke:#c898d1;stroke-width:2.20000005;stroke-linecap:butt;stroke-linejoin:miter;stroke-miterlimit:4;stroke-dasharray:none;stroke-opacity:1" />
  </g>
</svg>
