<?xml version="1.0" encoding="UTF-8" standalone="no"?>
<svg
   height="6820px"
   version="1.2"
   width="5212px"
   id="svg6"
   sodipodi:docname="briega-martos_2021_cation_48_f1_Cs_4_4.svg"
   inkscape:version="1.1.2 (b8e25be833, 2022-02-05)"
   xmlns:inkscape="http://www.inkscape.org/namespaces/inkscape"
   xmlns:sodipodi="http://sodipodi.sourceforge.net/DTD/sodipodi-0.dtd"
   xmlns:xlink="http://www.w3.org/1999/xlink"
   xmlns="http://www.w3.org/2000/svg"
   xmlns:svg="http://www.w3.org/2000/svg"
   xmlns:rdf="http://www.w3.org/1999/02/22-rdf-syntax-ns#"
   xmlns:cc="http://creativecommons.org/ns#"
   xmlns:dc="http://purl.org/dc/elements/1.1/">
  <metadata
     id="metadata10">
    <rdf:RDF>
      <cc:Work
         rdf:about="">
        <dc:format>image/svg+xml</dc:format>
        <dc:type
           rdf:resource="http://purl.org/dc/dcmitype/StillImage" />
      </cc:Work>
    </rdf:RDF>
  </metadata>
  <sodipodi:namedview
     pagecolor="#ffffff"
     bordercolor="#666666"
     borderopacity="1"
     objecttolerance="10"
     gridtolerance="10"
     guidetolerance="10"
     inkscape:pageopacity="0"
     inkscape:pageshadow="2"
     inkscape:window-width="1920"
     inkscape:window-height="1017"
     id="namedview8"
     showgrid="false"
     inkscape:zoom="0.39150076"
     inkscape:cx="3530.006"
     inkscape:cy="2722.8555"
     inkscape:window-x="-8"
     inkscape:window-y="32"
     inkscape:window-maximized="1"
     inkscape:current-layer="g936"
     inkscape:pagecheckerboard="0" />
  <defs
     id="defs2" />
  <image
     xlink:href="briega-martos_2021_cation_48_p2.png"
     height="6820px"
     width="5212px"
     x="0"
     y="0"
     id="image4" />
  <g
     transform="matrix(36.66719,0,0,36.66719,434.6318,-2431.7883)"
     id="g1567">
    <path
       style="fill:none;stroke:#000000;stroke-width:0.26458299px;stroke-linecap:butt;stroke-linejoin:miter;stroke-opacity:1"
       d="m 59.374912,123.0703 8.311503,2.9895"
       id="path877"
       inkscape:connector-curvature="0"
       sodipodi:nodetypes="cc" />
    <text
       xml:space="preserve"
       style="font-size:3.175px;line-height:1.25;font-family:sans-serif;stroke-width:0.264583"
       x="34.305443"
       y="123.96095"
       id="text10650"><tspan
         sodipodi:role="line"
         id="tspan10648"
         style="stroke-width:0.264583"
         x="34.305443"
         y="123.96095">y2: 100 uA cm-2</tspan></text>
  </g>
  <g
     transform="matrix(36.66719,0,0,36.66719,-120.7787,-2716.3137)"
     id="g1562">
    <path
       style="fill:none;stroke:#000000;stroke-width:0.26458299px;stroke-linecap:butt;stroke-linejoin:miter;stroke-opacity:1"
       d="m 82.83182,152.97379 -22.476941,1.15027"
       id="path881"
       inkscape:connector-curvature="0"
       sodipodi:nodetypes="cc" />
    <text
       xml:space="preserve"
       style="font-size:3.175px;line-height:1.25;font-family:sans-serif;stroke-width:0.264583"
       x="47.220585"
       y="155.55656"
       id="text2906"><tspan
         sodipodi:role="line"
         id="tspan2904"
         style="stroke-width:0.264583"
         x="47.220585"
         y="155.55656">y1: -100  uA cm-2</tspan></text>
  </g>
  <g
     id="g1572"
     transform="matrix(36.66719,0,0,36.66719,2462.3932,76.405505)">
    <path
       style="fill:none;stroke:#000000;stroke-width:0.26458299px;stroke-linecap:butt;stroke-linejoin:miter;stroke-opacity:1"
       d="m 15.980619,76.842033 2.268442,3.989503"
       id="path879"
       inkscape:connector-curvature="0"
       sodipodi:nodetypes="cc" />
    <text
       xml:space="preserve"
       style="font-size:3.175px;line-height:1.25;font-family:sans-serif;stroke-width:0.264583"
       x="6.8084121"
       y="83.536674"
       id="text15406"><tspan
         sodipodi:role="line"
         id="tspan15404"
         style="stroke-width:0.264583"
         x="6.8084121"
         y="83.536674">x1: -0.2 V vs SHE</tspan></text>
  </g>
  <g
     id="g1577"
     transform="matrix(36.66719,0,0,36.66719,2456.5111,73.770505)">
    <path
       style="fill:none;stroke:#000000;stroke-width:0.26458299px;stroke-linecap:butt;stroke-linejoin:miter;stroke-opacity:1"
       d="m 55.771967,76.886507 4.114507,3.975117"
       id="path883"
       inkscape:connector-curvature="0"
       sodipodi:nodetypes="cc" />
    <text
       xml:space="preserve"
       style="font-size:3.175px;line-height:1.25;font-family:sans-serif;stroke-width:0.264583"
       x="61.111824"
       y="81.725914"
       id="text18116"><tspan
         sodipodi:role="line"
         id="tspan18114"
         style="stroke-width:0.264583"
         x="61.111824"
         y="81.725914">x2: 0.9 V vs SHE</tspan></text>
  </g>
  <g
     transform="translate(4.6379309e-6,5.0067902e-6)"
     id="g936">
    <text
       id="text10650-7-3"
       y="2256.2637"
       x="4132.7466"
       style="font-size:116.418px;line-height:1.25;font-family:sans-serif;stroke-width:9.70152"
       xml:space="preserve"><tspan
         y="2256.2637"
         x="4132.7466"
         style="stroke-width:9.70152"
         id="tspan10648-5-5"
         sodipodi:role="line">curve: black</tspan></text>
    <path
       sodipodi:nodetypes="cszcszzzzzzzzzzzzzzzzzczszzcczzzzzcczzzzczscczssszzzzzzzzzzzcc"
       inkscape:connector-curvature="0"
       id="path913"
       d="m 3052.0175,2475.3245 c 0,0 8.4473,-20.3792 27.5323,-28.3305 11.256,-4.6894 29.019,-8.8337 57.5503,-10.3015 28.5312,-1.4678 59.2123,-4.2788 99.6061,-3.2701 38.7337,3.3111 40.8591,2.1117 72.0642,10.7233 28.0921,7.7525 31.535,9.51 44.9666,15.952 13.4315,6.442 26.7158,14.7204 37.0945,21.5802 10.3787,6.8598 19.4114,11.2514 27.9952,16.9645 8.5838,5.7131 15.0269,9.5287 23.7056,14.0295 8.6787,4.5008 17.2668,9.2886 27.9952,12.1915 10.7284,2.9029 25.1813,6.9466 36.8002,7.902 11.6189,0.9554 75.4235,3.5315 117.6252,0.4515 42.2016,-3.0801 39.6347,-2.0476 66.6015,-5.4185 26.9667,-3.3709 45.4371,-7.4363 55.0874,-11.0626 9.6503,-3.6262 20.9524,-9.1936 32.9622,-17.3841 12.0097,-8.1906 16.8644,-13.639 29.8013,-23.4799 12.9369,-9.8409 25.8442,-20.6677 37.026,-26.4149 11.1818,-5.7472 21.0994,-11.9003 31.8333,-16.9325 10.7338,-5.0322 21.5669,-9.8132 33.1879,-13.5461 11.6209,-3.7329 13.8442,-4.7828 21.4479,-5.6443 7.6037,-0.8615 20.6442,-1.7838 25.0603,-0.6772 4.4161,1.1066 28.7736,7.8024 43.7477,4.6224 14.9742,-3.18 19.0277,-9.472 22.8265,-17.8481 2.3186,-6.3699 4.1869,-10.8405 5.3386,-13.7069 1.1516,-2.8663 4.9854,-8.0659 5.9419,-8.0318 2.3005,0.082 3.2345,3.088 4.5506,9.001 1.3161,5.913 1.2441,7.6989 2.2213,17.106 0.9772,9.4071 3.8991,20.5438 4.796,29.8013 3.0993,17.9603 2.9488,21.5553 14.6176,49.0966 2.8073,5.7624 6.9268,9.9296 10.1596,13.9976 3.2328,4.068 9.7195,7.9517 15.1265,11.5142 5.407,3.5625 8.9649,3.569 16.2553,5.6442 7.2904,2.0752 13.9643,2.4474 21.6463,3.1994 7.682,0.752 12.1099,1.6805 19.1904,1.8062 7.0805,0.1257 3.2601,0.4087 7.6255,0.3579 4.0368,-0.247 0.2901,30.4457 -0.027,31.993 -0.9126,2.203 -13.1009,3.7378 -24.6905,5.7691 -11.5896,2.0313 -23.0303,6.8544 -34.091,10.3289 -11.0607,3.4745 -23.1186,11.4386 -27.2051,15.4651 -4.0864,4.0266 -7.8575,8.2063 -14.2233,19.416 -6.3659,11.2098 -14.1901,42.0246 -17.2712,65.1341 -2.8507,12.5394 -3.1719,25.6208 -4.2897,30.9303 -1.1178,5.3094 -2.554,11.9534 -5.2129,12.2525 -3.2808,0.3691 -6.302,-16.0014 -9.1083,-22.9458 -8.3856,-23.5255 -22.7529,-24.5116 -42.5234,-23.3213 -11.6939,0.8627 -18.7757,6.1117 -38.8017,4.5341 -20.026,-1.5777 -38.1761,-8.8747 -49.901,-13.8781 -6.3401,-2.7055 -27.0218,-13.1593 -45.9421,-24.9623 -16.0695,-10.0246 -31.0621,-23.8436 -38.9837,-29.3384 -17.2483,-11.9643 -30.2531,-27.9826 -60.3916,-34.1486 -30.1385,-6.166 -67.5651,-11.707 -103.1685,-14.4906 -35.6034,-2.7836 -74.5234,-1.6345 -102.2662,-1.5251 -27.7429,0.1093 -41.1803,2.6137 -64.1455,8.137 -22.9652,5.5232 -56.0373,26.1092 -77.4772,40.4535 -21.4399,14.3442 -38.8201,21.1298 -55.7992,29.6621 -16.979,8.5324 -37.3109,13.2524 -63.5887,18.5781 -26.2778,5.3256 -49.1045,6.1406 -60.4037,6.8132 -11.2991,0.6726 -18.4044,-0.025 -38.4954,-0.3127 -20.091,-0.2881 -36.14,-3.3602 -50.4615,-4.5427 -14.3215,-1.1825 -21.4679,-1.897 -40.0134,0.5063 -18.5456,2.4033 -34.1071,14.5072 -34.6543,15.7834 -0.1108,-57.7508 2.31,-128.1467 3.1491,-190.1834 z"
       style="fill:none;stroke:#00e4b6;stroke-width:1.79999995;stroke-linecap:butt;stroke-linejoin:miter;stroke-miterlimit:4;stroke-dasharray:none;stroke-opacity:1" />
  </g>
  <text
     xml:space="preserve"
     style="font-style:normal;font-variant:normal;font-weight:normal;font-stretch:normal;font-size:80px;line-height:1.25;font-family:sans-serif;-inkscape-font-specification:sans-serif;letter-spacing:0px;word-spacing:0px;fill:#000000;fill-opacity:1;stroke:none;stroke-width:9.70153"
     x="5108.1406"
     y="1700.464"
     id="text839"><tspan
       sodipodi:role="line"
       id="tspan837"
       x="5108.1406"
       y="1700.464"
       style="font-size:80px;stroke-width:9.70153">scan rate: 50 mV / s</tspan></text>
  <text
     xml:space="preserve"
     style="font-style:normal;font-variant:normal;font-weight:normal;font-stretch:normal;font-size:80px;line-height:1.25;font-family:sans-serif;-inkscape-font-specification:sans-serif;letter-spacing:0px;word-spacing:0px;fill:#000000;fill-opacity:1;stroke:none;stroke-width:9.70153"
     x="5106.8452"
     y="1817.1852"
     id="text839-9"><tspan
       sodipodi:role="line"
       id="tspan837-1"
       x="5106.8452"
       y="1817.1852"
       style="font-size:80px;stroke-width:9.70153">figure: 1Cs</tspan></text>
  <text
     xml:space="preserve"
     style="font-style:normal;font-variant:normal;font-weight:normal;font-stretch:normal;font-size:80px;line-height:1.25;font-family:sans-serif;-inkscape-font-specification:sans-serif;letter-spacing:0px;word-spacing:0px;fill:#000000;fill-opacity:1;stroke:none;stroke-width:9.70153"
     x="5095.7632"
     y="1928.9506"
     id="text839-9-5"><tspan
       sodipodi:role="line"
       id="tspan837-1-2"
       x="5095.7632"
       y="1928.9506"
       style="font-size:80px;stroke-width:9.70153">tags: BCV</tspan></text>
</svg>
