<?xml version="1.0" encoding="UTF-8" standalone="no"?>
<svg
   xmlns:dc="http://purl.org/dc/elements/1.1/"
   xmlns:cc="http://creativecommons.org/ns#"
   xmlns:rdf="http://www.w3.org/1999/02/22-rdf-syntax-ns#"
   xmlns:svg="http://www.w3.org/2000/svg"
   xmlns="http://www.w3.org/2000/svg"
   xmlns:xlink="http://www.w3.org/1999/xlink"
   xmlns:sodipodi="http://sodipodi.sourceforge.net/DTD/sodipodi-0.dtd"
   xmlns:inkscape="http://www.inkscape.org/namespaces/inkscape"
   height="6591px"
   version="1.1"
   width="4961px"
   id="svg6"
   sodipodi:docname="berger_2017_lithium_261_f1_inset.svg"
   inkscape:version="0.92.2 (5c3e80d, 2017-08-06)">
  <metadata
     id="metadata30">
    <rdf:RDF>
      <cc:Work
         rdf:about="">
        <dc:format>image/svg+xml</dc:format>
        <dc:type
           rdf:resource="http://purl.org/dc/dcmitype/StillImage" />
      </cc:Work>
    </rdf:RDF>
  </metadata>
  <sodipodi:namedview
     id="namedview8"
     pagecolor="#ffffff"
     bordercolor="#666666"
     borderopacity="1.0"
     inkscape:pageshadow="2"
     inkscape:pageopacity="0.0"
     inkscape:pagecheckerboard="0"
     showgrid="false"
     inkscape:snap-text-baseline="true"
     inkscape:zoom="0.35704011"
     inkscape:cx="1316.7162"
     inkscape:cy="2928.7058"
     inkscape:window-width="1920"
     inkscape:window-height="1027"
     inkscape:window-x="-8"
     inkscape:window-y="22"
     inkscape:window-maximized="1"
     inkscape:current-layer="svg6" />
  <defs
     id="defs2" />
  <image
     sodipodi:absref="E:\Github\echemdb\website\literature\berger_2017_lithium_261\berger_2017_lithium_261_p1.png"
     xlink:href="berger_2017_lithium_261_p1.png"
     id="image4"
     y="0"
     x="0"
     width="4961px"
     sodipodi:insensitive="true"
     height="6591px" />
  <text
     xml:space="preserve"
     style="font-size:40px;line-height:1.25;font-family:sans-serif;word-spacing:0px"
     x="1979.4785"
     y="3169.7402"
     id="text3598"><tspan
       sodipodi:role="line"
       id="tspan3596"
       x="1979.4785"
       y="3169.7402">figure: 1</tspan></text>
  <text
     xml:space="preserve"
     style="font-size:40px;line-height:1.25;font-family:sans-serif;word-spacing:0px"
     x="1986.4102"
     y="3216.2812"
     id="text5240"><tspan
       sodipodi:role="line"
       id="tspan5238"
       x="1986.4102"
       y="3216.2812">scan rate: 50 mV / s</tspan></text>
  <g
     id="g18320">
    <text
       xml:space="preserve"
       style="font-size:40px;line-height:1.25;font-family:sans-serif;word-spacing:0px"
       x="1324.9336"
       y="4143.1406"
       id="text16486"><tspan
         sodipodi:role="line"
         id="tspan16484"
         x="1324.9336"
         y="4143.1406">E1: -3 V vs. Pt</tspan></text>
    <path
       style="fill:none;stroke:#000000;stroke-width:1px;stroke-linecap:butt;stroke-linejoin:miter;stroke-opacity:1"
       d="m 1602.668,4143.1406 -90.8277,-334.9467"
       id="path18219" />
  </g>
  <g
     id="g18315">
    <text
       xml:space="preserve"
       style="font-size:40px;line-height:1.25;font-family:sans-serif;word-spacing:0px"
       x="2010.1758"
       y="4131.2578"
       id="text17678"><tspan
         sodipodi:role="line"
         id="tspan17676"
         x="2010.1758"
         y="4131.2578">E2: 1 V vs. Pt</tspan></text>
    <path
       style="fill:none;stroke:#000000;stroke-width:1px;stroke-linecap:butt;stroke-linejoin:miter;stroke-opacity:1"
       d="M 2202.2813,4131.2578 2172.9456,3808.689"
       id="path18221" />
  </g>
  <g
     id="g18325">
    <text
       xml:space="preserve"
       style="font-size:40px;line-height:1.25;font-family:sans-serif;word-spacing:0px"
       x="1570.5117"
       y="3343.0312"
       id="text10142"><tspan
         sodipodi:role="line"
         id="tspan10140"
         x="1570.5117"
         y="3343.0312">j2: 40 uA / cm2</tspan></text>
    <path
       style="fill:none;stroke:#000000;stroke-width:1px;stroke-linecap:butt;stroke-linejoin:miter;stroke-opacity:1"
       d="m 1570.5117,3343.0313 -140.8608,-5.075"
       id="path18223" />
  </g>
  <g
     id="g18310">
    <text
       xml:space="preserve"
       style="font-size:40px;line-height:1.25;font-family:sans-serif;word-spacing:0px"
       x="1562.5898"
       y="3749.0273"
       id="text11268"><tspan
         sodipodi:role="line"
         id="tspan11266"
         x="1562.5898"
         y="3749.0273">j1: -40 uA / cm2</tspan></text>
    <path
       style="fill:none;stroke:#000000;stroke-width:1px;stroke-linecap:butt;stroke-linejoin:miter;stroke-opacity:1"
       d="m 1590.3164,3749.0273 -160.9131,7.9219"
       id="path18225" />
  </g>
  <g
     id="g8439">
    <path
       style="fill:none;stroke:#f70000;stroke-width:1px;stroke-linecap:butt;stroke-linejoin:miter;stroke-opacity:1"
       d="m 1834.533,3556.6743 c -16.402,-0.075 -26.9651,3.82 -37.2576,11.3877 -8.7814,6.4566 -18.9167,23.3743 -23.518,23.6419 -6.4049,0.3725 -16.7158,-7.5959 -26.2413,-8.2932 -22.4745,-1.6453 -35.5856,-1.9574 -56.6291,-0.4951 -15.8032,1.0981 -29.7816,12.2994 -45.6126,12.873 -20.0931,0.728 -40.3626,-4.817 -60.4043,-3.961 -14.317,0.6115 -34.504,8.3928 -42.2706,14.049 -19.7191,14.3607 -30.5116,47.3456 -30.5116,47.3456 -0.1727,-3.378 5.995,-37.7862 16.5727,-53.0063 13.6874,-19.6946 23.8251,-22.9398 39.143,-28.483 21.556,-7.8006 52.5618,-7.7876 66.5782,-9.1172 24.7298,-2.3459 35.5675,-6.0431 53.4727,-8.1694 56.7448,-6.7385 60.447,-6.179 78.7236,-8.417 9.5185,-1.1656 17.5899,-14.8172 24.0132,-15.8437 9.3109,-1.4879 28.2111,-2.2994 42.085,-4.9512 7.5496,-1.443 13.9424,-4.0278 21.58,-4.8911 13.8663,-1.5674 23.3591,2.0478 37.1987,0.2599 7.9485,-1.0269 21.5774,-2.4899 28.3619,-6.7565 8.8011,-5.5348 12.499,-18.0003 21.0425,-23.023 2.5698,-1.5108 9.6998,0.1327 9.6998,0.1327 19.3757,5.4821 40.3402,10.649 61.6695,12.6078 31.1716,2.8628 73.7528,-3.7042 93.7372,-2.3855 0,0 1.6064,13.0287 -1.4429,19.0744 -3.517,6.973 -9.8434,12.9993 -17.3565,15.1312 -52.3755,14.8623 -81.4196,10.0309 -116.6001,14.6059 -19.844,2.5806 -37.8566,14.9874 -57.9287,15.72 -13.3106,0.4858 -13.2074,-4.4406 -38.0003,-6.6841 -6.0084,-0.5437 -13.3426,-0.022 -19.3714,-0.2475 -7.0268,-0.2626 -2.9384,-2.0228 -20.733,-2.1043 z"
       id="path18360"
       sodipodi:nodetypes="ssssssssssssssssssssssssssssss"
       inkscape:connector-curvature="0" />
    <text
       xml:space="preserve"
       style="font-size:53.33330154px;line-height:1.25;font-family:sans-serif;-inkscape-font-specification:sans-serif;letter-spacing:0px;word-spacing:0px"
       x="1764.5076"
       y="3433.7878"
       id="text8221"><tspan
         sodipodi:role="line"
         id="tspan8219"
         x="1764.5076"
         y="3433.7878">curve: inset</tspan></text>
  </g>
  <text
     xml:space="preserve"
     style="font-style:normal;font-weight:normal;font-size:40px;line-height:1.25;font-family:sans-serif;letter-spacing:0px;word-spacing:0px;fill:#000000;fill-opacity:1;stroke:none"
     x="95.227394"
     y="2955.5542"
     id="text842"><tspan
       sodipodi:role="line"
       id="tspan840"
       x="95.227394"
       y="2955.5542">Tags: BCV</tspan></text>
</svg>
