<?xml version="1.0" encoding="UTF-8" standalone="no"?>
<svg
   height="6497px"
   version="1.1"
   width="4961px"
   id="svg6"
   sodipodi:docname="alves_2011_electrochemistry_6010_f2_red.svg"
   inkscape:version="1.1.2 (b8e25be833, 2022-02-05)"
   xmlns:inkscape="http://www.inkscape.org/namespaces/inkscape"
   xmlns:sodipodi="http://sodipodi.sourceforge.net/DTD/sodipodi-0.dtd"
   xmlns:xlink="http://www.w3.org/1999/xlink"
   xmlns="http://www.w3.org/2000/svg"
   xmlns:svg="http://www.w3.org/2000/svg">
  <sodipodi:namedview
     id="namedview8"
     pagecolor="#ffffff"
     bordercolor="#666666"
     borderopacity="1.0"
     inkscape:pageshadow="2"
     inkscape:pageopacity="0.0"
     inkscape:pagecheckerboard="0"
     showgrid="false"
     inkscape:zoom="0.22133292"
     inkscape:cx="1287.653"
     inkscape:cy="1911.1481"
     inkscape:window-width="1920"
     inkscape:window-height="1017"
     inkscape:window-x="-8"
     inkscape:window-y="32"
     inkscape:window-maximized="1"
     inkscape:current-layer="svg6" />
  <defs
     id="defs2" />
  <image
     height="6497px"
     sodipodi:insensitive="true"
     width="4961px"
     x="0"
     xlink:href="alves_2011_electrochemistry_6010_p4.png"
     y="0"
     id="image4" />
  <g
     id="g12205">
    <text
       xml:space="preserve"
       style="font-size:80px;line-height:1.25;font-family:sans-serif;-inkscape-font-specification:sans-serif;letter-spacing:0px;word-spacing:0px"
       x="621.23608"
       y="2552.7156"
       id="text7513"><tspan
         sodipodi:role="line"
         id="tspan7511"
         x="621.23608"
         y="2552.7156">E1: 0 V vs. RHE</tspan></text>
    <path
       style="fill:none;stroke:#000000;stroke-width:1px;stroke-linecap:butt;stroke-linejoin:miter;stroke-opacity:1"
       d="M 1032.9462,2315.5163 604.29329,2528.9957"
       id="path12104" />
  </g>
  <g
     id="g12210">
    <text
       xml:space="preserve"
       style="font-size:80px;line-height:1.25;font-family:sans-serif;-inkscape-font-specification:sans-serif;letter-spacing:0px;word-spacing:0px"
       x="2164.1606"
       y="2561.7517"
       id="text9893"><tspan
         sodipodi:role="line"
         id="tspan9891"
         x="2164.1606"
         y="2561.7517">E2: 1.2 V vs. RHE</tspan></text>
    <path
       style="fill:none;stroke:#000000;stroke-width:1px;stroke-linecap:butt;stroke-linejoin:miter;stroke-opacity:1"
       d="m 2224.59,2314.9516 -67.7712,225.3393"
       id="path12106" />
  </g>
  <g
     id="g12200">
    <text
       xml:space="preserve"
       style="font-size:80px;line-height:1.25;font-family:sans-serif;-inkscape-font-specification:sans-serif;letter-spacing:0px;word-spacing:0px"
       x="144.57858"
       y="2335.8477"
       id="text5463"><tspan
         sodipodi:role="line"
         id="tspan5461"
         x="144.57858"
         y="2335.8477">j1: -0.06 mA / cm2</tspan></text>
    <path
       style="fill:none;stroke:#000000;stroke-width:1px;stroke-linecap:butt;stroke-linejoin:miter;stroke-opacity:1"
       d="m 886.67333,2139.876 -72.28929,170.5575"
       id="path12108" />
  </g>
  <g
     id="g12195">
    <text
       xml:space="preserve"
       style="font-size:80px;line-height:1.25;font-family:sans-serif;-inkscape-font-specification:sans-serif;letter-spacing:0px;word-spacing:0px"
       x="-72.289291"
       y="628.01318"
       id="text2257"><tspan
         sodipodi:role="line"
         id="tspan2255"
         x="-72.289291"
         y="628.01318">j2: 0.02 mA / cm2</tspan></text>
    <path
       style="fill:none;stroke:#000000;stroke-width:1px;stroke-linecap:butt;stroke-linejoin:miter;stroke-opacity:1"
       d="M 885.54381,781.62796 579.44385,600.90473"
       id="path12110" />
  </g>
  <text
     xml:space="preserve"
     style="font-size:80px;line-height:1.25;font-family:sans-serif;-inkscape-font-specification:sans-serif;letter-spacing:0px;word-spacing:0px"
     x="-614.45898"
     y="881.02576"
     id="text12720"><tspan
       sodipodi:role="line"
       id="tspan12718"
       x="-614.45898"
       y="881.02576">scan rate: 10 mV / s</tspan></text>
  <text
     xml:space="preserve"
     style="font-size:80px;line-height:1.25;font-family:sans-serif;-inkscape-font-specification:sans-serif;letter-spacing:0px;word-spacing:0px"
     x="-605.42279"
     y="984.94159"
     id="text13912"><tspan
       sodipodi:role="line"
       id="tspan13910"
       x="-605.42279"
       y="984.94159">Figure: 2</tspan></text>
  <text
     xml:space="preserve"
     style="font-size:80px;line-height:1.25;font-family:sans-serif;-inkscape-font-specification:sans-serif;letter-spacing:0px;word-spacing:0px"
     x="-591.86859"
     y="1138.5563"
     id="text14752"><tspan
       sodipodi:role="line"
       id="tspan14750"
       x="-591.86859"
       y="1138.5563">Tags: COOR</tspan></text>
  <g
     id="g22350">
    <text
       xml:space="preserve"
       style="font-size:80px;line-height:1.25;font-family:sans-serif;-inkscape-font-specification:sans-serif;letter-spacing:0px;word-spacing:0px"
       x="1766.5695"
       y="1454.822"
       id="text17022"><tspan
         sodipodi:role="line"
         id="tspan17020"
         x="1766.5695"
         y="1454.822">curve: red</tspan></text>
    <path
       style="fill:none;stroke:#00ff00;stroke-width:1px;stroke-linecap:butt;stroke-linejoin:miter;stroke-opacity:1"
       d="m 991.51316,1127.2611 c 42.56734,-8.6575 425.04904,5.7734 590.37984,-16.9428 62.7705,-8.6245 115.602,-87.4988 158.6976,-144.57856 34.9793,-46.32976 73.4571,-144.76001 90.3616,-145.7081 19.5866,-1.09852 45.41,76.97295 68.9007,76.80737 47.5587,-0.33522 91.9288,-241.11556 120.8587,-241.71731 13.5624,-0.2821 40.2089,79.40266 48.9002,130.30592 12.3443,72.29813 26.9638,114.24639 52.7566,162.2398 18.6165,34.6403 63.7792,46.70905 93.7502,56.47598 0,0 -0.5502,23.7752 -1.1295,44.8382 -0.4572,16.6229 -59.5491,51.2266 -95.6784,59.203 -29.0179,6.4064 -110.9615,6.8821 -161.7387,-3.1948 -42.0547,-8.3459 -67.0153,-112.72199 -97.8572,-113.33961 -19.1766,-0.38402 -92.7065,94.35641 -156.5921,116.53441 -19.2201,6.6723 -55.3148,1.4718 -72.5752,12.2426 -45.3011,28.2687 -53.5233,83.6375 -67.2916,135.5992 -17.4294,65.7789 -13.5527,137.1127 -30.6341,202.9828 -4.458,17.1912 -7.0296,48.944 -16.8057,48.9002 -10.9993,-0.049 -22.8571,-59.5036 -30.4971,-90.3616 -2.8413,-11.476 -1.4634,-22.8914 -6.8456,-33.4177 -4.6057,-9.0076 -12.5499,-22.0582 -17.8668,-21.5608 -10.1444,0.9491 -19.8774,32.1464 -28.6374,29.7238 -16.249,-4.4937 -25.233,-45.8556 -35.0836,-73.8122 -14.61,-41.464 -26.5664,-113.4519 -62.9223,-115.5419 -37.4873,-2.1551 -61.5792,78.7465 -81.8618,75.6778 -28.5557,-4.3204 -36.2704,-83.9249 -63.8463,-92.6206 -11.4116,-3.5985 -18.9021,9.7847 -30.223,5.9099 -19.8548,-6.7958 -12.5376,-45.9216 -31.1019,-50.8284 -21.5917,-5.707 -103.6456,1.4683 -137.47063,3.1262 z"
       id="path17929"
       sodipodi:nodetypes="cssssssssssssssssssssssssssscc" />
  </g>
</svg>
