<?xml version="1.0" encoding="UTF-8" standalone="no"?>
<svg
   xmlns:dc="http://purl.org/dc/elements/1.1/"
   xmlns:cc="http://creativecommons.org/ns#"
   xmlns:rdf="http://www.w3.org/1999/02/22-rdf-syntax-ns#"
   xmlns:svg="http://www.w3.org/2000/svg"
   xmlns="http://www.w3.org/2000/svg"
   xmlns:xlink="http://www.w3.org/1999/xlink"
   xmlns:sodipodi="http://sodipodi.sourceforge.net/DTD/sodipodi-0.dtd"
   xmlns:inkscape="http://www.inkscape.org/namespaces/inkscape"
   height="6497px"
   version="1.2"
   width="4961px"
   id="svg6"
   sodipodi:docname="alves_2011_electrochemistry_6010_f2a_solid.svg"
   inkscape:version="0.92.2 (5c3e80d, 2017-08-06)">
  <metadata
     id="metadata10">
    <rdf:RDF>
      <cc:Work
         rdf:about="">
        <dc:format>image/svg+xml</dc:format>
        <dc:type
           rdf:resource="http://purl.org/dc/dcmitype/StillImage" />
      </cc:Work>
    </rdf:RDF>
  </metadata>
  <sodipodi:namedview
     pagecolor="#ffffff"
     bordercolor="#666666"
     borderopacity="1"
     objecttolerance="10"
     gridtolerance="10"
     guidetolerance="10"
     inkscape:pageopacity="0"
     inkscape:pageshadow="2"
     inkscape:window-width="1855"
     inkscape:window-height="978"
     id="namedview8"
     showgrid="false"
     inkscape:zoom="0.41096432"
     inkscape:cx="1327.4916"
     inkscape:cy="1903.6068"
     inkscape:window-x="0"
     inkscape:window-y="40"
     inkscape:window-maximized="0"
     inkscape:current-layer="g4593" />
  <defs
     id="defs2" />
  <image
     sodipodi:absref="F:\Github\echemdb\website\literature\alves_2011_electrochemistry_6010\alves_2011_electrochemistry_6010_p2.png"
     xlink:href="alves_2011_electrochemistry_6010_p2.png"
     sodipodi:insensitive="true"
     id="image4"
     y="0"
     x="0"
     width="4961"
     height="6497" />
  <text
     xml:space="preserve"
     style="font-style:normal;font-variant:normal;font-weight:normal;font-stretch:normal;font-size:26.66666603px;line-height:1.25;font-family:sans-serif;-inkscape-font-specification:sans-serif;letter-spacing:0px;word-spacing:0px;fill:#000000;fill-opacity:1;stroke:none"
     x="1851.7422"
     y="4891.021"
     id="text4508"><tspan
       sodipodi:role="line"
       id="tspan4506"
       x="1851.7422"
       y="4891.021"
       style="font-size:66.66666412px">scan rate: 0.05 V / s</tspan></text>
  <g
     id="g4559">
    <text
       id="text4534-3"
       y="3912.8931"
       x="943.69873"
       style="font-style:normal;font-variant:normal;font-weight:normal;font-stretch:normal;font-size:26.66666603px;line-height:1.25;font-family:sans-serif;-inkscape-font-specification:sans-serif;letter-spacing:0px;word-spacing:0px;fill:#000000;fill-opacity:1;stroke:none"
       xml:space="preserve"><tspan
         y="3912.8931"
         x="943.69873"
         id="tspan4532-5"
         sodipodi:role="line">y2: 0.1 mA / cm2</tspan></text>
    <path
       inkscape:connector-curvature="0"
       id="path4554"
       d="m 937.72908,3904.05 413.16002,-20.002"
       style="fill:none;stroke:#000000;stroke-width:1px;stroke-linecap:butt;stroke-linejoin:miter;stroke-opacity:1" />
  </g>
  <g
     id="g4566">
    <text
       id="text4534"
       y="5402.6958"
       x="946.33209"
       style="font-style:normal;font-variant:normal;font-weight:normal;font-stretch:normal;font-size:26.66666603px;line-height:1.25;font-family:sans-serif;-inkscape-font-specification:sans-serif;letter-spacing:0px;word-spacing:0px;fill:#000000;fill-opacity:1;stroke:none"
       xml:space="preserve"><tspan
         y="5402.6958"
         x="946.33209"
         id="tspan4532"
         sodipodi:role="line">y1: -0.8 mA / cm2</tspan></text>
    <path
       inkscape:connector-curvature="0"
       id="path4561"
       d="m 942.90424,5398.3645 407.66226,108.2129"
       style="fill:none;stroke:#000000;stroke-width:1px;stroke-linecap:butt;stroke-linejoin:miter;stroke-opacity:1" />
  </g>
  <g
     id="g4573">
    <text
       id="text4512"
       y="5720.7769"
       x="1350.4822"
       style="font-style:normal;font-variant:normal;font-weight:normal;font-stretch:normal;font-size:26.66666603px;line-height:1.25;font-family:sans-serif;-inkscape-font-specification:sans-serif;letter-spacing:0px;word-spacing:0px;fill:#000000;fill-opacity:1;stroke:none"
       xml:space="preserve"><tspan
         y="5720.7769"
         x="1350.4822"
         id="tspan4510"
         sodipodi:role="line">x1: -0.2 V vs. RHE</tspan></text>
    <path
       inkscape:connector-curvature="0"
       id="path4568"
       d="m 1349.8137,5716.7062 40.0562,-165.2824"
       style="fill:none;stroke:#000000;stroke-width:1px;stroke-linecap:butt;stroke-linejoin:miter;stroke-opacity:1"
       sodipodi:nodetypes="cc" />
  </g>
  <g
     id="g4580">
    <text
       id="text4512-3"
       y="5734.1558"
       x="2317.0129"
       style="font-style:normal;font-variant:normal;font-weight:normal;font-stretch:normal;font-size:26.66666603px;line-height:1.25;font-family:sans-serif;-inkscape-font-specification:sans-serif;letter-spacing:0px;word-spacing:0px;fill:#000000;fill-opacity:1;stroke:none"
       xml:space="preserve"><tspan
         y="5734.1558"
         x="2317.0129"
         id="tspan4510-9"
         sodipodi:role="line">x2: 1.0 V vs. RHE</tspan></text>
    <path
       inkscape:connector-curvature="0"
       id="path4575"
       d="m 2316.3629,5728.3202 10.9688,-176.1468"
       style="fill:none;stroke:#000000;stroke-width:1px;stroke-linecap:butt;stroke-linejoin:miter;stroke-opacity:1" />
  </g>
  <g
     id="g4593">
    <path
       sodipodi:nodetypes="cssssssssssssssssssssssssssssc"
       inkscape:connector-curvature="0"
       id="path4584"
       d="m 1465.5243,4244.2994 c 12.3662,-47.2404 19.0951,-67.8161 33.5518,-99.795 21.2888,-47.0918 62.1019,-75.8736 106.2473,-95.4935 19.9817,-8.8806 57.3086,-20.6016 67.5337,-46.4563 17.6432,-44.612 32.4447,-125.2492 45.8775,-163.5679 5.7898,-16.5162 11.8807,-51.17 19.9356,-51.0775 15.603,0.1793 13.6407,140.4163 34.412,225.8294 3.9005,16.0391 33.7088,3.1917 49.4674,-1.7207 17.8936,-5.5778 40.784,-31.8067 55.4895,-31.401 13.4697,0.3716 16.1569,22.9974 25.3789,24.0885 4.8747,0.5767 11.195,-0.055 15.9156,1.2905 9.5185,2.7132 11.269,15.0196 21.0774,16.3457 9.7423,1.3172 35.6648,-27.1349 58.0703,-26.2393 37.8079,1.5112 80.0168,51.8118 104.5267,52.4785 91.2397,2.4819 253.4424,-17.1789 258.0906,-0.8603 3.499,12.284 -24.6294,20.887 -39.5739,21.0774 -67.9421,0.8658 -197.9758,-1.0265 -301.966,0.8603 -15.893,0.2884 -30.7029,9.1933 -42.1547,20.2171 -38.299,36.8673 -50.5587,200.39 -62.3719,201.3106 -12.3176,0.9599 -18.6738,-141.0711 -33.1217,-156.1448 -19.7455,-20.6007 -38.6726,-42.7408 -66.2432,-49.8975 -24.6552,-6.3999 -56.9246,-14.6555 -78.7177,-0.8603 -45.8982,29.0539 -40.7593,161.2354 -54.6292,162.5971 -9.2173,0.9049 -10.9761,-87.06 -25.3789,-131.6262 -4.235,-13.1042 -14.6895,-23.9805 -28.3899,-25.3789 -16.6501,-1.6994 -33.5898,8.592 -44.7357,21.0774 -15.8028,17.702 -27.0492,46.9175 -29.2502,70.5447 -31.9763,343.2507 -21.4869,990.918 -35.0726,990.8465 -17.0357,-0.09 6.8134,-722.9471 -15.8329,-976.8729 -1.8794,-21.0736 -19.7943,23.5631 -38.1358,48.8284 z"
       style="fill:none;stroke:#ff0000;stroke-width:5;stroke-linecap:butt;stroke-linejoin:miter;stroke-miterlimit:4;stroke-dasharray:none;stroke-opacity:1" />
    <text
       id="text4588"
       y="3919.5354"
       x="2081.9307"
       style="font-style:normal;font-variant:normal;font-weight:normal;font-stretch:normal;font-size:26.66666603px;line-height:1.25;font-family:sans-serif;-inkscape-font-specification:sans-serif;letter-spacing:0px;word-spacing:0px;fill:#000000;fill-opacity:1;stroke:none"
       xml:space="preserve"><tspan
         y="3919.5354"
         x="2081.9307"
         id="tspan4586"
         sodipodi:role="line">curve: red</tspan></text>
  </g>
</svg>
