<?xml version="1.0" encoding="UTF-8" standalone="no"?>
<svg
   xmlns:dc="http://purl.org/dc/elements/1.1/"
   xmlns:cc="http://creativecommons.org/ns#"
   xmlns:rdf="http://www.w3.org/1999/02/22-rdf-syntax-ns#"
   xmlns:svg="http://www.w3.org/2000/svg"
   xmlns="http://www.w3.org/2000/svg"
   xmlns:xlink="http://www.w3.org/1999/xlink"
   xmlns:sodipodi="http://sodipodi.sourceforge.net/DTD/sodipodi-0.dtd"
   xmlns:inkscape="http://www.inkscape.org/namespaces/inkscape"
   height="6591px"
   version="1.1"
   width="4961px"
   id="svg6"
   sodipodi:docname="Sandbeck_2019_dissolution_2997_p1_f1a_Pt(111).svg"
   inkscape:version="1.0.2-2 (e86c870879, 2021-01-15)">
  <metadata
     id="metadata10">
    <rdf:RDF>
      <cc:Work
         rdf:about="">
        <dc:format>image/svg+xml</dc:format>
        <dc:type
           rdf:resource="http://purl.org/dc/dcmitype/StillImage" />
      </cc:Work>
    </rdf:RDF>
  </metadata>
  <sodipodi:namedview
     pagecolor="#ffffff"
     bordercolor="#666666"
     borderopacity="1"
     objecttolerance="10"
     gridtolerance="10"
     guidetolerance="10"
     inkscape:pageopacity="0"
     inkscape:pageshadow="2"
     inkscape:window-width="1920"
     inkscape:window-height="991"
     id="namedview8"
     showgrid="false"
     inkscape:zoom="0.35189049"
     inkscape:cx="3169.2748"
     inkscape:cy="1384.6935"
     inkscape:window-x="-9"
     inkscape:window-y="-9"
     inkscape:window-maximized="1"
     inkscape:current-layer="svg6"
     inkscape:document-rotation="0" />
  <defs
     id="defs2" />
  <image
     sodipodi:absref="C:\Users\tobia\ownCloud3\PPS\digitizer\push\sandbeck_2019_dissolution_2997\Sandbeck_2019_dissolution_2997_p1.png"
     xlink:href="Sandbeck_2019_dissolution_2997_p1.png"
     id="image4"
     y="0"
     x="0"
     width="4961px"
     sodipodi:insensitive="true"
     height="6591px" />
  <g
     id="g877">
    <text
       xml:space="preserve"
       style="font-style:italic;font-weight:bold;font-size:48px;line-height:1.25;font-family:sans-serif;-inkscape-font-specification:'sans-serif Bold Italic';letter-spacing:0px"
       x="2688.3362"
       y="474.57947"
       id="text845"><tspan
         sodipodi:role="line"
         id="tspan843"
         x="2688.3362"
         y="474.57947">j2: 50 uA / cm2</tspan></text>
    <path
       style="fill:none;stroke:#000000;stroke-width:1px;stroke-linecap:butt;stroke-linejoin:miter;stroke-opacity:1"
       d="M 2844.3782,643.52676 2674.5796,461.67142"
       id="path851" />
  </g>
  <g
     id="g872">
    <text
       xml:space="preserve"
       style="font-style:italic;font-weight:bold;font-size:48px;line-height:1.25;font-family:sans-serif;-inkscape-font-specification:'sans-serif Bold Italic';letter-spacing:0px"
       x="2495.0942"
       y="1082.7231"
       id="text849"><tspan
         sodipodi:role="line"
         id="tspan847"
         x="2495.0942"
         y="1082.7231">j1: -50 uA / cm2</tspan></text>
    <path
       style="fill:none;stroke:#000000;stroke-width:1px;stroke-linecap:butt;stroke-linejoin:miter;stroke-opacity:1"
       d="M 2844.0014,928.49206 2461.5777,1075.0564"
       id="path853" />
  </g>
  <g
     id="g867">
    <text
       xml:space="preserve"
       style="font-style:italic;font-weight:bold;font-size:48px;line-height:1.25;font-family:sans-serif;-inkscape-font-specification:'sans-serif Bold Italic';letter-spacing:0px"
       x="2867.3694"
       y="2270.5928"
       id="text841"><tspan
         sodipodi:role="line"
         id="tspan839"
         x="2867.3694"
         y="2270.5928">E1: 0.0 V vs RHE</tspan></text>
    <path
       style="fill:none;stroke:#000000;stroke-width:1px;stroke-linecap:butt;stroke-linejoin:miter;stroke-opacity:1"
       d="m 2844.1021,2106.124 15.347,147.9779"
       id="path855" />
  </g>
  <g
     id="g862">
    <text
       xml:space="preserve"
       style="font-style:italic;font-weight:bold;font-size:48px;line-height:1.25;font-family:sans-serif;-inkscape-font-specification:'sans-serif Bold Italic';letter-spacing:0px"
       x="4401.9375"
       y="2290.4854"
       id="text837"><tspan
         sodipodi:role="line"
         id="tspan835"
         x="4401.9375"
         y="2290.4854">E2: 0.8 V vs RHE</tspan></text>
    <path
       style="fill:none;stroke:#000000;stroke-width:1px;stroke-linecap:butt;stroke-linejoin:miter;stroke-opacity:1"
       d="m 4307.892,2106.3016 87.6516,167.8434"
       id="path857" />
  </g>
  <g
     id="g896">
    <path
       style="fill:none;stroke:#000000;stroke-width:1px;stroke-linecap:butt;stroke-linejoin:miter;stroke-opacity:1"
       d="m 2971.7272,901.61565 2.2606,-179.21794 c 0.1402,-11.11729 17.543,-20.35297 51.8689,-22.35514 18.9346,-1.10442 36.8018,-10.07633 55.6368,-12.30789 10.771,-1.27614 21.8398,5.5158 57.1706,5.88855 31.6751,0.33418 69.8234,1.01242 98.5618,1.64689 23.7109,0.52348 58.2072,3.64712 84.1324,2.98816 17.6405,-0.44838 31.0429,-5.3458 35.43,-3.49052 32.6549,13.8095 66.4184,24.84046 99.4678,37.67721 35.1239,13.64252 57.3893,25.43823 94.7753,32.77296 52.273,10.25538 121.4609,10.66055 174.4912,11.93733 70.8125,1.70492 120.2404,2.97605 190.4202,-8.64209 25.5342,-4.22715 72.4628,-18.64084 97.4337,-25.01622 114.414,-29.2113 108.5116,-20.78083 201.9498,-32.15122 22.6138,-2.75185 56.6926,-14.64883 70.2113,-37.80519 23.2206,-39.77502 17.7207,-100.15962 25.2376,-100.84694 11.8571,-1.08418 3.7262,114.57361 29.6394,149.20175 31.8705,42.58897 56.2647,39.68666 56.2647,39.68666 l -0.5024,38.68194 c 0,0 -25.5189,9.37035 -40.1414,21.46064 -15.998,13.2277 -23.4033,29.02574 -29.2278,44.6671 -14.7609,39.63967 -20.5695,161.19021 -24.3328,161.09411 -2.4343,-0.062 -2.4881,-35.87501 -7.1958,-72.91048 -4.2243,-33.23271 -4.9094,-59.87702 -32.5893,-77.70451 -4.1102,-2.64719 -27.1554,-8.47157 -59.2897,-12.77629 -46.0942,-6.17478 -95.7611,-5.34847 -154.2,-23.10135 -52.6454,-15.99291 -106.2422,-30.59923 -160.9166,-36.7657 -84.8932,-9.57469 -169.4835,-2.82182 -256.2942,0 -82.6074,2.68519 -126.4997,17.4198 -240.6644,59.67765 -14.6224,5.41246 -28.7317,12.52128 -43.9793,15.38817 -16.7604,3.15133 -71.1997,-0.75959 -141.8029,2.01782 -44.6016,1.75455 -86.7794,4.57074 -133.5643,9.59105 -6.4496,0.69208 -43.7018,-9.78455 -62.1406,-7.77627 -25.3339,2.75925 -38.1106,18.48976 -38.1106,18.48976 z"
       id="path879"
       sodipodi:nodetypes="cssssssssssssssssccssssssssssssssc" />
    <text
       xml:space="preserve"
       style="font-style:italic;font-weight:bold;font-size:48px;line-height:1.25;font-family:sans-serif;-inkscape-font-specification:'sans-serif Bold Italic';letter-spacing:0px"
       x="3421.519"
       y="491.63022"
       id="text883"><tspan
         sodipodi:role="line"
         id="tspan881"
         x="3421.519"
         y="491.63022">curve: solid red</tspan></text>
  </g>
  <text
     xml:space="preserve"
     style="font-style:italic;font-weight:bold;font-size:48px;line-height:1.25;font-family:sans-serif;-inkscape-font-specification:'sans-serif Bold Italic';letter-spacing:0px"
     x="3333.4233"
     y="969.05145"
     id="text887"><tspan
       sodipodi:role="line"
       id="tspan885"
       x="3333.4233"
       y="969.05145">scan rate: 50 mV / s</tspan></text>
  <text
     xml:space="preserve"
     style="font-style:italic;font-weight:bold;font-size:48px;line-height:1.25;font-family:sans-serif;-inkscape-font-specification:'sans-serif Bold Italic';letter-spacing:0px"
     x="3236.8025"
     y="1000.3112"
     id="text891"><tspan
       sodipodi:role="line"
       id="tspan889"
       x="3236.8025"
       y="1000.3112" /></text>
  <text
     xml:space="preserve"
     style="font-style:italic;font-weight:bold;font-size:48px;line-height:1.25;font-family:sans-serif;-inkscape-font-specification:'sans-serif Bold Italic';letter-spacing:0px"
     x="4137.6509"
     y="369.43311"
     id="text856"><tspan
       sodipodi:role="line"
       id="tspan854"
       x="4137.6509"
       y="369.43311">tags: BCV</tspan></text>
  <text
     xml:space="preserve"
     style="font-style:italic;font-weight:bold;font-size:48px;line-height:1.25;font-family:sans-serif;-inkscape-font-specification:'sans-serif Bold Italic';letter-spacing:0px"
     x="4146.1763"
     y="451.84512"
     id="text860"><tspan
       sodipodi:role="line"
       id="tspan858"
       x="4146.1763"
       y="451.84512">Figure: 1</tspan></text>
</svg>
