<?xml version="1.0" encoding="UTF-8" standalone="no"?>
<svg
   xmlns:dc="http://purl.org/dc/elements/1.1/"
   xmlns:cc="http://creativecommons.org/ns#"
   xmlns:rdf="http://www.w3.org/1999/02/22-rdf-syntax-ns#"
   xmlns:svg="http://www.w3.org/2000/svg"
   xmlns="http://www.w3.org/2000/svg"
   xmlns:xlink="http://www.w3.org/1999/xlink"
   xmlns:sodipodi="http://sodipodi.sourceforge.net/DTD/sodipodi-0.dtd"
   xmlns:inkscape="http://www.inkscape.org/namespaces/inkscape"
   height="6591px"
   version="1.1"
   width="4961px"
   id="svg6"
   sodipodi:docname="Sandbeck_2019_dissolution_2997_p1_f1b_Pt(100).svg"
   inkscape:version="1.0.2-2 (e86c870879, 2021-01-15)">
  <metadata
     id="metadata10">
    <rdf:RDF>
      <cc:Work
         rdf:about="">
        <dc:format>image/svg+xml</dc:format>
        <dc:type
           rdf:resource="http://purl.org/dc/dcmitype/StillImage" />
      </cc:Work>
    </rdf:RDF>
  </metadata>
  <sodipodi:namedview
     pagecolor="#ffffff"
     bordercolor="#666666"
     borderopacity="1"
     objecttolerance="10"
     gridtolerance="10"
     guidetolerance="10"
     inkscape:pageopacity="0"
     inkscape:pageshadow="2"
     inkscape:window-width="1920"
     inkscape:window-height="991"
     id="namedview8"
     showgrid="false"
     inkscape:zoom="0.35189049"
     inkscape:cx="3548.0532"
     inkscape:cy="1497.8534"
     inkscape:window-x="-9"
     inkscape:window-y="-9"
     inkscape:window-maximized="1"
     inkscape:current-layer="svg6"
     inkscape:document-rotation="0" />
  <defs
     id="defs2" />
  <image
     sodipodi:absref="C:\Users\tobia\ownCloud3\PPS\digitizer\push\sandbeck_2019_dissolution_2997\Sandbeck_2019_dissolution_2997_p1.png"
     xlink:href="Sandbeck_2019_dissolution_2997_p1.png"
     height="6591px"
     sodipodi:insensitive="true"
     width="4961px"
     x="0"
     y="0"
     id="image4" />
  <g
     id="g947">
    <g
       id="g872"
       transform="translate(-42.51073,527.93778)">
      <text
         xml:space="preserve"
         style="font-style:italic;font-weight:bold;font-size:48px;line-height:1.25;font-family:sans-serif;-inkscape-font-specification:'sans-serif Bold Italic';letter-spacing:0px"
         x="2495.0942"
         y="1082.7231"
         id="text849"><tspan
           sodipodi:role="line"
           id="tspan847"
           x="2495.0942"
           y="1082.7231">j1: -50 uA / cm2</tspan></text>
      <path
         style="fill:none;stroke:#000000;stroke-width:1.01529px;stroke-linecap:butt;stroke-linejoin:miter;stroke-opacity:1"
         d="M 2886.6362,939.14029 2461.5698,1075.0649"
         id="path853" />
    </g>
  </g>
  <g
     id="g867"
     transform="translate(-0.06144463,-0.63575258)">
    <text
       xml:space="preserve"
       style="font-style:italic;font-weight:bold;font-size:48px;line-height:1.25;font-family:sans-serif;-inkscape-font-specification:'sans-serif Bold Italic';letter-spacing:0px"
       x="2867.3694"
       y="2270.5928"
       id="text841"><tspan
         sodipodi:role="line"
         id="tspan839"
         x="2867.3694"
         y="2270.5928">E1: 0.0 V vs RHE</tspan></text>
    <path
       style="fill:none;stroke:#000000;stroke-width:1px;stroke-linecap:butt;stroke-linejoin:miter;stroke-opacity:1"
       d="m 2844.1021,2106.124 15.347,147.9779"
       id="path855" />
  </g>
  <g
     id="g879"
     transform="matrix(1.0009271,0,0,1.0115367,-4.3789673,-24.227058)">
    <text
       xml:space="preserve"
       style="font-style:italic;font-weight:bold;font-size:48px;line-height:1.25;font-family:sans-serif;-inkscape-font-specification:'sans-serif Bold Italic';letter-spacing:0px"
       x="4401.9375"
       y="2290.4854"
       id="text837"><tspan
         sodipodi:role="line"
         id="tspan835"
         x="4401.9375"
         y="2290.4854">E2: 0.8 V vs RHE</tspan></text>
    <path
       style="fill:none;stroke:#000000;stroke-width:1px;stroke-linecap:butt;stroke-linejoin:miter;stroke-opacity:1"
       d="m 4307.892,2106.3016 87.6516,167.8434"
       id="path857" />
  </g>
  <g
     id="g980">
    <text
       xml:space="preserve"
       style="font-style:italic;font-weight:bold;font-size:48px;line-height:1.25;font-family:sans-serif;-inkscape-font-specification:'sans-serif Bold Italic';letter-spacing:0px"
       x="2489.4106"
       y="1081.3024"
       id="text973"><tspan
         sodipodi:role="line"
         id="tspan971"
         x="2489.4106"
         y="1081.3024">j2: 50 uA / cm2</tspan></text>
    <path
       style="fill:none;stroke:#000000;stroke-width:1px;stroke-linecap:butt;stroke-linejoin:miter;stroke-opacity:1"
       d="M 2844.755,1197.5073 2476.6228,1071.356"
       id="path975" />
  </g>
  <g
     id="g991">
    <path
       style="fill:none;stroke:#000000;stroke-width:1px;stroke-linecap:butt;stroke-linejoin:miter;stroke-opacity:1"
       d="m 2970.5969,1454.0891 3.6421,-130.6143 c 0.233,-8.3548 8.5269,-17.6233 16.8291,-18.5874 12.0359,-1.3977 84.6273,13.6663 127.349,15.8244 44.2466,2.2352 91.4065,12.5783 132.875,-3.0142 31.062,-11.6795 51.6259,-5.5209 103.9187,-61.5209 29.2082,-31.2789 43.5487,-68.9909 52.8185,-69.5958 14.4047,-0.94 27.022,11.9592 41.4449,12.5591 19.1641,0.7971 37.1561,-13.7188 56.2646,-12.0567 26.0604,2.2668 49.9251,10.7188 73.7209,16.9603 20.9097,5.4844 42.009,8.1691 61.1636,18.4563 25.5346,13.7136 40.7048,47.2077 89.6717,61.7906 36.939,11.0009 76.7874,7.0929 115.2923,8.7914 47.9639,2.1157 93.5536,6.1399 140.6616,11.5543 66.3214,7.6227 133.2019,13.1696 199.9404,11.5544 99.5559,-2.4095 211.6171,-33.0575 211.4947,-29.8906 l -2.0094,51.9945 c -0.3658,9.4656 -11.318,16.5305 -20.0946,20.0945 -18.0768,7.3407 -88.7682,-0.2827 -133.1261,1.0048 -63.0166,1.8291 -121.3457,-1.3383 -188.8884,9.5448 -52.5594,8.4689 -105.3821,15.293 -158.2443,21.6016 -59.6694,7.1209 -132.9458,2.0665 -179.3435,18.3363 -36.1789,12.6865 -59.043,50.1321 -93.4395,67.0654 -27.7702,13.6712 -112.2781,36.1701 -127.6001,36.4213 -1.0046,0.016 -36.8734,-11.9119 -52.2458,-10.5496 -13.5561,1.2013 -29.6043,14.7118 -38.6819,13.0614 -15.6421,-2.8438 -28.9133,-37.9199 -56.4631,-66.8644 -21.1101,-22.1787 -48.3836,-37.83 -71.6394,-46.1672 -47.125,-16.8943 -114.7718,-11.8745 -170.8034,-1.7583 -33.036,5.9645 -79.8268,15.7417 -100.9749,24.6158 -13.7051,5.7509 -33.5327,29.3882 -33.5327,29.3882 z"
       id="path982"
       sodipodi:nodetypes="csssssssssssssssssssssssssssssc" />
    <text
       xml:space="preserve"
       style="font-style:italic;font-weight:bold;font-size:48px;line-height:1.25;font-family:sans-serif;-inkscape-font-specification:'sans-serif Bold Italic';letter-spacing:0px"
       x="3162.8762"
       y="988.65002"
       id="text986"><tspan
         sodipodi:role="line"
         id="tspan984"
         x="3162.8762"
         y="988.65002">curve: solid blue</tspan></text>
  </g>
  <text
     xml:space="preserve"
     style="font-style:italic;font-weight:bold;font-size:48px;line-height:1.25;font-family:sans-serif;-inkscape-font-specification:'sans-serif Bold Italic';letter-spacing:0px"
     x="3912.4016"
     y="1181.5573"
     id="text995"><tspan
       sodipodi:role="line"
       id="tspan993"
       x="3912.4016"
       y="1181.5573">scan rate: 50 mV / s</tspan></text>
  <text
     xml:space="preserve"
     style="font-style:italic;font-weight:bold;font-size:48px;line-height:1.25;font-family:sans-serif;-inkscape-font-specification:'sans-serif Bold Italic';letter-spacing:0px"
     x="4549.7109"
     y="1116.8247"
     id="text855"><tspan
       sodipodi:role="line"
       id="tspan853"
       x="4549.7109"
       y="1116.8247">tags: BCV</tspan></text>
  <text
     xml:space="preserve"
     style="font-style:italic;font-weight:bold;font-size:48px;line-height:1.25;font-family:sans-serif;-inkscape-font-specification:'sans-serif Bold Italic';letter-spacing:0px"
     x="4555.3945"
     y="1202.0785"
     id="text859"><tspan
       sodipodi:role="line"
       id="tspan857"
       x="4555.3945"
       y="1202.0785">Figure: 1</tspan></text>
</svg>
