<?xml version="1.0" encoding="UTF-8" standalone="no"?>
<svg
   xmlns:dc="http://purl.org/dc/elements/1.1/"
   xmlns:cc="http://creativecommons.org/ns#"
   xmlns:rdf="http://www.w3.org/1999/02/22-rdf-syntax-ns#"
   xmlns:svg="http://www.w3.org/2000/svg"
   xmlns="http://www.w3.org/2000/svg"
   xmlns:xlink="http://www.w3.org/1999/xlink"
   xmlns:sodipodi="http://sodipodi.sourceforge.net/DTD/sodipodi-0.dtd"
   xmlns:inkscape="http://www.inkscape.org/namespaces/inkscape"
   height="6591px"
   version="1.1"
   width="4961px"
   id="svg6"
   sodipodi:docname="Sandbeck_2019_dissolution_2997_p1_f1c_Pt(110).svg"
   inkscape:version="1.0.2-2 (e86c870879, 2021-01-15)">
  <metadata
     id="metadata10">
    <rdf:RDF>
      <cc:Work
         rdf:about="">
        <dc:format>image/svg+xml</dc:format>
        <dc:type
           rdf:resource="http://purl.org/dc/dcmitype/StillImage" />
      </cc:Work>
    </rdf:RDF>
  </metadata>
  <sodipodi:namedview
     pagecolor="#ffffff"
     bordercolor="#666666"
     borderopacity="1"
     objecttolerance="10"
     gridtolerance="10"
     guidetolerance="10"
     inkscape:pageopacity="0"
     inkscape:pageshadow="2"
     inkscape:window-width="1920"
     inkscape:window-height="991"
     id="namedview8"
     showgrid="false"
     inkscape:zoom="0.35189049"
     inkscape:cx="3858.1138"
     inkscape:cy="1804.6608"
     inkscape:window-x="-9"
     inkscape:window-y="-9"
     inkscape:window-maximized="1"
     inkscape:current-layer="svg6"
     inkscape:document-rotation="0" />
  <defs
     id="defs2" />
  <image
     sodipodi:absref="C:\Users\tobia\ownCloud3\PPS\digitizer\push\sandbeck_2019_dissolution_2997\Sandbeck_2019_dissolution_2997_p1.png"
     xlink:href="Sandbeck_2019_dissolution_2997_p1.png"
     height="6591px"
     sodipodi:insensitive="true"
     width="4961px"
     x="0"
     y="0"
     id="image4" />
  <g
     id="g867"
     transform="translate(-0.41062189,-0.12627353)">
    <text
       xml:space="preserve"
       style="font-style:italic;font-weight:bold;font-size:48px;line-height:1.25;font-family:sans-serif;-inkscape-font-specification:'sans-serif Bold Italic';letter-spacing:0px"
       x="2867.3694"
       y="2270.5928"
       id="text841"><tspan
         sodipodi:role="line"
         id="tspan839"
         x="2867.3694"
         y="2270.5928">E1: 0.0 V vs RHE</tspan></text>
    <path
       style="fill:none;stroke:#000000;stroke-width:1px;stroke-linecap:butt;stroke-linejoin:miter;stroke-opacity:1"
       d="m 2844.1021,2106.124 15.347,147.9779"
       id="path855" />
  </g>
  <g
     id="g879"
     transform="matrix(1.0009271,0,0,1.0115367,-4.4375716,-24.528372)">
    <text
       xml:space="preserve"
       style="font-style:italic;font-weight:bold;font-size:48px;line-height:1.25;font-family:sans-serif;-inkscape-font-specification:'sans-serif Bold Italic';letter-spacing:0px"
       x="4401.9375"
       y="2290.4854"
       id="text837"><tspan
         sodipodi:role="line"
         id="tspan835"
         x="4401.9375"
         y="2290.4854">E2: 0.8 V vs RHE</tspan></text>
    <path
       style="fill:none;stroke:#000000;stroke-width:1px;stroke-linecap:butt;stroke-linejoin:miter;stroke-opacity:1"
       d="m 4307.892,2106.3016 87.6516,167.8434"
       id="path857" />
  </g>
  <g
     id="g885">
    <text
       xml:space="preserve"
       style="font-style:italic;font-weight:bold;font-size:48px;line-height:1.25;font-family:sans-serif;-inkscape-font-specification:'sans-serif Bold Italic';letter-spacing:0px"
       x="2489.4109"
       y="2330.2705"
       id="text871"><tspan
         sodipodi:role="line"
         id="tspan869"
         x="2489.4109"
         y="2330.2705">j1: -50 uA / cm2</tspan></text>
    <path
       style="fill:none;stroke:#000000;stroke-width:1px;stroke-linecap:butt;stroke-linejoin:miter;stroke-opacity:1"
       d="m 2844.3782,1992.8733 -373.439,321.7672"
       id="path873" />
  </g>
  <g
     id="g880">
    <text
       xml:space="preserve"
       style="font-style:italic;font-weight:bold;font-size:48px;line-height:1.25;font-family:sans-serif;-inkscape-font-specification:'sans-serif Bold Italic';letter-spacing:0px"
       x="2529.1958"
       y="1601.3505"
       id="text867"><tspan
         sodipodi:role="line"
         id="tspan865"
         x="2529.1958"
         y="1601.3505">j2: 50 uA / cm2</tspan></text>
    <path
       style="fill:none;stroke:#000000;stroke-width:1px;stroke-linecap:butt;stroke-linejoin:miter;stroke-opacity:1"
       d="M 2844.3782,1707.5312 2505.7857,1579.4287"
       id="path875" />
  </g>
  <g
     id="g896">
    <path
       style="fill:none;stroke:#000000;stroke-width:1px;stroke-linecap:butt;stroke-linejoin:miter;stroke-opacity:1"
       d="m 2971.0948,2013.7657 3.9074,-218.8181 c 0.1919,-10.7448 3.7561,-22.0262 10.3015,-30.5493 11.3414,-14.7682 32.2384,-18.9734 46.5344,-30.9045 30.1957,-25.2007 48.4376,-92.3154 69.5882,-92.003 15.8752,0.2345 32.1678,62.6289 73.4631,69.2509 26.4605,4.2431 46.0958,-24.7876 62.2682,-24.8479 12.6793,-0.047 37.3928,66.9184 64.6508,93.0687 17.7097,16.99 53.686,32.3903 91.7567,47.0548 24.1734,9.3114 48.905,12.1793 71.6465,16.5303 60.1624,11.5106 132.5123,6.7299 205.5228,7.6625 38.8973,0.4968 75.5335,-1.6913 110.8169,-3.816 33.8707,-2.0395 175.3408,-4.915 263.5996,-8.123 94.4186,-3.4319 143.0789,-27.5361 158.9269,-32.6668 12.8581,-4.1627 27.124,-3.0868 39.7851,-7.8149 24.2978,-9.0737 42.121,-33.3346 67.4926,-38.7194 15.8359,-3.3609 32.1333,4.3657 48.3105,4.9731 12.9023,0.4845 38.7194,-1.0657 38.7194,-1.0657 l -3.197,96.2658 c -0.3331,10.0316 -8.8438,23.5989 -20.9583,34.1015 -6.2633,5.4299 -56.6159,10.8064 -84.8985,16.3403 -20.8525,4.0801 -41.3102,11.1518 -62.5195,12.4329 -23.4912,1.4189 -48.8518,-18.0088 -95.69,-27.0551 -24.0259,-4.6404 -51.2018,-9.7076 -75.1728,-13.0853 -23.7252,-3.343 -94.3803,-1.7434 -161.3737,-2.8606 -25.366,-0.423 -50.6373,-3.8176 -72.0086,-4.2439 -86.4727,-1.725 -263.1082,-15.3051 -369.4331,3.9075 -51.071,9.2284 -103.6084,17.6031 -146.2877,51.3425 -29.8636,23.6082 -45.1948,102.9128 -69.3333,110.9949 -18.4249,6.1691 -22.5146,-28.4917 -67.1374,-22.3791 -40.5108,5.5494 -61.6669,71.3297 -77.7941,69.9791 -20.6765,-1.7315 -46.6754,-91.5804 -90.5821,-95.9104 -12.3868,-1.2216 -30.9045,20.9582 -30.9045,20.9582 z"
       id="path887"
       sodipodi:nodetypes="csssssssssssssssscssssssssssssssc" />
    <text
       xml:space="preserve"
       style="font-style:italic;font-weight:bold;font-size:48px;line-height:1.25;font-family:sans-serif;-inkscape-font-specification:'sans-serif Bold Italic';letter-spacing:0px"
       x="3324.8979"
       y="1767.5953"
       id="text891"><tspan
         sodipodi:role="line"
         id="tspan889"
         x="3324.8979"
         y="1767.5953">curve: solid green</tspan></text>
  </g>
  <text
     xml:space="preserve"
     style="font-style:italic;font-weight:bold;font-size:48px;line-height:1.25;font-family:sans-serif;-inkscape-font-specification:'sans-serif Bold Italic';letter-spacing:0px"
     x="3520.9817"
     y="2040.4075"
     id="text900"><tspan
       sodipodi:role="line"
       id="tspan898"
       x="3520.9817"
       y="2040.4075">scan rate: 50 mV / s</tspan></text>
  <text
     xml:space="preserve"
     style="font-style:italic;font-weight:bold;font-size:48px;line-height:1.25;font-family:sans-serif;-inkscape-font-specification:'sans-serif Bold Italic';letter-spacing:0px"
     x="4626.4395"
     y="1656.7654"
     id="text854"><tspan
       sodipodi:role="line"
       id="tspan852"
       x="4626.4395"
       y="1656.7654">tags: BCV</tspan></text>
  <text
     xml:space="preserve"
     style="font-style:italic;font-weight:bold;font-size:48px;line-height:1.25;font-family:sans-serif;-inkscape-font-specification:'sans-serif Bold Italic';letter-spacing:0px"
     x="4617.9141"
     y="1733.4938"
     id="text858"><tspan
       sodipodi:role="line"
       id="tspan856"
       x="4617.9141"
       y="1733.4938">Figure: 1</tspan></text>
</svg>
