<?xml version="1.0" encoding="UTF-8" standalone="no"?>
<svg
   height="6820px"
   version="1.2"
   width="5212px"
   id="svg6"
   sodipodi:docname="briega_martos_2021_cation_48_p2_f1_li_4_0.svg"
   inkscape:version="1.1.2 (b8e25be833, 2022-02-05)"
   xmlns:inkscape="http://www.inkscape.org/namespaces/inkscape"
   xmlns:sodipodi="http://sodipodi.sourceforge.net/DTD/sodipodi-0.dtd"
   xmlns:xlink="http://www.w3.org/1999/xlink"
   xmlns="http://www.w3.org/2000/svg"
   xmlns:svg="http://www.w3.org/2000/svg"
   xmlns:rdf="http://www.w3.org/1999/02/22-rdf-syntax-ns#"
   xmlns:cc="http://creativecommons.org/ns#"
   xmlns:dc="http://purl.org/dc/elements/1.1/">
  <metadata
     id="metadata10">
    <rdf:RDF>
      <cc:Work
         rdf:about="">
        <dc:format>image/svg+xml</dc:format>
        <dc:type
           rdf:resource="http://purl.org/dc/dcmitype/StillImage" />
        <dc:title />
      </cc:Work>
    </rdf:RDF>
  </metadata>
  <sodipodi:namedview
     pagecolor="#ffffff"
     bordercolor="#666666"
     borderopacity="1"
     objecttolerance="10"
     gridtolerance="10"
     guidetolerance="10"
     inkscape:pageopacity="0"
     inkscape:pageshadow="2"
     inkscape:window-width="1920"
     inkscape:window-height="1017"
     id="namedview8"
     showgrid="false"
     inkscape:zoom="0.13841642"
     inkscape:cx="2947.6272"
     inkscape:cy="2889.8306"
     inkscape:window-x="-8"
     inkscape:window-y="32"
     inkscape:window-maximized="1"
     inkscape:current-layer="svg6"
     inkscape:pagecheckerboard="0" />
  <defs
     id="defs2" />
  <image
     xlink:href="briega_martos_2021_cation_48_p2.png"
     id="image4"
     y="0"
     x="0"
     width="5212px"
     height="6820px" />
  <text
     xml:space="preserve"
     style="font-style:normal;font-variant:normal;font-weight:normal;font-stretch:normal;font-size:258.707px;line-height:1.25;font-family:sans-serif;-inkscape-font-specification:sans-serif;letter-spacing:0px;word-spacing:0px;fill:#000000;fill-opacity:1;stroke:none;stroke-width:9.70153"
     x="4942.9067"
     y="434.64996"
     id="text839"><tspan
       sodipodi:role="line"
       id="tspan837"
       x="4942.9067"
       y="434.64996"
       style="stroke-width:9.70153">scan rate: 50 mV / s</tspan></text>
  <g
     transform="translate(4.6379309e-6,-1406.0307)"
     id="g936">
    <text
       id="text10650-7-3"
       y="2256.2637"
       x="4132.7466"
       style="font-size:116.418px;line-height:1.25;font-family:sans-serif;stroke-width:9.70152"
       xml:space="preserve"><tspan
         y="2256.2637"
         x="4132.7466"
         style="stroke-width:9.70152"
         id="tspan10648-5-5"
         sodipodi:role="line">curve: Li+pH4.0</tspan></text>
    <path
       sodipodi:nodetypes="szzszsszzzzzzzzzczzczzzzzzczzzszzzzzzzzzzzzzzzzzzzzczsss"
       inkscape:connector-curvature="0"
       id="path913"
       d="m 3088.1459,2667.8963 c 0,0 3.7345,-152.503 7.0262,-176.1271 3.2916,-23.6242 15.3674,-40.5084 23.2811,-44.5483 7.9136,-4.0399 23.4287,-9.3159 39.86,-10.4185 21.1463,-1.4191 58.5133,-3.4466 73.4375,-4.0619 14.9242,-0.6153 51.3929,0.8119 60.4991,0.9126 18.6967,0.2068 30.9151,1.2397 63.0336,10.9492 20.0783,6.0698 33.347,12.6237 35.5948,13.9131 2.2478,1.2895 26.6962,12.519 34.2014,18.82 7.5051,6.3009 16.8958,14.6949 25.4796,20.408 8.5838,5.7131 16.8867,10.3099 25.5654,14.8107 8.6787,4.5008 17.2348,7.6064 27.9632,10.5093 10.7284,2.9029 21.1833,4.7804 36.8731,6.3743 15.6899,1.594 37.3435,2.2181 62.7564,0.1579 25.4129,-2.0602 84.0474,-12.3136 104.0161,-12.9108 19.9687,-0.5972 19.2313,-0.8649 46.1239,-2.8811 26.8925,-2.0162 78.315,-14.2311 90.538,-20.9464 9.7522,-4.9169 17.1119,-7.6885 28.1297,-14.0299 11.0179,-6.3415 25.0479,-16.5912 45.6421,-28.5587 20.5942,-11.9674 37.8429,-23.6822 62.0107,-28.8095 22.7749,-2.525 43.5605,-1.5377 50.9004,-2.3554 7.3398,-0.8176 15.4079,-6.2627 16.766,-7.1909 1.3582,-0.9283 7.8752,-3.7922 12.2634,-4.0277 4.3882,-0.2354 7.6937,1.3052 11.4313,9.5149 3.7376,8.2097 6.1406,14.5077 8.4563,23.1497 2.3157,8.642 8.4126,22.8587 14.2114,32.4348 5.7988,9.576 14.5267,25.4755 38.1888,32.8451 7.2904,2.0752 18.7215,5.8088 26.4035,6.5608 7.682,0.752 9.1016,1.5222 16.1821,1.6479 7.0805,0.1257 6.9069,0.7953 11.2723,0.7445 4.3654,-0.051 6.5001,0.9511 6.5001,0.9511 -0.016,1.3898 -1.1217,27.0506 -2.5985,29.5358 -1.4769,2.4851 -8.4264,3.3444 -19.8564,6.4134 -11.4299,3.0689 -22.9555,5.1287 -34.0162,8.6032 -11.0607,3.4745 -21.8308,7.0611 -28.4007,11.5392 -6.5699,4.4781 -11.383,8.9299 -16.139,13.2889 -4.7561,4.359 -5.1207,6.2309 -9.6669,12.3829 -4.5463,6.1519 -13.9852,22.6841 -19.2255,38.499 -5.2402,15.8149 -15.5686,33.4142 -23.2999,33.3689 -7.7313,-0.045 -17.2039,-5.5833 -25.3725,-11.2479 -8.1685,-5.6646 -27.1305,-6.5647 -35.0705,-7.7659 -7.94,-1.2013 -10.4514,-1.1573 -24.6254,-4.8023 -14.174,-3.645 -38.2454,-17.5624 -46.6153,-23.548 -8.3699,-5.9856 -40.0418,-26.8692 -58.2479,-37.2371 -18.2062,-10.3678 -39.67,-16.5258 -55.1214,-18.7805 -15.4514,-2.2547 -78.3172,0.1152 -104.3421,0.205 -26.0249,0.09 -68.8323,-9.7595 -97.0541,-12.5237 -28.2218,-2.7642 -73.9981,0.4225 -95.8457,5.2273 -21.8477,4.8048 -43.5319,16.8753 -60.6951,26.7845 -17.1633,9.9092 -33.8199,21.3051 -54.3271,32.4692 -20.5073,11.1641 -55.3149,22.8818 -80.2544,27.2889 -24.9395,4.4072 -66.298,9.0039 -85.9429,8.989 -20.091,-0.2881 -34.1162,-0.01 -51.546,-0.8219 -17.4298,-0.813 -22.3138,1.0575 -31.4022,2.4 -7.992,1.1806 -25.0854,3.7409 -31.4233,5.7522 -6.1475,1.9509 -13.534,6.8997 -13.5185,6.1422 z"
       style="fill:none;stroke:#000000;stroke-width:1px;stroke-linecap:butt;stroke-linejoin:miter;stroke-opacity:1" />
  </g>
  <g
     id="g24550"
     transform="translate(-2.1611404e-4,-1404.2769)">
    <text
       xml:space="preserve"
       style="font-size:53.3333px;line-height:1.25;font-family:sans-serif;-inkscape-font-specification:sans-serif;letter-spacing:0px;word-spacing:0px"
       x="2133.7549"
       y="2471.5938"
       id="text19196"><tspan
         sodipodi:role="line"
         id="tspan19194"
         x="2133.7549"
         y="2471.5938">j1: -100 uA / cm2</tspan></text>
    <path
       style="fill:none;stroke:#000000;stroke-width:1px;stroke-linecap:butt;stroke-linejoin:miter;stroke-opacity:1"
       d="M 2916.5013,2892.8744 2513.5648,2443.3223"
       id="path21683"
       sodipodi:nodetypes="cc" />
  </g>
  <g
     id="g24435"
     transform="translate(-2.1611404e-4,1.1822891e-4)">
    <text
       xml:space="preserve"
       style="font-size:53.3333px;line-height:1.25;font-family:sans-serif;-inkscape-font-specification:sans-serif;letter-spacing:0px;word-spacing:0px"
       x="2710.0842"
       y="3077.8994"
       id="text23081"><tspan
         sodipodi:role="line"
         id="tspan23079"
         x="2710.0842"
         y="3077.8994">E1: -0.2 V vs. SHE</tspan></text>
    <path
       style="fill:none;stroke:#000000;stroke-width:1px;stroke-linecap:butt;stroke-linejoin:miter;stroke-opacity:1"
       d="m 3049.0043,2893.5129 -350.4144,175.4467"
       id="path24343" />
  </g>
  <g
     id="g24430"
     transform="translate(-2.1611404e-4,1.1822891e-4)">
    <text
       xml:space="preserve"
       style="font-size:53.3333px;line-height:1.25;font-family:sans-serif;-inkscape-font-specification:sans-serif;letter-spacing:0px;word-spacing:0px"
       x="4277.6069"
       y="3107.0767"
       id="text23081-8"><tspan
         sodipodi:role="line"
         id="tspan23079-8"
         x="4277.6069"
         y="3107.0767">E2: 0.8 V vs. SHE</tspan></text>
    <path
       style="fill:none;stroke:#000000;stroke-width:1px;stroke-linecap:butt;stroke-linejoin:miter;stroke-opacity:1"
       d="M 4370.3619,2893.2735 4269.4681,3091.948"
       id="path24345" />
  </g>
  <g
     id="g25998"
     transform="translate(-2.1611404e-4,-1404.2769)">
    <text
       xml:space="preserve"
       style="font-size:53.3333px;line-height:1.25;font-family:sans-serif;-inkscape-font-specification:sans-serif;letter-spacing:0px;word-spacing:0px"
       x="2291.9622"
       y="1971.1135"
       id="text19196-1"><tspan
         sodipodi:role="line"
         id="tspan19194-8"
         x="2291.9622"
         y="1971.1135">j2: 100 uA / cm2</tspan></text>
    <path
       style="fill:none;stroke:#000000;stroke-width:1px;stroke-linecap:butt;stroke-linejoin:miter;stroke-opacity:1"
       d="M 2917.2996,2191.3272 2697.3128,1956.5735"
       id="path25913" />
  </g>
</svg>
