<?xml version="1.0" encoding="UTF-8" standalone="no"?>
<svg
   height="6601px"
   version="1.1"
   width="5100px"
   id="svg40645"
   sodipodi:docname="pajkossy_2001_double_3063_f6a_solid.svg"
   inkscape:version="1.1.2 (b8e25be833, 2022-02-05)"
   xmlns:inkscape="http://www.inkscape.org/namespaces/inkscape"
   xmlns:sodipodi="http://sodipodi.sourceforge.net/DTD/sodipodi-0.dtd"
   xmlns:xlink="http://www.w3.org/1999/xlink"
   xmlns="http://www.w3.org/2000/svg"
   xmlns:svg="http://www.w3.org/2000/svg">
  <sodipodi:namedview
     id="namedview40647"
     pagecolor="#ffffff"
     bordercolor="#666666"
     borderopacity="1.0"
     inkscape:pageshadow="2"
     inkscape:pageopacity="0.0"
     inkscape:pagecheckerboard="0"
     showgrid="false"
     inkscape:zoom="0.20724133"
     inkscape:cx="863.72735"
     inkscape:cy="1867.3882"
     inkscape:window-width="1920"
     inkscape:window-height="1017"
     inkscape:window-x="-8"
     inkscape:window-y="32"
     inkscape:window-maximized="1"
     inkscape:current-layer="g56824" />
  <defs
     id="defs40641" />
  <image
     height="6601px"
     sodipodi:insensitive="true"
     width="5100px"
     x="0"
     xlink:href="Pajkossy_2001_Double_3063_p5.png"
     y="0"
     id="image40643" />
  <g
     id="g46153">
    <path
       style="fill:none;stroke:#000000;stroke-width:1px;stroke-linecap:butt;stroke-linejoin:miter;stroke-opacity:1"
       d="M 1022.138,435.4222 662.1844,515.61665"
       id="path40702" />
    <text
       xml:space="preserve"
       style="font-size:85.3333px;line-height:1.25;font-family:sans-serif"
       x="31.189444"
       y="570.54877"
       id="text42120"><tspan
         sodipodi:role="line"
         id="tspan42118"
         x="31.189444"
         y="570.54877">j2: 75 uA / cm2</tspan></text>
  </g>
  <g
     id="g46158">
    <path
       style="fill:none;stroke:#000000;stroke-width:1px;stroke-linecap:butt;stroke-linejoin:miter;stroke-opacity:1"
       d="M 1020.4387,1511.8862 617.80261,1378.818"
       id="path40704" />
    <text
       xml:space="preserve"
       style="font-size:85.3333px;line-height:1.25;font-family:sans-serif"
       x="-12.992411"
       y="1386.0273"
       id="text43444"><tspan
         sodipodi:role="line"
         id="tspan43442"
         x="-12.992411"
         y="1386.0273">j1: -75 uA / cm2</tspan></text>
  </g>
  <g
     id="g46163">
    <path
       style="fill:none;stroke:#000000;stroke-width:1px;stroke-linecap:butt;stroke-linejoin:miter;stroke-opacity:1"
       d="m 1156.8831,1513.6145 -162.034,242.2499"
       id="path40706" />
    <text
       xml:space="preserve"
       style="font-size:85.3333px;line-height:1.25;font-family:sans-serif"
       x="249.70055"
       y="1809.1188"
       id="text44360"><tspan
         sodipodi:role="line"
         id="tspan44358"
         x="249.70055"
         y="1809.1188">E1: -0.8 V vs SCE</tspan></text>
  </g>
  <g
     id="g46168">
    <path
       style="fill:none;stroke:#000000;stroke-width:1px;stroke-linecap:butt;stroke-linejoin:miter;stroke-opacity:1"
       d="m 2101.9984,1515.3063 145.0411,158.6718"
       id="path40708" />
    <text
       xml:space="preserve"
       style="font-size:85.3333px;line-height:1.25;font-family:sans-serif"
       x="2211.5022"
       y="1737.4589"
       id="text45342"><tspan
         sodipodi:role="line"
         id="tspan45340"
         x="2211.5022"
         y="1737.4589">E2: 0.6 V vs SCE</tspan></text>
  </g>
  <text
     xml:space="preserve"
     style="font-size:85.3333px;line-height:1.25;font-family:sans-serif"
     x="1279.8821"
     y="1450.8698"
     id="text47976"><tspan
       sodipodi:role="line"
       id="tspan47974"
       x="1279.8821"
       y="1450.8698">scan rate: 100 mV / s</tspan></text>
  <g
     id="g56824">
    <text
       xml:space="preserve"
       style="font-size:85.3333px;line-height:1.25;font-family:sans-serif"
       x="969.60773"
       y="386.35214"
       id="text51322"><tspan
         sodipodi:role="line"
         id="tspan51320"
         x="969.60773"
         y="386.35214">curve: solid</tspan></text>
    <path
       style="fill:none;stroke:#000000;stroke-width:1px;stroke-linecap:butt;stroke-linejoin:miter;stroke-opacity:1"
       d="m 1122.8036,1426.574 c 0,0 -1.6333,-78.4566 -1.6994,-117.6909 -0.086,-51.1851 1.0894,-102.3646 1.6994,-153.5461 0.5287,-44.3566 -0.5859,-88.7675 1.6993,-133.0683 1.6178,-31.36278 5.4608,-62.57212 8.4967,-93.82952 2.1546,-22.18414 3.6262,-44.46172 6.8973,-66.5089 3.0612,-20.63233 5.3846,-41.61745 11.8949,-61.4336 3.7317,-11.35851 9.16,-22.194 15.394,-32.3959 4.8584,-7.95079 9.4055,-16.78649 16.9929,-22.1949 5.8619,-4.17842 13.3639,-7.82599 20.4916,-6.81754 10.9297,1.54638 19.0029,11.46759 27.2889,18.76088 10.882,9.57824 19.3828,21.56312 28.9882,32.42116 16.0229,18.1124 29.4649,38.80054 47.7804,54.5908 7.1695,6.18098 14.5892,13.59476 23.8907,15.35211 8.548,1.615 18.3933,-0.23786 25.5895,-5.1258 9.5256,-6.47017 13.0276,-19.01877 18.7923,-28.98714 12.475,-21.57169 23.4808,-43.98447 34.0862,-66.53415 5.5322,-11.76291 8.7943,-24.6308 15.3936,-35.82992 3.2866,-5.57742 6.3612,-11.99314 11.8953,-15.35211 5.4423,-3.30321 12.7991,-5.55651 18.7922,-3.40877 9.1196,3.2682 14.0471,13.72375 18.7922,22.16965 5.2823,9.40204 7.1436,20.3609 10.196,30.70417 5.1554,17.46945 8.4689,35.45039 13.6943,52.89902 7.5821,25.3179 16.3362,50.28756 25.5899,75.04342 4.7318,12.65861 7.5725,26.45578 15.2936,37.54701 5.2911,7.60055 12.1189,14.8034 20.4916,18.76078 7.2726,3.43741 15.8597,3.87478 23.8902,3.40877 11.1454,-0.64677 21.3618,-6.77811 32.3869,-8.53447 9.5586,-1.52274 19.5679,0.53195 28.9882,-1.69184 8.4338,-1.99093 16.5541,-5.63911 23.8903,-10.2515 5.1277,-3.22391 10.1328,-7.04427 13.6946,-11.94334 7.6317,-10.49701 11.6485,-23.34902 15.2936,-35.80468 7.7728,-26.56052 9.0569,-54.60309 13.6946,-81.88621 5.6095,-33.00019 10.6247,-66.11261 17.0929,-98.9553 4.0512,-20.56992 8.1508,-41.16243 13.5947,-61.40835 2.9443,-10.94995 5.1676,-22.30815 10.2956,-32.42121 4.7758,-9.4185 11.8174,-17.56254 18.6922,-25.57836 4.7179,-5.50088 8.9123,-12.11088 15.394,-15.35212 3.583,-1.79174 8.4293,0.29245 11.8949,-1.71698 5.6182,-3.25749 9.127,-9.52565 11.9953,-15.35211 8.0375,-16.32666 13.5947,-52.87377 13.5947,-52.87377 0,0 5.3825,12.27242 6.8969,18.76083 3.6401,15.59566 3.4044,31.84823 5.098,47.77326 2.8418,26.72205 5.4199,53.47319 8.4966,80.16923 2.6238,22.76693 5.687,45.48109 8.4963,68.22588 2.3179,18.76695 3.1487,37.77353 6.8973,56.30779 3.2822,16.22805 6.1077,33.00616 13.5947,47.77327 5.8641,11.56622 14.2951,21.98064 23.8902,30.70417 5.4917,4.99289 11.5785,10.19701 18.7922,11.94335 6.1136,1.48001 13.3619,1.45747 18.7922,-1.71704 7.7506,-4.53088 11.8337,-13.88554 15.2941,-22.1696 4.6856,-11.21704 4.9847,-23.80952 6.7973,-35.82997 3.0713,-20.36789 6.8969,-61.40835 6.8969,-61.40835 0,0 0.7239,65.96132 0,98.93006 -0.8498,38.70278 -0.516,77.58437 -5.0976,116.0244 -2.8117,23.59004 -4.5096,48.03332 -13.6946,69.94294 -5.0606,12.0713 -12.6243,23.4625 -22.1909,32.3959 -8.1957,7.6533 -19.7793,10.6709 -28.9883,17.0691 -9.6248,6.6871 -19.0604,13.8243 -27.2889,22.1696 -9.6665,9.8036 -17.4317,21.3306 -25.5895,32.4212 -7.7598,10.5495 -13.8222,22.3478 -22.1909,32.4211 -5.6563,6.8084 -10.4536,15.793 -18.7927,18.7609 -5.3636,1.9089 -11.4631,-0.3631 -16.9929,-1.717 -11.9164,-2.9175 -22.3958,-10.2442 -34.1862,-13.6351 -12.2065,-3.5105 -25.0185,-9.2762 -37.4845,-6.8427 -7.2847,1.4221 -13.0022,7.2999 -18.7926,11.9433 -9.4135,7.5487 -19.4019,15.2446 -25.5896,25.6036 -12.1769,20.3857 -13.7151,45.4677 -20.4915,68.2259 -4.5679,15.3412 -6.6177,31.6497 -13.5943,46.0562 -5.1604,10.6561 -9.6158,24.3337 -20.492,29.0124 -3.68,1.583 -8.9417,0.99 -11.8949,-1.7169 0,0 -9.0529,-33.8909 -11.9953,-51.1568 -3.5553,-20.8627 -4.4185,-42.0961 -6.7973,-63.1254 -2.7037,-23.9015 -5.4453,-47.8002 -8.4963,-71.6599 -3.2025,-25.0449 -1.783,-51.273 -10.2959,-75.0434 -5.8537,-16.3452 -13.4265,-33.9115 -27.2889,-44.3645 -11.7962,-8.895 -28.2483,-8.7927 -42.6825,-11.9433 -10.6786,-2.3308 -21.469,-4.6116 -32.3869,-5.1258 -9.1042,-0.4288 -18.3712,-0.1657 -27.2889,1.717 -11.2581,2.3768 -23.126,5.1147 -32.3869,11.9433 -9.7941,7.2217 -14.5723,19.4985 -22.1909,28.9872 -8.8438,11.0147 -19.972,20.3382 -27.2889,32.4212 -7.0025,11.5639 -10.1392,25.0658 -15.3939,37.5216 -7.2279,17.133 -15.4825,33.8391 -22.1909,51.1821 -7.5882,19.6176 -12.0491,40.4077 -20.3916,59.7166 -9.1846,21.2581 -20.7906,41.4218 -32.4869,61.4083 -5.8105,9.929 -11.7699,19.824 -18.6922,29.0124 -7.2756,9.6574 -13.9728,20.3788 -23.8903,27.2955 -6.4979,4.5318 -14.4012,7.067 -22.1909,8.5093 -9.5012,1.7592 -19.3372,0.4764 -28.9882,0 -5.7186,-0.2823 -11.7006,-3.6158 -17.0933,-1.6918 -6.8254,2.4351 -11.844,9.0341 -15.3936,15.3521 -9.4536,16.8266 -13.5946,56.2826 -13.5946,56.2826 z"
       id="path56739"
       sodipodi:nodetypes="cssssssssssssssssssssssssssssssssssssssscssssssssssscsssssssssssssssssssssssssssssssssssssssc" />
    <text
       xml:space="preserve"
       style="font-size:80px;line-height:1.25;font-family:sans-serif;-inkscape-font-specification:sans-serif;letter-spacing:0px;word-spacing:0px"
       x="-936.10675"
       y="270.21637"
       id="text3957"><tspan
         sodipodi:role="line"
         id="tspan3955"
         x="-936.10675"
         y="270.21637">Figure: 6a</tspan></text>
    <text
       xml:space="preserve"
       style="font-size:80px;line-height:1.25;font-family:sans-serif;-inkscape-font-specification:sans-serif;letter-spacing:0px;word-spacing:0px"
       x="-921.63086"
       y="463.22806"
       id="text5325"><tspan
         sodipodi:role="line"
         id="tspan5323"
         x="-921.63086"
         y="463.22806">Tags: BCV</tspan></text>
  </g>
</svg>
