<?xml version="1.0" encoding="UTF-8" standalone="no"?>
<svg
   height="6601px"
   version="1.1"
   width="5100px"
   id="svg23539"
   sodipodi:docname="pajkossy_2001_double_3063_f5a_solid.svg"
   inkscape:version="1.1.2 (b8e25be833, 2022-02-05)"
   xmlns:inkscape="http://www.inkscape.org/namespaces/inkscape"
   xmlns:sodipodi="http://sodipodi.sourceforge.net/DTD/sodipodi-0.dtd"
   xmlns:xlink="http://www.w3.org/1999/xlink"
   xmlns="http://www.w3.org/2000/svg"
   xmlns:svg="http://www.w3.org/2000/svg">
  <sodipodi:namedview
     id="namedview23541"
     pagecolor="#ffffff"
     bordercolor="#666666"
     borderopacity="1.0"
     inkscape:pageshadow="2"
     inkscape:pageopacity="0.0"
     inkscape:pagecheckerboard="0"
     showgrid="false"
     inkscape:zoom="0.41448265"
     inkscape:cx="-284.69225"
     inkscape:cy="1148.4196"
     inkscape:window-width="1920"
     inkscape:window-height="1017"
     inkscape:window-x="-8"
     inkscape:window-y="32"
     inkscape:window-maximized="1"
     inkscape:current-layer="g40402" />
  <defs
     id="defs23535" />
  <image
     height="6601px"
     sodipodi:insensitive="true"
     width="5100px"
     x="0"
     xlink:href="Pajkossy_2001_Double_3063_p4.png"
     y="0"
     id="image23537" />
  <g
     id="g32644">
    <path
       style="fill:none;stroke:#000000;stroke-width:1px;stroke-linecap:butt;stroke-linejoin:miter;stroke-opacity:1"
       d="m 1008.4709,580.44094 -496.39813,1.69179"
       id="path23596" />
    <text
       xml:space="preserve"
       style="font-size:85.3333px;line-height:1.25;font-family:sans-serif"
       x="-159.91154"
       y="587.68927"
       id="text25806"><tspan
         sodipodi:role="line"
         id="tspan25804"
         x="-159.91154"
         y="587.68927">j2: 50 uA / cm2</tspan></text>
  </g>
  <g
     id="g32639">
    <path
       style="fill:none;stroke:#000000;stroke-width:1px;stroke-linecap:butt;stroke-linejoin:miter;stroke-opacity:1"
       d="M 1008.4709,1515.3022 471.08924,1385.6427"
       id="path23598" />
    <text
       xml:space="preserve"
       style="font-size:85.3333px;line-height:1.25;font-family:sans-serif"
       x="-252.0746"
       y="1409.9348"
       id="text26962"><tspan
         sodipodi:role="line"
         id="tspan26960"
         x="-252.0746"
         y="1409.9348">j1: -100 uA / cm2</tspan></text>
  </g>
  <g
     id="g32634">
    <path
       style="fill:none;stroke:#000000;stroke-width:1px;stroke-linecap:butt;stroke-linejoin:miter;stroke-opacity:1"
       d="M 1136.4187,1517.0189 733.7826,1788.256"
       id="path23600" />
    <text
       xml:space="preserve"
       style="font-size:85.3333px;line-height:1.25;font-family:sans-serif"
       x="14.017012"
       y="1829.5923"
       id="text28184"><tspan
         sodipodi:role="line"
         id="tspan28182"
         x="14.017012"
         y="1829.5923">E1: -0.8 V vs SCE</tspan></text>
  </g>
  <g
     id="g32629">
    <path
       style="fill:none;stroke:#000000;stroke-width:1px;stroke-linecap:butt;stroke-linejoin:miter;stroke-opacity:1"
       d="m 2037.1521,1518.7359 172.33,189.3508"
       id="path23602" />
    <text
       xml:space="preserve"
       style="font-size:85.3333px;line-height:1.25;font-family:sans-serif"
       x="2209.4822"
       y="1708.0867"
       id="text29838"><tspan
         sodipodi:role="line"
         id="tspan29836"
         x="2209.4822"
         y="1708.0867">E2: 0.6 V vs SCE </tspan></text>
  </g>
  <text
     xml:space="preserve"
     style="font-size:85.3333px;line-height:1.25;font-family:sans-serif"
     x="1194.5381"
     y="1409.8844"
     id="text33958"><tspan
       sodipodi:role="line"
       id="tspan33956"
       x="1194.5381"
       y="1409.8844">scan rate: 100 mV / s </tspan></text>
  <g
     id="g40402">
    <text
       xml:space="preserve"
       style="font-size:85.3333px;line-height:1.25;font-family:sans-serif"
       x="995.30847"
       y="368.86951"
       id="text39542"><tspan
         sodipodi:role="line"
         id="tspan39540"
         x="995.30847"
         y="368.86951">curve: solid</tspan></text>
    <path
       style="fill:none;stroke:#000000;stroke-width:1px;stroke-linecap:butt;stroke-linejoin:miter;stroke-opacity:1"
       d="m 1103.9261,1465.9464 c 0,0 0,-75.5961 0,-113.3942 0,-38.6015 -0.6604,-77.2087 0,-115.8046 0.6126,-35.8022 2.4876,-71.5717 3.6752,-107.3594 1.2408,-37.3921 2.1947,-74.794 3.6049,-112.1801 1.3957,-37.00299 2.9471,-74.0013 4.8064,-110.9839 1.7594,-34.99609 2.564,-70.07842 6.0081,-104.94904 1.9955,-20.20373 5.2972,-40.26191 8.4816,-60.31266 2.882,-18.14673 5.3575,-36.40321 9.6129,-54.2778 2.9176,-12.25503 5.1294,-24.98529 10.8849,-36.19117 3.0146,-5.86932 6.5195,-12.13435 12.0865,-15.67629 3.1161,-1.98256 7.1222,-2.49481 10.8145,-2.41036 4.5884,0.10494 9.3402,1.266 13.2881,3.60662 11.9921,7.10977 19.9845,19.50531 28.9797,30.15633 8.7139,10.31788 16.163,21.64163 24.1024,32.56669 8.1319,11.18994 15.6172,22.85652 24.1026,33.7808 10.3293,13.29817 21.0176,26.36459 32.5845,38.60153 6.8376,7.23367 13.7369,14.54141 21.6991,20.51486 10.8121,8.11149 22.4441,15.46195 34.9878,20.49703 8.0684,3.23867 16.6836,5.80192 25.3746,6.03482 8.977,0.24057 18.6858,-0.40584 26.5058,-4.82073 7.9402,-4.48273 13.1377,-12.86173 18.0946,-20.51485 7.9222,-12.23122 12.1801,-26.47926 18.0945,-39.7978 5.3365,-12.01718 10.038,-24.31975 15.6914,-36.19115 4.872,-10.23062 9.4404,-20.70496 15.6913,-30.15633 4.8867,-7.38861 9.2553,-16.0279 16.8932,-20.51487 3.8615,-2.26846 8.9165,-3.65856 13.2175,-2.41037 6.8352,1.9836 11.3079,8.87288 15.6913,14.48004 8.7534,11.19716 15.2514,24.17858 20.4978,37.38742 4.143,10.43081 5.0929,21.88496 8.4819,32.58453 5.1861,16.37322 12.4819,32.01107 18.0946,48.24298 3.0319,8.76832 4.7342,18.0138 8.411,26.53186 3.2826,7.60473 6.0353,16.05548 12.0868,21.71113 5.5183,5.15732 12.9907,8.82349 20.4974,9.65931 7.364,0.81992 14.6789,-2.45166 21.6994,-4.82073 10.9161,-3.68362 22.5069,-7.13537 31.383,-14.48004 13.3294,-11.02962 21.556,-27.22817 30.181,-42.22598 11.2104,-19.49355 18.3171,-41.07625 27.7075,-61.50891 11.8684,-25.82469 24.9415,-51.10199 36.1891,-77.20306 11.2906,-26.20095 20.6544,-53.19321 31.3826,-79.62942 3.9314,-9.68758 6.7647,-19.94332 12.0868,-28.94222 3.9273,-6.64053 7.4692,-14.75492 14.4191,-18.10451 5.7942,-2.79259 13.893,3.48959 19.2961,0 7.4101,-4.78582 7.8681,-15.83216 10.8849,-24.12149 3.5712,-9.81252 8.482,-30.15633 8.482,-30.15633 0,0 6.9986,22.26302 8.4109,33.7808 1.8109,14.76818 -0.7036,29.77422 0,44.63637 0.802,16.94132 3.741,33.72654 4.8065,50.65333 0.8087,12.84798 0.1753,25.76909 1.2016,38.60153 1.2606,15.76228 3.9111,31.38341 6.0787,47.04674 1.5042,10.86957 1.3387,22.1559 4.8065,32.56668 3.4697,10.4166 7.4385,21.71877 15.6913,28.96007 4.2107,3.69462 10.2204,4.81321 15.6913,6.017 5.9039,1.29905 12.1498,2.3107 18.0946,1.21409 5.6636,-1.04473 11.3432,-3.45473 15.6913,-7.23109 6.1417,-5.3341 9.9811,-13.05167 13.2175,-20.51485 4.619,-10.6514 6.4249,-22.3547 8.4819,-33.78081 3.8703,-21.49812 5.5346,-43.35397 7.2097,-65.13338 2.1297,-27.69019 3.6045,-83.2379 3.6045,-83.2379 0,0 -0.7207,90.07101 -1.2013,135.10534 -0.3433,32.1686 0.065,64.35833 -1.2016,96.50382 -0.476,12.08092 -1.1502,24.16598 -2.4032,36.19117 -0.884,8.48433 -2.8102,16.84245 -3.6049,25.33562 -0.8248,8.81451 -0.3979,17.71539 -1.2016,26.53185 -1.0684,11.71998 -2.7148,23.39582 -4.8064,34.97704 -1.3193,7.30502 -3.6042,14.41573 -4.8771,21.72898 -1.1117,6.38725 -0.6716,13.05301 -2.403,19.30081 -1.0568,3.81359 -3.3176,7.18893 -4.8064,10.8555 -3.0634,7.5442 -4.0957,16.04741 -8.482,22.90741 -3.0582,4.78289 -7.5994,8.50269 -12.0158,12.06971 -5.2071,4.20562 -10.8555,7.96574 -16.8929,10.8555 -6.877,3.29163 -14.7382,4.12153 -21.6994,7.23113 -8.8917,3.972 -18.1888,7.9074 -25.3749,14.48 -8.3128,7.6031 -13.3009,18.2084 -19.2962,27.746 -5.6546,8.9956 -7.9954,20.42 -15.6913,27.7459 -3.2464,3.0903 -7.5472,6.3818 -12.0158,6.0349 -6.8998,-0.5356 -11.6113,-7.5977 -16.893,-12.0696 -10.4193,-8.8218 -18.363,-20.3591 -28.9797,-28.9423 -6.3316,-5.1188 -13.4717,-9.1697 -20.4978,-13.2838 -7.444,-4.3588 -14.686,-9.4204 -22.901,-12.0518 -8.5146,-2.7274 -17.6737,-2.7981 -26.5762,-3.6245 -8.0096,-0.7436 -16.0755,-0.6742 -24.1026,-1.1962 -10.0717,-0.6549 -20.378,-4.8291 -30.1813,-2.4283 -3.6747,0.8999 -6.9333,3.3637 -9.6126,6.0349 -6.402,6.3827 -10.6147,14.7577 -14.4897,22.9252 -5.4517,11.4911 -8.1265,24.1048 -12.0868,36.1912 -4.076,12.4395 -7.8325,24.9836 -12.0159,37.3874 -4.6336,13.7384 -9.3031,27.4726 -14.4897,41.0119 -2.6471,6.9101 -2.5224,16.1285 -8.4819,20.5149 -3.5628,2.6223 -9.2931,3.2381 -13.2175,1.1962 -5.7525,-2.9931 -7.6089,-10.7287 -9.6835,-16.8725 -4.9315,-14.604 -3.8164,-30.5929 -6.0078,-45.8505 -2.6034,-18.1262 -5.2785,-36.248 -8.4819,-54.2778 -3.2272,-18.1637 -7.4836,-36.1327 -10.8143,-54.2778 -2.2085,-12.0317 -1.5848,-24.81383 -6.0787,-36.1912 -2.6608,-6.73657 -6.9813,-12.89726 -12.0158,-18.10449 -4.808,-4.97298 -10.4766,-9.46818 -16.8932,-12.05182 -12.8343,-5.16778 -27.3568,-4.16834 -41.066,-6.03485 -9.623,-1.31017 -19.1975,-3.55604 -28.909,-3.6245 -7.2774,-0.0513 -14.6626,0.55359 -21.6994,2.41037 -5.9248,1.56335 -12.1829,3.32953 -16.893,7.24898 -7.8023,6.49261 -11.6531,16.6423 -16.8929,25.33558 -5.6651,9.39877 -9.9191,19.6089 -15.6913,28.94226 -5.1632,8.3486 -11.6,15.85457 -16.893,24.12147 -6.0261,9.4118 -12.0136,18.9059 -16.8929,28.9601 -6.2258,12.8289 -10.557,26.4944 -15.6916,39.7977 -4.4899,11.6329 -8.6588,23.3889 -13.2175,34.995 -4.2864,10.9128 -8.4484,21.8877 -13.2881,32.5666 -5.5675,12.2848 -10.2065,25.2508 -18.0945,36.1912 -9.3115,12.9147 -22.7542,22.2831 -33.7862,33.763 -4.9348,5.1352 -9.1021,11.0441 -14.4897,15.7021 -6.998,6.0503 -14.2506,12.3979 -22.901,15.6763 -6.0613,2.2972 -12.8547,3.134 -19.2962,2.4103 -4.6824,-0.526 -8.6099,-5.3827 -13.2881,-4.8207 -5.76,0.6919 -11.0471,4.9719 -14.4897,9.6415 -6.7198,9.115 -6.507,21.6944 -9.6129,32.5845 -4.5747,16.0403 -10.2517,31.8418 -13.2881,48.243 -3.7511,20.2622 -4.2228,40.9978 -6.008,61.5268 -1.8514,21.2907 -4.8769,63.9273 -4.8769,63.9273 z"
       id="path40317"
       sodipodi:nodetypes="cssssssssssssssssssssssssssssssssssssssssssscssssssssssssscsssssssssssssssssssssssssssssssssssssssssssssssssssssssssssc" />
    <text
       xml:space="preserve"
       style="font-size:80px;line-height:1.25;font-family:sans-serif;-inkscape-font-specification:sans-serif;letter-spacing:0px;word-spacing:0px"
       x="-1232.8622"
       y="424.62573"
       id="text3615"><tspan
         sodipodi:role="line"
         id="tspan3613"
         x="-1232.8622"
         y="424.62573">Figure: 5a</tspan></text>
    <text
       xml:space="preserve"
       style="font-size:80px;line-height:1.25;font-family:sans-serif;-inkscape-font-specification:sans-serif;letter-spacing:0px;word-spacing:0px"
       x="-1215.9738"
       y="579.0351"
       id="text5377"><tspan
         sodipodi:role="line"
         id="tspan5375"
         x="-1215.9738"
         y="579.0351">Tags: BCV</tspan></text>
  </g>
</svg>
