<?xml version="1.0" encoding="UTF-8" standalone="no"?>
<svg
   height="6601px"
   version="1.1"
   width="5100px"
   id="svg53"
   sodipodi:docname="pajkossy_2001_double_3063_f2_inset.svg"
   inkscape:version="1.1.2 (b8e25be833, 2022-02-05)"
   xmlns:inkscape="http://www.inkscape.org/namespaces/inkscape"
   xmlns:sodipodi="http://sodipodi.sourceforge.net/DTD/sodipodi-0.dtd"
   xmlns:xlink="http://www.w3.org/1999/xlink"
   xmlns="http://www.w3.org/2000/svg"
   xmlns:svg="http://www.w3.org/2000/svg">
  <sodipodi:namedview
     id="namedview55"
     pagecolor="#ffffff"
     bordercolor="#666666"
     borderopacity="1.0"
     inkscape:pageshadow="2"
     inkscape:pageopacity="0.0"
     inkscape:pagecheckerboard="0"
     showgrid="false"
     inkscape:zoom="0.29222653"
     inkscape:cx="1324.3151"
     inkscape:cy="745.99661"
     inkscape:window-width="1920"
     inkscape:window-height="1017"
     inkscape:window-x="-8"
     inkscape:window-y="32"
     inkscape:window-maximized="1"
     inkscape:current-layer="g23435" />
  <defs
     id="defs49" />
  <image
     height="6601px"
     sodipodi:insensitive="true"
     width="5100px"
     x="0"
     xlink:href="Pajkossy_2001_Double_3063_p2.png"
     y="0"
     id="image51" />
  <g
     id="g23265">
    <path
       style="fill:none;stroke:#000000;stroke-width:1px;stroke-linecap:butt;stroke-linejoin:miter;stroke-opacity:1"
       d="M 1089.0403,518.10215 688.58708,635.46401"
       id="path170" />
    <text
       xml:space="preserve"
       style="font-size:85.3333px;line-height:1.25;font-family:sans-serif"
       x="7.2826171"
       y="664.6521"
       id="text2328"><tspan
         sodipodi:role="line"
         id="tspan2326"
         x="7.2826171"
         y="664.6521">j2: 10 uA / cm2</tspan></text>
  </g>
  <g
     id="g23270">
    <path
       style="fill:none;stroke:#000000;stroke-width:1px;stroke-linecap:butt;stroke-linejoin:miter;stroke-opacity:1"
       d="M 1090.2455,1034.6984 657.11239,1008.0888"
       id="path172" />
    <text
       xml:space="preserve"
       style="font-size:85.3333px;line-height:1.25;font-family:sans-serif"
       x="-95.376633"
       y="999.99487"
       id="text4774"><tspan
         sodipodi:role="line"
         id="tspan4772"
         x="-95.376633"
         y="999.99487">j1: -15 uA / cm2</tspan></text>
  </g>
  <g
     id="g23275">
    <path
       style="fill:none;stroke:#000000;stroke-width:1px;stroke-linecap:butt;stroke-linejoin:miter;stroke-opacity:1"
       d="M 1144.6883,1037.1159 615.99662,1172.6175"
       id="path174" />
    <text
       xml:space="preserve"
       style="font-size:85.3333px;line-height:1.25;font-family:sans-serif"
       x="-50.863861"
       y="1198.4858"
       id="text5966"><tspan
         sodipodi:role="line"
         id="tspan5964"
         x="-50.863861"
         y="1198.4858">E1: 0.1 V vs RHE</tspan></text>
  </g>
  <g
     id="g23280">
    <path
       style="fill:none;stroke:#000000;stroke-width:1px;stroke-linecap:butt;stroke-linejoin:miter;stroke-opacity:1"
       d="m 1657.6424,1035.9161 313.4012,90.7343"
       id="path176" />
    <text
       xml:space="preserve"
       style="font-size:85.3333px;line-height:1.25;font-family:sans-serif"
       x="1971.0436"
       y="1126.6504"
       id="text9270"><tspan
         sodipodi:role="line"
         id="tspan9268"
         x="1971.0436"
         y="1126.6504">E2: 1 V vs RHE</tspan></text>
  </g>
  <text
     xml:space="preserve"
     style="font-size:85.3333px;line-height:1.25;font-family:sans-serif"
     x="2273.0854"
     y="1459.351"
     id="text21134"><tspan
       sodipodi:role="line"
       id="tspan21132"
       x="2273.0854"
       y="1459.351">scan rate: 10 mV / s </tspan></text>
  <g
     id="g23435">
    <text
       xml:space="preserve"
       style="font-size:85.3333px;line-height:1.25;font-family:sans-serif"
       x="773.81293"
       y="373.77841"
       id="text13420"><tspan
         sodipodi:role="line"
         id="tspan13418"
         x="773.81293"
         y="373.77841">curve: inset</tspan></text>
    <path
       style="fill:none;stroke:#000000;stroke-width:1px;stroke-linecap:butt;stroke-linejoin:miter;stroke-opacity:1"
       d="m 1151.1311,723.84519 c -0.017,-10.69406 0.355,-21.38556 0.426,-32.0794 0.054,-8.12678 0,-16.25392 0,-24.38088 0,-7.69855 -0.535,-15.41571 0,-23.09565 0.3601,-5.16989 0.6215,-10.44692 2.1555,-15.39711 1.0376,-3.34836 2.5113,-6.66544 4.6867,-9.41426 1.3824,-1.74684 3.1985,-3.17777 5.1381,-4.27346 3.0265,-1.70973 6.4373,-2.76292 9.8497,-3.4251 5.7478,-1.11535 11.6897,-0.77922 17.5442,-0.85469 6.2669,-0.0808 12.5797,-0.35759 18.7974,0.43051 4.3575,0.55232 8.6199,1.7501 12.8323,2.99459 3.6357,1.07413 7.2682,2.24272 10.702,3.84927 4.3412,2.03106 8.8296,4.07765 12.4062,7.26805 4.2575,3.79776 6.9976,9.01834 10.2758,13.68771 3.1347,4.46498 5.9124,9.17133 8.9726,13.68772 3.9059,5.76456 7.9832,11.41111 11.9802,17.11284 4.6992,6.70336 8.5179,14.12274 14.1105,20.10108 3.8788,4.14629 8.3172,7.8965 13.2584,10.69313 3.9648,2.244 8.45,3.45866 12.8323,4.70397 5.4636,1.55261 11.0944,2.4617 16.6921,3.42509 6.1017,1.05013 12.2435,1.87416 18.3963,2.56407 6.6825,0.7493 13.377,1.81234 20.1006,1.70938 6.1725,-0.0945 12.2601,-1.45925 18.3964,-2.13355 4.1244,-0.45321 8.4155,-0.0646 12.3811,-1.28521 4.0261,-1.23918 7.5168,-3.82036 11.128,-5.98916 6.1714,-3.70635 12.4856,-7.3155 17.9702,-11.97834 6.3808,-5.42476 11.8415,-11.88791 17.1182,-18.3917 4.8352,-5.95958 8.318,-12.94959 13.2584,-18.82222 2.3357,-2.77636 4.9031,-5.38079 7.6944,-7.69854 2.5237,-2.09549 5.1082,-4.25986 8.1204,-5.55866 3.0853,-1.33032 6.6293,-1.18241 9.8498,-2.1399 3.0679,-0.91211 6.0685,-2.07326 8.9726,-3.41877 2.9515,-1.36748 6.0092,-2.67486 8.5466,-4.71029 3.706,-2.97284 6.6682,-6.82275 9.4236,-10.69313 2.184,-3.06779 4.1377,-6.34694 5.5641,-9.83213 1.454,-3.55282 1.993,-7.41451 2.9825,-11.12365 1.2927,-4.84584 2.6978,-9.66357 3.8598,-14.54241 1.1144,-4.67906 2.0802,-9.39367 2.9824,-14.11823 1.275,-6.67677 2.7063,-13.3427 3.4337,-20.10108 0.6721,-6.24443 0.4105,-12.55726 0.8521,-18.82221 0.5236,-7.42916 2.1304,-22.24096 2.1304,-22.24096 0,0 1.4268,21.95674 2.1554,32.93411 0.7004,10.5524 1.4871,21.09921 2.1304,31.65524 0.634,10.40443 0.392,20.88392 1.7042,31.22472 0.8237,6.49115 2.6158,12.82252 3.8598,19.24639 1.3236,6.83522 2.3014,13.74031 3.8346,20.53158 1.5921,7.05183 2.4463,14.4396 5.564,20.96209 1.9812,4.14484 4.5982,8.1982 8.1455,11.11733 3.8905,3.20157 8.7849,5.24498 13.6845,6.41968 4.2999,1.03091 8.8381,0.53736 13.2584,0.42417 3.4277,-0.0878 6.9179,-0.0497 10.2509,-0.85469 2.5471,-0.61522 5.0646,-4.41234 7.2683,-2.99459 0,0 1.3292,15.97856 0.8772,23.95668 -0.3262,5.7575 -0.7814,11.62795 -2.5816,17.10649 -0.9562,2.91013 -2.2346,5.85393 -4.2857,8.12909 -2.751,3.05154 -6.8455,4.54527 -10.2509,6.84385 -5.8682,3.96097 -12.1935,7.33569 -17.5441,11.97202 -5.2624,4.55989 -9.915,9.84613 -14.1105,15.40342 -2.6218,3.47284 -5.2287,7.07616 -6.8423,11.11734 -2.0547,5.14597 -2.4074,10.81938 -3.4337,16.26452 -0.9636,5.11261 -1.7362,10.25953 -2.5563,15.39711 -0.8868,5.55535 -1.8481,11.1014 -2.5565,16.6823 -0.9022,7.10785 -1.7958,14.23044 -2.1555,21.38629 -0.3006,5.97951 0.088,11.97476 0,17.96118 -0.142,9.70017 -0.1244,19.41727 -0.8521,29.09115 -0.4417,5.87205 -1.4079,11.69284 -2.1303,17.53701 -0.8462,6.84565 -2.1505,13.64731 -2.5816,20.53157 -0.5435,8.67975 0,26.09027 0,26.09027 0,0 -1.9895,-21.10339 -2.9825,-31.65525 -0.711,-7.55497 -1.4291,-15.10928 -2.1303,-22.66516 -0.7277,-7.8412 -1.1841,-15.7114 -2.1555,-23.52616 -0.6767,-5.44407 -1.3376,-10.90929 -2.5565,-16.25812 -0.9925,-4.3553 -2.3552,-8.62701 -3.8596,-12.83303 -1.8725,-5.23537 -3.2672,-10.81465 -6.4162,-15.39712 -2.3402,-3.40549 -5.562,-6.22056 -8.9726,-8.55325 -4.1581,-2.84389 -9.186,-4.14606 -13.6845,-6.41334 -5.3593,-2.70112 -10.6974,-5.46538 -15.8398,-8.55958 -4.4047,-2.65031 -8.9237,-5.21447 -12.8324,-8.55324 -3.8327,-3.27388 -6.8529,-7.39405 -10.2508,-11.11732 -4.016,-4.40062 -7.9176,-8.90577 -11.9801,-13.26355 -3.5085,-3.76358 -6.8174,-7.74963 -10.702,-11.12365 -4.7776,-4.14964 -10.023,-7.76249 -15.3887,-11.11732 -3.8415,-2.40188 -7.5187,-5.63158 -11.9802,-6.41967 -3.9726,-0.70173 -7.9716,1.26237 -11.9802,1.71571 -3.4153,0.38625 -6.843,1.02739 -10.2758,0.85469 -3.9037,-0.1964 -7.6754,-1.48644 -11.5291,-2.1399 -3.7,-0.6274 -7.378,-1.56334 -11.128,-1.70938 -5.7176,-0.22267 -11.4297,0.6606 -17.1182,1.27888 -7.0139,0.76234 -14.1284,1.2043 -20.9527,2.99457 -5.3242,1.39674 -10.5858,3.30024 -15.3887,5.98918 -3.9089,2.18841 -7.4139,5.08661 -10.702,8.12907 -3.782,3.49943 -7.1372,7.46147 -10.2758,11.54782 -4.5773,5.95938 -8.0311,12.71294 -12.4063,18.8222 -3.7833,5.2828 -8.0204,10.22609 -11.9551,15.39711 -5.0611,6.65127 -10.2235,13.23405 -14.9878,20.10108 -2.9981,4.32134 -5.1826,9.22037 -8.5464,13.26355 -2.1283,2.5582 -4.2918,5.35582 -7.2684,6.84385 -2.9806,1.49006 -6.6724,0.70519 -9.8498,1.70938 -2.5538,0.8071 -4.8946,2.18452 -7.2683,3.42511 -3.7943,1.98308 -7.0541,5.09705 -11.128,6.41334 -5.3143,1.71707 -11.1297,0.98216 -16.667,1.70938 -3.5821,0.47045 -7.1434,1.09164 -10.7019,1.71573 -2.9989,0.52594 -6.3222,0.21097 -8.9726,1.70938 -3.1628,1.78812 -4.5624,5.69813 -7.2684,8.12274 -1.8276,1.63759 -3.7825,5.35163 -5.99,4.27977 0,0 -2.4978,-104.36667 -2.5815,-156.56054 z"
       id="path23350"
       sodipodi:nodetypes="sssssssssssssssssssssssssssssssssssssssscsssssssssssssssssssssssssscssssssssssssssssssssssssssssssssssssss" />
  </g>
      <text
       xml:space="preserve"
       style="font-size:80px;line-height:1.25;font-family:sans-serif;-inkscape-font-specification:sans-serif;letter-spacing:0px;word-spacing:0px"
       x="-766.52863"
       y="133.45811"
       id="text3795"><tspan
         sodipodi:role="line"
         id="tspan3793"
         x="-766.52863"
         y="133.45811">Figure: 2</tspan></text>
    <text
       xml:space="preserve"
       style="font-size:80px;line-height:1.25;font-family:sans-serif;-inkscape-font-specification:sans-serif;letter-spacing:0px;word-spacing:0px"
       x="-769.95062"
       y="270.33823"
       id="text4591"><tspan
         sodipodi:role="line"
         id="tspan4589"
         x="-769.95062"
         y="270.33823">Tags: BCV</tspan></text>
</svg>
