<?xml version="1.0" encoding="UTF-8" standalone="no"?>
<svg
   xmlns:dc="http://purl.org/dc/elements/1.1/"
   xmlns:cc="http://creativecommons.org/ns#"
   xmlns:rdf="http://www.w3.org/1999/02/22-rdf-syntax-ns#"
   xmlns:svg="http://www.w3.org/2000/svg"
   xmlns="http://www.w3.org/2000/svg"
   xmlns:xlink="http://www.w3.org/1999/xlink"
   xmlns:sodipodi="http://sodipodi.sourceforge.net/DTD/sodipodi-0.dtd"
   xmlns:inkscape="http://www.inkscape.org/namespaces/inkscape"
   height="6497px"
   version="1.1"
   width="4961px"
   id="svg6"
   sodipodi:docname="schnaidt_2017_a_4141_f2_solid.svg"
   inkscape:version="0.92.2 (5c3e80d, 2017-08-06)">
  <metadata
     id="metadata10">
    <rdf:RDF>
      <cc:Work
         rdf:about="">
        <dc:format>image/svg+xml</dc:format>
        <dc:type
           rdf:resource="http://purl.org/dc/dcmitype/StillImage" />
      </cc:Work>
    </rdf:RDF>
  </metadata>
  <sodipodi:namedview
     pagecolor="#ffffff"
     bordercolor="#666666"
     borderopacity="1"
     objecttolerance="10"
     gridtolerance="10"
     guidetolerance="10"
     inkscape:pageopacity="0"
     inkscape:pageshadow="2"
     inkscape:window-width="1920"
     inkscape:window-height="1027"
     id="namedview8"
     showgrid="false"
     inkscape:zoom="0.41096432"
     inkscape:cx="3614.6741"
     inkscape:cy="1631.8496"
     inkscape:window-x="-8"
     inkscape:window-y="22"
     inkscape:window-maximized="1"
     inkscape:current-layer="svg6" />
  <defs
     id="defs2">
    <inkscape:path-effect
       effect="bspline"
       id="path-effect831"
       is_visible="true"
       weight="33.333333"
       steps="2"
       helper_size="0"
       apply_no_weight="true"
       apply_with_weight="true"
       only_selected="false" />
    <inkscape:path-effect
       effect="bspline"
       id="path-effect827"
       is_visible="true"
       weight="33.333333"
       steps="2"
       helper_size="0"
       apply_no_weight="true"
       apply_with_weight="true"
       only_selected="false" />
    <inkscape:path-effect
       effect="bspline"
       id="path-effect823"
       is_visible="true"
       weight="33.333333"
       steps="2"
       helper_size="0"
       apply_no_weight="true"
       apply_with_weight="true"
       only_selected="false" />
    <inkscape:path-effect
       effect="bspline"
       id="path-effect819"
       is_visible="true"
       weight="33.333333"
       steps="2"
       helper_size="0"
       apply_no_weight="true"
       apply_with_weight="true"
       only_selected="false" />
  </defs>
  <image
     sodipodi:absref="E:\Github\echemdb\website\literature\schnaidt_2017_a_4147\schnaidt_2017_a_4141_p5.png"
     xlink:href="schnaidt_2017_a_4141_p5.png"
     id="image4"
     y="0"
     x="0"
     width="4961px"
     sodipodi:insensitive="true"
     height="6497px" />
  <g
     id="g852">
    <path
       sodipodi:nodetypes="cc"
       inkscape:original-d="M 3066.9763,4607.3468 C 2934.204,4529.2017 2801.4309,4451.0577 2668.6566,4372.9145"
       inkscape:path-effect="#path-effect831"
       inkscape:connector-curvature="0"
       id="path829"
       d="m 3066.9763,4607.3468 c -132.773,-78.1439 -265.5461,-156.288 -398.3197,-234.4323"
       style="fill:none;stroke:#000000;stroke-width:1px;stroke-linecap:butt;stroke-linejoin:miter;stroke-opacity:1" />
    <text
       id="text835"
       y="4387.5396"
       x="2057.8423"
       style="font-style:normal;font-weight:normal;font-size:80px;line-height:1.25;font-family:sans-serif;letter-spacing:0px;word-spacing:0px;fill:#000000;fill-opacity:1;stroke:none"
       xml:space="preserve"><tspan
         y="4387.5396"
         x="2057.8423"
         id="tspan833"
         sodipodi:role="line">j2: 40 uA / cm2</tspan></text>
  </g>
  <g
     id="g857">
    <path
       sodipodi:nodetypes="cc"
       inkscape:original-d="m 3065.6859,5311.0738 c -75.5623,-69.2553 -151.1254,-138.5096 -226.6896,-207.7629"
       inkscape:path-effect="#path-effect827"
       inkscape:connector-curvature="0"
       id="path825"
       d="m 3065.6859,5311.0738 c -75.5632,-69.2543 -151.1264,-138.5086 -226.6896,-207.7629"
       style="fill:none;stroke:#000000;stroke-width:1px;stroke-linecap:butt;stroke-linejoin:miter;stroke-opacity:1" />
    <text
       id="text839"
       y="5120.5166"
       x="2198.9316"
       style="font-style:normal;font-weight:normal;font-size:80px;line-height:1.25;font-family:sans-serif;letter-spacing:0px;word-spacing:0px;fill:#000000;fill-opacity:1;stroke:none"
       xml:space="preserve"><tspan
         y="5120.5166"
         x="2198.9316"
         id="tspan837"
         sodipodi:role="line">j1: -60 uA / cm2</tspan></text>
  </g>
  <g
     id="g862">
    <path
       sodipodi:nodetypes="cc"
       inkscape:original-d="m 3066.9331,5383.1699 c -54.1836,66.1553 -108.3683,132.3116 -162.5539,198.4689"
       inkscape:path-effect="#path-effect823"
       inkscape:connector-curvature="0"
       id="path821"
       d="m 3066.9331,5383.1699 c -54.1837,66.1552 -108.3684,132.3115 -162.5539,198.4689"
       style="fill:none;stroke:#000000;stroke-width:1px;stroke-linecap:butt;stroke-linejoin:miter;stroke-opacity:1" />
    <text
       id="text843"
       y="5612.6094"
       x="2918.144"
       style="font-style:normal;font-weight:normal;font-size:80px;line-height:1.25;font-family:sans-serif;letter-spacing:0px;word-spacing:0px;fill:#000000;fill-opacity:1;stroke:none"
       xml:space="preserve"><tspan
         y="5612.6094"
         x="2918.144"
         id="tspan841"
         sodipodi:role="line">E1: 0 V vs. RHE</tspan></text>
  </g>
  <g
     id="g867">
    <path
       sodipodi:nodetypes="cc"
       inkscape:original-d="m 4270.2345,5382.9999 c 84.9855,55.8884 169.97,111.7777 254.9535,167.668"
       inkscape:path-effect="#path-effect819"
       inkscape:connector-curvature="0"
       id="path817"
       d="m 4270.2345,5382.9999 c 84.9848,55.8895 169.9693,111.7788 254.9535,167.668"
       style="fill:none;stroke:#000000;stroke-width:1px;stroke-linecap:butt;stroke-linejoin:miter;stroke-opacity:1" />
    <text
       id="text847"
       y="5581.6387"
       x="4524.7578"
       style="font-style:normal;font-weight:normal;font-size:80px;line-height:1.25;font-family:sans-serif;letter-spacing:0px;word-spacing:0px;fill:#000000;fill-opacity:1;stroke:none"
       xml:space="preserve"><tspan
         y="5581.6387"
         x="4524.7578"
         id="tspan845"
         sodipodi:role="line">E2: 1.0 V vs. RHE</tspan></text>
  </g>
  <text
     xml:space="preserve"
     style="font-style:normal;font-weight:normal;font-size:80px;line-height:1.25;font-family:sans-serif;letter-spacing:0px;word-spacing:0px;fill:#000000;fill-opacity:1;stroke:none"
     x="5041.8003"
     y="4557.6587"
     id="text871"><tspan
       sodipodi:role="line"
       id="tspan869"
       x="5041.8003"
       y="4557.6587">Figure: 2</tspan></text>
  <text
     xml:space="preserve"
     style="font-style:normal;font-weight:normal;font-size:80px;line-height:1.25;font-family:sans-serif;letter-spacing:0px;word-spacing:0px;fill:#000000;fill-opacity:1;stroke:none"
     x="5071"
     y="4689.0571"
     id="text875"><tspan
       sodipodi:role="line"
       id="tspan873"
       x="5071"
       y="4689.0571">Tags: BCV</tspan></text>
  <text
     xml:space="preserve"
     style="font-style:normal;font-weight:normal;font-size:80px;line-height:1.25;font-family:sans-serif;letter-spacing:0px;word-spacing:0px;fill:#00ff00;fill-opacity:1;stroke:none;"
     x="5083.1665"
     y="4805.8555"
     id="text879"><tspan
       sodipodi:role="line"
       id="tspan877"
       x="5083.1665"
       y="4805.8555">Scan rate: 50 mV / s</tspan></text>
  <g
     id="g890">
    <path
       sodipodi:nodetypes="sssszzzzzssszzzzzzzzssszzzzzzzssszssszzzzss"
       inkscape:connector-curvature="0"
       id="path881"
       d="m 3131.3545,4685.1031 c 0.073,-19.4198 -0.454,-74.5485 -0.454,-74.5485 3.1999,25.3772 7.0577,132.4397 8.0008,152.9571 0.826,17.9713 0.079,-41.7461 4.0115,-91.1835 0.5906,-7.4262 43.6445,2.6912 70.8699,5.1708 27.2254,2.4796 71.3841,-2.2655 101.2861,2.7375 29.902,5.003 53.7057,21.8593 64.1783,21.5955 10.4725,-0.2639 33.2761,35.937 45.3202,48.3619 12.0442,12.4248 18.434,20.1658 34.3704,19.4664 15.9365,-0.6994 27.2902,-47.0001 35.2829,-47.1453 8.4149,-0.1528 4.9344,-8.4731 16.6527,-5.6656 17.357,4.1585 36.1019,4.2245 46.9173,7.4907 22.6519,6.8406 33.6132,21.8774 38.6286,21.8996 5.0155,0.022 8.1808,-31.8344 12.7749,-32.2412 4.5941,-0.4068 12.4724,48.742 29.5038,79.5386 17.0314,30.7966 25.3771,47.3263 69.6532,59.1596 44.2761,11.8333 94.2772,12.4151 128.0525,6.3874 33.7753,-6.0277 56.5157,-26.3299 66.464,-26.8185 9.9483,-0.4886 11.8465,23.9384 39.9929,27.4268 28.1464,3.4884 151.9923,-5.6684 151.6881,-0.8017 -0.3042,4.8666 -1.5793,27.8208 -4.4734,31.8263 -1.447,2.0027 -25.1296,9.6092 -51.7793,14.6988 -26.6497,5.0895 -56.2664,7.662 -79.3148,11.7633 -46.0968,8.2026 -59.0075,2.7375 -75.7365,17.0331 -16.7289,14.2957 -11.3678,22.8618 -18.858,21.5957 -7.4903,-1.2662 -17.4701,-24.6089 -42.887,-27.0706 -25.4169,-2.4617 -101.5903,0.9125 -133.5274,18.554 -31.9371,17.6414 -41.6277,31.1898 -57.4867,61.745 -15.859,30.5552 -24.5634,110.3935 -28.8955,110.7151 -4.3321,0.3216 -4.3241,-86.8096 -6.9957,-86.6863 -2.6716,0.1233 4.1399,25.6208 -16.729,27.0705 -17.7673,1.2342 -11.4224,11.0845 -35.8808,10.855 -15.7098,-0.1474 -35.0725,6.3967 -45.6347,-0.2093 -19.0797,-11.9331 -25.6383,-51.3905 -38.9329,-49.2743 -13.2945,2.1161 -26.0687,14.352 -47.1451,32.5454 -10.5383,9.0967 -23.4523,32.2953 -28.0019,36.2039 -5.1112,4.3911 -12.0038,2.3203 -24.9568,7.2238 -26.2694,9.9446 -37.31,14.3031 -69.9231,15.5798 -32.6131,1.2767 -55.0821,3.0313 -73.3032,10.0374 -18.2211,7.0061 -22.7896,18.72 -32.2413,20.0747 -9.4517,1.3547 -9.3096,-14.5868 -24.0288,0.6083 -14.7192,15.1952 -31.6329,128.3567 -31.6329,128.3567 3.0404,-176.7578 4.5613,-424.7796 5.1707,-587.0339 z"
       style="fill:none;stroke:#00ff00;stroke-width:1px;stroke-linecap:butt;stroke-linejoin:miter;stroke-opacity:1" />
    <text
       id="text885"
       y="4640.3911"
       x="3635.3521"
       style="font-style:normal;font-weight:normal;font-size:80px;line-height:1.25;font-family:sans-serif;letter-spacing:0px;word-spacing:0px;fill:#000000;fill-opacity:1;stroke:none"
       xml:space="preserve"><tspan
         y="4640.3911"
         x="3635.3521"
         id="tspan883"
         sodipodi:role="line">curve: solid</tspan></text>
  </g>
</svg>
