<?xml version="1.0" encoding="UTF-8" standalone="no"?>
<svg
   height="6600px"
   version="1.1"
   width="5100px"
   id="svg6"
   sodipodi:docname="kibler_in-situ_2000_73_p4_f4a.svg"
   inkscape:version="1.2.2 (b0a8486541, 2022-12-01)"
   xmlns:inkscape="http://www.inkscape.org/namespaces/inkscape"
   xmlns:sodipodi="http://sodipodi.sourceforge.net/DTD/sodipodi-0.dtd"
   xmlns:xlink="http://www.w3.org/1999/xlink"
   xmlns="http://www.w3.org/2000/svg"
   xmlns:svg="http://www.w3.org/2000/svg">
  <sodipodi:namedview
     id="namedview8"
     pagecolor="#ffffff"
     bordercolor="#666666"
     borderopacity="1.0"
     inkscape:showpageshadow="2"
     inkscape:pageopacity="0.0"
     inkscape:pagecheckerboard="0"
     inkscape:deskcolor="#d1d1d1"
     showgrid="false"
     inkscape:zoom="0.31121212"
     inkscape:cx="1171.2269"
     inkscape:cy="4376.4362"
     inkscape:window-width="2560"
     inkscape:window-height="1371"
     inkscape:window-x="0"
     inkscape:window-y="32"
     inkscape:window-maximized="1"
     inkscape:current-layer="svg6" />
  <defs
     id="defs2" />
  <image
     height="6600px"
     sodipodi:insensitive="true"
     width="5100px"
     x="0"
     xlink:href="kibler_in-situ_2000_73_p4_f4a.png"
     y="0"
     id="image4" />
  <g
     id="g1266">
    <path
       style="fill:#ff6600;stroke:#ff6600;stroke-width:1.6;stroke-linecap:butt;stroke-linejoin:miter;stroke-dasharray:none;stroke-opacity:1"
       d="m 1285.3894,3423.4024 -148.9178,-19.5196"
       id="path237" />
    <text
       xml:space="preserve"
       style="font-style:normal;font-variant:normal;font-weight:normal;font-stretch:normal;font-size:64px;line-height:1.25;font-family:sans-serif;-inkscape-font-specification:'sans-serif, Normal';font-variant-ligatures:normal;font-variant-caps:normal;font-variant-numeric:normal;font-variant-east-asian:normal;fill:#ff9955;fill-opacity:1;stroke:#000000;stroke-width:1;stroke-dasharray:none;stroke-opacity:1"
       x="539.08282"
       y="3421.3494"
       id="text297"><tspan
         sodipodi:role="line"
         id="tspan295"
         x="539.08282"
         y="3421.3494">j2: 175 µA cm⁻²</tspan></text>
  </g>
  <g
     id="g1271">
    <path
       style="fill:none;stroke:#ff6600;stroke-width:1px;stroke-linecap:butt;stroke-linejoin:miter;stroke-opacity:1"
       d="m 1078.6326,4638.8499 204.6114,-48.6977"
       id="path239"
       sodipodi:nodetypes="cc" />
    <text
       xml:space="preserve"
       style="font-style:normal;font-variant:normal;font-weight:normal;font-stretch:normal;font-size:64px;line-height:1.25;font-family:sans-serif;-inkscape-font-specification:'sans-serif, Normal';font-variant-ligatures:normal;font-variant-caps:normal;font-variant-numeric:normal;font-variant-east-asian:normal;fill:#ff9955;fill-opacity:1;stroke:#000000;stroke-width:1;stroke-dasharray:none;stroke-opacity:1"
       x="526.01947"
       y="4673.5459"
       id="text297-6"><tspan
         sodipodi:role="line"
         id="tspan295-0"
         x="526.01947"
         y="4673.5459">j1: -175 µA cm⁻²</tspan></text>
  </g>
  <g
     id="g1281">
    <path
       style="fill:none;stroke:#ff7f2a;stroke-width:1px;stroke-linecap:butt;stroke-linejoin:miter;stroke-opacity:1"
       d="m 2439.762,4591.5236 89.8943,212.5836"
       id="path241" />
    <text
       xml:space="preserve"
       style="font-style:normal;font-variant:normal;font-weight:normal;font-stretch:normal;font-size:64px;line-height:1.25;font-family:sans-serif;-inkscape-font-specification:'sans-serif, Normal';font-variant-ligatures:normal;font-variant-caps:normal;font-variant-numeric:normal;font-variant-east-asian:normal;fill:#ff9955;fill-opacity:1;stroke:#000000;stroke-width:1;stroke-dasharray:none;stroke-opacity:1"
       x="2124.5789"
       y="4924.2285"
       id="text297-62-1"><tspan
         sodipodi:role="line"
         id="tspan295-6-8"
         x="2124.5789"
         y="4924.2285">E2: 0.6 V vs. SCE</tspan></text>
  </g>
  <g
     id="g1276">
    <text
       xml:space="preserve"
       style="font-style:normal;font-variant:normal;font-weight:normal;font-stretch:normal;font-size:64px;line-height:1.25;font-family:sans-serif;-inkscape-font-specification:'sans-serif, Normal';font-variant-ligatures:normal;font-variant-caps:normal;font-variant-numeric:normal;font-variant-east-asian:normal;fill:#ff9955;fill-opacity:1;stroke:#000000;stroke-width:1;stroke-dasharray:none;stroke-opacity:1"
       x="849.07135"
       y="4877.2803"
       id="text297-62"><tspan
         sodipodi:role="line"
         id="tspan295-6"
         x="849.07135"
         y="4877.2803">E1: -0.4 V vs. SCE</tspan></text>
    <path
       style="fill:none;stroke:#ff6600;stroke-width:1px;stroke-linecap:butt;stroke-linejoin:miter;stroke-opacity:1"
       d="m 1283.244,4590.1522 -78.5089,188.4012"
       id="path1207" />
  </g>
  <g
     id="g1602">
    <text
       xml:space="preserve"
       style="font-style:normal;font-variant:normal;font-weight:normal;font-stretch:normal;font-size:64px;line-height:1.25;font-family:sans-serif;-inkscape-font-specification:'sans-serif, Normal';font-variant-ligatures:normal;font-variant-caps:normal;font-variant-numeric:normal;font-variant-east-asian:normal;fill:#ff9955;fill-opacity:1;stroke:#000000;stroke-width:1;stroke-dasharray:none;stroke-opacity:1"
       x="1858.1215"
       y="3757.8704"
       id="text297-7"><tspan
         sodipodi:role="line"
         id="tspan295-9"
         x="1858.1215"
         y="3757.8704">curve: black</tspan></text>
    <path
       style="fill:none;stroke:#ff7f2a;stroke-width:1px;stroke-linecap:butt;stroke-linejoin:miter;stroke-opacity:1"
       d="m 1460.8788,4193.1798 c -2.1902,10.5041 2.8626,-200.8865 4.0632,-214.6561 1.2005,-13.7695 7.0639,-48.5146 17.7635,-51.3173 10.6996,-2.8027 30.8104,4.4979 41.7407,5.4563 6.3093,0.5533 22.2412,0.7041 40.5318,3.4999 13.57,2.0742 29.5263,5.9274 37.7803,6.2839 7.8995,0.3412 26.8822,1.5325 51.5118,-16.6825 24.6296,-18.2151 36.9637,-26.0098 45.1218,-64.0302 8.1582,-38.0205 11.7895,-68.8493 16.5199,-121.175 2.1334,-23.5985 2.51,-67.6101 5.0554,-107.9626 1.2433,-19.7109 1.9064,-38.119 2.8132,-53.7226 1.9409,-33.3998 5.3164,-36.3011 5.3164,-36.3011 0,0 3.1432,-1.9513 5.6116,38.6579 2.4684,40.6092 8.0033,111.8317 11.77,146.726 3.7667,34.8943 5.5644,49.8156 8.1028,62.3148 2.5384,12.4992 10.5168,38.8721 19.1623,45.121 8.6456,6.2488 12.4506,-2.5295 24.248,-6.1806 10.1881,-3.1531 19.8415,-3.8522 31.7488,1.9184 5.7384,2.7811 12.7426,-4.6798 20.5981,6.5122 4.4539,6.3457 5.1573,11.0525 8.6726,22.3853 9.3468,30.1326 22.4701,111.2272 79.8156,119.6104 33.1404,4.8447 71.455,8.1787 117.2753,7.1217 33.466,-0.772 106.5365,-6.7819 128.5941,-6.9859 52.2582,-0.4833 27.5943,-1.3714 50.7632,-1.2068 23.1689,0.1645 44.5676,-0.033 55.7113,-0.3386 11.1437,-0.3053 35.482,-5.716 35.482,-5.716 0,0 -0.8408,13.5075 -0.7275,26.315 0.1132,12.8075 -3.0177,28.9493 -16.8604,27.8333 -13.8427,-1.116 -54.1879,-1.313 -80.2059,0.5667 -26.018,1.8797 -54.8556,5.4948 -84.0006,1.1087 -29.145,-4.3861 -107.5059,-5.281 -161.2582,-1.9023 -23.3723,1.4691 -39.666,2.6065 -57.8932,7.0896 -5.7101,1.4044 -34.7019,4.5607 -58.1084,51.8407 -5.5808,11.2728 -10.9463,25.6463 -18.0603,40.2999 -6.3796,13.1408 -24.1534,33.8679 -28.0803,38.3921 -9.0617,10.44 -9.3449,12.7368 -20.9393,21.6489 -11.5945,8.9122 -14.7086,12.82 -30.1223,6.6073 -15.4136,-6.2126 -21.3348,35.0275 -26.8841,75.8938 -5.5493,40.8663 -13.1258,160.1314 -17.1472,197.1657 -4.0214,37.0343 -2.5122,41.7487 -6.853,41.9356 -1.4347,0.062 -4.2442,-6.8651 -5.7003,-56.4243 -1.456,-49.5591 -4.8719,-124.1745 -6.7485,-153.8443 -1.8766,-29.6698 -5.3275,-87.7625 -10.7798,-120.9878 -5.4523,-33.2253 -14.2687,-52.3065 -32.541,-70.7031 -18.2723,-18.3965 -44.6111,-37.9505 -70.1165,-32.5867 -25.5055,5.3637 -28.5077,7.7249 -56.0109,12.0634 -27.5032,4.3385 -46.5318,20.4836 -58.323,50.0775 -11.7912,29.5939 -16.2233,47.7737 -18.4135,58.2778 z"
       id="path1242"
       sodipodi:nodetypes="zzzssszzsssczzzzssssssszzczzzzssssszzzzszzzzzzzzz" />
  </g>
  <text
     xml:space="preserve"
     style="font-style:normal;font-variant:normal;font-weight:normal;font-stretch:normal;font-size:64px;line-height:1.25;font-family:sans-serif;-inkscape-font-specification:'sans-serif, Normal';font-variant-ligatures:normal;font-variant-caps:normal;font-variant-numeric:normal;font-variant-east-asian:normal;fill:#ff9955;fill-opacity:1;stroke:#000000;stroke-width:1;stroke-dasharray:none;stroke-opacity:1"
     x="1772.4989"
     y="3240.3152"
     id="text297-7-0"><tspan
       sodipodi:role="line"
       id="tspan295-9-2"
       x="1772.4989"
       y="3240.3152">figure: 4a</tspan></text>
  <text
     xml:space="preserve"
     style="font-style:normal;font-variant:normal;font-weight:normal;font-stretch:normal;font-size:64px;line-height:1.25;font-family:sans-serif;-inkscape-font-specification:'sans-serif, Normal';font-variant-ligatures:normal;font-variant-caps:normal;font-variant-numeric:normal;font-variant-east-asian:normal;fill:#ff9955;fill-opacity:1;stroke:#000000;stroke-width:1;stroke-dasharray:none;stroke-opacity:1"
     x="1485.0413"
     y="3343.3623"
     id="text297-7-0-3"><tspan
       sodipodi:role="line"
       id="tspan295-9-2-6"
       x="1485.0413"
       y="3343.3623">scan rate: 50 mV s⁻¹</tspan></text>
</svg>
