<?xml version="1.0" encoding="UTF-8" standalone="no"?>
<svg
   height="6600px"
   version="1.1"
   width="5100px"
   id="svg2051"
   sodipodi:docname="kibler_2000_in-situ_73_f8a_black.svg"
   inkscape:version="1.2 (dc2aedaf03, 2022-05-15)"
   xmlns:inkscape="http://www.inkscape.org/namespaces/inkscape"
   xmlns:sodipodi="http://sodipodi.sourceforge.net/DTD/sodipodi-0.dtd"
   xmlns:xlink="http://www.w3.org/1999/xlink"
   xmlns="http://www.w3.org/2000/svg"
   xmlns:svg="http://www.w3.org/2000/svg">
  <sodipodi:namedview
     id="namedview2053"
     pagecolor="#ffffff"
     bordercolor="#666666"
     borderopacity="1.0"
     inkscape:showpageshadow="2"
     inkscape:pageopacity="0.0"
     inkscape:pagecheckerboard="0"
     inkscape:deskcolor="#d1d1d1"
     showgrid="false"
     inkscape:zoom="0.62242424"
     inkscape:cx="1761.6602"
     inkscape:cy="3005.185"
     inkscape:window-width="3456"
     inkscape:window-height="2036"
     inkscape:window-x="-12"
     inkscape:window-y="-12"
     inkscape:window-maximized="1"
     inkscape:current-layer="svg2051" />
  <defs
     id="defs2047" />
  <image
     height="6600px"
     sodipodi:insensitive="true"
     width="5100px"
     x="0"
     xlink:href="kibler_2000_in-situ_73.png"
     y="0"
     id="image2049" />
  <g
     id="g1266"
     transform="translate(7.1717353,-883.29176)">
    <path
       style="fill:#ff6600;stroke:#ff6600;stroke-width:1.6;stroke-linecap:butt;stroke-linejoin:miter;stroke-dasharray:none;stroke-opacity:1"
       d="m 1278.1942,3423.5265 -141.7226,-19.6437"
       id="path237"
       sodipodi:nodetypes="cc" />
    <text
       xml:space="preserve"
       style="font-style:normal;font-variant:normal;font-weight:normal;font-stretch:normal;font-size:64px;line-height:1.25;font-family:sans-serif;-inkscape-font-specification:'sans-serif, Normal';font-variant-ligatures:normal;font-variant-caps:normal;font-variant-numeric:normal;font-variant-east-asian:normal;fill:#ff9955;fill-opacity:1;stroke:#000000;stroke-width:1;stroke-dasharray:none;stroke-opacity:1"
       x="539.08282"
       y="3421.3494"
       id="text297"><tspan
         sodipodi:role="line"
         id="tspan295"
         x="539.08282"
         y="3421.3494">j2: 175 µA cm⁻²</tspan></text>
  </g>
  <g
     id="g1271"
     transform="translate(7.1717353,-883.29176)">
    <path
       style="fill:none;stroke:#ff6600;stroke-width:1px;stroke-linecap:butt;stroke-linejoin:miter;stroke-opacity:1"
       d="m 1078.6326,4638.8499 202.2264,-46.5912"
       id="path239"
       sodipodi:nodetypes="cc" />
    <text
       xml:space="preserve"
       style="font-style:normal;font-variant:normal;font-weight:normal;font-stretch:normal;font-size:64px;line-height:1.25;font-family:sans-serif;-inkscape-font-specification:'sans-serif, Normal';font-variant-ligatures:normal;font-variant-caps:normal;font-variant-numeric:normal;font-variant-east-asian:normal;fill:#ff9955;fill-opacity:1;stroke:#000000;stroke-width:1;stroke-dasharray:none;stroke-opacity:1"
       x="526.01947"
       y="4673.5459"
       id="text297-6"><tspan
         sodipodi:role="line"
         id="tspan295-0"
         x="526.01947"
         y="4673.5459">j1: -175 µA cm⁻²</tspan></text>
  </g>
  <g
     id="g1281"
     transform="translate(7.1717353,-883.29176)">
    <path
       style="fill:none;stroke:#ff7f2a;stroke-width:1px;stroke-linecap:butt;stroke-linejoin:miter;stroke-opacity:1"
       d="m 2435.5672,4588.7004 94.0891,215.4068"
       id="path241"
       sodipodi:nodetypes="cc" />
    <text
       xml:space="preserve"
       style="font-style:normal;font-variant:normal;font-weight:normal;font-stretch:normal;font-size:64px;line-height:1.25;font-family:sans-serif;-inkscape-font-specification:'sans-serif, Normal';font-variant-ligatures:normal;font-variant-caps:normal;font-variant-numeric:normal;font-variant-east-asian:normal;fill:#ff9955;fill-opacity:1;stroke:#000000;stroke-width:1;stroke-dasharray:none;stroke-opacity:1"
       x="2124.5789"
       y="4924.2285"
       id="text297-62-1"><tspan
         sodipodi:role="line"
         id="tspan295-6-8"
         x="2124.5789"
         y="4924.2285">E2: 0.6 V vs. SCE</tspan></text>
  </g>
  <g
     id="g1276"
     transform="translate(7.1717353,-883.29176)">
    <text
       xml:space="preserve"
       style="font-style:normal;font-variant:normal;font-weight:normal;font-stretch:normal;font-size:64px;line-height:1.25;font-family:sans-serif;-inkscape-font-specification:'sans-serif, Normal';font-variant-ligatures:normal;font-variant-caps:normal;font-variant-numeric:normal;font-variant-east-asian:normal;fill:#ff9955;fill-opacity:1;stroke:#000000;stroke-width:1;stroke-dasharray:none;stroke-opacity:1"
       x="849.07135"
       y="4877.2803"
       id="text297-62"><tspan
         sodipodi:role="line"
         id="tspan295-6"
         x="849.07135"
         y="4877.2803">E1: -0.4 V vs. SCE</tspan></text>
    <path
       style="fill:none;stroke:#ff6600;stroke-width:1px;stroke-linecap:butt;stroke-linejoin:miter;stroke-opacity:1"
       d="m 1280.859,4592.2587 -76.1239,186.2947"
       id="path1207"
       sodipodi:nodetypes="cc" />
  </g>
  <text
     xml:space="preserve"
     style="font-style:normal;font-variant:normal;font-weight:normal;font-stretch:normal;font-size:64px;line-height:1.25;font-family:sans-serif;-inkscape-font-specification:'sans-serif, Normal';font-variant-ligatures:normal;font-variant-caps:normal;font-variant-numeric:normal;font-variant-east-asian:normal;fill:#ff9955;fill-opacity:1;stroke:#000000;stroke-width:1;stroke-dasharray:none;stroke-opacity:1"
     x="1585.4615"
     y="2451.4785"
     id="text297-7-0"><tspan
       sodipodi:role="line"
       id="tspan295-9-2"
       x="1585.4615"
       y="2451.4785">figure: 8a</tspan></text>
  <text
     xml:space="preserve"
     style="font-style:normal;font-variant:normal;font-weight:normal;font-stretch:normal;font-size:64px;line-height:1.25;font-family:sans-serif;-inkscape-font-specification:'sans-serif, Normal';font-variant-ligatures:normal;font-variant-caps:normal;font-variant-numeric:normal;font-variant-east-asian:normal;fill:#ff9955;fill-opacity:1;stroke:#000000;stroke-width:1;stroke-dasharray:none;stroke-opacity:1"
     x="1586.606"
     y="2328.1807"
     id="text297-7-0-7"><tspan
       sodipodi:role="line"
       id="tspan295-9-2-5"
       x="1586.606"
       y="2328.1807">tags: BCV</tspan></text>
  <g
     id="g706">
    <text
       xml:space="preserve"
       style="font-style:normal;font-variant:normal;font-weight:normal;font-stretch:normal;font-size:64px;line-height:1.25;font-family:sans-serif;-inkscape-font-specification:'sans-serif, Normal';font-variant-ligatures:normal;font-variant-caps:normal;font-variant-numeric:normal;font-variant-east-asian:normal;fill:#ff9955;fill-opacity:1;stroke:#000000;stroke-width:1;stroke-dasharray:none;stroke-opacity:1"
       x="1905.2933"
       y="2874.5784"
       id="text297-7"><tspan
         sodipodi:role="line"
         id="tspan295-9"
         x="1905.2933"
         y="2874.5784">curve: black</tspan></text>
    <path
       style="fill:none;stroke:#ff7f2a;stroke-width:1px;stroke-linecap:butt;stroke-linejoin:miter;stroke-opacity:1"
       d="m 1456.4476,3258.3349 c 1.9664,-49.969 -0.4608,-93.0056 5.085,-162.869 1.136,-14.311 2.8904,-38.3719 14.4709,-38.9814 11.7736,-0.6197 25.809,6.4918 45.1375,11.4516 32.26,8.2782 49.0252,11.679 67.6762,11.6722 27.2203,-0.01 52.0485,-15.0936 59.5132,-19.265 8.7576,-4.8939 24.4886,-14.1953 37.9211,-34.7427 5.1855,-7.9321 12.2642,-30.4445 14.2895,-36.1475 1.0986,-3.0933 6.8354,-25.558 8.7243,-39.3754 1.6061,-11.7494 6.6739,-47.8301 7.328,-63.2688 0.7529,-17.7682 3.8813,-30.4805 6.9427,-31.0089 3.864,-0.6669 7.0906,10.1226 8.7499,17.3358 1.5062,6.5473 1.2901,15.7827 4.0297,29.8189 2.5617,13.1249 7.736,28.8001 8.5001,30.7872 10.7122,27.8593 21.7882,28.1856 35.249,12.7775 10.0369,-11.4889 17.4011,-22.7677 33.8464,-34.6171 12.3358,-8.8882 14.5998,-48.8146 17.6693,-54.253 5.0602,-8.9654 4.606,-49.8882 12.5723,-50.3233 4.9247,-0.2689 7.0848,27.8398 7.8798,36.6464 4.9884,55.2562 7.4432,60.1448 12.0542,111.4298 3.7394,41.5908 10.6557,74.5513 20.5759,94.3009 8.0532,16.0326 21.1059,42.1129 54.7052,48.9197 33.7373,6.8348 75.126,6.8766 116.6349,2.5084 46.0817,-4.8494 56.507,-7.6341 73.4943,-11.1399 42.341,-8.7385 99.4619,-4.8539 114.727,-1.509 43.1993,9.4657 76.7584,-1.9829 76.7476,-1.3221 -0.1,6.094 1.3456,24.5343 -2.1465,37.4003 -1.5383,5.6675 -7.575,9.5492 -12.2939,10.079 -35.4766,3.9829 -69.3152,2.7451 -105.8689,11.462 -34.4504,8.2154 -82.7135,1.5276 -102.784,-0.9613 -28.7188,-3.5614 -61.462,-2.3771 -87.9773,-2.0509 -23.6494,0.291 -55.083,5.4355 -69.4144,7.7107 -25.6346,4.0696 -47.5332,14.9443 -60.4157,42.6163 -15.1375,32.5159 -17.0543,50.0601 -21.4244,75.9638 -1.9669,11.6588 -5.2234,31.032 -6.5074,41.9529 -4.4119,37.5232 -5.0896,41.9028 -5.6323,45.4228 -3.4861,22.6112 -7.6024,31.0542 -10.2561,30.9854 -2.5196,-0.065 -5.9062,-12.2067 -6.9239,-18.1894 -2.9081,-17.0943 -5.908,-23.3962 -8.5889,-30.9815 -3.7072,-10.4894 -8.2337,-11.5193 -13.2593,-15.6163 -11.326,-9.2331 -7.2363,-0.2386 -20.0955,-11.8389 -10.2094,-9.21 -15.9022,-13.271 -23.1185,-12.9608 -13.6545,0.587 -19.8755,20.6194 -22.201,25.8165 -1.3261,2.9639 -10.5953,46.3329 -16.9699,72.6727 -2.548,10.5286 -5.6426,17.7823 -7.4102,17.5366 -1.9525,-0.2714 -4.5762,-6.052 -6.0499,-15.6551 -3.0416,-19.8203 -12.3844,-88.5774 -13.6294,-98.525 -0.8533,-6.8179 -8.1497,-36.4155 -18.4818,-55.2515 -10.2932,-18.7651 -19.7745,-24.4248 -21.1603,-25.5072 -3.9536,-3.0879 -13.4816,-10.9216 -32.1629,-20.5522 -20.0458,-10.3341 -36.271,-15.6578 -46.7326,-14.3352 -23.6057,2.9844 -16.3633,2.2384 -41.0741,8.4619 -30.0921,7.5787 -41.0703,10.5414 -58.9214,27.1305 -18.6655,17.346 -23.3622,46.9975 -23.0235,38.3886 z"
       id="path1663"
       sodipodi:nodetypes="ssssssssssssssssssssssssssssssssssssssssssssssssssssss" />
  </g>
  <g
     id="g466"
     transform="translate(453.6355,-831.13282)">
    <text
       xml:space="preserve"
       style="font-style:normal;font-variant:normal;font-weight:normal;font-stretch:normal;font-size:64px;line-height:1.25;font-family:sans-serif;-inkscape-font-specification:'sans-serif, Normal';font-variant-ligatures:normal;font-variant-caps:normal;font-variant-numeric:normal;font-variant-east-asian:normal;fill:#ff9955;fill-opacity:1;stroke:#000000;stroke-width:1;stroke-dasharray:none;stroke-opacity:1"
       x="1485.0413"
       y="3343.3623"
       id="text297-7-0-3"><tspan
         sodipodi:role="line"
         id="tspan295-9-2-6"
         x="1485.0413"
         y="3343.3623">scan rate: 50 mV s⁻¹</tspan></text>
  </g>
</svg>
