<?xml version="1.0" encoding="UTF-8" standalone="no"?>
<svg
   height="6600px"
   version="1.1"
   width="5100px"
   id="svg1754"
   sodipodi:docname="kibler_in-situ_2000_73_p6_f7a.svg"
   inkscape:version="1.2.2 (b0a8486541, 2022-12-01)"
   xmlns:inkscape="http://www.inkscape.org/namespaces/inkscape"
   xmlns:sodipodi="http://sodipodi.sourceforge.net/DTD/sodipodi-0.dtd"
   xmlns:xlink="http://www.w3.org/1999/xlink"
   xmlns="http://www.w3.org/2000/svg"
   xmlns:svg="http://www.w3.org/2000/svg">
  <sodipodi:namedview
     id="namedview1756"
     pagecolor="#ffffff"
     bordercolor="#666666"
     borderopacity="1.0"
     inkscape:showpageshadow="2"
     inkscape:pageopacity="0.0"
     inkscape:pagecheckerboard="0"
     inkscape:deskcolor="#d1d1d1"
     showgrid="false"
     inkscape:zoom="0.4401204"
     inkscape:cx="553.2577"
     inkscape:cy="1226.937"
     inkscape:window-width="2560"
     inkscape:window-height="1371"
     inkscape:window-x="0"
     inkscape:window-y="32"
     inkscape:window-maximized="1"
     inkscape:current-layer="svg1754" />
  <defs
     id="defs1750" />
  <image
     height="6600px"
     sodipodi:insensitive="true"
     width="5100px"
     x="0"
     xlink:href="kibler_in-situ_2000_73_p6.png"
     y="0"
     id="image1752" />
  <g
     id="g1266"
     transform="translate(-0.80482115,-2840.5488)">
    <path
       style="fill:#ff6600;stroke:#ff6600;stroke-width:1.6;stroke-linecap:butt;stroke-linejoin:miter;stroke-dasharray:none;stroke-opacity:1"
       d="m 1277.1489,3422.8667 -140.6773,-18.9839"
       id="path237"
       sodipodi:nodetypes="cc" />
    <text
       xml:space="preserve"
       style="font-style:normal;font-variant:normal;font-weight:normal;font-stretch:normal;font-size:64px;line-height:1.25;font-family:sans-serif;-inkscape-font-specification:'sans-serif, Normal';font-variant-ligatures:normal;font-variant-caps:normal;font-variant-numeric:normal;font-variant-east-asian:normal;fill:#ff9955;fill-opacity:1;stroke:#000000;stroke-width:1;stroke-dasharray:none;stroke-opacity:1"
       x="539.08282"
       y="3421.3494"
       id="text297"><tspan
         sodipodi:role="line"
         id="tspan295"
         x="539.08282"
         y="3421.3494">j2: 175 µA cm⁻²</tspan></text>
  </g>
  <g
     id="g1271"
     transform="translate(-0.80482115,-2840.5488)">
    <path
       style="fill:none;stroke:#ff6600;stroke-width:1px;stroke-linecap:butt;stroke-linejoin:miter;stroke-opacity:1"
       d="m 1078.6326,4638.8499 202.2264,-46.5912"
       id="path239"
       sodipodi:nodetypes="cc" />
    <text
       xml:space="preserve"
       style="font-style:normal;font-variant:normal;font-weight:normal;font-stretch:normal;font-size:64px;line-height:1.25;font-family:sans-serif;-inkscape-font-specification:'sans-serif, Normal';font-variant-ligatures:normal;font-variant-caps:normal;font-variant-numeric:normal;font-variant-east-asian:normal;fill:#ff9955;fill-opacity:1;stroke:#000000;stroke-width:1;stroke-dasharray:none;stroke-opacity:1"
       x="526.01947"
       y="4673.5459"
       id="text297-6"><tspan
         sodipodi:role="line"
         id="tspan295-0"
         x="526.01947"
         y="4673.5459">j1: -175 µA cm⁻²</tspan></text>
  </g>
  <g
     id="g1281"
     transform="translate(-0.80482115,-2840.5488)">
    <path
       style="fill:none;stroke:#ff7f2a;stroke-width:1px;stroke-linecap:butt;stroke-linejoin:miter;stroke-opacity:1"
       d="m 2439.9622,4587.6605 89.6941,216.4467"
       id="path241"
       sodipodi:nodetypes="cc" />
    <text
       xml:space="preserve"
       style="font-style:normal;font-variant:normal;font-weight:normal;font-stretch:normal;font-size:64px;line-height:1.25;font-family:sans-serif;-inkscape-font-specification:'sans-serif, Normal';font-variant-ligatures:normal;font-variant-caps:normal;font-variant-numeric:normal;font-variant-east-asian:normal;fill:#ff9955;fill-opacity:1;stroke:#000000;stroke-width:1;stroke-dasharray:none;stroke-opacity:1"
       x="2124.5789"
       y="4924.2285"
       id="text297-62-1"><tspan
         sodipodi:role="line"
         id="tspan295-6-8"
         x="2124.5789"
         y="4924.2285">E2: 0.6 V vs. SCE</tspan></text>
  </g>
  <g
     id="g1276"
     transform="translate(-0.80482115,-2840.5488)">
    <text
       xml:space="preserve"
       style="font-style:normal;font-variant:normal;font-weight:normal;font-stretch:normal;font-size:64px;line-height:1.25;font-family:sans-serif;-inkscape-font-specification:'sans-serif, Normal';font-variant-ligatures:normal;font-variant-caps:normal;font-variant-numeric:normal;font-variant-east-asian:normal;fill:#ff9955;fill-opacity:1;stroke:#000000;stroke-width:1;stroke-dasharray:none;stroke-opacity:1"
       x="849.07135"
       y="4877.2803"
       id="text297-62"><tspan
         sodipodi:role="line"
         id="tspan295-6"
         x="849.07135"
         y="4877.2803">E1: -0.4 V vs. SCE</tspan></text>
    <path
       style="fill:none;stroke:#ff6600;stroke-width:1px;stroke-linecap:butt;stroke-linejoin:miter;stroke-opacity:1"
       d="m 1280.859,4592.2587 -76.1239,186.2947"
       id="path1207"
       sodipodi:nodetypes="cc" />
  </g>
  <text
     xml:space="preserve"
     style="font-style:normal;font-variant:normal;font-weight:normal;font-stretch:normal;font-size:64px;line-height:1.25;font-family:sans-serif;-inkscape-font-specification:'sans-serif, Normal';font-variant-ligatures:normal;font-variant-caps:normal;font-variant-numeric:normal;font-variant-east-asian:normal;fill:#ff9955;fill-opacity:1;stroke:#000000;stroke-width:1;stroke-dasharray:none;stroke-opacity:1"
     x="1577.485"
     y="494.22168"
     id="text297-7-0"><tspan
       sodipodi:role="line"
       id="tspan295-9-2"
       x="1577.485"
       y="494.22168">figure: 7a</tspan></text>
  <g
     id="g740">
    <text
       xml:space="preserve"
       style="font-style:normal;font-variant:normal;font-weight:normal;font-stretch:normal;font-size:64px;line-height:1.25;font-family:sans-serif;-inkscape-font-specification:'sans-serif, Normal';font-variant-ligatures:normal;font-variant-caps:normal;font-variant-numeric:normal;font-variant-east-asian:normal;fill:#ff9955;fill-opacity:1;stroke:#000000;stroke-width:1;stroke-dasharray:none;stroke-opacity:1"
       x="1897.3168"
       y="917.32135"
       id="text297-7"><tspan
         sodipodi:role="line"
         id="tspan295-9"
         x="1897.3168"
         y="917.32135">curve: black</tspan></text>
    <path
       style="fill:none;stroke:#ff7f2a;stroke-width:1px;stroke-linecap:butt;stroke-linejoin:miter;stroke-opacity:1"
       d="m 1449.7715,1323.8575 c 0.72,-48.4953 -0.4725,-141.6014 2.8499,-196.6534 0.8648,-14.3299 3.631,-42.4453 15.3125,-44.8831 6.9596,-1.4524 20.8848,14.4209 41.9991,30.6419 21.2228,16.3044 47.2783,23.5869 70.5408,30.1936 18.6683,5.3018 58.4834,4.0724 82.804,-12.8375 39.029,-27.1367 42.8124,-75.5783 59.3287,-106.5335 5.513,-10.3325 18.7679,-5.7422 25.8014,-54.13745 1.9174,-13.19328 3.45,-21.55475 5.4197,-21.32692 1.1797,0.13645 1.2537,3.7751 4.186,10.45908 11.1754,25.47354 26.2817,-14.38017 42.6636,-41.32997 4.3316,-7.12604 14.4054,-14.44773 16.7173,-22.46009 9.604,-33.2858 10.701,-64.34197 11.3054,-74.7541 0.4136,-7.12641 5.5305,-67.69566 5.9552,-83.46838 0.6201,-23.02578 3.224,-76.86681 4.4253,-90.8934 1.0441,-12.19077 2.7867,-50.31017 5.6114,-50.58257 3.0196,-0.2912 6.6103,43.0278 6.9943,51.86187 2.0241,46.5685 6.0289,168.25236 10.6399,219.53736 3.7394,41.5908 8.7786,122.84292 18.8385,180.75517 6.1056,35.1485 22.3779,76.3874 46.6513,85.8685 31.4126,12.2695 76.1739,10.6271 117.8413,7.6475 45.5012,-3.2537 72.7301,-18.4699 89.3995,-23.3948 25.2982,-7.4743 34.8927,-11.7578 74.2108,-0.3912 34.8672,10.0799 68.4238,22.7417 111.8656,19.5882 0,0 -0.3833,22.6218 -2.668,31.4682 -1.4685,5.686 -5.0163,7.9183 -9.7552,8.2218 -68.0198,4.3563 -89.492,13.7307 -106.4773,21.4198 -36.176,16.3765 -53.068,11.2485 -76.4367,3.381 -28.8572,-9.7153 -35.0996,-10.8919 -56.2686,-13.4799 -28.123,-3.4382 -37.7621,-4.8835 -64.9227,-4.6469 -22.5492,0.1965 -66.229,3.5687 -83.2743,13.0821 -17.2999,9.6555 -22.6099,17.1266 -33.4955,39.9221 -11.1422,23.333 -12.8224,50.3009 -17.4996,75.7312 -6.1637,33.5129 -8.6123,87.8114 -13.0016,131.3571 -5.5405,54.9659 -7.3437,158.885 -12.5932,220.2796 -0.7498,8.7689 -3.0887,45.2423 -5.7424,45.1735 -2.5196,-0.065 -4.7879,-34.3861 -5.2232,-40.4391 -3.22,-44.7758 -7.9159,-147.5341 -11.5409,-193.19 -1.4467,-18.2211 -2.9246,-24.2264 -2.9246,-24.2264 -4.3,-12.8021 -1.6369,-16.7599 -8.1801,-26.0668 -3.0661,-4.3611 -9.8355,-9.193 -15.3905,-17.289 -7.014,-10.2223 -15.8728,-22.8555 -19.5312,-27.349 -7.3002,-8.967 -14.5704,-6.693 -18.3757,0.067 -4.3521,7.7313 -9.4275,12.4362 -12.4293,-0.5426 -1.6297,-7.0466 -0.7666,-7.8014 -7.8527,-39.9371 -5.1852,-23.515 -19.5318,-23.6668 -27.3477,-52.0976 -5.6733,-20.6372 -20.8987,-49.471 -21.7313,-51.0198 -2.6331,-4.8982 -14.9428,-25.0906 -33.657,-34.6571 -20.3781,-10.417 -38.385,-13.0831 -50.0714,-13.9871 -15.6477,-1.2104 -36.8611,3.9105 -63.8123,14.4934 -33.6475,13.2124 -54.0268,31.628 -69.3166,57.8513 -19.1521,32.8474 -21.8419,71.8405 -21.8419,63.574 z"
       id="path1663"
       sodipodi:nodetypes="ssssssssssssssssssssssscsssssssssssssssssssssssssssss" />
  </g>
  <g
     id="g466"
     transform="translate(430.90088,-2924.9723)">
    <text
       xml:space="preserve"
       style="font-style:normal;font-variant:normal;font-weight:normal;font-stretch:normal;font-size:64px;line-height:1.25;font-family:sans-serif;-inkscape-font-specification:'sans-serif, Normal';font-variant-ligatures:normal;font-variant-caps:normal;font-variant-numeric:normal;font-variant-east-asian:normal;fill:#ff9955;fill-opacity:1;stroke:#000000;stroke-width:1;stroke-dasharray:none;stroke-opacity:1"
       x="1485.0413"
       y="3343.3623"
       id="text297-7-0-3"><tspan
         sodipodi:role="line"
         id="tspan295-9-2-6"
         x="1485.0413"
         y="3343.3623">scan rate: 50 mV s⁻¹</tspan></text>
  </g>
</svg>
