<?xml version="1.0" encoding="UTF-8" standalone="no"?>
<svg
   height="6542px"
   version="1.1"
   width="4959px"
   id="svg53"
   sodipodi:docname="Rehim_1998_Electrochemical_1103_p2_1.svg"
   inkscape:version="1.1 (ce6663b3b7, 2021-05-25)"
   xmlns:inkscape="http://www.inkscape.org/namespaces/inkscape"
   xmlns:sodipodi="http://sodipodi.sourceforge.net/DTD/sodipodi-0.dtd"
   xmlns:xlink="http://www.w3.org/1999/xlink"
   xmlns="http://www.w3.org/2000/svg"
   xmlns:svg="http://www.w3.org/2000/svg">
  <sodipodi:namedview
     id="namedview55"
     pagecolor="#ffffff"
     bordercolor="#666666"
     borderopacity="1.0"
     inkscape:pageshadow="2"
     inkscape:pageopacity="0.0"
     inkscape:pagecheckerboard="0"
     showgrid="false"
     inkscape:zoom="0.31777651"
     inkscape:cx="2487.5973"
     inkscape:cy="4369.423"
     inkscape:window-width="1608"
     inkscape:window-height="986"
     inkscape:window-x="72"
     inkscape:window-y="27"
     inkscape:window-maximized="1"
     inkscape:current-layer="svg53" />
  <defs
     id="defs49" />
  <image
     height="6542px"
     sodipodi:insensitive="true"
     width="4959px"
     x="0"
     xlink:href="Rehim_1998_Electrochemical_1103_p2.png"
     y="0"
     id="image51" />
  <g
     id="g20408">
    <path
       style="fill:none;stroke:#000000;stroke-width:1px;stroke-linecap:butt;stroke-linejoin:miter;stroke-opacity:1"
       d="m 1583.0724,3397.7413 -569.6097,-39.9999"
       id="path170" />
    <text
       xml:space="preserve"
       style="font-size:85.3333px;line-height:1.25;font-family:sans-serif"
       x="303.72437"
       y="3365.033"
       id="text2314"><tspan
         sodipodi:role="line"
         id="tspan2312"
         x="303.72437"
         y="3365.033">y2: 70 mA / cm2</tspan></text>
  </g>
  <g
     id="g20403">
    <path
       style="fill:none;stroke:#000000;stroke-width:1px;stroke-linecap:butt;stroke-linejoin:miter;stroke-opacity:1"
       d="m 1586.4093,5203.4583 -556.2622,-40.0712"
       id="path174" />
    <text
       xml:space="preserve"
       style="font-size:85.3333px;line-height:1.25;font-family:sans-serif"
       x="340.89487"
       y="5182.0298"
       id="text4892"><tspan
         sodipodi:role="line"
         id="tspan4890"
         x="340.89487"
         y="5182.0298">y1: -84 mA / cm2</tspan></text>
  </g>
  <g
     id="g20398">
    <path
       style="fill:none;stroke:#000000;stroke-width:1px;stroke-linecap:butt;stroke-linejoin:miter;stroke-opacity:1"
       d="M 1764.3767,5279.1087 1199.2161,5461.568"
       id="path172" />
    <text
       xml:space="preserve"
       style="font-size:85.3333px;line-height:1.25;font-family:sans-serif"
       x="366.2869"
       y="5512.5254"
       id="text6138"><tspan
         sodipodi:role="line"
         id="tspan6136"
         x="366.2869"
         y="5512.5254">x1: -1.44 V vs SCE </tspan></text>
  </g>
  <g
     id="g20393">
    <path
       style="fill:none;stroke:#000000;stroke-width:1px;stroke-linecap:butt;stroke-linejoin:miter;stroke-opacity:1"
       d="m 3435.5026,5279.1087 467.2786,195.7927"
       id="path176" />
    <text
       xml:space="preserve"
       style="font-size:85.3333px;line-height:1.25;font-family:sans-serif"
       x="3921.4612"
       y="5524.7529"
       id="text8356"><tspan
         sodipodi:role="line"
         id="tspan8354"
         x="3921.4612"
         y="5524.7529">x2: 0.96 V vs SCE </tspan></text>
  </g>
  <text
     xml:space="preserve"
     style="font-size:85.3333px;line-height:1.25;font-family:sans-serif"
     x="2025.609"
     y="5153.8105"
     id="text26882"><tspan
       sodipodi:role="line"
       id="tspan26880"
       x="2025.609"
       y="5153.8105">scan rate: 100 mV / s</tspan></text>
  <g
     id="g28353">
    <text
       xml:space="preserve"
       style="font-size:85.3333px;line-height:1.25;font-family:sans-serif"
       x="1897.7001"
       y="3270.146"
       id="text22678"><tspan
         sodipodi:role="line"
         id="tspan22676"
         x="1897.7001"
         y="3270.146">curve: polycr_Ag_oxidation</tspan></text>
    <path
       style="fill:none;stroke:#000000;stroke-width:1px;stroke-linecap:butt;stroke-linejoin:miter;stroke-opacity:1"
       d="m 1589.5427,4295.8205 c 9.3064,-14.2431 28.0741,-19.244 42.4717,-28.3095 16.5144,-10.3984 33.5801,-19.8943 50.3368,-29.8975 13.126,-7.8359 24.5932,-19.5148 39.3256,-23.5954 20.2256,-5.6022 41.9755,0.2303 62.9613,0 24.1241,-0.2647 48.2544,-0.5872 72.3591,-1.5881 25.732,-1.0684 51.3764,-3.9281 77.1186,-4.7141 37.2109,-1.1363 74.4761,1.2101 111.6847,0 24.1715,-0.7861 48.242,-3.5772 72.3995,-4.714 36.1548,-1.7013 72.3477,-2.6259 108.5387,-3.1511 27.8006,-0.4035 55.6168,0.7318 83.4107,0 39.9049,-1.0507 79.6956,-4.9155 119.5902,-6.3022 30.9218,-1.0748 61.8679,-1.5719 92.8084,-1.5629 29.9055,0.01 59.8105,2.4502 89.7028,1.5629 34.1678,-1.0142 68.1062,-6.1591 102.2465,-7.8651 22.5381,-1.1263 46.3566,5.8212 67.6805,-1.5629 9.9105,-3.4318 17.0998,-12.1812 25.1684,-18.8814 6.5694,-5.4552 10.7854,-14.5884 18.8763,-17.3184 5.488,-1.8518 11.6102,0.5221 17.3032,1.5882 3.7525,0.7027 7.3157,4.1094 11.0112,3.1511 5.7469,-1.4903 8.9059,-7.9441 12.5842,-12.6044 4.9579,-6.2814 7.6245,-14.1643 12.5842,-20.4443 3.2178,-4.0745 6.4931,-8.4582 11.0111,-11.0162 5.6436,-3.1953 13.9598,-0.4846 18.8763,-4.714 5.1687,-4.4463 5.5258,-12.4773 7.8652,-18.8814 3.5859,-9.8162 6.0043,-20.0272 9.4382,-29.8975 3.8733,-11.1333 8.3388,-22.0519 12.5842,-33.0487 4.6635,-12.0798 9.4873,-24.0972 14.1572,-36.1745 4.253,-10.999 7.6174,-22.3718 12.6245,-33.0486 4.0889,-8.7189 9.6435,-16.6769 14.1573,-25.1836 3.298,-6.2155 5.0698,-13.3652 9.4381,-18.8813 2.5424,-3.2104 5.6953,-6.2032 9.4381,-7.8651 3.3882,-1.5044 7.5211,-2.8132 11.0111,-1.563 8.0368,2.879 11.4794,12.6396 17.3034,18.8814 9.8679,10.5758 20.3795,20.5598 29.8873,31.4605 8.8275,10.1208 17.4312,20.4836 25.1684,31.4605 12.0737,17.1294 18.1257,38.764 33.0337,53.4929 4.3517,4.2994 9.6261,9.8573 15.7302,9.4533 6.7096,-0.4441 12.321,-6.8071 15.7705,-12.5792 6.0155,-10.0658 4.1541,-23.0819 6.2922,-34.6116 3.6019,-19.4235 7.5523,-38.7826 11.0111,-58.2321 3.3514,-18.846 4.9987,-38.0243 9.4381,-56.644 2.0378,-8.5468 3.3193,-17.6395 7.8653,-25.1584 3.0718,-5.0806 6.7781,-13.8442 12.5842,-12.6043 11.5279,2.4617 9.9718,21.5539 12.5842,33.0486 5.5986,24.6342 4.8077,50.3067 6.292,75.5254 0.8942,15.192 0.057,30.4852 1.573,45.6278 1.2712,12.6976 2.7666,25.4982 6.292,37.7627 1.8836,6.5527 1.4252,16.643 7.8653,18.8813 5.0992,1.7723 9.3817,-5.3476 14.1572,-7.8652 3.1108,-1.64 6.0564,-5.6788 9.4381,-4.714 7.6953,2.1954 7.8692,13.9786 12.5842,20.4443 2.8491,3.9069 4.604,11.1315 9.4381,11.0162 11.9587,-0.2853 14.473,-19.0555 22.0223,-28.3346 8.6915,-10.683 19.6947,-19.6519 26.7818,-31.4605 11.0265,-18.3725 15.1688,-40.0942 23.5953,-59.7951 5.9035,-13.8023 12.3772,-27.3565 18.8764,-40.8885 2.5413,-5.2912 2.0706,-14.818 7.8651,-15.7555 3.6659,-0.5931 6.8967,4.3052 7.8652,7.8903 5.9372,21.979 -10.9906,44.198 -17.3033,66.0721 -5.7954,20.0817 -10.3589,40.708 -18.8762,59.7951 -5.4607,12.2373 -12.6084,23.7447 -20.4495,34.6116 -9.3558,12.9662 -20.7232,24.3635 -31.5007,36.1745 -11.2522,12.3313 -21.2311,26.2115 -34.6067,36.1997 -16.5345,12.3471 -36.1145,20.1198 -55.0557,28.3094 -15.8327,6.8456 -31.5591,16.0794 -48.7638,17.3185 -10.6807,0.7693 -22.2613,-0.8894 -31.5009,-6.3022 -4.1723,-2.4442 -7.3718,-6.6445 -9.4381,-11.0163 -3.8685,-8.185 -2.7645,-17.9068 -4.7191,-26.7464 -1.7575,-7.948 -0.1556,-18.2471 -6.292,-23.5954 -3.1865,-2.7773 -8.5661,-2.8752 -12.5842,-1.5629 -11.6339,3.7995 -18.9785,15.6969 -26.7415,25.1583 -6.2781,7.6516 -10.5856,16.7282 -15.7303,25.1835 -8.5547,14.0597 -17.8971,27.7124 -25.1684,42.4767 -8.7363,17.7389 -15.4566,36.4295 -22.0223,55.0811 -6.5528,18.6149 -12.1581,37.5667 -17.3033,56.6188 -4.778,17.6921 -8.3639,35.6848 -12.5842,53.5181 -2.6059,11.0116 -3.8519,22.4433 -7.8651,33.0235 -3.1636,8.3403 -7.9191,16.0173 -12.6245,23.5954 -2.3801,3.8331 -3.3687,10.6424 -7.8651,11.0162 -4.4315,0.3684 -7.2973,-5.5305 -9.4381,-9.4281 -9.3114,-16.9528 -8.6411,-37.7085 -12.5842,-56.644 -3.9213,-18.8308 -6.2367,-38.0112 -11.0113,-56.644 -3.4165,-13.3326 -6.5478,-26.9567 -12.5842,-39.3257 -6.124,-12.5484 -13.7843,-24.6762 -23.5953,-34.6115 -8.9957,-9.1097 -19.2504,-18.1822 -31.4605,-22.0325 -11.5016,-3.6269 -24.7218,-3.7627 -36.1796,0 -11.7694,3.865 -22.937,11.8058 -29.9278,22.0325 -7.9656,11.6527 -8.1248,27.0717 -11.0112,40.8885 -4.3386,20.7683 -8.3526,41.7574 -9.4381,62.9462 -1.1551,22.5482 3.0728,45.0826 3.146,67.6603 0.085,26.2379 -2.6216,52.4184 -3.146,78.6512 -0.4614,23.0782 0.2652,46.1671 0,69.2484 -0.5244,45.6368 -1.0334,91.2925 -3.1461,136.8834 -1.0465,22.584 -3.3224,45.0952 -4.719,67.6602 -1.2003,19.3935 -1.586,38.839 -3.146,58.2069 -1.1853,14.7163 -2.2389,29.4856 -4.7192,44.0397 -1.54,9.0368 -3.3316,18.0958 -6.2921,26.7717 -2.0451,5.9933 -1.5757,16.5544 -7.865,17.2932 -5.9403,0.6978 -8.1902,-8.8934 -11.0113,-14.1674 -6.2582,-11.6994 -9.7933,-24.7914 -12.5842,-37.7626 -4.3247,-20.1 -4.6729,-40.862 -6.2921,-61.3581 -1.4893,-18.8517 -1.8965,-37.7749 -3.146,-56.644 -1.3553,-20.4683 -3.4596,-40.8837 -4.719,-61.3581 -2.0952,-34.0625 -2.5156,-68.2161 -4.7192,-102.2717 -1.2234,-18.9072 -3.1235,-37.7646 -4.719,-56.6441 -1.5511,-18.3538 -1.755,-36.8766 -4.7191,-55.0558 -2.8662,-17.5789 -3.8658,-36.3987 -12.5842,-51.9301 -4.3563,-7.7605 -10.6544,-15.475 -18.8763,-18.8812 -8.7195,-3.6124 -18.8846,-0.3951 -28.3145,0 -6.3222,0.2649 -13.1909,4.2819 -18.9166,1.5881 -13.2982,-6.2565 -17.2134,-23.8424 -25.1684,-36.1997 -12.2182,-18.9798 -22.2351,-39.3267 -34.6065,-58.207 -8.8566,-13.5164 -17.6895,-27.1753 -28.3145,-39.3508 -9.5083,-10.8958 -18.9777,-22.5714 -31.4605,-29.8724 -12.314,-7.2022 -26.7921,-10.4799 -40.8986,-12.6043 -18.1606,-2.7349 -36.7314,-0.1598 -55.0961,0 -30.4153,0.2647 -60.8191,1.6569 -91.2355,1.5881 -24.1389,-0.055 -48.2619,-1.3234 -72.3994,-1.5881 -27.7885,-0.3047 -55.5827,-0.3688 -83.3704,0 -19.9437,0.2647 -39.8859,0.7885 -59.8153,1.5881 -19.413,0.7789 -38.7803,2.6047 -58.2019,3.1259 -21.4903,0.5767 -42.9968,0.1809 -64.494,0 -30.9529,-0.2605 -61.8959,-1.3024 -92.8488,-1.5629 -36.7026,-0.3089 -73.7325,-4.8715 -110.1117,0 -17.7903,2.3823 -35.9029,6.1264 -51.9502,14.1673 -24.3822,12.2173 -42.5102,34.2029 -64.494,50.3418 -14.8898,10.931 -30.075,41.4414 -45.6177,31.4605 -7.6178,-4.8918 -0.2328,-19.1676 4.7191,-26.7464 z"
       id="path28173"
       sodipodi:nodetypes="sssssssssssssssssssssssssssssssssssssssssssssssssssssssssssssssssssssssssssssssssssssssssssssssssssssssssssssssssssssssssssssssss" />
  </g>
</svg>
