<?xml version="1.0" encoding="UTF-8" standalone="no"?>
<svg
   xmlns:dc="http://purl.org/dc/elements/1.1/"
   xmlns:cc="http://creativecommons.org/ns#"
   xmlns:rdf="http://www.w3.org/1999/02/22-rdf-syntax-ns#"
   xmlns:svg="http://www.w3.org/2000/svg"
   xmlns="http://www.w3.org/2000/svg"
   xmlns:xlink="http://www.w3.org/1999/xlink"
   xmlns:sodipodi="http://sodipodi.sourceforge.net/DTD/sodipodi-0.dtd"
   xmlns:inkscape="http://www.inkscape.org/namespaces/inkscape"
   height="6034px"
   version="1.1"
   width="4542px"
   id="svg6"
   sodipodi:docname="clavilier_1990_insitu_1_f5_10-10-9.svg"
   inkscape:version="1.0.2-2 (e86c870879, 2021-01-15)">
  <metadata
     id="metadata10">
    <rdf:RDF>
      <cc:Work
         rdf:about="">
        <dc:format>image/svg+xml</dc:format>
        <dc:type
           rdf:resource="http://purl.org/dc/dcmitype/StillImage" />
      </cc:Work>
    </rdf:RDF>
  </metadata>
  <sodipodi:namedview
     pagecolor="#ffffff"
     bordercolor="#666666"
     borderopacity="1"
     objecttolerance="10"
     gridtolerance="10"
     guidetolerance="10"
     inkscape:pageopacity="0"
     inkscape:pageshadow="2"
     inkscape:window-width="1920"
     inkscape:window-height="991"
     id="namedview8"
     showgrid="false"
     inkscape:zoom="0.39281105"
     inkscape:cx="1853.6358"
     inkscape:cy="4460.8812"
     inkscape:window-x="-9"
     inkscape:window-y="-9"
     inkscape:window-maximized="1"
     inkscape:current-layer="svg6"
     inkscape:document-rotation="0" />
  <defs
     id="defs2" />
  <image
     sodipodi:absref="C:\Users\tobia\ownCloud3\PPS\digitizer\clavilier_1990_insitu_1\clavilier_1990_insitu_1_p4.png"
     xlink:href="clavilier_1990_insitu_1_p4.png"
     height="6034px"
     sodipodi:insensitive="true"
     width="4542px"
     x="0"
     y="0"
     id="image4" />
  <g
     id="g897"
     transform="translate(341.85503,-201.95454)">
    <text
       xml:space="preserve"
       style="font-style:italic;font-weight:bold;font-size:48px;line-height:1.25;font-family:sans-serif;-inkscape-font-specification:'sans-serif Bold Italic';letter-spacing:0px"
       x="699.09937"
       y="4517.1763"
       id="text845-4"><tspan
         sodipodi:role="line"
         id="tspan843-5"
         x="699.09937"
         y="4517.1763">j2: 140 uA / cm2</tspan></text>
    <path
       style="fill:none;stroke:#000000;stroke-width:1px;stroke-linecap:butt;stroke-linejoin:miter;stroke-opacity:1"
       d="m 582.02282,4465.092 102.78479,40.2547"
       id="path871" />
  </g>
  <g
     id="g892"
     transform="translate(343.76434,-194.6753)">
    <text
       xml:space="preserve"
       style="font-style:italic;font-weight:bold;font-size:48px;line-height:1.25;font-family:sans-serif;-inkscape-font-specification:'sans-serif Bold Italic';letter-spacing:0px"
       x="421.47842"
       y="5388.7534"
       id="text845"><tspan
         sodipodi:role="line"
         id="tspan843"
         x="421.47842"
         y="5388.7534">j1: 0 uA / cm2</tspan></text>
    <path
       style="fill:none;stroke:#000000;stroke-width:1px;stroke-linecap:butt;stroke-linejoin:miter;stroke-opacity:1"
       d="M 409.97718,5370.206 593.08094,5156.1049"
       id="path873" />
  </g>
  <g
     id="g887"
     transform="translate(342.01414,-193.7604)">
    <text
       xml:space="preserve"
       style="font-style:italic;font-weight:bold;font-size:48px;line-height:1.25;font-family:sans-serif;-inkscape-font-specification:'sans-serif Bold Italic';letter-spacing:0px"
       x="635.44214"
       y="5322.9531"
       id="text841"><tspan
         sodipodi:role="line"
         id="tspan839"
         x="635.44214"
         y="5322.9531">E1: 0.0 V vs RHE</tspan></text>
    <path
       style="fill:none;stroke:#000000;stroke-width:1px;stroke-linecap:butt;stroke-linejoin:miter;stroke-opacity:1"
       d="M 635.80186,5303.5994 594.83114,5155.19"
       id="path875" />
  </g>
  <g
     id="g882"
     transform="translate(342.0142,-193.7604)">
    <text
       xml:space="preserve"
       style="font-style:italic;font-weight:bold;font-size:48px;line-height:1.25;font-family:sans-serif;-inkscape-font-specification:'sans-serif Bold Italic';letter-spacing:0px"
       x="2331.1545"
       y="5317.5527"
       id="text837"><tspan
         sodipodi:role="line"
         id="tspan835"
         x="2331.1545"
         y="5317.5527">E2: 1.0 V vs RHE</tspan></text>
    <path
       style="fill:none;stroke:#000000;stroke-width:1px;stroke-linecap:butt;stroke-linejoin:miter;stroke-opacity:1"
       d="m 2275.4633,5155.3168 51.9915,142.3956"
       id="path877" />
  </g>
  <text
     xml:space="preserve"
     style="font-style:italic;font-weight:bold;font-size:48px;line-height:1.25;font-family:sans-serif;-inkscape-font-specification:'sans-serif Bold Italic';letter-spacing:0px"
     x="1006.2667"
     y="4001.6653"
     id="text912"><tspan
       sodipodi:role="line"
       id="tspan910"
       x="1006.2667"
       y="4001.6653">Figure: 5</tspan></text>
  <text
     xml:space="preserve"
     style="font-style:italic;font-weight:bold;font-size:48px;line-height:1.25;font-family:sans-serif;-inkscape-font-specification:'sans-serif Bold Italic';letter-spacing:0px"
     x="975.66467"
     y="4059.269"
     id="text916"><tspan
       sodipodi:role="line"
       id="tspan914"
       x="975.66467"
       y="4059.269">tags: BCV</tspan></text>
  <text
     xml:space="preserve"
     style="font-style:italic;font-weight:bold;font-size:48px;line-height:1.25;font-family:sans-serif;-inkscape-font-specification:'sans-serif Bold Italic';letter-spacing:0px"
     x="603.34351"
     y="4628.1792"
     id="text920"><tspan
       sodipodi:role="line"
       id="tspan918"
       x="603.34351"
       y="4628.1792">scan rate: 50 mV / s</tspan></text>
  <text
     xml:space="preserve"
     style="font-style:italic;font-weight:bold;font-size:48px;line-height:1.25;font-family:sans-serif;-inkscape-font-specification:'sans-serif Bold Italic';letter-spacing:0px"
     x="593.63385"
     y="3347.2153"
     id="text867"><tspan
       sodipodi:role="line"
       id="tspan865"
       x="593.63385"
       y="3347.2153">comment: The CVs are stacked which makes reading the axes difficult. </tspan></text>
  <g
     id="g867">
    <path
       style="fill:none;stroke:#10e500;stroke-width:1px;stroke-linecap:butt;stroke-linejoin:miter;stroke-opacity:1"
       d="m 1019.5741,4933.3514 2.2276,-127.2876 c 2.1644,13.3265 20.0284,9.2453 34.7951,2.4878 11.3365,-5.1877 23.0132,-34.8588 25.1996,-58.2218 3.4175,-36.5179 4.7991,-78.9913 11.0227,-79.8081 7.395,-0.9705 13.5108,66.8151 25.4133,104.672 5.4569,17.3563 14.7858,31.85 47.7226,35.9616 61.5878,7.6883 174.0528,-0.2791 186.1582,3.8186 6.4002,2.1665 33.5849,25.7662 55.2545,35.6685 29.1579,13.3242 62.7076,41.9044 79.6026,37.8016 10.0995,-2.4527 32.6318,-31.7342 53.6593,-41.6863 22.1485,-10.4827 35.3285,-9.166 59.789,-10.6246 27.4018,-1.6339 72.3741,10.3584 76.505,8.1005 12.6874,-6.9345 9.4162,-90.2645 14.9636,-90.5685 2.2326,-0.1223 2.1755,41.171 13.8337,81.6494 7.9381,27.5619 23.3596,54.9874 40.6199,67.7605 33.9879,25.1519 71.184,33.4299 133.8838,42.7529 40.1344,5.9676 135.1063,1.8859 173.5143,-6.2583 19.0516,-4.0397 33.8683,-22.2134 50.3756,-22.0936 16.4554,0.1194 23.2447,20.367 38.7002,26.5575 19.1731,7.6796 46.7444,3.8105 67.0568,5.8446 46.9084,4.6974 109.5191,1.356 130.9587,4.2753 0,0 1.8629,15.4234 -0.9001,17.1011 -6.1894,3.7582 -21.1514,4.9504 -21.1514,4.9504"
       id="path858"
       sodipodi:nodetypes="ccssssssssssssssssssscsc" />
    <text
       xml:space="preserve"
       style="font-style:italic;font-weight:bold;font-size:48px;line-height:1.25;font-family:sans-serif;-inkscape-font-specification:'sans-serif Bold Italic';letter-spacing:0px"
       x="1339.2888"
       y="4176.2769"
       id="text862"><tspan
         sodipodi:role="line"
         id="tspan860"
         x="1339.2888"
         y="4176.2769">curve: (10,10,9)</tspan></text>
  </g>
</svg>
