<?xml version="1.0" encoding="UTF-8" standalone="no"?>
<svg
   xmlns:dc="http://purl.org/dc/elements/1.1/"
   xmlns:cc="http://creativecommons.org/ns#"
   xmlns:rdf="http://www.w3.org/1999/02/22-rdf-syntax-ns#"
   xmlns:svg="http://www.w3.org/2000/svg"
   xmlns="http://www.w3.org/2000/svg"
   xmlns:xlink="http://www.w3.org/1999/xlink"
   xmlns:sodipodi="http://sodipodi.sourceforge.net/DTD/sodipodi-0.dtd"
   xmlns:inkscape="http://www.inkscape.org/namespaces/inkscape"
   height="6034px"
   version="1.1"
   width="4542px"
   id="svg6"
   sodipodi:docname="clavilier_1990_insitu_1_p4_f5_554.svg"
   inkscape:version="1.0.2-2 (e86c870879, 2021-01-15)">
  <metadata
     id="metadata10">
    <rdf:RDF>
      <cc:Work
         rdf:about="">
        <dc:format>image/svg+xml</dc:format>
        <dc:type
           rdf:resource="http://purl.org/dc/dcmitype/StillImage" />
      </cc:Work>
    </rdf:RDF>
  </metadata>
  <sodipodi:namedview
     pagecolor="#ffffff"
     bordercolor="#666666"
     borderopacity="1"
     objecttolerance="10"
     gridtolerance="10"
     guidetolerance="10"
     inkscape:pageopacity="0"
     inkscape:pageshadow="2"
     inkscape:window-width="1920"
     inkscape:window-height="991"
     id="namedview8"
     showgrid="false"
     inkscape:zoom="0.55551873"
     inkscape:cx="1758.1614"
     inkscape:cy="4199.3141"
     inkscape:window-x="-9"
     inkscape:window-y="-9"
     inkscape:window-maximized="1"
     inkscape:current-layer="svg6"
     inkscape:document-rotation="0" />
  <defs
     id="defs2" />
  <image
     sodipodi:absref="C:\Users\tobia\ownCloud3\PPS\digitizer\clavilier_1990_insitu_1\clavilier_1990_insitu_1_p4.png"
     xlink:href="../../clavilier_1990_insitu_1/clavilier_1990_insitu_1_p4.png"
     height="6034px"
     sodipodi:insensitive="true"
     width="4542px"
     x="0"
     y="0"
     id="image4" />
  <g
     id="g897"
     transform="translate(669.84486,-389.24653)">
    <text
       xml:space="preserve"
       style="font-style:italic;font-weight:bold;font-size:48px;line-height:1.25;font-family:sans-serif;-inkscape-font-specification:'sans-serif Bold Italic';letter-spacing:0px"
       x="699.09937"
       y="4517.1763"
       id="text845-4"><tspan
         sodipodi:role="line"
         id="tspan843-5"
         x="699.09937"
         y="4517.1763">j2: 140 uA / cm2</tspan></text>
    <path
       style="fill:none;stroke:#000000;stroke-width:1px;stroke-linecap:butt;stroke-linejoin:miter;stroke-opacity:1"
       d="m 582.02282,4465.092 102.78479,40.2547"
       id="path871" />
  </g>
  <g
     id="g892"
     transform="translate(671.91326,-379.6602)">
    <text
       xml:space="preserve"
       style="font-style:italic;font-weight:bold;font-size:48px;line-height:1.25;font-family:sans-serif;-inkscape-font-specification:'sans-serif Bold Italic';letter-spacing:0px"
       x="421.47842"
       y="5388.7534"
       id="text845"><tspan
         sodipodi:role="line"
         id="tspan843"
         x="421.47842"
         y="5388.7534">j1: 0 uA / cm2</tspan></text>
    <path
       style="fill:none;stroke:#000000;stroke-width:1px;stroke-linecap:butt;stroke-linejoin:miter;stroke-opacity:1"
       d="M 409.97718,5370.206 593.08094,5156.1049"
       id="path873" />
  </g>
  <g
     id="g887"
     transform="translate(670.16306,-378.7453)">
    <text
       xml:space="preserve"
       style="font-style:italic;font-weight:bold;font-size:48px;line-height:1.25;font-family:sans-serif;-inkscape-font-specification:'sans-serif Bold Italic';letter-spacing:0px"
       x="635.44214"
       y="5322.9531"
       id="text841"><tspan
         sodipodi:role="line"
         id="tspan839"
         x="635.44214"
         y="5322.9531">E1: 0.0 V vs RHE</tspan></text>
    <path
       style="fill:none;stroke:#000000;stroke-width:1px;stroke-linecap:butt;stroke-linejoin:miter;stroke-opacity:1"
       d="M 635.80186,5303.5994 594.83114,5155.19"
       id="path875" />
  </g>
  <g
     id="g882"
     transform="translate(670.1631,-378.7453)">
    <text
       xml:space="preserve"
       style="font-style:italic;font-weight:bold;font-size:48px;line-height:1.25;font-family:sans-serif;-inkscape-font-specification:'sans-serif Bold Italic';letter-spacing:0px"
       x="2331.1545"
       y="5317.5527"
       id="text837"><tspan
         sodipodi:role="line"
         id="tspan835"
         x="2331.1545"
         y="5317.5527">E2: 1.0 V vs RHE</tspan></text>
    <path
       style="fill:none;stroke:#000000;stroke-width:1px;stroke-linecap:butt;stroke-linejoin:miter;stroke-opacity:1"
       d="m 2275.4633,5155.3168 51.9915,142.3956"
       id="path877" />
  </g>
  <text
     xml:space="preserve"
     style="font-style:italic;font-weight:bold;font-size:48px;line-height:1.25;font-family:sans-serif;-inkscape-font-specification:'sans-serif Bold Italic';letter-spacing:0px"
     x="1085.1851"
     y="3871.8318"
     id="text912"><tspan
       sodipodi:role="line"
       id="tspan910"
       x="1085.1851"
       y="3871.8318">Figure: 5</tspan></text>
  <text
     xml:space="preserve"
     style="font-style:italic;font-weight:bold;font-size:48px;line-height:1.25;font-family:sans-serif;-inkscape-font-specification:'sans-serif Bold Italic';letter-spacing:0px"
     x="1029.1255"
     y="3972.7134"
     id="text916"><tspan
       sodipodi:role="line"
       id="tspan914"
       x="1029.1255"
       y="3972.7134">tags: BCV</tspan></text>
  <text
     xml:space="preserve"
     style="font-style:italic;font-weight:bold;font-size:48px;line-height:1.25;font-family:sans-serif;-inkscape-font-specification:'sans-serif Bold Italic';letter-spacing:0px"
     x="603.34351"
     y="4628.1792"
     id="text920"><tspan
       sodipodi:role="line"
       id="tspan918"
       x="603.34351"
       y="4628.1792">scan rate: 50 mV / s</tspan></text>
  <g
     id="g863">
    <path
       style="fill:none;stroke:#00dd16;stroke-width:1px;stroke-linecap:butt;stroke-linejoin:miter;stroke-opacity:1"
       d="m 1362.0153,4767.391 c -1.3501,0 -1.5751,-196.213 -1.5751,-196.213 4.7435,20.886 3.3604,31.5332 27.9018,21.8265 26.1728,-10.352 28.2096,-89.9501 32.0953,-148.2041 0.9668,-14.4933 3.0877,-58.4305 3.7191,-78.9982 1.3098,-42.6617 -0.4644,-86.8207 4.0133,-86.9186 2.1347,-0.047 7.2529,25.1615 9.2054,59.9484 4.0288,71.7809 12.7243,182.9261 21.6216,212.7697 6.2224,20.8714 14.139,38.2669 24.9193,48.2416 20.2442,18.7311 65.354,19.1267 87.5882,20.3493 35.5315,1.9538 85.8781,0.6154 102.8318,8.8142 12.078,5.8409 36.2315,32.4042 66.1481,55.1408 34.581,26.2815 76.7141,48.5429 113.6388,47.016 21.1953,-0.8764 34.6276,-16.6115 50.6649,-32.5727 13.0119,-12.9501 28.4045,-26.5208 44.5164,-32.4566 33.4853,-12.3363 49.9975,-9.3764 75.3899,-5.3411 23.1613,3.6808 43.9049,21.0122 60.5191,32.7929 45.6721,32.3848 127.9133,42.8509 162.0108,44.328 34.6597,1.5015 76.5833,5.2182 116.2139,3.8095 53.1429,-1.8889 106.3712,4.6584 127.9272,6.7662 22.2191,2.1726 48.4569,3.6268 75.8621,4.027 53.1673,0.7762 107.0866,-1.145 119.0009,0.2482 2.2821,5.2002 -2.7002,26.1018 -2.7002,26.1018"
       id="path854"
       sodipodi:nodetypes="ccssssssssssssssssssscc" />
    <text
       xml:space="preserve"
       style="font-style:italic;font-weight:bold;font-size:48px;line-height:1.25;font-family:sans-serif;-inkscape-font-specification:'sans-serif Bold Italic';letter-spacing:0px"
       x="1445.9878"
       y="4021.0171"
       id="text858"><tspan
         sodipodi:role="line"
         id="tspan856"
         x="1445.9878"
         y="4021.0171">curve: (554)</tspan></text>
  </g>
  <text
     xml:space="preserve"
     style="font-style:italic;font-weight:bold;font-size:48px;line-height:1.25;font-family:sans-serif;-inkscape-font-specification:'sans-serif Bold Italic';letter-spacing:0px"
     x="394.22614"
     y="3447.2285"
     id="text867"><tspan
       sodipodi:role="line"
       id="tspan865"
       x="394.22614"
       y="3447.2285">comment: The CVs are stacked which makes reading the axes difficult. </tspan></text>
</svg>
