<?xml version="1.0" encoding="UTF-8" standalone="no"?>
<svg
   xmlns:dc="http://purl.org/dc/elements/1.1/"
   xmlns:cc="http://creativecommons.org/ns#"
   xmlns:rdf="http://www.w3.org/1999/02/22-rdf-syntax-ns#"
   xmlns:svg="http://www.w3.org/2000/svg"
   xmlns="http://www.w3.org/2000/svg"
   xmlns:xlink="http://www.w3.org/1999/xlink"
   xmlns:sodipodi="http://sodipodi.sourceforge.net/DTD/sodipodi-0.dtd"
   xmlns:inkscape="http://www.inkscape.org/namespaces/inkscape"
   height="6000px"
   version="1.1"
   width="4500px"
   id="svg6"
   sodipodi:docname="clavilier_1990_insitu_1_f1_solid.svg"
   inkscape:version="1.0.2-2 (e86c870879, 2021-01-15)">
  <metadata
     id="metadata10">
    <rdf:RDF>
      <cc:Work
         rdf:about="">
        <dc:format>image/svg+xml</dc:format>
        <dc:type
           rdf:resource="http://purl.org/dc/dcmitype/StillImage" />
      </cc:Work>
    </rdf:RDF>
  </metadata>
  <sodipodi:namedview
     pagecolor="#ffffff"
     bordercolor="#666666"
     borderopacity="1"
     objecttolerance="10"
     gridtolerance="10"
     guidetolerance="10"
     inkscape:pageopacity="0"
     inkscape:pageshadow="2"
     inkscape:window-width="2400"
     inkscape:window-height="1261"
     id="namedview8"
     showgrid="false"
     inkscape:zoom="0.27933333"
     inkscape:cx="1703.6249"
     inkscape:cy="4206.3844"
     inkscape:window-x="2391"
     inkscape:window-y="-9"
     inkscape:window-maximized="1"
     inkscape:current-layer="svg6" />
  <defs
     id="defs2" />
  <image
     sodipodi:absref="C:\Users\tobia\ownCloud3\PPS\digitizer\clavilier_1990_insitu_1\clavilier_1990_insitu_1_p2.png"
     xlink:href="clavilier_1990_insitu_1_p2.png"
     id="image4"
     y="0"
     x="0"
     width="4500px"
     sodipodi:insensitive="true"
     height="6000px" />
  <g
     id="g872">
    <text
       xml:space="preserve"
       style="font-style:italic;font-weight:bold;font-size:48px;line-height:1.25;font-family:sans-serif;-inkscape-font-specification:'sans-serif Bold Italic';letter-spacing:0px"
       x="1201.969"
       y="4308.4727"
       id="text841"><tspan
         sodipodi:role="line"
         id="tspan839"
         x="1201.969"
         y="4308.4727">E1: 0.0 V vs RHE</tspan></text>
    <path
       style="fill:none;stroke:#000000;stroke-width:1px;stroke-linecap:butt;stroke-linejoin:miter;stroke-opacity:1"
       d="M 1196.0905,4289.4718 1014.1334,4168.6307"
       id="path851" />
  </g>
  <g
     id="g877">
    <text
       xml:space="preserve"
       style="font-style:italic;font-weight:bold;font-size:48px;line-height:1.25;font-family:sans-serif;-inkscape-font-specification:'sans-serif Bold Italic';letter-spacing:0px"
       x="3398.416"
       y="4398.3223"
       id="text837"><tspan
         sodipodi:role="line"
         id="tspan835"
         x="3398.416"
         y="4398.3223">E2: 1.1 V vs RHE</tspan></text>
    <path
       style="fill:none;stroke:#000000;stroke-width:1px;stroke-linecap:butt;stroke-linejoin:miter;stroke-opacity:1"
       d="m 3391.4546,4376.8053 -14.3974,-201.8007"
       id="path853" />
  </g>
  <g
     id="g867">
    <text
       xml:space="preserve"
       style="font-style:italic;font-weight:bold;font-size:48px;line-height:1.25;font-family:sans-serif;-inkscape-font-specification:'sans-serif Bold Italic';letter-spacing:0px"
       x="1166.1694"
       y="4959.1289"
       id="text849"><tspan
         sodipodi:role="line"
         id="tspan847"
         x="1166.1694"
         y="4959.1289">j1: -60 uA / cm2</tspan></text>
    <path
       style="fill:none;stroke:#000000;stroke-width:1px;stroke-linecap:butt;stroke-linejoin:miter;stroke-opacity:1"
       d="m 1016.5187,4905.7115 120.5584,24.6813"
       id="path855" />
  </g>
  <g
     id="g862">
    <text
       xml:space="preserve"
       style="font-style:italic;font-weight:bold;font-size:48px;line-height:1.25;font-family:sans-serif;-inkscape-font-specification:'sans-serif Bold Italic';letter-spacing:0px"
       x="1184.9642"
       y="3411.6946"
       id="text845"><tspan
         sodipodi:role="line"
         id="tspan843"
         x="1184.9642"
         y="3411.6946">j2: 60 uA / cm2</tspan></text>
    <path
       style="fill:none;stroke:#000000;stroke-width:1px;stroke-linecap:butt;stroke-linejoin:miter;stroke-opacity:1"
       d="m 1012.247,3433.5392 164.858,-36.0725"
       id="path857" />
  </g>
  <g
     id="g904">
    <path
       style="fill:none;stroke:#0bf600;stroke-width:1px;stroke-linecap:butt;stroke-linejoin:miter;stroke-opacity:1"
       d="m 1145.7788,3815.4655 c 8.6685,-21.5036 -1.1393,5.0085 15.7039,9.7424 27.4127,-7.4491 51.9121,-20.5418 77.1291,-26.8214 24.416,-6.0802 48.3972,-7.8596 76.4489,-8.9447 32.4193,-1.254 55.1937,-7.6577 89.187,-11.2582 78.5625,-8.3212 104.4547,-19.6908 117.1288,-19.0419 9.3393,0.4782 38.01,26.1544 73.7949,48.9399 34.2688,21.8201 73.6951,39.3964 101.1888,39.9757 15.5497,0.3277 25.9994,-29.1447 35.0723,-59.313 8.3004,-27.5999 14.9551,-56.4817 32.9592,-57.4481 15.7759,-0.8468 19.8556,11.0631 31.2312,22.5682 13.7228,13.879 32.0265,27.9438 43.814,34.3881 25.4526,13.9151 51.0944,24.9283 70.7346,37.6526 26.1061,16.9132 41.8105,33.6419 50.088,30.3794 14.6589,-5.7776 11.5759,-171.4372 15.5049,-257.2544 4.6236,-100.9891 5.1305,-302.7522 9.4927,-303.1362 4.2901,-0.3777 7.3259,221.4934 10.7585,332.2474 2.9812,96.1895 3.7461,233.2208 8.5435,288.5805 6.7146,77.483 27.2908,171.7752 110.7492,205.3606 36.3719,14.6368 70.9275,15.2655 110.0886,17.0364 47.9365,2.1678 100.9897,3.5938 150.6464,4.1641 39.3466,0.4519 82.2291,-1.2204 116.1284,-21.2005 40.8728,-24.0902 65.1801,-111.2929 90.1814,-110.1163 25.9706,1.2222 38.279,94.4919 78.4737,113.9134 46.8347,22.6299 172.9281,20.0363 259.7858,20.2512 104.766,0.2592 207.0011,-0.096 310.414,-3.7971 87.1147,-3.1181 204.7716,-9.9544 261.0515,-15.5048 v 61.3866 c -47.8819,23.0731 -206.1748,24.1518 -309.7812,25.947 -60.5906,1.0498 -155.1871,0.3772 -250.3092,-1.3756 -58.9229,-1.0858 -116.9443,-4.7923 -170.5374,-2.1051 -38.9946,1.9552 -86.245,15.672 -125.1288,19.8369 -30.0096,3.2143 -54.9111,1.4044 -84.761,2.1818 -27.1094,0.7061 -56.3699,2.6219 -73.3115,27.0273 -20.0422,28.8721 -19.52,137.9825 -31.3262,137.3289 -7.8626,-0.4353 -11.5288,-48.521 -19.2347,-92.3085 -6.2728,-35.6436 -17.9583,-67.6664 -56.0747,-76.0301 -89.2196,-19.5771 -228.977,-15.546 -274.025,0.9492 -73.6685,26.9751 -94.538,129.3678 -102.2056,212.0055 -9.7914,105.5276 -14.2462,211.5004 -18.9856,317.3753 -5.7145,127.6593 -6.3637,382.6034 -11.3913,383.192 -6.593,0.7719 -6.659,-265.1733 -10.4421,-397.7476 -2.8324,-99.259 -5.8259,-277.3522 -9.1763,-297.7569 -7.166,33.137 0.1337,36.3262 -23.0458,54.2088 -22.5838,17.4228 -59.7932,36.4675 -75.0463,40.0862 -55.3398,13.129 -78.4098,50.1105 -96.8264,50.6281 -31.2584,0.8785 -25.0096,-89.4124 -83.5365,-90.8142 -21.0193,-0.5034 -57.3335,18.2387 -88.9093,33.9033 -33.709,16.723 -76.5065,50.5913 -92.7192,51.2153 -11.7341,0.4517 -45.3488,-7.0409 -87.5481,-13.7448 -41.6165,-6.6113 -91.5754,-11.7818 -131.7352,-8.7215 -32.4068,2.4695 -63.4738,0.9929 -91.7701,2.7322 -14.2328,0.8748 -38.4122,28.6566 -43.9767,46.9467 z"
       id="path879"
       sodipodi:nodetypes="ccssssssssssssssssssssssssccsssssssssssssccssssssssscc" />
    <text
       xml:space="preserve"
       style="font-style:italic;font-weight:bold;font-size:48px;line-height:1.25;font-family:sans-serif;-inkscape-font-specification:'sans-serif Bold Italic';letter-spacing:0px"
       x="2316.2388"
       y="3693.325"
       id="text883"><tspan
         sodipodi:role="line"
         id="tspan881"
         x="2316.2388"
         y="3693.325">curve: solid</tspan></text>
  </g>
  <text
     xml:space="preserve"
     style="font-style:italic;font-weight:bold;font-size:48px;line-height:1.25;font-family:sans-serif;-inkscape-font-specification:'sans-serif Bold Italic';letter-spacing:0px"
     x="3037.6902"
     y="3270.5798"
     id="text887"><tspan
       sodipodi:role="line"
       id="tspan885"
       x="3037.6902"
       y="3270.5798">Figure: 1</tspan></text>
  <text
     xml:space="preserve"
     style="font-style:italic;font-weight:bold;font-size:48px;line-height:1.25;font-family:sans-serif;-inkscape-font-specification:'sans-serif Bold Italic';letter-spacing:0px"
     x="3040.2217"
     y="3369.3047"
     id="text891"><tspan
       sodipodi:role="line"
       id="tspan889"
       x="3040.2217"
       y="3369.3047">tags: BCV</tspan></text>
  <text
     xml:space="preserve"
     style="font-style:italic;font-weight:bold;font-size:48px;line-height:1.25;font-family:sans-serif;-inkscape-font-specification:'sans-serif Bold Italic';letter-spacing:0px"
     x="2518.7515"
     y="4994.4692"
     id="text895"><tspan
       sodipodi:role="line"
       id="tspan893"
       x="2518.7515"
       y="4994.4692" /></text>
  <text
     xml:space="preserve"
     style="font-style:italic;font-weight:bold;font-size:48px;line-height:1.25;font-family:sans-serif;-inkscape-font-specification:'sans-serif Bold Italic';letter-spacing:0px"
     x="2503.563"
     y="4713.4829"
     id="text899"><tspan
       sodipodi:role="line"
       id="tspan897"
       x="2503.563"
       y="4713.4829">scan rate: 50 mV / s</tspan></text>
</svg>
